<svg xmlns="http://www.w3.org/2000/svg" viewBox="0 0 234.25 65.94"><defs><style>.cls-1{fill:#101111;}.cls-2{fill:#ffad1d;}</style></defs><g id="Layer_2" data-name="Layer 2"><g id="Section_2_-_Sarbatoreste" data-name="Section 2 - Sarbatoreste"><g id="Sarbatoreste_Group" data-name="Sarbatoreste Group"><path class="cls-1" d="M25.12,25.81c-4.51,0-7.67-2-7.22-6.07h5.55a1.59,1.59,0,0,0,1.77,1.93c1,0,1.72-.45,1.72-1.34,0-2.71-7.83-2.17-7.86-7.67,0-4,3.19-6.25,7.62-6.25,4.26,0,7.24,2.2,6.84,5.88H27.88a1.36,1.36,0,0,0-1.48-1.75c-.93,0-1.61.51-1.61,1.37,0,2.58,7.84,2.47,7.84,8C32.63,23.26,29.81,25.81,25.12,25.81Z"/><path class="cls-1" d="M46.77,22.53H40.06L38.5,25.62H33L43.2,6.71h6.06L52.8,25.62H47.25ZM45.21,12.39,42.1,18.54h4Zm1.23-6.86C43.71,5.53,42,3.84,42.53.48L42.61,0h2.52c-.19,1.07.24,1.72,2,1.72S49.5,1.07,49.69,0h2.55l-.11.48A5.58,5.58,0,0,1,46.44,5.53Z"/><path class="cls-1" d="M66.14,6.71c4.69,0,6.59,2.68,6,6.06A6.87,6.87,0,0,1,67,18.24l3,7.38H64.1l-2.52-7H61l-1.23,7H54.49L57.85,6.71Zm-1.21,4.37h-2.6l-.67,4h2.6a2.23,2.23,0,0,0,2.47-2C66.94,11.88,66.38,11.08,64.93,11.08Z"/><path class="cls-1" d="M81.59,25.62H72.23L75.58,6.71h9.07c3.83,0,5.87,1.77,5.33,4.91a5.32,5.32,0,0,1-4,4.29,3.71,3.71,0,0,1,2.82,4.56C88.29,23.66,85.67,25.62,81.59,25.62ZM81.88,18h-3l-.59,3.46h3.06a2,2,0,0,0,2.28-1.69C83.79,18.56,83.17,18,81.88,18Zm.89-7.06H80.11l-.59,3.35h2.66a2,2,0,0,0,2.25-1.66C84.62,11.45,84.06,10.89,82.77,10.89Z"/><path class="cls-1" d="M102.75,22.53h-6.7l-1.56,3.09H89L99.19,6.71h6.06l3.54,18.91h-5.55ZM101.2,12.39l-3.11,6.15h4Zm1.23-6.86C99.7,5.53,98,3.84,98.52.48L98.6,0h2.52c-.19,1.07.24,1.72,2,1.72s2.39-.65,2.58-1.72h2.55l-.11.48A5.58,5.58,0,0,1,102.43,5.53Z"/><path class="cls-1" d="M112.79,6.71h15.29l-.75,4.18h-5l-2.6,14.73h-5.29L117,10.89h-5Z"/><path class="cls-1" d="M135.83,25.81c-4.85,0-8-3.22-8-7.92,0-6.78,4.56-11.48,11.16-11.48,5,0,8.1,3.17,8.1,7.86C147.07,21,142.51,25.81,135.83,25.81Zm.81-4.89c3.27,0,5.23-2.84,5.23-6a3.27,3.27,0,0,0-3.57-3.62c-3.27,0-5.28,2.79-5.28,6A3.32,3.32,0,0,0,136.64,20.92Z"/><path class="cls-1" d="M159.44,6.71c4.69,0,6.6,2.68,6,6.06a6.86,6.86,0,0,1-5.12,5.47l2.95,7.38H157.4l-2.52-7h-.56l-1.24,7H147.8l3.35-18.91Zm-1.21,4.37h-2.6l-.67,4h2.6a2.23,2.23,0,0,0,2.47-2C160.25,11.88,159.68,11.08,158.23,11.08Z"/><path class="cls-1" d="M180.26,10.86h-6.84L172.88,14h6l-.73,4h-6l-.62,3.43h6.84l-.72,4.19H165.53l3.35-18.91H181Z"/><path class="cls-1" d="M188.06,25.81c-4.5,0-7.67-2-7.21-6.07h5.55a1.58,1.58,0,0,0,1.77,1.93c1,0,1.72-.45,1.72-1.34,0-2.71-7.83-2.17-7.86-7.67,0-4,3.19-6.25,7.62-6.25,4.26,0,7.24,2.2,6.84,5.88h-5.66a1.36,1.36,0,0,0-1.48-1.75c-.94,0-1.61.51-1.61,1.37,0,2.58,7.84,2.47,7.84,8C195.58,23.26,192.76,25.81,188.06,25.81Zm1.32.83a9.16,9.16,0,0,1,0,3.38c-.46,2.49-2.07,4.4-4.89,4.4l.35-1.91c.94,0,1.53-.59,1.77-1.9l.06-.35h-1.8l.64-3.62Z"/><path class="cls-1" d="M200.41,6.71H215.7l-.76,4.18h-5l-2.6,14.73H202l2.6-14.73h-5Z"/><path class="cls-1" d="M229,10.86h-6.84L221.65,14h6L227,18h-6l-.62,3.43h6.84l-.72,4.19H214.3l3.36-18.91h12.09Z"/><path class="cls-2" d="M17.87,36.91c7.21,0,10.13,4.12,9.19,9.31a10.56,10.56,0,0,1-7.87,8.4l4.53,11.32h-9l-3.87-10.7H10l-1.9,10.7H0l5.15-29ZM16,43.62H12l-1,6.1h4a3.42,3.42,0,0,0,3.79-3C19.11,44.86,18.24,43.62,16,43.62Z"/><path class="cls-2" d="M49.83,43.29H39.33l-.82,4.82h9.26l-1.11,6.14H37.39l-.94,5.27H47l-1.11,6.42H27.22l5.15-29H50.94Z"/><path class="cls-2" d="M52.84,36.91h8.61l2.88,20.92L74.58,36.91h8.61L68,65.94H57.74Z"/><path class="cls-2" d="M103.16,43.29H92.66l-.82,4.82h9.26L100,54.25H90.73l-1,5.27h10.5l-1.11,6.42H80.55l5.15-29h18.58Z"/><path class="cls-2" d="M132.36,51.41c-1.48,8.4-8.44,14.53-17.75,14.53H103.12l5.15-29h11.49C129,36.91,133.89,42.88,132.36,51.41Zm-17.09,7.45a8.52,8.52,0,0,0,8.9-7.45c.82-4.82-1.61-7.5-6.26-7.5h-2.76l-2.68,15Z"/><path class="cls-2" d="M156,43.29H145.5l-.82,4.82h9.26l-1.11,6.14h-9.27l-.94,5.27h10.5L152,65.94H133.39l5.15-29h18.57Z"/><path class="cls-2" d="M173.83,36.91C181,36.91,184,41,183,46.22a10.56,10.56,0,0,1-7.87,8.4l4.53,11.32h-9l-3.87-10.7H166l-1.9,10.7H156l5.15-29ZM172,43.62h-4l-1,6.1h4a3.42,3.42,0,0,0,3.79-3C175.07,44.86,174.2,43.62,172,43.62Z"/><path class="cls-2" d="M205.79,43.29h-10.5l-.82,4.82h9.26l-1.11,6.14h-9.27l-.94,5.27h10.5l-1.11,6.42H183.18l5.15-29H206.9Z"/><path class="cls-2" d="M225,61.21H214.69l-2.39,4.73h-8.49l15.69-29h9.31l5.44,29h-8.53Zm-2.39-15.57-4.77,9.43H224Z"/></g></g></g></svg>