<svg xmlns="http://www.w3.org/2000/svg" viewBox="0 0 233.89 92.39"><defs><style>.cls-1{fill:#101111;}.cls-2{fill:#830000;}</style></defs><g id="Layer_2" data-name="Layer 2"><g id="Section_2_-_Sarbatoreste" data-name="Section 2 - Sarbatoreste"><g id="Sarbatoreste_Group" data-name="Sarbatoreste Group"><path class="cls-1" d="M29.26,25.81c-4.51,0-7.68-2-7.22-6.07h5.55a1.59,1.59,0,0,0,1.77,1.93c1,0,1.72-.45,1.72-1.34,0-2.71-7.83-2.17-7.86-7.67,0-4,3.19-6.25,7.62-6.25,4.26,0,7.24,2.2,6.84,5.88H32a1.36,1.36,0,0,0-1.48-1.75c-.94,0-1.61.51-1.61,1.37,0,2.58,7.84,2.47,7.84,8C36.77,23.26,34,25.81,29.26,25.81Z"/><path class="cls-1" d="M50.91,22.53H44.2l-1.56,3.09H37.12L47.34,6.71H53.4l3.54,18.91H51.39ZM49.35,12.39l-3.11,6.15h4Zm1.23-6.86c-2.73,0-4.48-1.69-3.91-5.05L46.75,0h2.52c-.19,1.07.24,1.72,2,1.72S53.64,1.07,53.83,0h2.55l-.11.48A5.58,5.58,0,0,1,50.58,5.53Z"/><path class="cls-1" d="M70.27,6.71c4.7,0,6.6,2.68,6,6.06a6.87,6.87,0,0,1-5.13,5.47l3,7.38H68.24l-2.53-7h-.56l-1.23,7H58.63L62,6.71Zm-1.2,4.37H66.46l-.67,4H68.4a2.22,2.22,0,0,0,2.46-2C71.08,11.88,70.52,11.08,69.07,11.08Z"/><path class="cls-1" d="M85.73,25.62H76.37L79.72,6.71h9.07c3.83,0,5.87,1.77,5.33,4.91a5.33,5.33,0,0,1-4,4.29A3.71,3.71,0,0,1,93,20.47C92.43,23.66,89.8,25.62,85.73,25.62ZM86,18H83l-.59,3.46h3.06a2,2,0,0,0,2.28-1.69C87.93,18.56,87.31,18,86,18Zm.89-7.06H84.25l-.59,3.35h2.66a2,2,0,0,0,2.25-1.66C88.76,11.45,88.2,10.89,86.91,10.89Z"/><path class="cls-1" d="M106.89,22.53h-6.7l-1.56,3.09H93.11L103.33,6.71h6.06l3.54,18.91h-5.55Zm-1.55-10.14-3.11,6.15h4Zm1.23-6.86c-2.73,0-4.48-1.69-3.91-5.05l.08-.48h2.52c-.19,1.07.24,1.72,2,1.72s2.39-.65,2.58-1.72h2.55l-.11.48A5.59,5.59,0,0,1,106.57,5.53Z"/><path class="cls-1" d="M116.93,6.71h15.29l-.75,4.18h-5l-2.6,14.73h-5.29l2.61-14.73h-5Z"/><path class="cls-1" d="M140,25.81c-4.85,0-8-3.22-8-7.92,0-6.78,4.56-11.48,11.16-11.48,5,0,8.1,3.17,8.1,7.86C151.21,21,146.65,25.81,140,25.81Zm.81-4.89c3.27,0,5.23-2.84,5.23-6a3.27,3.27,0,0,0-3.57-3.62c-3.27,0-5.28,2.79-5.28,6A3.32,3.32,0,0,0,140.78,20.92Z"/><path class="cls-1" d="M163.58,6.71c4.69,0,6.6,2.68,6,6.06a6.86,6.86,0,0,1-5.12,5.47l2.95,7.38h-5.85l-2.52-7h-.56l-1.24,7h-5.28l3.35-18.91Zm-1.21,4.37h-2.6l-.67,4h2.6a2.23,2.23,0,0,0,2.47-2C164.38,11.88,163.82,11.08,162.37,11.08Z"/><path class="cls-1" d="M184.4,10.86h-6.84L177,14h6l-.73,4h-6l-.62,3.43h6.84l-.73,4.19H169.67L173,6.71h12.1Z"/><path class="cls-1" d="M192.2,25.81c-4.5,0-7.67-2-7.21-6.07h5.55a1.58,1.58,0,0,0,1.77,1.93c1,0,1.72-.45,1.72-1.34,0-2.71-7.83-2.17-7.86-7.67,0-4,3.19-6.25,7.62-6.25,4.26,0,7.24,2.2,6.84,5.88H195a1.37,1.37,0,0,0-1.48-1.75c-.94,0-1.61.51-1.61,1.37,0,2.58,7.83,2.47,7.83,8C199.71,23.26,196.9,25.81,192.2,25.81Zm1.32.83a9.16,9.16,0,0,1,0,3.38c-.46,2.49-2.07,4.4-4.89,4.4l.35-1.91c.94,0,1.53-.59,1.77-1.9l.06-.35H189l.64-3.62Z"/><path class="cls-1" d="M204.54,6.71h15.29l-.75,4.18h-5l-2.6,14.73h-5.29l2.6-14.73h-5Z"/><path class="cls-1" d="M233.17,10.86h-6.84L225.79,14h6l-.73,4h-6l-.62,3.43h6.84l-.72,4.19H218.44l3.35-18.91h12.1Z"/><path class="cls-2" d="M31.11,42.63H16.66l-1.13,6.63H28.28l-1.53,8.45H14L12.69,65H27.15L25.62,73.8H0L7.08,33.85H32.64Z"/><path class="cls-2" d="M38.14,33.85H51.57l5.5,25.9L71.4,33.85H84.78L77.69,73.8h-11l3.91-22.1L59.05,73.8h-9.3L46.13,51.58,42.22,73.8H31.05Z"/><path class="cls-2" d="M103.36,74.2c-10.25,0-16.94-6.8-16.94-16.72,0-14.34,9.63-24.26,23.57-24.26,10.49,0,17.12,6.69,17.12,16.61C127.11,64.05,117.48,74.2,103.36,74.2Zm1.7-10.32c6.92,0,11.06-6,11.06-12.75,0-4.76-2.67-7.65-7.54-7.65-6.92,0-11.17,5.89-11.17,12.7C97.41,60.88,100.08,63.88,105.06,63.88Z"/><path class="cls-2" d="M133.51,33.85h32.3l-1.58,8.84h-10.6l-5.5,31.11H137l5.5-31.11H131.92ZM146.21,76a19,19,0,0,1,0,7.14c-.91,5.27-4.37,9.3-10.21,9.3l.69-4c1.92,0,3.28-1.24,3.74-4l.11-.74h-3.8L138.1,76Z"/><path class="cls-2" d="M170,33.85h11.11L174,73.8H162.86Z"/><path class="cls-2" d="M206.78,67.28H192.62l-3.29,6.52H177.66l21.59-39.95h12.8l7.49,39.95H207.8ZM203.5,45.86l-6.58,13h8.56Z"/></g></g></g></svg>