<svg xmlns="http://www.w3.org/2000/svg" viewBox="0 0 224.97 71.18"><defs><style>.cls-1{fill:#101111;}.cls-2{fill:#ff6914;}</style></defs><g id="Layer_2" data-name="Layer 2"><g id="Section_2_-_Sarbatoreste" data-name="Section 2 - Sarbatoreste"><g id="Sarbatoreste_Group" data-name="Sarbatoreste Group"><path class="cls-1" d="M20.33,25.81c-4.5,0-7.67-2-7.21-6.07h5.55a1.58,1.58,0,0,0,1.77,1.93c1,0,1.72-.45,1.72-1.34,0-2.71-7.83-2.17-7.86-7.67,0-4,3.19-6.25,7.62-6.25,4.26,0,7.24,2.2,6.84,5.88H23.1a1.36,1.36,0,0,0-1.48-1.75c-.94,0-1.61.51-1.61,1.37,0,2.58,7.84,2.47,7.84,8C27.85,23.26,25,25.81,20.33,25.81Z"/><path class="cls-1" d="M42,22.53h-6.7l-1.56,3.09H28.2L38.42,6.71h6.06L48,25.62H42.47ZM40.43,12.39l-3.11,6.15h4Zm1.23-6.86c-2.73,0-4.48-1.69-3.91-5.05L37.83,0h2.52c-.19,1.07.24,1.72,2,1.72S44.72,1.07,44.91,0h2.55l-.11.48A5.59,5.59,0,0,1,41.66,5.53Z"/><path class="cls-1" d="M61.35,6.71c4.7,0,6.6,2.68,6,6.06a6.84,6.84,0,0,1-5.12,5.47l2.95,7.38H59.31l-2.52-7h-.56l-1.23,7H49.71L53.06,6.71Zm-1.2,4.37H57.54l-.67,4h2.6a2.22,2.22,0,0,0,2.47-2C62.16,11.88,61.59,11.08,60.15,11.08Z"/><path class="cls-1" d="M76.81,25.62H67.44L70.8,6.71h9.06c3.84,0,5.88,1.77,5.34,4.91a5.33,5.33,0,0,1-4,4.29,3.71,3.71,0,0,1,2.82,4.56C83.51,23.66,80.88,25.62,76.81,25.62ZM77.1,18h-3l-.59,3.46h3.06a2,2,0,0,0,2.28-1.69C79,18.56,78.39,18,77.1,18ZM78,10.89H75.33l-.59,3.35H77.4a2,2,0,0,0,2.25-1.66C79.84,11.45,79.27,10.89,78,10.89Z"/><path class="cls-1" d="M98,22.53h-6.7l-1.56,3.09H84.18L94.4,6.71h6.07L104,25.62H98.45ZM96.42,12.39,93.3,18.54h4Zm1.23-6.86c-2.74,0-4.48-1.69-3.92-5.05L93.81,0h2.52c-.18,1.07.25,1.72,2,1.72s2.39-.65,2.58-1.72h2.54l-.1.48A5.6,5.6,0,0,1,97.65,5.53Z"/><path class="cls-1" d="M108,6.71H123.3l-.76,4.18h-5l-2.6,14.73h-5.29l2.6-14.73h-5Z"/><path class="cls-1" d="M131.05,25.81c-4.86,0-8-3.22-8-7.92,0-6.78,4.56-11.48,11.16-11.48,5,0,8.1,3.17,8.1,7.86C142.29,21,137.73,25.81,131.05,25.81Zm.8-4.89c3.28,0,5.23-2.84,5.23-6a3.27,3.27,0,0,0-3.56-3.62c-3.27,0-5.29,2.79-5.29,6A3.32,3.32,0,0,0,131.85,20.92Z"/><path class="cls-1" d="M154.66,6.71c4.69,0,6.6,2.68,6,6.06a6.87,6.87,0,0,1-5.12,5.47l2.95,7.38h-5.85l-2.52-7h-.57l-1.23,7H143l3.35-18.91Zm-1.21,4.37h-2.6l-.67,4h2.6a2.23,2.23,0,0,0,2.47-2C155.46,11.88,154.9,11.08,153.45,11.08Z"/><path class="cls-1" d="M175.47,10.86h-6.84L168.1,14h6l-.72,4h-6l-.61,3.43h6.84l-.73,4.19H160.75L164.1,6.71h12.1Z"/><path class="cls-1" d="M183.28,25.81c-4.5,0-7.67-2-7.21-6.07h5.55a1.58,1.58,0,0,0,1.77,1.93c1,0,1.72-.45,1.72-1.34,0-2.71-7.84-2.17-7.86-7.67,0-4,3.19-6.25,7.62-6.25,4.26,0,7.24,2.2,6.84,5.88H186a1.36,1.36,0,0,0-1.47-1.75c-.94,0-1.61.51-1.61,1.37,0,2.58,7.83,2.47,7.83,8C190.79,23.26,188,25.81,183.28,25.81Zm1.32.83a9,9,0,0,1,0,3.38c-.45,2.49-2.06,4.4-4.88,4.4l.35-1.91c.94,0,1.53-.59,1.77-1.9l0-.35h-1.79l.64-3.62Z"/><path class="cls-1" d="M195.62,6.71h15.29l-.75,4.18h-5l-2.61,14.73h-5.28l2.6-14.73h-5Z"/><path class="cls-1" d="M224.25,10.86h-6.84L216.87,14h6l-.73,4h-6l-.62,3.43h6.84l-.73,4.19H209.52l3.35-18.91H225Z"/><path class="cls-2" d="M38.63,35.83l-6.16,35H22.69L13.26,51.27,9.78,70.83H0l6.21-35h9.73l9.48,19.81L28.9,35.83Z"/><path class="cls-2" d="M61.17,65.12H48.76l-2.88,5.71H35.65l18.92-35H65.79l6.55,35H62.06ZM58.29,46.36,52.53,57.73H60Z"/><path class="cls-2" d="M79.74,35.83H108l-1.39,7.75H97.37L92.55,70.83H82.77l4.81-27.25H78.35Z"/><path class="cls-2" d="M111.52,35.83h9.68l-3.53,20.31c-.64,3.57.55,5.86,4.22,5.86s5.81-2.29,6.46-5.86l3.57-20.31h9.74l-3.58,20.31c-1.79,10.23-9.28,15-17.87,15s-14.06-5.06-12.27-15Z"/><path class="cls-2" d="M162.36,35.83c8.69,0,12.21,5,11.07,11.22A12.7,12.7,0,0,1,164,57.18l5.46,13.65H158.59l-4.67-12.91h-1l-2.29,12.91h-9.78l6.21-35Zm-2.24,8.09h-4.81l-1.24,7.35h4.81c2.64,0,4.12-1.24,4.57-3.67C163.85,45.41,162.81,43.92,160.12,43.92Z"/><path class="cls-2" d="M196.82,65.12H184.41l-2.88,5.71H171.3l18.91-35h11.23l6.55,35H197.71Zm-2.88-18.76-5.76,11.37h7.5Z"/></g></g></g></svg>