<svg xmlns="http://www.w3.org/2000/svg" viewBox="0 0 243.28 61.43"><defs><style>.cls-1{fill:#101111;}.cls-2{fill:#00e0dd;}</style></defs><g id="Layer_2" data-name="Layer 2"><g id="Section_2_-_Sarbatoreste" data-name="Section 2 - Sarbatoreste"><g id="Sarbatoreste_Group" data-name="Sarbatoreste Group"><path class="cls-1" d="M38.65,25.81c-4.51,0-7.67-2-7.22-6.07H37a1.59,1.59,0,0,0,1.77,1.93c1,0,1.72-.45,1.72-1.34,0-2.71-7.83-2.17-7.86-7.67,0-4,3.19-6.25,7.62-6.25,4.27,0,7.24,2.2,6.84,5.88H41.41a1.36,1.36,0,0,0-1.48-1.75c-.93,0-1.6.51-1.6,1.37,0,2.58,7.83,2.47,7.83,8C46.16,23.26,43.34,25.81,38.65,25.81Z"/><path class="cls-1" d="M60.3,22.53H53.59L52,25.62H46.51L56.73,6.71h6.06l3.54,18.91H60.78ZM58.74,12.39l-3.11,6.15h4ZM60,5.53c-2.73,0-4.47-1.69-3.91-5.05L56.14,0h2.52c-.19,1.07.24,1.72,2,1.72S63,1.07,63.22,0h2.55l-.11.48A5.58,5.58,0,0,1,60,5.53Z"/><path class="cls-1" d="M79.67,6.71c4.69,0,6.59,2.68,6,6.06a6.87,6.87,0,0,1-5.13,5.47l3,7.38H77.63l-2.52-7h-.57l-1.23,7H68L71.38,6.71Zm-1.21,4.37h-2.6l-.67,4h2.6a2.23,2.23,0,0,0,2.47-2C80.47,11.88,79.91,11.08,78.46,11.08Z"/><path class="cls-1" d="M95.12,25.62H85.76L89.11,6.71h9.07c3.83,0,5.87,1.77,5.33,4.91a5.32,5.32,0,0,1-4,4.29,3.71,3.71,0,0,1,2.82,4.56C101.82,23.66,99.2,25.62,95.12,25.62ZM95.41,18h-3l-.59,3.46h3.06a2,2,0,0,0,2.28-1.69C97.32,18.56,96.7,18,95.41,18Zm.89-7.06H93.64l-.59,3.35h2.66A2,2,0,0,0,98,12.58C98.15,11.45,97.59,10.89,96.3,10.89Z"/><path class="cls-1" d="M116.29,22.53h-6.71L108,25.62H102.5L112.72,6.71h6.06l3.54,18.91h-5.55Zm-1.56-10.14-3.11,6.15h4ZM116,5.53c-2.73,0-4.48-1.69-3.91-5.05l.08-.48h2.52c-.19,1.07.24,1.72,2,1.72S119,1.07,119.21,0h2.55l-.11.48A5.58,5.58,0,0,1,116,5.53Z"/><path class="cls-1" d="M126.32,6.71h15.29l-.75,4.18h-5l-2.6,14.73H128l2.6-14.73h-5Z"/><path class="cls-1" d="M149.36,25.81c-4.85,0-8-3.22-8-7.92,0-6.78,4.56-11.48,11.16-11.48,5,0,8.1,3.17,8.1,7.86C160.6,21,156,25.81,149.36,25.81Zm.81-4.89c3.27,0,5.23-2.84,5.23-6a3.27,3.27,0,0,0-3.57-3.62c-3.27,0-5.28,2.79-5.28,6A3.32,3.32,0,0,0,150.17,20.92Z"/><path class="cls-1" d="M173,6.71c4.7,0,6.6,2.68,6,6.06a6.86,6.86,0,0,1-5.12,5.47l2.95,7.38h-5.85l-2.52-7h-.56l-1.24,7h-5.28l3.35-18.91Zm-1.21,4.37h-2.6l-.67,4h2.6a2.23,2.23,0,0,0,2.47-2C173.78,11.88,173.21,11.08,171.76,11.08Z"/><path class="cls-1" d="M193.79,10.86H187L186.41,14h6l-.73,4h-6l-.62,3.43h6.84l-.72,4.19H179.06l3.35-18.91h12.1Z"/><path class="cls-1" d="M201.59,25.81c-4.5,0-7.67-2-7.21-6.07h5.55a1.59,1.59,0,0,0,1.77,1.93c1,0,1.72-.45,1.72-1.34,0-2.71-7.83-2.17-7.86-7.67,0-4,3.19-6.25,7.62-6.25,4.26,0,7.24,2.2,6.84,5.88h-5.66a1.36,1.36,0,0,0-1.48-1.75c-.94,0-1.61.51-1.61,1.37,0,2.58,7.84,2.47,7.84,8C209.11,23.26,206.29,25.81,201.59,25.81Zm1.32.83a9.16,9.16,0,0,1,0,3.38c-.46,2.49-2.07,4.4-4.89,4.4l.35-1.91c.94,0,1.53-.59,1.77-1.9l.06-.35h-1.8l.64-3.62Z"/><path class="cls-1" d="M213.94,6.71h15.29l-.76,4.18h-5l-2.6,14.73h-5.29l2.6-14.73h-5Z"/><path class="cls-1" d="M242.56,10.86h-6.84L235.18,14h6l-.73,4h-6l-.62,3.43h6.84L240,25.62H227.83l3.36-18.91h12.09Z"/><path class="cls-2" d="M0,37.23H7.12L9.51,54.54,18,37.23h7.12l-12.54,24H4.06Z"/><path class="cls-2" d="M38.86,57.34H30.33l-2,3.92h-7l13-24H42l4.5,24H39.47Zm-2-12.89-4,7.81h5.15Z"/><path class="cls-2" d="M59.61,37.23l-3.31,19h7.47l-.92,5.08H48.67l4.26-24Z"/><path class="cls-2" d="M84.12,42.51h-8.7l-.68,4h7.67l-.92,5.08H73.82L73,55.94h8.69l-.92,5.32H65.4l4.26-24H85Z"/><path class="cls-2" d="M100,57.34H91.47l-2,3.92h-7l13-24h7.71l4.5,24h-7.06ZM98,44.45l-4,7.81h5.14Z"/><path class="cls-2" d="M132.1,37c6,0,9.75,3.48,10,8.93h-7.19a3.83,3.83,0,0,0-4-2.76c-3.07,0-5.49,2.35-6.14,6s1,6.07,4,6.07a5.8,5.8,0,0,0,4.91-2.76h7.23a13.88,13.88,0,0,1-13.16,8.93c-7.23,0-11-5-9.78-12.24S124.87,37,132.1,37Z"/><path class="cls-2" d="M161.21,42.51h-8.7l-.68,4h7.67l-.92,5.08h-7.67l-.78,4.36h8.69l-.92,5.32H142.49l4.26-24h15.38Z"/><path class="cls-2" d="M176,37.23c6,0,8.39,3.41,7.6,7.7a8.72,8.72,0,0,1-6.51,7l3.75,9.37h-7.43l-3.2-8.86h-.72l-1.57,8.86h-6.71l4.26-24Zm-1.53,5.55h-3.31l-.85,5h3.31a2.82,2.82,0,0,0,3.13-2.52C177,43.81,176.27,42.78,174.43,42.78Z"/><path class="cls-2" d="M210.22,37.23l-4.23,24h-6.72L192.8,47.83l-2.39,13.43H183.7l4.26-24h6.68l6.51,13.6,2.39-13.6Z"/><path class="cls-2" d="M228.48,42.51h-8.69l-.68,4h7.67l-.92,5.08h-7.67l-.79,4.36h8.7l-.92,5.32H209.77l4.26-24H229.4Z"/><path class="cls-2" d="M232.71,37.23h6.68l-4.23,24h-6.72Z"/></g></g></g></svg>