<svg xmlns="http://www.w3.org/2000/svg" viewBox="0 0 237.23 77.8"><defs><style>.cls-1{fill:#101111;}.cls-2{fill:#da0000;}</style></defs><g id="Layer_2" data-name="Layer 2"><g id="Section_2_-_Sarbatoreste" data-name="Section 2 - Sarbatoreste"><g id="Sarbatoreste_Group" data-name="Sarbatoreste Group"><path class="cls-1" d="M32.59,25.81c-4.51,0-7.67-2-7.21-6.07h5.55a1.58,1.58,0,0,0,1.77,1.93c1,0,1.72-.45,1.72-1.34,0-2.71-7.84-2.17-7.86-7.67,0-4,3.19-6.25,7.61-6.25,4.27,0,7.25,2.2,6.84,5.88H35.35a1.36,1.36,0,0,0-1.47-1.75c-.94,0-1.61.51-1.61,1.37,0,2.58,7.83,2.47,7.83,8C40.1,23.26,37.29,25.81,32.59,25.81Z"/><path class="cls-1" d="M54.24,22.53H47.53L46,25.62H40.45L50.67,6.71h6.06l3.55,18.91H54.72ZM52.68,12.39l-3.11,6.15h4Zm1.24-6.86c-2.74,0-4.48-1.69-3.92-5.05L50.08,0H52.6c-.18,1.07.24,1.72,2,1.72S57,1.07,57.16,0h2.55L59.6.48A5.58,5.58,0,0,1,53.92,5.53Z"/><path class="cls-1" d="M73.61,6.71c4.69,0,6.6,2.68,6,6.06a6.86,6.86,0,0,1-5.12,5.47l3,7.38H71.57l-2.52-7h-.56l-1.24,7H62L65.32,6.71ZM72.4,11.08H69.8l-.67,4h2.6a2.23,2.23,0,0,0,2.47-2C74.41,11.88,73.85,11.08,72.4,11.08Z"/><path class="cls-1" d="M89.06,25.62H79.7L83.05,6.71h9.07c3.84,0,5.88,1.77,5.34,4.91a5.33,5.33,0,0,1-4,4.29,3.71,3.71,0,0,1,2.82,4.56C95.77,23.66,93.14,25.62,89.06,25.62Zm.3-7.67h-3l-.59,3.46h3.05a2,2,0,0,0,2.28-1.69C91.26,18.56,90.65,18,89.36,18Zm.88-7.06H87.59L87,14.24h2.65a2,2,0,0,0,2.26-1.66C92.09,11.45,91.53,10.89,90.24,10.89Z"/><path class="cls-1" d="M110.23,22.53h-6.71L102,25.62H96.44L106.66,6.71h6.06l3.54,18.91h-5.55Zm-1.56-10.14-3.11,6.15h4Zm1.24-6.86c-2.74,0-4.48-1.69-3.92-5.05l.08-.48h2.52c-.19,1.07.24,1.72,2,1.72S113,1.07,113.15,0h2.55l-.11.48A5.58,5.58,0,0,1,109.91,5.53Z"/><path class="cls-1" d="M120.26,6.71h15.29l-.75,4.18h-5l-2.61,14.73H121.9l2.6-14.73h-5Z"/><path class="cls-1" d="M143.31,25.81c-4.86,0-8-3.22-8-7.92,0-6.78,4.56-11.48,11.16-11.48,5,0,8.1,3.17,8.1,7.86C154.55,21,150,25.81,143.31,25.81Zm.8-4.89c3.27,0,5.23-2.84,5.23-6a3.27,3.27,0,0,0-3.57-3.62c-3.27,0-5.28,2.79-5.28,6A3.32,3.32,0,0,0,144.11,20.92Z"/><path class="cls-1" d="M166.91,6.71c4.7,0,6.6,2.68,6,6.06a6.87,6.87,0,0,1-5.13,5.47l2.95,7.38h-5.84l-2.53-7h-.56l-1.23,7h-5.29l3.35-18.91Zm-1.2,4.37H163.1l-.67,4H165a2.22,2.22,0,0,0,2.46-2C167.72,11.88,167.16,11.08,165.71,11.08Z"/><path class="cls-1" d="M187.73,10.86h-6.84L180.36,14h6l-.72,4h-6L179,21.43h6.84l-.72,4.19H173l3.36-18.91h12.1Z"/><path class="cls-1" d="M195.54,25.81c-4.51,0-7.67-2-7.22-6.07h5.56a1.58,1.58,0,0,0,1.77,1.93c1,0,1.71-.45,1.71-1.34,0-2.71-7.83-2.17-7.86-7.67,0-4,3.2-6.25,7.62-6.25,4.27,0,7.24,2.2,6.84,5.88H198.3a1.36,1.36,0,0,0-1.47-1.75c-.94,0-1.61.51-1.61,1.37,0,2.58,7.83,2.47,7.83,8C203.05,23.26,200.23,25.81,195.54,25.81Zm1.31.83a9,9,0,0,1,0,3.38c-.46,2.49-2.06,4.4-4.88,4.4l.35-1.91c.94,0,1.53-.59,1.77-1.9l0-.35h-1.8l.65-3.62Z"/><path class="cls-1" d="M207.88,6.71h15.29l-.75,4.18h-5l-2.6,14.73h-5.28l2.6-14.73h-5Z"/><path class="cls-1" d="M236.5,10.86h-6.84L229.13,14h6l-.72,4h-6l-.61,3.43h6.84l-.73,4.19H221.78l3.35-18.91h12.1Z"/><path class="cls-2" d="M5.05,36.06h9.58l3.92,18.47L28.77,36.06H38.3l-5,28.49H25.38l2.78-15.76L20,64.55H13.33L10.75,48.71,8,64.55H0Z"/><path class="cls-2" d="M42.82,36.06h7.92l-5,28.49h-8Z"/><path class="cls-2" d="M62,64.83c-6.78,0-11.55-3-10.86-9.13h8.36a2.39,2.39,0,0,0,2.67,2.91c1.49,0,2.58-.69,2.58-2,0-4.08-11.8-3.27-11.84-11.56,0-6,4.81-9.41,11.48-9.41,6.42,0,10.91,3.31,10.3,8.85H66.18A2.06,2.06,0,0,0,64,41.84c-1.41,0-2.42.77-2.42,2.06,0,3.88,11.8,3.72,11.8,12C73.33,61,69.09,64.83,62,64.83Zm2,1.25a13.69,13.69,0,0,1,0,5.1c-.69,3.75-3.12,6.62-7.36,6.62l.53-2.87c1.41,0,2.3-.89,2.66-2.87l.08-.52h-2.7l1-5.46Z"/><path class="cls-2" d="M95.43,35.78c7.15,0,11.55,4.12,11.79,10.59H98.7A4.56,4.56,0,0,0,94,43.09c-3.63,0-6.5,2.79-7.27,7.16s1.13,7.19,4.77,7.19a6.86,6.86,0,0,0,5.81-3.27h8.57a16.45,16.45,0,0,1-15.6,10.58c-8.56,0-13.09-6-11.59-14.5S86.86,35.78,95.43,35.78Z"/><path class="cls-2" d="M126.61,59.9h-10.1l-2.34,4.65h-8.32l15.39-28.49h9.13l5.34,28.49h-8.37Zm-2.34-15.27-4.69,9.25h6.1Z"/><path class="cls-2" d="M155.78,36.06c7.07,0,9.94,4,9,9.14a10.33,10.33,0,0,1-7.71,8.24l4.44,11.11h-8.81L148.91,54h-.85l-1.85,10.51h-8l5.05-28.49ZM154,42.65H150l-1,6H153a3.35,3.35,0,0,0,3.72-3C157,43.86,156.15,42.65,154,42.65Z"/><path class="cls-2" d="M187.13,42.33h-10.3L176,47.05h9.09l-1.09,6h-9.09L174,58.25h10.3l-1.09,6.3H165L170,36.06h18.22Z"/><path class="cls-2" d="M206,59.9h-10.1l-2.35,4.65h-8.32l15.39-28.49h9.14l5.33,28.49h-8.36Zm-2.35-15.27-4.68,9.25H205Z"/></g></g></g></svg>