<svg xmlns="http://www.w3.org/2000/svg" viewBox="0 0 223.43 69.95"><defs><style>.cls-1{fill:#101111;}.cls-2{fill:#00e0dd;}</style></defs><g id="Layer_2" data-name="Layer 2"><g id="Section_2_-_Sarbatoreste" data-name="Section 2 - Sarbatoreste"><g id="Sarbatoreste_Group" data-name="Sarbatoreste Group"><path class="cls-1" d="M13.43,25.81c-4.51,0-7.67-2-7.22-6.07h5.56a1.58,1.58,0,0,0,1.77,1.93c1,0,1.71-.45,1.71-1.34,0-2.71-7.83-2.17-7.85-7.67,0-4,3.19-6.25,7.61-6.25s7.25,2.2,6.84,5.88H16.19a1.36,1.36,0,0,0-1.47-1.75c-.94,0-1.61.51-1.61,1.37,0,2.58,7.83,2.47,7.83,8C20.94,23.26,18.12,25.81,13.43,25.81Z"/><path class="cls-1" d="M35.08,22.53H28.37l-1.55,3.09H21.29L31.51,6.71h6.07l3.54,18.91H35.56ZM33.52,12.39l-3.11,6.15h4.05Zm1.24-6.86C32,5.53,30.28,3.84,30.84.48L30.92,0h2.52c-.18,1.07.25,1.72,2,1.72S37.82,1.07,38,0h2.55l-.1.48A5.6,5.6,0,0,1,34.76,5.53Z"/><path class="cls-1" d="M54.45,6.71c4.69,0,6.6,2.68,6,6.06a6.86,6.86,0,0,1-5.12,5.47l2.95,7.38H52.41l-2.52-7h-.56l-1.24,7H42.81L46.16,6.71Zm-1.21,4.37h-2.6l-.67,4h2.6a2.23,2.23,0,0,0,2.47-2C55.25,11.88,54.69,11.08,53.24,11.08Z"/><path class="cls-1" d="M69.9,25.62H60.54L63.89,6.71H73c3.84,0,5.87,1.77,5.34,4.91a5.33,5.33,0,0,1-4,4.29,3.71,3.71,0,0,1,2.82,4.56C76.61,23.66,74,25.62,69.9,25.62ZM70.2,18h-3l-.59,3.46h3a2,2,0,0,0,2.28-1.69C72.1,18.56,71.49,18,70.2,18Zm.88-7.06H68.43l-.59,3.35h2.65a2,2,0,0,0,2.26-1.66C72.93,11.45,72.37,10.89,71.08,10.89Z"/><path class="cls-1" d="M91.07,22.53H84.36l-1.55,3.09H77.28L87.5,6.71h6.06L97.1,25.62H91.55ZM89.51,12.39,86.4,18.54h4Zm1.24-6.86C88,5.53,86.27,3.84,86.83.48L86.91,0h2.52c-.19,1.07.24,1.72,2,1.72S93.8,1.07,94,0h2.55l-.11.48A5.58,5.58,0,0,1,90.75,5.53Z"/><path class="cls-1" d="M101.1,6.71h15.29l-.75,4.18h-5L108,25.62h-5.28l2.6-14.73h-5Z"/><path class="cls-1" d="M124.15,25.81c-4.86,0-8-3.22-8-7.92,0-6.78,4.56-11.48,11.16-11.48,5,0,8.1,3.17,8.1,7.86C135.39,21,130.83,25.81,124.15,25.81Zm.8-4.89c3.27,0,5.23-2.84,5.23-6a3.27,3.27,0,0,0-3.57-3.62c-3.27,0-5.28,2.79-5.28,6A3.32,3.32,0,0,0,125,20.92Z"/><path class="cls-1" d="M147.75,6.71c4.7,0,6.6,2.68,6,6.06a6.87,6.87,0,0,1-5.13,5.47l2.95,7.38h-5.85l-2.52-7h-.56l-1.23,7h-5.29l3.35-18.91Zm-1.2,4.37h-2.61l-.67,4h2.61a2.22,2.22,0,0,0,2.46-2C148.56,11.88,148,11.08,146.55,11.08Z"/><path class="cls-1" d="M168.57,10.86h-6.84L161.2,14h6l-.72,4h-6l-.62,3.43h6.84L166,25.62H153.84L157.2,6.71h12.1Z"/><path class="cls-1" d="M176.38,25.81c-4.51,0-7.67-2-7.22-6.07h5.56a1.58,1.58,0,0,0,1.77,1.93c1,0,1.71-.45,1.71-1.34,0-2.71-7.83-2.17-7.86-7.67,0-4,3.2-6.25,7.62-6.25,4.27,0,7.24,2.2,6.84,5.88h-5.66a1.36,1.36,0,0,0-1.47-1.75c-.94,0-1.61.51-1.61,1.37,0,2.58,7.83,2.47,7.83,8C183.89,23.26,181.07,25.81,176.38,25.81Zm1.31.83a9,9,0,0,1,0,3.38c-.46,2.49-2.06,4.4-4.88,4.4l.35-1.91c.94,0,1.53-.59,1.77-1.9l0-.35h-1.8l.65-3.62Z"/><path class="cls-1" d="M188.72,6.71H204l-.75,4.18h-5l-2.6,14.73h-5.28L193,10.89h-5Z"/><path class="cls-1" d="M217.34,10.86H210.5L210,14h6l-.72,4h-6l-.62,3.43h6.85l-.73,4.19H202.62L206,6.71h12.1Z"/><path class="cls-2" d="M15.26,70C6,70,0,63.83,0,54.9,0,42,8.68,33.05,21.23,33.05c9.45,0,15.42,6,15.42,15C36.65,60.82,28,70,15.26,70Zm1.53-9.29c6.23,0,10-5.41,10-11.48,0-4.29-2.4-6.89-6.79-6.89C13.73,42.29,9.9,47.6,9.9,53.72,9.9,58,12.3,60.66,16.79,60.66Z"/><path class="cls-2" d="M61.87,63.73H49.11l-3,5.87H35.63l19.45-36H66.61l6.74,36H62.79Zm-3-19.3L53,56.12h7.7Z"/><path class="cls-2" d="M83,33.61h12.1l5,23.33,12.91-23.33h12l-6.38,36h-10l3.53-19.91L101.79,69.6H93.41l-3.26-20-3.52,20H76.57Z"/><path class="cls-2" d="M152.32,41.52h-13l-1,6h11.48l-1.38,7.61H136.91l-1.18,6.53h13l-1.38,8H124.3l6.38-36h23Z"/><path class="cls-2" d="M192,33.61l-6.33,36H175.6l-9.7-20.11L162.33,69.6H152.27l6.38-36h10L178.41,54,182,33.61Z"/><path class="cls-2" d="M197.71,33.61h10l-6.33,36h-10Z"/><path class="cls-2" d="M213.43,33.61h10l-6.33,36h-10Z"/></g></g></g></svg>