<svg xmlns="http://www.w3.org/2000/svg" viewBox="0 0 244.1 91.82"><defs><style>.cls-1{fill:#101111;}.cls-2{fill:#ffad1d;}</style></defs><g id="Layer_2" data-name="Layer 2"><g id="Section_2_-_Sarbatoreste" data-name="Section 2 - Sarbatoreste"><g id="Sarbatoreste_Group" data-name="Sarbatoreste Group"><path class="cls-1" d="M23.55,25.81c-4.5,0-7.67-2-7.21-6.07h5.55a1.58,1.58,0,0,0,1.77,1.93c1,0,1.72-.45,1.72-1.34,0-2.71-7.84-2.17-7.86-7.67,0-4,3.19-6.25,7.62-6.25,4.26,0,7.24,2.2,6.84,5.88H26.32a1.37,1.37,0,0,0-1.48-1.75c-.94,0-1.61.51-1.61,1.37,0,2.58,7.84,2.47,7.84,8C31.07,23.26,28.25,25.81,23.55,25.81Z"/><path class="cls-1" d="M45.2,22.53H38.5l-1.56,3.09H31.42L41.64,6.71H47.7l3.54,18.91H45.69ZM43.65,12.39l-3.11,6.15h4.05Zm1.23-6.86C42.15,5.53,40.4,3.84,41,.48L41,0h2.53c-.19,1.07.24,1.72,2,1.72S47.94,1.07,48.13,0h2.55l-.11.48A5.6,5.6,0,0,1,44.88,5.53Z"/><path class="cls-1" d="M64.57,6.71c4.7,0,6.6,2.68,6,6.06a6.86,6.86,0,0,1-5.12,5.47l2.95,7.38H62.53l-2.52-7h-.56l-1.24,7H52.93L56.28,6.71Zm-1.2,4.37H60.76l-.67,4h2.6a2.22,2.22,0,0,0,2.47-2C65.38,11.88,64.81,11.08,63.37,11.08Z"/><path class="cls-1" d="M80,25.62H70.66L74,6.71h9.06c3.84,0,5.88,1.77,5.34,4.91a5.33,5.33,0,0,1-4,4.29,3.71,3.71,0,0,1,2.82,4.56C86.73,23.66,84.1,25.62,80,25.62ZM80.32,18h-3l-.59,3.46h3.06A2,2,0,0,0,82,19.72C82.22,18.56,81.61,18,80.32,18Zm.89-7.06H78.55L78,14.24h2.66a2,2,0,0,0,2.25-1.66C83.06,11.45,82.49,10.89,81.21,10.89Z"/><path class="cls-1" d="M101.19,22.53h-6.7l-1.56,3.09H87.4L97.62,6.71h6.07l3.54,18.91h-5.56ZM99.64,12.39l-3.12,6.15h4Zm1.23-6.86c-2.74,0-4.48-1.69-3.92-5.05L97,0h2.52c-.18,1.07.25,1.72,2,1.72s2.39-.65,2.58-1.72h2.54l-.1.48A5.6,5.6,0,0,1,100.87,5.53Z"/><path class="cls-1" d="M111.23,6.71h15.29l-.76,4.18h-5l-2.6,14.73h-5.29l2.6-14.73h-5Z"/><path class="cls-1" d="M134.27,25.81c-4.86,0-8-3.22-8-7.92,0-6.78,4.56-11.48,11.16-11.48,5,0,8.1,3.17,8.1,7.86C145.51,21,141,25.81,134.27,25.81Zm.8-4.89c3.28,0,5.24-2.84,5.24-6a3.28,3.28,0,0,0-3.57-3.62c-3.28,0-5.29,2.79-5.29,6A3.32,3.32,0,0,0,135.07,20.92Z"/><path class="cls-1" d="M157.88,6.71c4.69,0,6.6,2.68,6,6.06a6.87,6.87,0,0,1-5.12,5.47l2.95,7.38h-5.85l-2.52-7h-.57l-1.23,7h-5.29l3.36-18.91Zm-1.21,4.37h-2.6l-.67,4H156a2.23,2.23,0,0,0,2.47-2C158.68,11.88,158.12,11.08,156.67,11.08Z"/><path class="cls-1" d="M178.7,10.86h-6.85L171.32,14h6l-.72,4h-6L170,21.43h6.84l-.73,4.19H164l3.35-18.91h12.1Z"/><path class="cls-1" d="M186.5,25.81c-4.5,0-7.67-2-7.21-6.07h5.55a1.58,1.58,0,0,0,1.77,1.93c1,0,1.72-.45,1.72-1.34,0-2.71-7.84-2.17-7.86-7.67,0-4,3.19-6.25,7.61-6.25,4.27,0,7.25,2.2,6.84,5.88h-5.65a1.37,1.37,0,0,0-1.48-1.75c-.94,0-1.61.51-1.61,1.37,0,2.58,7.83,2.47,7.83,8C194,23.26,191.2,25.81,186.5,25.81Zm1.32.83a9,9,0,0,1,0,3.38c-.45,2.49-2.06,4.4-4.88,4.4l.35-1.91c.94,0,1.53-.59,1.77-1.9l0-.35h-1.79l.64-3.62Z"/><path class="cls-1" d="M198.84,6.71h15.29l-.75,4.18h-5l-2.61,14.73h-5.28l2.6-14.73h-5Z"/><path class="cls-1" d="M227.47,10.86h-6.84L220.09,14h6l-.72,4h-6l-.62,3.43h6.84l-.73,4.19H212.74l3.35-18.91h12.1Z"/><path class="cls-2" d="M4.3,67.32h8.16l3.33,15.73L24.5,67.32h8.12l-4.3,24.26H21.61L24,78.16,17,91.58H11.36L9.15,78.09,6.78,91.58H0Z"/><path class="cls-2" d="M48.25,87.62h-8.6l-2,4H30.56L43.67,67.32h7.78L56,91.58H48.87Zm-2-13-4,7.88h5.2Z"/><path class="cls-2" d="M73.09,67.32c6,0,8.47,3.44,7.68,7.78a8.81,8.81,0,0,1-6.57,7L78,91.58h-7.5l-3.23-9h-.73l-1.58,9H58.16l4.3-24.26Zm-1.54,5.61H68.21L67.35,78h3.34a2.85,2.85,0,0,0,3.16-2.54C74.13,74,73.4,72.93,71.55,72.93Z"/><path class="cls-2" d="M97,87.62h-8.6l-2,4H79.29L92.4,67.32h7.78l4.54,24.26H97.6Zm-2-13L91,82.5h5.2Z"/><path class="cls-2" d="M109.85,67.32h19.61l-1,5.37h-6.43l-3.34,18.89H112l3.34-18.89h-6.4Z"/><path class="cls-2" d="M139.41,91.82c-6.23,0-10.29-4.13-10.29-10.15,0-8.7,5.85-14.73,14.32-14.73,6.36,0,10.39,4.06,10.39,10.09C153.83,85.66,148,91.82,139.41,91.82Zm1-6.26c4.2,0,6.71-3.65,6.71-7.74,0-2.89-1.61-4.65-4.57-4.65-4.2,0-6.78,3.58-6.78,7.71C135.8,83.74,137.42,85.56,140.44,85.56Z"/><path class="cls-2" d="M181.53,67.32l-4.26,24.26h-6.78L164,78l-2.41,13.56h-6.78l4.3-24.26h6.75l6.57,13.73,2.41-13.73Z"/><path class="cls-2" d="M20.51,52.39H12.14l-1.75,10H3.46l4.4-24.78h6.89l-1.66,9.35h8.4l1.65-9.35H30L25.67,62.34H18.75Z"/><path class="cls-2" d="M48.86,43h-9l-.7,4.11h7.9l-.94,5.24H38.25l-.81,4.49h9l-.95,5.49H29.57L34,37.56H49.81Z"/><path class="cls-2" d="M64.07,37.56c6.15,0,8.65,3.52,7.84,7.94a9,9,0,0,1-6.71,7.17l3.86,9.67H61.4L58.1,53.2h-.74l-1.61,9.14H48.82l4.4-24.78Zm-1.58,5.73H59.08l-.87,5.2h3.4a2.92,2.92,0,0,0,3.24-2.6C65.13,44.34,64.39,43.29,62.49,43.29Z"/><path class="cls-2" d="M88,37.31c6.22,0,10,3.59,10.26,9.21H90.81a3.94,3.94,0,0,0-4.07-2.84c-3.17,0-5.66,2.42-6.33,6.22s1,6.25,4.15,6.25a6,6,0,0,0,5.06-2.85h7.45A14.31,14.31,0,0,1,83.5,62.51c-7.45,0-11.38-5.2-10.08-12.61S80.52,37.31,88,37.31Z"/><path class="cls-2" d="M103,37.56h6.85l-2.5,14.37c-.45,2.53.39,4.15,3,4.15s4.11-1.62,4.57-4.15l2.53-14.37h6.89l-2.53,14.37c-1.27,7.24-6.57,10.65-12.65,10.65s-10-3.58-8.68-10.65Z"/><path class="cls-2" d="M135,37.56l-3.4,19.54h7.69l-.95,5.24H123.69l4.4-24.78Z"/><path class="cls-2" d="M160.24,43h-9l-.71,4.11h7.91l-.95,5.24h-7.91l-.8,4.49h9l-.95,5.49H141l4.39-24.78h15.85Z"/><path class="cls-2" d="M170.46,62.58c-5.9,0-10.05-2.6-9.45-7.94h7.27a2.08,2.08,0,0,0,2.32,2.53c1.3,0,2.25-.6,2.25-1.76,0-3.55-10.26-2.84-10.3-10,0-5.23,4.18-8.19,10-8.19,5.59,0,9.49,2.89,9,7.7h-7.41a1.78,1.78,0,0,0-1.93-2.28c-1.23,0-2.11.66-2.11,1.79,0,3.37,10.26,3.23,10.26,10.44C180.3,59.24,176.61,62.58,170.46,62.58Z"/><path class="cls-2" d="M209.84,76.4,198,91.82H180.7l22.71-28L189.77,37.18h17.9l7.67,15,11.48-15H244.1L221.78,64.77l13.79,27.05h-17.9Z"/></g></g></g></svg>