<svg id="Layer_1" data-name="Layer 1" xmlns="http://www.w3.org/2000/svg" xmlns:xlink="http://www.w3.org/1999/xlink" viewBox="0 0 569.03 248.24"><defs><style>.cls-1{fill:#fff;}.cls-2{clip-path:url(#clip-path);}.cls-3{fill:#830000;}.cls-4{fill:#00e0dd;}.cls-5{fill:#ffad1d;}.cls-6{fill:#ff6914;}.cls-7{fill:#da0000;}</style><clipPath id="clip-path"><path class="cls-1" d="M530.1,113.86c-.16-1.25-.3-2.54-.43-3.84-.57-5.55-.9-11.23-1.22-16.73V93c0-.46-.05-1-.07-1.55a42.27,42.27,0,0,0-1-8.6l.86-.13c.41-.07.88-.17,1.29-.28a10.94,10.94,0,0,0-6-21.05L489.7,71c.47-4.16,1-8.33,1.59-12.4l0-.18c.07-.45.15-1,.23-1.53a36.84,36.84,0,0,0,.58-9.76l2.14-.68c.38-.12.76-.27,1.14-.43a10.94,10.94,0,0,0-8.88-20L440.4,46.52a8.1,8.1,0,0,0-3.73,3.34L213.53,135.62,73.21,167.29a4.87,4.87,0,0,1-2-2.5h0a4.8,4.8,0,0,0-8.54-1.13h0a4.81,4.81,0,0,1-3.93,2.13h0a4.81,4.81,0,0,0-4.65,5.8L39,175a4.18,4.18,0,0,0,1.8,8.16L55.68,180a4.82,4.82,0,0,0,6.44,3.93h0a4.77,4.77,0,0,1,4.43.59h0a4.81,4.81,0,0,0,7.58-4.11h0a4.82,4.82,0,0,1,1.93-4h0a4.86,4.86,0,0,0,1-1l74.79-16.06-97.31,37.4a4.68,4.68,0,0,1-.89-1.57h0A4.81,4.81,0,0,0,45.07,194h0a4.79,4.79,0,0,1-3.93,2.13h0a4.81,4.81,0,0,0-4.06,7.27l-13.57,5.22a4.18,4.18,0,0,0,3,7.81L38.54,212a4.8,4.8,0,0,0,6,2.32h0a4.83,4.83,0,0,1,4.43.59h0a4.81,4.81,0,0,0,7.58-4.11h0a4.8,4.8,0,0,1,1.92-4h0a4.73,4.73,0,0,0,1.84-2.87L217,145.34,454.26,94.42c.63,4.07,2.46,7.69,6.43,9.86a28.05,28.05,0,0,0,12.11,3.36,16.94,16.94,0,0,0,5.73-.78,12.14,12.14,0,0,0,7.37-6.64A32.57,32.57,0,0,0,488.46,89l17.18-2.71c-.23.42-.47.85-.69,1.29-5,9.63-6.7,20.95-7.28,28.75s-1.79,23.94,9.52,27.52a29.64,29.64,0,0,0,3,.75c4.65.91,10.53.88,15-1.65a12.12,12.12,0,0,0,5.95-7.93c1.36-5.7.47-11.3-.38-16.71C530.52,116.87,530.28,115.34,530.1,113.86ZM482.66,57.79c-.07.43-.14.83-.2,1.18l0,.17c-.63,4-1.28,8.08-1.77,12.16-.09.8-.18,1.59-.26,2.38l-9.15,2.6A7.58,7.58,0,0,0,468,78.19l-2.68.61c.41-2,.95-3.83,1.34-5.22,1.47-5.11,4.12-12.4,8.41-18.14a25.67,25.67,0,0,1,3.58-4l4.18-1.33C483.47,51,483.42,53.54,482.66,57.79Zm-41.51,3.9a8.05,8.05,0,0,0,5,0l18.3-5.79a88,88,0,0,0-7.81,19.52c-.43,1.57-1,3.5-1.43,5.62L288.27,118.75Zm29.61,29.19.31.11-.43-.08Zm50.44,33.63a4.94,4.94,0,0,1-2.48,3.38c-2.38,1.34-5.91,1.12-8.36.32-4.44-1.47-3.62-11-3.23-15.59.46-5.3,1.65-13,4.76-19.42,3.33-6.89,5.61-7,6.23-6.91,1,.2,1.61,2.81,1.7,7.75,0,.44,0,.84,0,1.19v.21c.14,4,.29,8.16.6,12.25.07,1,.15,1.9.24,2.86.11,1.13.25,2.27.39,3.37C521.55,117.62,522,121.11,521.2,124.51Z"/></clipPath></defs><g id="Trail_Poles" data-name="Trail Poles"><path class="cls-1" d="M530.1,113.86c-.16-1.25-.3-2.54-.43-3.84-.57-5.55-.9-11.23-1.22-16.73V93c0-.46-.05-1-.07-1.55a42.27,42.27,0,0,0-1-8.6l.86-.13c.41-.07.88-.17,1.29-.28a10.94,10.94,0,0,0-6-21.05L489.7,71c.47-4.16,1-8.33,1.59-12.4l0-.18c.07-.45.15-1,.23-1.53a36.84,36.84,0,0,0,.58-9.76l2.14-.68c.38-.12.76-.27,1.14-.43a10.94,10.94,0,0,0-8.88-20L440.4,46.52a8.1,8.1,0,0,0-3.73,3.34L213.53,135.62,73.21,167.29a4.87,4.87,0,0,1-2-2.5h0a4.8,4.8,0,0,0-8.54-1.13h0a4.81,4.81,0,0,1-3.93,2.13h0a4.81,4.81,0,0,0-4.65,5.8L39,175a4.18,4.18,0,0,0,1.8,8.16L55.68,180a4.82,4.82,0,0,0,6.44,3.93h0a4.77,4.77,0,0,1,4.43.59h0a4.81,4.81,0,0,0,7.58-4.11h0a4.82,4.82,0,0,1,1.93-4h0a4.86,4.86,0,0,0,1-1l74.79-16.06-97.31,37.4a4.68,4.68,0,0,1-.89-1.57h0A4.81,4.81,0,0,0,45.07,194h0a4.79,4.79,0,0,1-3.93,2.13h0a4.81,4.81,0,0,0-4.06,7.27l-13.57,5.22a4.18,4.18,0,0,0,3,7.81L38.54,212a4.8,4.8,0,0,0,6,2.32h0a4.83,4.83,0,0,1,4.43.59h0a4.81,4.81,0,0,0,7.58-4.11h0a4.8,4.8,0,0,1,1.92-4h0a4.73,4.73,0,0,0,1.84-2.87L217,145.34,454.26,94.42c.63,4.07,2.46,7.69,6.43,9.86a28.05,28.05,0,0,0,12.11,3.36,16.94,16.94,0,0,0,5.73-.78,12.14,12.14,0,0,0,7.37-6.64A32.57,32.57,0,0,0,488.46,89l17.18-2.71c-.23.42-.47.85-.69,1.29-5,9.63-6.7,20.95-7.28,28.75s-1.79,23.94,9.52,27.52a29.64,29.64,0,0,0,3,.75c4.65.91,10.53.88,15-1.65a12.12,12.12,0,0,0,5.95-7.93c1.36-5.7.47-11.3-.38-16.71C530.52,116.87,530.28,115.34,530.1,113.86ZM482.66,57.79c-.07.43-.14.83-.2,1.18l0,.17c-.63,4-1.28,8.08-1.77,12.16-.09.8-.18,1.59-.26,2.38l-9.15,2.6A7.58,7.58,0,0,0,468,78.19l-2.68.61c.41-2,.95-3.83,1.34-5.22,1.47-5.11,4.12-12.4,8.41-18.14a25.67,25.67,0,0,1,3.58-4l4.18-1.33C483.47,51,483.42,53.54,482.66,57.79Zm-41.51,3.9a8.05,8.05,0,0,0,5,0l18.3-5.79a88,88,0,0,0-7.81,19.52c-.43,1.57-1,3.5-1.43,5.62L288.27,118.75Zm29.61,29.19.31.11-.43-.08Zm50.44,33.63a4.94,4.94,0,0,1-2.48,3.38c-2.38,1.34-5.91,1.12-8.36.32-4.44-1.47-3.62-11-3.23-15.59.46-5.3,1.65-13,4.76-19.42,3.33-6.89,5.61-7,6.23-6.91,1,.2,1.61,2.81,1.7,7.75,0,.44,0,.84,0,1.19v.21c.14,4,.29,8.16.6,12.25.07,1,.15,1.9.24,2.86.11,1.13.25,2.27.39,3.37C521.55,117.62,522,121.11,521.2,124.51Z"/><g class="cls-2"><g id="lines"><path id="d" class="cls-3" d="M-135.09,782.09a20.15,20.15,0,0,1-5.95-1l1.41-4.61c5.67,1.74,9.49.6,14.61-4.37a107,107,0,0,1,23.93-17.33c7.57-4,10.65-8.45,11.38-16.34.52-5.6,2.08-11.07,3.59-16.37,1.07-3.74,2.18-7.61,2.87-11.41,1.26-6.89,2.19-13,.85-18.31-2.71-10.68-.35-18.82,7.23-24.88a77.9,77.9,0,0,1,17.87-11c26.07-11.16,46.64-26,62.89-45.41a148.67,148.67,0,0,1,17.21-17c7.51-6.46,9.81-13.56,7-21.7-2.58-7.59-5.39-15.25-8.12-22.66-4.34-11.81-8.83-24-12.5-36.31-3-10.12-6.3-23.25-4.63-35,3.31-23.37.6-41.52-8.77-58.88-8-14.86-14.09-31.06-19.94-46.72-1-2.57-1.93-5.15-2.9-7.72-3.21-8.47-4.19-15.47-3.09-22C-28.88,335.79-25,328.9-18.2,322c15.45-15.69,29-34,42-51.64C28,264.66,32.38,258.76,36.74,253a26.12,26.12,0,0,0,4.83-13.2c1.54-20.6,6.93-38.63,16.46-55.1,4-6.93,7.74-14.27,7.85-21,.31-20,11.38-34.24,22.1-48,6.55-8.41,7.45-15.42,3.31-25.87-3.92-9.9-5.24-21-3.53-29.75,1-5.31,2.55-10.61,4-15.74,5-17.45,9.72-33.92-3.32-50.7-2-2.54-2.43-6.28-2.73-8.76A121,121,0,0,0,56.51-81.25c-12.08-14.07-13.08-27.25-3-39.18,1.51-1.78,1.91-3.37,1.75-3.66-.6-1.08-1-2-1.39-2.77-1.21-2.57-1.46-3.1-5.47-4.2l1.27-4.65c5.89,1.62,7,3.44,8.56,6.8.34.72.73,1.55,1.25,2.48,2,3.6-1.25,7.89-2.29,9.12-8.45,10-7.48,20.75,3,32.92A125.69,125.69,0,0,1,90.51-15.65c.24,2,.59,4.89,1.75,6.38,14.54,18.71,9.26,37.15,4.15,55C95,50.75,93.48,56,92.49,61.05c-1.54,7.86-.31,18,3.28,27.06,4.76,12,3.6,20.87-4,30.61C81.55,131.83,71,145.39,70.69,163.81c-.12,7.82-4.15,15.84-8.49,23.34C53,203,47.86,220.33,46.38,240.19A31.27,31.27,0,0,1,40.58,256c-4.34,5.7-8.69,11.59-12.9,17.28C14.52,291,.92,309.46-14.77,325.39c-13.26,13.46-12.68,24.92-7.75,38,1,2.57,1.94,5.15,2.91,7.74,5.8,15.5,11.79,31.54,19.67,46.11,9.89,18.32,12.76,37.39,9.3,61.85C7.83,489.9,11,502.38,13.84,512c3.63,12.14,8.09,24.28,12.41,36,2.73,7.44,5.56,15.14,8.16,22.78,3.42,10.08.57,19.13-8.47,26.9a143.93,143.93,0,0,0-16.66,16.5c-16.74,20-37.9,35.27-64.68,46.74a73.44,73.44,0,0,0-16.76,10.28c-6.11,4.89-7.83,11-5.57,19.94,1.71,6.72.27,14.6-.78,20.35-.74,4-1.87,8-3,11.87-1.52,5.32-3,10.34-3.43,15.49-.88,9.54-4.92,15.37-13.92,20.16a101.43,101.43,0,0,0-22.83,16.53C-126.22,780-130.39,782.09-135.09,782.09Z"/><path id="b" class="cls-4" d="M247.31,460.19l-2.71-4c4.9-3.34,6.4-7,5.72-14.14a106.75,106.75,0,0,1,1.42-29.51c1.59-8.41.06-13.59-5.64-19.09-4-3.9-7.35-8.55-10.54-13-2.25-3.17-4.58-6.45-7.11-9.37-4.6-5.29-8.8-9.85-13.76-12.1-10-4.56-14.91-11.5-14.91-21.2A77.94,77.94,0,0,1,202.4,317c7.58-27.33,8.84-52.67,3.86-77.48a148.12,148.12,0,0,1-2.56-24.09c-.35-9.9-4.45-16.13-12.53-19.06-7.54-2.73-15.28-5.32-22.77-7.82-11.94-4-24.27-8.12-36.16-12.93-9.8-4-22.09-9.62-30.23-18.27-16.18-17.19-32-26.42-51.45-29.95-16.62-3-33-8.42-48.93-13.63l-7.84-2.57c-8.62-2.79-14.69-6.4-19.11-11.34-4.92-5.5-7.86-12.85-9-22.46-2.59-21.86-8.42-43.82-14-65.06-1.82-6.86-3.71-13.95-5.45-20.94a26.27,26.27,0,0,0-7.29-12C-76.23-34.73-86.94-50.19-93.84-67.93c-2.9-7.46-6.31-15-11.49-19.25-15.44-12.76-19.61-30.29-23.64-47.24-2.47-10.37-7.38-15.45-18.12-18.75-10.19-3.13-19.7-9.05-25.44-15.84-3.5-4.12-6.69-8.62-9.77-13-10.5-14.8-20.41-28.78-41.66-29.09-3.22,0-6.43-2-8.55-3.34A121,121,0,0,0-302.43-233c-18.53.63-29.45-6.82-32.45-22.16-.45-2.28-1.44-3.59-1.77-3.65-1.21-.21-2.22-.45-3-.64-2.76-.67-3.33-.8-6.7,1.64l-2.83-3.9c4.94-3.58,7-3.3,10.66-2.43.77.19,1.66.4,2.72.58,4.05.7,5.37,5.9,5.68,7.48,2.51,12.84,11.52,18.81,27.56,18.27A125.61,125.61,0,0,1-230-218.52c1.67,1,4.19,2.6,6.08,2.63,23.69.34,34.79,16,45.52,31.12,3,4.27,6.16,8.68,9.52,12.65,5.17,6.11,13.83,11.47,23.17,14.34,12.34,3.79,18.54,10.24,21.4,22.25,3.84,16.18,7.82,32.91,22,44.64,6,5,9.77,13.14,12.91,21.21,6.63,17.05,16.94,31.93,31.52,45.51A31.21,31.21,0,0,1-49.15-9.8c1.74,7,3.62,14,5.43,20.87C-38,32.47-32.16,54.61-29.53,76.81c2.22,18.76,11.52,25.47,24.8,29.78l7.86,2.57c15.73,5.16,32,10.5,48.3,13.47C71.91,126.35,88.59,136,105.52,154c7.5,8,19.19,13.34,28.53,17.11,11.74,4.75,24,8.86,35.87,12.83,7.52,2.51,15.29,5.11,22.88,7.86,10,3.62,15.3,11.5,15.71,23.43A144.39,144.39,0,0,0,211,238.55c5.14,25.56,3.85,51.63-3.93,79.71a72.83,72.83,0,0,0-2.45,19.5c0,7.83,3.72,13,12.08,16.81,6.32,2.87,11.57,8.92,15.41,13.33,2.68,3.1,5.08,6.48,7.4,9.74,3.2,4.51,6.23,8.77,9.95,12.36,6.89,6.64,8.93,13.44,7,23.46a101.64,101.64,0,0,0-1.36,28.16C256,450.46,253.7,455.84,247.31,460.19Z"/><path id="y" class="cls-5" d="M280.51,202.66l-4.74-.88c1.09-5.83-.48-9.5-6-14a106.7,106.7,0,0,1-19.93-21.81c-4.85-7.06-9.6-9.63-17.52-9.46-5.62.12-11.24-.82-16.67-1.72-3.84-.64-7.81-1.3-11.66-1.56-7-.47-13.33-.44-18.43,1.49-10.31,3.9-18.52,2.21-25.4-4.63a78.13,78.13,0,0,1-12.9-16.52c-14-24.64-31.12-43.4-52.23-57.36A149.77,149.77,0,0,1,76.15,61c-7.26-6.74-14.57-8.23-22.35-4.55-7.25,3.42-14.55,7.08-21.6,10.63C21,72.75,9.33,78.59-2.46,83.63c-9.72,4.15-22.4,8.88-34.28,8.55-23.58-.64-41.32,4.1-57.5,15.38-13.87,9.66-29.27,17.5-44.17,25.09q-3.68,1.88-7.34,3.76c-8.06,4.14-14.9,5.9-21.52,5.55-7.37-.4-14.65-3.49-22.27-9.45-17.33-13.58-37-24.93-56.06-35.9-6.14-3.55-12.5-7.21-18.68-10.9a26.21,26.21,0,0,0-13.67-3.3c-20.64.8-39.16-2.51-56.6-10.12-7.34-3.21-15.06-6.08-21.76-5.43a52.85,52.85,0,0,1-5.28.26c-17.42,0-31.36-8.52-44.88-16.79-9.1-5.57-16.17-5.67-26.08-.37-9.4,5-20.3,7.59-29.17,6.88-5.38-.44-10.83-1.34-16.09-2.22-17.9-3-34.8-5.82-50,9-2.3,2.25-6,3.13-8.39,3.7a121,121,0,0,0-62.46,36.52c-12.61,13.59-25.6,16.08-38.59,7.39-1.93-1.29-3.57-1.51-3.84-1.32-1,.71-1.88,1.26-2.59,1.7-2.41,1.48-2.91,1.79-3.55,5.91l-4.77-.74c.94-6,2.63-7.33,5.79-9.28.68-.42,1.46-.89,2.33-1.51,3.35-2.39,8,.34,9.31,1.24,10.88,7.27,21.47,5.09,32.38-6.67a125.63,125.63,0,0,1,64.87-37.92c1.91-.46,4.79-1.14,6.14-2.46C-514.23,43.64-495.31,46.8-477,49.86c5.17.87,10.51,1.76,15.69,2.17,8,.64,17.89-1.72,26.51-6.32,11.38-6.08,20.32-5.93,30.86.51,14.19,8.67,28.86,17.65,47.18,15.85,7.8-.76,16.22,2.34,24.15,5.8,16.77,7.31,34.59,10.49,54.5,9.72a31.28,31.28,0,0,1,16.31,4c6.16,3.67,12.5,7.33,18.63,10.86,19.19,11.06,39,22.5,56.62,36.28,14.88,11.66,26.2,9.79,38.61,3.41l7.36-3.76c14.76-7.52,30-15.29,43.6-24.76,17.08-11.9,35.71-16.9,60.4-16.23,10.94.29,23-4.21,32.25-8.17C7.3,74.21,18.85,68.41,30,62.79c7.09-3.56,14.41-7.23,21.71-10.68,9.63-4.55,18.94-2.74,27.69,5.37A143.43,143.43,0,0,0,97.7,72.16c21.75,14.39,39.34,33.68,53.76,59a73.21,73.21,0,0,0,12.11,15.49c5.54,5.52,11.85,6.53,20.44,3.28,6.49-2.46,14.48-1.92,20.31-1.53,4.09.28,8.18,1,12.13,1.62,5.45.91,10.61,1.76,15.78,1.65,9.56-.2,15.82,3.15,21.59,11.55a101.94,101.94,0,0,0,19,20.82C279.7,189.66,281.92,195.06,280.51,202.66Z"/><path id="o" class="cls-6" d="M727.53,435.18l-3.25-3.55c4.37-4,5.32-7.88,3.64-14.81a107.11,107.11,0,0,1-2.8-29.41c.38-8.56-1.88-13.47-8.31-18.1-4.56-3.28-8.49-7.41-12.28-11.4-2.68-2.82-5.46-5.73-8.38-8.26-5.3-4.58-10.12-8.49-15.35-10-10.58-3.08-16.4-9.25-17.78-18.85a78.49,78.49,0,0,1-.37-21c3.61-28.12,1.24-53.39-7.22-77.23a148.56,148.56,0,0,1-6-23.48c-1.75-9.75-6.7-15.33-15.12-17.08-7.85-1.62-15.88-3.08-23.65-4.49-12.38-2.25-25.18-4.58-37.63-7.64-10.26-2.53-23.24-6.38-32.53-13.78-18.46-14.7-35.48-21.58-55.19-22.31-16.89-.62-33.91-3.61-50.38-6.51l-8.13-1.42c-8.92-1.53-15.45-4.24-20.53-8.5-5.64-4.75-9.6-11.6-12.1-20.95C388.51,75.17,379.6,54.26,371,34c-2.78-6.53-5.66-13.28-8.38-19.94a26.23,26.23,0,0,0-8.93-10.86c-17-11.78-29.78-25.56-39.14-42.13-3.94-7-8.37-13.92-14.11-17.42-17.11-10.42-23.73-27.18-30.14-43.38-3.92-9.92-9.51-14.25-20.61-16-10.53-1.65-20.78-6.15-27.44-12-4-3.58-7.85-7.58-11.52-11.45-12.5-13.16-24.31-25.58-45.38-22.85-3.2.41-6.65-1.1-8.93-2.09a120.93,120.93,0,0,0-71.86-8.39,52.48,52.48,0,0,1-9.24.88c-13.07,0-21.81-6.09-26-18.19-.77-2.19-1.94-3.35-2.27-3.36-1.23,0-2.26-.13-3.09-.2-2.82-.27-3.41-.32-6.4,2.58l-3.36-3.46c4.38-4.25,6.51-4.27,10.2-3.92.8.07,1.71.16,2.78.18,4.11.12,6.16,5.08,6.69,6.6,4.32,12.35,14.09,17,29.88,14.14a125.71,125.71,0,0,1,74.63,8.72c1.8.79,4.52,2,6.39,1.73,23.5-3,36.71,10.86,49.49,24.31,3.61,3.79,7.34,7.72,11.23,11.17,6,5.31,15.33,9.38,25,10.89,12.75,2,19.81,7.48,24.35,19C280.9-86,287.22-70,302.94-60.42c6.69,4.07,11.55,11.61,15.81,19.16,9,15.92,21.32,29.18,37.69,40.54a31.31,31.31,0,0,1,10.64,13c2.71,6.64,5.58,13.37,8.35,19.88,8.67,20.37,17.64,41.44,23.41,63,4.88,18.26,15,23.58,28.8,25.94l8.15,1.43c16.3,2.86,33.16,5.83,49.72,6.44,20.8.76,38.7,8,58,23.35,8.56,6.82,20.89,10.46,30.68,12.87,12.31,3,25,5.34,37.34,7.58,7.8,1.41,15.86,2.88,23.77,4.51,10.42,2.16,16.77,9.21,18.88,20.95A144.7,144.7,0,0,0,660,221c8.72,24.57,11.17,50.56,7.46,79.46a73.31,73.31,0,0,0,.36,19.65c1.12,7.75,5.54,12.35,14.36,14.92,6.66,1.94,12.72,7.17,17.15,11,3.1,2.67,6,5.68,8.72,8.58,3.81,4,7.41,7.79,11.61,10.81,7.77,5.6,10.75,12,10.31,22.22a101.58,101.58,0,0,0,2.67,28.06C734.7,424.31,733.23,430,727.53,435.18Z"/><path id="r" class="cls-7" d="M835.08,294.81c-3.62,0-6.24-3.95-7-5.24-6.63-11.28-17.12-13.92-32.06-8.09a125.68,125.68,0,0,1-74.91,5.93c-1.91-.42-4.81-1.06-6.6-.46-22.46,7.54-38.12-3.54-53.26-14.25-4.28-3-8.7-6.15-13.18-8.78-6.91-4.05-16.86-6.23-26.62-5.83-12.9.51-20.89-3.51-27.57-13.89-9-14-18.3-28.45-35.59-34.8-7.34-2.71-13.58-9.16-19.22-15.73-11.91-13.88-26.58-24.5-44.83-32.47a31.14,31.14,0,0,1-13-10.68c-4-6-8.07-12-12.05-17.88-12.46-18.31-25.35-37.24-35.2-57.3-8.32-17-19.32-20.22-33.28-19.87-2.75.07-5.51.13-8.26.18-16.56.35-33.67.71-50,3.33C321.91,62.26,303,58.67,281,47.32c-9.72-5-22.53-6.21-32.59-6.67-12.66-.59-25.6-.39-38.1-.2-7.93.13-16.12.25-24.2.18-10.64-.1-18.24-5.78-22.59-16.89A143.21,143.21,0,0,0,153.48,2.58c-13.32-22.42-20.76-47.44-22.73-76.5a73.43,73.43,0,0,0-4.16-19.22c-2.6-7.38-7.84-11-17-11.85-6.91-.61-13.87-4.57-19-7.46-3.56-2-6.94-4.42-10.22-6.73-4.51-3.19-8.78-6.2-13.48-8.35-8.71-4-12.89-9.72-14.42-19.8a102.19,102.19,0,0,0-8.06-27c-3.73-8.06-3.39-13.89,1.19-20.12l3.88,2.86c-3.51,4.78-3.69,8.76-.7,15.24A106.59,106.59,0,0,1,57.29-148c1.29,8.46,4.45,12.84,11.66,16.13,5.12,2.34,9.77,5.63,14.26,8.81,3.18,2.24,6.47,4.56,9.83,6.47,6.09,3.47,11.57,6.37,17,6.86,11,1,17.88,5.89,21.1,15a78.06,78.06,0,0,1,4.43,20.49C137.48-46,144.7-21.63,157.63.11A149,149,0,0,1,168,22c3.61,9.22,9.55,13.74,18.15,13.82,8,.07,16.18-.05,24.07-.17,12.58-.2,25.59-.4,38.4.19,10.56.49,24,1.75,34.58,7.21,21,10.84,39,14.29,58.47,11.18,16.69-2.67,34-3,50.68-3.38l8.25-.19c9.06-.22,16,1.17,21.79,4.37,6.46,3.56,11.68,9.51,15.94,18.19,9.7,19.76,22.49,38.55,34.85,56.72,4,5.86,8.12,11.92,12.09,17.94a26.16,26.16,0,0,0,10.86,8.92c18.94,8.26,34.17,19.3,46.57,33.74,5.21,6.08,10.91,12,17.23,14.34,18.79,6.92,28.54,22.07,38,36.72,5.77,9,12.09,12.13,23.32,11.68,10.65-.43,21.58,2,29.25,6.49,4.67,2.74,9.17,5.92,13.53,9,14.81,10.48,28.8,20.38,49,13.61,3-1,6.73-.21,9.17.32a121,121,0,0,0,72.12-5.7c17.27-6.75,30-3.34,38,10.13,1.18,2,2.56,2.91,2.88,2.86,1.22-.21,2.25-.31,3.07-.4,2.82-.29,3.41-.35,5.78-3.78l4,2.74c-3.47,5-5.55,5.45-9.24,5.83-.8.09-1.7.18-2.76.36A5,5,0,0,1,835.08,294.81Z"/><path id="b-2" data-name="b" class="cls-4" d="M917.87,376c-3.84,0-6.29-4.4-7-5.79-5.72-11.76-16-15.22-31.33-10.57a125.61,125.61,0,0,1-75.13,0c-1.88-.57-4.72-1.43-6.55-1a46.61,46.61,0,0,1-11.37,1.46c-16.77,0-28.86-10.06-40.61-19.85-4-3.35-8.19-6.81-12.45-9.78-6.57-4.58-16.32-7.54-26.08-7.91-12.9-.49-20.55-5.13-26.39-16-7.88-14.65-16-29.79-32.75-37.49-7.11-3.27-12.82-10.19-17.93-17.18-10.78-14.77-24.57-26.51-42.15-35.88a31.27,31.27,0,0,1-12.08-11.67c-3.46-6.28-7.09-12.63-10.61-18.78-11-19.22-22.34-39.1-30.59-59.88-7-17.57-17.68-21.67-31.62-22.42l-8.25-.46c-16.53-1-33.62-1.94-50.14-.62-20.75,1.66-39.36-3.41-60.33-16.44-9.3-5.78-22-8-32-9.21-12.57-1.57-25.49-2.39-38-3.18-7.91-.5-16.09-1-24.13-1.72-10.6-.94-17.73-7.2-21.2-18.61a142.92,142.92,0,0,0-8.37-21.89c-11.53-23.39-17-48.92-16.66-78a73.51,73.51,0,0,0-2.65-19.48c-2-7.57-6.94-11.62-16-13.15-6.85-1.15-13.47-5.64-18.31-8.92-3.4-2.3-6.58-5-9.66-7.51-4.26-3.54-8.27-6.88-12.79-9.39C176.48-110,172.77-116,172-126.21a101.62,101.62,0,0,0-5.91-27.56c-3.09-8.33-2.28-14.11,2.77-20l3.64,3.15c-3.87,4.49-4.37,8.45-1.89,15.14a106.86,106.86,0,0,1,6.2,28.88c.62,8.55,3.43,13.15,10.36,17,4.91,2.73,9.29,6.37,13.53,9.89,3,2.49,6.08,5.06,9.28,7.23,5.8,3.93,11,7.26,16.41,8.16,10.87,1.83,17.36,7.28,19.85,16.66a78.21,78.21,0,0,1,2.8,20.77c-.3,28.36,5,53.17,16.17,75.87a148.46,148.46,0,0,1,8.67,22.62c2.87,9.48,8.43,14.45,17,15.21,8,.7,16.13,1.21,24,1.71,12.56.8,25.55,1.62,38.27,3.21,10.48,1.31,23.82,3.63,33.91,9.9,20,12.45,37.75,17.3,57.41,15.73,16.84-1.35,34.1-.35,50.79.61l8.24.46c9.05.49,15.84,2.41,21.38,6.06,6.16,4.06,10.89,10.4,14.46,19.39,8.12,20.46,19.39,40.19,30.3,59.27,3.52,6.16,7.16,12.53,10.64,18.84a26.12,26.12,0,0,0,10.13,9.74c18.23,9.73,32.55,21.92,43.77,37.29,4.73,6.47,9.94,12.85,16,15.66,18.2,8.36,26.73,24.23,35,39.58,5,9.39,11.1,13.05,22.33,13.48,10.64.4,21.36,3.68,28.65,8.76,4.44,3.09,8.68,6.63,12.78,10,13.94,11.61,27.12,22.58,47.73,17.42,3.12-.79,6.73.31,9.12,1a121,121,0,0,0,72.34,0c17.75-5.37,30.22-1,37,13.09,1,2.09,2.31,3.09,2.65,3.07,1.23-.11,2.26-.13,3.09-.15,2.84-.07,3.43-.09,6.06-3.32l3.73,3.05c-3.85,4.73-6,5-9.67,5.08-.8,0-1.71,0-2.78.14Z"/><path id="y-2" data-name="y" class="cls-5" d="M1072.55,253.57c-12.65,0-24-5.81-35-11.5-4.66-2.39-9.47-4.86-14.28-6.83-7.41-3-17.57-3.79-27.18-2a43.08,43.08,0,0,1-7.77.77c-8.62,0-15.17-3.34-21.48-10.64-10.88-12.57-22.13-25.58-40.14-29.43-7.65-1.64-14.73-7.15-21.25-12.86-13.75-12.06-29.76-20.51-49-25.82a31.3,31.3,0,0,1-14.34-8.75c-4.75-5.37-9.68-10.78-14.44-16-14.92-16.36-30.35-33.28-42.93-51.76-10.63-15.62-22-17.29-35.75-15-2.71.46-5.43.9-8.15,1.35-16.34,2.68-33.24,5.45-49.07,10.34-19.88,6.15-39.15,5.27-62.47-2.88-10.33-3.61-23.17-3-33.2-2-12.62,1.21-25.39,3.23-37.75,5.19-7.83,1.23-15.93,2.51-23.93,3.58-10.55,1.41-18.87-3.15-24.74-13.53a144.13,144.13,0,0,0-12.95-19.54c-16.36-20.31-27.25-44-33.3-72.53a73.26,73.26,0,0,0-6.83-18.43c-3.61-7-9.31-9.83-18.48-9.34-6.93.37-14.38-2.57-19.82-4.71-3.81-1.51-7.5-3.4-11.06-5.23-4.92-2.52-9.57-4.9-14.53-6.37-9.18-2.71-14.13-7.8-17.07-17.56a101.9,101.9,0,0,0-11.79-25.61c-4.83-7.45-5.3-13.27-1.65-20.08l4.25,2.28c-2.81,5.22-2.43,9.2,1.45,15.18a106.8,106.8,0,0,1,12.35,26.84c2.48,8.2,6.22,12.08,13.83,14.33a90.31,90.31,0,0,1,15.36,6.71c3.46,1.77,7,3.61,10.63,5,6.52,2.57,12.36,4.68,17.8,4.39,11-.59,18.53,3.31,23,11.92a78.21,78.21,0,0,1,7.26,19.66C474,.45,484.6,23.51,500.47,43.22a148.08,148.08,0,0,1,13.39,20.19c4.88,8.62,11.39,12.26,19.92,11.12,7.94-1,16-2.33,23.81-3.56,12.42-2,25.28-4,38-5.22,10.52-1,24-1.66,35.25,2.25,22.28,7.79,40.62,8.66,59.46,2.83,16.15-5,33.21-7.79,49.71-10.49L748.18,59c8.94-1.5,16-1.1,22.19,1.25,6.9,2.61,12.9,7.77,18.35,15.77,12.38,18.19,27.69,35,42.5,51.23,4.78,5.24,9.72,10.66,14.49,16a26.23,26.23,0,0,0,12,7.31c19.92,5.5,36.55,14.28,50.86,26.83,6,5.29,12.5,10.37,19.08,11.78,19.58,4.19,31.37,17.82,42.77,31,7,8.07,13.68,10.31,24.74,8.28,10.47-1.93,21.64-1.07,29.87,2.3,5,2.05,9.91,4.57,14.66,7,16.15,8.29,31.39,16.11,50.38,6.58,2.88-1.45,6.64-1.17,9.13-1a121,121,0,0,0,70.59-15.82c16.15-9.11,29.27-7.54,39,4.68,1.45,1.82,2.94,2.53,3.26,2.43,1.17-.38,2.18-.63,3-.83,2.75-.69,3.33-.83,5.19-4.55l4.31,2.15c-2.73,5.46-4.73,6.18-8.33,7.07-.78.2-1.66.42-2.68.74-3.92,1.26-7.49-2.75-8.5-4-8.15-10.23-18.9-11.37-32.87-3.48-20,11.28-40.66,16.82-62.91,16.82q-5.15,0-10.41-.4c-2-.14-4.92-.36-6.61.48A43.2,43.2,0,0,1,1072.55,253.57Z"/></g></g></g></svg>