<svg xmlns="http://www.w3.org/2000/svg" viewBox="0 0 1920 303.97"><defs><style>.cls-1{fill:#101111;}</style></defs><g id="Layer_2" data-name="Layer 2"><g id="Section_1_-_TOP" data-name="Section 1 - TOP"><path class="cls-1" d="M0,0V50.67c-.14,2.95,4.24,17.63,17.07,26a213.71,213.71,0,0,1,44.51,39.24c11.94,13.9,23.44,19.58,42.3,17.13,19-2.47,38.82,1.26,58.2.46,13.22-.54,27.8-1.33,39.13-7.08,17.65-9,33.19-9,47.84,2.72a156.55,156.55,0,0,1,29.1,29.94c32.37,44.77,71.53,81.52,121.19,107.14a301.55,301.55,0,0,1,41.29,26.38c16.85,12.54,34.3,15.57,52.23,4.6,36.47-22.32,71.56-47,108.8-67.88,20.34-11.44,43.47-22.64,66.13-24.47,44.5-3.6,82.64-15.46,117-45.36,30.18-26.28,64.74-47.82,98.36-70,27.26-18,51.84-22.29,85-1.66,51.17,31.83,108.48,54.09,163.68,79.37,9.23,4.22,21.31,5.62,31.44,4.12,39.33-5.81,77.55-4,115.72,8,15.36,4.81,33.15,9.51,48.15,6.38,38.59-8.05,70.9,7.13,103.08,22.31,21.85,10.31,38.29,8.23,58.28-5.41,15.77-10.75,36.59-19.13,55.43-19.66,48.13-1.36,99.29,15.72,137.24-30.38,3.21-3.89,9.1-6.1,14.18-7.91,49.94-17.77,90.05-47.48,121.85-90.17,16.55-22.21,39.53-38.65,71-22.23,3.77,2,10.37,4.13,13.72,1.16,8.42-7.48,17-6.46,18.13-18.89V0Z"/></g></g></svg>