<svg xmlns="http://www.w3.org/2000/svg" viewBox="0 0 1920 303.97"><defs><style>.cls-1{fill:#101111;}</style></defs><g id="Layer_2" data-name="Layer 2"><g id="Section_1_-_TOP" data-name="Section 1 - TOP"><path class="cls-1" d="M1920,304V253.31c.14-3-4.24-17.64-17.06-26A214.1,214.1,0,0,1,1858.42,188c-11.93-13.9-23.43-19.58-42.3-17.13-19,2.47-38.82-1.25-58.19-.46-13.23.54-27.8,1.33-39.14,7.09-17.65,9-33.19,9-47.84-2.72a156.84,156.84,0,0,1-29.1-29.94c-32.37-44.78-71.52-81.53-121.19-107.15-14.47-7.46-28.21-16.65-41.28-26.37-16.86-12.55-34.31-15.57-52.24-4.6-36.47,22.31-71.56,47-108.8,67.88-20.34,11.43-43.46,22.64-66.12,24.47-44.51,3.6-82.65,15.45-117,45.35-30.17,26.29-64.74,47.82-98.36,70-27.25,18-51.84,22.3-85,1.67C900.7,184.27,843.39,162,788.2,136.73c-9.24-4.23-21.32-5.63-31.44-4.13-39.34,5.82-77.55,4-115.73-8-15.35-4.8-33.15-9.51-48.15-6.38-38.59,8.06-70.9-7.12-103.07-22.3-21.86-10.32-38.29-8.23-58.29,5.4-15.77,10.76-36.58,19.13-55.42,19.67-48.14,1.35-99.3-15.73-137.25,30.37-3.2,3.89-9.1,6.11-14.18,7.91-49.94,17.78-90,47.48-121.85,90.17-16.55,22.21-39.53,38.66-71,22.23-3.76-2-10.37-4.13-13.72-1.16C9.71,278,1.1,277,0,289.44V304Z"/></g></g></svg>