<?xml version="1.0" encoding="UTF-8"?><svg id="Layer_2" xmlns="http://www.w3.org/2000/svg" viewBox="0 0 100.88 120.57"><defs><style>.cls-1{fill:#dc494f;}.cls-1,.cls-2,.cls-3,.cls-4,.cls-5{stroke-width:0px;}.cls-2{fill:#7ca08f;}.cls-3{fill:#f4d97d;}.cls-4{fill:#f7f2da;}.cls-5{fill:#aea87b;}</style></defs><g id="Element"><g id="Editia"><path class="cls-2" d="M34.47,117.26c-12.06-.11-28.53-6.14-33.15-18.31-.76-2.07-1.11-4.25-1.27-6.44-.38-4.46,1.28-8.88,3.09-12.85,3.74-7.81,9.09-14.93,15.89-20.32,3.23-2.54,6.84-4.65,10.71-6.09,6.06-2.32,12.61-2.16,17.67,2.36,8.75,7.77,14.75,24.87,14.77,36.12-.03,3.59-3.54,8.09-4.69,11.48-3.48,10.26-12.78,14.17-23.02,14.05h0Z"/><path class="cls-4" d="M29.93,104.75h-4.99v-33.22l-1.92-.3.84-4.59h6.07v38.1Z"/><path class="cls-4" d="M46.91,92.8c0,9.33-5.63,12.19-10.56,12.19-.89,0-1.92-.15-2.57-.35v-4.15c.69.2,1.48.3,2.32.3,2.57,0,5.48-2.12,5.48-8,0-6.37-3.6-8.14-5.97-8.14l.99-3.95c1.78,0,3.8-1.88,3.8-5.23s-1.93-4.99-4.15-4.99c-.89,0-1.68.1-2.47.35v-4.1c.79-.25,1.58-.35,2.67-.35,4.89,0,9.08,2.52,9.08,9.23,0,4-1.97,6.07-3.8,7.06,2.02.99,5.18,4.1,5.18,10.12Z"/><path class="cls-4" d="M60.23,104.98c-7.58,9.44-22.54,18.62-34.92,14.63-2.09-.7-4.01-1.8-5.82-3.04-3.72-2.5-6.14-6.57-8.12-10.49-3.78-7.85-6.01-16.53-6-25.26.03-4.14.62-8.31,1.9-12.26,1.96-6.23,6.16-11.29,12.84-12.44,11.51-2.02,28.61,3.97,37.41,11.01,2.78,2.27,4.12,7.86,6.06,10.89,5.85,9.18,3.13,18.96-3.33,26.95h0ZM66.46,89.9c.28-4.66-1.49-9.1-4.31-12.74-1.82-2.41-4.08-4.43-6.42-6.32-2.36-1.89-6.24-2.81-8.76-4.49-6.31-4.13-11.68-8.88-19.25-9.91-4.41-.61-9.25-.02-12.83,2.77-6.41,5.07-2.61,14.49-2.72,22.15-.04,5.99-4.26,11.55-2.85,17.4,1.59,6.23,5.22,11.04,10.52,15.01,2.86,2.04,5.26,4.89,8.68,5.5,12.41,2.06,22.81-10.89,27.56-16.2,0,0,10.1-7.62,10.39-13.17Z"/><path class="cls-3" d="M62.73,43.1c7.25-8.3,15.45-12.4,26.05-7.65,3.49,1.56,7.56,2.07,12.11,3.25-13,11.18-26.47,12.57-38.15,4.4Z"/><path class="cls-1" d="M52.32,24.46c4.59,7.48,4,14.11-1.42,18.81-3.64-4.4-4.99-8.79-1.47-13.36,0,0,3.53-3.53,2.89-5.46Z"/><path class="cls-5" d="M91.26,0c.35,12.9-3.38,22.69-16.11,26.21-4.19,1.16-8.04,3.71-12.83,6C64.58,12.44,74.94,1.22,91.26,0Z"/></g></g></svg>