<?xml version="1.0" encoding="UTF-8"?><svg id="Element" xmlns="http://www.w3.org/2000/svg" xmlns:xlink="http://www.w3.org/1999/xlink" viewBox="0 0 200 225"><defs><style>.cls-1{fill:#ebb158;}.cls-2{fill:none;}.cls-3{fill:#ea6112;}.cls-4{fill:#eca340;}.cls-5{fill:#1f8770;}.cls-6{fill:#ebe627;}.cls-7{clip-path:url(#clippath-1);}.cls-8{clip-path:url(#clippath-3);}.cls-9{clip-path:url(#clippath-4);}.cls-10{clip-path:url(#clippath-2);}.cls-11{clip-path:url(#clippath-7);}.cls-12{clip-path:url(#clippath-6);}.cls-13{clip-path:url(#clippath-8);}.cls-14{clip-path:url(#clippath-5);}.cls-15{fill:#f7c804;}.cls-16{fill:#dc494f;}.cls-17{fill:#d3cb1a;}.cls-18{fill:#ecb357;}.cls-19{fill:#e0001b;}.cls-20{fill:#e21a27;}.cls-21{fill:#19766c;}.cls-22{clip-path:url(#clippath);}.cls-23{fill:#1a525b;}.cls-24{fill:#0c1934;}</style><clipPath id="clippath"><path class="cls-24" d="M165.74,66.79h.04s.07.02.11.03c-.05,0-.1-.02-.15-.03M179.38,79.59c-1.53-.5-1.25-3.78-1.11-5.35.16-1.82.57-4.45,1.64-6.67,1.14-2.37,1.92-2.42,2.14-2.37.36.07.55.97.58,2.66,0,.15,0,.29,0,.41v.07c.05,1.38.1,2.8.21,4.21.02.33.05.65.08.98.04.39.09.78.13,1.16.16,1.27.31,2.47.04,3.64-.12.53-.4.91-.85,1.16-.42.23-.94.33-1.46.33s-1-.09-1.41-.22M157.34,56.77l6.28-1.99c-1.32,2.34-2.16,4.81-2.68,6.7-.15.54-.33,1.2-.49,1.93l-57.32,12.94,52.49-19.59c.28.09.57.14.87.14.28,0,.56-.04.84-.13M164.37,60.84c.5-1.76,1.41-4.26,2.89-6.23.48-.64.89-1.08,1.23-1.38l1.44-.45c.23.29.21,1.18-.05,2.64-.03.15-.05.28-.07.4v.06c-.23,1.37-.45,2.78-.62,4.18-.03.27-.06.54-.09.82l-3.14.89c-.43.12-.82.35-1.12.65l-.92.21c.14-.68.33-1.31.46-1.79M171.2,44.52l-15.84,7.03c-.55.24-.99.65-1.28,1.14l-76.62,29.45-48.18,10.87c-.31-.2-.55-.5-.67-.86-.44-1.3-2.17-1.52-2.93-.39-.3.45-.81.72-1.35.73-1.1.01-1.8,1.03-1.6,1.99l-5.21,1.18c-.77.17-1.25.93-1.09,1.7.17.77.93,1.27,1.7,1.1l5.12-1.1c.12,1,1.16,1.74,2.21,1.35.51-.19,1.08-.11,1.52.2,1.12.79,2.65-.04,2.6-1.41-.02-.54.23-1.06.66-1.39.13-.1.24-.21.33-.33l25.68-5.51-33.41,12.84c-.13-.16-.24-.34-.31-.54-.44-1.3-2.17-1.52-2.93-.39-.3.45-.81.72-1.35.73-1.3.02-2.04,1.43-1.39,2.5l-4.66,1.79c-.73.28-1.1,1.1-.83,1.84.28.74,1.1,1.12,1.84.84l4.15-1.55c.36.69,1.2,1.11,2.04.8.51-.19,1.08-.11,1.52.2,1.12.79,2.65-.04,2.6-1.41-.02-.54.23-1.06.66-1.39.35-.26.55-.61.63-.99l53.82-20.09,81.45-17.48c.22,1.4.84,2.64,2.21,3.38,1.07.58,2.62,1.12,4.16,1.16.67.02,1.34-.06,1.97-.27,1.15-.38,2.02-1.17,2.53-2.28.57-1.25.78-2.55.88-3.84l5.9-.93c-.08.14-.16.29-.24.45-1.7,3.3-2.3,7.19-2.5,9.87-.2,2.67-.61,8.22,3.27,9.45.31.1.66.19,1.03.26,1.6.31,3.61.3,5.15-.57,1.06-.6,1.76-1.54,2.04-2.72.47-1.96.16-3.88-.13-5.74-.08-.51-.16-1.04-.23-1.54-.05-.43-.1-.87-.15-1.32-.19-1.9-.31-3.86-.42-5.75v-.09c-.01-.16-.02-.34-.03-.53-.03-.81-.08-1.92-.34-2.95l.3-.05c.14-.02.3-.06.44-.1,1.65-.47,2.72-1.97,2.73-3.6v-.03c0-.33-.05-.67-.14-1.01-.57-2-2.64-3.15-4.64-2.59l-11.62,3.3c.16-1.43.35-2.86.54-4.26v-.06c.03-.16.06-.33.09-.53.14-.89.34-2.18.2-3.35l.73-.23c.13-.04.26-.09.39-.15,1.9-.84,2.75-3.06,1.91-4.96-.62-1.4-2-2.23-3.43-2.23-.51,0-1.03.1-1.52.32"/></clipPath><clipPath id="clippath-1"><path class="cls-24" d="M105,43.66c-.14.25-.27.5-.39.76-.72,1.53-1.1,3.2-1.2,4.89-.05.85-.08,1.72.08,2.56.16.83.45,1.63.69,2.44.14.47.23.75.32,1.13.03.14.03.76.03.76-.06,9.79-.85,11.02-1.16,12.2-.64,2.44-1.7,4.98-4.21,5.28-2.94.34-5.94.3-8.9.33-3.58.03-7.14.16-10.72.34-.97.05-1.93.1-2.9.14-1.55.08-2.95.26-4.33,1.01-1.41.77-2.66,1.78-3.73,2.98-1.76,1.97-2.26,4.78-2.09,7.34.07,1.14.27,2.26.53,3.37.23.99.61,1.93.78,2.94.98,5.63-2.4,10.86-5.7,15.1-1.79,2.3-4.31,4.7-5.19,7.56-.05.17-.1.34-.13.52-.18.84-.22,1.71-.22,2.57,0,1.06.08,2.12.19,3.18.13,1.15.31,2.3.53,3.45.22,1.13.48,2.26.78,3.37.27,1,.58,1.99.95,2.95.29.75.62,1.51,1.04,2.19.16.25.33.49.53.71,2.52,2.63,7.11-.15,9.29-1.88,2.83-2.24,5.69-4.6,7.96-7.42,1.2-1.49,2.19-3.14,2.61-5.02.33-1.5.3-3.05.42-4.58.03-.36.06-.73.11-1.09.24-1.97,2.79-10.35,3.71-6.94.86,3.19,4.48,10.51,4.48,13.79s-3.58,9.98-4.3,14.63c-.45,2.93-1.26,5.72-2,8.51-.09.35.17.7.54.7h57.87c.26,0,.48-.18.54-.42.8-3.08-.61-8.28-.32-10.94.16-1.52,2.21-5.69,2.21-5.69.1-.25.45-.23.53.02,3.31,11.21,2.88,11.06,2.47,14.78-.06.57-.1,1.12-.12,1.67-.01.32.24.58.56.58h17.21c.31,0,.56-.26.56-.57-.03-1.27-.06-2.29-.12-2.91-.36-3.94-3.86-8.21-4.66-11.11-.89-3.2-.93-6.54-.91-9.83.02-3.2-.25-6.36-.27-9.56-.01-1.82.71-3.52.97-5.31.32-2.17.3-4.38.06-6.55-.42-3.88-1.74-8.12-5.15-10.39-2.34-1.56-4.91-1.52-7.43-2.41-2.72-.97-5.17-2.73-7.68-4.11-1.19-.65-11.96-5.35-13.21-5.31,4.19-3.96,4.69-8.22,2.29-13.9-.78-1.85.15-3.59.81-4.68.8-1.31,1.12-2.81,1.42-4.32,1.21-6.02.48-11.45-4.58-14.72-2.47-1.6-5.38-2.37-8.29-2.37-5.26,0-10.51,2.53-13.17,7.27"/></clipPath><clipPath id="clippath-2"><path class="cls-2" d="M42.74,63.31v9.87h19.61v-9.87h-19.61ZM58.5,66.79l-.59,2.46c-.97-.4-2.04-.65-3.06-.87-1.74-.36-3.8-.74-5.87-.86-.2,0-.51-.02-.84-.02h-.3c.04-.25.11-.5.27-.73l1.68-2.44c2.83.13,5.56.82,7.95,2.04l.12.07c.18.09.39.21.63.34,0,0,0,0,0,.01Z"/></clipPath><clipPath id="clippath-3"><path class="cls-2" d="M11.77,170.75v18.09h12.96v-18.09h-12.96ZM19.03,177.56c-.77,1.37-1.76,3.19-2.52,5.09l-.67.29-1.26-3.93c.66-1.3,1.45-2.5,2.36-3.59l2.64,1.21c-.19.31-.38.62-.56.93Z"/></clipPath><clipPath id="clippath-4"><path class="cls-2" d="M27.35,152.52v16.04h15.57v-16.04h-15.57ZM41.01,162.66l-1.89,1.68c-.57-.89-1.3-1.7-2.01-2.46-1.22-1.29-2.7-2.78-4.33-4.06-.21-.16-.55-.42-.92-.67.18-.19.38-.35.64-.45l2.78-1.04c2.25,1.72,4.09,3.85,5.36,6.22l.06.11c.09.17.2.4.33.66,0,0,0,0,0,0Z"/></clipPath><clipPath id="clippath-5"><path class="cls-2" d="M169.01,112.07v12.58h18.3v-12.58h-18.3ZM179.95,116.8c-1.4.73-3.22,1.71-4.89,2.88l-.72-.12,1.1-4c1.26-.72,2.57-1.29,3.93-1.7l1.55,2.47c-.33.15-.65.31-.97.47Z"/></clipPath><clipPath id="clippath-6"><path class="cls-2" d="M149.57,16.93v17.73h13.5v-17.73h-13.5ZM161.7,28.99l-2.18,1.28c-.38-.98-.94-1.93-1.49-2.81-.95-1.5-2.1-3.26-3.44-4.83-.17-.2-.46-.52-.77-.83.21-.15.44-.27.71-.31l2.93-.47c1.86,2.13,3.25,4.58,4.03,7.15l.03.11c.05.19.12.44.19.72,0,0,0,0,0,0Z"/></clipPath><clipPath id="clippath-7"><path class="cls-2" d="M3.71,13.05v9.45h19.78v-9.45H3.71ZM16.96,17.92c-.36-.06-.71-.12-1.07-.17-1.54-.2-3.57-.43-5.58-.43l-.58-.52,3.19-2.65c1.44.13,2.84.42,4.18.86l-.14,2.92Z"/></clipPath><clipPath id="clippath-8"><path class="cls-2" d="M60.01,23.09v12.14h14.31v-12.14h-14.31ZM70.92,30.28c0,.4-.07.77-.2,1.12l-.52-.04c-.48-.45-1.01-.87-1.48-1.22-1.11-.83-2.45-1.79-3.86-2.56-.16-.09-.42-.22-.7-.35l-.03-.03,1.1-1c.52-.47,1.11-.74,1.72-.84,1.5.82,2.83,1.85,3.94,3.05,0,.11.02.21.02.32v1.55Z"/></clipPath></defs><g id="LogoHM"><path class="cls-24" d="M165.74,66.79h.04s.07.02.11.03c-.05,0-.1-.02-.15-.03M179.38,79.59c-1.53-.5-1.25-3.78-1.11-5.35.16-1.82.57-4.45,1.64-6.67,1.14-2.37,1.92-2.42,2.14-2.37.36.07.55.97.58,2.66,0,.15,0,.29,0,.41v.07c.05,1.38.1,2.8.21,4.21.02.33.05.65.08.98.04.39.09.78.13,1.16.16,1.27.31,2.47.04,3.64-.12.53-.4.91-.85,1.16-.42.23-.94.33-1.46.33s-1-.09-1.41-.22M157.34,56.77l6.28-1.99c-1.32,2.34-2.16,4.81-2.68,6.7-.15.54-.33,1.2-.49,1.93l-57.32,12.94,52.49-19.59c.28.09.57.14.87.14.28,0,.56-.04.84-.13M164.37,60.84c.5-1.76,1.41-4.26,2.89-6.23.48-.64.89-1.08,1.23-1.38l1.44-.45c.23.29.21,1.18-.05,2.64-.03.15-.05.28-.07.4v.06c-.23,1.37-.45,2.78-.62,4.18-.03.27-.06.54-.09.82l-3.14.89c-.43.12-.82.35-1.12.65l-.92.21c.14-.68.33-1.31.46-1.79M171.2,44.52l-15.84,7.03c-.55.24-.99.65-1.28,1.14l-76.62,29.45-48.18,10.87c-.31-.2-.55-.5-.67-.86-.44-1.3-2.17-1.52-2.93-.39-.3.45-.81.72-1.35.73-1.1.01-1.8,1.03-1.6,1.99l-5.21,1.18c-.77.17-1.25.93-1.09,1.7.17.77.93,1.27,1.7,1.1l5.12-1.1c.12,1,1.16,1.74,2.21,1.35.51-.19,1.08-.11,1.52.2,1.12.79,2.65-.04,2.6-1.41-.02-.54.23-1.06.66-1.39.13-.1.24-.21.33-.33l25.68-5.51-33.41,12.84c-.13-.16-.24-.34-.31-.54-.44-1.3-2.17-1.52-2.93-.39-.3.45-.81.72-1.35.73-1.3.02-2.04,1.43-1.39,2.5l-4.66,1.79c-.73.28-1.1,1.1-.83,1.84.28.74,1.1,1.12,1.84.84l4.15-1.55c.36.69,1.2,1.11,2.04.8.51-.19,1.08-.11,1.52.2,1.12.79,2.65-.04,2.6-1.41-.02-.54.23-1.06.66-1.39.35-.26.55-.61.63-.99l53.82-20.09,81.45-17.48c.22,1.4.84,2.64,2.21,3.38,1.07.58,2.62,1.12,4.16,1.16.67.02,1.34-.06,1.97-.27,1.15-.38,2.02-1.17,2.53-2.28.57-1.25.78-2.55.88-3.84l5.9-.93c-.08.14-.16.29-.24.45-1.7,3.3-2.3,7.19-2.5,9.87-.2,2.67-.61,8.22,3.27,9.45.31.1.66.19,1.03.26,1.6.31,3.61.3,5.15-.57,1.06-.6,1.76-1.54,2.04-2.72.47-1.96.16-3.88-.13-5.74-.08-.51-.16-1.04-.23-1.54-.05-.43-.1-.87-.15-1.32-.19-1.9-.31-3.86-.42-5.75v-.09c-.01-.16-.02-.34-.03-.53-.03-.81-.08-1.92-.34-2.95l.3-.05c.14-.02.3-.06.44-.1,1.65-.47,2.72-1.97,2.73-3.6v-.03c0-.33-.05-.67-.14-1.01-.57-2-2.64-3.15-4.64-2.59l-11.62,3.3c.16-1.43.35-2.86.54-4.26v-.06c.03-.16.06-.33.09-.53.14-.89.34-2.18.2-3.35l.73-.23c.13-.04.26-.09.39-.15,1.9-.84,2.75-3.06,1.91-4.96-.62-1.4-2-2.23-3.43-2.23-.51,0-1.03.1-1.52.32"/><g class="cls-22"><path class="cls-5" d="M-42.23,304.1c-.65,0-1.32-.11-2.04-.34l.48-1.58c1.95.6,3.26.2,5.02-1.5,2.37-2.3,5.21-4.36,8.21-5.95,2.6-1.38,3.66-2.9,3.91-5.61.18-1.92.71-3.8,1.23-5.62.37-1.28.75-2.61.98-3.92.43-2.37.75-4.47.29-6.28-.93-3.67-.12-6.46,2.48-8.54,2.02-1.61,4.08-2.88,6.14-3.76,8.95-3.83,16.01-8.93,21.59-15.59,1.58-1.88,3.51-3.8,5.91-5.86,2.58-2.22,3.37-4.65,2.42-7.45-.89-2.6-1.85-5.24-2.79-7.78-1.49-4.05-3.03-8.25-4.29-12.46-1.04-3.48-2.16-7.99-1.59-12.03,1.14-8.02.21-14.26-3.01-20.21-2.76-5.11-4.84-10.66-6.85-16.04-.33-.89-.66-1.77-1-2.65-1.1-2.91-1.44-5.31-1.06-7.56.42-2.5,1.76-4.86,4.09-7.23,5.3-5.38,9.94-11.66,14.42-17.73,1.45-1.96,2.94-3.99,4.44-5.95.9-1.19,1.54-2.92,1.66-4.53.53-7.07,2.38-13.26,5.65-18.92,1.38-2.38,2.66-4.9,2.69-7.21.11-6.88,3.91-11.75,7.59-16.47,2.25-2.89,2.56-5.29,1.14-8.88-1.35-3.4-1.8-7.22-1.21-10.22.36-1.82.88-3.64,1.38-5.4,1.72-5.99,3.34-11.65-1.14-17.41-.68-.87-.83-2.16-.94-3.01-1.05-8.64-4.33-16.08-10.03-22.72-4.15-4.83-4.49-9.36-1.02-13.45.52-.61.65-1.16.6-1.26-.2-.37-.36-.69-.48-.95-.41-.88-.5-1.06-1.88-1.44l.44-1.6c2.02.55,2.4,1.18,2.94,2.33.12.25.25.53.43.85.68,1.24-.43,2.71-.78,3.13-2.9,3.43-2.57,7.13,1.02,11.31,5.92,6.9,9.33,14.62,10.42,23.6.08.67.2,1.68.6,2.19,4.99,6.42,3.18,12.75,1.43,18.88-.49,1.73-1.01,3.52-1.35,5.27-.53,2.7-.11,6.17,1.13,9.29,1.63,4.12,1.23,7.16-1.37,10.51-3.51,4.5-7.14,9.16-7.24,15.48-.04,2.69-1.43,5.44-2.92,8.01-3.15,5.43-4.92,11.39-5.43,18.21-.14,1.91-.91,3.98-1.99,5.41-1.49,1.96-2.98,3.98-4.43,5.93-4.52,6.12-9.19,12.44-14.57,17.91-4.55,4.62-4.36,8.56-2.66,13.04.33.88.67,1.77,1,2.66,1.99,5.32,4.05,10.83,6.75,15.83,3.4,6.29,4.38,12.84,3.19,21.23-.53,3.72.54,8,1.54,11.32,1.25,4.17,2.78,8.34,4.26,12.37.94,2.55,1.91,5.2,2.8,7.82,1.18,3.46.2,6.57-2.91,9.24-2.33,2-4.2,3.86-5.72,5.66-5.75,6.86-13.02,12.11-22.21,16.05-1.92.82-3.85,2.01-5.75,3.53-2.1,1.68-2.69,3.79-1.91,6.85.59,2.31.09,5.01-.27,6.99-.25,1.38-.64,2.75-1.02,4.08-.52,1.83-1.01,3.55-1.18,5.32-.3,3.27-1.69,5.28-4.78,6.92-2.87,1.52-5.58,3.49-7.84,5.68-1.56,1.52-3,2.23-4.61,2.23"/><path class="cls-18" d="M89.07,193.58l-.93-1.37c1.68-1.15,2.2-2.42,1.96-4.85-.31-3.29-.14-6.79.49-10.13.55-2.89.02-4.67-1.94-6.56-1.39-1.34-2.52-2.93-3.62-4.48-.77-1.09-1.57-2.22-2.44-3.22-1.58-1.82-3.02-3.38-4.72-4.16-3.45-1.57-5.12-3.95-5.12-7.28,0-2.59.3-4.99.9-7.14,2.6-9.38,3.03-18.08,1.32-26.6-.48-2.4-.77-5.11-.88-8.27-.12-3.4-1.53-5.54-4.3-6.54-2.59-.94-5.25-1.83-7.82-2.69-4.1-1.37-8.33-2.79-12.41-4.44-3.36-1.36-7.58-3.3-10.38-6.27-5.55-5.9-11-9.07-17.66-10.28-5.71-1.04-11.35-2.89-16.8-4.68-.9-.29-1.8-.59-2.69-.88-2.96-.96-5.04-2.2-6.56-3.9-1.69-1.89-2.7-4.41-3.09-7.71-.89-7.51-2.89-15.05-4.83-22.34-.62-2.35-1.27-4.79-1.87-7.19-.36-1.45-1.32-3.03-2.5-4.13-5.19-4.83-8.87-10.14-11.24-16.23-1-2.56-2.17-5.14-3.95-6.61-5.3-4.38-6.73-10.4-8.12-16.22-.85-3.56-2.53-5.31-6.22-6.44-3.5-1.07-6.76-3.11-8.73-5.44-1.2-1.42-2.3-2.96-3.36-4.46-3.6-5.08-7.01-9.88-14.3-9.99-1.11-.02-2.21-.7-2.93-1.15-7.4-4.58-15.26-6.67-24.01-6.37-6.36.22-10.11-2.34-11.14-7.61-.15-.78-.5-1.23-.61-1.25-.42-.07-.76-.15-1.04-.22-.95-.23-1.14-.27-2.3.57l-.97-1.34c1.7-1.23,2.42-1.13,3.66-.84.27.06.57.14.93.2,1.39.24,1.85,2.03,1.95,2.57.86,4.41,3.96,6.46,9.46,6.27,9.09-.31,17.24,1.85,24.94,6.62.57.35,1.44.89,2.09.9,8.13.12,11.94,5.49,15.63,10.68,1.04,1.47,2.11,2.98,3.27,4.34,1.78,2.1,4.75,3.94,7.96,4.92,4.24,1.3,6.36,3.51,7.35,7.64,1.32,5.55,2.69,11.3,7.56,15.33,2.07,1.71,3.36,4.51,4.43,7.28,2.28,5.85,5.82,10.96,10.82,15.62,1.4,1.31,2.54,3.2,2.98,4.94.6,2.39,1.24,4.82,1.86,7.16,1.95,7.35,3.97,14.95,4.87,22.57.76,6.44,3.96,8.75,8.52,10.23.9.29,1.8.59,2.7.88,5.4,1.77,10.98,3.61,16.58,4.62,7.03,1.28,12.76,4.6,18.57,10.78,2.58,2.74,6.59,4.58,9.8,5.87,4.03,1.63,8.24,3.04,12.32,4.4,2.58.86,5.25,1.76,7.86,2.7,3.44,1.24,5.25,3.95,5.39,8.04.11,3.07.38,5.69.85,8,1.76,8.78,1.32,17.73-1.35,27.37-.56,2.01-.84,4.26-.84,6.7,0,2.69,1.28,4.47,4.15,5.77,2.17.99,3.97,3.06,5.29,4.58.92,1.06,1.75,2.22,2.54,3.34,1.1,1.55,2.14,3.01,3.42,4.24,2.37,2.28,3.07,4.61,2.42,8.05-.6,3.19-.76,6.53-.47,9.67.29,3.04-.49,4.88-2.68,6.38"/><path class="cls-17" d="M100.46,105.16l-1.63-.3c.37-2-.17-3.26-2.06-4.82-2.55-2.1-4.92-4.68-6.84-7.49-1.66-2.43-3.3-3.31-6.02-3.25-1.93.04-3.86-.28-5.72-.59-1.32-.22-2.68-.45-4-.54-2.4-.16-4.58-.15-6.33.51-3.54,1.34-6.36.76-8.72-1.59-1.83-1.82-3.32-3.73-4.43-5.67-4.82-8.46-10.69-14.9-17.93-19.69-2.05-1.35-4.17-3.06-6.49-5.21-2.49-2.31-5-2.82-7.67-1.56-2.49,1.17-4.99,2.43-7.42,3.65-3.86,1.94-7.85,3.94-11.9,5.67-3.34,1.43-7.69,3.05-11.77,2.94-8.1-.22-14.19,1.41-19.74,5.28-4.76,3.32-10.05,6.01-15.16,8.62-.84.43-1.68.86-2.52,1.29-2.77,1.42-5.11,2.03-7.39,1.91-2.53-.14-5.03-1.2-7.65-3.25-5.95-4.66-12.71-8.56-19.25-12.33-2.11-1.22-4.29-2.47-6.42-3.74-1.28-.76-3.08-1.2-4.69-1.14-7.09.28-13.45-.86-19.44-3.47-2.52-1.1-5.17-2.09-7.47-1.86-.62.06-1.22.09-1.82.09-5.98,0-10.77-2.93-15.41-5.77-3.12-1.91-5.55-1.94-8.95-.13-3.23,1.72-6.97,2.61-10.01,2.36-1.85-.15-3.72-.46-5.53-.76-6.14-1.03-11.95-2-17.17,3.1-.79.77-2.05,1.07-2.88,1.27-8.47,2.02-15.49,6.12-21.44,12.54-4.33,4.67-8.79,5.52-13.25,2.54-.66-.44-1.23-.52-1.32-.45-.34.25-.65.43-.89.58-.83.51-1,.62-1.22,2.03l-1.63-.25c.32-2.07.9-2.51,1.99-3.18.23-.14.5-.31.8-.52,1.15-.82,2.74.12,3.2.43,3.73,2.5,7.37,1.75,11.12-2.29,6.19-6.66,13.47-10.92,22.27-13.02.66-.16,1.65-.39,2.11-.85,5.82-5.69,12.31-4.6,18.59-3.55,1.77.3,3.61.6,5.39.75,2.74.22,6.14-.59,9.1-2.17,3.91-2.09,6.98-2.04,10.6.18,4.87,2.98,9.91,6.06,16.2,5.44,2.68-.26,5.57.8,8.29,1.99,5.76,2.51,11.88,3.6,18.71,3.34,1.92-.07,4.06.45,5.6,1.37,2.11,1.26,4.29,2.51,6.4,3.73,6.59,3.8,13.4,7.72,19.44,12.46,5.11,4,8.99,3.36,13.26,1.17.84-.43,1.68-.86,2.53-1.29,5.06-2.58,10.3-5.25,14.97-8.5,5.86-4.09,12.26-5.8,20.74-5.57,3.76.1,7.89-1.45,11.07-2.81,4-1.71,7.97-3.7,11.81-5.63,2.43-1.22,4.95-2.48,7.45-3.67,3.3-1.56,6.5-.94,9.51,1.85,2.25,2.09,4.31,3.74,6.27,5.04,7.47,4.94,13.5,11.56,18.46,20.25,1.03,1.81,2.43,3.6,4.16,5.32,1.91,1.9,4.07,2.24,7.02,1.13,2.23-.84,4.97-.66,6.97-.52,1.4.09,2.81.33,4.16.55,1.87.31,3.64.61,5.42.57,3.28-.07,5.43,1.08,7.42,3.97,1.84,2.68,4.1,5.15,6.53,7.15,2.36,1.94,3.12,3.79,2.63,6.4"/><path class="cls-3" d="M253.95,184.99l-1.12-1.22c1.5-1.38,1.83-2.71,1.25-5.08-.78-3.21-1.11-6.7-.96-10.1.13-2.94-.64-4.62-2.85-6.21-1.57-1.13-2.91-2.54-4.22-3.91-.92-.97-1.87-1.97-2.88-2.84-1.82-1.57-3.47-2.92-5.27-3.44-3.63-1.06-5.63-3.18-6.1-6.47-.37-2.56-.41-4.98-.13-7.19,1.24-9.66.43-18.33-2.48-26.52-.82-2.31-1.49-4.95-2.05-8.06-.6-3.35-2.3-5.27-5.19-5.86-2.69-.56-5.45-1.06-8.12-1.54-4.25-.77-8.65-1.57-12.92-2.62-3.52-.87-7.98-2.19-11.17-4.73-6.34-5.05-12.18-7.41-18.95-7.66-5.8-.21-11.64-1.24-17.3-2.24-.93-.16-1.86-.33-2.79-.49-3.07-.53-5.31-1.46-7.05-2.92-1.94-1.63-3.3-3.98-4.16-7.19-1.95-7.3-5.01-14.48-7.96-21.42-.95-2.24-1.94-4.56-2.88-6.85-.56-1.38-1.74-2.81-3.06-3.73-5.83-4.04-10.22-8.78-13.44-14.47-1.35-2.39-2.88-4.78-4.85-5.98-5.87-3.58-8.15-9.33-10.35-14.9-1.35-3.4-3.26-4.89-7.08-5.49-3.61-.56-7.13-2.11-9.42-4.14-1.39-1.23-2.69-2.6-3.96-3.93-4.29-4.52-8.34-8.78-15.58-7.85-1.1.14-2.28-.38-3.07-.72-7.98-3.48-16.05-4.42-24.67-2.88-1.13.2-2.19.3-3.17.3-4.49,0-7.49-2.09-8.94-6.24-.26-.76-.67-1.15-.78-1.15-.42-.01-.78-.04-1.06-.07-.97-.09-1.17-.11-2.2.89l-1.15-1.19c1.5-1.46,2.23-1.47,3.5-1.35.27.03.58.05.95.06,1.41.04,2.12,1.74,2.3,2.26,1.48,4.24,4.84,5.83,10.26,4.86,8.95-1.6,17.33-.62,25.62,2.99.62.27,1.55.68,2.19.59,8.07-1.04,12.6,3.73,16.99,8.35,1.24,1.3,2.52,2.65,3.85,3.83,2.06,1.82,5.26,3.22,8.58,3.74,4.38.68,6.8,2.57,8.36,6.51,2.1,5.31,4.27,10.8,9.67,14.09,2.29,1.4,3.96,3.99,5.43,6.58,3.09,5.47,7.32,10.02,12.94,13.92,1.57,1.09,2.97,2.8,3.65,4.46.93,2.28,1.92,4.59,2.87,6.82,2.98,7,6.06,14.23,8.04,21.64,1.67,6.27,5.16,8.09,9.89,8.91.93.16,1.86.32,2.8.49,5.6.98,11.39,2,17.07,2.21,7.14.26,13.29,2.74,19.92,8.02,2.94,2.34,7.17,3.59,10.53,4.42,4.22,1.04,8.59,1.83,12.82,2.6,2.68.49,5.45.99,8.16,1.55,3.58.74,5.76,3.16,6.48,7.19.54,3.02,1.19,5.58,1.98,7.8,3,8.44,3.83,17.36,2.56,27.28-.26,2.07-.22,4.34.12,6.75.38,2.66,1.9,4.24,4.93,5.12,2.29.67,4.37,2.46,5.89,3.78,1.07.92,2.05,1.95,2.99,2.95,1.31,1.38,2.54,2.67,3.99,3.71,2.67,1.92,3.69,4.13,3.54,7.63-.14,3.24.17,6.58.92,9.64.72,2.96.21,4.9-1.74,6.69"/><path class="cls-20" d="M290.87,136.8c-1.24,0-2.14-1.36-2.4-1.8-2.28-3.87-5.88-4.78-11.01-2.78-8.47,3.31-16.88,3.97-25.72,2.03-.66-.14-1.65-.36-2.27-.16-7.71,2.59-13.09-1.21-18.29-4.89-1.47-1.04-2.98-2.11-4.52-3.01-2.37-1.39-5.79-2.14-9.14-2-4.43.18-7.17-1.2-9.46-4.77-3.09-4.8-6.29-9.77-12.22-11.95-2.52-.93-4.66-3.14-6.6-5.4-4.09-4.77-9.12-8.41-15.39-11.15-1.76-.77-3.46-2.17-4.45-3.67-1.36-2.05-2.77-4.13-4.14-6.14-4.28-6.28-8.7-12.78-12.08-19.67-2.86-5.82-6.64-6.94-11.43-6.82-.94.02-1.89.04-2.84.06-5.68.12-11.56.24-17.18,1.14-7.06,1.13-13.56-.11-21.09-4-3.34-1.73-7.73-2.13-11.19-2.29-4.35-.2-8.79-.13-13.08-.07-2.72.04-5.54.09-8.31.06-3.65-.03-6.26-1.98-7.76-5.8-1.12-2.86-2.25-5.24-3.46-7.27-4.58-7.7-7.13-16.29-7.81-26.27-.14-2.08-.62-4.3-1.43-6.6-.89-2.54-2.69-3.79-5.83-4.07-2.37-.21-4.76-1.57-6.51-2.56-1.22-.7-2.39-1.52-3.51-2.31-1.55-1.1-3.02-2.13-4.63-2.87-2.99-1.37-4.42-3.34-4.95-6.8-.49-3.21-1.45-6.42-2.77-9.28-1.28-2.77-1.16-4.77.41-6.91l1.33.98c-1.21,1.64-1.27,3.01-.24,5.23,1.39,3,2.39,6.36,2.9,9.72.44,2.91,1.53,4.41,4,5.54,1.76.8,3.35,1.93,4.9,3.02,1.09.77,2.22,1.57,3.37,2.22,2.09,1.19,3.97,2.19,5.84,2.35,3.77.33,6.14,2.02,7.24,5.17.86,2.44,1.37,4.81,1.52,7.03.66,9.71,3.14,18.07,7.58,25.53,1.25,2.11,2.42,4.56,3.58,7.51,1.24,3.17,3.28,4.72,6.23,4.75,2.75.02,5.55-.02,8.27-.06,4.32-.07,8.79-.13,13.18.07,3.63.17,8.25.6,11.87,2.47,7.2,3.72,13.39,4.91,20.07,3.84,5.73-.92,11.66-1.04,17.4-1.16.94-.02,1.89-.04,2.83-.06,3.11-.08,5.49.4,7.48,1.5,2.22,1.22,4.01,3.27,5.47,6.25,3.33,6.78,7.72,13.23,11.97,19.47,1.37,2.01,2.79,4.1,4.15,6.16.82,1.24,2.25,2.42,3.73,3.06,6.5,2.84,11.73,6.63,15.99,11.58,1.79,2.09,3.75,4.13,5.91,4.93,6.45,2.37,9.8,7.58,13.04,12.61,1.98,3.08,4.15,4.17,8.01,4.01,3.65-.15,7.41.69,10.04,2.23,1.6.94,3.15,2.03,4.64,3.09,5.09,3.6,9.89,7,16.81,4.68,1.05-.35,2.31-.07,3.15.11,8.51,1.87,16.6,1.23,24.76-1.96,5.93-2.32,10.32-1.15,13.03,3.48.41.69.88,1,.99.98.42-.07.77-.11,1.05-.14.97-.1,1.17-.12,1.98-1.3l1.36.94c-1.19,1.72-1.91,1.87-3.17,2-.27.03-.58.06-.95.12-.1.02-.2.02-.29.02"/><path class="cls-18" d="M319.3,164.67c-1.32,0-2.16-1.51-2.39-1.99-1.96-4.04-5.48-5.23-10.75-3.63-8.7,2.63-17.14,2.64-25.8,0-.64-.2-1.62-.49-2.25-.33-1.38.35-2.68.5-3.9.5-5.76,0-9.91-3.45-13.94-6.82-1.38-1.15-2.81-2.34-4.27-3.36-2.26-1.57-5.6-2.59-8.95-2.72-4.43-.17-7.05-1.76-9.06-5.5-2.7-5.03-5.5-10.23-11.24-12.87-2.44-1.12-4.4-3.5-6.16-5.9-3.7-5.07-8.44-9.1-14.47-12.32-1.69-.9-3.28-2.44-4.15-4.01-1.19-2.15-2.44-4.34-3.64-6.45-3.77-6.6-7.67-13.43-10.5-20.56-2.39-6.03-6.07-7.44-10.86-7.7-.94-.05-1.89-.11-2.83-.16-5.67-.33-11.54-.66-17.21-.21-7.13.57-13.51-1.17-20.72-5.65-3.19-1.98-7.54-2.73-10.98-3.16-4.32-.54-8.75-.82-13.04-1.09-2.72-.17-5.52-.35-8.28-.59-3.64-.32-6.09-2.47-7.28-6.39-.89-2.94-1.83-5.4-2.88-7.52-3.96-8.03-5.83-16.8-5.72-26.8.02-2.08-.28-4.33-.91-6.69-.69-2.6-2.38-3.99-5.49-4.51-2.35-.4-4.62-1.94-6.29-3.07-1.17-.79-2.26-1.7-3.32-2.58-1.46-1.21-2.84-2.36-4.39-3.22-2.87-1.6-4.15-3.67-4.4-7.16-.24-3.24-.94-6.51-2.03-9.46-1.06-2.86-.78-4.84.95-6.85l1.25,1.08c-1.33,1.54-1.5,2.9-.65,5.2,1.15,3.1,1.88,6.53,2.13,9.92.21,2.93,1.18,4.52,3.56,5.84,1.69.94,3.19,2.19,4.64,3.4,1.03.85,2.09,1.74,3.19,2.48,1.99,1.35,3.79,2.49,5.63,2.8,3.73.63,5.96,2.5,6.82,5.72.66,2.5.99,4.9.96,7.13-.1,9.74,1.71,18.26,5.55,26.05,1.08,2.2,2.06,4.74,2.98,7.77.99,3.25,2.9,4.96,5.84,5.22,2.74.24,5.54.42,8.24.59,4.31.27,8.77.55,13.14,1.1,3.6.45,8.18,1.24,11.64,3.4,6.88,4.28,12.96,5.94,19.71,5.4,5.78-.46,11.71-.12,17.44.21.94.05,1.89.11,2.83.16,3.11.17,5.44.83,7.34,2.08,2.12,1.39,3.74,3.57,4.96,6.66,2.79,7.03,6.66,13.8,10.4,20.35,1.21,2.11,2.46,4.3,3.65,6.47.72,1.3,2.05,2.59,3.48,3.35,6.26,3.34,11.18,7.53,15.03,12.8,1.62,2.22,3.41,4.41,5.51,5.37,6.25,2.87,9.18,8.32,12.01,13.59,1.73,3.23,3.81,4.48,7.67,4.63,3.65.14,7.33,1.27,9.84,3.01,1.52,1.06,2.98,2.27,4.39,3.45,4.79,3.99,9.31,7.75,16.39,5.98,1.07-.27,2.31.11,3.13.36,8.33,2.53,16.46,2.53,24.84,0,6.09-1.84,10.38-.33,12.72,4.49.35.72.79,1.06.91,1.06.42-.04.78-.05,1.06-.05.97-.02,1.18-.03,2.08-1.14l1.28,1.04c-1.32,1.62-2.05,1.72-3.32,1.75-.28,0-.59.01-.95.05-.05,0-.11,0-.16,0"/><path class="cls-17" d="M372.4,122.64c-4.34,0-8.23-2-12.03-3.95-1.6-.82-3.25-1.67-4.9-2.35-2.55-1.04-6.03-1.3-9.33-.7-.95.18-1.84.27-2.67.27-2.96,0-5.21-1.15-7.38-3.65-3.74-4.32-7.6-8.78-13.78-10.11-2.63-.56-5.06-2.46-7.29-4.42-4.72-4.14-10.22-7.04-16.81-8.86-1.85-.51-3.73-1.66-4.92-3-1.63-1.84-3.32-3.7-4.96-5.5-5.12-5.62-10.42-11.43-14.74-17.77-3.65-5.36-7.55-5.93-12.27-5.14-.93.16-1.87.31-2.8.46-5.61.92-11.41,1.87-16.84,3.55-6.83,2.11-13.44,1.81-21.45-.99-3.55-1.24-7.96-1.02-11.4-.69-4.33.41-8.72,1.11-12.96,1.78-2.69.43-5.47.86-8.21,1.23-3.62.48-6.48-1.08-8.5-4.65-1.51-2.67-2.97-4.87-4.45-6.71-5.61-6.97-9.35-15.12-11.43-24.9-.43-2.04-1.22-4.17-2.35-6.33-1.24-2.38-3.2-3.37-6.34-3.21-2.38.13-4.94-.88-6.8-1.62-1.31-.52-2.58-1.17-3.8-1.79-1.69-.87-3.29-1.68-4.99-2.19-3.15-.93-4.85-2.68-5.86-6.03-.94-3.11-2.34-6.15-4.05-8.79-1.66-2.56-1.82-4.56-.57-6.89l1.46.78c-.96,1.79-.83,3.16.5,5.21,1.79,2.77,3.26,5.96,4.24,9.21.85,2.82,2.14,4.15,4.75,4.92,1.85.55,3.59,1.44,5.27,2.3,1.19.61,2.42,1.24,3.65,1.73,2.24.88,4.24,1.61,6.11,1.51,3.78-.2,6.36,1.14,7.9,4.09,1.19,2.29,2.03,4.56,2.5,6.75,2.02,9.52,5.65,17.44,11.1,24.21,1.54,1.91,3.04,4.18,4.6,6.93,1.67,2.96,3.91,4.21,6.84,3.82,2.73-.36,5.5-.8,8.17-1.22,4.27-.67,8.68-1.37,13.06-1.79,3.61-.35,8.25-.57,12.11.77,7.65,2.67,13.95,2.97,20.41.97,5.54-1.71,11.4-2.67,17.07-3.6.93-.15,1.86-.31,2.79-.46,3.07-.51,5.49-.38,7.62.43,2.37.9,4.43,2.67,6.3,5.41,4.25,6.25,9.51,12.01,14.59,17.59,1.64,1.8,3.34,3.66,4.98,5.51.99,1.12,2.57,2.08,4.12,2.51,6.84,1.89,12.55,4.91,17.46,9.21,2.07,1.81,4.29,3.56,6.55,4.04,6.72,1.44,10.77,6.12,14.69,10.64,2.4,2.77,4.7,3.54,8.49,2.84,3.6-.66,7.43-.37,10.26.79,1.72.7,3.4,1.57,5.03,2.41,5.54,2.85,10.78,5.53,17.3,2.26.99-.5,2.28-.4,3.13-.34,8.68.65,16.61-1.13,24.24-5.43,5.55-3.13,10.05-2.59,13.4,1.61.5.63,1.01.87,1.12.83.4-.13.75-.21,1.03-.28.94-.24,1.14-.28,1.78-1.56l1.48.74c-.94,1.87-1.62,2.12-2.86,2.43-.27.07-.57.14-.92.25-1.35.43-2.57-.95-2.92-1.38-2.8-3.51-6.49-3.9-11.29-1.2-6.86,3.87-13.96,5.77-21.6,5.77-1.18,0-2.37-.05-3.58-.14-.67-.05-1.69-.13-2.27.16-2.39,1.2-4.63,1.68-6.76,1.68"/></g><path class="cls-24" d="M105,43.66c-.14.25-.27.5-.39.76-.72,1.53-1.1,3.2-1.2,4.89-.05.85-.08,1.72.08,2.56.16.83.45,1.63.69,2.44.14.47.23.75.32,1.13.03.14.03.76.03.76-.06,9.79-.85,11.02-1.16,12.2-.64,2.44-1.7,4.98-4.21,5.28-2.94.34-5.94.3-8.9.33-3.58.03-7.14.16-10.72.34-.97.05-1.93.1-2.9.14-1.55.08-2.95.26-4.33,1.01-1.41.77-2.66,1.78-3.73,2.98-1.76,1.97-2.26,4.78-2.09,7.34.07,1.14.27,2.26.53,3.37.23.99.61,1.93.78,2.94.98,5.63-2.4,10.86-5.7,15.1-1.79,2.3-4.31,4.7-5.19,7.56-.05.17-.1.34-.13.52-.18.84-.22,1.71-.22,2.57,0,1.06.08,2.12.19,3.18.13,1.15.31,2.3.53,3.45.22,1.13.48,2.26.78,3.37.27,1,.58,1.99.95,2.95.29.75.62,1.51,1.04,2.19.16.25.33.49.53.71,2.52,2.63,7.11-.15,9.29-1.88,2.83-2.24,5.69-4.6,7.96-7.42,1.2-1.49,2.19-3.14,2.61-5.02.33-1.5.3-3.05.42-4.58.03-.36.06-.73.11-1.09.24-1.97,2.79-10.35,3.71-6.94.86,3.19,4.48,10.51,4.48,13.79s-3.58,9.98-4.3,14.63c-.45,2.93-1.26,5.72-2,8.51-.09.35.17.7.54.7h57.87c.26,0,.48-.18.54-.42.8-3.08-.61-8.28-.32-10.94.16-1.52,2.21-5.69,2.21-5.69.1-.25.45-.23.53.02,3.31,11.21,2.88,11.06,2.47,14.78-.06.57-.1,1.12-.12,1.67-.01.32.24.58.56.58h17.21c.31,0,.56-.26.56-.57-.03-1.27-.06-2.29-.12-2.91-.36-3.94-3.86-8.21-4.66-11.11-.89-3.2-.93-6.54-.91-9.83.02-3.2-.25-6.36-.27-9.56-.01-1.82.71-3.52.97-5.31.32-2.17.3-4.38.06-6.55-.42-3.88-1.74-8.12-5.15-10.39-2.34-1.56-4.91-1.52-7.43-2.41-2.72-.97-5.17-2.73-7.68-4.11-1.19-.65-11.96-5.35-13.21-5.31,4.19-3.96,4.69-8.22,2.29-13.9-.78-1.85.15-3.59.81-4.68.8-1.31,1.12-2.81,1.42-4.32,1.21-6.02.48-11.45-4.58-14.72-2.47-1.6-5.38-2.37-8.29-2.37-5.26,0-10.51,2.53-13.17,7.27"/><g class="cls-7"><path class="cls-17" d="M419.28,298.15l-1.34-.96c1.19-1.65,1.23-3.02.18-5.23-1.42-2.98-2.46-6.33-3.01-9.69-.48-2.9-1.58-4.39-4.07-5.49-1.76-.78-3.37-1.89-4.93-2.97-1.1-.76-2.24-1.54-3.4-2.18-2.1-1.17-4-2.14-5.86-2.28-3.77-.29-6.16-1.95-7.3-5.08-.89-2.43-1.42-4.79-1.6-7.02-.77-9.71-3.35-18.03-7.87-25.44-1.28-2.09-2.48-4.54-3.66-7.47-1.27-3.14-3.32-4.67-6.26-4.67h-.02c-2.75,0-5.55.08-8.27.16-4.32.12-8.78.24-13.18.09-3.63-.12-8.26-.5-11.9-2.34-7.24-3.64-13.44-4.75-20.12-3.61-5.72.98-11.65,1.18-17.39,1.36-.94.03-1.89.06-2.83.1-3.11.11-5.49-.34-7.5-1.41-2.23-1.2-4.05-3.22-5.54-6.18-3.41-6.75-7.87-13.14-12.19-19.33-1.39-2-2.84-4.06-4.22-6.11-.84-1.23-2.28-2.39-3.76-3.02-6.54-2.76-11.81-6.49-16.12-11.4-1.82-2.07-3.79-4.08-5.97-4.86-6.48-2.3-9.89-7.46-13.18-12.45-2.02-3.06-4.2-4.12-8.05-3.92-3.65.19-7.42-.6-10.07-2.11-1.61-.92-3.17-2-4.68-3.04-5.13-3.54-9.97-6.88-16.86-4.48-1.04.36-2.31.1-3.15-.07-8.53-1.77-16.62-1.03-24.74,2.25-2.01.81-3.85,1.22-5.51,1.22-3.21,0-5.74-1.52-7.57-4.55-.41-.68-.89-.99-1-.97-.42.08-.77.12-1.05.15-.97.11-1.17.13-1.97,1.32l-1.37-.92c1.17-1.74,1.89-1.89,3.15-2.04.27-.03.58-.07.95-.13,1.39-.25,2.43,1.27,2.71,1.74,2.32,3.85,5.93,4.71,11.04,2.65,8.43-3.41,16.84-4.17,25.69-2.33.66.14,1.66.34,2.27.13,7.68-2.68,13.1,1.06,18.34,4.68,1.48,1.02,3.01,2.08,4.56,2.96,2.39,1.36,5.81,2.07,9.16,1.9,4.43-.23,7.18,1.12,9.52,4.66,3.15,4.77,6.4,9.69,12.36,11.81,2.53.9,4.7,3.09,6.66,5.32,4.14,4.72,9.22,8.3,15.52,10.97,1.77.75,3.49,2.13,4.49,3.62,1.38,2.04,2.82,4.1,4.21,6.09,4.35,6.23,8.85,12.68,12.31,19.53,2.93,5.79,6.72,6.86,11.51,6.69.94-.03,1.89-.07,2.84-.1,5.68-.19,11.56-.38,17.16-1.34,7.05-1.21,13.56-.05,21.14,3.76,3.36,1.69,7.76,2.04,11.22,2.16,4.35.15,8.79.03,13.08-.09,2.72-.07,5.53-.15,8.31-.16h.03c3.64,0,6.26,1.92,7.8,5.71,1.15,2.85,2.31,5.21,3.54,7.23,4.66,7.64,7.32,16.2,8.11,26.17.17,2.08.67,4.29,1.51,6.58.92,2.52,2.73,3.76,5.88,4,2.38.18,4.78,1.51,6.54,2.49,1.23.68,2.4,1.49,3.54,2.27,1.56,1.08,3.04,2.1,4.66,2.81,3,1.33,4.46,3.28,5.03,6.74.53,3.2,1.52,6.4,2.88,9.24,1.31,2.75,1.22,4.75-.33,6.91"/><path class="cls-18" d="M268.61,102.26l-1.64-.24c.29-2.02-.3-3.25-2.25-4.73-2.63-1.99-5.1-4.48-7.14-7.2-1.76-2.36-3.43-3.17-6.14-3-1.93.12-3.87-.12-5.74-.36-1.33-.17-2.7-.34-4.02-.37-2.4-.06-4.53-.06-6.26.68-3.48,1.48-6.37,1.11-8.82-1.14-1.91-1.75-3.47-3.59-4.66-5.49-5.16-8.26-11.28-14.45-18.72-18.95-2.1-1.27-4.29-2.88-6.69-4.94-2.59-2.21-5.11-2.62-7.73-1.25-2.44,1.28-4.89,2.63-7.26,3.95-3.78,2.09-7.69,4.26-11.66,6.15-3.28,1.56-7.56,3.36-11.64,3.42-8.1.11-14.12,1.98-19.51,6.08-4.62,3.51-9.8,6.42-14.8,9.23-.82.46-1.65.93-2.47,1.39-2.71,1.53-5.03,2.24-7.3,2.21-2.53-.03-5.07-.99-7.77-2.93-6.13-4.41-13.05-8.03-19.73-11.53-2.16-1.13-4.39-2.3-6.56-3.48-1.31-.71-3.12-1.07-4.73-.94-7.07.56-13.47-.31-19.56-2.68-2.56-1-5.25-1.87-7.54-1.56-.87.12-1.73.18-2.56.18-5.64,0-10.33-2.61-14.89-5.15-3.2-1.78-5.63-1.72-8.95.24-3.15,1.85-6.86,2.89-9.91,2.77-1.85-.07-3.73-.31-5.55-.54-6.18-.78-12.02-1.51-17.03,3.8-.76.81-2,1.16-2.83,1.39-8.38,2.36-15.22,6.74-20.91,13.4-2.63,3.07-5.37,4.61-8.19,4.61-1.63,0-3.28-.51-4.95-1.53-.68-.42-1.25-.47-1.34-.4-.33.26-.63.46-.87.62-.81.54-.97.66-1.14,2.08l-1.64-.19c.24-2.08.8-2.55,1.86-3.26.23-.15.49-.33.78-.55,1.12-.86,2.74,0,3.21.3,3.83,2.34,7.44,1.45,11.02-2.74,5.91-6.91,13.02-11.46,21.72-13.92.65-.18,1.63-.46,2.07-.93,5.58-5.92,12.12-5.1,18.43-4.31,1.78.22,3.63.46,5.41.53,2.75.11,6.11-.84,9.01-2.54,3.82-2.24,6.89-2.32,10.59-.26,4.99,2.78,10.15,5.65,16.41,4.78,2.66-.37,5.59.57,8.37,1.65,5.85,2.27,12.01,3.12,18.83,2.57,1.91-.15,4.08.28,5.65,1.14,2.16,1.17,4.39,2.34,6.54,3.46,6.74,3.53,13.7,7.17,19.93,11.65,5.27,3.79,9.12,2.99,13.29.63.82-.47,1.65-.93,2.47-1.39,4.96-2.78,10.08-5.66,14.61-9.1,5.69-4.32,12.01-6.3,20.49-6.41,3.76-.05,7.83-1.77,10.95-3.26,3.93-1.87,7.81-4.03,11.57-6.11,2.38-1.32,4.84-2.68,7.3-3.97,3.24-1.69,6.46-1.2,9.57,1.46,2.34,2,4.45,3.56,6.47,4.78,7.66,4.63,13.96,11,19.27,19.48,1.1,1.77,2.57,3.5,4.37,5.14,1.98,1.82,4.16,2.07,7.06.84,2.19-.93,4.94-.86,6.95-.81,1.41.04,2.82.21,4.18.38,1.88.24,3.66.46,5.44.35,3.28-.2,5.47.86,7.57,3.66,1.95,2.6,4.3,4.98,6.81,6.88,2.43,1.84,3.27,3.66,2.89,6.28"/><path class="cls-20" d="M167.72,142.98l-1.63-.26c.32-2.01-.25-3.26-2.18-4.76-2.6-2.03-5.03-4.56-7.02-7.32-1.72-2.38-3.37-3.22-6.09-3.1-1.93.09-3.86-.19-5.74-.45-1.32-.19-2.69-.38-4.02-.44-2.4-.1-4.53-.13-6.27.57-3.51,1.43-6.39,1.01-8.8-1.29-1.88-1.78-3.41-3.65-4.57-5.56-5.03-8.34-11.05-14.64-18.41-19.25-2.08-1.3-4.24-2.95-6.61-5.05-2.55-2.25-5.07-2.7-7.71-1.37-2.46,1.24-4.93,2.55-7.33,3.83-3.81,2.03-7.75,4.14-11.76,5.96-3.29,1.5-7.58,3.23-11.65,3.23-.01,0-.03,0-.04,0-.05,0-.11,0-.16,0-8.02,0-14.03,1.78-19.45,5.76-4.68,3.43-9.9,6.25-14.95,8.98-.83.45-1.66.9-2.49,1.35-2.73,1.49-5.06,2.15-7.34,2.09-2.53-.07-5.06-1.07-7.72-3.06-6.06-4.51-12.91-8.24-19.54-11.85-2.14-1.16-4.35-2.37-6.51-3.58-1.3-.73-3.11-1.12-4.72-1.02-7.08.45-13.46-.53-19.51-3-2.55-1.04-5.22-1.96-7.51-1.68-6.83.84-12.18-2.26-17.36-5.25-3.17-1.83-5.6-1.81-8.95.09-3.18,1.8-6.9,2.78-9.95,2.61-1.85-.1-3.73-.37-5.54-.63-6.17-.88-11.99-1.7-17.08,3.52-.77.79-2.02,1.12-2.85,1.34-8.42,2.22-15.33,6.5-21.13,13.06-4.22,4.77-8.65,5.73-13.18,2.86-.68-.43-1.24-.49-1.33-.42-.34.25-.64.45-.88.6-.82.53-.98.64-1.17,2.06l-1.64-.21c.27-2.08.84-2.54,1.91-3.23.23-.15.49-.32.79-.54,1.13-.85,2.74.05,3.21.35,3.79,2.4,7.41,1.57,11.06-2.56,6.02-6.81,13.2-11.25,21.95-13.56.65-.17,1.64-.43,2.09-.9,5.68-5.83,12.2-4.9,18.5-4,1.78.25,3.62.51,5.4.61,2.75.15,6.13-.74,9.05-2.39,3.86-2.18,6.93-2.21,10.6-.08,4.94,2.86,10.05,5.82,16.33,5.04,2.67-.33,5.58.67,8.34,1.79,5.82,2.37,11.96,3.31,18.79,2.88,1.91-.12,4.07.35,5.63,1.23,2.14,1.21,4.35,2.41,6.49,3.57,6.68,3.64,13.58,7.39,19.74,11.98,5.2,3.87,9.07,3.14,13.28.85.83-.45,1.66-.9,2.5-1.35,5-2.7,10.17-5.5,14.76-8.86,5.76-4.23,12.11-6.11,20.59-6.08.01,0,.02,0,.04,0,3.75,0,7.83-1.64,10.96-3.08,3.96-1.81,7.88-3.9,11.67-5.92,2.4-1.28,4.88-2.61,7.36-3.85,3.27-1.64,6.48-1.1,9.55,1.61,2.3,2.03,4.4,3.63,6.4,4.88,7.59,4.75,13.78,11.23,18.95,19.8,1.08,1.78,2.52,3.54,4.29,5.21,1.95,1.85,4.12,2.14,7.04.95,2.21-.9,4.95-.78,6.96-.69,1.41.06,2.81.26,4.18.45,1.88.27,3.66.52,5.43.44,3.28-.15,5.46.95,7.51,3.78,1.9,2.63,4.22,5.05,6.7,6.99,2.4,1.88,3.21,3.71,2.79,6.33"/><path class="cls-3" d="M71.69,155.26c-.29-2.07.14-2.67.98-3.62.18-.21.39-.44.61-.73.86-1.12,2.65-.68,3.18-.52,4.3,1.31,7.56-.46,9.98-5.41,3.99-8.17,9.73-14.36,17.55-18.91.58-.34,1.46-.85,1.77-1.42,3.92-7.13,10.45-7.97,16.77-8.78,1.78-.23,3.63-.47,5.37-.85,2.69-.58,5.71-2.35,8.08-4.71,3.14-3.13,6.09-3.97,10.19-2.9,5.52,1.44,11.24,2.93,17.08.52,2.48-1.03,5.56-.84,8.51-.49,6.24.74,12.41.01,18.88-2.22,1.81-.63,4.02-.74,5.76-.31,2.39.59,4.83,1.17,7.2,1.72,7.4,1.73,15.06,3.52,22.21,6.3,6.05,2.35,9.58.61,13.03-2.72.68-.66,1.36-1.31,2.05-1.97,4.1-3.94,8.34-8.01,11.87-12.47,4.43-5.61,10.05-9.11,18.23-11.34,3.63-.99,7.13-3.67,9.79-5.89,3.33-2.79,6.56-5.85,9.67-8.81,1.97-1.87,4.02-3.81,6.07-5.67,2.71-2.45,5.95-2.78,9.63-.98,2.76,1.35,5.2,2.33,7.46,3.01,8.58,2.57,16.27,7.16,23.53,14.04,1.51,1.43,3.37,2.74,5.52,3.89,2.37,1.26,4.54.97,7.04-.95,1.89-1.45,4.57-2.07,6.52-2.52,1.37-.32,2.78-.5,4.15-.68,1.88-.24,3.66-.47,5.35-1.02,3.13-1.02,5.51-.54,8.25,1.65,2.53,2.03,5.41,3.74,8.32,4.95,2.82,1.17,4.08,2.72,4.37,5.36l-1.64.18c-.22-2.02-1.1-3.07-3.36-4.01-3.05-1.27-6.06-3.06-8.72-5.19-2.29-1.84-4.11-2.21-6.7-1.37-1.84.6-3.77.85-5.65,1.09-1.32.17-2.7.35-3.99.65-2.34.54-4.4,1.08-5.89,2.22-3,2.31-5.89,2.67-8.83,1.1-2.28-1.21-4.26-2.61-5.88-4.15-7.06-6.7-14.54-11.17-22.86-13.66-2.35-.7-4.87-1.72-7.72-3.11-3.06-1.49-5.61-1.25-7.8.73-2.04,1.84-4.08,3.77-6.04,5.64-3.13,2.97-6.37,6.05-9.75,8.88-2.78,2.33-6.48,5.15-10.41,6.22-7.82,2.13-13.17,5.45-17.37,10.77-3.6,4.55-7.88,8.66-12.02,12.64-.68.65-1.36,1.31-2.04,1.96-2.24,2.16-4.31,3.42-6.52,3.96-2.46.6-5.16.31-8.26-.89-7.04-2.74-14.64-4.51-21.99-6.23-2.37-.55-4.82-1.13-7.22-1.72-1.45-.36-3.29-.26-4.82.27-6.71,2.31-13.12,3.07-19.61,2.3-2.73-.32-5.55-.5-7.69.38-2.48,1.02-4.91,1.41-7.29,1.41-3.71,0-7.31-.94-10.84-1.86-3.54-.92-5.88-.26-8.61,2.47-2.59,2.58-5.92,4.51-8.9,5.16-1.81.39-3.69.64-5.51.87-6.18.8-12.02,1.55-15.53,7.94-.53.97-1.65,1.62-2.39,2.05-7.52,4.38-13.05,10.34-16.9,18.21-2.2,4.5-5.16,6.76-8.82,6.76-.99,0-2.04-.17-3.13-.5-.77-.23-1.32-.14-1.39-.05-.26.33-.49.6-.68.81-.64.73-.78.88-.58,2.3l-1.64.23Z"/><path class="cls-17" d="M303.95,168.1l-1.64-.21c.25-2.02-.36-3.25-2.34-4.69-2.67-1.94-5.18-4.39-7.27-7.07-1.8-2.32-3.48-3.11-6.2-2.89-1.92.15-3.87-.05-5.75-.25-1.33-.14-2.7-.29-4.03-.3-2.41-.02-4.54.03-6.24.79-3.45,1.55-6.35,1.22-8.84-.98-1.94-1.71-3.54-3.53-4.75-5.4-5.31-8.16-11.54-14.25-19.06-18.6-2.12-1.23-4.34-2.81-6.78-4.82-2.63-2.16-5.16-2.52-7.75-1.11-2.41,1.32-4.84,2.72-7.19,4.08-3.74,2.16-7.61,4.4-11.54,6.36-3.25,1.62-7.5,3.5-11.58,3.63-8.1.25-14.08,2.24-19.4,6.43-4.56,3.59-9.68,6.59-14.63,9.49-.82.48-1.63.96-2.44,1.44-2.68,1.58-4.99,2.32-7.26,2.34-2.53.01-5.09-.9-7.82-2.79-6.21-4.3-13.19-7.8-19.94-11.17-2.18-1.09-4.43-2.22-6.62-3.36-1.32-.69-3.14-1.02-4.75-.86-7.06.69-13.47-.07-19.61-2.33-2.58-.95-5.28-1.78-7.57-1.42-.99.16-1.95.23-2.88.23-5.49,0-10.14-2.48-14.65-4.88-3.23-1.72-5.66-1.62-8.95.4-3.12,1.91-6.8,3.01-9.86,2.95-1.86-.04-3.74-.24-5.56-.44-6.19-.66-12.05-1.29-16.95,4.11-.74.82-1.98,1.19-2.8,1.44-8.34,2.51-15.1,7.02-20.67,13.77-2.61,3.17-5.37,4.76-8.24,4.76-1.58,0-3.19-.48-4.84-1.45-.69-.4-1.25-.45-1.34-.37-.33.26-.62.47-.85.63-.8.56-.96.67-1.1,2.1l-1.65-.16c.2-2.09.75-2.56,1.8-3.29.23-.16.48-.34.77-.57,1.1-.88,2.74-.04,3.22.24,3.87,2.27,7.46,1.31,10.96-2.94,5.78-7.02,12.81-11.7,21.47-14.31.65-.19,1.62-.49,2.06-.97,5.47-6.02,12.02-5.32,18.35-4.64,1.79.19,3.64.39,5.42.43,2.75.06,6.1-.95,8.96-2.7,3.78-2.31,6.85-2.44,10.59-.45,5.04,2.69,10.25,5.47,16.49,4.48,2.65-.42,5.6.47,8.39,1.5,5.89,2.17,12.07,2.9,18.87,2.23,1.91-.19,4.08.21,5.67,1.04,2.18,1.13,4.43,2.26,6.6,3.35,6.8,3.4,13.83,6.92,20.14,11.29,5.33,3.69,9.18,2.83,13.3.39.81-.48,1.63-.96,2.45-1.44,4.9-2.87,9.98-5.84,14.44-9.37,5.61-4.42,11.9-6.52,20.37-6.78,3.76-.12,7.79-1.91,10.89-3.45,3.89-1.94,7.74-4.17,11.46-6.32,2.36-1.36,4.79-2.77,7.22-4.1,3.21-1.75,6.44-1.32,9.6,1.28,2.37,1.95,4.52,3.48,6.56,4.66,7.74,4.49,14.16,10.75,19.61,19.13,1.14,1.75,2.64,3.45,4.46,5.06,2.01,1.78,4.19,2,7.07.71,2.17-.97,4.92-.95,6.93-.93,1.41.01,2.82.16,4.19.31,1.89.2,3.67.39,5.44.25,3.28-.26,5.49.76,7.64,3.52,1.99,2.57,4.39,4.9,6.94,6.75,2.47,1.79,3.34,3.6,3.01,6.23"/><path class="cls-5" d="M290.59,264.89l-1.34-.96c1.19-1.65,1.23-3.02.18-5.23-1.42-2.98-2.46-6.33-3.01-9.69-.48-2.9-1.58-4.39-4.07-5.49-1.76-.78-3.37-1.89-4.93-2.97-1.1-.76-2.24-1.54-3.4-2.18-2.1-1.17-4-2.14-5.86-2.28-3.77-.29-6.16-1.95-7.3-5.08-.89-2.43-1.42-4.79-1.6-7.02-.77-9.71-3.35-18.03-7.87-25.44-1.28-2.09-2.48-4.54-3.66-7.47-1.27-3.14-3.32-4.67-6.26-4.67h-.02c-2.75,0-5.55.08-8.27.16-4.32.12-8.78.24-13.18.09-3.63-.12-8.26-.5-11.9-2.34-7.24-3.64-13.44-4.75-20.12-3.61-5.72.98-11.65,1.18-17.39,1.36-.94.03-1.89.06-2.83.1-3.11.11-5.49-.34-7.5-1.41-2.23-1.2-4.05-3.22-5.54-6.18-3.41-6.75-7.87-13.14-12.19-19.33-1.39-2-2.84-4.06-4.22-6.11-.84-1.23-2.28-2.39-3.76-3.02-6.54-2.76-11.81-6.49-16.12-11.4-1.82-2.07-3.79-4.08-5.97-4.86-6.48-2.3-9.89-7.46-13.18-12.45-2.02-3.06-4.2-4.12-8.05-3.92-3.65.19-7.42-.6-10.07-2.11-1.61-.92-3.17-2-4.68-3.04-5.13-3.54-9.97-6.88-16.86-4.48-1.04.36-2.31.1-3.15-.07-8.53-1.77-16.62-1.04-24.74,2.25-5.9,2.39-10.3,1.27-13.07-3.33-.41-.68-.89-.99-1-.97-.42.08-.77.12-1.05.15-.97.11-1.17.13-1.97,1.32l-1.37-.92c1.17-1.74,1.89-1.89,3.15-2.04.27-.03.58-.07.95-.13,1.39-.25,2.43,1.27,2.71,1.74,2.32,3.85,5.93,4.71,11.04,2.65,8.43-3.41,16.84-4.17,25.69-2.33.66.14,1.66.34,2.27.13,7.68-2.68,13.1,1.06,18.34,4.68,1.48,1.02,3.01,2.08,4.56,2.96,2.39,1.36,5.81,2.07,9.16,1.9,4.43-.23,7.18,1.12,9.52,4.66,3.15,4.77,6.4,9.69,12.36,11.81,2.53.9,4.7,3.09,6.66,5.32,4.14,4.72,9.22,8.3,15.52,10.97,1.77.75,3.49,2.13,4.49,3.62,1.38,2.04,2.82,4.1,4.21,6.09,4.35,6.23,8.85,12.68,12.31,19.53,2.93,5.79,6.72,6.86,11.51,6.69.94-.03,1.89-.07,2.84-.1,5.68-.19,11.56-.38,17.16-1.34,7.04-1.21,13.56-.05,21.14,3.76,3.36,1.69,7.76,2.04,11.22,2.16,4.35.15,8.79.03,13.08-.09,2.72-.07,5.53-.15,8.31-.16h.03c3.64,0,6.26,1.92,7.8,5.71,1.15,2.85,2.31,5.21,3.54,7.23,4.66,7.64,7.32,16.2,8.11,26.17.17,2.08.67,4.29,1.51,6.58.92,2.52,2.73,3.76,5.88,4,2.37.18,4.78,1.51,6.54,2.49,1.23.68,2.4,1.49,3.54,2.27,1.56,1.08,3.04,2.1,4.66,2.81,3,1.33,4.46,3.28,5.03,6.74.53,3.2,1.52,6.4,2.88,9.24,1.31,2.75,1.22,4.75-.33,6.91"/><path class="cls-18" d="M23.86,149.37c-.29-2.07.14-2.67.98-3.62.18-.21.39-.44.61-.73.86-1.12,2.65-.68,3.18-.52,4.3,1.31,7.56-.46,9.98-5.41,3.99-8.17,9.73-14.36,17.55-18.91.58-.34,1.46-.85,1.77-1.42,3.92-7.13,10.45-7.97,16.77-8.78,1.78-.23,3.63-.47,5.37-.85,2.69-.58,5.71-2.35,8.08-4.71,3.14-3.13,6.09-3.97,10.19-2.9,5.52,1.44,11.24,2.93,17.08.52,2.48-1.03,5.56-.84,8.51-.49,6.24.74,12.41.01,18.88-2.22,1.81-.63,4.02-.75,5.76-.31,2.39.59,4.84,1.17,7.2,1.72,7.4,1.73,15.06,3.52,22.21,6.3,6.05,2.35,9.58.61,13.03-2.72.68-.66,1.36-1.31,2.05-1.97,4.1-3.94,8.34-8.01,11.87-12.47,4.43-5.61,10.05-9.11,18.23-11.34,3.63-.99,7.13-3.67,9.79-5.89,3.33-2.79,6.56-5.85,9.67-8.81,1.97-1.87,4.02-3.81,6.07-5.67,2.71-2.45,5.95-2.78,9.63-.98,2.76,1.35,5.2,2.33,7.46,3.01,8.58,2.57,16.27,7.16,23.53,14.04,1.51,1.43,3.37,2.74,5.52,3.89,2.37,1.26,4.54.97,7.04-.95,1.89-1.45,4.57-2.07,6.52-2.52,1.37-.32,2.78-.5,4.15-.68,1.88-.24,3.66-.47,5.35-1.02,3.13-1.02,5.51-.54,8.25,1.65,2.53,2.03,5.41,3.74,8.32,4.95,2.82,1.17,4.08,2.72,4.37,5.36l-1.64.18c-.22-2.02-1.1-3.07-3.36-4.01-3.05-1.27-6.06-3.06-8.72-5.19-2.3-1.84-4.11-2.21-6.7-1.37-1.84.6-3.77.85-5.65,1.09-1.32.17-2.69.35-3.99.65-2.34.54-4.41,1.08-5.89,2.22-3,2.31-5.89,2.67-8.83,1.1-2.28-1.21-4.26-2.61-5.88-4.15-7.06-6.7-14.54-11.17-22.86-13.66-2.35-.7-4.87-1.72-7.72-3.11-3.06-1.49-5.61-1.25-7.8.73-2.04,1.84-4.08,3.77-6.04,5.64-3.13,2.97-6.37,6.05-9.75,8.88-2.78,2.33-6.48,5.15-10.41,6.22-7.82,2.13-13.17,5.45-17.37,10.77-3.6,4.55-7.88,8.66-12.02,12.64-.68.65-1.36,1.31-2.04,1.96-2.24,2.16-4.31,3.42-6.52,3.96-2.46.6-5.16.31-8.26-.89-7.04-2.74-14.64-4.51-21.99-6.23-2.37-.55-4.82-1.13-7.22-1.72-1.45-.36-3.29-.26-4.82.27-6.71,2.31-13.12,3.07-19.61,2.3-2.73-.32-5.55-.5-7.69.38-2.48,1.02-4.91,1.41-7.29,1.41-3.71,0-7.31-.94-10.84-1.86-3.54-.92-5.88-.26-8.61,2.47-2.59,2.58-5.92,4.51-8.9,5.16-1.81.39-3.69.64-5.51.87-6.18.8-12.02,1.55-15.53,7.94-.53.97-1.65,1.62-2.39,2.05-7.52,4.38-13.05,10.34-16.9,18.21-2.2,4.5-5.16,6.76-8.82,6.76-.99,0-2.04-.17-3.13-.5-.77-.23-1.32-.14-1.39-.05-.26.33-.49.6-.68.81-.64.73-.78.88-.58,2.3l-1.64.23Z"/><path class="cls-17" d="M161.99,127.72l-1.64-.24c.29-2.02-.3-3.25-2.25-4.73-2.63-1.99-5.1-4.48-7.14-7.2-1.76-2.36-3.43-3.17-6.14-3-1.93.12-3.87-.12-5.74-.36-1.33-.17-2.7-.34-4.02-.37-2.4-.06-4.54-.06-6.26.68-3.48,1.48-6.37,1.11-8.82-1.14-1.91-1.75-3.47-3.59-4.66-5.49-5.16-8.26-11.28-14.45-18.72-18.95-2.1-1.27-4.29-2.88-6.69-4.94-2.59-2.21-5.11-2.62-7.73-1.25-2.44,1.28-4.89,2.63-7.26,3.95-3.78,2.09-7.69,4.26-11.66,6.15-3.28,1.56-7.56,3.36-11.64,3.42-8.1.11-14.12,1.98-19.51,6.08-4.62,3.51-9.8,6.42-14.8,9.23-.82.46-1.65.93-2.47,1.39-2.71,1.53-5.03,2.23-7.3,2.21-2.53-.03-5.07-.99-7.77-2.93-6.13-4.41-13.05-8.03-19.73-11.53-2.16-1.13-4.39-2.3-6.56-3.48-1.31-.71-3.12-1.07-4.73-.94-7.07.56-13.47-.31-19.56-2.68-2.56-1-5.25-1.87-7.54-1.56-.87.12-1.73.18-2.56.18-5.64,0-10.33-2.61-14.89-5.15-3.2-1.78-5.63-1.72-8.95.24-3.15,1.85-6.86,2.89-9.91,2.77-1.85-.07-3.73-.31-5.55-.54-6.18-.78-12.02-1.51-17.03,3.8-.76.8-2,1.16-2.83,1.39-8.38,2.36-15.22,6.74-20.91,13.4-2.63,3.07-5.37,4.61-8.19,4.61-1.62,0-3.28-.51-4.95-1.53-.68-.42-1.25-.47-1.34-.4-.33.26-.63.46-.87.62-.81.54-.97.66-1.14,2.08l-1.64-.19c.24-2.08.8-2.55,1.86-3.26.23-.15.49-.33.78-.55,1.12-.86,2.74,0,3.21.3,3.83,2.34,7.44,1.45,11.02-2.74,5.91-6.91,13.02-11.46,21.72-13.92.65-.18,1.63-.46,2.07-.93,5.58-5.92,12.12-5.1,18.43-4.31,1.78.22,3.63.46,5.41.53,2.75.11,6.11-.84,9.01-2.54,3.82-2.24,6.89-2.32,10.59-.26,4.99,2.78,10.15,5.65,16.41,4.78,2.66-.37,5.59.57,8.37,1.65,5.85,2.27,12.01,3.12,18.83,2.57,1.91-.15,4.08.28,5.65,1.14,2.16,1.17,4.39,2.34,6.54,3.46,6.74,3.53,13.7,7.17,19.93,11.65,5.27,3.79,9.12,2.99,13.29.63.82-.47,1.65-.93,2.47-1.39,4.96-2.78,10.08-5.66,14.61-9.1,5.69-4.32,12.01-6.3,20.49-6.41,3.76-.05,7.83-1.77,10.95-3.26,3.93-1.87,7.81-4.03,11.57-6.11,2.38-1.32,4.84-2.68,7.3-3.97,3.24-1.69,6.46-1.2,9.57,1.46,2.34,2,4.45,3.56,6.48,4.78,7.66,4.63,13.96,11,19.27,19.48,1.1,1.77,2.58,3.5,4.37,5.14,1.98,1.82,4.16,2.07,7.06.84,2.19-.93,4.94-.86,6.95-.81,1.41.04,2.82.21,4.18.38,1.88.24,3.66.46,5.44.35,3.28-.2,5.47.86,7.57,3.66,1.95,2.6,4.3,4.98,6.81,6.88,2.43,1.84,3.27,3.66,2.89,6.28"/><path class="cls-20" d="M262,121.45l-1.58-.5c.62-1.94.24-3.26-1.45-5.03-2.27-2.39-4.3-5.25-5.87-8.27-1.35-2.61-2.86-3.68-5.57-3.96-1.92-.2-3.79-.75-5.61-1.29-1.28-.38-2.61-.77-3.91-1.02-2.36-.45-4.46-.8-6.28-.35-3.68.89-6.46.06-8.52-2.57-1.59-2.03-2.84-4.11-3.7-6.17-3.74-8.99-8.77-16.1-15.38-21.75-1.86-1.59-3.76-3.54-5.8-5.96-2.19-2.6-4.62-3.42-7.42-2.49-2.61.86-5.25,1.8-7.81,2.71-4.07,1.45-8.28,2.95-12.51,4.17-3.49,1.01-8.01,2.08-12.04,1.47-8.01-1.21-14.25-.35-20.24,2.81-5.13,2.71-10.71,4.73-16.11,6.69-.89.32-1.78.64-2.66.97-2.92,1.07-5.32,1.38-7.57.98-2.49-.44-4.85-1.81-7.19-4.16-5.33-5.36-11.56-10.05-17.59-14.6-1.94-1.47-3.96-2.98-5.91-4.5-1.18-.91-2.91-1.57-4.52-1.7-7.07-.6-13.24-2.51-18.86-5.84-2.37-1.4-4.87-2.71-7.18-2.76-6.87-.17-11.72-4.03-16.4-7.75-2.87-2.28-5.27-2.61-8.87-1.23-3.41,1.31-7.24,1.73-10.23,1.11-1.82-.37-3.63-.91-5.39-1.44-5.97-1.77-11.61-3.45-17.42.97-.88.67-2.17.81-3.02.91-8.65.96-16.12,4.17-22.82,9.81-2.63,2.21-5.15,3.32-7.56,3.32-2.06,0-4.03-.81-5.9-2.42-.61-.52-1.15-.67-1.25-.61-.37.2-.7.35-.96.47-.88.41-1.07.49-1.46,1.86l-1.59-.45c.57-2.01,1.21-2.38,2.36-2.92.25-.11.53-.24.86-.42,1.24-.67,2.7.45,3.12.82,3.4,2.94,7.1,2.64,11.32-.91,6.96-5.85,14.71-9.19,23.7-10.19.67-.07,1.68-.19,2.2-.58,6.47-4.93,12.79-3.05,18.89-1.24,1.72.51,3.5,1.04,5.25,1.4,2.69.55,6.17.17,9.3-1.04,4.14-1.59,7.18-1.16,10.49,1.48,4.47,3.55,9.09,7.23,15.41,7.39,2.69.07,5.43,1.48,7.98,2.99,5.4,3.2,11.34,5.03,18.16,5.61,1.91.16,3.98.95,5.39,2.05,1.94,1.51,3.95,3.02,5.89,4.49,6.07,4.58,12.35,9.31,17.76,14.75,4.58,4.6,8.51,4.44,13.01,2.79.89-.33,1.78-.65,2.67-.97,5.34-1.94,10.87-3.94,15.9-6.6,6.32-3.34,12.88-4.26,21.26-2.98,3.72.56,8.01-.47,11.33-1.43,4.18-1.21,8.36-2.7,12.41-4.14,2.56-.91,5.21-1.86,7.85-2.73,3.47-1.14,6.57-.13,9.21,3,1.98,2.35,3.81,4.24,5.61,5.77,6.8,5.82,11.98,13.13,15.83,22.37.8,1.92,1.97,3.87,3.47,5.79,1.66,2.11,3.76,2.73,6.83,1.98,2.31-.56,5.01-.04,6.99.34,1.38.27,2.75.67,4.07,1.06,1.82.54,3.54,1.05,5.31,1.23,3.27.33,5.26,1.74,6.87,4.85,1.5,2.88,3.43,5.61,5.6,7.89,2.1,2.21,2.63,4.14,1.83,6.67"/><path class="cls-3" d="M189.04,121.06l-1.55-.59c.73-1.9.42-3.24-1.16-5.11-2.13-2.52-4-5.49-5.39-8.59-1.2-2.68-2.65-3.84-5.34-4.27-1.91-.31-3.75-.97-5.52-1.61-1.26-.45-2.56-.92-3.84-1.24-2.33-.59-4.41-1.05-6.25-.71-3.72.68-6.46-.31-8.36-3.05-1.48-2.12-2.6-4.27-3.34-6.37-3.22-9.19-7.84-16.58-14.11-22.59-1.77-1.7-3.55-3.75-5.45-6.29-2.04-2.72-4.42-3.67-7.27-2.91-2.66.71-5.35,1.5-7.95,2.26-4.15,1.22-8.43,2.47-12.72,3.45-3.54.81-8.11,1.62-12.1.78-7.93-1.67-14.21-1.16-20.37,1.65-5.28,2.41-10.96,4.11-16.46,5.76-.91.27-1.81.54-2.71.82-2.98.9-5.39,1.08-7.61.55-2.46-.59-4.73-2.08-6.94-4.56-5.02-5.65-10.97-10.7-16.72-15.58-1.86-1.58-3.78-3.2-5.64-4.83-1.12-.98-2.81-1.73-4.41-1.96-7.02-1-13.07-3.26-18.5-6.9-2.28-1.53-4.71-2.98-7.01-3.17-6.85-.57-11.47-4.69-15.93-8.67-2.73-2.44-5.11-2.91-8.79-1.73-3.48,1.12-7.32,1.31-10.27.53-1.79-.48-3.58-1.12-5.3-1.74-5.86-2.11-11.4-4.11-17.44-.03-.92.62-2.21.69-3.06.73-8.7.47-16.33,3.24-23.34,8.49-2.58,1.93-5.01,2.89-7.29,2.89-2.23,0-4.3-.92-6.21-2.77-.57-.56-1.11-.73-1.22-.68-.38.18-.71.31-.98.41-.91.35-1.09.43-1.56,1.78l-1.56-.54c.69-1.98,1.34-2.31,2.53-2.78.26-.1.55-.21.88-.37,1.28-.6,2.67.61,3.07.99,3.23,3.13,6.94,3.04,11.35-.26,7.28-5.45,15.21-8.33,24.25-8.81.67-.04,1.69-.09,2.23-.45,6.74-4.55,12.94-2.32,18.93-.16,1.69.61,3.44,1.24,5.16,1.7,2.66.71,6.15.52,9.34-.5,4.22-1.35,7.23-.75,10.39,2.07,4.26,3.8,8.66,7.74,14.96,8.26,2.68.22,5.33,1.79,7.8,3.45,5.21,3.5,11.04,5.67,17.81,6.64,1.9.27,3.92,1.17,5.27,2.35,1.85,1.62,3.77,3.24,5.62,4.81,5.8,4.92,11.8,10,16.89,15.74,4.31,4.85,8.25,4.92,12.83,3.53.9-.27,1.81-.55,2.72-.82,5.45-1.63,11.08-3.32,16.25-5.68,6.5-2.97,13.1-3.51,21.4-1.76,3.68.77,8.02,0,11.4-.78,4.24-.97,8.5-2.21,12.63-3.42,2.61-.77,5.31-1.56,7.99-2.27,3.53-.94,6.57.24,9.02,3.52,1.84,2.46,3.57,4.45,5.27,6.08,6.46,6.2,11.21,13.8,14.52,23.23.69,1.97,1.75,3.98,3.14,5.98,1.53,2.21,3.6,2.94,6.7,2.37,2.34-.43,5.01.24,6.96.74,1.36.34,2.7.83,4,1.29,1.79.64,3.47,1.25,5.23,1.53,3.25.52,5.15,2.04,6.58,5.23,1.33,2.96,3.11,5.8,5.14,8.2,1.97,2.33,2.39,4.29,1.44,6.77"/><path class="cls-17" d="M364.35,99.85l-1.62-.31c.38-2-.15-3.26-2.03-4.83-2.54-2.11-4.89-4.71-6.8-7.52-1.65-2.43-3.28-3.32-6-3.28-1.93.03-3.86-.3-5.72-.62-1.32-.23-2.68-.46-4-.55-2.4-.17-4.53-.26-6.28.39-3.55,1.32-6.41.82-8.76-1.54-1.82-1.83-3.3-3.75-4.4-5.69-4.78-8.48-10.61-14.95-17.83-19.78-2.04-1.36-4.15-3.08-6.46-5.24-2.48-2.32-4.99-2.85-7.67-1.6-2.49,1.16-5.01,2.41-7.43,3.61-3.87,1.92-7.87,3.91-11.93,5.62-3.34,1.41-7.7,3.01-11.78,2.88-8.1-.26-14.2,1.34-19.77,5.18-4.78,3.29-10.08,5.96-15.21,8.54-.84.42-1.69.85-2.53,1.28-2.77,1.41-5.12,2-7.4,1.87-2.53-.15-5.02-1.22-7.63-3.28-5.93-4.69-12.67-8.62-19.19-12.42-2.1-1.23-4.28-2.5-6.4-3.77-1.28-.77-3.07-1.21-4.69-1.16-.6.02-1.2.03-1.8.03-6.37,0-12.15-1.18-17.62-3.6-2.52-1.11-5.16-2.11-7.46-1.9-6.85.64-12.11-2.62-17.2-5.76-3.11-1.93-5.54-1.97-8.95-.17-3.23,1.71-6.98,2.57-10.02,2.31-1.85-.16-3.72-.48-5.52-.79-6.14-1.06-11.94-2.06-17.18,3.02-.79.77-2.05,1.06-2.89,1.26-8.48,1.98-15.51,6.04-21.5,12.43-4.36,4.65-8.82,5.48-13.26,2.47-.66-.45-1.22-.53-1.32-.46-.35.24-.65.43-.89.58-.83.51-1,.61-1.23,2.02l-1.63-.26c.33-2.07.92-2.51,2-3.17.24-.14.5-.31.8-.52,1.15-.81,2.74.13,3.19.44,3.72,2.52,7.36,1.78,11.13-2.23,6.22-6.63,13.53-10.86,22.33-12.91.66-.15,1.65-.38,2.11-.83,5.85-5.66,12.34-4.54,18.61-3.46,1.77.31,3.6.62,5.38.77,2.74.23,6.15-.56,9.11-2.13,3.92-2.07,6.99-2,10.6.23,4.86,3,9.88,6.11,16.17,5.52,2.68-.25,5.56.83,8.28,2.03,5.74,2.54,11.86,3.66,18.69,3.43,1.92-.07,4.06.47,5.59,1.39,2.11,1.27,4.28,2.54,6.38,3.76,6.57,3.83,13.36,7.79,19.38,12.55,5.09,4.03,8.98,3.4,13.25,1.23.84-.43,1.69-.85,2.53-1.28,5.08-2.56,10.33-5.2,15.01-8.43,5.88-4.06,12.29-5.75,20.76-5.47,3.76.12,7.9-1.41,11.09-2.75,4.01-1.69,7.99-3.66,11.83-5.57,2.44-1.21,4.96-2.46,7.47-3.63,3.31-1.54,6.51-.91,9.5,1.89,2.24,2.1,4.29,3.76,6.25,5.07,7.44,4.97,13.45,11.63,18.36,20.34,1.02,1.82,2.41,3.61,4.13,5.34,1.9,1.9,4.06,2.26,7.01,1.16,2.23-.83,4.97-.63,6.98-.49,1.4.1,2.81.34,4.16.57,1.87.32,3.64.62,5.41.6,3.28-.05,5.43,1.11,7.4,4,1.82,2.69,4.07,5.17,6.49,7.18,2.35,1.95,3.1,3.8,2.6,6.41"/></g><g id="Hercules"><rect class="cls-19" x="133.62" y="179.9" width="17.2" height="4.19"/><rect class="cls-3" x="88.04" y="197.4" width="21.93" height="4.19"/><rect class="cls-17" x="136.13" y="163.98" width="25.81" height="4.19"/><rect class="cls-1" x="71.26" y="163.98" width="16.8" height="4.19"/><polygon class="cls-24" points="164.46 205.78 162.12 205.78 155.61 193.18 155.61 205.78 150.82 205.78 150.82 179.9 153.16 179.9 159.67 192.51 159.67 179.9 164.46 179.9 164.46 205.78"/><path class="cls-24" d="M148.54,192.84c0,10.59-3.22,13.11-7.04,13.11s-7.04-2.51-7.04-13.11,3.22-12.94,7.04-12.94,7.04,2.35,7.04,12.94M143.51,192.84c0-7.14-.94-8.75-2.01-8.75s-2.01,1.61-2.01,8.75.94,8.92,2.01,8.92,2.01-1.78,2.01-8.92"/><polygon class="cls-24" points="133.62 184.09 129.73 184.09 129.73 205.78 124.7 205.78 124.7 184.09 120.84 184.09 120.84 179.9 133.62 179.9 133.62 184.09"/><path class="cls-24" d="M121.18,205.78h-4.56l-.54-4.19h-3.35l-.54,4.19h-4.53l3.89-25.88h5.73l3.89,25.88ZM115.51,197.4l-1.11-9.89-1.17,9.89h2.28Z"/><path class="cls-24" d="M105.72,187.95c0,5-2.38,7.31-3.52,8.08.77.91,1.84,2.41,2.51,4.12.77,1.94.91,3.86.91,5.63h-5.03c0-1.27-.13-2.58-.67-3.92-.57-1.41-1.34-2.48-1.91-3.02v6.94h-5.03v-25.88h3.96c4.79,0,8.78,2.55,8.78,8.05M100.69,187.98c0-2.45-.97-3.82-2.68-3.82v9.22c.77,0,2.68-1.94,2.68-5.4"/><path class="cls-24" d="M90.64,205.78h-4.56l-.54-4.19h-3.35l-.54,4.19h-4.53l3.89-25.88h5.73l3.89,25.88ZM84.97,197.4l-1.11-9.89-1.17,9.89h2.28Z"/><polygon class="cls-24" points="75.01 205.78 70.22 205.78 70.22 195.12 68.17 200.15 66.16 200.15 64.12 195.12 64.12 205.78 59.32 205.78 59.32 179.9 61.67 179.9 67.17 193.21 72.67 179.9 75.01 179.9 75.01 205.78"/><path class="cls-24" d="M167.04,169.14c0,4.66-3.08,7.17-7.17,7.17-1.68,0-2.98-.34-4.16-1.04l1.84-3.79c.57.34,1.41.57,2.31.57,1.27,0,2.25-.87,2.25-2.25,0-2.08-1.11-3.69-2.95-6-2.25-2.85-3.12-4.76-3.12-7.14,0-4.02,2.55-6.57,6.57-6.57,1.27,0,2.51.34,3.29.77l-1.78,3.62c-.47-.17-.87-.27-1.51-.27-1.07,0-1.74.77-1.74,1.74,0,1.68,1.04,3.05,2.92,5.43,2.31,2.92,3.25,4.9,3.25,7.74"/><polygon class="cls-24" points="153.87 176.15 143.37 176.15 143.37 168.17 142.03 168.17 142.03 163.98 143.37 163.98 143.37 150.26 153.87 150.26 153.87 154.45 148.4 154.45 148.4 163.98 152.83 163.98 152.83 168.17 148.4 168.17 148.4 171.95 153.87 171.95 153.87 176.15"/><polygon class="cls-24" points="141.26 176.15 131.1 176.15 131.1 150.26 136.13 150.26 136.13 171.95 141.26 171.95 141.26 176.15"/><path class="cls-24" d="M128.55,168.74c0,5.06-3.32,7.58-6.64,7.58s-6.61-2.51-6.61-7.58v-18.47h5.03v19.24c0,1.54.7,2.62,1.58,2.62s1.61-1.07,1.61-2.62v-19.24h5.03v18.47Z"/><path class="cls-24" d="M112.96,176.08s-.87.23-1.94.23c-3.29,0-8.28-1.07-8.28-13.11s5-13.11,8.28-13.11c1.07,0,1.94.23,1.94.23v4.09c-.47-.07-.84-.13-1.41-.13-1.31,0-3.79.64-3.79,8.92s2.48,8.92,3.79,8.92c.57,0,.94-.07,1.41-.13v4.09Z"/><path class="cls-24" d="M100.79,158.31c0,5-2.38,7.31-3.52,8.08.77.91,1.84,2.41,2.51,4.12.77,1.94.91,3.86.91,5.63h-5.03c0-1.27-.13-2.58-.67-3.92-.57-1.41-1.34-2.48-1.91-3.02v6.94h-5.03v-25.88h3.96c4.79,0,8.78,2.55,8.78,8.05M95.77,158.34c0-2.45-.97-3.82-2.68-3.82v9.22c.77,0,2.68-1.94,2.68-5.4"/><polygon class="cls-24" points="85.14 176.15 74.64 176.15 74.64 168.17 73.3 168.17 73.3 163.98 74.64 163.98 74.64 150.26 85.14 150.26 85.14 154.45 79.67 154.45 79.67 163.98 84.1 163.98 84.1 168.17 79.67 168.17 79.67 171.95 85.14 171.95 85.14 176.15"/><polygon class="cls-24" points="71.26 176.15 66.23 176.15 66.23 168.17 63.04 168.17 63.04 176.15 58.01 176.15 58.01 168.17 56.67 168.17 56.67 163.98 58.01 163.98 58.01 150.26 63.04 150.26 63.04 163.98 66.23 163.98 66.23 150.26 71.26 150.26 71.26 176.15"/></g></g><path class="cls-4" d="M37.65,24.34c.98.6,1.52,1.35,1.14,2.45-.12.36-.13.77-.2,1.22-1.36-1.13-1.67-2.43-.94-3.67Z"/><path class="cls-21" d="M33.56,21.15c.92.38,1.48.95,1.3,1.94-.06.33,0,.67,0,1.07-1.31-.78-1.76-1.85-1.3-3.02Z"/><path class="cls-18" d="M49.24,39.17c-2.19-1.09-3.53-2.62-3.11-5.16.14-.84.02-1.74.02-2.78,3.13,2.16,4.19,4.98,3.09,7.95Z"/><path class="cls-16" d="M33.91,30.12c1.41-.76,2.75-.85,4.01.49.41.44.96.77,1.54,1.22-2.35.82-4.3.2-5.54-1.71Z"/><path class="cls-18" d="M32.43,25.91c.95-.25,1.76-.15,2.3.73.18.29.46.53.73.84-1.52.18-2.58-.38-3.04-1.57Z"/><path class="cls-3" d="M42.57,27.58c1.12,1.23,1.58,2.51.63,3.93-.31.47-.47,1.04-.75,1.67-1.45-2.13-1.38-4.1.12-5.6Z"/><path class="cls-17" d="M37.13,35.79c1.79-1.09,3.51-1.36,5.16.11.54.48,1.25.81,2.01,1.28-3,1.28-5.52.76-7.16-1.39Z"/><path class="cls-23" d="M41.83,42.38c1.87-2.03,3.9-2.97,6.38-1.62.82.45,1.79.63,2.86.99-3.3,2.7-6.56,2.87-9.24.62Z"/><path class="cls-20" d="M60.34,70.03c-.26.91-2.04,1.02-2.83,1.1-3.16.23-6.32-.3-9.31-1.35-1.2-.44-4.51-1.83-3.13-3.51.9-.89,2.82-.94,4-.96,2.85.03,5.68.66,8.22,1.96.85.45,3.24,1.66,3.05,2.76h0ZM60.22,70c.05-.66-.76-1.11-1.26-1.4-1.22-.62-2.57-.92-3.9-1.2-1.98-.4-4.01-.76-6.02-.88-.81-.04-2.82-.11-3.32.52.07.76,2.08,1.68,2.78,1.97,2.65,1.1,7.18,2.2,10.03,1.87.58-.1,1.5-.24,1.69-.88h0Z"/><path class="cls-24" d="M53.3,76.35l-5.19-7.65c-.39-.58-.39-1.34,0-1.92l3-4.34c.53-.77,1.59-.97,2.36-.43l4.34,3c.58.4.85,1.11.69,1.79l-2.14,8.99c-.34,1.44-2.23,1.78-3.06.56Z"/><g class="cls-10"><path class="cls-20" d="M60.34,70.03c-.26.91-2.04,1.02-2.83,1.1-3.16.23-6.32-.3-9.31-1.35-1.2-.44-4.51-1.83-3.13-3.51.9-.89,2.82-.94,4-.96,2.85.03,5.68.66,8.22,1.96.85.45,3.24,1.66,3.05,2.76h0ZM60.22,70c.05-.66-.76-1.11-1.26-1.4-1.22-.62-2.57-.92-3.9-1.2-1.98-.4-4.01-.76-6.02-.88-.81-.04-2.82-.11-3.32.52.07.76,2.08,1.68,2.78,1.97,2.65,1.1,7.18,2.2,10.03,1.87.58-.1,1.5-.24,1.69-.88h0Z"/></g><path class="cls-19" d="M22.27,172.84c.79.53.34,2.25.18,3.03-.75,3.07-2.22,5.93-4.14,8.44-.79,1.01-3.13,3.73-4.3,1.9-.57-1.12-.02-2.98.32-4.11.9-2.71,2.37-5.2,4.38-7.22.69-.67,2.58-2.58,3.56-2.05h0ZM22.21,172.95c-.61-.25-1.29.38-1.72.77-.96.97-1.67,2.16-2.34,3.34-.99,1.76-1.95,3.58-2.68,5.46-.29.76-.97,2.65-.52,3.32.74.16,2.23-1.47,2.72-2.04,1.86-2.18,4.3-6.16,4.86-8.97.08-.58.24-1.5-.32-1.88h0Z"/><path class="cls-24" d="M16.68,175.3l7.81,3.58c1.23.56,1.47,2.2.46,3.1l-5.19,4.6c-1.01.9-2.61.46-3.02-.83l-2.62-8.18c-.5-1.55,1.08-2.95,2.56-2.27Z"/><g class="cls-8"><path class="cls-19" d="M22.27,172.84c.79.53.34,2.25.18,3.03-.75,3.07-2.22,5.93-4.14,8.44-.79,1.01-3.13,3.73-4.3,1.9-.57-1.12-.02-2.98.32-4.11.9-2.71,2.37-5.2,4.38-7.22.69-.67,2.58-2.58,3.56-2.05h0ZM22.21,172.95c-.61-.25-1.29.38-1.72.77-.96.97-1.67,2.16-2.34,3.34-.99,1.76-1.95,3.58-2.68,5.46-.29.76-.97,2.65-.52,3.32.74.16,2.23-1.47,2.72-2.04,1.86-2.18,4.3-6.16,4.86-8.97.08-.58.24-1.5-.32-1.88h0Z"/></g><path class="cls-6" d="M40.67,166.37c-.74.6-2.25-.33-2.95-.72-2.72-1.62-5.02-3.86-6.86-6.44-.73-1.05-2.65-4.08-.56-4.67,1.24-.21,2.85.85,3.83,1.5,2.33,1.65,4.28,3.79,5.62,6.31.43.85,1.71,3.22.92,4.01h0ZM40.59,166.28c.42-.51.01-1.34-.23-1.87-.64-1.21-1.58-2.23-2.51-3.22-1.4-1.47-2.85-2.91-4.44-4.16-.64-.5-2.25-1.7-3.02-1.47-.37.66.75,2.57,1.15,3.2,1.54,2.41,4.63,5.92,7.16,7.27.54.25,1.36.67,1.89.24h0Z"/><path class="cls-24" d="M31.28,167.52l.12-9.24c0-.7.45-1.32,1.1-1.57l4.94-1.85c.88-.33,1.86.12,2.19,1l1.85,4.94c.25.66.06,1.4-.46,1.86l-6.9,6.15c-1.1.98-2.85.19-2.83-1.29Z"/><g class="cls-9"><path class="cls-6" d="M40.67,166.37c-.74.6-2.25-.33-2.95-.72-2.72-1.62-5.02-3.86-6.86-6.44-.73-1.05-2.65-4.08-.56-4.67,1.24-.21,2.85.85,3.83,1.5,2.33,1.65,4.28,3.79,5.62,6.31.43.85,1.71,3.22.92,4.01h0ZM40.59,166.28c.42-.51.01-1.34-.23-1.87-.64-1.21-1.58-2.23-2.51-3.22-1.4-1.47-2.85-2.91-4.44-4.16-.64-.5-2.25-1.7-3.02-1.47-.37.66.75,2.57,1.15,3.2,1.54,2.41,4.63,5.92,7.16,7.27.54.25,1.36.67,1.89.24h0Z"/></g><path class="cls-15" d="M185.25,114.63c.37.87-.94,2.07-1.51,2.64-2.31,2.16-5.11,3.75-8.09,4.8-1.21.41-4.66,1.41-4.64-.76.14-1.25,1.61-2.5,2.51-3.26,2.24-1.77,4.83-3.05,7.62-3.64.94-.18,3.57-.74,4.11.23h0ZM185.14,114.69c-.37-.55-1.29-.39-1.86-.3-1.34.28-2.58.9-3.79,1.51-1.8.93-3.59,1.93-5.23,3.1-.66.48-2.26,1.69-2.25,2.49.53.54,2.67,0,3.39-.22,2.75-.81,6.97-2.8,8.98-4.85.39-.45,1.02-1.13.76-1.75h0Z"/><path class="cls-24" d="M179.22,113.62l4.57,7.27c.72,1.14.03,2.65-1.31,2.85l-6.86,1.01c-1.34.2-2.43-1.05-2.08-2.35l2.28-8.28c.43-1.57,2.52-1.87,3.39-.5Z"/><g class="cls-14"><path class="cls-15" d="M185.25,114.63c.37.87-.94,2.07-1.51,2.64-2.31,2.16-5.11,3.75-8.09,4.8-1.21.41-4.66,1.41-4.64-.76.14-1.25,1.61-2.5,2.51-3.26,2.24-1.77,4.83-3.05,7.62-3.64.94-.18,3.57-.74,4.11.23h0ZM185.14,114.69c-.37-.55-1.29-.39-1.86-.3-1.34.28-2.58.9-3.79,1.51-1.8.93-3.59,1.93-5.23,3.1-.66.48-2.26,1.69-2.25,2.49.53.54,2.67,0,3.39-.22,2.75-.81,6.97-2.8,8.98-4.85.39-.45,1.02-1.13.76-1.75h0Z"/></g><path class="cls-4" d="M160.63,32.56c-.84.44-2.14-.77-2.75-1.28-2.35-2.12-4.16-4.77-5.46-7.66-.51-1.17-1.8-4.52.37-4.69,1.26.03,2.63,1.39,3.46,2.23,1.95,2.08,3.45,4.56,4.27,7.29.26.92,1.04,3.49.11,4.11h0ZM160.57,32.46c.51-.42.28-1.32.14-1.87-.39-1.31-1.11-2.5-1.83-3.65-1.08-1.71-2.22-3.42-3.53-4.95-.53-.61-1.87-2.11-2.67-2.04-.5.58.23,2.66.5,3.36,1.04,2.67,3.38,6.71,5.58,8.54.48.35,1.21.92,1.81.61h0Z"/><path class="cls-24" d="M151.2,31.84l1.94-9.04c.15-.69.7-1.21,1.39-1.32l5.21-.84c.93-.15,1.8.48,1.95,1.41l.84,5.21c.11.69-.21,1.38-.82,1.74l-7.98,4.67c-1.27.75-2.83-.38-2.52-1.82Z"/><g class="cls-12"><path class="cls-4" d="M160.63,32.56c-.84.44-2.14-.77-2.75-1.28-2.35-2.12-4.16-4.77-5.46-7.66-.51-1.17-1.8-4.52.37-4.69,1.26.03,2.63,1.39,3.46,2.23,1.95,2.08,3.45,4.56,4.27,7.29.26.92,1.04,3.49.11,4.11h0ZM160.57,32.46c.51-.42.28-1.32.14-1.87-.39-1.31-1.11-2.5-1.83-3.65-1.08-1.71-2.22-3.42-3.53-4.95-.53-.61-1.87-2.11-2.67-2.04-.5.58.23,2.66.5,3.36,1.04,2.67,3.38,6.71,5.58,8.54.48.35,1.21.92,1.81.61h0Z"/></g><path class="cls-3" d="M21.48,19c-.2.93-1.96,1.16-2.75,1.3-3.13.45-6.33.15-9.38-.69-1.23-.35-4.63-1.51-3.37-3.28.83-.95,2.75-1.13,3.93-1.24,2.85-.18,5.71.26,8.34,1.37.88.39,3.35,1.43,3.24,2.54h0ZM21.36,18.98c0-.66-.83-1.05-1.35-1.3-1.26-.53-2.63-.74-3.98-.92-2.01-.26-4.05-.47-6.07-.45-.81.02-2.82.09-3.27.76.13.75,2.2,1.52,2.91,1.76,2.72.91,7.32,1.69,10.14,1.15.57-.14,1.48-.34,1.62-1h0Z"/><path class="cls-24" d="M17.11,14.73l-.41,8.58c-.06,1.35-1.49,2.19-2.7,1.59l-6.2-3.09c-1.21-.6-1.4-2.25-.36-3.11l6.61-5.49c1.25-1.04,3.14-.1,3.06,1.53Z"/><g class="cls-11"><path class="cls-3" d="M21.48,19c-.2.93-1.96,1.16-2.75,1.3-3.13.45-6.33.15-9.38-.69-1.23-.35-4.63-1.51-3.37-3.28.83-.95,2.75-1.13,3.93-1.24,2.85-.18,5.71.26,8.34,1.37.88.39,3.35,1.43,3.24,2.54h0ZM21.36,18.98c0-.66-.83-1.05-1.35-1.3-1.26-.53-2.63-.74-3.98-.92-2.01-.26-4.05-.47-6.07-.45-.81.02-2.82.09-3.27.76.13.75,2.2,1.52,2.91,1.76,2.72.91,7.32,1.69,10.14,1.15.57-.14,1.48-.34,1.62-1h0Z"/></g><path class="cls-1" d="M72.21,32.98c-.49.56-1.79.04-2.38-.17-2.32-.9-4.4-2.33-6.17-4.08-.71-.72-2.59-2.81-1.05-3.54.93-.33,2.32.28,3.17.66,2.02.98,3.82,2.38,5.19,4.15.45.6,1.75,2.27,1.24,2.99h0ZM72.13,32.92c.26-.45-.17-1.04-.43-1.42-.66-.85-1.52-1.52-2.37-2.16-1.28-.95-2.6-1.88-3.99-2.64-.56-.3-1.97-1.02-2.54-.74-.2.56.92,1.89,1.32,2.33,1.51,1.67,4.37,3.98,6.51,4.7.45.12,1.15.34,1.5-.06h0Z"/><path class="cls-24" d="M70.92,28.73v1.55c-.01,2.46-2.54,4.09-4.79,3.09l-1.14-.51c-2.24-1-2.72-3.97-.9-5.62l1.15-1.04c2.19-1.99,5.7-.43,5.68,2.53Z"/><g class="cls-13"><path class="cls-1" d="M72.21,32.98c-.49.56-1.79.04-2.38-.17-2.32-.9-4.4-2.33-6.17-4.08-.71-.72-2.59-2.81-1.05-3.54.93-.33,2.32.28,3.17.66,2.02.98,3.82,2.38,5.19,4.15.45.6,1.75,2.27,1.24,2.99h0ZM72.13,32.92c.26-.45-.17-1.04-.43-1.42-.66-.85-1.52-1.52-2.37-2.16-1.28-.95-2.6-1.88-3.99-2.64-.56-.3-1.97-1.02-2.54-.74-.2.56.92,1.89,1.32,2.33,1.51,1.67,4.37,3.98,6.51,4.7.45.12,1.15.34,1.5-.06h0Z"/></g></svg>