<?xml version="1.0" encoding="utf-8"?>
<!-- Generator: Adobe Illustrator 25.3.1, SVG Export Plug-In . SVG Version: 6.00 Build 0)  -->
<svg version="1.1" id="Layer_1" xmlns="http://www.w3.org/2000/svg" xmlns:xlink="http://www.w3.org/1999/xlink" x="0px" y="0px"
	 viewBox="0 0 2000 2000" style="enable-background:new 0 0 2000 2000;" xml:space="preserve">
<style type="text/css">
	.st0{fill:#FFFFFF;}
	.st1{fill:#101111;}
	.st2{clip-path:url(#SVGID_2_);}
	.st3{fill:#DA0000;}
	.st4{fill:#FF6914;}
	.st5{fill:#00E0DD;}
	.st6{fill:#FFAD1D;}
	.st7{fill:#830000;}
</style>
<g id="Favicon">
	<rect id="BG" class="st0" width="2000" height="2000"/>
	<g id="Icon">
		<path class="st1" d="M1657.8,2000h311c5.6,0,10.1-4.5,10.1-10.1c0-0.1,0-0.1,0-0.2c-0.5-23-1.2-41.4-2.2-52.6
			c-6.5-71.2-69.7-148.3-84.2-200.8c-16-57.8-16.7-118.1-16.4-177.6c0.4-57.8-4.6-115-4.9-172.7c-0.2-32.8,12.7-63.6,17.6-95.9
			c5.9-39.2,5.4-79.1,1.1-118.4c-7.6-70.1-31.3-146.7-93-187.8c-42.3-28.1-88.8-27.4-134.3-43.6c-49.1-17.5-93.3-49.3-138.7-74.3
			c-21.5-11.8-216-96.6-238.7-96c75.8-71.5,84.7-148.6,41.4-251.3c-14.1-33.5,2.7-64.9,14.7-84.5c14.4-23.7,20.2-50.8,25.6-78
			c21.9-108.7,8.7-206.8-82.7-266C1159,9.2,971.1,45.7,896.4,178.8c-2.5,4.5-4.9,9.1-7.1,13.8c-12.9,27.7-19.9,57.9-21.7,88.3
			c-0.9,15.4-1.4,31.1,1.5,46.3c2.9,15,8.1,29.5,12.5,44c2.6,8.4,4.2,13.5,5.8,20.4c0.6,2.5,0.6,13.7,0.6,13.7
			c-1.3,177-15.5,199.2-21.1,220.6c-11.6,44.1-30.7,90.1-76.1,95.3c-53.2,6.2-107.3,5.4-160.7,5.9c-64.7,0.6-129,2.9-193.7,6.2
			L384,736c-28,1.4-53.4,4.6-78.2,18.3c-25.3,14-48.1,32.2-67.3,53.8c-31.8,35.6-40.8,86.3-37.8,132.6c1.4,20.6,4.9,40.8,9.6,60.9
			c4.1,17.9,11,34.9,14.1,53.2c17.6,101.8-43.4,196.3-103.1,272.9c-32.4,41.6-78,84.9-93.8,136.6c-1,3.1-1.7,6.2-2.4,9.4
			c-3.2,15.3-4,31-4,46.5c0.1,19.2,1.3,38.4,3.5,57.5c2.3,20.9,5.6,41.6,9.6,62.2c3.9,20.5,8.6,40.8,14.1,60.9
			c4.9,18.1,10.6,35.9,17.2,53.3c5.2,13.6,11.1,27.2,18.9,39.6c2.8,4.6,6,8.8,9.6,12.7c45.5,47.5,128.4-2.6,167.9-34
			c51.1-40.5,102.8-83.1,143.9-134.1c21.6-26.9,39.6-56.8,47.2-90.7c6-27.1,5.5-55.1,7.6-82.7c0.5-6.6,1.1-13.1,1.9-19.7
			c4.3-35.7,50.5-187,67-125.5c15.5,57.6,80.9,189.9,80.9,249.3c0,59.4-64.8,180.2-77.7,264.4c-8.1,52.9-22.7,103.3-36.2,153.8
			c-1.5,5.4,1.7,10.9,7.1,12.4c0.9,0.2,1.8,0.4,2.7,0.3h1045.5c4.6,0,8.7-3.2,9.8-7.7c14.5-55.7-10.9-149.6-5.8-197.7
			c2.9-27.4,40-102.9,40-102.9c1-2.6,3.9-3.9,6.5-2.9c1.5,0.6,2.6,1.8,3,3.3c59.8,202.6,52,199.8,44.6,267.1
			c-1.1,10.2-1.9,20.3-2.2,30.2c-0.2,5.6,4.1,10.3,9.7,10.5C1657.6,1999.9,1657.7,2000,1657.8,2000z"/>
		<g>
			<defs>
				<path id="SVGID_1_" d="M1657.8,2000h311c5.6,0,10.1-4.5,10.1-10.1c0-0.1,0-0.1,0-0.2c-0.5-23-1.2-41.4-2.2-52.6
					c-6.5-71.2-69.7-148.3-84.2-200.8c-16-57.8-16.7-118.1-16.4-177.6c0.4-57.8-4.6-115-4.9-172.7c-0.2-32.8,12.7-63.6,17.6-95.9
					c5.9-39.2,5.4-79.1,1.1-118.4c-7.6-70.1-31.3-146.7-93-187.8c-42.3-28.1-88.8-27.4-134.3-43.6c-49.1-17.5-93.3-49.3-138.7-74.3
					c-21.5-11.8-216-96.6-238.7-96c75.8-71.5,84.7-148.6,41.4-251.3c-14.1-33.5,2.7-64.9,14.7-84.5c14.4-23.7,20.2-50.8,25.6-78
					c21.9-108.7,8.7-206.8-82.7-266C1159,9.2,971.1,45.7,896.4,178.8c-2.5,4.5-4.9,9.1-7.1,13.8c-12.9,27.7-19.9,57.9-21.7,88.3
					c-0.9,15.4-1.4,31.1,1.5,46.3c2.9,15,8.1,29.5,12.5,44c2.6,8.4,4.2,13.5,5.8,20.4c0.6,2.5,0.6,13.7,0.6,13.7
					c-1.3,177-15.5,199.2-21.1,220.6c-11.6,44.1-30.7,90.1-76.1,95.3c-53.2,6.2-107.3,5.4-160.7,5.9c-64.7,0.6-129,2.9-193.7,6.2
					L384,736c-28,1.4-53.4,4.6-78.2,18.3c-25.3,14-48.1,32.2-67.3,53.8c-31.8,35.6-40.8,86.3-37.8,132.6c1.4,20.6,4.9,40.8,9.6,60.9
					c4.1,17.9,11,34.9,14.1,53.2c17.6,101.8-43.4,196.3-103.1,272.9c-32.4,41.6-78,84.9-93.8,136.6c-1,3.1-1.7,6.2-2.4,9.4
					c-3.2,15.3-4,31-4,46.5c0.1,19.2,1.3,38.4,3.5,57.5c2.3,20.9,5.6,41.6,9.6,62.2c3.9,20.5,8.6,40.8,14.1,60.9
					c4.9,18.1,10.6,35.9,17.2,53.3c5.2,13.6,11.1,27.2,18.9,39.6c2.8,4.6,6,8.8,9.6,12.7c45.5,47.5,128.4-2.6,167.9-34
					c51.1-40.5,102.8-83.1,143.9-134.1c21.6-26.9,39.6-56.8,47.2-90.7c6-27.1,5.5-55.1,7.6-82.7c0.5-6.6,1.1-13.1,1.9-19.7
					c4.3-35.7,50.5-187,67-125.5c15.5,57.6,80.9,189.9,80.9,249.3c0,59.4-64.8,180.2-77.7,264.4c-8.1,52.9-22.7,103.3-36.2,153.8
					c-1.5,5.4,1.7,10.9,7.1,12.4c0.9,0.2,1.8,0.4,2.7,0.3h1045.5c4.6,0,8.7-3.2,9.8-7.7c14.5-55.7-10.9-149.6-5.8-197.7
					c2.9-27.4,40-102.9,40-102.9c1-2.6,3.9-3.9,6.5-2.9c1.5,0.6,2.6,1.8,3,3.3c59.8,202.6,52,199.8,44.6,267.1
					c-1.1,10.2-1.9,20.3-2.2,30.2c-0.2,5.6,4.1,10.3,9.7,10.5C1657.6,1999.9,1657.7,2000,1657.8,2000z"/>
			</defs>
			<clipPath id="SVGID_2_">
				<use xlink:href="#SVGID_1_"  style="overflow:visible;"/>
			</clipPath>
			<g class="st2">
				<path id="r" class="st3" d="M5996.1,1816.3l-51.1-8.2c10.1-62.9-7.7-101.8-68-149c-81.4-63.6-157.3-142.7-219.6-228.9
					c-53.9-74.6-105.5-100.8-190.6-96.9c-60.3,2.8-120.9-5.8-179.4-14.1c-41.4-5.9-84.2-11.9-125.6-13.7c-75.2-3.2-141.8-4.1-196,18
					c-109.6,44.6-199.7,31.4-275.4-40.2c-58.7-55.6-106.7-114.1-142.8-173.9c-157.2-260.8-345.5-457.7-575.7-602
					c-65-40.7-132.6-92.3-206.8-157.8c-79.7-70.4-158.6-84.5-241.2-43c-76.9,38.6-154.3,79.9-229.1,119.8
					c-119.2,63.6-242.5,129.3-367.7,186.5c-102.9,47-237.2,100.9-364.4,100.9h-6.2c-250.9,0-438.7,55.6-608.4,180.1
					c-146.3,107.4-309.6,195.6-467.6,281c-26,14.1-52,28.1-77.9,42.2c-85.4,46.6-158.3,67.3-229.5,65.3
					c-79.2-2.3-158.2-33.6-241.5-95.6c-189.6-141.2-403.9-257.8-611.2-370.7c-66.9-36.4-136.1-74.1-203.5-112.1
					C76.4,681,19.9,668.8-30.5,672c-221.4,14-421.1-16.6-610.3-93.8c-79.7-32.5-163.2-61.3-234.9-52.5
					c-213.5,26.2-381-70.7-543-164.4c-99.1-57.3-175-56.6-280.1,2.9c-99.6,56.3-215.9,86.8-311.3,81.5
					c-58-3.2-116.6-11.6-173.4-19.6c-192.9-27.4-375.1-53.3-534.3,110.1c-24.1,24.8-63.3,35.1-89.2,42
					c-263.3,69.5-479.5,203.1-660.8,408.3c-131.9,149.2-270.6,179.3-412.3,89.5c-21.1-13.4-38.7-15.3-41.6-13.2
					c-10.6,7.9-19.9,14-27.4,18.9c-25.5,16.6-30.8,20.1-36.6,64.4l-51.3-6.7c8.5-65,26.3-79.3,59.7-101.1c7.2-4.7,15.4-10,24.6-16.9
					c35.4-26.4,85.7,1.6,100.3,10.9c118.7,75.2,231.8,49,345.9-80.1c188.3-213.1,412.9-351.9,686.4-424.1
					c20.4-5.4,51.2-13.5,65.3-28c177.6-182.3,381.5-153.3,578.7-125.2c55.7,7.9,113.2,16.1,169,19.2c85.9,4.8,191.6-23.2,282.9-74.9
					c120.6-68.2,216.7-69,331.4-2.6c154.6,89.4,314.4,181.9,510.7,157.8c83.4-10.2,174.6,20.8,260.8,55.9
					c181.9,74.1,374.1,103.6,587.5,90.1c59.8-3.8,127.3,11,176.2,38.5c67.1,37.8,136.1,75.4,202.8,111.7
					c208.9,113.7,424.8,231.3,617.4,374.6c162.7,121.2,283.8,98.2,415.4,26.4c26-14.2,52-28.3,78.1-42.3
					c156.4-84.5,318.1-172,461.5-277.2c180.2-132.2,378.8-191,644.1-190.1h1.2c117.2,0,244.8-51.4,342.9-96.2
					c123.8-56.5,246.3-121.9,364.9-185.1c75.1-40.1,152.8-81.5,230.2-120.4c102.1-51.3,202.6-34.3,298.6,50.4
					c72,63.6,137.5,113.6,200,152.8c237.3,148.7,431.1,351.2,592.5,619.1c33.6,55.8,78.7,110.7,134.1,163.1
					c61,57.8,128.9,67,220.3,29.8c69-28.1,154.9-24.4,217.7-21.7c44,1.9,88,8.1,130.6,14.1c58.8,8.3,114.3,16.2,169.8,13.6
					c102.7-4.7,170.7,29.6,234.9,118.3c59.5,82.3,132,157.9,209.6,218.5C5984,1677,6009.3,1734.3,5996.1,1816.3z"/>
				<path id="o" class="st4" d="M8154.2,6568.9l-42-30.2c37.1-51.7,38.6-94.6,5.7-163.7c-44.4-93.2-77-198-94.3-302.9
					c-14.9-90.8-49.4-137.3-127.3-171.8c-55.2-24.5-105.5-59.2-154.2-92.7c-34.4-23.7-70-48.2-106.3-68.3
					c-65.8-36.4-125.1-67-183.3-71.5c-118-9.1-192.8-61.1-228.4-159c-27.7-76-44.5-149.8-50.1-219.4
					c-24.1-303.5-104.7-563.8-246.2-795.7c-40-65.5-77.4-141.9-114.5-233.6c-39.8-98.3-103.9-146.2-195.9-146.2h-0.7
					c-86.1,0.2-173.7,2.6-258.5,4.9c-135.1,3.6-274.7,7.4-412.3,2.7c-113.4-3.9-258.3-15.7-372.3-73.1
					c-226.4-113.8-420.4-148.6-629.2-112.8c-178.8,30.7-364.4,36.8-543.8,42.6c-29.6,1-59.1,2-88.6,3
					c-97.2,3.5-171.7-10.5-234.5-44.1c-69.8-37.4-126.6-100.7-173.4-193.4c-106.6-211-246.2-411.1-381.3-604.6
					c-43.6-62.5-88.7-127.1-132-191.1c-26.1-38.6-71.2-74.8-117.7-94.4c-204.4-86.3-369.3-203-504.2-356.5
					c-56.8-64.6-118.7-127.7-186.8-151.9c-202.7-71.9-309.3-233.4-412.4-389.5c-63.1-95.6-131.3-128.8-251.8-122.5
					c-114.2,5.9-232-18.8-314.9-66.1c-50.4-28.8-99.2-62.4-146.4-95c-160.4-110.7-311.8-215.2-527.3-140.1
					c-32.7,11.4-72.3,3.2-98.5-2.3c-266.7-55.3-519.7-32.4-773.6,70.2c-184.7,74.6-322.2,39.6-408.9-104.1
					c-12.9-21.4-27.8-31-31.3-30.3c-13,2.4-24.1,3.6-32.9,4.6c-30.2,3.5-36.5,4.2-61.5,41.3l-42.9-28.9c36.6-54.3,59-59.2,98.5-63.8
					c8.6-1,18.2-2.1,29.6-4.2c43.5-7.9,75.9,39.7,84.9,54.5c72.6,120.3,185.5,147.4,345.2,82.8c263.7-106.6,526.6-130.4,803.6-73
					c20.6,4.3,51.8,10.8,71,4.1c240.2-83.8,409.8,33.2,573.7,146.4c46.3,31.9,94.1,65,142.6,92.6c74.7,42.6,181.8,64.8,286.6,59.4
					c138.4-7.2,224.7,35,297.7,145.7c98.4,149,200.1,303.2,386.5,369.3c79.2,28.1,147,96.6,208.3,166.5
					c129.6,147.5,288.4,259.7,485.5,343c55.2,23.3,109,66.7,140.5,113.1c43.1,63.7,88.1,128.2,131.6,190.5
					c136.1,195,276.8,396.6,385,610.9c91.5,181.1,210,214.6,359.9,209.2c29.5-1.1,59.1-2.1,88.7-3c177.7-5.8,361.4-11.8,536.8-41.9
					c220.3-37.8,424.2-1.6,661.2,117.5c105,52.8,242.6,63.9,350.8,67.5c136,4.7,274.8,1,409.1-2.7c85.1-2.3,173.1-4.7,259.8-4.9h0.8
					c113.9,0,195.9,60,243.8,178.5c36.1,89.1,72.3,163,110.8,226c145.9,239,228.9,506.8,253.6,818.6c5.2,65,21,134.2,47.1,205.8
					c28.8,79,85.5,117.5,183.8,125.1c74.3,5.7,149.5,47.4,204.4,77.8c38.5,21.3,75.1,46.6,110.6,71c48.9,33.7,95.1,65.5,145.9,88
					c94,41.7,139.6,102.7,157.3,210.8c16.5,100.2,47.6,200.2,89.9,289.1C8205.6,6438.9,8202.7,6501.5,8154.2,6568.9z"/>
				<path id="b" class="st5" d="M-294.7,2802.5c-9.1-64.9,4.3-83.5,30.7-113.3c5.7-6.5,12.2-13.8,19.2-22.9
					c27-34.9,83-21.2,99.6-16.2c134.4,41,236.5-14.4,312.1-169.2c124.9-255.5,304.4-449,548.9-591.4c18.2-10.6,45.7-26.6,55.5-44.4
					c122.7-222.9,326.9-249.2,524.5-274.6c55.8-7.2,113.4-14.6,168-26.4c84-18.2,178.6-73.4,252.8-147.5
					c98.1-97.9,190.5-124.1,318.8-90.7c172.8,45.1,351.5,91.7,534.3,16.3c77.7-32.1,173.9-26.4,266.3-15.4
					c195,23.1,388.1,0.4,590.3-69.4c56.7-19.6,125.7-23.3,180.1-9.8c74.7,18.6,151.2,36.4,225.2,53.7c231.6,54.1,471,110,694.7,197
					c189.1,73.5,299.7,19.2,407.5-85c21.3-20.5,42.6-41.1,64-61.6c128.3-123.1,260.9-250.3,371.2-389.9
					c138.6-175.4,314.5-284.8,570.3-354.6c113.4-30.9,223.2-114.7,306.1-184.2c104.3-87.4,205-183.1,302.5-275.5
					c61.7-58.6,125.6-119.2,189.9-177.3c84.8-76.6,186.2-87,301.3-30.8c86.4,42.2,162.7,72.9,233.5,94.1
					c268.2,80.3,509,223.9,735.9,439.3c47.3,44.9,105.3,85.8,172.6,121.6c74.2,39.5,142.1,30.3,220.3-29.8
					c59.1-45.4,142.9-64.7,204-78.8c42.9-9.9,87-15.6,129.7-21.1c58.9-7.6,114.5-14.8,167.3-32c97.7-31.8,172.5-16.9,257.9,51.6
					c79.3,63.5,169.2,117.1,260.1,154.9c88.1,36.6,127.7,85.2,136.8,167.7l-51.4,5.7c-7-63.3-34.5-96.1-105.2-125.5
					c-95.3-39.6-189.6-95.7-272.6-162.3c-71.8-57.5-128.6-69.1-209.5-42.8c-57.4,18.7-118.1,26.5-176.7,34.1
					c-41.4,5.4-84.3,10.9-124.7,20.2c-73.3,16.9-137.8,33.8-184.1,69.4c-93.9,72.2-184.2,83.4-276.2,34.5
					c-71.4-38-133.2-81.6-183.9-129.7C7751.9,280.8,7518,141.1,7257.7,63.2c-73.5-22-152.4-53.8-241.3-97.2
					c-95.6-46.7-175.4-39.2-243.9,22.7c-63.9,57.7-127.5,118-189,176.4c-98,93-199.4,189.2-304.9,277.6
					c-87,72.9-202.6,160.9-325.7,194.5c-244.5,66.7-412,170.5-543.3,336.7c-112.5,142.4-246.4,270.9-376,395.2
					c-21.3,20.5-42.6,40.9-63.9,61.4c-70,67.6-134.8,107-203.9,123.9c-77,18.8-161.4,9.7-258.3-27.9
					c-220.3-85.7-457.9-141.1-687.7-194.8c-74.2-17.3-150.9-35.2-226-53.9c-45.2-11.3-103-8-150.7,8.5
					c-209.7,72.4-410.4,95.9-613.3,71.9c-85.4-10.1-173.7-15.7-240.4,11.9c-77.6,32-153.6,44.1-228,44.1
					c-116.1,0-228.7-29.4-339.1-58.2c-110.8-28.9-183.8-8-269.2,77.2c-81,80.8-185,141.1-278.4,161.4
					c-56.8,12.3-115.5,19.9-172.4,27.2c-193.3,24.9-375.8,48.4-485.8,248.3c-16.7,30.3-51.6,50.7-74.8,64.2
					c-235.3,137-408.2,323.3-528.5,569.4C144.5,2644.5,52,2715.3-62.4,2715.3c-31.1,0-63.7-5.2-98-15.7c-23.9-7.3-41.4-4.4-43.6-1.6
					c-8.1,10.4-15.5,18.8-21.4,25.5c-20.2,22.8-24.4,27.5-18.2,71.8L-294.7,2802.5z"/>
				<path id="y" class="st6" d="M2752.5,1755.6l-51.2-7.4c9.1-63-9.3-101.7-70.5-147.8c-82.4-62.2-159.6-140.1-223.3-225.3
					c-55.1-73.7-107.2-99.1-192.1-93.8c-60.3,3.7-120.9-3.8-179.6-11.2c-41.5-5.2-84.3-10.5-125.8-11.6
					c-75.2-2-141.8-1.8-195.6,21.2c-108.9,46.4-199.2,34.7-276-35.7c-59.5-54.7-108.5-112.5-145.6-171.7
					c-161.4-258.2-352.9-452-585.4-592.5c-65.7-39.7-134.1-90.2-209.4-154.4c-80.9-69.1-160-81.9-241.8-39.1
					c-76.3,39.9-153,82.4-227.2,123.5C-89.2,475.2-211.4,543-335.7,602.2C-438.1,651-572.1,707.3-699.7,709
					c-253.4,3.4-441.6,62-610.3,190.1c-144.5,109.7-306.4,200.7-462.9,288.6c-25.8,14.5-51.5,29-77.2,43.5
					c-84.6,48-157.3,69.9-228.4,69c-79.2-1-158.7-31-243-91.7c-191.9-138-408.1-251.2-617.2-360.7
					c-67.5-35.3-137.3-71.9-205.3-108.7c-41-22.2-97.7-33.5-148-29.5c-221.2,17.6-421.3-9.8-611.8-83.8
					c-80.2-31.2-164.2-58.6-235.8-48.7c-26.5,3.7-53.2,5.6-79.9,5.6c-176.4,0-323.1-81.7-465.6-161.1
					c-100.1-55.7-175.9-53.7-280,7.4c-98.6,57.9-214.5,90.3-309.9,86.6c-58-2.3-116.8-9.7-173.7-16.8
					c-193.3-24.3-375.9-47.2-532.5,118.8c-23.7,25.2-62.6,36.2-88.5,43.4c-262.1,73.9-476.1,210.9-654.1,419.1
					c-82.1,96-167.8,144.2-256,144.2c-50.8,0-102.4-16-154.8-48c-21.3-13-39-14.7-41.8-12.5c-10.4,8.1-19.7,14.3-27.1,19.3
					c-25.2,17-30.5,20.6-35.6,65l-51.4-5.9c7.4-65.1,25-79.7,58-102c7.1-4.8,15.2-10.3,24.3-17.3c34.9-27,85.7,0.2,100.4,9.2
					c119.9,73.3,232.6,45.2,344.6-85.7c184.9-216.1,407.1-358.5,679.3-435.3c20.3-5.7,50.9-14.4,64.8-29.1
					c174.6-185.1,378.9-159.5,576.6-134.7c55.8,7,113.5,14.2,169.2,16.4c85.9,3.3,191.2-26.4,281.7-79.5
					c119.5-70.2,215.5-72.5,331.4-8c156,86.9,317.4,176.7,513.2,149.4c83.3-11.6,175,18,261.7,51.7
					c183.1,71.1,375.7,97.5,588.9,80.5c59.7-4.7,127.5,8.9,176.8,35.6c67.7,36.7,137.3,73.1,204.6,108.4
					c210.7,110.3,428.5,224.3,623.4,364.5c164.8,118.6,285.4,93.6,415.8,19.7c25.7-14.6,51.5-29.1,77.3-43.6
					c155-87.1,315.3-177.2,457-284.7c178.1-135.2,375.7-197.1,640.9-200.6c117.5-1.6,244.7-55.2,342.4-101.8
					c122.8-58.5,244.3-125.9,361.8-191c74.4-41.3,151.4-83.9,228.2-124.1c101.3-53,202-37.6,299.4,45.6
					c73.1,62.4,139.3,111.3,202.5,149.5c239.7,144.8,436.8,344.1,602.6,609.4c34.6,55.3,80.5,109.4,136.7,160.9
					c61.9,56.8,130,64.9,220.8,26.3c68.5-29.2,154.5-26.9,217.3-25.3c44,1.2,88.2,6.7,130.9,12c58.9,7.4,114.5,14.3,170,10.9
					c102.6-6.4,171.2,26.8,236.8,114.5c60.8,81.3,134.5,155.6,213.1,215C2738.2,1616.5,2764.4,1673.4,2752.5,1755.6z"/>
				<path id="d" class="st7" d="M5825.5,1554.2l-49.3-15.7c19.3-60.7,7.4-101.9-45.4-157.4c-71.1-74.8-134.6-164.3-183.6-258.7
					c-42.3-81.7-89.6-115.2-174.2-123.9c-60.1-6.1-118.7-23.5-175.4-40.3c-40.1-11.9-81.5-24.1-122.2-32
					c-73.9-14.2-139.6-24.9-196.5-11.1c-115,28-202.2,1.7-266.5-80.3c-49.9-63.6-88.8-128.6-115.7-193.1
					c-117.1-281.1-274.4-503.5-480.9-680.1c-58.3-49.8-117.6-110.8-181.4-186.5c-68.5-81.3-144.5-106.9-232.2-78
					c-81.7,26.9-164.3,56.4-244.2,84.8c-127.3,45.4-258.9,92.3-391.1,130.4c-109.1,31.5-250.4,65.1-376.6,46
					c-250.5-38-445.8-10.9-633.1,88c-160.5,84.7-335,148-503.8,209.2c-27.8,10.1-55.6,20.2-83.3,30.3
					c-91.3,33.5-166.5,43.3-236.6,30.8c-78-13.9-151.6-56.5-224.9-130.1C742,19.1,547.1-127.8,358.7-269.9
					c-60.8-45.9-123.7-93.3-184.8-140.7c-36.8-28.6-90.9-49-141.2-53.3c-221.1-18.7-414.1-78.4-589.9-182.5
					c-74-43.8-152.5-84.6-224.7-86.5c-215-5.5-366.4-125.9-512.8-242.4c-89.6-71.3-164.8-81.7-277.4-38.4
					c-106.7,41.1-226.3,54.1-319.9,34.8c-56.9-11.7-113.7-28.6-168.6-44.9c-186.8-55.5-363.2-107.9-544.7,30.3
					c-27.5,21-67.7,25.5-94.4,28.4c-270.7,30.1-504.1,130.4-713.7,306.8c-82.2,69.1-161.2,103.7-236.5,103.8
					c-64.4,0-125.9-25.3-184.5-75.8c-18.9-16.4-36-20.8-39.2-19.1c-11.6,6.3-21.8,10.9-29.9,14.7c-27.7,12.7-33.4,15.3-45.7,58.3
					l-49.8-14.2c18-63,37.7-74.6,73.9-91.2c7.8-3.6,16.7-7.6,26.8-13.1c38.9-21,84.5,14.2,97.6,25.5
					c106.3,91.8,222.1,82.6,353.9-28.3c217.6-183.1,460.1-287.3,741.3-318.6c20.9-2.3,52.6-5.9,68.7-18.1
					c202.4-154.2,399.9-95.5,590.8-38.8c53.9,16,109.6,32.6,164.3,43.8c84.2,17.3,193,5.2,290.9-32.5
					c129.4-49.8,224.4-36.4,328.2,46.2c139.8,111.2,284.3,226.1,481.9,231.2c84,2.1,169.7,46.3,249.7,93.7
					c169,100,354.7,157.4,567.9,175.5c59.7,5.1,124.3,29.6,168.6,64c60.8,47.2,123.5,94.5,184.2,140.3
					C579.8-168.1,776-20,945.4,150.1c143.2,143.8,266.3,138.9,407,87.2c27.8-10.2,55.6-20.3,83.5-30.4
					C1603,146.3,1775.8,83.6,1933.1,0.6c197.7-104.3,402.8-133.1,665-93.3c116.2,17.6,250.5-14.6,354.5-44.6
					c130.7-37.7,261.6-84.4,388.1-129.5c80.2-28.6,163.1-58.1,245.4-85.2c108.6-35.7,205.4-4.2,288,93.8
					c61.9,73.5,119.3,132.6,175.4,180.5c212.8,182,374.7,410.8,495.1,699.5c25.1,60.2,61.6,121.1,108.7,181
					c51.9,66.1,117.7,85.2,213.5,61.9c72.4-17.6,156.8-1.4,218.5,10.5c43.2,8.3,85.9,21,127.1,33.2c56.9,16.9,110.7,32.8,166,38.5
					c102.3,10.5,164.5,54.4,214.9,151.6c46.8,90.2,107.3,175.6,175.2,246.9C5834,1414.6,5850.6,1475.1,5825.5,1554.2z"/>
			</g>
		</g>
	</g>
</g>
</svg>
