<?xml version="1.0" encoding="UTF-8"?><svg id="Footer" xmlns="http://www.w3.org/2000/svg" xmlns:xlink="http://www.w3.org/1999/xlink" viewBox="0 0 1920 500"><defs><style>.cls-1{fill:#ebb158;}.cls-2{fill:none;}.cls-3{fill:#ea6112;}.cls-4{fill:#eca340;}.cls-5{fill:#d90259;}.cls-6{fill:#ebe627;}.cls-7{fill:#f5da7d;}.cls-8{clip-path:url(#clippath-1);}.cls-9{clip-path:url(#clippath-3);}.cls-10{clip-path:url(#clippath-4);}.cls-11{clip-path:url(#clippath-2);}.cls-12{clip-path:url(#clippath-7);}.cls-13{clip-path:url(#clippath-6);}.cls-14{clip-path:url(#clippath-5);}.cls-15{fill:#f7c804;}.cls-16{fill:#f8ab00;}.cls-17{fill:#dc494f;}.cls-18{fill:#d3cb1a;}.cls-19{fill:#ecb357;}.cls-20{fill:#e0001b;}.cls-21{fill:#e21a27;}.cls-22{fill:#19766c;}.cls-23{clip-path:url(#clippath);}.cls-24{fill:#1a525b;}.cls-25{fill:#0c1934;}</style><clipPath id="clippath"><rect class="cls-2" width="1920" height="500"/></clipPath><clipPath id="clippath-1"><path class="cls-2" d="M1087.6,225.86v41.73h22.9v-41.73h-22.9ZM1100.28,259.7l-.24.31c-.36.46-.82,1.05-1.35,1.68l-2.99-1.29c1.38-2.23,2.46-4.72,3.49-7.29,1.67-4.24,3.55-9.28,4.79-14.47.14-.6.33-1.48.49-2.43.09.08.19.15.27.23l4.05,4c-1.44,7.12-4.36,13.76-8.51,19.27Z"/></clipPath><clipPath id="clippath-2"><path class="cls-2" d="M1035.53,229v42.04h22.2v-42.04h-22.2ZM1052.24,256.89c-.28-.84-.56-1.67-.84-2.45-1.38-3.8-3.28-8.77-5.71-13.42l.19-.63,6.66,2.82c1.73,3.85,2.94,7.83,3.58,11.9l-3.89,1.79Z"/></clipPath><clipPath id="clippath-3"><path class="cls-2" d="M988.49,227.39v41.73h22.9v-41.73h-22.9ZM1001.16,261.23l-.24.3c-.36.46-.82,1.05-1.35,1.68l-2.99-1.3c1.38-2.23,2.46-4.72,3.49-7.29,1.68-4.25,3.56-9.29,4.79-14.47.14-.6.33-1.48.49-2.43.09.08.19.15.27.23l4.05,4c-1.44,7.12-4.36,13.76-8.51,19.27Z"/></clipPath><clipPath id="clippath-4"><path class="cls-2" d="M936.41,230.52v42.04h22.2v-42.04h-22.2ZM953.13,258.42c-.26-.77-.53-1.57-.84-2.45-1.38-3.8-3.28-8.77-5.71-13.42l.19-.63,6.66,2.82c1.73,3.85,2.94,7.83,3.58,11.9l-3.89,1.79Z"/></clipPath><clipPath id="clippath-5"><path class="cls-2" d="M889.37,228.92v41.73h22.9v-41.73h-22.9ZM902.05,262.76l-.23.3c-.36.46-.83,1.05-1.35,1.69l-2.99-1.29c1.38-2.23,2.46-4.72,3.49-7.29,1.67-4.24,3.55-9.28,4.79-14.47.14-.6.33-1.48.49-2.43.09.08.19.15.27.23l4.05,4c-1.44,7.12-4.36,13.76-8.51,19.27Z"/></clipPath><clipPath id="clippath-6"><path class="cls-2" d="M837.3,232.05v42.04h22.2v-42.04h-22.2ZM854.02,259.95c-.29-.86-.58-1.7-.84-2.45-1.38-3.8-3.27-8.76-5.71-13.42l.19-.63,6.66,2.82c1.73,3.85,2.94,7.83,3.58,11.9l-3.89,1.79Z"/></clipPath><clipPath id="clippath-7"><path class="cls-2" d="M797.31,235.61v35.03h15.77v-35.03h-15.77ZM808.59,261.77l-2.21,1.02c-.52.24-1.04.4-1.57.53l-.2-.52c.52-1.56.9-3.19,1.26-4.87.74-3.5,1.53-7.65,1.8-11.82.03-.56.05-1.07.05-1.55l1.99.84c.9.38,1.68.88,2.35,1.47-.16,5.26-1.35,10.35-3.47,14.9Z"/></clipPath></defs><g id="Footer-2"><g class="cls-23"><path id="m" class="cls-22" d="M955.23,329.59c4.17-13.12-40.16-34.67-45.5-42.6-4.63-6.83,2.63-25.52-5.02-25.42-4.93.07-15.72,5.1-40.95,33.27-6.3,7.03-17.43,7.25-23.68.17-15.79-17.88,44.44-35.41,41.27-35.68-5.91-.45-15.81-1.28-21.62-.12-13.72,2.67-22.35,4.84-30.64,13.98-4.88,5.41-20,7.42-26.23-1.87-7.92-11.81-9.77-74.7-30.03-88.32-6.43-4.43-12.5-9.37-18.12-14.78-6.95-6.56-13.76-6.1-21.33-2.62-7.02,3.24-14.33,4.77-21.17,8.14-10.9,5.36-22.24,23.2-33.66,27.98-9.42,3.97-21.62-3.9-33.06-4.31-22.77-.81-39.92,3.63-55.63,14.38-13.45,9.22-28.38,16.68-42.83,23.88l-7.11,3.54c-7.82,3.94-1.36,29.79-17.51,33.08-23.08,4.71-17.42-31.37-24.72-37.19-16.62-13.22-29.57-.39-47.91-11.14-5.91-3.48-17.92-31.01-23.88-34.62-13.23-7.91-23.13.99-24.51,1.92-12.63,8.44-26.45-10.49-43.16-12.31-8.66-.94-28.96,27.39-35.42,27.98-19.26,1.73-19.6-43.93-33.88-52.85-8.73-5.45-15.55-5.6-25.17-.57-9.11,4.78-19.65,7.16-28.2,6.41-5.2-.45-15.35,28.83-31.15,25.99-17.25-3.03-17.91-34.15-32.7-19.93-2.25,2.15-11.44,8.41-15.91,9.84-23.36,7.44-36.33,18.39-53.22,36.29-8.23,8.72-45.27,49.29-44.46,40.92,5.52-56.99-147.72-49.78-217.76-52.1-2.27-.08-.03-3.39.73-3.75,12.9-6.02,201.73,11.87,232.87,8.2,25.39-2.98,63.79-34.71,88.61-40.42,1.84-.43,4.64-1.06,5.95-2.33,16.48-15.85,34.72-12.65,52.36-9.55,4.98.87,10.12,1.77,15.12,2.26,7.72.62,17.3-1.56,25.66-5.91,11.04-5.78,19.67-5.56,29.81.74,13.63,8.49,27.71,17.26,45.42,15.67,7.52-.68,15.63,2.38,23.27,5.78,16.12,7.19,33.3,10.4,52.52,9.81,5.5-.13,10.93,1.24,15.71,3.97,5.92,3.59,11.97,7.16,17.9,10.63,18.42,10.82,37.48,22.02,54.36,35.46,14.27,11.34,25.2,9.66,37.24,3.6l7.13-3.58c14.3-7.13,29.08-14.52,42.28-23.56,16.58-11.34,34.62-16.04,58.42-15.19,10.56.37,22.22-3.88,31.18-7.62,11.28-4.71,22.49-10.23,33.32-15.56,6.86-3.38,13.83-4.98,20.9-8.25,9.32-4.31,18.44-4.38,26.82,3.52,5.45,5.24,11.31,10.02,17.53,14.31,20.92,14.06,37.7,32.81,51.42,57.36,3.16,5.51,7.05,10.57,11.56,15.05,5.33,5.4,11.39,6.4,19.7,3.33,6.29-2.32,13.99-1.75,19.62-1.31,3.95.3,7.89.99,11.7,1.65,5.23.91,10.22,1.79,15.21,1.72,9.23-.16,15.26,3.16,20.76,11.32,5.09,7.54,27.02,49.9,33.98,55.76,3.18,3.64-8.13,20.45-4.18,5.56Z"/><path id="m-2" class="cls-22" d="M955.79,329.66c-1.03-13.73,47.08-24.46,54.11-30.93,6.08-5.58,3.34-25.44,10.76-23.58,4.78,1.2,14.12,8.6,32.15,41.83,4.5,8.3,15.29,11.08,23,5.64,19.49-13.74-35.05-44.71-31.92-44.25,5.85.93,15.68,2.41,21.07,4.88,12.73,5.77,20.63,9.87,26.58,20.68,3.5,6.39,17.74,11.84,25.96,4.24,10.43-9.66,26.76-70.43,49.62-79,7.28-2.82,14.32-6.23,21.05-10.2,8.28-4.78,14.8-2.76,21.36,2.38,6.08,4.77,12.84,7.95,18.72,12.81,9.36,7.74,16.28,27.71,26.29,35,8.24,6.03,21.93,1.2,33.17,3.45,22.34,4.48,38.01,12.75,50.8,26.84,10.96,12.08,23.76,22.78,36.15,33.13l6.1,5.09c6.69,5.63-5.56,29.3,9.39,36.23,21.37,9.91,24.2-26.5,32.65-30.47,19.23-9.03,28.86,6.45,49.19.23,6.55-2.02,24.6-26.03,31.24-28.17,14.7-4.64,22.27,6.31,23.4,7.53,10.34,11.13,28.16-4.1,44.84-2.01,8.64,1.09,21.84,33.34,28,35.4,18.33,6.13,29.22-38.22,45.17-43.59,9.75-3.28,16.43-1.85,24.62,5.26,7.76,6.75,17.47,11.51,25.96,12.75,5.16.76,8.27,31.6,24.3,32.49,17.48,1.04,25.32-29.09,36.42-11.84,1.69,2.61,9.19,10.83,13.21,13.25,21.01,12.63,31.1,26.29,43.4,47.61,5.99,10.39,32.66,58.41,33.81,50.08,7.8-56.72,155.23-14.31,223.9-.39,2.23.45.82-3.29.16-3.81-11.16-8.83-199.01-35.06-228.47-45.81-24.01-8.77-54.05-48.5-76.87-59.8-1.69-.84-4.27-2.11-5.25-3.65-12.38-19.23-30.86-20.33-48.73-21.39-5.05-.3-10.26-.61-15.23-1.3-7.65-1.18-16.48-5.51-23.6-11.67-9.4-8.17-17.85-9.96-29.18-6.17-15.22,5.11-30.95,10.4-47.81,4.76-7.16-2.4-15.75-1.3-23.97.24-17.35,3.28-34.8,2.43-53.36-2.58-5.32-1.4-10.93-1.32-16.2.24-6.59,2.13-13.3,4.2-19.87,6.21-20.43,6.27-41.56,12.77-61.08,21.94-16.51,7.73-26.75,3.57-37.07-5.1l-6.11-5.13c-12.27-10.24-24.94-20.84-35.69-32.69-13.51-14.86-29.98-23.6-53.33-28.28-10.36-2.08-20.72-8.91-28.58-14.62-9.89-7.19-19.52-15.15-28.82-22.84-5.9-4.87-12.3-8.04-18.43-12.86-8.07-6.35-16.93-8.52-26.91-2.77-6.51,3.84-13.32,7.14-20.36,9.87-23.6,8.84-44.26,23.22-63.28,43.93-4.35,4.63-9.3,8.66-14.73,11.97-6.43,4.02-12.56,3.59-19.94-1.32-5.58-3.71-13.21-4.93-18.78-5.81-3.91-.62-7.9-.86-11.76-1.09-5.3-.32-10.36-.62-15.2-1.84-8.94-2.28-15.57-.45-22.81,6.21-6.7,6.16-37.81,42.31-45.94,46.4-3.94,2.81,3.18,21.77,2.78,6.38Z"/><path class="cls-21" d="M1106.67,212.93c-.78-24.21,8.4-53.56,37.99-50.4,10.19,1.38,17.12,10.28,22.41,18.22,7.77,12,13.91,24.93,20.05,37.76,5.78,12.36,12.07,26.15,17.63,38.69.94,2.16,3.4,7.6,4.31,9.69,3.8,8.92,12.39,14.28,21.59,16.76,17.47,4.61,36.5,2.93,54.46.81,55.79-7.78,110.02-23.93,164.65-37.94,128.11-32.6,261.01-69.69,394.33-49.78,19.18,3.19,38.25,7.91,56.78,14.6l-8.37,22.39c-16.82-6.51-34.42-11.32-52.37-14.72-91.83-16.56-186.07-2.03-276.91,15.85-92.66,17.81-183.13,47.14-277,59.27-19.29,1.8-38.89,3.11-57.97-2.38-13.14-3.97-23.08-11.7-27.62-25.11-1.69-4.18-6.19-15.35-7.95-19.66-7.14-17.37-14.22-34.86-22.52-51.69-5.62-10.58-13.24-27.28-26.03-29.59-15.11-2.24-26.19,5.85-31.64,19.81-3.41,8.63-4.81,18.08-4.84,27.43,0,0-1,.02-1,.02h0Z"/><path class="cls-5" d="M1139.5,199.14c2.67,4.14,4.31,8.69,5.82,13.32,2.85,9.06,4.58,18.85,5.81,28.28,1.47,8.9,4.92,26.83,16.42,26.49,6.74-.75,11.71-6.33,15.61-11.63,2.67-3.77,4.85-7.92,6.58-12.22,1.83-4.42,2.8-9.17,4.59-13.6,1.76-4.58,3.78-9.01,5.93-13.36,15.69-31.41,55.46-91.62,96.45-82.1,18.23,4.64,29.6,21.35,37.42,37.23.93,1.95,1.95,4.01,3.1,5.83,12.6,18.88,35.68,28.57,56.51,36.15,116.27,39.64,359.67,36.41,480.78,10.31,8.56-2.11,17.1-4.34,24.88-8.16,0,0,9.58,19,9.58,19-9.5,4.58-19.72,7.09-29.81,9.39-66.69,13.3-134.93,15.3-202.62,15.92-57.87-.05-115.82-2.7-173.26-10.1-38.46-5.17-76.82-11.97-113.53-25.26-18.6-7.01-36.98-15.43-51.64-29.54-4.61-4.49-8.8-9.85-11.75-15.74-1.53-3.16-2.96-6.54-4.61-9.62-6.02-11.38-14.46-23.16-27.29-26.81-35.28-9-75.26,48.73-89.6,75.85-3.28,6.26-6.39,12.61-8.51,19.33-2.26,7.09-5.58,13.82-10.06,19.79-7.91,10.9-22.49,19.6-31.33,4.26-6.03-10.75-5.67-23.58-7.83-35.35-1.72-9.26-3.71-18.86-8.46-27.07,0,0,.81-.59.81-.59h0Z"/><path class="cls-6" d="M1164.2,198.69c-3.4,3.16-4.59,8.14-4.99,12.65-1.1,14.61,5.99,27.93,9.2,41.88,2.39,9.71,3.88,20.31,1.47,30.24-1.1,4.69-2.66,8.94-2.97,13.54-.24,3.18.08,6.49.65,9.68.19,1.03.43,2.14.67,3.17.9,3.63,2.94,6.27,6.09,7.91,16.75,7.82,48.08-6.67,64.02-14.4,34.13-17.18,65.67-39.21,96.29-62.06,7.07-5.33,16.64-12.95,24.24-17.27,17.34-10.38,36.16-17.63,55.38-23.29,94.82-25.86,194.42-22.75,291.5-17.16,67.92,4.71,135.53,12.65,202.64,24.07,8.02,1.35,13.97,2.52,21.71,4.03,2.46.5,4.86,1,7.54,1.65,0,0-5.81,23.26-5.81,23.26-3.31-.89-9.94-2.18-13.55-2.94-138.14-25.8-428.46-63.81-550.65,5.17-8.21,4.73-15.52,10.53-23.31,15.87-32.06,22.29-65,43.65-100.58,60.08-19.19,8.45-44.94,19.08-66.16,14.99-13.42-2.96-19.57-12.1-19.69-25.67-.1-2.65,0-5.37.39-8.06.66-5.06,2.78-9.88,4.23-14.5,2.74-8.44,2.07-17.85.52-27.19-2.63-16.48-10.61-33.91-3.91-50.43,1.09-2.31,2.38-4.48,4.51-6.03,0,0,.56.83.56.83h0Z"/><path class="cls-15" d="M1185.94,201.05c5.35,17.73,4.87,36.59,5.08,54.87.25,6.5-.02,13.55,2.77,19.34,5.21,10.53,31.37-12.68,37.06-17.19,24.57-20.58,42.55-46.82,60.19-73.5,10.48-14.95,22.29-34.98,40.63-41.46,8.02-2.79,16.83-1.89,24.56,1.18,10.17,3.27,21.5,4.45,32.2,5.96,109.07,12.06,219.21,14.93,328.88,15.95,63.69-.19,127.62-.31,190.77-8.32,8.8-1.24,17.53-2.74,25.64-4.81l6.14,24.86c-9.74,2.27-19.17,3.65-28.56,4.79-101.31,9.83-203.21,4.72-304.61.41-78.18-4.56-156.53-8.72-234.02-20.87-7.22-1.36-14.26-2.56-21.41-5.23-1.72-.7-3.64-1.47-5.44-1.87-11.93-3.09-21.91,5.85-29.57,14.23-17.9,20.58-32.27,44.44-51,64.78-15.62,17.26-33.41,32.82-53.77,44.29-10.81,5.82-21.59,6.95-23.31-8.53-1.33-13.91.64-27.68.13-41.51-.2-9.12-1.04-18.26-3.31-27.11,0,0,.96-.27.96-.27h0Z"/><path class="cls-4" d="M1217.13,203.27c-4.8-21.14-8.35-42.96-16.3-63.09-1.21-2.53-2.23-5.17-4.2-6.56.05.04.33.05.38.01.05,0-.08.06-.29.26-.2.2-.45.51-.7.87-.12.18-.25.37-.37.58,0,0-.18.3-.18.3-.26.44-.37,1.35-.46,2.39-.13,9.2,2.79,18.47,5.25,27.35,11.94,37.83,32.83,85.78,63.87,111.46,7.19,5.68,15.72,10.41,24.86,11.12,5.79.43,9.37-5.31,13.8-7.78,86.74-43.33,177.35-78.77,270.25-106.53,113.23-33.44,230.64-55.35,349.02-56.07,0,0,.27,23.59.27,23.59-135.55,2.69-269.69,30.23-398.67,71.1-69.28,22.2-137.5,48.14-203.56,78.67,0,0-6.59,3.08-6.59,3.08-2.46,1.15-4.96,2.5-7.74,2.79-5.85.86-11.92-1.91-17.42-2.67-10.43-1.32-19.61-6.76-27.51-13.24-30.42-25.73-55.67-75.64-67.65-113.38-2.48-8.47-8.53-28.47-3.67-36.02,1.72-2.98,5.33-5.87,9.08-4.63,10.69,3.34,14.9,36.7,16.62,47.01,1.37,9.72,2.38,19.46,2.89,29.27,0,0-.99.13-.99.13h0Z"/><path class="cls-3" d="M1239.25,211.35c-8.36-25.51-33.78-106.05-10.76-124.96,7.82-6.45,18.81-3.86,26.86.16,9.71,4.65,17.78,12.07,24.57,20.14,31,38.37,42.77,88.24,69.35,128.79,9.52,14,21.88,27.87,39.6,25.6,2.03-.17,4.44-.49,6.45-.82,24.58-4.24,48.7-11.7,72.73-18.69,93.3-28.16,186.3-58.88,281.09-82.32,57.66-13.97,115.75-26.77,175.39-28.78,0,0,.87,23.56.87,23.56-76.78,5.05-151.99,25.53-226.12,45.49-84.59,23.17-167.88,50.78-252.69,73.76-16.3,4.23-32.85,8.5-49.7,10.86-.99.11-3.03.35-4.02.46-14.64,1.83-29.55-3.03-40.62-12.44-28.9-24.56-42.64-72.74-57.33-106.62-10.43-23.91-22.23-54.34-45.24-68.05-6.5-3.66-13.91-6.33-17.62,1.2-3.78,7.55-4.18,17.6-4.27,26.31,0,9.5.84,19.13,2.02,28.72,2.39,19.25,6,38.43,10.41,57.35,0,0-.96.28-.96.28h0Z"/><path class="cls-1" d="M1269.58,162.26c6.77-14.36,14.61-27.9,22.69-41.65,4.13-6.38,7.91-13.75,14.73-18.1,7.88-4.67,15.72-.16,19.34,7.47,3.04,5.72,3.61,13.03,3.29,18.53-1.16,16.63-8.01,32.01-15.34,46.58-7.14,13.98-14.84,27.74-19.61,42.67-2.37,7.22-3.44,14.94-2.76,22.48.56,4.57,1.06,8.57,3.77,11.03.48.31.97.57,1.51.77,1.76.61,3.86,1.25,5.44,1.5,1.25.19,2.2.14,2.62.11.54,0,.78-.06,1.2-.63,2.06-3.94,1.1-9.29.08-14-1.8-7.01-5.35-14.49-11.02-19.11-2.93-2.17-6.81-2.97-10.42-3.63-5.76-1.03-11.97-1.37-17.48-3.89-17.98-8.09-3.86-37.48,1.96-50.13h0ZM1274.78,164.92c-3.47,6.61-7.19,13.88-9.64,20.91-2.87,7.88-5.72,19.73,3.63,24.19,8.82,4.44,19.79,2.27,28.38,7.57,9.43,6.89,23.39,27.01,19.75,39.25-1.34,4.99-5.91,8.73-11,9.43-4.5.81-8.98-.14-13.07-1.39-5.37-1.64-9.48-6.19-10.83-11.28-1.48-5.38-.74-9.95.14-14.15,1.93-8.12,4.92-15.44,6.95-23.37,4.23-15.2,7.83-30.65,11.09-46.04,2.99-14.51,7.19-29.64,9.91-43.65.69-4.11,1.24-7.12.87-10.42,0,0-.09-.75-.09-.75l-.03-.31c0-.07,0-.14,0-.22.01-.24.14-.27.59-.16.45.13,1.21.12,1.41-.07.23-.17-.03-.32-.46-.28-2.08.38-3.97,1.7-5.86,3.14-2.79,2.2-5.47,4.93-7.9,7.85-9.87,11.82-16.85,26.09-23.86,39.77h0Z"/><g id="Leaves"><path class="cls-24" d="M1347.68,133.6c-1.79-.05-3.16-.69-3.7-2.6-.18-.63-.55-1.22-.89-1.95,2.75.5,4.35,2.12,4.59,4.56Z"/><path class="cls-16" d="M1282.48,80.31c4.06,1.09,6.75,3.14,6.58,7.39-.05,1.4.36,2.82.6,4.51-5.95-2.53-8.42-6.76-7.18-11.9Z"/><path class="cls-19" d="M1473.77,160.68c4.83-1.7,8.95-1.47,11.69,2.91.9,1.44,2.3,2.59,3.69,4.12-7.72,1.54-13.11-1.01-15.38-7.04Z"/><path class="cls-24" d="M1296.41,237.9c1.79.32,3.03,1.11,3.11,2.95.03.61.26,1.2.42,1.92-2.66-.87-3.88-2.61-3.54-4.87Z"/><path class="cls-17" d="M1338.51,168.43c2.56-3.48,5.63-5.35,9.93-3.84,1.42.5,3.02.56,4.84.88-4.72,4.79-9.94,5.77-14.77,2.96Z"/><path class="cls-24" d="M1483.25,240.24c-.54-4.39.44-7.95,4.74-9.87,1.42-.63,2.67-1.72,4.25-2.77-.15,6.89-3.38,11.3-8.99,12.64Z"/><path class="cls-24" d="M1375.52,256.61c-1.49-2.95-1.86-5.5.12-7.32.65-.6,1.09-1.49,1.73-2.4,1.75,4.74,1.06,8.15-1.86,9.72Z"/><path class="cls-24" d="M1199.47,310.62c-1.78-2.78-2.26-5.49.01-8.17.75-.88,1.24-2.02,1.97-3.23,2.12,4.69,1.37,8.7-1.99,11.4Z"/><path class="cls-17" d="M1244.15,114.55c-3.24-.47-5.58-1.85-6.11-5.25-.17-1.12-.7-2.22-1.14-3.54,4.88,1.43,7.4,4.57,7.25,8.79Z"/><path class="cls-18" d="M1408.41,232.37c1.57-4.12,3.99-6.69,8.4-6.06,1.45.21,2.97-.07,4.76-.14-3.27,5.93-7.93,8.05-13.15,6.2Z"/><path class="cls-4" d="M1406.21,140.87c-3.37.09-5.9-.88-6.74-4.18-.28-1.09-.92-2.09-1.48-3.33,5.15.59,8.01,3.28,8.22,7.51Z"/><path class="cls-17" d="M1449.91,139.56c-2.9.44-5.27-.13-6.61-2.92-.44-.92-1.18-1.72-1.91-2.74,4.56-.04,7.54,1.99,8.52,5.66Z"/><path class="cls-7" d="M1381.72,178.85c-3.22-.16-5.64-1.3-6.47-4.59-.27-1.08-.89-2.11-1.45-3.37,4.92.96,7.67,3.8,7.91,7.96Z"/><path class="cls-18" d="M1144.29,178.46c2.39.72,3.93,1.99,3.76,4.5-.06.83.16,1.68.27,2.68-3.47-1.61-4.86-4.16-4.03-7.18Z"/><path class="cls-19" d="M1275.92,306.95c.43-2.65,1.57-4.48,4.27-4.64.89-.05,1.76-.41,2.82-.66-1.23,3.93-3.75,5.77-7.09,5.3Z"/><path class="cls-19" d="M1201.22,110.48c3.4-.27,6.01.58,7.03,3.87.34,1.08,1.04,2.06,1.67,3.28-5.23-.32-8.26-2.89-8.7-7.15Z"/><path class="cls-4" d="M1285.72,169.61c1.71.84,2.73,1.99,2.29,3.86-.15.62-.09,1.29-.13,2.06-2.43-1.64-3.16-3.74-2.16-5.92Z"/><path class="cls-6" d="M1117.62,232.51c-.25-2.5.34-4.51,2.78-5.53.8-.34,1.52-.94,2.43-1.51-.16,3.91-2.03,6.37-5.21,7.04Z"/><path class="cls-3" d="M1263.78,251.09c.24-1.54.92-2.64,2.55-2.88.54-.08,1.07-.32,1.7-.53-.71,2.31-2.23,3.49-4.26,3.4Z"/><path class="cls-17" d="M1184.74,276.31c-.09,1.66-.68,2.91-2.37,3.33-.56.14-1.09.46-1.74.74.5-2.53,1.97-3.95,4.11-4.07Z"/><path class="cls-19" d="M1172.04,236.11c.54-1.57,1.45-2.61,3.2-2.54.58.02,1.17-.14,1.87-.23-1.18,2.3-2.98,3.25-5.08,2.78Z"/><path class="cls-18" d="M1254.98,116.46c-.15,6.09-2.13,10.57-8.17,11.78-1.99.4-3.85,1.46-6.14,2.37,1.54-9.23,6.65-14.15,14.31-14.15Z"/><path class="cls-19" d="M1445.85,264.97c.47,6.07-1.06,10.73-6.94,12.54-1.94.6-3.68,1.84-5.87,2.98.6-9.34,5.19-14.75,12.81-15.52Z"/><path class="cls-4" d="M1146.57,243.47c.77,3.44.29,6.24-2.93,7.76-1.06.5-1.96,1.36-3.12,2.2-.44-5.4,1.75-8.88,6.05-9.96Z"/><path class="cls-24" d="M1099.53,199.71c-3.41.18-6.11-.82-7.44-4.38-.44-1.17-1.23-2.24-1.98-3.57,5.31.52,8.6,3.37,9.42,7.95Z"/><path class="cls-3" d="M1095.63,221.66c-.16-1.83.32-3.31,2.21-4.1.62-.26,1.18-.71,1.89-1.14-.18,2.87-1.65,4.7-4.1,5.24Z"/><path class="cls-17" d="M1174.12,172.38c-3.05-.39-5.27-1.65-5.82-4.83-.18-1.05-.7-2.07-1.13-3.3,4.61,1.27,7.02,4.17,6.95,8.14Z"/><path class="cls-7" d="M1101.02,161.96c5.1.65,8.83,2.76,9.75,8.1.3,1.76,1.17,3.47,1.89,5.54-7.72-2.12-11.76-6.99-11.64-13.64Z"/></g><path class="cls-21" d="M154.07,461.32c57.31-28.08,126.02-71.2,126.5-142.58.17-5.61-.09-11.25.17-16.9.19-2.93.45-6.14,2.09-8.8,1.11-1.92,3.23-3,5.25-3.68,2.8-1.05,5.7-1.79,8.75-1.8,10.21.07,18.15,7.66,25.02,14.22,15.87,16.17,29.44,34.24,43.49,51.92,6.39,7.67,12.7,18.43,21.74,23.02,9.14,4.81,18.75-.67,26.23-6.41,11.45-8.93,21.59-20.09,31.95-30.5,31.67-32.98,67.89-63.25,110.92-80.39,43.23-17.77,91.1-22.31,137.36-17.78,0,0-2.78,23.74-2.78,23.74-74.6-11.14-144.97,5.85-203.67,53.79-17.45,13.72-33.48,29.5-49.99,44.59-24.7,22.51-47.9,38.28-70.9,3.32-15.32-21.02-30.11-42.91-47.49-62.26-8.96-9.46-18.35-18.28-31.97-11.8-3.94,2.68-3.13,10.14-3.4,14.5-.03,3.73-.02,7.5-.14,11.27-.21,55.85-44.3,95.78-88.94,122.32-12.87,7.73-26.19,14.68-39.74,21.09l-.43-.9h0Z"/><path class="cls-21" d="M1108.29,234.1c.65,29.66-5.05,66.32-29.32,86.13-9.34,7.58-21.33,11.05-33.22,11.6-3.97.2-8.01.04-11.98-.75-7.95-1.47-15.26-5.65-21.24-10.99-17.4-16.14-28.21-37.78-39.28-58.3-22.15-43.28-41.52-87.9-61.34-132.25-2.29-5.18-4.83-10.28-7.71-15.11-12.82-21.65-29.28-30.07-54.25-24.93-14.79,2.96-29.11,8.82-43.07,14.74-42.65,18.82-84.68,39.36-128.75,55.18-88.16,32.58-182.05,48.86-275.94,50.5-188.18,3.21-373.37-44.5-548.81-109.1,0,0,8.48-22.35,8.48-22.35C34.14,144.77,216.28,194.61,402,194.16c92.46-.27,184.93-14.94,272.21-45.75,43.95-15.05,86.08-34.91,128.94-53.07,40.34-16.32,81.64-31.39,107.92,15.04,3.01,5.22,5.59,10.6,7.94,16.11,18.94,44.63,37.44,89.5,58.7,133.05,10.51,20.38,20.68,41.79,37.29,57.82,5.5,5.09,12.06,9.03,19.44,10.55,14.61,2.66,31.11-.38,43.05-9.62,18.41-14.45,25.62-38.62,28.57-61.01.96-7.67,1.38-15.42,1.24-23.16,0,0,1-.03,1-.03h0Z"/><path class="cls-5" d="M1045.38,261.21c-4.5-6.86-7.4-14.46-10.12-22.13-3.26-9.57-5.78-19.43-7.78-29.34-.9-4.3-2.02-10.62-2.73-14.93-1.22-8.17-2.55-18.82-4.4-26.82-2.71-11.51-6.26-23.34-14.01-32.42-15.78-18.1-36.61-1.38-47.38,13.49-8.85,11.94-15.18,25.74-19.17,40.04-2.52,8.88-6.01,17.44-9.71,25.81-16.82,37-38.54,71.73-64.27,103.2-71.92,86.82-148.29,103.7-200.06-11.66-33.66-68.12-98.86-115.97-171.07-136.7-154.55-43.64-321.84,2.07-466.35,61.28-59.18,24.78-116.67,53.63-172.6,85.21,0,0-10.36-18.59-10.36-18.59C-12.39,220.29,141.29,155.74,303.93,140.24c112.51-10.27,238.35,7.97,321.17,91.35,17.46,17.55,32.37,37.57,44.31,59.23,3.88,7.07,7.55,14.61,10.91,21.96,6.82,14.26,14.83,28,25.02,39.73,51.51,60.11,116.44,7.13,155.27-38.74,25.8-30.62,47.79-64.69,64.91-100.91,3.75-8.19,7.27-16.45,9.84-25.02,6.67-21.88,18.92-45.24,38.48-58.11,7.07-4.54,16.38-7.08,24.49-3.66,15.38,6.71,20.9,26.51,24.24,41.45,2.4,11.36,3.39,24.54,5.45,35.96,2.07,11.83,4.73,23.78,8.46,35.19,2.58,7.54,5.39,15.24,9.68,21.95,0,0-.8.59-.8.59h0Z"/><path class="cls-6" d="M997.14,263.14c5.77-5.09,8.39-13,9.68-20.41,4.37-27.59-7.95-53.69-14.76-79.82-3.45-13.51-6.27-27.28-6.57-41.34-.09-6.12.34-12.25,1.49-18.28,1.41-7.8,4.12-15.38,5.81-22.94,1.88-8.17,1.97-16.5.86-24.82-.96-6.04-1.8-12.73-4.81-18.02-11.26-19.59-39.18-17.06-58.59-13.46-22.65,4.53-44.28,12.99-65.38,22.51-56.56,26.13-109.18,60.52-160.11,96.38-22.27,15.78-44.35,32.2-66.02,48.84-28.68,22.06-60.89,39.46-94.49,52.45-213.39,79.57-488.04,15.54-699.7-47.55,0,0-22.53-6.72-22.53-6.72,0,0-11.18-3.24-11.18-3.24-3.7-1.05-7.4-2.06-10.89-2.9,0,0,5.62-23.3,5.62-23.3,12.59,3.2,33.06,9.66,45.83,13.54,221.51,68.08,562.37,151.84,767.78,10.92,50.71-37.36,102.12-73.82,156.45-105.85,49.17-28.4,119.72-67.5,177.02-68.25,16.89-.09,36.58,5.56,44.88,21.94,3.68,6.82,4.56,14.19,5.37,21.65.91,9.22.39,18.81-2.03,27.8-1.99,7.7-4.96,14.86-6.61,22.48-1.27,5.5-1.87,11.16-2,16.81-.21,13.45,2.03,26.92,4.88,40.11,2.47,11.51,5.99,22.71,8.85,34.14,3.64,15.38,5.87,31.57,2.76,47.26-1.68,7.72-4.69,15.78-11.04,20.88,0,0-.56-.83-.56-.83h0Z"/><path class="cls-15" d="M954.92,258.37c-8.66-29-9.43-59.62-9.54-89.64-.19-14.87.35-30.07-2.1-44.69-2.07-11.34-6.62-20.22-19.77-16.75-10.59,2.82-19.97,9.04-29.07,15.16-6.12,4.23-12.08,8.74-17.95,13.37-35.46,27.55-65.53,61.17-91.88,97.45-17.8,24.24-33.86,49.54-51.14,74.25-21.56,30.42-51.37,71.14-94.16,62.2-5.88-1.06-11.37-3.25-16.92-5.21-15.65-4.93-32.15-7.47-48.46-9.86-89.15-11.56-179.23-13.7-269.1-15.18-179.63-1.2-360.35,3.84-538.38,28.39,0,0-3.52-25.36-3.52-25.36,120.02-15.37,240.67-20.39,361.42-22.25,135.64-1.27,271.51.75,406.61,14.33,22.59,2.47,45.22,5.33,67.6,9.72,10.35,2.09,21,4.48,31.06,8.21,4.02,1.59,8.24,3.22,12.41,4.08,13.38,3.13,26.65-.17,38.05-7.81,5.81-3.8,11.24-8.5,16.36-13.61,20.64-21.05,37.07-46.6,54.39-70.65,34.56-49.48,73.21-97.22,122.14-133.28,12.2-9.1,24.52-18.05,38.43-24.56,11.1-5.21,26.06-8.6,32.41,5.32,4.73,10.78,4.42,22.74,4.72,34.12.04,7.55-.12,15.08-.24,22.59-.51,29.93-.4,60.29,7.6,89.35,0,0-.96.28-.96.28h0Z"/><path class="cls-4" d="M893.16,254.72c5.67,30.74,11.57,61.56,19.66,91.72,2.02,7.52,4.22,14.98,6.78,22.25,2.57,6.98,5.3,14.36,9.48,20.37,1.01,1.4,2.14,2.69,3.24,3.48.94.65,1.57.96,2.54.75.73-.19,1.86-1.03,2.85-2.25.5-.62.99-1.28,1.44-2.02,2.35-3.35,2.13-7.97,2.07-12.07-.62-11.42-3.28-22.7-6.19-33.83-20.29-76.1-94.41-243.97-181.06-255.18-11.48-1.54-20.96,4.99-30.53,10.1-1.71.92-5.48,2.84-7.06,3.8-20.31,12-35.56,29.76-50.68,48.16-19.67,24.39-38.9,49.77-60.57,72.77-87.2,95.34-212.88,143.11-337.12,167.37-108.56,21.21-219.34,27.63-329.75,27.53-15.74-.04-31.48-.26-47.21-.55,0,0,.38-23.59.38-23.59,202.87.58,456.84-8.38,629.38-124.93,51.73-34.63,91.89-82.11,130.73-130.3,16.06-19.05,33.92-38.81,56.29-51.38,12.2-7.12,20.54-8.08,34.48-6.56,4.22.46,8.3.99,12.36,1.48,16.18,2.05,31.04,9.55,44.07,18.92,62,45.96,112.01,145.41,136.61,217.76,4.96,14.99,9.31,30.22,11.87,46.05.89,6.03,1.63,12.22,1.15,18.42-.2,3.19-1.11,7.12-3.19,9.96-2.11,3.12-4.65,6.14-8.58,7.2-16.88,4.18-26.23-40.25-29.47-52.27-7.1-30.67-11.81-61.75-14.99-93.03,0,0,.99-.13.99-.13h0Z"/><path class="cls-3" d="M849.94,239.41c15.23,48.33,60.02,199.69,22.23,237.37-14.13,14.17-36.32,7.45-51.38-.69-95.73-51.88-125.86-245.5-203.68-320.4-36.34-35.11-78.59-24.95-117.1.69-22.72,14.41-53.09,41.34-74.65,58.35C258.37,356.29,49.75,401.1-164.14,405.54c0,0-.74-23.56-.74-23.56,63.51-2.63,126.85-8.25,189.27-18.87,142.78-23.25,273.33-75.43,385.15-168.13,49.79-37.9,108.46-99.48,177.18-82.62,73.2,19.23,110.78,135.55,138.97,198.51,18.76,43.14,37.07,87.77,66.85,124.48,9.84,11.85,21.14,22.41,34.19,29.85,9.43,5.15,19.59,9.95,29.99,7.98,17.18-4.1,19.94-30.47,21.03-45.34,2.04-47.53-7.54-95.16-17.39-141.54-3.46-15.6-7.2-31.16-11.38-46.59l.96-.29h0Z"/><path class="cls-1" d="M789.59,334.18c-13.12,27.77-27.72,54.61-44.14,80.65-7.95,11.66-20.59,32.85-35.82,34.71-10.93,1.25-18.12-8.4-21.45-17.41-7.43-20.3-2.04-44.24,3.39-64.29,13.66-48.1,39.13-91.65,53.37-139.43,2.73-9.07,4.83-18.28,6.02-27.64,1.36-12.47,2.91-34.43-6.98-43.25-1.58-1.21-3.25-2.13-5.17-2.76-3.96-1.35-8.34-2.51-12.24-2.91-5.64-.53-10.52.27-12.82,5.49-3.53,9.42-.82,20.45,2.18,30.27,3.55,10.51,8.8,20.74,15.95,29.33,2.36,2.78,5.02,5.55,7.94,7.69,2.95,2.05,6.39,3.48,9.96,4.51,14.64,4.28,30.62,3.32,44.81,9.64,33.86,15.02,5.95,71.88-5.01,95.39h0ZM784.36,331.56c9.6-19.49,33.33-64.6,17.63-83.85-9.7-11.34-27.76-11.34-41.56-13.79-7.66-1.22-15.55-2.55-22.22-6.96-18.07-12.8-47.55-59.27-31.35-80.24,9.18-11.25,25.94-8.53,37.87-4.25,7.73,2.71,13.72,9.71,15.94,17.16,6.53,20.36-5.18,50.02-10.12,70.38-8.23,29.47-16.94,58.87-24.95,88.35-7.56,28.6-16.87,57.86-21.2,86.65-1.08,8.81-1.94,17.9,1.12,26.19.12.3.23.66.36.93l.38.81c.52.99,1.03,1.74,1.36,2.13,1.81,2.11,6.26-.51,8.44-1.7,9.06-5.8,16.3-14.39,23-23.03,18.2-24.17,32.02-51.64,45.31-78.78h0Z"/><g id="Leaves-2"><path class="cls-24" d="M640.3,392.5c3.49.07,6.17,1.29,7.26,5.02.36,1.23,1.09,2.38,1.76,3.79-5.37-.92-8.51-4.07-9.01-8.81Z"/><path class="cls-16" d="M768.21,495.34c-7.94-2.05-13.2-6.02-12.94-14.3.09-2.73-.74-5.49-1.23-8.77,11.64,4.83,16.52,13.04,14.18,23.07Z"/><path class="cls-19" d="M394.15,341.71c-9.39,3.38-17.41,3-22.83-5.5-1.79-2.8-4.52-5.01-7.26-7.98,15.02-3.13,25.56,1.77,30.09,13.47Z"/><path class="cls-24" d="M738.59,188.42c-3.5-.59-5.92-2.11-6.11-5.7-.06-1.18-.52-2.34-.86-3.74,5.2,1.66,7.61,5.02,6.97,9.44Z"/><path class="cls-17" d="M657.63,324.47c-4.94,6.82-10.89,10.51-19.29,7.63-2.77-.95-5.9-1.05-9.44-1.63,9.11-9.41,19.27-11.4,28.73-6Z"/><path class="cls-24" d="M374.42,186.81c1.12,8.55-.74,15.5-9.09,19.3-2.75,1.25-5.17,3.39-8.24,5.47.18-13.43,6.4-22.08,17.33-24.77Z"/><path class="cls-24" d="M584.12,153.2c2.94,5.72,3.72,10.69-.12,14.27-1.27,1.18-2.11,2.93-3.34,4.71-3.49-9.2-2.18-15.86,3.47-18.98Z"/><path class="cls-24" d="M926.37,45.17c3.51,5.4,4.49,10.67.1,15.92-1.45,1.73-2.39,3.95-3.79,6.34-4.2-9.1-2.8-16.93,3.69-22.26Z"/><path class="cls-17" d="M842.38,427.99c6.32.86,10.91,3.51,11.99,10.14.36,2.18,1.41,4.31,2.29,6.88-9.54-2.71-14.5-8.78-14.28-17.02Z"/><path class="cls-18" d="M520.4,200.96c-2.99,8.05-7.68,13.1-16.27,11.95-2.83-.38-5.8.19-9.27.35,6.27-11.6,15.34-15.81,25.54-12.3Z"/><path class="cls-4" d="M526.13,379.26c6.57-.23,11.51,1.62,13.2,8.04.56,2.11,1.82,4.05,2.94,6.46-10.04-1.07-15.66-6.26-16.14-14.5Z"/><path class="cls-17" d="M440.98,382.49c5.65-.91,10.28.17,12.93,5.58.88,1.78,2.33,3.33,3.76,5.31-8.9.16-14.73-3.76-16.69-10.89Z"/><path class="cls-7" d="M573.25,304.84c6.27.27,11.01,2.45,12.68,8.85.55,2.11,1.77,4.1,2.87,6.54-9.6-1.79-15.02-7.29-15.55-15.39Z"/><path class="cls-18" d="M1035.99,301.87c-4.66-1.36-7.7-3.81-7.39-8.71.1-1.61-.34-3.26-.57-5.22,6.8,3.08,9.53,8.02,7.96,13.92Z"/><path class="cls-19" d="M777.43,53.53c-.8,5.16-2.98,8.75-8.25,9.11-1.73.12-3.43.82-5.48,1.34,2.33-7.68,7.22-11.3,13.73-10.44Z"/><path class="cls-19" d="M926.1,435.24c-6.62.58-11.72-1.04-13.76-7.43-.67-2.11-2.05-4-3.31-6.37,10.2.55,16.15,5.5,17.07,13.8Z"/><path class="cls-4" d="M760.49,321.34c-3.35-1.6-5.35-3.83-4.51-7.49.27-1.21.15-2.51.21-4.01,4.76,3.16,6.22,7.24,4.3,11.5Z"/><path class="cls-6" d="M1087.11,196.12c.53,4.87-.59,8.79-5.34,10.83-1.56.67-2.95,1.85-4.71,2.98.25-7.62,3.86-12.45,10.04-13.81Z"/><path class="cls-3" d="M801.97,162.2c-.45,3-1.75,5.16-4.93,5.64-1.05.16-2.07.65-3.31,1.05,1.36-4.52,4.29-6.84,8.24-6.69Z"/><path class="cls-17" d="M955.61,111.81c.14-3.23,1.27-5.67,4.57-6.53,1.09-.28,2.11-.91,3.37-1.47-.93,4.95-3.77,7.73-7.94,8Z"/><path class="cls-19" d="M980.99,189.96c-1.03,3.07-2.79,5.1-6.2,5.01-1.12-.03-2.28.29-3.65.48,2.26-4.5,5.76-6.39,9.85-5.49Z"/><path class="cls-18" d="M821.23,424.43c.19-11.87,3.99-20.63,15.73-23.08,3.87-.81,7.48-2.91,11.93-4.72-2.85,18.02-12.74,27.69-27.66,27.79Z"/><path class="cls-19" d="M446.91,138.03c-1-11.83,1.89-20.93,13.33-24.55,3.77-1.19,7.14-3.65,11.39-5.9-1.02,18.22-9.88,28.83-24.72,30.44Z"/><path class="cls-4" d="M1030.52,175.2c-1.56-6.7-.66-12.15,5.59-15.17,2.06-1,3.79-2.69,6.04-4.33.93,10.52-3.26,17.34-11.63,19.5Z"/><path class="cls-24" d="M1122.87,259.76c6.64-.4,11.93,1.5,14.56,8.42.87,2.28,2.43,4.35,3.92,6.93-10.35-.93-16.81-6.43-18.48-15.35Z"/><path class="cls-3" d="M1130.14,216.92c.34,3.57-.57,6.46-4.25,8.02-1.21.51-2.3,1.4-3.66,2.25.3-5.6,3.13-9.19,7.91-10.27Z"/><path class="cls-17" d="M977.94,314.2c5.94.71,10.29,3.12,11.41,9.33.37,2.04,1.39,4.02,2.25,6.42-9-2.4-13.74-8.02-13.66-15.75Z"/><path class="cls-7" d="M1120.57,333.35c-9.96-1.19-17.24-5.23-19.12-15.63-.62-3.43-2.33-6.74-3.78-10.76,15.07,4.02,23.03,13.43,22.9,26.39Z"/></g><g id="Back_categ"><path class="cls-21" d="M1091.26,265.48c-2.15-1.05-1.64-5.52-1.5-7.54.82-7.96,3.52-15.63,7.47-22.59,1.62-2.79,6.54-10.43,10.11-6.26,1.81,2.62,1.09,7.45.63,10.4-1.32,7.1-4.15,13.85-8.49,19.62-1.5,1.91-5.57,7.35-8.22,6.38h0ZM1091.37,265.19c1.62.42,3.1-1.4,4.03-2.52,2.08-2.76,3.43-6,4.72-9.19,1.88-4.77,3.65-9.65,4.83-14.61.46-2,1.51-6.98.16-8.5-1.92-.15-5.09,4.45-6.12,6.05-3.9,6.11-8.65,16.93-9.08,24.17,0,1.49-.07,3.84,1.46,4.6h0Z"/><path class="cls-25" d="M1078.61,245.15l21.34-9.57c1.62-.73,3.52-.38,4.78.86l9.49,9.38c1.69,1.67,1.71,4.39.04,6.08l-9.38,9.49c-1.25,1.26-3.14,1.63-4.77.92l-21.46-9.3c-3.43-1.49-3.46-6.34-.05-7.87Z"/><g class="cls-8"><path class="cls-21" d="M1091.26,265.48c-2.15-1.05-1.64-5.52-1.5-7.54.82-7.96,3.52-15.63,7.47-22.59,1.62-2.79,6.54-10.43,10.11-6.26,1.81,2.62,1.09,7.45.63,10.4-1.32,7.1-4.15,13.85-8.49,19.62-1.5,1.91-5.57,7.35-8.22,6.38h0ZM1091.37,265.19c1.62.42,3.1-1.4,4.03-2.52,2.08-2.76,3.43-6,4.72-9.19,1.88-4.77,3.65-9.65,4.83-14.61.46-2,1.51-6.98.16-8.5-1.92-.15-5.09,4.45-6.12,6.05-3.9,6.11-8.65,16.93-9.08,24.17,0,1.49-.07,3.84,1.46,4.6h0Z"/></g><path class="cls-20" d="M1053.65,268.96c-2.31.63-4.89-3.05-6.12-4.66-4.66-6.51-7.71-14.04-9.37-21.88-.63-3.17-2-12.15,3.44-11.39,3.1.76,5.75,4.86,7.36,7.38,3.71,6.19,6.06,13.13,6.63,20.32.14,2.42.69,9.19-1.94,10.22h0ZM1053.54,268.67c1.5-.76,1.4-3.1,1.35-4.56-.27-3.45-1.4-6.77-2.55-10.01-1.75-4.82-3.65-9.65-6.06-14.15-.98-1.8-3.49-6.23-5.51-6.47-1.54,1.16-.87,6.71-.58,8.59,1.13,7.16,4.73,18.41,9.2,24.12.99,1.12,2.49,2.93,4.14,2.48h0Z"/><path class="cls-25" d="M1058.15,254.18l-19.75,9.07c-3.11,1.43-6.66-.81-6.71-4.23l-.27-17.53c-.05-3.42,3.43-5.76,6.57-4.43l20.02,8.46c3.79,1.6,3.87,6.94.13,8.66Z"/><g class="cls-11"><path class="cls-20" d="M1053.65,268.96c-2.31.63-4.89-3.05-6.12-4.66-4.66-6.51-7.71-14.04-9.37-21.88-.63-3.17-2-12.15,3.44-11.39,3.1.76,5.75,4.86,7.36,7.38,3.71,6.19,6.06,13.13,6.63,20.32.14,2.42.69,9.19-1.94,10.22h0ZM1053.54,268.67c1.5-.76,1.4-3.1,1.35-4.56-.27-3.45-1.4-6.77-2.55-10.01-1.75-4.82-3.65-9.65-6.06-14.15-.98-1.8-3.49-6.23-5.51-6.47-1.54,1.16-.87,6.71-.58,8.59,1.13,7.16,4.73,18.41,9.2,24.12.99,1.12,2.49,2.93,4.14,2.48h0Z"/></g><path class="cls-6" d="M992.14,267.01c-2.15-1.05-1.64-5.52-1.5-7.54.82-7.96,3.52-15.63,7.47-22.59,1.62-2.79,6.54-10.43,10.11-6.26,1.81,2.62,1.09,7.45.63,10.4-1.32,7.1-4.15,13.85-8.49,19.62-1.5,1.91-5.57,7.35-8.22,6.38h0ZM992.25,266.72c1.62.42,3.1-1.4,4.03-2.52,2.08-2.76,3.43-6,4.72-9.19,1.88-4.77,3.65-9.65,4.83-14.61.46-2,1.51-6.98.16-8.5-1.92-.15-5.09,4.45-6.12,6.05-3.9,6.11-8.65,16.93-9.08,24.17,0,1.49-.07,3.84,1.46,4.6h0Z"/><path class="cls-25" d="M979.5,246.67l21.34-9.57c1.62-.73,3.52-.38,4.78.86l9.49,9.38c1.69,1.67,1.71,4.39.04,6.08l-9.38,9.49c-1.25,1.26-3.14,1.63-4.77.92l-21.46-9.3c-3.43-1.49-3.46-6.34-.05-7.87Z"/><g class="cls-9"><path class="cls-6" d="M992.14,267.01c-2.15-1.05-1.64-5.52-1.5-7.54.82-7.96,3.52-15.63,7.47-22.59,1.62-2.79,6.54-10.43,10.11-6.26,1.81,2.62,1.09,7.45.63,10.4-1.32,7.1-4.15,13.85-8.49,19.62-1.5,1.91-5.57,7.35-8.22,6.38h0ZM992.25,266.72c1.62.42,3.1-1.4,4.03-2.52,2.08-2.76,3.43-6,4.72-9.19,1.88-4.77,3.65-9.65,4.83-14.61.46-2,1.51-6.98.16-8.5-1.92-.15-5.09,4.45-6.12,6.05-3.9,6.11-8.65,16.93-9.08,24.17,0,1.49-.07,3.84,1.46,4.6h0Z"/></g><path class="cls-15" d="M954.53,270.49c-2.31.63-4.89-3.05-6.12-4.66-4.66-6.51-7.71-14.04-9.37-21.88-.63-3.17-2-12.15,3.44-11.39,3.1.76,5.75,4.86,7.36,7.38,3.71,6.19,6.06,13.13,6.63,20.32.14,2.42.69,9.19-1.94,10.22h0ZM954.42,270.2c1.5-.76,1.4-3.1,1.35-4.56-.27-3.45-1.4-6.77-2.55-10.01-1.75-4.82-3.65-9.65-6.06-14.15-.98-1.8-3.49-6.23-5.51-6.47-1.54,1.16-.87,6.71-.58,8.59,1.13,7.16,4.73,18.41,9.2,24.12.99,1.12,2.49,2.93,4.14,2.48h0Z"/><path class="cls-25" d="M959.04,255.7l-19.75,9.07c-3.11,1.43-6.66-.81-6.71-4.23l-.27-17.53c-.05-3.42,3.43-5.76,6.57-4.43l20.02,8.46c3.79,1.6,3.87,6.94.13,8.66Z"/><g class="cls-10"><path class="cls-15" d="M954.53,270.49c-2.31.63-4.89-3.05-6.12-4.66-4.66-6.51-7.71-14.04-9.37-21.88-.63-3.17-2-12.15,3.44-11.39,3.1.76,5.75,4.86,7.36,7.38,3.71,6.19,6.06,13.13,6.63,20.32.14,2.42.69,9.19-1.94,10.22h0ZM954.42,270.2c1.5-.76,1.4-3.1,1.35-4.56-.27-3.45-1.4-6.77-2.55-10.01-1.75-4.82-3.65-9.65-6.06-14.15-.98-1.8-3.49-6.23-5.51-6.47-1.54,1.16-.87,6.71-.58,8.59,1.13,7.16,4.73,18.41,9.2,24.12.99,1.12,2.49,2.93,4.14,2.48h0Z"/></g><path class="cls-4" d="M893.03,268.53c-2.15-1.05-1.64-5.52-1.5-7.54.82-7.96,3.52-15.63,7.47-22.59,1.62-2.79,6.54-10.43,10.11-6.26,1.81,2.62,1.09,7.45.63,10.4-1.32,7.1-4.15,13.85-8.49,19.62-1.5,1.91-5.57,7.35-8.22,6.38h0ZM893.14,268.24c1.62.42,3.1-1.4,4.03-2.52,2.08-2.76,3.43-6,4.72-9.19,1.88-4.77,3.65-9.65,4.83-14.61.46-2,1.51-6.98.16-8.5-1.92-.15-5.09,4.45-6.12,6.05-3.9,6.11-8.65,16.93-9.08,24.17,0,1.49-.07,3.84,1.46,4.6h0Z"/><path class="cls-25" d="M880.38,248.2l21.34-9.57c1.62-.73,3.52-.38,4.78.86l9.49,9.38c1.69,1.67,1.71,4.39.04,6.08l-9.38,9.49c-1.25,1.26-3.14,1.63-4.77.92l-21.46-9.3c-3.43-1.49-3.46-6.34-.05-7.87Z"/><g class="cls-14"><path class="cls-4" d="M893.03,268.53c-2.15-1.05-1.64-5.52-1.5-7.54.82-7.96,3.52-15.63,7.47-22.59,1.62-2.79,6.54-10.43,10.11-6.26,1.81,2.62,1.09,7.45.63,10.4-1.32,7.1-4.15,13.85-8.49,19.62-1.5,1.91-5.57,7.35-8.22,6.38h0ZM893.14,268.24c1.62.42,3.1-1.4,4.03-2.52,2.08-2.76,3.43-6,4.72-9.19,1.88-4.77,3.65-9.65,4.83-14.61.46-2,1.51-6.98.16-8.5-1.92-.15-5.09,4.45-6.12,6.05-3.9,6.11-8.65,16.93-9.08,24.17,0,1.49-.07,3.84,1.46,4.6h0Z"/></g><path class="cls-3" d="M855.42,272.02c-2.31.63-4.89-3.05-6.12-4.66-4.66-6.51-7.71-14.04-9.37-21.88-.63-3.17-2-12.15,3.44-11.39,3.1.76,5.75,4.86,7.36,7.38,3.71,6.19,6.06,13.13,6.63,20.32.14,2.42.69,9.19-1.94,10.22h0ZM855.31,271.73c1.5-.76,1.4-3.1,1.35-4.56-.27-3.45-1.4-6.77-2.55-10.01-1.75-4.82-3.65-9.65-6.06-14.15-.98-1.8-3.49-6.23-5.51-6.47-1.54,1.16-.87,6.71-.58,8.59,1.13,7.16,4.73,18.41,9.2,24.12.99,1.12,2.49,2.93,4.14,2.48h0Z"/><path class="cls-25" d="M859.93,257.23l-19.75,9.07c-3.11,1.43-6.66-.81-6.71-4.23l-.27-17.53c-.05-3.42,3.43-5.76,6.57-4.43l20.02,8.46c3.79,1.6,3.87,6.94.13,8.66Z"/><g class="cls-13"><path class="cls-3" d="M855.42,272.02c-2.31.63-4.89-3.05-6.12-4.66-4.66-6.51-7.71-14.04-9.37-21.88-.63-3.17-2-12.15,3.44-11.39,3.1.76,5.75,4.86,7.36,7.38,3.71,6.19,6.06,13.13,6.63,20.32.14,2.42.69,9.19-1.94,10.22h0ZM855.31,271.73c1.5-.76,1.4-3.1,1.35-4.56-.27-3.45-1.4-6.77-2.55-10.01-1.75-4.82-3.65-9.65-6.06-14.15-.98-1.8-3.49-6.23-5.51-6.47-1.54,1.16-.87,6.71-.58,8.59,1.13,7.16,4.73,18.41,9.2,24.12.99,1.12,2.49,2.93,4.14,2.48h0Z"/></g><path class="cls-1" d="M801.55,268.62c-1.81-.53-2-4.06-2.16-5.65-.41-6.28.67-12.58,2.81-18.5.89-2.38,3.7-8.95,7.02-6.18,1.75,1.79,1.83,5.63,1.86,7.98-.09,5.68-1.39,11.29-3.99,16.33-.91,1.68-3.35,6.43-5.53,6.03h0ZM801.6,268.38c1.31.11,2.22-1.49,2.8-2.49,1.25-2.41,1.87-5.1,2.44-7.75.83-3.94,1.56-7.96,1.82-11.97.09-1.61.25-5.61-1-6.61-1.51.14-3.36,4.12-3.95,5.5-2.22,5.25-4.47,14.27-3.85,19.93.2,1.16.45,2.99,1.74,3.38h0Z"/><path class="cls-25" d="M809.94,261.15l-3.57,1.64c-5.65,2.59-12.1-1.47-12.19-7.68l-.05-3.17c-.1-6.21,6.23-10.47,11.95-8.06l3.62,1.53c6.89,2.91,7.04,12.62.24,15.74Z"/><g class="cls-12"><path class="cls-1" d="M801.55,268.62c-1.81-.53-2-4.06-2.16-5.65-.41-6.28.67-12.58,2.81-18.5.89-2.38,3.7-8.95,7.02-6.18,1.75,1.79,1.83,5.63,1.86,7.98-.09,5.68-1.39,11.29-3.99,16.33-.91,1.68-3.35,6.43-5.53,6.03h0ZM801.6,268.38c1.31.11,2.22-1.49,2.8-2.49,1.25-2.41,1.87-5.1,2.44-7.75.83-3.94,1.56-7.96,1.82-11.97.09-1.61.25-5.61-1-6.61-1.51.14-3.36,4.12-3.95,5.5-2.22,5.25-4.47,14.27-3.85,19.93.2,1.16.45,2.99,1.74,3.38h0Z"/></g></g></g></g></svg>