<?xml version="1.0" encoding="UTF-8"?><svg id="Layer_2" xmlns="http://www.w3.org/2000/svg" xmlns:xlink="http://www.w3.org/1999/xlink" viewBox="0 0 1920 500"><defs><style>.cls-1{fill:#eba240;}.cls-1,.cls-2,.cls-3,.cls-4,.cls-5,.cls-6,.cls-7,.cls-8,.cls-9,.cls-10,.cls-11,.cls-12,.cls-13,.cls-14,.cls-15,.cls-16,.cls-17,.cls-18{stroke-width:0px;}.cls-2{fill:#db484f;}.cls-19{clip-path:url(#clippath);}.cls-3{fill:none;}.cls-4{fill:#dc494f;}.cls-5{fill:#7ca08f;}.cls-6{fill:#a2b189;}.cls-7{fill:#ad3b3a;}.cls-8{fill:#7ca190;}.cls-9{fill:#eca849;}.cls-10{fill:#f4d97d;}.cls-11{fill:#f7ebb6;}.cls-12{fill:#a3b28a;}.cls-13{fill:#f9f2d8;}.cls-14{fill:#f4ce80;}.cls-15{fill:#aea87b;}.cls-16{fill:#f5da7d;}.cls-17{fill:#265b57;}.cls-18{fill:#bb3530;}</style><clipPath id="clippath"><rect class="cls-3" width="1920" height="500"/></clipPath></defs><g id="Footer"><g id="Footer-2"><g class="cls-19"><g id="Splashes"><path class="cls-17" d="M766.68,298.37c2.63-2.8,6.94.85,4.59,3.88-10.63,13.73-12.36,32-20.17,47.4-4.01,8.58-10.68,15.27-20.33,17.44,9.22,4.03,18.3,6.26,28.03,4.22-17.09,9.29-33.56-4.34-48.58-11.47-42.03-24.4-57.59,42.9-92.59,4.65-14.57-16.24-43.4-18.49-59.89-3.76,20.38-35.67,52.77-14.51,76.4,3.42,27.16,16.23,34.86-35.99,69.84-13.24,43.01,25.7,49.44-38.39,62.71-52.53Z"/><path class="cls-18" d="M1366.37,255.72c.36-2.93,5.29-1.75,5.26,1.21-.21,19-6.5,49.86-12.27,62.72-4.65,10.36-12.46,16.56-22.85,20.01-7.18,2.38-14.41,4.62-22.1,4.67-.61,0-1.22-.17-1.83-.27.04-2.7.19-5.4.1-8.09-.1-2.78,1.04-4.44,3.48-5.87,14.97-8.82,26.94-12.94,33.88-28.94,2.26-5.22-4.03-12.43,4.39-20.51,5.81-5.58,9.39-4,11.95-24.92Z"/><path class="cls-10" d="M669.63,360.04c13.11-6.19,17.59-22.46,21.87-36.3,5.99-19.36,16.97-35.14,32.67-47.84,3.91-3.16,7.54-6.59,2.45-11.98-1.65-1.75-.86-4.3.75-6.12,1.64-1.85,3.72-2.23,6.09-1.47,2.49.8,3.48,2.58,3.59,5.04.14,3.05-.98,5.71-2.71,8.09-3.67,5.04-7.31,10.11-11.22,14.97-6.43,7.99-8.67,16.75-6.36,26.88,5.6,24.56-6.49,42.66-22.52,58.9-7.57,7.66-15.78,14.79-25.83,19.29-5.39-4.62-23.15-17.95,1.21-29.45Z"/><path class="cls-1" d="M640.04,353.87c2.65-10.39,10.02-1.76,4.07-10.93-.27-.41-.6-.87-.64-1.32-1.16-13.26-10.9-23.94-11.14-37.56-.09-5.03-2.69-9.37-6.57-12.84-2.2-1.96-4.34-4.06-5.55-6.85-.77-1.77-1.2-3.68.79-4.95,1.99-1.27,3.84-.52,5.27,1.09.72.81,1.24,1.84,1.67,2.85,2.72,6.49,5.13,13.08,6.37,20.03,2.36,13.17,7.87,24.94,16.64,34.94,7.66,8.74,8.27,12.87,4.06,23.52-2.62,1.77-12.35-9.76-14.97-7.99Z"/><path class="cls-5" d="M1340.2,311.47c3.71-3.27,4.5-8.11,6.51-12.27,2.02-4.2,4.9-6.76,9.71-6.92,6.29-.21,10.19-3.59,12.46-9.3,1.59-4,3.84-7.62,8.09-9.31,3.38-1.34,6.62-1.12,9.07,1.94,2.35,2.94,1.38,5.65-.54,8.52-5.41,8.1-10.92,14.51-22.32,15.33-8.14.59-14.4,8.1-20.15,14.33-2.71,2.95-5.52,5.84-7.93,9.02-8.14,10.72-20.02,14.12-32.29,16.85.81-1.95,1.13-3.91.05-5.88,16.52-.62,28.03-9.63,37.34-22.32Z"/><path class="cls-9" d="M1068.57,326.65c14.64-1.89,27.74-7.3,39.83-15.57,2.7-1.85,6.19-2.16,7.81,1.82,1.49,3.64-.61,6.07-3.71,7.49-4.34,1.98-29.34,6.42-43.92,6.26Z"/><path class="cls-9" d="M397.26,266.67c-.48,1.59-2.02.69-1.44-.46,5.81-11.41,3.95-24.84,2.14-37.61-.46-3.24.8-6.5,5.09-6.2,3.92.28,5.17,3.24,5.07,6.65-.13,4.23-6.63,23.55-10.86,37.62Z"/><path class="cls-5" d="M853.19,282.16c.28.43.81.05.39-.48-6.67-8.35-11.26-17.55-13.99-27.93-.67-2.56-2.64-4.6-5.75-3.03-2.84,1.44-2.85,4.04-1.7,6.55,1.46,3.2,14.47,14.9,21.04,24.88Z"/><path class="cls-18" d="M652.05,340.05c2.27,2.43-3.03,4.74-5.17,2.76-22.8-21.09-32.36-49.36-66.77-49.67-2.47-.02-4.95-1.65-7.39-2.61-3.64-1.41-6.87-3.61-6.77-7.82.09-3.79,2.18-6.67,6.09-8.21,4.21-1.66,7.72-.42,9.57,2.98,6.07,11.21,15.12,13.19,27.31,12.79,15.5-.5,17.61,6.77,24.19,20.85,4.46,9.55,1.08,9.8,18.95,28.92Z"/><path class="cls-11" d="M658.18,385.09c7.62-4.15,15.23-8.33,22.88-12.45,23.23-12.49,41.72-29.34,53.1-53.83,8.51-18.3,21.15-34.02,35.59-48.13,4.45-4.35,10.77-9.97,15.63-2.36,4.48,7.01-4.1,9.12-8.5,11.66-20.49,11.86-34.2,29.55-42.12,51.24-13.04,35.7-43.63,46.79-76.58,53.87Z"/><path class="cls-5" d="M273.45,297.43c.77,6.48-26.53-18-41.89-23.25-1.24-.42-2.38-1.22-3.49-1.96-3.08-2.04-6.26-4.5-4.98-8.56,1.28-4.09,4.74-6.31,9.19-6.66,4.81-.38,8.74,1.4,12.03,4.75,10.79,11.02,20.5,22.91,29.03,35.76,0,0,.11-.08.11-.08Z"/><path class="cls-6" d="M798.88,384.91c-17.4,8.82-23.75-4.09-35.53.81-6.88,2.86-15.3,13.95-20.64,8.62-1.12-1.12.93-2.87,2.56-3.59,3.9-1.72,7.78-3.52,9.41-7.96.31-.84.9-1.41,1.78-1.54,25.84-3.91,28.43-11.68,39.34-20.05,9.11-7,19.3-11.6,30.88-12.83,3.06-.32,6.1-.89,9.13-1.44,2.85-.52,5.34-1.28,4.66-5.21-.39-2.27.9-3.98,3.21-4.58,2.09-.54,3.67.35,4.74,2.16,1.29,2.17.41,3.9-1.14,5.5-1.72,1.77-3.88,2.82-6.14,3.62-4.03,1.41-8.09,2.75-12.17,3.99-7.36,2.24-12.55,6.77-15.13,14.1-2.79,7.91-7.57,14.65-14.93,18.38Z"/></g><path class="cls-13" d="M1991.83,366.48c-11.29-14.82-23.09-24.25-40.2-29.76-1.27-.41-3.19-1.03-4.05-2.04-10.7-12.71-23.69-11.2-36.25-9.74-3.54.41-7.21.83-10.75.92-5.45.13-12.06-2-17.68-5.69-7.43-4.88-13.51-5.14-20.98-.91-10.04,5.7-20.43,11.59-32.78,9.53-5.25-.88-11.12,1.02-16.67,3.19-11.73,4.61-23.97,6.17-37.44,4.78-3.86-.37-7.75.39-11.26,2.21-4.35,2.4-8.81,4.78-13.16,7.09-13.55,7.22-27.56,14.68-40.17,23.94-10.66,7.81-18.24,6.01-26.36.87-1.6-1-3.21-2.01-4.82-3.03-9.64-6.06-19.62-12.32-28.39-19.76-11.01-9.32-23.43-13.74-40.19-14.27-7.44-.24-15.39-4-21.49-7.25-7.66-4.09-15.23-8.78-22.54-13.32-4.63-2.87-9.43-5.84-14.21-8.64-6.31-3.69-12.72-2.77-19.05,2.75-4.12,3.66-9.28,5.91-13.89,8.82-15.48,9.52-27.53,23.83-38.54,41.57-2.53,3.98-5.54,7.59-8.96,10.72-4.05,3.79-8.35,4.24-14.03,1.53-4.28-2.05-9.73-2-13.71-1.95-2.79.03-5.59.35-8.31.67-3.73.43-7.29.84-10.79.54-6.47-.54-10.89,1.62-15.21,7.47-3.08,4.17-5.85,5.39-10.33,6.34-3.11.66-6.37-.14-8.79-2.19-4.38-3.72-8.56-8.73-10.94-10.78-11.1-14.34-22.77-23.54-39.57-28.95-1.27-.41-3.19-1.03-4.05-2.04-10.7-12.71-23.69-11.2-36.25-9.74-3.54.41-7.21.83-10.75.92-5.45.13-12.06-2-17.68-5.69-7.43-4.88-13.51-5.14-20.98-.91-10.04,5.7-20.43,11.59-32.78,9.53-5.25-.88-11.12,1.02-16.67,3.19-11.73,4.61-23.98,6.17-37.44,4.78-3.86-.37-7.75.39-11.26,2.21-4.35,2.4-8.81,4.78-13.16,7.1-13.55,7.22-27.56,14.68-40.17,23.94-10.66,7.81-18.24,6.01-26.36.87-1.6-1-3.21-2.01-4.82-3.03-9.64-6.06-19.62-12.32-28.39-19.76-11.01-9.32-23.43-13.74-40.19-14.27-7.44-.24-15.39-4-21.49-7.25-7.66-4.09-15.23-8.78-22.54-13.32-4.63-2.87-9.43-5.84-14.21-8.64-6.31-3.69-12.72-2.77-19.05,2.75-4.12,3.66-9.28,5.91-13.89,8.82-15.48,9.52-27.53,23.83-38.54,41.57-2.53,3.98-5.54,7.59-8.96,10.72-4.05,3.79-8.35,4.24-14.03,1.53-4.28-2.05-9.73-2-13.71-1.95-2.79.03-5.59.35-8.31.67-3.73.43-7.29.84-10.79.54-6.47-.54-10.89,1.62-15.21,7.47-3.08,4.17-5.85,5.39-10.33,6.34-3.11.66-6.37-.14-8.79-2.19-5.48-4.65-16.78-5.46-22.7-.44-2.42,2.06-5.68,2.85-8.79,2.19-4.48-.95-7.26-2.17-10.33-6.34-4.32-5.85-8.74-8.01-15.21-7.47-3.5.3-7.06-.12-10.79-.54-2.71-.31-5.52-.64-8.31-.67-3.98-.05-9.43-.1-13.71,1.95-5.68,2.71-9.98,2.26-14.03-1.53-3.42-3.14-6.43-6.74-8.96-10.72-11.01-17.74-23.06-32.05-38.54-41.57-4.61-2.91-9.77-5.16-13.89-8.82-6.33-5.52-12.73-6.44-19.05-2.75-4.79,2.8-9.58,5.77-14.21,8.64-7.31,4.54-14.88,9.23-22.54,13.32-6.1,3.25-14.05,7.01-21.49,7.25-16.76.54-29.18,4.95-40.19,14.27-8.77,7.43-18.75,13.7-28.39,19.76-1.61,1.02-3.22,2.03-4.82,3.03-8.11,5.14-15.7,6.94-26.36-.87-12.61-9.25-26.62-16.72-40.17-23.94-4.35-2.31-8.81-4.69-13.16-7.09-3.51-1.82-7.4-2.58-11.26-2.21-13.47,1.39-25.72-.17-37.44-4.78-5.55-2.17-11.42-4.07-16.67-3.19-12.35,2.07-22.73-3.83-32.78-9.53-7.48-4.23-13.55-3.97-20.98.91-5.62,3.69-12.23,5.82-17.68,5.69-3.54-.09-7.2-.51-10.75-.92-12.56-1.45-25.55-2.96-36.25,9.74-.85,1.02-2.78,1.63-4.05,2.04-16.79,5.41-28.47,14.61-39.57,28.95-2.38,2.05-6.56,7.06-10.94,10.78-2.42,2.06-5.68,2.85-8.79,2.19-4.48-.95-7.26-2.17-10.33-6.34-4.32-5.85-8.74-8.01-15.21-7.47-3.5.3-7.06-.12-10.79-.54-2.71-.31-5.52-.64-8.31-.67-3.98-.05-9.43-.1-13.71,1.95-5.68,2.71-9.98,2.26-14.03-1.53-3.42-3.14-6.43-6.74-8.96-10.72-11.01-17.74-23.06-32.05-38.54-41.57-4.61-2.91-9.77-5.16-13.89-8.82-6.33-5.52-12.73-6.44-19.05-2.75-4.79,2.8-9.58,5.77-14.21,8.64-7.31,4.54-14.88,9.23-22.54,13.32-6.1,3.25-14.05,7.01-21.49,7.25-16.76.54-29.18,4.95-40.19,14.27-8.77,7.43-6.91,10.35,2.04,2.77,10.44-8.84,22.24-13.01,38.28-13.53,7.25-.23,6.43,53.66,13.24,67.27,1.16,2.31,4.07,3.1,6.22,1.66,16.01-10.74,19.23-85.72,26.1-89.98,4.62-2.86,9.39-5.82,14.14-8.6,5.12-2.98,10.15-2.21,15.41,2.37,4.25,3.79,11.79,8.38,16.55,11.38,13.88,8.54,8.69,50.7,16.34,70.61,1.15,2.99,4.33,4.72,7.47,4.08,7.55-1.55,20.1-11.63,22.63-15.09,5.31-7.26,23.31,9.37,35.36,6.37,3.65-.91,8.42-12.49,12.2-12.82,5.37-.45,5.52,1.27,9.15,6.17,4.2,5.68,9.79,8.25,20.79,8.03,3.53.89,12.02-3.46,14.33-8.18,1.88-1,4.33-3.7,5.59-5.57,10.87-14.26,14.57-18.69,30.56-25.42,3.06-1.29,9.17-6.44,10.63-8.17,9.59-11.4,7.57,44.29,19.91,43.44,10.62-.74,20.93-51.22,24.61-51.13,6.05.15,13.29-2.16,19.45-6.2,6.47-4.25,11.27-4.47,17.71-.81,9.78,5.57,15.83,42.85,27.42,46.27,1.59.47,3.3-.09,4.39-1.34,6.25-7.14,12.61-29.93,18.25-29.67,11.84.54,15.87,9.48,20.03,17,9.6,26.11,7.31,35.01,17.51,36.16,17.7,1.99,16.35-19.43,28.2-24.15,5.58-2.23,19.25-1.06,25.93,2.73,3.31,1.88,11.46,9.23,12.21,14.8,1.75,12.94,20.71,13.27,23.33.48,1.14-5.58,5.48-11.14,8.59-13.74,8.82-7.37,19.81-12.44,28.75-20.03,10.44-8.84,22.24-13.01,38.28-13.53,7.25-.23,6.43,53.66,13.24,67.27,1.16,2.31,4.07,3.1,6.22,1.66,16.01-10.74,19.23-85.72,26.1-89.98,4.62-2.86,9.39-5.82,14.14-8.6,5.12-2.98,10.15-2.21,15.41,2.37,4.25,3.78,11.79,8.38,16.55,11.38,13.88,8.54,8.69,50.7,16.34,70.61,1.15,2.99,4.33,4.72,7.47,4.08,7.55-1.55,20.1-11.63,22.63-15.09,5.31-7.26,23.31,9.37,35.36,6.37,3.65-.91,8.42-12.49,12.2-12.82,5.37-.45,5.52,1.27,9.15,6.17,26.19,31.54,65.16,17.3,72.51.44,2.43-5.59,3.78-6.62,9.15-6.17,3.78.32,8.55,11.91,12.2,12.82,12.05,3,30.05-13.64,35.36-6.37,2.53,3.46,15.08,13.55,22.63,15.09,3.14.64,6.32-1.09,7.47-4.08,7.65-19.92,2.46-62.07,16.34-70.61,4.77-3,12.3-7.6,16.55-11.38,5.26-4.58,10.29-5.35,15.41-2.37,4.75,2.78,9.53,5.74,14.14,8.6,6.87,4.26,10.09,79.24,26.1,89.98,2.15,1.44,5.06.65,6.22-1.66,6.81-13.61,5.99-67.51,13.24-67.27,16.03.52,27.84,4.69,38.28,13.53,8.94,7.58,19.93,12.65,28.75,20.03,3.11,2.6,7.45,8.17,8.59,13.74,2.62,12.79,21.58,12.45,23.33-.48.75-5.57,8.9-12.92,12.21-14.8,6.68-3.79,20.35-4.95,25.93-2.73,11.85,4.72,10.5,26.15,28.2,24.15,10.2-1.15,7.9-10.06,17.51-36.16,4.16-7.52,8.19-16.46,20.03-17,5.64-.26,12,22.53,18.25,29.67,1.09,1.25,2.8,1.81,4.39,1.34,11.59-3.42,17.64-40.7,27.42-46.27,6.44-3.66,11.24-3.44,17.71.81,6.16,4.03,13.41,6.34,19.45,6.2,3.68-.09,20.99,51.55,24.61,51.13,12.29-1.42,10.32-54.84,19.91-43.44,1.45,1.72,7.57,6.88,10.63,8.17,16,6.73,19.69,11.15,30.56,25.42,1.26,1.87,3.72,4.57,5.59,5.57,2.3,4.73,10.8,9.07,14.33,8.18,10.99.22,16.59-2.34,20.79-8.03,3.63-4.9,3.78-6.62,9.15-6.17,3.78.32,8.55,11.91,12.2,12.82,12.05,3,30.05-13.64,35.36-6.37,2.53,3.46,15.08,13.55,22.63,15.09,3.14.64,6.32-1.09,7.47-4.08,7.65-19.92,2.46-62.07,16.34-70.61,4.77-3,12.3-7.6,16.55-11.38,5.26-4.58,10.29-5.35,15.41-2.37,4.75,2.78,9.53,5.74,14.14,8.6,6.87,4.26,10.09,79.24,26.1,89.98,2.15,1.44,5.06.65,6.22-1.66,6.81-13.61,5.99-67.51,13.24-67.27,16.03.52,27.84,4.69,38.28,13.53,8.94,7.58,19.93,12.65,28.75,20.03,3.11,2.6,7.45,8.17,8.59,13.74,2.62,12.79,21.58,12.45,23.33-.48.75-5.57,8.9-12.92,12.21-14.8,6.68-3.79,20.35-4.95,25.93-2.73,11.85,4.72,10.5,26.15,28.2,24.15,10.2-1.15,7.9-10.06,17.51-36.16,4.16-7.52,8.19-16.46,20.03-17,5.64-.26,12,22.53,18.25,29.67,1.09,1.25,2.8,1.81,4.39,1.34,11.59-3.42,17.64-40.7,27.42-46.27,6.44-3.66,11.24-3.44,17.71.81,6.16,4.03,13.41,6.34,19.45,6.2,3.68-.09,20.99,51.55,24.61,51.13,12.29-1.42,10.32-54.84,19.91-43.44,1.45,1.72,7.57,6.88,10.63,8.17,16,6.73,19.69,11.15,30.56,25.42,2.16,3.19,7.8,8.84,8.08,4.2-.56-5.28-.98-4.86-2.58-8.34Z"/><g id="LEaves"><path class="cls-17" d="M265.02,160.86c-11.88.69-20.9-2.46-24.22-14.01-1.09-3.8-3.46-7.25-5.6-11.57,18.21,1.51,28.6,10.67,29.82,25.57Z"/><path class="cls-15" d="M211.54,143.4c-11.39.56-20.01-2.54-23.09-13.63-1.01-3.65-3.26-6.98-5.26-11.13,17.44,1.6,27.32,10.47,28.35,24.76Z"/><path class="cls-1" d="M233.99,100.15c-.36,8.72-3.31,15.09-11.98,16.67-2.86.52-5.55,2-8.85,3.25,2.42-13.19,9.86-20.11,20.83-19.92Z"/><path class="cls-1" d="M1637.2,379.15c-.36,8.72-3.31,15.09-11.98,16.67-2.86.52-5.55,2-8.85,3.25,2.42-13.19,9.86-20.11,20.83-19.92Z"/><path class="cls-1" d="M635.52,207.66c-5.3,12.86-13.19,20.78-27.04,18.42-4.56-.78-9.4-.03-15.03.03,10.83-18.42,25.75-24.73,42.06-18.45Z"/><path class="cls-11" d="M1003.89,427.36c12.59-.76,22.52,2.62,27.17,15.07,1.53,4.1,4.39,7.82,7.08,12.47-19.56-1.6-31.51-11.46-34.25-27.54Z"/><path class="cls-14" d="M1518.53,232.23c-16.76-9.09-26.8-21.36-22.81-41.06,1.31-6.49.62-13.54.89-21.67,23.82,17.69,31.27,39.92,21.93,62.73Z"/><path class="cls-2" d="M486.85,254.65c3.28,15.87.28,29.14-16.35,37.41-5.48,2.72-10.19,7.06-16.24,11.37-1.19-25.18,10.54-42.26,32.58-48.77Z"/><path class="cls-2" d="M1465.06,246.05c17.57-7.41,33.42-7.58,46.31,7.84,4.25,5.08,10.19,8.94,16.37,14.23-28.69,7.55-50.7-.52-62.68-22.06Z"/><path class="cls-5" d="M180.57,99.3c-8.66,13.45-19.55,21.07-35.78,16.5-5.34-1.51-11.29-1.37-18.07-2.1,16.29-18.81,35.35-23.65,53.85-14.4Z"/><path class="cls-4" d="M1079.71,190.44c-12-4.77-19.44-12.01-17.4-24.89.67-4.24-.08-8.72-.2-13.95,17.23,9.84,23.24,23.62,17.6,38.84Z"/><path class="cls-1" d="M1123.17,156.39c-4.46,8.82-10.49,14-20.18,11.56-3.19-.8-6.66-.54-10.65-.81,8.69-12.46,19.61-16.1,30.83-10.76Z"/><path class="cls-5" d="M1068.5,130.43c-15.24,9.8-30.05,12.54-44.63.21-4.8-4.06-11-6.71-17.64-10.65,25.63-11.74,47.55-7.78,62.27,10.45Z"/><path class="cls-11" d="M110.18,89.85c3.15,9.94,2.44,18.58-6.6,24.83-2.98,2.06-5.38,5.1-8.57,8.2-2.66-16,2.84-27.58,15.18-33.02Z"/><path class="cls-5" d="M1910.85,281c-8.66,13.45-19.55,21.07-35.78,16.5-5.34-1.51-11.29-1.37-18.07-2.1,16.29-18.81,35.35-23.65,53.85-14.4Z"/><path class="cls-11" d="M1840.45,271.56c3.15,9.94,2.44,18.58-6.6,24.83-2.98,2.06-5.38,5.1-8.57,8.2-2.66-16,2.84-27.58,15.18-33.02Z"/><path class="cls-11" d="M631.03,142.1c2.28,10.67.67,19.59-9.37,25.18-3.31,1.84-6.12,4.77-9.75,7.67-1.16-16.93,5.73-28.43,19.12-32.85Z"/><path class="cls-6" d="M1076.9,443.99c-9.18,4.01-17.3,4.16-23.54-3.97-2.05-2.68-5.01-4.7-8.04-7.48,14.88-4.12,25.96.06,31.58,11.45Z"/><path class="cls-17" d="M1047.92,404.85c-2.8,7.29-7.25,12.01-15.46,11.43-2.7-.19-5.53.47-8.84.79,5.92-10.6,14.54-14.81,24.3-12.22Z"/><path class="cls-8" d="M121.45,419.76c2.94-9.35,8.05-15.45,18.06-14.83,3.3.2,6.69-.67,10.69-1.13-6.52,13.64-16.73,19.13-28.75,15.96Z"/><path class="cls-16" d="M168.97,423.52c-3.58-6.75-4.21-13.07,1.49-18.76,1.88-1.87,3.21-4.38,5.1-7.03,4.03,11.18,1.59,20.25-6.59,25.79Z"/><path class="cls-5" d="M1443.68,166.31c21.69,5.31,36.31,16.03,36.37,38.88.02,7.53,2.51,15.11,4.14,24.15-31.96-12.82-45.95-35.24-40.51-63.03Z"/></g><g id="Drops"><path class="cls-11" d="M1069.58,233.26c-3.36-.31-5.54-2.47-5.59-6.43-.04-3.55,4.7-7.86,8.35-7.58,4.04.31,5.14,3.2,5.15,6.67,0,4.53-3.01,7.5-7.9,7.34Z"/><path class="cls-10" d="M297.02,206.63c3,3.11,3.7,6.52.88,10-2.54,3.13-5.76,3.26-8.88.86-2.91-2.24-3.63-8.92-1.17-11.21,3.05-2.85,6.16-1.58,9.16.36Z"/><path class="cls-8" d="M914.67,275.72c-.81.37-1.63-.5-1.2-1.28,2.33-4.26,3.47-9.02,5.9-13.13,1.33-2.25,2.97-5.58,6.36-3.35,3.45,2.28,3.2,5.96.79,8.81-3.23,3.81-7.19,6.8-11.84,8.95Z"/><path class="cls-17" d="M1269.03,265.09c-1.4-.31-1.56-2.22-.26-2.81,6.91-3.11,12.83-7.94,19.74-10.75,3.8-1.55,9.01-4.15,11.12,1.85,2.15,6.13-1.66,10.49-7.38,11.75-7.63,1.69-15.38,1.66-23.22-.05Z"/><path class="cls-2" d="M27.72,249.47c.05,4.18-3.16,7.65-7.2,7.62-4.15-.03-5.29-3-5.54-6.34-.29-3.82,3.62-7.78,7.25-7.69,3.3.08,5.44,2.58,5.49,6.41Z"/><path class="cls-7" d="M209.86,202.28c-6.19.77-11.87-3.43-12.49-9.42-.63-6.15,3.59-8.34,8.49-9.26,5.62-1.06,12.13,4.09,12.59,9.49.42,4.91-2.94,8.5-8.6,9.2Z"/><path class="cls-1" d="M478.53,160.21c1.51,1.68,2.59,3.72,1.01,5.88-1.18,1.62-3.1,1.34-4.44.08-1.78-1.66-2.41-4-1.09-6.07,1.11-1.74,2.92-1.08,4.51.1Z"/><path class="cls-10" d="M125.98,271.76c-.26,1.82-.58,3.82-2.93,3.94-2.23.12-3.39-1.43-3.28-3.53.1-1.96,1.15-3.69,3.31-3.77,1.98-.08,2.78,1.44,2.9,3.36Z"/><path class="cls-10" d="M994.11,264.34c-2.4-.39-3.31-1.56-3.09-3.53.29-2.57,1.96-4.03,4.32-4.25,2.14-.2,2.78,1.53,2.57,3.37-.28,2.47-1.88,3.82-3.8,4.41Z"/><path class="cls-18" d="M436.64,147.47c-1.69,1.87-3.39,1.95-5.11.7-1.45-1.05-2.6-2.71-1.32-4.21,1.38-1.62,3.69-1.84,5.58-.7,1.72,1.04,1.38,2.79.85,4.22Z"/><path class="cls-17" d="M486.05,223.02c-2.84,1.92-4.64.35-6.34-1.56-1.84-2.06-2.49-4.34-.27-6.41,1.84-1.72,3.99-1.12,5.49.57,1.92,2.16,2.94,4.69,1.12,7.39Z"/><path class="cls-12" d="M718.37,226.62c-1.63.82-2.99-.35-4.33-1.7-1.45-1.46-2.14-2.92-.95-3.9.99-.82,2.47-.2,3.65,1,1.51,1.54,2.48,3.18,1.62,4.6Z"/><path class="cls-8" d="M348.38,303.93c-3.56,2.4-5.81.44-7.94-1.95-2.3-2.58-3.11-5.43-.34-8.02,2.3-2.15,5-1.4,6.87.72,2.4,2.71,3.68,5.86,1.41,9.25Z"/><path class="cls-5" d="M553.67,298.97c-1.51,1.02-2.47.19-3.38-.83-.98-1.1-1.32-2.31-.15-3.41.98-.91,2.12-.6,2.92.3,1.02,1.15,1.56,2.49.6,3.94Z"/><path class="cls-1" d="M799.5,143.87c1.93,2.15,3.31,4.76,1.3,7.54-1.51,2.08-3.97,1.71-5.69.1-2.28-2.13-3.08-5.12-1.39-7.77,1.42-2.23,3.74-1.39,5.78.13Z"/><path class="cls-17" d="M822.61,191.65c-1.94,1.31-3.16.24-4.32-1.06-1.25-1.41-1.69-2.96-.19-4.37,1.25-1.17,2.72-.76,3.74.39,1.31,1.47,2,3.19.77,5.04Z"/><path class="cls-18" d="M708.37,239.88c-1.11,3.7-3.8,3.61-6.64,3.16-3.07-.49-5.26-2.01-4.8-5.39.38-2.81,2.68-3.82,5.2-3.41,3.21.52,5.9,1.99,6.25,5.65Z"/><path class="cls-1" d="M404.04,333.52c-.87,2.89-2.97,2.82-5.18,2.46-2.4-.38-4.1-1.57-3.75-4.21.29-2.19,2.1-2.98,4.06-2.66,2.51.41,4.6,1.56,4.88,4.41Z"/><path class="cls-5" d="M754.06,333.4c-1.94,1.31-3.16.24-4.32-1.06-1.25-1.41-1.69-2.96-.19-4.37,1.25-1.17,2.72-.76,3.74.39,1.31,1.47,2,3.19.77,5.04Z"/><path class="cls-18" d="M1008.22,297.8c.35,1.86-1.53,3.37-3.16,3.65-1.42.25-1.93-.91-1.88-2.08.07-1.55.69-2.95,2.43-3.17,1.4-.18,2.45.79,2.6,1.61Z"/><path class="cls-18" d="M1149.5,232.77c.35,1.86-1.04,3.19-2.67,3.47-1.42.25-1.93-.91-1.88-2.08.07-1.55.69-2.95,2.43-3.17,1.4-.18,1.96.97,2.11,1.79Z"/><path class="cls-17" d="M111.64,179.09c-12.99,2.94-13.03-2.96-11.81-7.4,1.22-4.45,9.61-7.5,13.15-4.55,5.83,4.85,13.42,8.61,12.2,13.06-1.22,4.45-4.8-3.09-13.54-1.11Z"/><path class="cls-10" d="M1607.12,268.35c-3-3.11-3.7-6.52-.88-10,2.54-3.13,5.76-3.26,8.88-.86,2.91,2.24,3.63,8.92,1.17,11.21-3.05,2.85-6.16,1.58-9.16-.36Z"/><path class="cls-2" d="M1876.42,225.51c-.05-4.18,3.16-7.65,7.2-7.62,4.15.03,5.29,3,5.54,6.34.29,3.82-3.62,7.78-7.25,7.69-3.3-.08-5.44-2.58-5.49-6.41Z"/><path class="cls-7" d="M1694.28,272.7c6.19-.77,11.87,3.43,12.49,9.42.63,6.15-3.59,8.34-8.49,9.26-5.62,1.06-12.13-4.09-12.59-9.49-.42-4.91,2.94-8.5,8.6-9.2Z"/><path class="cls-1" d="M1425.61,314.77c-1.51-1.68-2.59-3.72-1.01-5.88,1.18-1.62,3.1-1.34,4.44-.08,1.78,1.66,2.41,4,1.09,6.07-1.11,1.74-2.92,1.08-4.51-.1Z"/><path class="cls-10" d="M1778.16,203.22c.26-1.82.58-3.82,2.93-3.94,2.23-.12,3.39,1.43,3.28,3.53-.1,1.96-1.15,3.69-3.31,3.77-1.98.08-2.78-1.44-2.9-3.36Z"/><path class="cls-18" d="M1467.5,327.52c1.69-1.87,3.39-1.95,5.11-.7,1.45,1.05,2.6,2.71,1.32,4.21-1.38,1.62-3.69,1.84-5.58.7-1.72-1.04-1.38-2.79-.85-4.22Z"/><path class="cls-17" d="M1418.09,251.97c2.84-1.92,4.64-.35,6.34,1.56,1.84,2.06,2.49,4.34.27,6.41-1.84,1.72-3.99,1.12-5.49-.57-1.92-2.16-2.94-4.69-1.12-7.39Z"/><path class="cls-8" d="M1555.75,171.05c3.56-2.4,5.81-.44,7.94,1.95,2.3,2.58,3.11,5.43.34,8.02-2.3,2.15-5,1.4-6.87-.72-2.4-2.71-3.68-5.86-1.41-9.25Z"/><path class="cls-5" d="M1350.47,176.01c1.51-1.02,2.47-.19,3.38.83.98,1.1,1.32,2.31.15,3.41-.98.91-2.12.6-2.92-.3-1.02-1.15-1.56-2.49-.6-3.94Z"/><path class="cls-1" d="M1500.09,141.47c.87-2.89,2.97-2.82,5.18-2.46,2.4.38,4.1,1.57,3.75,4.21-.29,2.19-2.1,2.98-4.06,2.66-2.51-.41-4.6-1.56-4.88-4.41Z"/><path class="cls-17" d="M1792.5,295.89c12.99-2.94,13.03,2.96,11.81,7.4-1.22,4.45-9.61,7.5-13.15,4.55-5.83-4.85-13.42-8.61-12.2-13.06,1.22-4.45,4.8,3.09,13.54,1.11Z"/></g></g></g></g></svg>