<svg xmlns="http://www.w3.org/2000/svg" viewBox="0 0 234.7 141.42"><defs><style>.cls-1{fill:#ff6914;}.cls-2{fill:#830000;}.cls-3{fill:#da0000;}.cls-4{fill:#00e0dd;}.cls-5{fill:#ffad1d;}</style></defs><g id="Layer_2" data-name="Layer 2"><g id="Section_6_-_Editii" data-name="Section 6 - Editii"><g id="Testimonial"><g id="Quotes"><path class="cls-1" d="M25.73,19.41,18,49.63H2.24L15.58,19.41Zm22.86,0L40.85,49.63H25.1L38.43,19.41Z"/><path class="cls-2" d="M109.5,102.29,103,127.46H89.93L101,102.29Zm19,0-6.45,25.17H109l11.1-25.17Z"/><path class="cls-3" d="M203.93,52.69,193.5,93.37H172.31l17.95-40.68Zm30.77,0L224.27,93.37H203.08L221,52.69Z"/><path class="cls-4" d="M37.35,93.37,25,141.42H0l21.2-48Zm36.34,0-12.31,48h-25l21.2-48Z"/><path class="cls-5" d="M114.56,0,96.86,69h-36L91.35,0Zm52.21,0L149.08,69h-36L143.57,0Z"/></g></g></g></g></svg>