<?xml version="1.0" encoding="UTF-8"?><svg xmlns="http://www.w3.org/2000/svg" xmlns:xlink="http://www.w3.org/1999/xlink" viewBox="0 0 1920 311.84"><defs><style>.cls-1{fill:#1f8770;}.cls-2{clip-path:url(#clippath-1);}.cls-3{fill:#d3cb1a;}.cls-4{fill:#198c82;}.cls-5{clip-path:url(#clippath);}.cls-6{fill:#0c1934;}</style><clipPath id="clippath"><path class="cls-6" d="M165.74-174.43h.04s.07.02.11.03c-.05,0-.1-.02-.15-.03M179.38-161.62c-1.53-.5-1.25-3.78-1.11-5.35.16-1.82.57-4.45,1.64-6.67,1.14-2.37,1.92-2.42,2.14-2.37.36.07.55.97.58,2.66,0,.15,0,.29,0,.41v.07c.05,1.38.1,2.8.21,4.21.02.33.05.65.08.98.04.39.09.78.13,1.16.16,1.27.31,2.47.04,3.64-.12.53-.4.91-.85,1.16-.42.23-.94.33-1.46.33s-1-.09-1.41-.22M157.34-184.45l6.28-1.99c-1.32,2.34-2.16,4.81-2.68,6.7-.15.54-.33,1.2-.49,1.93l-57.32,12.94,52.49-19.59c.28.09.57.14.87.14.28,0,.56-.04.84-.13M164.37-180.38c.5-1.76,1.41-4.26,2.89-6.23.48-.64.89-1.08,1.23-1.38l1.44-.45c.23.29.21,1.18-.05,2.64-.03.15-.05.28-.07.4v.06c-.23,1.37-.45,2.78-.62,4.18-.03.27-.06.54-.09.82l-3.14.89c-.43.12-.82.35-1.12.65l-.92.21c.14-.68.33-1.31.46-1.79M171.2-196.69l-15.84,7.03c-.55.24-.99.65-1.28,1.14l-76.62,29.45-48.18,10.87c-.31-.2-.55-.5-.67-.86-.44-1.3-2.17-1.52-2.93-.39-.3.45-.81.72-1.35.73-1.1.01-1.8,1.03-1.6,1.99l-5.21,1.18c-.77.17-1.25.93-1.09,1.7.17.77.93,1.27,1.7,1.1l5.12-1.1c.12,1,1.16,1.74,2.21,1.35.51-.19,1.08-.11,1.52.2,1.12.79,2.65-.04,2.6-1.41-.02-.54.23-1.06.66-1.39.13-.1.24-.21.33-.33l25.68-5.51-33.41,12.84c-.13-.16-.24-.34-.31-.54-.44-1.3-2.17-1.52-2.93-.39-.3.45-.81.72-1.35.73-1.3.02-2.04,1.43-1.39,2.5l-4.66,1.79c-.73.28-1.1,1.1-.83,1.84.28.74,1.1,1.12,1.84.84l4.15-1.55c.36.69,1.2,1.11,2.04.8.51-.19,1.08-.11,1.52.2,1.12.79,2.65-.04,2.6-1.41-.02-.54.23-1.06.66-1.39.35-.26.55-.61.63-.99l53.82-20.09,81.45-17.48c.22,1.4.84,2.64,2.21,3.38,1.07.58,2.62,1.12,4.16,1.16.67.02,1.34-.06,1.97-.27,1.15-.38,2.02-1.17,2.53-2.28.57-1.25.78-2.55.88-3.84l5.9-.93c-.08.14-.16.29-.24.45-1.7,3.3-2.3,7.19-2.5,9.87-.2,2.67-.61,8.22,3.27,9.45.31.1.66.19,1.03.26,1.6.31,3.61.3,5.15-.57,1.06-.6,1.76-1.54,2.04-2.72.47-1.96.16-3.88-.13-5.74-.08-.51-.16-1.04-.23-1.54-.05-.43-.1-.87-.15-1.32-.19-1.9-.31-3.86-.42-5.75v-.09c-.01-.16-.02-.34-.03-.53-.03-.81-.08-1.92-.34-2.95l.3-.05c.14-.02.3-.06.44-.1,1.65-.47,2.72-1.97,2.73-3.6v-.03c0-.33-.05-.67-.14-1.01-.57-2-2.64-3.15-4.64-2.59l-11.62,3.3c.16-1.43.35-2.86.54-4.26v-.06c.03-.16.06-.33.09-.53.14-.89.34-2.18.2-3.35l.73-.23c.13-.04.26-.09.39-.15,1.9-.84,2.75-3.06,1.91-4.96-.62-1.4-2-2.23-3.43-2.23-.51,0-1.03.1-1.52.32"/></clipPath><clipPath id="clippath-1"><path class="cls-6" d="M105-197.56c-.14.25-.27.5-.39.76-.72,1.53-1.1,3.2-1.2,4.89-.05.85-.08,1.72.08,2.56.16.83.45,1.63.69,2.44.14.47.23.75.32,1.13.03.14.03.76.03.76-.06,9.79-.85,11.02-1.16,12.2-.64,2.44-1.7,4.98-4.21,5.28-2.94.34-5.94.3-8.9.33-3.58.03-7.14.16-10.72.34-.97.05-1.93.1-2.9.14-1.55.08-2.95.26-4.33,1.01-1.41.77-2.66,1.78-3.73,2.98-1.76,1.97-2.26,4.78-2.09,7.34.07,1.14.27,2.26.53,3.37.23.99.61,1.93.78,2.94.98,5.63-2.4,10.86-5.7,15.1-1.79,2.3-4.31,4.7-5.19,7.56-.05.17-.1.34-.13.52-.18.84-.22,1.71-.22,2.57,0,1.06.08,2.12.19,3.18.13,1.15.31,2.3.53,3.45.22,1.13.48,2.26.78,3.37.27,1,.58,1.99.95,2.95.29.75.62,1.51,1.04,2.19.16.25.33.49.53.71,2.52,2.63,7.11-.15,9.29-1.88,2.83-2.24,5.69-4.6,7.96-7.42,1.2-1.49,2.19-3.14,2.61-5.02.33-1.5.3-3.05.42-4.58.03-.36.06-.73.11-1.09.24-1.97,2.79-10.35,3.71-6.94.86,3.19,4.48,10.51,4.48,13.79s-3.58,9.98-4.3,14.63c-.45,2.93-1.26,5.72-2,8.51-.09.35.17.7.54.7h57.87c.26,0,.48-.18.54-.42.8-3.08-.61-8.28-.32-10.94.16-1.52,2.21-5.69,2.21-5.69.1-.25.45-.23.53.02,3.31,11.21,2.88,11.06,2.47,14.78-.06.57-.1,1.12-.12,1.67-.01.32.24.58.56.58h17.21c.31,0,.56-.26.56-.57-.03-1.27-.06-2.29-.12-2.91-.36-3.94-3.86-8.21-4.66-11.11-.89-3.2-.93-6.54-.91-9.83.02-3.2-.25-6.36-.27-9.56-.01-1.82.71-3.52.97-5.31.32-2.17.3-4.38.06-6.55-.42-3.88-1.74-8.12-5.15-10.39-2.34-1.56-4.91-1.52-7.43-2.41-2.72-.97-5.17-2.73-7.68-4.11-1.19-.65-11.96-5.35-13.21-5.31,4.19-3.96,4.69-8.22,2.29-13.9-.78-1.85.15-3.59.81-4.68.8-1.31,1.12-2.81,1.42-4.32,1.21-6.02.48-11.45-4.58-14.72-2.47-1.6-5.38-2.37-8.29-2.37-5.26,0-10.51,2.53-13.17,7.27"/></clipPath></defs><g id="Top_Mountain"><g id="Section_1_-_TOP"><path class="cls-4" d="M1920,311.84v-50.69c.14-3-4.24-17.64-17.06-26-16.59-10.97-31.58-24.2-44.52-39.31-11.93-13.9-23.43-19.58-42.3-17.13-19,2.47-38.82-1.25-58.19-.46-13.23.54-27.8,1.33-39.14,7.09-17.65,9-33.19,9-47.84-2.72-10.99-8.64-20.78-18.71-29.1-29.94-32.37-44.78-71.52-81.53-121.19-107.15-14.47-7.46-28.21-16.65-41.28-26.37-16.86-12.55-34.31-15.57-52.24-4.6-36.47,22.31-71.56,47-108.8,67.88-20.34,11.43-43.46,22.64-66.12,24.47-44.51,3.6-82.65,15.45-117,45.35-30.17,26.29-64.74,47.82-98.36,70-27.25,18-51.84,22.3-85,1.67-51.16-31.82-108.47-54.09-163.66-79.36-9.24-4.23-21.32-5.63-31.44-4.13-39.34,5.82-77.55,4-115.73-8-15.35-4.8-33.15-9.51-48.15-6.38-38.59,8.06-70.9-7.12-103.07-22.3-21.86-10.32-38.29-8.23-58.29,5.4-15.77,10.76-36.58,19.13-55.42,19.67-48.14,1.35-99.3-15.73-137.25,30.37-3.2,3.89-9.1,6.11-14.18,7.91-49.94,17.78-90,47.48-121.85,90.17-16.55,22.21-39.53,38.66-71,22.23-3.76-2-10.37-4.13-13.72-1.16C9.71,285.84,1.1,284.84,0,297.28v14.56h1920Z"/></g></g><g id="Element"><g id="LogoHM"><path class="cls-6" d="M165.74-174.43h.04s.07.02.11.03c-.05,0-.1-.02-.15-.03M179.38-161.62c-1.53-.5-1.25-3.78-1.11-5.35.16-1.82.57-4.45,1.64-6.67,1.14-2.37,1.92-2.42,2.14-2.37.36.07.55.97.58,2.66,0,.15,0,.29,0,.41v.07c.05,1.38.1,2.8.21,4.21.02.33.05.65.08.98.04.39.09.78.13,1.16.16,1.27.31,2.47.04,3.64-.12.53-.4.91-.85,1.16-.42.23-.94.33-1.46.33s-1-.09-1.41-.22M157.34-184.45l6.28-1.99c-1.32,2.34-2.16,4.81-2.68,6.7-.15.54-.33,1.2-.49,1.93l-57.32,12.94,52.49-19.59c.28.09.57.14.87.14.28,0,.56-.04.84-.13M164.37-180.38c.5-1.76,1.41-4.26,2.89-6.23.48-.64.89-1.08,1.23-1.38l1.44-.45c.23.29.21,1.18-.05,2.64-.03.15-.05.28-.07.4v.06c-.23,1.37-.45,2.78-.62,4.18-.03.27-.06.54-.09.82l-3.14.89c-.43.12-.82.35-1.12.65l-.92.21c.14-.68.33-1.31.46-1.79M171.2-196.69l-15.84,7.03c-.55.24-.99.65-1.28,1.14l-76.62,29.45-48.18,10.87c-.31-.2-.55-.5-.67-.86-.44-1.3-2.17-1.52-2.93-.39-.3.45-.81.72-1.35.73-1.1.01-1.8,1.03-1.6,1.99l-5.21,1.18c-.77.17-1.25.93-1.09,1.7.17.77.93,1.27,1.7,1.1l5.12-1.1c.12,1,1.16,1.74,2.21,1.35.51-.19,1.08-.11,1.52.2,1.12.79,2.65-.04,2.6-1.41-.02-.54.23-1.06.66-1.39.13-.1.24-.21.33-.33l25.68-5.51-33.41,12.84c-.13-.16-.24-.34-.31-.54-.44-1.3-2.17-1.52-2.93-.39-.3.45-.81.72-1.35.73-1.3.02-2.04,1.43-1.39,2.5l-4.66,1.79c-.73.28-1.1,1.1-.83,1.84.28.74,1.1,1.12,1.84.84l4.15-1.55c.36.69,1.2,1.11,2.04.8.51-.19,1.08-.11,1.52.2,1.12.79,2.65-.04,2.6-1.41-.02-.54.23-1.06.66-1.39.35-.26.55-.61.63-.99l53.82-20.09,81.45-17.48c.22,1.4.84,2.64,2.21,3.38,1.07.58,2.62,1.12,4.16,1.16.67.02,1.34-.06,1.97-.27,1.15-.38,2.02-1.17,2.53-2.28.57-1.25.78-2.55.88-3.84l5.9-.93c-.08.14-.16.29-.24.45-1.7,3.3-2.3,7.19-2.5,9.87-.2,2.67-.61,8.22,3.27,9.45.31.1.66.19,1.03.26,1.6.31,3.61.3,5.15-.57,1.06-.6,1.76-1.54,2.04-2.72.47-1.96.16-3.88-.13-5.74-.08-.51-.16-1.04-.23-1.54-.05-.43-.1-.87-.15-1.32-.19-1.9-.31-3.86-.42-5.75v-.09c-.01-.16-.02-.34-.03-.53-.03-.81-.08-1.92-.34-2.95l.3-.05c.14-.02.3-.06.44-.1,1.65-.47,2.72-1.97,2.73-3.6v-.03c0-.33-.05-.67-.14-1.01-.57-2-2.64-3.15-4.64-2.59l-11.62,3.3c.16-1.43.35-2.86.54-4.26v-.06c.03-.16.06-.33.09-.53.14-.89.34-2.18.2-3.35l.73-.23c.13-.04.26-.09.39-.15,1.9-.84,2.75-3.06,1.91-4.96-.62-1.4-2-2.23-3.43-2.23-.51,0-1.03.1-1.52.32"/><g class="cls-5"><path class="cls-1" d="M-42.23,62.88c-.65,0-1.32-.11-2.04-.34l.48-1.58c1.95.6,3.26.2,5.02-1.5,2.37-2.3,5.21-4.36,8.21-5.95,2.6-1.38,3.66-2.9,3.91-5.61.18-1.92.71-3.8,1.23-5.62.37-1.28.75-2.61.98-3.92.43-2.37.75-4.47.29-6.28-.93-3.67-.12-6.46,2.48-8.54,2.02-1.61,4.08-2.88,6.14-3.76C-6.57,15.94.49,10.84,6.07,4.19c1.58-1.88,3.51-3.8,5.91-5.86,2.58-2.22,3.37-4.65,2.42-7.45-.89-2.6-1.85-5.24-2.79-7.78-1.49-4.05-3.03-8.25-4.29-12.46-1.04-3.48-2.16-7.99-1.59-12.03,1.14-8.02.21-14.26-3.01-20.21-2.76-5.11-4.84-10.66-6.85-16.04-.33-.89-.66-1.77-1-2.65-1.1-2.91-1.44-5.31-1.06-7.56.42-2.5,1.76-4.86,4.09-7.23,5.3-5.38,9.94-11.66,14.42-17.73,1.45-1.96,2.94-3.99,4.44-5.95.9-1.19,1.54-2.92,1.66-4.53.53-7.07,2.38-13.26,5.65-18.92,1.38-2.38,2.66-4.9,2.69-7.21.11-6.88,3.91-11.75,7.59-16.47,2.25-2.89,2.56-5.29,1.14-8.88-1.35-3.4-1.8-7.22-1.21-10.22.36-1.82.88-3.64,1.38-5.4,1.72-5.99,3.34-11.65-1.14-17.41-.68-.87-.83-2.16-.94-3.01-1.05-8.64-4.33-16.08-10.03-22.72-4.15-4.83-4.49-9.36-1.02-13.45.52-.61.65-1.16.6-1.26-.2-.37-.36-.69-.48-.95-.41-.88-.5-1.06-1.88-1.44l.44-1.6c2.02.55,2.4,1.18,2.94,2.33.12.25.25.53.43.85.68,1.24-.43,2.71-.78,3.13-2.9,3.43-2.57,7.13,1.02,11.31,5.92,6.9,9.33,14.62,10.42,23.6.08.67.2,1.68.6,2.19,4.99,6.42,3.18,12.75,1.43,18.88-.49,1.73-1.01,3.52-1.35,5.27-.53,2.7-.11,6.17,1.13,9.29,1.63,4.12,1.23,7.16-1.37,10.51-3.51,4.5-7.14,9.16-7.24,15.48-.04,2.69-1.43,5.44-2.92,8.01-3.15,5.43-4.92,11.39-5.43,18.21-.14,1.91-.91,3.98-1.99,5.41-1.49,1.96-2.98,3.98-4.43,5.93-4.52,6.12-9.19,12.44-14.57,17.91-4.55,4.62-4.36,8.56-2.66,13.04.33.88.67,1.77,1,2.66,1.99,5.32,4.05,10.83,6.75,15.83,3.4,6.29,4.38,12.84,3.19,21.23-.53,3.72.54,8,1.54,11.32,1.25,4.17,2.78,8.34,4.26,12.37.94,2.55,1.91,5.2,2.8,7.82,1.18,3.46.2,6.57-2.91,9.24-2.33,2-4.2,3.86-5.72,5.66C1.59,12.11-5.67,17.36-14.87,21.3c-1.92.82-3.85,2.01-5.75,3.53-2.1,1.68-2.69,3.79-1.91,6.85.59,2.31.09,5.01-.27,6.99-.25,1.38-.64,2.75-1.02,4.08-.52,1.83-1.01,3.55-1.18,5.32-.3,3.27-1.69,5.28-4.78,6.92-2.87,1.52-5.58,3.49-7.84,5.68-1.56,1.52-3,2.23-4.61,2.23"/></g><path class="cls-6" d="M105-197.56c-.14.25-.27.5-.39.76-.72,1.53-1.1,3.2-1.2,4.89-.05.85-.08,1.72.08,2.56.16.83.45,1.63.69,2.44.14.47.23.75.32,1.13.03.14.03.76.03.76-.06,9.79-.85,11.02-1.16,12.2-.64,2.44-1.7,4.98-4.21,5.28-2.94.34-5.94.3-8.9.33-3.58.03-7.14.16-10.72.34-.97.05-1.93.1-2.9.14-1.55.08-2.95.26-4.33,1.01-1.41.77-2.66,1.78-3.73,2.98-1.76,1.97-2.26,4.78-2.09,7.34.07,1.14.27,2.26.53,3.37.23.99.61,1.93.78,2.94.98,5.63-2.4,10.86-5.7,15.1-1.79,2.3-4.31,4.7-5.19,7.56-.05.17-.1.34-.13.52-.18.84-.22,1.71-.22,2.57,0,1.06.08,2.12.19,3.18.13,1.15.31,2.3.53,3.45.22,1.13.48,2.26.78,3.37.27,1,.58,1.99.95,2.95.29.75.62,1.51,1.04,2.19.16.25.33.49.53.71,2.52,2.63,7.11-.15,9.29-1.88,2.83-2.24,5.69-4.6,7.96-7.42,1.2-1.49,2.19-3.14,2.61-5.02.33-1.5.3-3.05.42-4.58.03-.36.06-.73.11-1.09.24-1.97,2.79-10.35,3.71-6.94.86,3.19,4.48,10.51,4.48,13.79s-3.58,9.98-4.3,14.63c-.45,2.93-1.26,5.72-2,8.51-.09.35.17.7.54.7h57.87c.26,0,.48-.18.54-.42.8-3.08-.61-8.28-.32-10.94.16-1.52,2.21-5.69,2.21-5.69.1-.25.45-.23.53.02,3.31,11.21,2.88,11.06,2.47,14.78-.06.57-.1,1.12-.12,1.67-.01.32.24.58.56.58h17.21c.31,0,.56-.26.56-.57-.03-1.27-.06-2.29-.12-2.91-.36-3.94-3.86-8.21-4.66-11.11-.89-3.2-.93-6.54-.91-9.83.02-3.2-.25-6.36-.27-9.56-.01-1.82.71-3.52.97-5.31.32-2.17.3-4.38.06-6.55-.42-3.88-1.74-8.12-5.15-10.39-2.34-1.56-4.91-1.52-7.43-2.41-2.72-.97-5.17-2.73-7.68-4.11-1.19-.65-11.96-5.35-13.21-5.31,4.19-3.96,4.69-8.22,2.29-13.9-.78-1.85.15-3.59.81-4.68.8-1.31,1.12-2.81,1.42-4.32,1.21-6.02.48-11.45-4.58-14.72-2.47-1.6-5.38-2.37-8.29-2.37-5.26,0-10.51,2.53-13.17,7.27"/><g class="cls-2"><path class="cls-3" d="M419.28,56.93l-1.34-.96c1.19-1.65,1.23-3.02.18-5.23-1.42-2.98-2.46-6.33-3.01-9.69-.48-2.9-1.58-4.39-4.07-5.49-1.76-.78-3.37-1.89-4.93-2.97-1.1-.76-2.24-1.54-3.4-2.18-2.1-1.17-4-2.14-5.86-2.28-3.77-.29-6.16-1.95-7.3-5.08-.89-2.43-1.42-4.79-1.6-7.02-.77-9.71-3.35-18.03-7.87-25.44-1.28-2.09-2.48-4.54-3.66-7.47-1.27-3.14-3.32-4.67-6.26-4.67h-.02c-2.75,0-5.55.08-8.27.16-4.32.12-8.78.24-13.18.09-3.63-.12-8.26-.5-11.9-2.34-7.24-3.64-13.44-4.75-20.12-3.61-5.72.98-11.65,1.18-17.39,1.36-.94.03-1.89.06-2.83.1-3.11.11-5.49-.34-7.5-1.41-2.23-1.2-4.05-3.22-5.54-6.18-3.41-6.75-7.87-13.14-12.19-19.33-1.39-2-2.84-4.06-4.22-6.11-.84-1.23-2.28-2.39-3.76-3.02-6.54-2.76-11.81-6.49-16.12-11.4-1.82-2.07-3.79-4.08-5.97-4.86-6.48-2.3-9.89-7.46-13.18-12.45-2.02-3.06-4.2-4.12-8.05-3.92-3.65.19-7.42-.6-10.07-2.11-1.61-.92-3.17-2-4.68-3.04-5.13-3.54-9.97-6.88-16.86-4.48-1.04.36-2.31.1-3.15-.07-8.53-1.77-16.62-1.03-24.74,2.25-2.01.81-3.85,1.22-5.51,1.22-3.21,0-5.74-1.52-7.57-4.55-.41-.68-.89-.99-1-.97-.42.08-.77.12-1.05.15-.97.11-1.17.13-1.97,1.32l-1.37-.92c1.17-1.74,1.89-1.89,3.15-2.04.27-.03.58-.07.95-.13,1.39-.25,2.43,1.27,2.71,1.74,2.32,3.85,5.93,4.71,11.04,2.65,8.43-3.41,16.84-4.17,25.69-2.33.66.14,1.66.34,2.27.13,7.68-2.68,13.1,1.06,18.34,4.68,1.48,1.02,3.01,2.08,4.56,2.96,2.39,1.36,5.81,2.07,9.16,1.9,4.43-.23,7.18,1.12,9.52,4.66,3.15,4.77,6.4,9.69,12.36,11.81,2.53.9,4.7,3.09,6.66,5.32,4.14,4.72,9.22,8.3,15.52,10.97,1.77.75,3.49,2.13,4.49,3.62,1.38,2.04,2.82,4.1,4.21,6.09,4.35,6.23,8.85,12.68,12.31,19.53,2.93,5.79,6.72,6.86,11.51,6.69.94-.03,1.89-.07,2.84-.1,5.68-.19,11.56-.38,17.16-1.34,7.05-1.21,13.56-.05,21.14,3.76,3.36,1.69,7.76,2.04,11.22,2.16,4.35.15,8.79.03,13.08-.09,2.72-.07,5.53-.15,8.31-.16h.03c3.64,0,6.26,1.92,7.8,5.71,1.15,2.85,2.31,5.21,3.54,7.23,4.66,7.64,7.32,16.2,8.11,26.17.17,2.08.67,4.29,1.51,6.58.92,2.52,2.73,3.76,5.88,4,2.38.18,4.78,1.51,6.54,2.49,1.23.68,2.4,1.49,3.54,2.27,1.56,1.08,3.04,2.1,4.66,2.81,3,1.33,4.46,3.28,5.03,6.74.53,3.2,1.52,6.4,2.88,9.24,1.31,2.75,1.22,4.75-.33,6.91"/><path class="cls-1" d="M290.59,23.67l-1.34-.96c1.19-1.65,1.23-3.02.18-5.23-1.42-2.98-2.46-6.33-3.01-9.69-.48-2.9-1.58-4.39-4.07-5.49-1.76-.78-3.37-1.89-4.93-2.97-1.1-.76-2.24-1.54-3.4-2.18-2.1-1.17-4-2.14-5.86-2.28-3.77-.29-6.16-1.95-7.3-5.08-.89-2.43-1.42-4.79-1.6-7.02-.77-9.71-3.35-18.03-7.87-25.44-1.28-2.09-2.48-4.54-3.66-7.47-1.27-3.14-3.32-4.67-6.26-4.67h-.02c-2.75,0-5.55.08-8.27.16-4.32.12-8.78.24-13.18.09-3.63-.12-8.26-.5-11.9-2.34-7.24-3.64-13.44-4.75-20.12-3.61-5.72.98-11.65,1.18-17.39,1.36-.94.03-1.89.06-2.83.1-3.11.11-5.49-.34-7.5-1.41-2.23-1.2-4.05-3.22-5.54-6.18-3.41-6.75-7.87-13.14-12.19-19.33-1.39-2-2.84-4.06-4.22-6.11-.84-1.23-2.28-2.39-3.76-3.02-6.54-2.76-11.81-6.49-16.12-11.4-1.82-2.07-3.79-4.08-5.97-4.86-6.48-2.3-9.89-7.46-13.18-12.45-2.02-3.06-4.2-4.12-8.05-3.92-3.65.19-7.42-.6-10.07-2.11-1.61-.92-3.17-2-4.68-3.04-5.13-3.54-9.97-6.88-16.86-4.48-1.04.36-2.31.1-3.15-.07-8.53-1.77-16.62-1.04-24.74,2.25-5.9,2.39-10.3,1.27-13.07-3.33-.41-.68-.89-.99-1-.97-.42.08-.77.12-1.05.15-.97.11-1.17.13-1.97,1.32l-1.37-.92c1.17-1.74,1.89-1.89,3.15-2.04.27-.03.58-.07.95-.13,1.39-.25,2.43,1.27,2.71,1.74,2.32,3.85,5.93,4.71,11.04,2.65,8.43-3.41,16.84-4.17,25.69-2.33.66.14,1.66.34,2.27.13,7.68-2.68,13.1,1.06,18.34,4.68,1.48,1.02,3.01,2.08,4.56,2.96,2.39,1.36,5.81,2.07,9.16,1.9,4.43-.23,7.18,1.12,9.52,4.66,3.15,4.77,6.4,9.69,12.36,11.81,2.53.9,4.7,3.09,6.66,5.32,4.14,4.72,9.22,8.3,15.52,10.97,1.77.75,3.49,2.13,4.49,3.62,1.38,2.04,2.82,4.1,4.21,6.09,4.35,6.23,8.85,12.68,12.31,19.53,2.93,5.79,6.72,6.86,11.51,6.69.94-.03,1.89-.07,2.84-.1,5.68-.19,11.56-.38,17.16-1.34,7.04-1.21,13.56-.05,21.14,3.76,3.36,1.69,7.76,2.04,11.22,2.16,4.35.15,8.79.03,13.08-.09,2.72-.07,5.53-.15,8.31-.16h.03c3.64,0,6.26,1.92,7.8,5.71,1.15,2.85,2.31,5.21,3.54,7.23,4.66,7.64,7.32,16.2,8.11,26.17.17,2.08.67,4.29,1.51,6.58.92,2.52,2.73,3.76,5.88,4,2.37.18,4.78,1.51,6.54,2.49,1.23.68,2.4,1.49,3.54,2.27,1.56,1.08,3.04,2.1,4.66,2.81,3,1.33,4.46,3.28,5.03,6.74.53,3.2,1.52,6.4,2.88,9.24,1.31,2.75,1.22,4.75-.33,6.91"/></g></g></g></svg>