<?xml version="1.0" encoding="UTF-8"?><svg id="Layer_2" xmlns="http://www.w3.org/2000/svg" xmlns:xlink="http://www.w3.org/1999/xlink" viewBox="0 0 806.15 568.73"><defs><style>.cls-1{fill:url(#G1);}.cls-2{fill:url(#G4);}.cls-3{clip-path:url(#clippath);}.cls-4{fill:url(#G4-7);}.cls-5{fill:url(#G4-2);}.cls-6{fill:url(#G4-6);}.cls-7{fill:url(#G4-5);}.cls-8{fill:url(#G4-4);}.cls-9{fill:url(#G4-9);}.cls-10{fill:url(#G4-8);}.cls-11{fill:url(#G4-3);}.cls-12{fill:#00402a;}.cls-13{fill:#eb0036;}.cls-14{fill:#fff1b7;}.cls-15{fill:#f74b00;}.cls-16{fill:#ff8200;}.cls-17{fill:#099560;}.cls-18{fill:url(#G4-14);}.cls-19{fill:url(#G4-13);}.cls-20{fill:url(#G4-12);}.cls-21{fill:url(#G4-11);}.cls-22{fill:url(#G4-19);}.cls-23{fill:url(#G4-18);}.cls-24{fill:url(#G4-16);}.cls-25{fill:url(#G4-15);}.cls-26{fill:url(#G4-10);}.cls-27{fill:url(#G4-17);}.cls-28{opacity:.29;}</style><linearGradient id="G4" x1="1009.13" y1="-521.64" x2="1031.38" y2="-521.64" gradientTransform="translate(-49.9 1344.07) rotate(-23.9)" gradientUnits="userSpaceOnUse"><stop offset="0" stop-color="#0d0e19"/><stop offset="1" stop-color="#00412a"/></linearGradient><linearGradient id="G4-2" x1="985.4" y1="-756.51" x2="1017.26" y2="-756.51" xlink:href="#G4"/><linearGradient id="G4-3" x1="683.74" y1="-678.22" x2="715.6" y2="-678.22" xlink:href="#G4"/><linearGradient id="G4-4" x1="874.88" y1="-582.45" x2="895.13" y2="-582.45" xlink:href="#G4"/><linearGradient id="G4-5" x1="902.26" y1="-696.84" x2="921.7" y2="-696.84" xlink:href="#G4"/><linearGradient id="G4-6" x1="959.75" y1="-627.52" x2="1019" y2="-627.52" xlink:href="#G4"/><linearGradient id="G4-7" x1="786.52" y1="-665.89" x2="835.01" y2="-665.89" xlink:href="#G4"/><linearGradient id="G4-8" x1="853.56" y1="-821.01" x2="929.39" y2="-821.01" xlink:href="#G4"/><linearGradient id="G4-9" x1="499.4" y1="-840.15" x2="690.65" y2="-840.15" xlink:href="#G4"/><linearGradient id="G4-10" x1="1037.94" y1="-886.77" x2="1162.02" y2="-886.77" xlink:href="#G4"/><linearGradient id="G4-11" x1="1055.91" y1="-629.29" x2="1072.38" y2="-629.29" xlink:href="#G4"/><linearGradient id="G4-12" x1="935.27" y1="-893.34" x2="951.75" y2="-893.34" xlink:href="#G4"/><linearGradient id="G4-13" x1="1076.26" y1="-701.45" x2="1093.17" y2="-701.45" xlink:href="#G4"/><linearGradient id="G4-14" x1="789.7" y1="-1090.65" x2="821.55" y2="-1090.65" xlink:href="#G4"/><linearGradient id="G4-15" x1="706.56" y1="-1030.97" x2="726" y2="-1030.97" xlink:href="#G4"/><linearGradient id="G4-16" x1="764.05" y1="-961.66" x2="823.3" y2="-961.66" xlink:href="#G4"/><linearGradient id="G4-17" x1="860.21" y1="-963.43" x2="876.68" y2="-963.43" xlink:href="#G4"/><linearGradient id="G4-18" x1="880.56" y1="-1035.59" x2="897.47" y2="-1035.59" xlink:href="#G4"/><linearGradient id="G4-19" x1="773.9" y1="-813.42" x2="790.81" y2="-813.42" xlink:href="#G4"/><clipPath id="clippath"><path id="Trail_of_legends-2" class="cls-14" d="m247.27,507.67h-9.64v60.61h-9.92v-60.61h-9.64v-7.5h29.21v7.5Zm32.95,13.06c0,13.23-7.02,19.59-10.3,21.7,2.15,2.47,4.87,6.18,6.74,10.59,2.34,5.29,3,10.59,3,15.26h-9.74c0-3.88-.66-8.21-2.25-12-1.69-3.97-4.03-7.32-5.8-9.18v21.17h-9.92v-68.11h7.77c10.49,0,20.5,5.12,20.5,20.56Zm-9.92.09c0-10.15-4.03-13.06-8.43-13.06v30c2.06-.26,8.43-5.38,8.43-16.94Zm44.09,47.47h-9.27l-1.78-12.09h-9.92l-1.69,12.09h-8.8l10.95-68.11h9.55l10.95,68.11Zm-12.08-19.59l-3.93-28.5-3.93,28.5h7.86Zm26.68,19.59h-9.92v-68.11h9.92v68.11Zm32.02,0h-23.31v-68.11h9.92v60.61h13.39v7.5Zm48.59-34.06c0,29.47-8.43,34.5-16.38,34.5s-16.48-5.03-16.48-34.5,8.52-34.5,16.48-34.5,16.38,5.03,16.38,34.5Zm-9.92,0c0-22.67-3.28-27-6.46-27s-6.46,4.32-6.46,27,3.28,27,6.46,27,6.46-4.32,6.46-27Zm41.38-26.56h-13.86v30.7h10.95v7.5h-10.95v22.41h-9.92v-22.41h-3.09v-7.5h3.09v-38.2h23.78v7.5Zm40.91,60.61h-23.31v-68.11h9.92v60.61h13.39v7.5Zm27.62,0h-23.78v-22.41h-3.09v-7.5h3.09v-38.2h23.78v7.5h-13.86v30.7h10.95v7.5h-10.95v14.91h13.86v7.5Zm35.39-2.03c-1.97,1.15-5.62,2.47-10.67,2.47-8.15,0-20.97-3.88-20.97-34.59s12.36-34.41,19.85-34.41c3.56,0,6.27.79,6.27.79v7.23c-1.31-.26-2.72-.53-4.4-.53-4.31,0-11.7,3.26-11.7,26.91s6.46,27.09,11.33,27.09c.66,0,1.03-.09,1.03-.09v-14.12c0-7.23-1.69-8.38-4.4-8.38-.56,0-1.12,0-1.59.09v-7.41s1.5-.26,3.28-.26c7.21,0,11.98,4.5,11.98,16.76v18.44Zm31.73,2.03h-23.78v-22.41h-3.09v-7.5h3.09v-38.2h23.78v7.5h-13.86v30.7h10.95v7.5h-10.95v14.91h13.86v7.5Zm36.14,0h-4.77l-16.2-38.82v38.82h-9.55v-68.11h4.77l16.1,39.08v-39.08h9.64v68.11Zm37.82-34.06c0,29.64-11.61,34.06-22,34.06h-7.02v-68.11h7.02c10.39,0,22,4.41,22,34.06Zm-10.02,0c0-22.41-5.43-26.56-9.08-26.56v53.11c3.65,0,9.08-4.15,9.08-26.56Zm40.63,16.94c0,12.35-8.99,17.56-17.41,17.56-4.03,0-7.12-.79-9.74-2.38l3.46-6.62c1.59.88,3.84,1.41,6.27,1.41,3.37,0,7.49-2.56,7.49-9.09s-3.56-12.09-8.05-18.09c-6.18-8.29-8.71-13.23-8.71-19.85,0-8.91,6.09-14.38,15.35-14.38,3.56,0,6.74,1.15,7.77,1.76l-3.37,6.53c-1.31-.53-2.62-.88-4.49-.88-3.09,0-5.52,2.21-5.52,6,0,4.85,3.09,9.35,7.58,15.35,5.9,8.03,9.36,14.12,9.36,22.67Z"/></clipPath><linearGradient id="G1" x1="201.06" y1="731.84" x2="700.51" y2="731.84" gradientTransform="translate(182.04 -266.37) rotate(12.15)" gradientUnits="userSpaceOnUse"><stop offset=".03" stop-color="#0c9360"/><stop offset=".23" stop-color="#ff8000"/><stop offset=".28" stop-color="#fe7a02"/><stop offset=".33" stop-color="#fb6c08"/><stop offset=".39" stop-color="#f75412"/><stop offset=".45" stop-color="#f13220"/><stop offset=".52" stop-color="#ea0832"/><stop offset=".53" stop-color="#e90036"/><stop offset=".67" stop-color="#0c9360"/></linearGradient></defs><g id="Layer_1-2"><g id="hero_No_top_border"><g id="web"><g class="cls-28"><polygon class="cls-2" points="671.41 439.48 683.65 453.61 671.76 468.22 659.52 454.1 671.41 439.48"/><polygon class="cls-5" points="558.89 226.22 576.41 246.44 559.39 267.35 541.87 247.14 558.89 226.22"/><polygon class="cls-11" points="314.8 419.99 332.32 440.21 315.31 461.13 297.79 440.91 314.8 419.99"/><polygon class="cls-8" points="530.93 445.3 529.86 459.41 515.66 460.8 516.74 446.69 530.93 445.3"/><polygon class="cls-7" points="500.46 325.56 511.63 336.12 502.78 349.52 491.62 338.95 500.46 325.56"/><polygon class="cls-6" points="631.24 365.9 603.74 395.37 569.69 373.22 597.18 343.74 631.24 365.9"/><polygon class="cls-4" points="443.45 428.84 403.29 425.31 399.79 384.83 439.95 388.36 443.45 428.84"/><polygon class="cls-10" points="466.72 266.73 403.91 261.21 398.43 197.89 461.25 203.42 466.72 266.73"/><polygon class="cls-9" points="51.51 340.13 148.71 249.07 256.06 329.67 158.86 420.73 51.51 340.13"/><polygon class="cls-26" points="549.33 134.26 557.18 48.38 643.81 41.19 635.95 127.08 549.33 134.26"/><polygon class="cls-21" points="673.98 330.56 674.1 342.53 662.24 344.74 662.12 332.77 673.98 330.56"/><polygon class="cls-20" points="456.72 138.02 456.84 149.99 444.98 152.19 444.86 140.23 456.72 138.02"/><polygon class="cls-19" points="646.07 258 662.09 253.56 669.3 268.68 653.28 273.13 646.07 258"/><polygon class="cls-18" points="244.61 0 262.13 20.22 245.11 41.13 227.59 20.92 244.61 0"/><polygon class="cls-25" points="186.18 99.34 197.35 109.9 188.51 123.3 177.34 112.73 186.18 99.34"/><polygon class="cls-24" points="316.96 139.68 289.47 169.16 255.41 147 282.9 117.52 316.96 139.68"/><polygon class="cls-27" points="359.7 104.35 359.82 116.31 347.96 118.52 347.84 106.55 359.7 104.35"/><polygon class="cls-23" points="331.79 31.78 347.81 27.34 355.02 42.47 339 46.91 331.79 31.78"/><polygon class="cls-22" points="324.27 278.12 340.29 273.67 347.5 288.8 331.48 293.25 324.27 278.12"/></g><path class="cls-15" d="m27.01,472.53l-5.31-6.05c-.79-.73-1.62-1.49-2.51-2.09-1.67-1.12-3.61-1.71-5.66-2.34-.6-.18-1.21-.37-1.82-.57-2.25-.75-5.43-2.08-7.07-4.88-.73-1.24-.92-2.51-.56-3.57.16-.46.78-1.48,3.1-.94,1.19.28,2.41.38,3.63.31.49-.03.98-.09,1.5-.15.59-.07,1.2-.14,1.82-.17,1.25-.05,2.51.09,3.69.23,1.76.22,3.51.47,5.26.76,1.03.17,1.96.35,2.87.74,1.34.58,2.39,1.55,3.41,2.48.27.24.54.49.81.73,2.26,1.97,4.98,3.45,7.86,4.28.65.19,1.34.35,2.01.51,1.81.43,3.69.88,5.33,1.91l-.79,1.26c-.59-.37-2.03-1.31-2.7-1.07-.97.35-1.94,1.65-2.99,1.4-.68-.16-.57-2.37-1.26-2.57-1.11-.32-1.77-.37-2.82-.86-.27-.13-2,1.27-2.77.95-.67-.28-.23-2.49-.42-2.6-1.35-.75-1.26-1.06-2.42-2.07-.28-.25-2.25,1.37-3.14.95-1.19-.56.41-3.44-.69-3.92-.75-.33-1.59-.48-2.52-.64-1.7-.28-3.4-.53-5.11-.74-1.2-.15-2.37-.28-3.54-.24-.56.02-1.12.09-1.7.16-.51.06-1.05.12-1.58.15-1.36.08-2.73-.04-4.06-.35-.85-.2-1.29-.09-1.35-.02-.3.86.15,1.83.44,2.33,1.06,1.8,3.04,3.15,6.25,4.22.59.2,1.19.38,1.78.56,2.06.63,4.19,1.28,6.05,2.53.99.66,3.58,1.11,4.42,1.88l.59.84,1.31-.23c.35-.19.72.22.5.55l-.5,1.16,1.15,1.09,1.98-.54c.35-.09.62.29.42.59l-1.03,1.51,1.65,1.73-3.49.78Z"/><path class="cls-15" d="m30.49,499.07c-3.17-.81-6.01-2.85-7.8-5.58-1.79-2.74-2.51-6.16-1.99-9.38.21-1.27.61-2.59,1.26-4.15.63-1.52,1.56-3.44,3.15-4.86,1.71-1.53,3.91-2.26,6.21-2.93,1.86-.54,3.59-1.14,4.38-2.49l1.28.76c-.41.69-.97,1.23-1.6,1.65-.23.16.89,1.32.64,1.45-.13.07-1.62-.89-1.75-.83-.86.4-1.76.66-2.54.89-2.21.65-4.16,1.29-5.64,2.61-1.36,1.22,1.25,3.64.68,5.01-.61,1.45-4.42,1.98-4.61,3.13-.47,2.86-.85,3.79.74,6.22.4.6.72,1.28,1.44,1.24.88-.05,3.39-2.63,4.17-1.39.88,1.38-2.4,3.23-1.82,4.98.37,1.11,2.47,1.8,4.15,2.23l-.37,1.44Z"/><path class="cls-15" d="m38.76,484.01c-.28,0-5.42,4.22-6.06,3.32-.56-.8,3.66-4.52,3.66-5.4,0-1.26-4.13-2.66-3.1-2.92.34-.09,4.19,1.23,4.35,1.22.02,0,1.87-.4,1.88-.4,1.04-.18-1.48-3.57-.58-4.14.76-.48,1.89,3.97,2.57,3.37l4.75-3.9c1.26-1.12-1.29-1.83-1.23-3.26.02-.54,4.19,0,3.31-2.44-.57-1.56-1.64-2.94-2.84-4.09l1.03-1.08c1.35,1.28,2.45,2.87,3.18,4.58.29.68.63,1.59.59,2.58-.08,2.02-1.61,3.55-3.05,4.82l-1.72,1.53c-.73.65-1.48,1.31-2.34,1.86-1.06.67-2.28,1.14-3.52,1.35-.04,0-.11.01-.2.02-.13,0-.3.02-.5.07-.53.14-1.09.48-1.09.83,0,.21.24.46.53.55.33.1.75.06,1.28-.13,1.17-.41,2.18-1.2,3.24-2.04.27-.21.53-.42.8-.63,4.06-3.09,9.11-4.91,14.2-5.13.25-.01.51-.02.76-.03.88-.03,1.7-.05,2.5-.23.9-.2,1.83-.81,1.79-1.53-.03-.41-.39-.82-.89-1.02-.6-.23-1.32-.19-1.88-.12-2.26.26-4.4,1.13-6.21,2.51l-.9-1.18c2.02-1.54,4.42-2.51,6.94-2.81.74-.09,2.29-2.26,3.2-1.91.39.15-.39,2.49-.07,2.71.58.4,4.18-2.6,5.25-1.71.84.7-4.06,2.88-4,3.06s1.88,2.38,1.89,2.57c.1,1.64-3.3.56-4.79.89-.93.21-.22,4.43-.99,4.74-2.47.97-3.67-4.23-3.92-4.22-1.85.08-1.73,0-3.51.51-.44.13.03,4.26-.47,4.79-1.77,1.86-4.15-2.92-4.52-2.77-1.94.79-1.8.8-3.47,2.07-.26.2-.08,2.72-.34,2.92-1.11.88-2.7-.52-4.12-.03-.5.17-.96.26-1.39.26Z"/><path class="cls-15" d="m40.07,504.95c-3.25-.19-7.29-3.01-9.1-5l1.1-1.01c1.55,1.7,3.98,2.72,6.84,2.89,2.57.15,3.88-1.55,6.36-2.99,1.39-.81,1.51-5.19,2.16-5.94,1.71-1.94,3.93,5.01,4.58,5.16,2.48.58,4.04.21,6.07-.85.41-.21-1.23-3.86.19-4.28,1.3-.39,3.46,2.26,4.82,1.86,1.34-.39,2.72-.47,4.06-.55.62-.04-.53-4.69,1.25-4.95,1.57-.23,3.77,4.1,5.28,3.33,1.17-.6,2.3-1.36,3.36-2.21.88-.71-4.03-4.83-2.7-6.57.82-1.08,6.92,2.24,7.61,1.19,2.82-4.27,3.34-8.42,1.87-13.33-.97-3.23-8.9-1.63-11.35-3.35-2.23-1.56,1.29-6.55-1.72-7.4-1.77-.5-8.93-.16-10.67-.28-4.91-.32-.21,6.41-5.55,6.65-2.97.13-4.94-2.16-5.33-1.96l-.67-1.33c.39-.19.78-.39,1.18-.59,4.7-2.37,10.54-5.31,15.86-4.96,1.87.12,3.69.56,5.54,1.04,2.96.76,5.82,1.59,8.25,3.3,2.72,1.91,4.8,4.91,5.87,8.46,1.6,5.32.72,11.27-2.34,15.91-3.06,4.64-8.19,7.78-13.71,8.4-.65.07-1.31.11-1.95.15-1.31.08-2.55.15-3.73.5-1.2.35-2.3.97-3.47,1.62-.41.23-.84.47-1.27.69-3.66,1.91-9.12,3.28-12.47,5.38-2.14,1.34-5.91,1.04-6.24,1.03Z"/><path class="cls-15" d="m7.78,488.23l-3.04-.97c1.86-2.11,5.46-4.65,8.59-5.96,2.82-1.17,6.22-2.59,9.04-3.18l-1.34,2.1c-1.09.23-3.33.78-4.17,1.7-1.26,1.4.16,3.43-1.46,4.11-1.3.54-1.99-2.11-3.38-2.16-1.74-.06-3.29,3.28-4.23,4.35Z"/><path class="cls-15" d="m15.82,454.51c-.76,0-1.38.62-1.38,1.38s.62,1.38,1.38,1.38,1.38-.62,1.38-1.38-.62-1.38-1.38-1.38Zm.1,2.6s-1.54-1.31.25-2.48c0,0-.58,1.06-.25,2.48Z"/><path class="cls-15" d="m0,450.02c.02.94.36,4.87,5.01,5.46l-.45-1.83s-.97.05-1.93-.57c-.64-.41-1.4-1.93-1.19-2.92.01-.05-.06-.09-.09-.04l-.44.6c-.07.09-.2.09-.26,0l-.53-.74c-.04-.05-.12-.03-.12.04Z"/><path class="cls-17" d="m280.62,131.04c-2.14-.28-3.27-.06-4.02-2.32,0,0-.43.09-.43.09.42.77.43,1.45,1.13,2.08,1.04.74,2.4.64,3.64.74.74.06.41-.44-.32-.6Z"/><path class="cls-17" d="m281.76,130.62c-.1-.32.1-2.21-2.01-2.67-.69-.15-2.92-.47-3.6-.68l-.33.7c.73.23,2.76.46,4.42,1.67.65.47,1.39,1.71,1.38,1.8l.22-.08c.02-.25-.01-.5-.09-.73Z"/><path class="cls-17" d="m277.35,124.75c-.8-.25-1.47-.37-2.09-.28-.14.02-.9.29-.25.5.42.13,1.08.04,1.52.25,0,0,2.78,1.27,3.61,1.74,1.42.8,2.27,1.42,2.31,2.17.03.44.24.84.62,1.05l.07.04c.39.22.89,0,.99-.44.12-.53.19-1.15-.1-1.56-.26-.36-.64-.56-.92-.7l-4.32-2.16c-.45-.23-.92-.46-1.44-.62Z"/><path class="cls-17" d="m290.58,133.92c.26-.2.51-.26.53-.59v-.14c.66-.63.87-1.5,1.06-2.26.16-.66.32-1.29.71-1.68.09-.09.2-.17.32-.27.13-.1.27-.2.4-.33.54-.51.88-1.27,1-2.2.09-.72,1.7-1.28,1.52-1.97l-1.67-.18s0-.02,0-.03c0-.02-.01-.05-.02-.07h0c-.25-.74-1.18-1.28-1.79-1.43-.38-.1-.76-.11-1.12-.13-.17,0-.34-.02-.51-.03-.5-.05-.98-.03-1.32-.29-.41-.32-1.29-1.07-1.25-1.56.01-.13,1.2-1.73,1.11-1.81-.19-.15-1.52.95-2,1.06-.1.02-.15-.11-.15-.27,0-.15,3.42-6.6,2.41-7.55-.86-.8-3.79,5.53-5.05,5.1-.82-.28-1.61-3.14-2.33-2.82s.17,3.12-.26,3.6-1.08,1.32-1.83,1.61c0,0-1.08.58-1.71.53-1.68-.16-3.33-7.19-4.11-6.94-1.02.33-.92,7.65-1.78,8.64-.06.07-.49.19-.63.13-.41-.18-.47-.63-.51-1.2-.01-.14-.02-.25-.04-.35l-1.17.19c.01.07.02.15.02.24.04.56.13,1.72,1.22,2.2.27.12.84.26,1.24.18,1.23-.23,2.35-.51,3.42-.85.81-.26,1.61-.57,2.39-.86l2.07-.79c.79-.3,1.62-.62,2.38-1.07l.09-.05c.16-.1.31-.19.45-.22.12-.03.27-.03.45-.03.79.01,1.65.09,2.05.62.06.08.12.18.18.29.07.12.15.27.25.4.2.27.46.48.68.66.08.07.17.14.25.21.14.13.23.24.31.36.26.41.59.76.98,1.04s.84.59,1.06.64l.09.02c.29.07.59.11.91.14.2.02.39.03.57.04.32.01.61.03.88.09.41.1.88.46.95.65.15.56.2,1.16.13,1.73-.06.45-.21,1.07-.64,1.48-.09.08-.19.16-.3.25-.14.11-.29.22-.43.36-.63.63-.85,1.49-1.03,2.24-.13.52-.23,1.01-.47,1.39-.03-.02-.24-.25-.83-.5-.66-.28-1.27-.51-1.94-.58-.36-.04-.76-.15-.88.19l-.41,1.15c-.07-.02-.04,0-.2.42h0c-.05.09.08.37.18.4.42.12.89.02,1.55.37s1.19.94,1.21,1.08h0c.15-.13.22-.33.17-.52-.11-.48-1.1-1.37-2.62-1.66.5-1.44,2.62.13,3,.49.5.47.8,1.05.8,1.05Z"/><path class="cls-17" d="m281.7,140.35c.28-.04.67-.09,1.01-.34.24-.18.4-.41.53-.64.65-1.13,1.06-2.36,1.45-3.56.21-.63.28-1.32.51-1.91.2.34.69,1.07,1.15,1.24,1.12.42,1.89.09,1.89.09l.2-.37s-1.11-.13-1.84-.53c-.1-.06-.49-.32-.73-.54-.13-.12-.45-.25-.68.12l.06-.32c.16-.66.26-.97.65-1.52l-.4-.92c-.88,1.27-1.15,2.81-1.61,4.22-.39,1.19-.85,2.84-1.75,3.78-.36.37-1.65.12-1.88-.14-.08-.09-.15-.24-.22-.41-.13-.31-.29-.68-.67-.94-.39-.27-.83-.27-1.18-.28-.18,0-.35,0-.47-.04-.36-.12-.5-.75-.38-1.23.03-.13.16-.22.27-.2.06.01.24.06.4-.02.47-.22.36-1.03-.14-1.14,0,0,0,0-.01,0-.53-.11-1.05.05-1.36.41-.19.22-.27.47-.32.67-.25,1.03.11,2.3,1.17,2.65.29.09.58.1.83.1.22,0,.42,0,.51.07.09.06.17.24.25.43.1.23.21.5.42.73.44.49,1.06.61,1.58.61.29,0,.56-.03.75-.06Z"/><path class="cls-17" d="m265.28,135.86c.59,1.47,4.12-.34,5.25.5.7.51,3.15.48,3.89.83l.6-.58c-.69-.33-1.4-.67-2.01-1.11-.96-.71-1.73-1.75-2.24-3.02-.44-1.1-.7-2.36-.77-3.85-.05-.95,0-1.72.12-2.42.07-.36.16-.72.26-1.1.2-.74.4-1.51.39-2.33h-1.19c0,.67-.17,1.33-.35,2.03-.1.38-.21.78-.28,1.19-.15.79.03,1.66-.14,2.69-.28,1.73-4.03,5.95-3.53,7.18Z"/><path class="cls-17" d="m278.68,140.02l-.07-.02s-.04,0-.06-.01c-.01-.01-.02-.03-.04-.05-.52-.58-1.08-.95-1.67-1.1-.82-.2-1.47.01-2.44,0l.08.35c.54.13,1.71.72,2.07.81.36.09.72.34,1.08.75.07.08.16.18.3.26.16.1.31.13.42.16h.05c.39.11,1.29.05,1.59.82l.23.02c-.02-.94-.63-1.76-1.54-1.98Z"/><path class="cls-17" d="m274.83,142.82c.26.14.54.2.77.26.06.01.12.03.18.04.39.1.77.26,1.11.48.04.03.08.05.12.08.24.16.52.34.87.41.08.02.16.02.25.02.5,0,1.22-.48,1.35-1.03,0,0-.81.28-1.95-.49-.44-.3-.94-.5-1.45-.63-.07-.02-.13-.03-.2-.05-.19-.04-.36-.08-.49-.15-.42-.22-.7-1.11-.84-1.7l-.36-.33c.2.84-.21,2.63.64,3.08Z"/><path class="cls-17" d="m268.16,122.28c-.08-.33-.42-.5-.74-.58l-1.59-.64s.94,3.7.18,4.27c-.33.24-.79.36-1.28.48-.77.19-1.65.4-2.15,1.21-.38.61-.35,1.28-.33,1.87.01.35.02.68-.04.96-.17.71-.87,1.22-1.6,1.75-.2.15-.4.29-.59.44-1.97,1.55-3.25,4.09-3.52,6.97-.21,2.27.17,4.78,1.16,7.65.63,1.82,1.6,4.09,3.55,5.49,1.56,1.12,3.49,1.5,5.19,1.82l.22-1.17c-1.58-.3-3.37-.65-4.72-1.62-1.68-1.21,2.15-6.74,1.58-8.39-.94-2.71-6-1.57-5.8-3.67.24-2.55,1.36-4.79,3.07-6.15.18-.14.37-.28.55-.41.83-.61,1.78-1.3,2.06-2.44.11-.44.09-.87.08-1.29-.02-.49-.03-.91.15-1.21.24-.39.79-.53,1.42-.68.56-.14,1.19-.29,1.71-.68.99-.74.91-1.97,1.27-3.13.08-.24.23-.6.17-.87Z"/><path class="cls-17" d="m271,155.77l.12.11c.64.59,1.43,1.24,2.43,1.49.35.09.69.12,1.03.12.61,0,1.2-.11,1.79-.21.4-.07.77-.14,1.15-.17.07,0,.14-.01.21-.02.39-.03.84-.06,1.26-.27.36-.18.64-.45.88-.72.52-.56,1.01-1.14,1.48-1.75.3-.39.61-.82.84-1.3.25-.52.39-1.05.53-1.57.34-1.29.69-2.63.73-4.02,0-.24,0-.47,0-.71,0-.5,0-.97.08-1.42.12-.65.44-1.26.76-1.83.08-.14.15-.28.23-.41.47-.82.91-1.6.97-2.67.01-.2,0-.4,0-.59,0-.44,0-.85.16-1.14.13-.22.37-.4.63-.6.15-.11.3-.22.45-.36l.12-.1c.52-.46.97-.85,1.05-1.79l-1.19-.11c-.04.46-.19.6-.65,1l-.12.11c-.11.1-.24.19-.37.29-.33.25-.7.53-.95.96-.33.57-.32,1.2-.32,1.75,0,.18,0,.35,0,.51-.05.8-.39,1.4-.82,2.16-.07.12-.14.24-.21.37h0s-.02.04-.03.05c0,0,0,.01-.01.02h0c-.35.63-.72,1.35-.87,2.16,0,.05-.01.1-.02.15,0,0,0,0,0,0-.17-.17-.36-.28-.52-.38-.1-.06-.19-.11-.25-.16-.14-.11-.22-.29-.22-.47,0-.1.02-.23.05-.37.01-.07.02-.13.04-.2.07-.41.05-.76-.05-1.08-.15-.46-.5-.81-.92-.95v.62c-.05.39-.25.6-.21.7.04.13.04.29,0,.51,0,.05-.02.11-.03.16-.03.18-.07.39-.07.61,0,.52.25,1.03.66,1.36.14.11.28.2.41.27.07.04.41.37.69.65.23.23.37.55.36.88,0,0,0,0,0,0-.04,1.26-.37,2.53-.7,3.76-.12.46-.25.94-.45,1.36-.17.36-.41.69-.71,1.08-.43.56-1.6-1.37-2.3-1.26-1.92.3-2.12,3.87-4.27,3.86-.76,0-1.38-.71-1.91-1.21l-.12-.11c-.29-.27,3.84-8.45,2.54-9.08-.64-.31-4.8,7.83-5.41,7.72l-.74-.13-.21,1.17.74.13c.53.09,1.08.19,1.51.45.26.15.5.38.75.61Z"/><path class="cls-17" d="m268.43,142.59s.07,0,.11,0c.25,0,.47-.14.59-.38.19-.37.25-.76.3-1.1.02-.12.04-.23.06-.34.07-.35.21-.6.37-.68.24-.12.67.07,1.05.24l.07.03c.34.15.79.32,1.29.35.58.04,1.1-.13,1.49-.46.04-.03.12-.13.11-.18-.02-.2-.07-1.18-.07-1.18-.36.03-.59.25-.74.39-.03.02-.05.05-.08.07-.15.13-.38.19-.64.17-.31-.02-.62-.14-.89-.25l-.07-.03c-.55-.24-1.31-.57-2.04-.22-.51.24-.87.77-1.02,1.51-.03.13-.05.26-.07.4-.03.21-.06.4-.12.58-.17.14-.25.37-.21.59.05.26.25.46.5.5Z"/><path class="cls-17" d="m261.93,123.75c.57.85,1.55,1.14,2.51,1.37l.27-1.16c-.76-.18-1.47-.38-1.8-.88-.12-.19-.21-.43-.24-.73-.12-1.05.35-2.07.86-3.15.48-1.04,6.26-1.72,5.85-3.75-.1-.51-4.93-.58-5.01-1.06-.04-.26-.09-.51-.11-.76-.22-2.1.68-4.22,1.47-6.09.22-.52.45-1.07.84-1.41.32-.28.76-.45,1.23-.63l.15-.06c2.21-.85,4.57,2.73,5.33,1.32.18-.34-.6-5.38-.46-5.72.23-.57.45-1.12.82-1.49.33-.33.82-.56,1.49-.72,1.33-.3,2.39-.33,3.36.64.68.68-.91,9.24,1.8,10.08,2.58.79,1.44-9.11,2.43-9.09.59.02,1.13-.12,1.66-.25.32-.08.63-.16.94-.19,2.42-.3,4.47,1.79,5.24,2.7.56.67-1.06,5.61-.56,6.33.78,1.11,3.72-1.94,4.74-.97.21.2.43.39.64.58.7.61,1.36,1.19,1.65,1.95.33.84-3.73,4-3.89,5.02-.1.63,3.71-.91,3.72-.25,0,1,.27,1.95.52,2.86.23.83-3.88.29-3.85,1.09.08,1.97,2.67,4.11.89,4.97l-.24,3.46c2.19-1.05,4.95-4.72,4.85-7.15-.04-.93-.28-1.82-.52-2.68-.24-.88-.47-1.71-.48-2.56,0-.56.08-1.13.18-1.74.18-1.13.36-2.31-.09-3.45-.4-1.02-1.2-1.73-1.98-2.41-.21-.19-.42-.37-.61-.55-.93-.89-1.67-1.94-2.45-3.06-.52-.74-1.05-1.5-1.65-2.21-1.89-2.25-4.19-3.39-6.3-3.12-.37.05-.73.13-1.07.22-.47.12-.92.22-1.35.22-.72-.02-1.42-.36-2.16-.73-.32-.16-.64-.32-.98-.46-1.49-.62-3.17-.76-4.74-.4-.9.21-1.57.54-2.06,1.03-.55.55-.83,1.24-1.09,1.9-.13.32-.25.63-.4.91-.62,1.15-1.86,2.07-3.79,2.82l-.14.05c-.52.2-1.11.43-1.59.86-.58.52-.89,1.25-1.14,1.83-.81,1.9-1.82,4.27-1.56,6.68.03.28.08.56.12.83.07.44.14.86.14,1.27-.02.95-.44,1.87-.89,2.84-.55,1.19-1.12,2.41-.96,3.79.06.49.2.91.44,1.26Z"/><path class="cls-17" d="m257.55,127.3c.86-1.19,1.74-2.43,2.82-3.4.24-.22.5-.43.77-.5l-.31-1.15c-.51.14-.92.46-1.25.76-1.17,1.05-2.09,2.34-2.99,3.59-1.14,1.58-2.21,3.08-3.72,4.1-1.82,1.22-4.11,1.62-6.33,2.01-.52.09-1.06.18-1.59.29-1.57.31-3.14.73-4.65,1.13-1.55.42-3.15.84-4.74,1.15-.37.07-.75.14-1.12.2-1.06.18-2.16.37-3.22.71-.93.29-1.81.69-2.67,1.08-.75.34-1.52.69-2.3.95-.52.18-1.08.33-1.61.47-.45.12-.91.24-1.37.39-3.33,1.05-6.52,3.23-9.21,6.29-2.13,2.43-4,5.42-5.88,9.41-.12.26-.24.52-.36.78-.36.79-.74,1.6-1.15,2.37l1.05.56c.43-.8.54-1.04.91-1.84.12-.26,4.5-2.02,4.62-2.27,1.83-3.89-.35-5.88,1.71-8.23,2.55-2.9,5.54-4.96,8.67-5.94.43-.14.88-.26,1.32-.37.55-.15,1.13-.3,1.69-.49.83-.28,1.63-.64,2.4-.99.86-.39,8.66,9.09,9.52,8.82.98-.31-4.74-9.56-3.91-10.26.49-.41.75-.4,1.13-.47,1.63-.31,3.26-.75,4.83-1.17,1.49-.4,7.18,6.9,8.18,5.7.52-.64-2.21-5.9-1.03-6.51,1.79-.94,5.61,1.4,7.63.03,1.69-1.14,1.03-5.59,2.17-7.19Z"/><path class="cls-17" d="m222.38,168.22c-.1.06-.19.11-.29.17-.42.24-.9.5-1.27.92l.89.79c.24-.27.59-.46.95-.67.11-.06.21-.12.31-.18.18-.11,4.65-2.74,4.77-4.95.02-.33.14-1.52-.77-1.78-.27-.07-.64,0-.83.21-.18.2-.36.42-.33.72.02.17.11.34.25.44.23.17.25.32.24.45-.05.99-2.09,2.78-3.94,3.88Z"/><path class="cls-17" d="m222.43,184.71c-.52-1.84-1.05-3.73-1.29-5.63-.25-1.98-.19-3.22-.04-6.22h0s-1.19-.06-1.19-.06c-.15,2.98-.22,4.34.04,6.43.25,1.99.8,3.93,1.33,5.8l.11.4c1.06,3.77,2.08,7.82,2.34,11.93l1.19-.08c-.27-4.22,3-5.11,1.92-8.94l-4.42-3.63Z"/><path class="cls-17" d="m294.16,167.95l-1.19-.1c-.13,1.61-1.26,2.9-2.45,4.26-.74.84-1.5,1.72-2.06,2.71-.42.74-.7,1.54-.97,2.3-.15.42-.3.85-.47,1.25-1.06,2.51-2.91,4.6-4.75,6.47-1.89,1.92-4,3.84-6.56,4.84l-.11.04c-.28.11-.59.23-.87.43-.41.29-.68.68-.91,1.07-1.1,1.82-1.65,3.87-2.19,5.84l-2.57,9.52,4.24,3.31,2.91-8.36c.51-1.9-2.39-8.02-1.38-9.7.17-.27.35-.55.58-.71.16-.12.38-.2.61-.29l.11-.04c2.77-1.08,4.99-3.09,6.97-5.11,1.93-1.96,3.87-4.15,5-6.85.18-.44.34-.88.5-1.31.27-.75.53-1.47.89-2.12.49-.88,1.89-.79,2.58-1.59,1.26-1.44,1.9-3.85,2.07-5.85Z"/><path class="cls-17" d="m258.29,179.1c-.14.76-.31,1.7-.83,2.33-.28.34-.68.62-1.07.88l-4.26,2.93.67.98,4.26-2.93c.44-.3.49,1.55.88,1.08.71-.87,1.35-4.16,1.51-5.06.57-3.1,1.09-6.24,1.54-9.36l-1.18-.17c-.45,3.1-.97,6.24-1.54,9.32Z"/><path class="cls-17" d="m308.82,181.27c-.44-1.99-.16-4.02.13-6.17.12-.91.25-1.85.32-2.78.42-5.88-1.58-11.61-3.38-15.95-.84-2.04-1.81-4.16-3.5-5.76-1.76-1.67-4.05-2.5-6.26-3.31-.63-.23-1.27-.47-1.89-.72-2.88-1.17-5.52-2.79-7.87-4.84l-.78.9c2.44,2.13-.67,8.61,2.33,9.83.64.26,7.16-4.29,7.8-4.06,2.2.8,4.27,1.56,5.86,3.06,1.53,1.44.44,5.89,1.23,7.8,1.75,4.21,5.69,7.32,5.28,12.95-.06.89-.19,1.82-.31,2.71-.29,2.16-4.92,6.23-4.44,8.43.25,1.13,5.02.34,5.45,1.36l1.1-.46c-.41-.97-.83-1.97-1.05-3Z"/><path class="cls-17" d="m293.44,184.91c-.16-3.32-.33-6.75-1.54-9.92l-1.11.43c1.15,2.99,1.31,6.32,1.46,9.55.02.35.03.71.05,1.06.18,3.49.54,7.5,2.48,10.84l1.03-.6c-1.81-3.11.81-4.03.64-7.39-.02-.35-2.99-3.62-3.01-3.97Z"/><path class="cls-17" d="m225.85,175.34l.81,3.29c.84,3.44,4.82,5.06,7.8,3.15,1.02-.65,2.06-1.12,3.14-1l.13-1.18c-3.31-.38-7.45-.79-10.11-2.81l-1.78-1.46Z"/><path class="cls-17" d="m243.02,175.61c-.65-.03-1.3-.33-1.74-.81l-.88.8c.66.72,1.59,1.16,2.56,1.2.03,0,.07,0,.12,0,.21,0,.59-.03.88-.29l-.78-.9s-.03,0-.17,0Z"/><path class="cls-17" d="m276.33,180.79l-.88.8c.69.77,1.72,1.21,2.75,1.21.12,0,.23,0,.35-.02.12-.01.45-.04.7-.28l-.73-.8c-.05-.06-.12-.1-.2-.11-.39-.09-1.56-.33-1.99-.8Z"/><ellipse class="cls-17" cx="279.34" cy="130.06" rx="1.31" ry="1.21"/><ellipse class="cls-17" cx="287.39" cy="134.02" rx="1.02" ry=".94"/><path class="cls-13" d="m735.93,347.25c.43-.68.71-1.57.44-2.44h0c-.22-.7-.63-1.31-1.26-1.88l-1.84-1.68c-.62-.57-1.26-1.15-2.02-1.61-.17-.1-.34-.2-.51-.29-.3-.17-.58-.32-.83-.51-.38-.3-.7-.68-1.04-1.1-.18-.23-.37-.46-.58-.68-.57-.61-1.48-1.32-2.57-1.22-.99.09-1.73.82-2.33,1.52-3.01,3.53-5.12,7.71-7.15,11.74-.98,1.94-1.99,3.95-2.57,6.12-.59,2.21-.7,4.51-.82,6.74-.08,1.57-.34,4.65-.59,6.21l1.17-1.3c.26-1.61.34-3.27.42-4.86.11-2.17.22-4.42.78-6.53.55-2.07,3.22-4.68,4.18-6.58,2.01-3.99,2.41-7.46,5.34-10.9.49-.57,1.03-1.11,1.66-1.17.72-.07.24,1.68.58,2.05.18.2,1.52-.74,1.7-.52.36.44-1.78,3.9-1.3,4.27.31.24,3.14-2.59,3.46-2.41.16.09.32.18.47.27.47.29-2.91,5.38-4.75,8.57-.35.61.41,1.25.95.8l7.5-6.2c.27.25.49.5.66.76.2.32.13.73-.16.97l-.73.61c-.24.2-.17.6.13.69.37.12.76.04.47.36-.42.48-.97.85-1.54,1.25-.18.13-.37.25-.55.38-1.78,1.29-3.23,2.97-4.63,4.59-.9,1.04-1.83,2.12-2.83,3.07-.42.4-.87.79-1.3,1.17-.31.27-.63.55-.94.83-1.39,1.26-2.66,2.66-3.9,4.01-.29.31-.57.63-.86.94-.7.75-1.38,1.48-2.16,2.1-.1.08-.21.16-.32.25-.42.33-.86.66-1.22,1.12-.25.32-.43.66-.6,1-.12.23-.24.46-.37.66-.52.79-1.27,1.15-2.08,1.7l-.93,2.69c.84-.58,3.22-2.89,3.84-3.84.16-.25.29-.5.42-.75.16-.31.31-.6.5-.84.27-.35.64-.64,1.03-.94.11-.09.22-.17.33-.26.83-.67,1.55-1.42,2.27-2.21.29-.31.57-.63.86-.94.33-.36.66-.73,1-1.09.25-.02.9-.01,1.05,0,0,0,.58.01.77.03.34.03.75.19,1.04.37.33.2.52.58.46.97l-.04.24c.4-.25.63-.74.56-1.21.26-.08.48-.27.6-.52.11-.23.25-.45.42-.66.33-.41.36-.99.05-1.42h0c-.2.42-.37.73-.63,1.02-.41.45-1.06.58-1.62.35,0,0,0,0-.01,0-.27-.12-.55-.14-.77-.14l-.79-.03s-.09,0-.14,0c.61-.63,1.23-1.25,1.87-1.84.3-.28.61-.54.92-.81.44-.38.9-.78,1.33-1.19,1.04-.98,1.98-2.08,2.9-3.14.18-.2.35-.41.53-.61.07.75.56,1.42,1.25,1.73-.31.86-.66,1.7-1.06,2.52-.36.73-.77,1.49-1.38,2.05-.22.21-.48.39-.74.59-.52.39-1.07.78-1.43,1.39-.56.91-.53,2-.5,2.96v.14c.03.9-.03,1.81-.55,2.39-.09.1-.23.22-.38.26-.34.08-.76-.25-.98-.45-.41-.39-.64-.75-.69-1.09-.05-.34.12-.7.37-.77l-.3-.96c-.81.25-1.18,1.16-1.07,1.89,0,.05.02.11.03.16l-.63-.61-.06-.07s0,0,0,0h-.02c-.71.71-1.63,1.25-2.62,1.5-.12.03-.24.06-.36.08-.24.05-.48.11-.73.19-.82.27-.86.45-.88.64-.05.4.36.71.72.53,0,0,.01,0,.02-.01.16.05.41.14.56.19.12.04.23.08.31.11,0,.03,0,.07-.02.08-.06.04-.21.03-.36.02-.21,0-.47-.02-.74.08-.47.17-.73.58-.9.85l-.36.57.85.53.36-.57c.1-.17.25-.39.39-.44.08-.03.22-.02.36-.02.27.01.61.02.93-.17.26-.16.43-.43.48-.74.01-.09.02-.17.01-.26.2.09.41.16.63.18.15,0,.31-.01.47-.07.56-.2.84-.71,1.07-1.12.04-.07.08-.14.12-.21.11-.2.17-.44.24-.69.04-.17.17-.55.17-.55.12.51.44,1,.96,1.49.57.54,1.08.72,1.47.74.16,0,.31,0,.43-.04.32-.08.62-.27.89-.56.76-.84.84-2.03.81-3.09v-.14c-.03-.86-.05-1.75.35-2.41.26-.43.71-.76,1.17-1.1.28-.21.57-.42.83-.66.73-.68,1.2-1.53,1.6-2.35.44-.89.83-1.82,1.16-2.76.03,0,.06,0,.1,0,1.49-.01,2.97-.92,3.79-2.32.71-1.22.93-2.76.63-4.34-.02-.1-.05-.23-.08-.36-.06-.24-.2-.81-.14-.98Zm-16.29,20.42c.27-.11.54-.23.8-.37-.13.22-.26.41-.42.47-.09.03-.22-.02-.37-.09Zm15.39-19.42c.02.07.04.15.05.22.03.12-2.28,1.56-2.03,3.27.19,1.35,2.19-.32,1.6.69-.64,1.1-1.79,1.81-2.92,1.82-.27,0-.49-.03-.67-.11-.38-.16-.66-.56-.67-.98l-.87.03c1.16-1.33,2.38-2.65,3.8-3.68.17-.13.35-.25.53-.37.4-.28.81-.56,1.19-.89Z"/><path class="cls-13" d="m716.81,372.95c-.53-.85-1.98-2.09-2.8-2.66l.58-.82c.84.59,2.42,1.92,3.07,2.95.94,1.5,1.47,3.4,1.53,5.51.06,1.96-.28,3.93-.62,5.59-.47,2.3-1.09,4.71-2.44,6.77-.38.58-.81,1.12-1.23,1.64-.4.5-.81,1.01-1.16,1.54-.7,1.05-1.38,2.21-1.64,3.57h-.02s0,0,0,0l-.97.26c-.13-.47-.42-.89-.73-1.34-.24-.34-.48-.7-.67-1.1-.76-1.63-.36-3.5-.04-5,.72-3.36,1.42-6.94,1.44-10.6.01-1.55-.04-2.53-.51-3.65l-.3-2.16c1.65,1.58,1.83,4.07,1.81,5.81-.03,3.75-.74,7.39-1.47,10.8-.29,1.36-.65,3.04-.03,4.37.15.33.36.63.59.96.07.1.14.21.21.31.37-1.04.92-1.95,1.48-2.8.37-.57-1.6-.95-1.19-1.46.4-.5,3.22-1.18,3.57-1.71,1.26-1.92,2.37-8.75,2.82-10.95.33-1.6-3.28,4.25-3.33,2.39-.06-1.93,2.88-6.88,2.03-8.22Z"/><path class="cls-13" d="m718.77,339.43c-1.25-.27-.79-6.3-1.61-6.26-1.19.05-3.31,15.36-4.52,15.12-.8-.16-.65-14.9-1.4-15.95-.5-.7-2.1-.46-2.91-.58-1.11-.17-1.86-.16-3.36.27-3.44.99.39,12.42-1.83,15.23-1.13,1.43-8.99-6.27-9.88-4.69l-2.45,4.38c-.35.63-.71,1.27-.98,1.94-.21.52.21,1.09.77,1.03,0,0,0,0,0,0,.24-.03.48-.08.74-.14.35-.08.71-.15,1.09-.17,1.61-.08,2.98.94,3.99,1.83,2.61,2.3,4.73,5.19,6.16,8.36.26.57.5,1.16.73,1.74.41,1.01.83,2.05,1.36,3,.65,1.16,1.77,2.68,3.43,3.31l-1.18,4.02c-1.54-.59-2.08-4.97-3.13-6.84-.56-1-2.56.46-2.98-.57-.23-.56,1.11-3.68.86-4.24-1.36-3.04-3.41-5.81-5.9-8.02-.87-.77-2.03-1.64-3.28-1.58-.3.01-.6.08-.92.15-.27.06-.55.12-.85.15-.91.1-1.69-.16-2.12-.72h0c-.09-.12-.12-.27-.09-.41h0c.25-1.22.88-2.34,1.43-3.32l2.45-4.38c.91-1.62,1.84-3.29,3.02-4.78,2.35-2.97,5.64-5.19,9.29-6.23,1.64-.47,3.05-.61,4.31-.41.9.14,1.76.45,2.58.75.73.27,1.42.52,2.14.66,1.1.21,2.21.16,3.39.11.86-.04,1.74-.08,2.63-.01,2.35.19,5.01,1.85,6.75,3.44l-1.08-.07c-1.58-1.44-4.55,4.37-6.64,3.91Z"/><path class="cls-13" d="m720.32,412.15l-.96.3c-.85-2.76-1.39-5.63-1.92-8.41-.17-.9-.35-1.83-.47-2.77-.18-1.38-3.72-.38-3.77-1.74-.08-1.95,3.33-6.38,2.88-8.29-.07-.31-.32-.38-.33-.38l.74-1.13c.49.25.51,1.05.57,1.28.47,2,.55,4.07.63,6.07.05,1.34.11,2.73.28,4.06.12.9.29,1.82.46,2.71.52,2.75,1.06,5.6,1.9,8.3Z"/><path class="cls-13" d="m709.71,405.27c-.95-1.91-1.93-3.86-2.61-5.88-.23.53-.51,1.05-.85,1.54-.22.32-.47.62-.71.91-.31.37-.6.73-.84,1.11-.4.63-.65,1.35-.91,2.1-.17.49-.35.99-.57,1.47-.58,1.28-1.46,2.42-2.54,3.3l-1.07-1.15c.97-.79,2.18-1.44,2.7-2.57.2-.44.36-.9.53-1.39.27-.77.55-1.57,1.01-2.3.28-.44.6-.84.92-1.22.24-.29.46-.56.66-.85,1-1.42,1.42-3.21,1.7-4.78.26-1.44.45-2.92.63-4.36.23-1.83.47-3.73.86-5.57.13-.62.28-1.25.43-1.85.48-1.98.82-5.59.67-7.6l.6,1.39c.16,2.16.21,4.4-.29,6.45-.14.6-.29,1.22-.42,1.83-.38,1.8-.62,3.68-.85,5.49-.18,1.45-.37,2.94-.64,4.41-.12.66-.26,1.35-.46,2.05h0c.63,2.39,1.8,4.75,2.94,7.03.82,1.64,1.66,3.34,2.3,5.04.34.9.64,1.86.56,2.88-.03.42-.13.82-.22,1.21-.04.16-.08.32-.11.49-.15.75-.16,1.38-.03,1.94.15.63.91,1.33,1.38,1.61l-1.44.17c-.69-.42-.7-.66-.91-1.55-.17-.7-.16-1.48.02-2.38.04-.17.08-.35.12-.52.09-.36.17-.71.2-1.05.06-.82-.2-1.66-.5-2.45-.62-1.66-1.46-3.33-2.26-4.95Z"/><path class="cls-13" d="m694.21,384.76c.44,1.91,2.64,5.52,1.97,8.3-.23.96-.51,1.93-.77,2.86-.38,1.33-.95,6.01-1.22,7.41-.48,2.47-6.69.39-7.9,2.71-1.04,2,6.06.36,7.36,1,4.57,2.25-1.29,4.64.14,5.72.51.38,5.7-.64,6.7-.09,4.71,2.59-1.67,5.08-.4,6.3.64.61,5.66-1.48,6.33-.87.95.87,1.99,1.75,3.29,2.1.24.06.45.1.66.11.23.01.45,0,.65-.06.19-.05.35-.13.5-.2.07-.03.14-.07.21-.09.32-.13.69-.17,1.06-.22l1.67-.21c.23-.03.46-.06.64-.02.06.06.17.22.24.34.06.1.14.21.21.32v.02s.03.03.05.05c0,0,.01.02.02.03h0c1.52,1.27,3.63,1.34,5.68,1.3l4.27-.1c.82-.02,1.67-.04,2.47.09.45.07.72.19.85.36.08.11.12.18.07.34-.15.38-.8.36-.8.36-.13-.02-.3-.06-.48-.09-.51-.1-.94-.26-1.47-.34-2.04-.33-4.06-.04-6.03.25l.14,1c1.89-.27,3.84-.56,5.72-.25.49.08.96.2,1.46.32.58.14,1.19.29,1.81.38l.15.02c.44.06,1.17-.02,1.16.33-.02.33-.62.42-.86.47l.65.69c.21,0,.84-.19,1.14-.54.15-.17.22-.4.2-.62-.02-.16-.08-.31-.19-.46-.47-.64-1.26-.76-1.91-.85.09-.1.15-.21.2-.34.03,0,.06,0,.09,0,.52.03,1.04-.26,1.32-.73.18-.31.26-.68.23-1.06.33-.1.54-.27.66-.54.15-.28.1-.65-.03-.88-.14-.25-.3-.48-.47-.69.02-.02.04-.03.05-.05.18-.2.25-.47.21-.73-.16-.9-.99-1.53-1.66-1.9-1.12-.62-2.31-1.1-3.55-1.41-.3-.08-.61-.14-.9-.21-.5-.11-.97-.21-1.43-.36-.61-.19-3.15-1.15-3.7-1.48l1.83,1.52c.62.37.88.7,1.57.92.23.07.46.13.69.19.43.11.83.29,1.19.55.42.31.9.65,1.38.97-.26-.1-.55-.14-.82-.18-.55-.07-.8-.12-1.2-.3-.52-.23-1.52-.73-1.74-.97,0,0,.92,1,1.44,1.46.41.35.75.51,1.23.67.32.11.63.21.92.34.83.36,1.54.94,2.37,1.7.34.31.66.63.84.99.17.33.3.74.16.98-.09.16-.29.35-.5.49l-.09.06c-.03-.22-.11-.42-.24-.59-.22-.29-.52-.47-.82-.58-.33-1.38-1.67-2.08-2.74-2.65-1.61-.85-3.16-1.83-4.61-2.91l-.6.81c1.5,1.12,3.09,2.13,4.74,3,.55.29,1.14.6,1.59,1,.2.18.07.5-.2.5-1.62-.05-5.42-.06-5.8-.11,0-.24-.25-1.09-.28-1.19-.06-.22-.2-.44-.28-.58-.89-1.08-2.11-1.87-3.38-2.47l-.43.91c1.14.54,2.2,1.23,3,2.19.05.06.18.51.19.56.06.33.09.63.09.79-1.47-.02-2.83-.22-3.82-1.02-.05-.07-.1-.15-.15-.23-.2-.33-.41-.66-.79-.77-.38-.11-.68-.13-.95-.11l-1.67.21c-.53.05-.99.2-1.43.38-.09.04-.17.08-.26.12-.12.06-.24.11-.34.14-.21.06-.46.04-.79-.05-1.09-.29-2.02-1.09-2.87-1.87-.65-.6-1.31-1.23-1.94-1.83-1.28-1.23-2.61-2.5-4.03-3.64-.51-.41-1.05-.81-1.57-1.2-1.38-1.04-2.81-2.11-3.9-3.44-.05-.08-.19-.37-.23-.46-.11-.46-.51-4.37-.07-6.57.26-1.35.65-2.7,1.03-4.01.27-.95.55-1.93.79-2.9.7-2.93,1.42-7.01.95-9.08l-3.9.54Zm36.64,33.07c-.08.05-.96-.72-1.36-.96-.28-.17-.72-.56-1.09-.8.44.19.96.57,1.37.8.54.3,1.25.86,1.08.96Zm-.62.99c-.8-.57-.66-.72-.43-.54.54.39,1.08.9,1.44,1.53,0,0-.09.11-.1.11-.37-.43-.49-.8-.92-1.09Z"/><path class="cls-13" d="m721.81,428.35c-1.4-.22-2.81-.52-4.17-.91l.27-.97c1.33.37,2.69.67,4.06.88.35.05.73.11.97.14h.03c1.83.19,5.82-.64,6.44-1.25.08-.07.06-.22,0-.27-.11-.1-.34-.08-.54-.09l-8.81-.39.04-1.01,8.81.39c.28.01.64.03.97.21.46.24.71.75.59,1.21-.08.32-.31.53-.5.68-.99.76-2.16,1.05-3.36,1.12.3.23.46.58.4.92-.06.35-.3.63-.74.83-.43.2-.91.31-1.39.33l-.04-1c.35-.02.7-.1,1.02-.24.05-.02.08-.04.11-.06-.09-.04-.24-.06-.38-.07-1.28-.13-2.53-.26-3.77-.45Z"/><path class="cls-13" d="m673.46,391.91c.24-2.45.48-4.98.59-7.48.02-.52.04-1.04.05-1.56.08-2.62.16-5.32.99-7.87,1.2-3.68,3.93-6.66,7.31-7.98,3.58-1.39,7.84-.74,10.62,1.61,3.15,2.67,4.19,6.89,5.07,11.34l-3.45,1.17c-.84-4.27.63-9.28-2.27-11.74-2.5-2.13-6.36-2.71-9.6-1.44-3.1,1.21-5.61,3.96-6.72,7.35-.79,2.41-.86,5.04-.94,7.59-.02.52-.03,1.05-.05,1.57-.1,2.52-.35,5.07-.59,7.53-.07.74-.14,1.47-.21,2.21-.2,2.14-.33,4.07.08,5.94.16.73.4,1.44.65,2.18.24.71.49,1.45.66,2.2.11.47.18.95.26,1.42.13.81.25,1.57.51,2.29.02.06.05.13.08.19,1.09,2.63,3.16,4.81,5.83,6.16l13.9,7.01c2.2,1.11,4.48,2.26,6.6,3.61.3.19.59.38.88.58.74.48,1.5.99,2.28,1.4,1.56.83,3.4,1.42,5.63,1.81,3.27.57,6.66.61,9.94.64v1.01c-1.71-.02-3.44-.03-5.18-.13-1.64-.09-3.28-.24-4.9-.52-.78,1.17,3.14,1.54,3.02,2.55-.1.88-4.65,2.77-4.23,3.33.29.38.79.61,1.28.79,2.71,1.03,5.76-4.12,8.63-3.9,1.55.12,3.23,5.61,4.76,5.09.62-.21,1.21-.52,1.83-.85.53-.28-.27-5.57.31-5.8,1.2-.47,3.86,4.36,5.14,4.49.2.02.39.05.59.08.52.07,1.01.15,1.47.07.33-.05-.9-1.79.04-2.06.77-.22,2.77,1.15,3.11.57.39-.57-5.27-4.29-4.44-5.68.46-.76,4.23,3.2,6.41,3.55.23.04.45-.07.67-.09.39-.04.76-.08,1.06-.23.36-.18.67-.54.93-1.09,1.12-2.33.23-5.89-2.3-6.45-.99-.22-3.98,2.51-4.54.95-.21-.57,3.15-2.05,2.78-2.65-.31-.5-.37-1.07-.43-1.58-.01-.14-.03-.27-.05-.41-.11-.77-.42-1.52-.72-2.26-.14-.35-2.84,2.91-3.66,2.42-.4-.24,2.27-3.86,1.79-4l-4.73-1.46-1.95-.6,6.73.82c.57.16,1.5.63,2.01,1.16.37.38.56.86.73,1.27.32.79.65,1.6.78,2.49.02.15.04.3.05.45.05.43.09.84.28,1.15.23.36.67.59,1.14.83.14.07.29.15.42.22,2.7,1.51,3.89,5.28,2.55,8.07-.36.75-.83,1.28-1.39,1.56-.46.23-.94.28-1.4.33-.2.02-.4.04-.58.08-.44.09-.91.35-.93.69,0,.06,0,.15,0,.24.02.3.05.76-.33,1.08-.27.23-.62.23-.8.23h-.39c-.47,0-.91.22-1.25.62-.35.41-.88.69-1.45.78-.61.1-1.2.01-1.77-.07-.18-.03-.37-.05-.55-.07-1.13-.12-2.28.03-3.33.44-.52.2-1.02.47-1.54.74-.63.33-1.28.68-1.98.91-1.33.45-2.75.47-4.08.4-.39-.02-.78-.05-1.15-.08-2.94-.22-5.98-.44-8.83-1.52-.64-.24-1.29-.55-1.73-1.13-.65-.86-.59-1.95-.47-3,.12-1.07.66-2.47,1.42-3.7-1.88-.4-3.5-.97-4.9-1.71-.82-.44-1.61-.95-2.37-1.45-.29-.19-.58-.38-.87-.57-2.08-1.33-4.33-2.46-6.51-3.56l-13.9-7.01c-2.89-1.46-5.13-3.83-6.31-6.67-.03-.08-.06-.15-.09-.23-.3-.81-.43-1.66-.56-2.48-.07-.45-.15-.91-.24-1.36-.16-.71-.4-1.42-.63-2.1-.25-.74-.51-1.5-.68-2.29-.44-2.01-.3-4.02-.1-6.24.07-.74.14-1.48.21-2.22Z"/><path class="cls-13" d="m663.42,392.85c.27-.56.54-1.14.78-1.71.75-1.8,1.22-3.76,1.67-5.65.19-.81.39-1.64.61-2.45.65-2.43,1.54-4.95,2.88-8.16,1.32-3.18,3.18-7.29,5.79-10.9,2.08-2.88,4.38-5.06,6.83-6.47.23-.13.47-.26.7-.39.73-.4,1.42-.78,1.99-1.3.3-.28.57-.59.85-.93.5-.6,1.02-1.21,1.75-1.61.85-.47,1.83-.57,2.77-.67,1.21-.13,2.33-.32,2.88-1.12l.85.44c-.82,1.18-1.86,9.07-3.63,1.68-.2-.83-1.35-.49-1.97-.04-.34.24,2.35,7.27,1.7,7.58-.92.44-4.6-5.06-4.54-4.59,1.14,8.51-1.44,1.03-2.19,1.44-.23.12-.46.25-.68.38-2.33,1.34-4.52,3.42-6.52,6.19-2.55,3.53-4.37,7.58-5.67,10.7-1.32,3.17,1.24,7.39.6,9.78-.22.8-3.85-.11-4.04.69-.46,1.93-1.95,3.78-1.72,5.81.11.92,4,3.94,3.82,4.55-.47,1.61-4.1,1.14-4.34,2.43-.8,4.26,5.33,11.91,5.53,13.42l-14.66-15.29c-.29-2.27,6.99-1.78,7.94-3.79Z"/><path class="cls-16" d="m656.88,506.38c.09-.23,6.95-15.29,6.73-15.39-1.3-.6-2.58-1.26-3.71-2.16-1.13-.9-1.1-2.33-.06-3.34,1.04-1.01,2.33-1.58,3.55-2.29.88-.51,1.81-.89,2.8-1.16,1.83-.49,3.32.22,4.7,1.3,1.56,1.22,2.69,2.81,3.68,4.51.43.75.69,1.54.48,2.41-.17.7-.56,1.23-1.21,1.59-1.05.59-2.18.6-3.33.64-1.22.04-2.41-.08-3.59-.39-.27-.07-4.64,15.15-4.78,15.42m8.22-22.42c-.18-.19.3-.99.18-1.13-.18-.19-.18-.26-.51-.2-.38.07-.95-.03-.61-.28.22-.11,0,.01.26-.12-.69-.47-1.32.05-2.13.08-.94.04-1.93-.58-2.79-.17-.17.08-.2.18-.11.33.1.16-.09.24-.19.04-.08-.16-.15-.16-.3-.08-.26.13.32.52.5.74.2.25.1.36-.11.23-.12-.07-.79-.57-1.01-.51-.09.02-.17.15-.05.36.14.25,2,1.83,1.61,2.2-.31.29-2.07-1.5-2.67-1.69-.19-.06-.45.13-.39.42.05.26.78,1.11,1.04,1.35.86.78,2.09,1.26,1.74,1.95-.5.48-1.48-.11-2-.41-.87-.51-1.56-1.38-2.06-2.26-.09-.16-.24-.15-.4-.03-.27.19-.16.42.04.65.96,1.09.72,1.39-.03.87-.27-.19-.56.19-.31.4.16.14.34.26.46.38.41.41.85.79,1.36,1.08,2.95,1.7,6.07,2.7,9.48,2.45.77-.06,1.49-.21,2.17-.57.41-.22.66-.54.78-.98.17-.64-1.55-.89-2.74-1.24-.63-.18-.63-1.09,0-1.27.86-.25,1.56-.27,1.63-.54.06-.23-.27-.43-.51-.4-.27.03-.49-.3-.3-.44.16-.12.15-.29-.07-.52-.14-.14-1.67-.07-1.99-.71Zm-11.94,20.32c.28,3.78,6.1-13.06,6.16-14.04.01-.21-.11,0-.16.16"/><path class="cls-16" d="m643.94,485.33c-2.67,3.74-5.04,17.38-5.24,17.49-2.62,1.36-5.79,1.84-8.51.6-.8-.37-1.24-.39-1.96.16-1.18.9-2.54,1.54-4.06,1.7-.9.09-1.18-.1-1.47-.93-1.07-3.11-2.46-6.06-4.39-8.75-.22-.31-.43-.4-.8-.31-1.86.45-3.78.57-5.59.03-2.98-.88-5.4-3.4-4.86-6.92.5-3.27,2.24-5.56,4.96-7.28,1.31-.82,2.73-1.33,4.21-1.7.12-.03.23-.08.33-.12-.03-.18-.17-.22-.27-.26-2.73-1.3-4.56-3.55-6.38-5.86-1.73-2.2-1.63-4.55-1.08-7.08.72-3.28,2.95-5.27,5.67-6.85,1.57-.91,3.27-1.59,5.12-1.64,1.52-.04,3.02.03,4.5.57,2.94,1.07,5.97,1.66,9.12,1.28,1.89-.22,3.73-.69,5.52-1.32,1.8-.63,3.64-1.08,5.5-1.44,2.01-.38,4.03-.17,6.03.19,2.16.38,4.25,1.02,6.22,1.99,2.58,1.27,4.17,3.48,5.4,5.99,1.44,2.93,1.16,5.91.16,8.87-.46,1.35-1.42,2.26-2.78,2.8-2.34.94-4.74,1-7.18.63-.55-.08-2.46-.65-3.66,1.29m-19.51,6c-.23-.94-.85-2.56-1.19-3.46-.21-.55-1.15-.29-.92.33.32.88,1.25,1.08,1.46,1.84.37,1.35.79,5.37,1.21,6.24.13.28.56.14.5-.17-.24-1.33-.79-4-1.06-4.79Zm7.5-7.41c2.28.61,3.21-.76,5.22-1.64,1.96-.83,6.13.17,7.67.25,1.26.06,2.03-.01,2.34-1.28.26-1.1-2.53-3.35-.95-3.71,3.44-.79,4.37,1.51,5.04,3.04.76,1.13,2.13,1.2,2.39,1.11.75-.27.59-1.27.77-2.13.21-1.04,2.55-1.05,2.72-1.82.12-.56-.07-.94-.47-1.33-1.26-1.2-8.51-3.28-8.79-4.67-.13-.92-.01-1.9,2.27-1.47,2.26.43,3.82-2.21,1.46-3.39-1.98-1-4.09-1.71-6.31-2.05-.51-.08-3.27-.32-3.93.38-.15.16-1.61,2.2-3.34,1.7-1.22-.55-2.07-1.33-2.42-1.36-.3-.02-.92.18-1.64.44-.66.24-.76,1.57-2.01,1.71-1.06.08-.37-1.01-1.94-.93-3.01.15-2.2,2.74-3.17,2.86-1.78.22-3.18-1.28-4.29-2.14-1.52-1.17-3.16-1.14-5.63-1.82-2.48-.69-1.1,4.5-3.46,5.55-.65.29-4.14-.12-5.31.29-.75.26-2.44.76-.93,2.66.34.78-2.02.53-2.07,1.31-.07,1.14,1.03,1.98,2.11,1.64,1.06-.33,2.2-.91,3.7-.23,2.6,1.18-3.45,4.36.41,7.65.88.44,2.96,1.4,4.95,1.07,2.53-.48,7.01-3.25,8.39-3.4,2.33-.24,7.18,1.72,7.18,1.72Zm-18.16,3.25c.19-.4.02-.52-.35-.52-.14,0-.28.03-.42.07-1.03.25-1,.39-1.97.8-.43.18.29,1.52.45,1.71,1.04,1.28,1.6,3.4-.77,1.46-.72-.59-3.45-1.67-3.76-1.09.17.1.31.23.2.5-.22.56-.89-.24-1.32.34-.37.49-.26.27-.59.85,2.38.24,1.57.95-.17,1.12-.52.05-.95.45-1.11.95-.24.73.8,1.17.58,1.88s-.93,1.16-.91,1.43c.07.85.39,2.22,1.08,2.82.07-.14.21-.31.38-.46.23-.2.57.08.43.35-.26.51-.3.72.48,1.17.05.03.1.05.14.08.27.18.38.07.41-.21.07-.56.27-3.6,1.02-4.47,1.77-2.04,3.43-.43,2.25,1.34-.57.85-.94,2.01-1.13,2.99-.12.61.72,1.28,1.69,1.2.54-.04.49-.35.27-1.17-.11-.39-.21-.77.12-1.01.6-.46,1.04.59,1.09,1.52.02.35.15.46.5.43.67-.06.59-.17,1.22-.36.88-.26.51-1.07.24-1.93-1.15-1.82,1.05-2.57,1.29-.41.15.55-.1,1.81.34,1.58.71-.37,1.43-.75,2.11-1.17.73-.45-2.47-4.04-1.22-4.99,1.14-.85,4.8,2.29,5.55,1.06.14-.24.42-.81.68-1.68.02-.07.02-.14.05-.21.19-.43,0-.62-.41-.71-1.08-.23-1.61-.39-1.7-1.3-.07-1.47,1.32-1.59,1.19-1.85-.39-.76-.24-.72-.91-1.25-.23-.18-.45-.22-.74-.17-1.36.26-1.7,2.47-2.73,1.76-.21-.14-.49-1.43.71-1.97-.8-.18-.63-.22-1.4-.34-.1-.02-.46-.02-.48.09-.13.48-.32.29-.35-.08,0-.05-.1-.1-.16-.13-1.08-.52-.94-.55-1.28.58-.12.4-.89,0-.6-.64Zm9.95,6.65c-.14.22.46,1.19-2.4,3.76-.22.21-.24.46-.23.74.04,2.85.62,5.57,2.07,8.06.22.38.43.76.66,1.15s.83.25.87-.2c.43-4.55.11-8.98-.98-13.49Zm9.98,1.94c-.23.54.51.94.84.45.06-.1,1.27-2.58,1.65-3.16.72-1.1,2.79-4.23,4.27-6.18.38-.4.66-2.01-.4-2.23-.59-.12-1.15.11-1.58.54-.67.67-3.36,7.28-4.77,10.57Zm-.47-8.46c-1.2,2.8-.99,4.47-1.8,7.37-.16.61-.22,1.51.57,1.55.58.03.5-.74.73-1.44s1.45-4.61,3.07-7.65c.34-.63-1.15-1.43-1.78-1.08-.38.21-.69,1.11-.79,1.25Zm-3.25,7.93c.58-2.62.55-5.49.66-8.15,0-.14-.19-.38-.4-.41-.41-.08-.84,0-1.18.22-.25.16-.25.34-.22.6.07.53.13,1.07.16,1.6.1,1.82.37,3.75.08,5.58-.5,2.14.71,1.9.9.57Zm-4.98-7.17c.62,1.47.93,3.03,1.33,4.57.17.64.41,2.47.51,3.12.06.36.22.65.51.62.34-.04.37-.37.36-.54-.07-1.14-.3-2.99-.49-4.12-.19-1.11-.53-2.72-.91-3.79-.27-1.26-1.78-1.57-1.32.14Zm-4.42,17.64c-.08-.33-.98-2.17-1-2.22-.45-1.08-.95-2.14-1.24-3.28-.06-.23-.19-.29-.39-.17-.18.11-.51.13-.35.47.51,1.1,1,2.08,1.45,3.21.03.08.72,2.06,1.31,2.21.06.02.24-.1.22-.21Zm-.51-6.62c-.06-.28-.71-.59-.72.09,0,1.26.77,4.09,1.18,5.28.04.1.21,1.04.76.92.31-.07-.05-.77-.06-.88-.23-1.34-.86-3.9-1.16-5.42Zm-4.37,2.17c-.08.12.03.2.09.27.7.9,1.24,1.83,1.87,2.78.1.14,1.16,2.64,1.59,2.28.49-.34-.89-2.45-.97-2.58-.58-.96-1.29-1.82-2.05-2.65-.08-.09-.35-.35-.52-.09Zm2.64,6.31c1.01-.65-2.93-4.75-3.69-5.6-.1-.11-.22-.25-.36-.13-.16.14.04.25.12.34.62.7,1.15,1.45,1.63,2.24.13.22,1.7,3.52,2.29,3.14Z"/><path class="cls-16" d="m638.33,469.53c.02.35.97.94-1.02.53-.56-.12-1.12-.5-1.21.1-.1.67,1.98.27,1.9.96-.03.29-.73.07-.92,0-.62-.21-1.24-.44-1.87-.63-.49-.15-.83.15-.73.66.09.48.25.86.21,1.34-.04.35-.5.42-.62.16-.27-.55.15-.67.03-1.24-.06-.29-.29-.81-.67-.81-.84,0-1.7.67-2.32,1.85-.33.63-.34.75-.36.79-.11.17-.37.04-.31-.15s.15-.38.23-.56c.24-.52.57-.99.89-1.47.31-.46.3-.47-.27-.53-.54-.05-1.02.12-1.49.36-1.32.66-1.97,2.61-3,2.29-.92-.59.58-1.64,2.15-2.41.28-.14.19-.56-.13-.56-.22,0-.44.02-.65.05-2.68.37-4.92,1.65-6.98,3.34-.19.15-.78.68-1.01.45-.2-.2-.02-.62.13-.82,1.37-1.84,3.73-2.69,5.9-3.25.17-.04.66,0,.65-.37-.32-.33-.71-.44-1.13-.47-2.18-.19-4.24.2-6.17,1.26-.27.15-.52.37-.95.34-.93-.65,2.63-1.74,5.04-2.06.28-.04.31-.42.05-.51-.46-.16-.93-.27-1.41-.35-1.47-.24-2.93-.15-4.37.21-.44.11-.84.3-1.22.54-.11.07-.24.22-.37.06-.13-.15.01-.27.09-.38.3-.43.75-.66,1.23-.82,2.24-.78,4.5-.8,6.74-.05,1.14.38,2.23.88,3.34,1.32.31.12.61.23.94.3.36.08.62-.37.35-.62-.98-.95-.3-1.16-.09-1.05.33.17.46.48.74.78.33.3.65.46,1.01.19.4-.31-.36-1.24-.65-1.55-1.78-1.59-2.31-1.94-4.48-2.89-.61-.27-2.47-.3-2.34-1.28.08-.59,1.18-.29,2.16.08,2,.76,3.76,1.93,5.32,3.38.87.81,1.48,1.79,1.73,2.97.03.14.01.38.25.34.23-.03.15-.26.15-.4.06-1.46-.22-3.23-.64-4.6-.07-.22-.02-.82.23-.99.04-.03.61-.88,2.02-.31.45.18.52,1.02.49,1.14-.29,1.64-.42,3.07-.92,4.66-.05.16-.27.4.03.49.25.07.37-.13.44-.46.27-1.39.66-2.68,1.38-3.92.12-.25.49-.68.71-.94.33-.37.54-.03.46.13-.61,1.21-1.08,1.69-1.51,2.99-.17.51-.33,1.02-.48,1.53-.04.15-.15.35.03.43.2.09.39-.05.49-.26.24-.49.54-.95.86-1.39,1.87-2.58,4.1-4.37,7.17-5.28.65-.19,1.51-.39,2.16-.58.16-.05.39-.16.47.07.08.21-.2.4-.35.49-1.14.64-2.23,1.11-3.43,1.62-1.57.81-2.58,1.66-3.53,2.74s-.16,1.46.22,1.33c1.76-.61,2.15-.76,3.92-1.33,2.87-.93,5.63-.72,8.5.13,1.56.46,1.94,1.91.43,1.38-3.16-1.12-5.41-1.23-8.58.03-.33.13-.4.58,0,.7,1.43.63,2.72,1.65,4.27,2.91.14.11.48.51.35.7-.11.16-.42.05-.59-.01-.93-.35-1.75-.9-2.6-1.39-1.62-.93-2.73-1.45-4.58-1.83-1.09-.23-1.91-.24-1.88.4Z"/><path class="cls-12" d="m190.26,273.38c-1.12-.18-1.97-1.08-2.11-2.21-.14-1.13-.54-2.34-1.6-2.23-1.17.12-2.12,4.03-2.45,4.34-1.01.95-2.75,1.18-3.2,1.24-.64.1-.01,2.22-.69,2.25-1.04.03-1.76-1.58-2.09-1.53-.25.04,2.74-1.86,2.22-2.97-.48-1.03-.91,2.13-4.08,2.35-1.44.1-2.3-4.49-3.18-4.3-1.05.23-.83,5.49-1.19,5.54-2.6.38-4.64.66-5.24.72,1.21-.79,2.16-1.8,1.91-2.95l-.89.19c-.17,1.7-.89-1.09-2.42-.01-.59.41,2.1.91,1.6,1.78-1.83,1.67-3.75,1.32-3.99,1.33-.36.02-.64.19-.8.47,0,0,0,0,0,0l-.06-9.29c.86-.03.88-.06,1.54-.08.3-.01.79,2.51,1.56,2.57.63.05.93-2.74,1.2-2.76,1.71-.11,2.22-.51,2.31-.53,0,0,.81,1.07,1.02.95.15-.08-.38-1.36-.26-1.48.26-.27.47-.84-.14-1.19-.03-.01-.84,2.32-7.22,1.01l-.1-3.16c.42-.22.46-2.19.57-2.64.22-.91.36-1.63.47-2.21.13-.65.26-1.33.39-1.42,0,0,.09,1.14.41,1.21.18.04.34-1.08.54-1.03,1.15.35,2.58.78,5.79-1.14,3.46-2.07,4.35-4.11,4.48-4.43.1-.19,1.18-2.41,2.52-2.52,2.27-.18,3.46,1.94,4.18,2.43l.83-.8c-.95-.64-4.37-4.59-5.22-4.15-2.53,1.31-3.28-2.15-4.21-1.32-.84.75,1.06,6.03,1.06,6.03,0,.02-.74,1.97-4.1,3.98-.57.34-1.08.6-1.53.8-.19-.19-.55-.61-.61-1.19-.07-.59.18-1.21.72-1.86,1.9-2.25,3.4-3.75,3.41-3.77l-.64-.64s-.85.85-2.07,2.22c-.12.13-.24.27-.37.41-.18.21-2.07-1.97-2.64-1.27-.56.69,1.49,2.58,1.33,2.76-.71.84-.74,1.4-.64,2.25.07.61.34,1.09.6,1.42-1.21.34-1.94.12-2.61-.08-.2-.06-.16-2.78-.37-2.83-.35-.08-1,2.53-1.34,2.76-.45.3-.56.87-.78,2.01-.08.43-.17-2.96-.3-2.35l-.11-8.38c.25-.12-.25-.39-.23-.56.03-.19.54-.31.22-.52l-.02-2.24c.07-.26.2-.51.42-.65.52-.34,1.56-.1,2.93.69.67.39,1.32.66,1.93.8.39.09.93,2.54,1.3,2.53.41-.01.66-2.49,1.03-2.63,1.75-.67,2.39-2.51,2.41-2.59l-.55-.19c-.27-.09-.57.06-.68.32-.65,1.62-1.14.32-2.04.66-.96.36-1.6,1.09-2.95.31-1.75-1.01-3.02-1.23-3.88-.66-.04.02-.07.05-.1.08-.05-.29.34-1.11.17-1.42-.12-1.28-.55-2.11,0-2.74.24-.29.67.17,1.13.21.47.05.81-.5,1.22-.52-.02.18,0,.39.1.61.29.65,1.11,1.04,2.51,1.21.48.06,1.09,1.66,1.51,1.68.81.03.37-.71,1.14-1.81.31-.45,1.64-.56,2.58-.85.39-.12-.45-.52-.45-.52-.02,0-1.86.93-4.68.6-1.44-.17-1.73-.56-1.78-.67-.07-.15,0-.3.03-.33,2.1-.33,3.18-1.38,3.24-1.44l-.64-.64c-2.37.82-4.37,1.48-4.72,1.4-.7-.15,2.02-1.89-.08-2.11-.75-.08-.71,1.31-1.15,1.82-.5.59-1.41,2.33-1.4,3.64-.16-.09-1.72-.37-1.83-.74-.23-.75.82-1.69.53-1.82-.79-.34-1.63,1.55-3.27.29-.67-.51-.19-1.63.36-2.29l-.7-.58c-.18.21-.32.44-.44.67-.13.26-1.66-.17-1.78.09-.44.96,1.47,1.02,1.47,1.17-.01.43.07.87.24,1.3.23.55.6,1.02,1.09,1.4-.35.55-1.36,1.79-2.93,1.12l-.35.84c.44.19.86.27,1.24.27.28,0,1.01,1.47,1.26,1.39.33-.1.16-1.76.42-1.95.5-.34.88-.8,1.13-1.2.51.24,1.09.39,1.73.45.91.08,1.54.37,1.89.87,0,0,0,0,0,0,.11,1.01.3,1.9.4,2.31-.02.24-.05,1.08-.13,1.65-.75.52-2.11-2.15-2.82-1.96-.7.13,1.4,2.73-.24,2.73-.57,0-1.09-.02-1.56-.07-.47-.04-.49-1.86-.86-1.94-.51-.11-1.35,1.5-1.7,1.35-1.65-.7-1.79-1.71-1.79-1.72l-.91.07c0,.13.32,3.21,6.82,3.21,1.42,0,2.38-.04,3.05-.11-.05,1.12-.09,2.3-.14,3.52-.73.39-1.95.94-2.74.9l-.05.91s0,0,0,0c.88.05,1.98-.39,2.75-.77-.06,1.83-.12,3.76-.18,5.78-.51-.12-1.57-.23-2.89-.17-.35.02-.84-2.08-1.22-2.04-.44.05-.76,2.24-1.22,2.33-.67.13-1.35.32-2.03.56-2.28.84-1.46-3.67-2.55-3.58-.88.08-.07,1.8-2.67,2.9-1.02.43-3.84-1.12-6.66-1.03l-.7,1.34c5.37-.32,2.63,3.54,5.08,4.54,2.43.99,1.93-2.76,6.39-2.4,1.19.1,2.41-.31,3.63-.94,2.18-1.12,3.76-.1,4.55.12-.04,1.4.54,1.08.5,2.56-.75-.23-2.17.84-3.62,1.12-1.71.33-2.73.63-3.41.83q-1,.29-1.43-.08l-.59.69c.44.37.75.59,1.11.51,1.69-.37,1.44,1.74,1.95,1.59.66-.19-.75-2.14,2.55-2.65,1.93-.3,2.74-.19,3.09,0-.02.94-.07,1.34-.09,2.3-1.01.15-1.51,1.02-1.63,1.53-.19.82.88,1.6,1.59,2.03-.02,1.02-.04,2.05-.06,3.09-.16-.16-.36-.3-.58-.43-.89-.49-2.02-.5-3.35-.02-1.46.53-2.51.69-5.02.94,0,0-1.38.02-1.8-.13-1.6-.55-.44-3.24-1.62-3.45-2.8-.52-.73,2.96-2.13,4.03-.13.1-2.06-.05-2.63.02-.59.07-1.17-.09-1.64-.43-.44-.32-.58-.92-.36-1.42.12-.26.23-.55.21-.71-.1-1.11-.85-1.79-1.97.53l-1.2-.16-.43.79,5.22,2.52c.2,0,2.58-.1,5.39-.33l-3.35,2.51-12.07-1s.32-3.19-.51-3.29c-.84-.1-1.85,3.05-1.85,3.05l-3.53-.25-.14.63,1.45.57-.39.36c-.33.3-.12.85.33.85l.82-.02c.92-.02,1.75.56,2.03,1.43.51,1.56,1.41,3.83,2.33,3.99,1.13.19,2.65-2.3,3.53-3.95.46-.87,1.37-1.41,2.35-1.4l3.33.04s.01,2.37.83,2.39c.85.02.7-2.45.7-2.45l1.1-.05.77-.52c.48-.33,1.11-.35,1.62-.08.53.28,1.18.55,1.39.34.17-.17.05-.67-.12-1.14-.23-.64-.02-1.36.53-1.76l.56-.42c5.74-1.51,4.46,2.07,5.96,1.53,1.07-.39-2.09-2.96,3.17-2.75.72.03-.01,2.11.08,2.38-.06,3.05.75,3.54.7,6.73-1,.02-3.04,1.42-4.28.35-.61-.53-.93-1.21-.98-2.09l-.91.05c.06,1.12.49,2.04,1.3,2.73,1.4,1.2,3.57,1.39,4.76,1.39.06,0,.11,0,.17,0-.04,2.54-.07,5.1-.1,7.68-2.03-.43-2.8-.85-3.02-1.29-.48-.95,1.02-2.55-.03-3.12-1.41-.77-1.05,1.97-2.34,2.29-.34.08-1.67-.72-2.28-.87-3.32-.79-1.78-2.43-2.65-2.82-1.07-.48-1.11,1.67-1.32,1.65-1.87-.15-2.91.42-2.97.45l-.07.84s.79-.36,2.16-.39c1.26-.02,3.29.25,5.8,1.66,1.73.97,3.12,1.58,4.21,1.95-.65.63-1.9,1.52-3.66,1.43l-.04.91c.1,0,.19,0,.28,0,2.29,0,3.8-1.38,4.4-2.06.66.17,1.28,1.27,1.63,1.29-.01,1.04-.06,1.73-.11,2.48-.06,1.02-.94,1.8-1.96,1.73-.53-.04-.7-.11-1.3-.19-.25-.03-.03-2.22-1.01-2.3-.82-.06-1.57,1.77-1.82,1.72-1.23-.25-1.5-.3-2.35-.87-1.13-.76-1.09-1.18-1.07-1.4.02-.15.04-.4-.16-.61-.28-.28-.7-.26-2.28-.14-.72.05-.67.09-1.31.13-1.8.12-.61-2.85-1.56-2.83-1.43.03-.08,3.01-2.02,2.98-1.95-.02-1.65,0-1.67,0v.91s1.48.06,1.94.04c.14,0,1.12,2.33,2.06,2.25.92-.08,1.43-2.49,1.49-2.5.77-.04.22-.02,1.12-.09.44-.03,1.11-.08,1.46-.08-.01.45.13.96.82,1.58-.29.7-.43,1.86.49,2.93.27.32.21.47.19.53-.07.18-.9-.89-1.3-.74-.66.25.34,1.41.18,1.46-.65.23-1.56.42-2.7.51l.07.91c1.2-.09,4.04-.45,4.59-1.79.14-.33.19-.85-.34-1.47-.58-.67-.54-1.34-.41-1.76.93.6,2.18,1.17,3.47,1.66.34.13.68.25,1.02.37.33.11.66.22.98.32,1.46.44,2.76.72,3.46.73-.05,4.25-.21,6.19-.24,10.37-.42.32-1.23,1.68-2.44,1.61-2.32-.13-4.29-1.81-4.31-1.82l-.59.69c.09.08,2.22,1.89,4.85,2.04.13,0,.24,1.64.97,1.59.88-.07.95-1.77,1.45-2.02-.01,1.58-.03,3.15-.04,4.71-6.13,3.18-3.74-2-5.28-2.19-2.24-.29-1.43,3.63-2.11,3.46-1.05-.27-2.1-.34-3.62-.13-1.63.23-2.27-1.78-2.97-1.62-1.1.24.59,2.48-1.29,3.05-.84.25-2.71-.5-2.94-.64,0,0,.04.02.08.07l-.69.6c.21.24,2.01.91,3.24.91.17,0-.26,2.83.97,2.55.55-.12.56-2.89,1.19-3.13.66-.25,1.47-.57,2.65-.9,1.25-.35,2.13-.13,3.15.14.74.19,1.5.38,2.45.38,1.57,0,4.13,1.42,5.46.82.37,10.85.09,11,.06,17.55-1.03-.09-2.38-.02-4.32.41-.32.07-.95-2.34-1.76-2.09-.71.22-.83,2.66-1.14,2.74-2.04.5-3.56,1.08-5.65,1.59l.21.88c1.28-.31,2.59-.52,3.86-.65.34-.04.56,1.32.89,1.29.32-.03.76-1.43,1.07-1.45,2.66-.14,4.98,0,6.32.11-.06,14.26-.06,24.17-.06,24.47v6.23l6.08,1.82c.01-.35,2.09-39.05.78-53.22-.42-4.59-1.79-5.76-2.08-11.57,3.14-.23,4.65.02,5.11.7.59.88.04,2.38,1.39,2.16.67-.11.27-1.47,0-2.16-.2-.53,1.77-.52,3.79-.58,1.69-.05,2.44-.84,3-1.29.48-.38.72-.57,1.35-.44l.19-.89c-5.95,3.23-2.08-.53-3.08-.91-3.56-1.37-.16,2.42-1.59,2.62-1.74.25-5.09.02-7.52-.2-1.55-.14-2.76-1.41-2.82-2.97-.08-1.97-.13-3.85-.2-5.88.91-.01,3.9.12,6.23-.86,3.22-1.36,3.09.89,3.67.47.58-.42-1.6-1.93,2.15-2.76l-.18-.89c-2.15.43-2.87.95-3.5,1.41-.53.38-.95.69-2.28.88-.25.04-.5.07-.75.1,1.51-.54,2.91-1.32,3.54-2.46.2-.36.28-.37.31-.76,0-.1,1.71-.14,1.67-.82-.05-.82-1.62-.1-1.63-.22-.06-.45-.21-.91-.46-1.39l-.81.42c.46.89.5,1.65.12,2.33-.53.94-1.82,1.63-3.26,2.12-.23.08-.47-1.97-1.22-1.66-.73.31-.01,2.02-.28,2.09-.48.12-.96.16-1.41.17-1.14.02-2.09-.87-2.13-2.01-.09-3-.12-5.63-.15-8.18.3.06.69.11,1.1.11.54,0,1.12-.09,1.61-.37.53-.31.87-.79,1.02-1.43l-.89-.2c-.09.39-.28.66-.58.84-.64.37-1.63-.52-2.22-.65-.03-3.66-.29-5.21-.16-6.62,0,0-.03-1.65,1.17-1.61.96.04,1.34,1.51,1.87,1.34,1.22-.39-.89-1.77-.19-2.07,1.14-.11,2.95-.33,8.55-.96,2.9-.33,5.87,2.15,7.14,1.86,1.42-.33,1.59-3.42,2.84-3.61,1.78-.26,3.28-.48,4.23-.6.85-.11,1.79.01,2.17-.75l-.55-.09Zm-31.1-4.82s.1-.16.76-.28c0,.33-.01.67-.02,1.01-.42-.3-.73-.6-.73-.73Z"/><polygon class="cls-12" points="741.77 136.28 741.06 131.46 745.71 129.92 746.42 134.73 741.77 136.28"/><polygon class="cls-12" points="647.05 170.33 656.64 166.41 662.19 175.25 652.6 179.17 647.05 170.33"/><polygon class="cls-15" points="698.56 207.83 698.96 200.88 705.93 200.06 705.53 207.02 698.56 207.83"/><polygon class="cls-16" points="799.48 191.47 798.47 184.58 805.13 182.37 806.15 189.26 799.48 191.47"/><polygon class="cls-16" points="737.84 206.43 740.05 203.48 743.36 205.16 741.15 208.11 737.84 206.43"/><polygon class="cls-16" points="645.89 118.2 649.36 113.58 654.55 116.21 651.08 120.83 645.89 118.2"/><polygon class="cls-13" points="686.25 141.83 686.09 137.83 690.17 136.94 690.34 140.94 686.25 141.83"/><polygon class="cls-16" points="722.42 159.06 732.59 156.44 736.97 166.07 726.8 168.7 722.42 159.06"/><polygon class="cls-13" points="772.47 171.53 780.79 177.92 775.9 187.3 767.57 180.9 772.47 171.53"/><polygon class="cls-17" points="701.63 242.84 703.78 240.59 706.39 242.33 704.24 244.59 701.63 242.84"/><polygon class="cls-17" points="658.59 139.95 661.58 140.83 661.23 143.95 658.24 143.07 658.59 139.95"/><polygon class="cls-17" points="704.07 180.68 699.93 179.42 700.46 175.09 704.6 176.35 704.07 180.68"/><polygon class="cls-16" points="716.59 312.04 716.99 305.09 723.96 304.27 723.56 311.22 716.59 312.04"/><polygon class="cls-13" points="740.89 252.23 751.37 251.72 753.71 262.04 743.22 262.55 740.89 252.23"/><polygon class="cls-16" points="714.04 271.67 716.19 269.41 718.81 271.15 716.66 273.41 714.04 271.67"/><polygon class="cls-13" points="706.08 290.28 702.28 288.2 703.68 284.07 707.48 286.15 706.08 290.28"/><polygon class="cls-17" points="587.64 125.03 586.28 122.23 588.83 120.39 590.18 123.2 587.64 125.03"/><polygon class="cls-16" points="614.23 122.18 612.87 119.38 615.42 117.54 616.77 120.34 614.23 122.18"/><polygon class="cls-13" points="628.86 136.17 625.58 139 622.21 136.23 625.48 133.41 628.86 136.17"/><polygon class="cls-12" points="777.55 221.3 773.41 220.04 773.94 215.7 778.08 216.97 777.55 221.3"/><path id="Trail_of_legends" class="cls-14" d="m247.27,507.67h-9.64v60.61h-9.92v-60.61h-9.64v-7.5h29.21v7.5Zm32.95,13.06c0,13.23-7.02,19.59-10.3,21.7,2.15,2.47,4.87,6.18,6.74,10.59,2.34,5.29,3,10.59,3,15.26h-9.74c0-3.88-.66-8.21-2.25-12-1.69-3.97-4.03-7.32-5.8-9.18v21.17h-9.92v-68.11h7.77c10.49,0,20.5,5.12,20.5,20.56Zm-9.92.09c0-10.15-4.03-13.06-8.43-13.06v30c2.06-.26,8.43-5.38,8.43-16.94Zm44.09,47.47h-9.27l-1.78-12.09h-9.92l-1.69,12.09h-8.8l10.95-68.11h9.55l10.95,68.11Zm-12.08-19.59l-3.93-28.5-3.93,28.5h7.86Zm26.68,19.59h-9.92v-68.11h9.92v68.11Zm32.02,0h-23.31v-68.11h9.92v60.61h13.39v7.5Zm48.59-34.06c0,29.47-8.43,34.5-16.38,34.5s-16.48-5.03-16.48-34.5,8.52-34.5,16.48-34.5,16.38,5.03,16.38,34.5Zm-9.92,0c0-22.67-3.28-27-6.46-27s-6.46,4.32-6.46,27,3.28,27,6.46,27,6.46-4.32,6.46-27Zm41.38-26.56h-13.86v30.7h10.95v7.5h-10.95v22.41h-9.92v-22.41h-3.09v-7.5h3.09v-38.2h23.78v7.5Zm40.91,60.61h-23.31v-68.11h9.92v60.61h13.39v7.5Zm27.62,0h-23.78v-22.41h-3.09v-7.5h3.09v-38.2h23.78v7.5h-13.86v30.7h10.95v7.5h-10.95v14.91h13.86v7.5Zm35.39-2.03c-1.97,1.15-5.62,2.47-10.67,2.47-8.15,0-20.97-3.88-20.97-34.59s12.36-34.41,19.85-34.41c3.56,0,6.27.79,6.27.79v7.23c-1.31-.26-2.72-.53-4.4-.53-4.31,0-11.7,3.26-11.7,26.91s6.46,27.09,11.33,27.09c.66,0,1.03-.09,1.03-.09v-14.12c0-7.23-1.69-8.38-4.4-8.38-.56,0-1.12,0-1.59.09v-7.41s1.5-.26,3.28-.26c7.21,0,11.98,4.5,11.98,16.76v18.44Zm31.73,2.03h-23.78v-22.41h-3.09v-7.5h3.09v-38.2h23.78v7.5h-13.86v30.7h10.95v7.5h-10.95v14.91h13.86v7.5Zm36.14,0h-4.77l-16.2-38.82v38.82h-9.55v-68.11h4.77l16.1,39.08v-39.08h9.64v68.11Zm37.82-34.06c0,29.64-11.61,34.06-22,34.06h-7.02v-68.11h7.02c10.39,0,22,4.41,22,34.06Zm-10.02,0c0-22.41-5.43-26.56-9.08-26.56v53.11c3.65,0,9.08-4.15,9.08-26.56Zm40.63,16.94c0,12.35-8.99,17.56-17.41,17.56-4.03,0-7.12-.79-9.74-2.38l3.46-6.62c1.59.88,3.84,1.41,6.27,1.41,3.37,0,7.49-2.56,7.49-9.09s-3.56-12.09-8.05-18.09c-6.18-8.29-8.71-13.23-8.71-19.85,0-8.91,6.09-14.38,15.35-14.38,3.56,0,6.74,1.15,7.77,1.76l-3.37,6.53c-1.31-.53-2.62-.88-4.49-.88-3.09,0-5.52,2.21-5.52,6,0,4.85,3.09,9.35,7.58,15.35,5.9,8.03,9.36,14.12,9.36,22.67Z"/><g class="cls-3"><g id="trail"><path id="Trail_-_Gradient" class="cls-1" d="m224.97,545.61c.51,1.02,1.3,2.05,2.21,2.94.92.89,1.98,1.64,3.08,2.18,1.11.53,2.25.84,3.36.87,1.11.04,2.21-.2,3.28-.76.53-.28,1.06-.63,1.57-1.05.23-.18.57-.52.86-.8l.92-.89c1.22-1.19,2.47-2.38,3.73-3.57,2.52-2.37,5.1-4.71,7.78-6.98,1.34-1.14,2.72-2.25,4.16-3.33,1.46-1.07,2.96-2.11,4.76-2.98l1.18-.57,1.3-.65c.7-.35,1.38-.72,2.05-1.12l1.12-.66c.34-.21.69-.41,1.03-.63.7-.46,1.4-.91,2.08-1.39,1.37-.95,2.68-1.95,3.99-2.97,1.31-1.02,2.63-2.07,4.08-3.11,1.45-1.03,3.04-2.03,4.71-2.88l.63-.32.57-.28,1.14-.55,2.32-1.12c1.58-.74,3.24-1.5,5.08-2.14,1.84-.65,3.87-1.13,5.89-1.32,2.01-.2,3.97-.15,5.83.04.93.09,1.84.21,2.75.35.89.14,1.73.29,2.58.43,3.37.58,6.71,1.18,10.02,1.58.82.1,1.64.18,2.44.25.79.06,1.6.1,2.24.08.24,0,.68-.06,1.05-.1.39-.05.78-.1,1.17-.17.78-.13,1.57-.28,2.36-.46,1.57-.35,3.14-.8,4.66-1.32.76-.26,1.51-.55,2.22-.86.18-.08.36-.16.53-.24l.55-.26c.42-.21.84-.41,1.27-.59,1.72-.74,3.51-1.3,5.35-1.64,1.84-.34,3.75-.46,5.67-.28,1.92.19,3.86.72,5.62,1.69.44.24.86.51,1.28.8.2.15.4.3.6.45l.51.41,2.01,1.62c2.65,2.16,5.2,4.23,7.99,5.48,2.78,1.28,5.88,1.77,9.1,1.88l1.23.03c.45.01.9.01,1.35.04.9.03,1.81.11,2.71.2,1.81.19,3.62.49,5.4.91,1.78.42,3.52.96,5.2,1.54,1.68.58,3.29,1.19,4.85,1.74,1.56.55,3.06,1.02,4.55,1.35,1.46.31,3.05.53,4.61.65,3.15.26,6.37.12,9.86.02,1.74-.05,3.56-.07,5.48.05.96.06,1.93.16,2.92.32.98.15,2.01.37,2.98.65,1.68.47,3.35.92,5.07,1.47,1.72.54,3.49,1.15,5.27,1.92,1.78.78,3.53,1.73,5.12,2.72,1.59,1,3.09,2.03,4.52,3.06,1.44,1.03,2.83,2.05,4.21,3.08l4.09,3.04c2.71,1.99,5.42,3.93,8.15,5.77,2.73,1.83,5.48,3.56,8.23,5.01,1.37.73,2.74,1.39,4.08,1.93,1.34.54,2.65.97,3.88,1.23,1.23.26,2.36.35,3.37.27,1.02-.09,1.94-.32,2.88-.76.24-.11.46-.22.72-.37l1.01-.58,2.2-1.28,4.45-2.59c5.96-3.44,11.99-6.81,18.13-10.03,3.07-1.61,6.18-3.18,9.35-4.7,1.58-.76,3.18-1.5,4.81-2.22,1.62-.72,3.27-1.42,4.97-2.08.43-.17.83-.33,1.31-.5.46-.17.93-.34,1.39-.49.47-.16.93-.3,1.4-.44.47-.14.93-.27,1.39-.39,1.85-.5,3.69-.89,5.49-1.21,3.61-.64,7.09-1.03,10.41-1.47,3.32-.43,6.49-.91,9.46-1.63,1.49-.36,2.92-.78,4.3-1.28l1.02-.39.96-.4s.05-.02.22-.11c.12-.06.27-.14.43-.24.31-.17.65-.38.99-.58,1.37-.83,2.77-1.72,4.16-2.63.69-.45,1.38-.91,2.05-1.36l.98-.67c.31-.21.64-.45.82-.59.03-.02.15-.11.37-.3l.54-.44c.36-.29.73-.58,1.09-.87.73-.57,1.48-1.13,2.24-1.67,1.52-1.08,3.08-2.11,4.71-3.06,1.63-.95,3.33-1.83,5.12-2.62,1.78-.78,3.66-1.46,5.67-1.97,2.01-.5,4.15-.83,6.45-.79,2.28.03,4.74.49,7.03,1.54,1.14.52,2.22,1.19,3.2,1.95.25.19.48.39.71.59l.4.35c.13.11.29.24.43.36.14.12.29.24.45.37,1.24.99,2.6,2.02,3.96,3.07,2.74,2.09,5.51,4.27,8.2,6.58,5.38,4.6,10.49,9.69,14.88,15.44.55.71,1.08,1.45,1.61,2.18.51.75,1.05,1.48,1.54,2.25l.75,1.14.72,1.16c.49.77.92,1.57,1.38,2.36.22.4.43.8.65,1.2l.32.6c.1.19.22.41.34.66.46.94.81,1.79,1.15,2.63.67,1.67,1.26,3.27,1.87,4.83.61,1.56,1.22,3.08,1.88,4.53.65,1.44,1.35,2.83,2.1,4,.37.58.76,1.11,1.13,1.51.36.41.71.67.86.76.08.04.1.05.08.05-.02,0-.08,0-.09.01-.03,0-.03.01.28-.06l15.02-9.1c4.47-2.71,9.32-4.71,14.41-5.95,8.73-2.12,21.84-5.31,22.14-5.37,1.83-.36,11.05-2.02,9.7,2.12-1.96,2.83-11,1.5-36.54,11.98-2,.82-3.92,1.83-5.73,3.02l-17.05,11.15c-.11.03-.52.14-.97.21-.86.14-1.78.13-2.64-.03-.86-.16-1.65-.45-2.33-.8-1.36-.71-2.33-1.58-3.13-2.42-.79-.85-1.43-1.7-2-2.54-1.13-1.69-1.99-3.35-2.79-5-.79-1.65-1.49-3.29-2.16-4.89-.67-1.61-1.31-3.2-1.95-4.68-.32-.74-.64-1.46-.95-2.05-.07-.13-.15-.28-.26-.47l-.29-.52c-.2-.35-.39-.7-.59-1.04-1.63-2.74-3.46-5.37-5.5-7.87-4.05-5.01-8.81-9.49-13.94-13.61-2.57-2.07-5.23-4.03-7.98-6.01-1.38-.99-2.77-1.98-4.24-3.08-.18-.13-.37-.28-.56-.43-.19-.15-.37-.28-.57-.45l-.58-.47c-.1-.07-.19-.15-.28-.22-.38-.28-.77-.49-1.19-.67-.84-.34-1.81-.52-2.94-.5-1.13.02-2.38.23-3.68.6-2.6.74-5.31,2.08-7.9,3.69-1.3.81-2.57,1.69-3.81,2.62-.62.47-1.23.95-1.83,1.45-.3.25-.6.5-.89.75l-.44.38c-.11.1-.31.27-.62.52-.49.39-.85.66-1.23.95l-1.11.81c-.73.53-1.45,1.03-2.18,1.53-1.45,1-2.91,1.98-4.44,2.95-.4.25-.78.49-1.21.75-.2.12-.43.26-.68.4-.2.12-.55.3-.92.48-.31.15-.47.21-.72.33l-.67.3-1.36.55c-1.82.7-3.66,1.28-5.48,1.76-3.65.97-7.25,1.55-10.7,2.06-3.45.51-6.76.94-9.87,1.53-1.56.3-3.06.64-4.5,1.04-.36.1-.72.2-1.07.32-.35.11-.7.22-1.05.34-.35.11-.68.24-1.02.37-.32.12-.71.28-1.08.42-1.48.59-2.97,1.24-4.47,1.92-1.49.67-2.99,1.39-4.49,2.11-2.99,1.45-5.98,2.98-8.95,4.54-5.95,3.13-11.87,6.42-17.77,9.77l-4.43,2.53-2.24,1.28-.58.33-.64.36c-.48.26-1.03.54-1.57.77-2.17.98-4.62,1.59-7.01,1.73-2.4.15-4.7-.13-6.8-.63-2.11-.5-4.03-1.2-5.84-1.99-1.81-.79-3.5-1.67-5.11-2.6-3.23-1.86-6.2-3.89-9.06-5.99-2.86-2.1-5.6-4.28-8.28-6.49l-2-1.66-1.96-1.65-1.94-1.63c-.64-.53-1.29-1.08-1.93-1.6-1.28-1.06-2.54-2.04-3.79-2.95-1.25-.9-2.46-1.68-3.76-2.37-2.61-1.36-5.72-2.5-8.9-3.64-.66-.24-1.29-.43-1.99-.6-.69-.17-1.4-.3-2.15-.41-1.49-.22-3.09-.33-4.76-.41-3.34-.16-6.97-.28-10.61-.86-1.83-.29-3.61-.66-5.46-1.21-1.82-.55-3.53-1.23-5.15-1.93-1.62-.7-3.15-1.42-4.67-2.06-1.51-.64-3.01-1.21-4.53-1.67-1.52-.47-3.07-.83-4.64-1.1-.79-.13-1.58-.24-2.38-.32-.4-.05-.8-.07-1.2-.11l-1.33-.1c-1.8-.17-3.62-.43-5.43-.89-1.81-.45-3.6-1.1-5.28-1.96-1.68-.86-3.22-1.92-4.63-3.02-1.41-1.11-2.71-2.27-3.99-3.4l-1.91-1.68-.48-.41-.41-.33c-.28-.21-.57-.41-.88-.59-1.22-.71-2.64-1.14-4.12-1.26-2.98-.26-6.13.57-8.85,2.01-.34.18-.68.37-1.01.57l-.58.34c-.2.12-.41.23-.61.34-.81.44-1.63.84-2.46,1.21-1.65.74-3.33,1.37-5.06,1.91-.86.27-1.74.51-2.63.73-.44.11-.9.2-1.35.3-.47.08-.87.18-1.49.24-1.07.11-1.97.12-2.88.12-.91,0-1.79-.02-2.67-.04-1.76-.05-3.49-.13-5.22-.22l-5.15-.27c-.85-.05-1.7-.09-2.52-.12-.79-.03-1.59-.03-2.36-.02-1.55.02-3.02.16-4.4.42-1.38.27-2.66.67-4.02,1.23-1.35.56-2.79,1.26-4.29,2l-2.29,1.13-2.27,1.1c-1.39.67-2.76,1.38-4.21,2.15-1.45.77-3,1.58-4.6,2.34-1.6.76-3.24,1.49-4.89,2.15-.82.35-1.64.66-2.46,1l-2.45.97c-.82.31-1.62.64-2.43.97l-1.21.48-.6.25c-.2.08-.41.17-.56.24-1.31.57-2.66,1.45-3.95,2.4-1.29.97-2.54,2.05-3.75,3.18-2.42,2.27-4.68,4.77-6.9,7.32l-3.34,3.86-1.76,2.02c-.71.78-1.51,1.52-2.41,2.17-1.8,1.3-4.02,2.23-6.31,2.54-2.3.32-4.6.08-6.72-.51-2.12-.6-4.08-1.53-5.89-2.7-1.81-1.17-3.45-2.6-4.94-4.35l-.07-.08c-1.79-2.12-1.81-5.36.21-7.26,2.16-2.02,5.54-1.81,7.43.42.27.32.5.68.68,1.04Z"/></g></g><g id="Logo"><g id="Lines_behind_text"><rect class="cls-15" x="541.51" y="313.37" width="72.3" height="16.59"/><rect class="cls-13" x="349.9" y="382.7" width="92.19" height="16.59"/><rect class="cls-17" x="552.08" y="250.29" width="108.51" height="16.6"/><rect class="cls-16" x="279.37" y="250.29" width="70.61" height="16.59"/></g><g id="HERCULES_MARATON"><g id="Maraton"><path class="cls-14" d="m671.17,415.9h-9.87l-27.34-49.94v49.94h-20.15v-102.53h9.87l27.34,49.94v-49.94h20.15v102.53Z"/><path class="cls-14" d="m604.22,364.64c0,41.97-13.53,51.93-29.6,51.93s-29.6-9.96-29.6-51.93,13.53-51.27,29.6-51.27,29.6,9.3,29.6,51.27Zm-21.14,0c0-28.29-3.95-34.67-8.46-34.67s-8.46,6.38-8.46,34.67,3.95,35.33,8.46,35.33,8.46-7.04,8.46-35.33Z"/><path class="cls-14" d="m541.51,329.97h-16.35v85.93h-21.14v-85.93h-16.21v-16.6h53.7v16.6Z"/><path class="cls-14" d="m489.22,415.9h-19.17l-2.25-16.6h-14.09l-2.26,16.6h-19.03l16.35-102.53h24.1l16.35,102.53Zm-23.82-33.2l-4.65-39.18-4.93,39.18h9.58Z"/><path class="cls-14" d="m424.25,345.25c0,19.79-10.01,28.95-14.8,32.01,3.24,3.59,7.75,9.56,10.57,16.34,3.24,7.7,3.81,15.27,3.81,22.31h-21.14c0-5.05-.56-10.23-2.82-15.54-2.4-5.58-5.64-9.83-8.03-11.95v27.49h-21.14v-102.53h16.63c20.15,0,36.93,10.09,36.93,31.87Zm-21.14.13c0-9.7-4.09-15.14-11.27-15.14v36.52c3.24,0,11.27-7.7,11.27-21.38Z"/><path class="cls-14" d="m360.83,415.9h-19.17l-2.25-16.6h-14.09l-2.26,16.6h-19.03l16.35-102.53h24.1l16.35,102.53Zm-23.82-33.2l-4.65-39.18-4.93,39.18h9.58Z"/><path class="cls-14" d="m295.15,415.9h-20.15v-42.23l-8.6,19.92h-8.46l-8.6-19.92v42.23h-20.15v-102.53h9.87l23.11,52.73,23.11-52.73h9.87v102.53Z"/></g><g id="Hercules"><path class="cls-14" d="m682.02,270.74c0,18.46-12.97,28.42-30.16,28.42-7.05,0-12.54-1.33-17.48-4.12l7.75-15.01c2.4,1.33,5.92,2.26,9.72,2.26,5.36,0,9.44-3.45,9.44-8.9,0-8.23-4.65-14.61-12.4-23.77-9.44-11.29-13.11-18.86-13.11-28.29,0-15.94,10.71-26.03,27.62-26.03,5.36,0,10.57,1.33,13.81,3.05l-7.47,14.34c-1.97-.66-3.66-1.06-6.34-1.06-4.51,0-7.33,3.05-7.33,6.91,0,6.64,4.37,12.09,12.26,21.52,9.72,11.55,13.67,19.39,13.67,30.68Z"/><path class="cls-14" d="m626.63,298.5h-44.11v-31.61h-5.64v-16.6h5.64v-54.32h44.11v16.6h-22.97v37.72h18.6v16.6h-18.6v15.01h22.97v16.6Z"/><path class="cls-14" d="m573.64,298.5h-42.7v-102.53h21.14v85.93h21.56v16.6Z"/><path class="cls-14" d="m520.22,269.15c0,20.05-13.95,30.02-27.91,30.02s-27.76-9.96-27.76-30.02v-73.18h21.14v76.23c0,6.11,2.96,10.36,6.62,10.36s6.77-4.25,6.77-10.36v-76.23h21.14v73.18Z"/><path class="cls-14" d="m454.69,298.23s-3.66.93-8.17.93c-13.81,0-34.81-4.25-34.81-51.93s21-51.93,34.81-51.93c4.51,0,8.17.93,8.17.93v16.2c-1.97-.27-3.52-.53-5.92-.53-5.5,0-15.93,2.52-15.93,35.33s10.43,35.33,15.93,35.33c2.4,0,3.95-.27,5.92-.53v16.2Z"/><path class="cls-14" d="m403.53,227.84c0,19.79-10.01,28.95-14.8,32.01,3.24,3.59,7.75,9.56,10.57,16.34,3.24,7.7,3.81,15.27,3.81,22.31h-21.14c0-5.05-.56-10.23-2.82-15.54-2.4-5.58-5.64-9.83-8.03-11.95v27.49h-21.14v-102.53h16.63c20.15,0,36.93,10.09,36.93,31.87Zm-21.14.13c0-9.7-4.09-15.14-11.27-15.14v36.52c3.24,0,11.27-7.7,11.27-21.38Z"/><path class="cls-14" d="m337.71,298.5h-44.11v-31.61h-5.64v-16.6h5.64v-54.32h44.11v16.6h-22.97v37.72h18.6v16.6h-18.6v15.01h22.97v16.6Z"/><path class="cls-14" d="m279.37,298.5h-21.14v-31.61h-13.39v31.61h-21.14v-31.61h-5.64v-16.6h5.64v-54.32h21.14v54.32h13.39v-54.32h21.14v102.53Z"/></g></g></g><path id="_12" class="cls-17" d="m193.92,557.68v2.3s-5.67,1.48-5.67,1.48l5.64,1.55v2.26s-8.11-2.33-8.11-2.33l-7.87,2.15v-2.3s5.4-1.39,5.4-1.39l-5.37-1.48v-2.26s7.86,2.26,7.86,2.26l8.12-2.23Zm.02-3.68v2.33s-15.98-.1-15.98-.1v-2.33s15.98.1,15.98.1Zm.02-4.37v2.33s-15.98-.1-15.98-.1v-2.33s15.98.1,15.98.1Zm.07-13.01l-.03,5.57-5.25-.03v.72s-1.76-.01-1.76-.01v-.72s-8.95-.05-8.95-.05l.03-5.57h1.76s-.02,3.26-.02,3.26l7.2.04v-2.57s1.77.01,1.77.01v2.57s3.48.02,3.48.02l.02-3.25h1.76Zm-7.94-8.21c6.95.04,7.97,2.77,7.95,5.21v1.65s-15.97-.1-15.97-.1v-1.65c.02-2.44,1.07-5.15,8.02-5.11Zm-.01,2.35c-5.25-.03-6.23,1.23-6.24,2.09l12.45.08c0-.86-.96-2.13-6.21-2.17Zm8.02-6.31v2.33s-15.98-.1-15.98-.1v-2.33s15.98.1,15.98.1Zm-14.16-8.05v2.26s14.19.09,14.19.09v2.33s-14.22-.09-14.22-.09v2.26s-1.77-.01-1.77-.01l.04-6.85h1.76Zm14.23-3.38v2.33s-15.98-.1-15.98-.1v-2.33s15.98.1,15.98.1Zm-7.93-9.42c6.91.04,8.07,2.02,8.06,3.89,0,1.86-1.2,3.85-8.11,3.81-6.91-.04-8.07-2.05-8.06-3.91.01-1.87,1.2-3.83,8.11-3.79Zm-.01,2.33c-5.31-.03-6.33.73-6.34,1.48,0,.75,1.01,1.52,6.32,1.55,5.31.03,6.33-.73,6.34-1.47,0-.75-1-1.52-6.32-1.55Zm8.04-11.12v1.12s-9.13,3.74-9.13,3.74l9.1.06v2.24s-15.97-.1-15.97-.1v-1.12s9.19-3.72,9.19-3.72l-9.16-.06v-2.26s15.98.1,15.98.1Z"/><path class="cls-15" d="m56.83,498.94l-4.91,25.29h-16.51l10.57-25.29h10.85Z"/><path class="cls-15" d="m65.14,552.25c14.63-12.08,30.2-24.06,30.2-35.67,0-5-2.26-8.21-7.17-8.21s-7.64,3.77-7.64,10.29h-15.57c.47-16.7,11.32-23.87,23.87-23.87,15.66,0,22.65,9.15,22.65,20.76,0,15.1-13.49,27.18-24.44,35.57h25.48v13.12h-47.37v-11.98Z"/><path class="cls-15" d="m143.64,494.69c14.53,0,22.36,8.3,22.36,18.68,0,9.06-5.66,13.87-10.38,15.48v.38c6.89,2.27,11.61,7.55,11.61,16.61,0,11.61-8.3,19.91-22.74,19.91s-24.72-6.79-25.19-22.36h15.66c.09,5.38,3.02,8.96,8.96,8.96,5,0,7.74-3.21,7.74-7.74,0-6.13-3.68-8.59-12.08-8.59h-3.02v-13.12h3.02c5.47,0,10.76-1.32,10.76-7.55,0-4.62-2.74-7.17-7.08-7.17-5.19,0-7.08,3.77-7.36,7.55h-15.76c.57-13.59,9.44-21.04,23.5-21.04Z"/><path class="cls-16" d="m83.93,429.26h-9.34v-15h26.14v68.88h-16.8v-53.88Z"/><path class="cls-16" d="m139.55,412.84c19.63,0,26.52,14.72,26.52,34.91s-6.89,35.1-26.52,35.1-26.52-14.72-26.52-35.1,6.89-34.91,26.52-34.91Zm0,15.1c-9.53,0-10.66,9.25-10.66,19.82s1.13,20,10.66,20,10.66-9.06,10.66-20-1.13-19.82-10.66-19.82Z"/><path class="cls-16" d="m184.98,483.89c-5.76,0-9.63-3.87-9.63-8.68s3.87-8.87,9.63-8.87,9.53,3.87,9.53,8.87-3.87,8.68-9.53,8.68Z"/><path class="cls-13" d="m83.94,345.12h-9.34v-15h26.14v68.88h-16.8v-53.88Z"/><path class="cls-13" d="m143.86,386.73h-31.71v-13.02l29.82-42.65h18.02v41.71h7.74v13.97h-7.74v12.27h-16.14v-12.27Zm1.13-13.97v-23.97l-15.85,23.97h15.85Z"/><path class="cls-13" d="m184.81,399.75c-5.76,0-9.63-3.87-9.63-8.68s3.87-8.87,9.63-8.87,9.53,3.87,9.53,8.87-3.87,8.68-9.53,8.68Z"/></g></g></g></svg>