<?xml version="1.0" encoding="utf-8"?>
<!-- Generator: Adobe Illustrator 25.3.1, SVG Export Plug-In . SVG Version: 6.00 Build 0)  -->
<svg version="1.1" id="Logo" xmlns="http://www.w3.org/2000/svg" xmlns:xlink="http://www.w3.org/1999/xlink" x="0px" y="0px"
	 viewBox="0 0 2000 2000" style="enable-background:new 0 0 2000 2000;" xml:space="preserve">
<style type="text/css">
	.st0{fill:#DA0000;}
	.st1{fill:#00E0DD;}
	.st2{fill:#FFAD1D;}
	.st3{fill:#FF6914;}
	.st4{fill:#101111;}
	.st5{clip-path:url(#SVGID_2_);}
	.st6{fill:#830000;}
	.st7{clip-path:url(#SVGID_4_);}
</style>
<g id="Color_Light_BG_Main_Logo-2">
	<g id="Lines_behind_text">
		<rect x="1304.8" y="1532.5" class="st0" width="155.9" height="38"/>
		<rect x="891.5" y="1691.2" class="st1" width="198.8" height="38"/>
		<rect x="1327.6" y="1388.1" class="st2" width="234.1" height="38"/>
		<rect x="739.4" y="1388.1" class="st3" width="152.3" height="38"/>
	</g>
	<g id="Text_Outlines">
		<g id="Maraton">
			<path class="st4" d="M1584.5,1767.2h-21.3l-59-114.3v114.3h-43.5v-234.7h21.3l59,114.3v-114.3h43.5L1584.5,1767.2z"/>
			<path class="st4" d="M1440.1,1649.8c0,96.1-29.2,118.9-63.8,118.9s-63.8-22.8-63.8-118.9s29.2-117.3,63.8-117.3
				S1440.1,1553.8,1440.1,1649.8z M1394.5,1649.8c0-64.8-8.5-79.4-18.2-79.4s-18.2,14.6-18.2,79.4s8.5,80.9,18.2,80.9
				S1394.5,1714.6,1394.5,1649.8z"/>
			<path class="st4" d="M1304.8,1570.5h-35.3v196.7H1224v-196.7h-35v-38h115.8L1304.8,1570.5z"/>
			<path class="st4" d="M1192,1767.2h-41.3l-4.9-38h-30.4l-4.9,38h-41l35.3-234.7h52L1192,1767.2z M1140.6,1691.2l-10-89.7
				l-10.6,89.7H1140.6z"/>
			<path class="st4" d="M1051.9,1605.5c0,45.3-21.6,66.3-31.9,73.3c7,8.2,16.7,21.9,22.8,37.4c7,17.6,8.2,35,8.2,51.1h-45.6
				c0-11.6-1.2-23.4-6.1-35.6c-5.2-12.8-12.2-22.5-17.3-27.4v62.9h-45.6v-234.7h35.9C1015.7,1532.5,1051.9,1555.6,1051.9,1605.5z
				 M1006.3,1605.8c0-22.2-8.8-34.7-24.3-34.7v83.6C989,1654.7,1006.3,1637.1,1006.3,1605.8L1006.3,1605.8z"/>
			<path class="st4" d="M915.1,1767.2h-41.3l-4.9-38h-30.4l-4.9,38h-41l35.3-234.7h52L915.1,1767.2z M863.7,1691.2l-10-89.7
				l-10.6,89.7H863.7z"/>
			<path class="st4" d="M773.4,1767.2H730v-96.7l-18.5,45.6h-18.3l-18.5-45.6v96.7h-43.5v-234.7h21.3l49.9,120.7l49.8-120.7h21.3
				V1767.2z"/>
		</g>
		<g id="Hercules">
			<path class="st4" d="M1607.9,1434.9c0,42.3-28,65.1-65.1,65.1c-15.2,0-27-3-37.7-9.4l16.7-34.4c5.2,3,12.8,5.2,21,5.2
				c11.6,0,20.4-7.9,20.4-20.4c0-18.8-10-33.4-26.8-54.4c-20.4-25.8-28.3-43.2-28.3-64.8c0-36.5,23.1-59.6,59.6-59.6
				c11.6,0,22.8,3,29.8,7l-16.1,32.8c-4.4-1.7-9-2.5-13.7-2.4c-9.7,0-15.8,7-15.8,15.8c0,15.2,9.4,27.7,26.4,49.2
				C1599.4,1391.2,1607.9,1409.1,1607.9,1434.9z"/>
			<path class="st4" d="M1488.4,1498.5h-95.2v-72.3h-12.2v-38h12.2v-124.3h95.2v38h-49.6v86.3h40.1v38h-40.1v34.3h49.6V1498.5z"/>
			<path class="st4" d="M1374.1,1498.5H1282v-234.7h45.6v196.7h46.5L1374.1,1498.5z"/>
			<path class="st4" d="M1258.9,1431.3c0,45.9-30.1,68.7-60.2,68.7s-59.9-22.8-59.9-68.7v-167.5h45.6v174.5c0,14,6.4,23.7,14.3,23.7
				s14.6-9.7,14.6-23.7v-174.5h45.6V1431.3z"/>
			<path class="st4" d="M1117.6,1497.8c-5.8,1.4-11.7,2.1-17.6,2.1c-29.8,0-75.1-9.7-75.1-118.9s45.3-118.9,75.1-118.9
				c5.9,0,11.9,0.7,17.6,2.1v37.1c-4.2-0.8-8.5-1.2-12.8-1.2c-11.8,0-34.3,5.8-34.3,80.9s22.5,80.9,34.3,80.9
				c4.3-0.1,8.6-0.5,12.8-1.2V1497.8z"/>
			<path class="st4" d="M1007.2,1336.7c0,45.3-21.6,66.3-31.9,73.3c7,8.2,16.7,21.9,22.8,37.4c7,17.6,8.2,35,8.2,51.1h-45.6
				c0-11.6-1.2-23.4-6.1-35.6c-5.2-12.8-12.2-22.5-17.3-27.4v62.9h-45.6v-234.7h35.9C971,1263.8,1007.2,1286.9,1007.2,1336.7z
				 M961.6,1337c0-22.2-8.8-34.7-24.3-34.7v83.6C944.3,1386,961.6,1368.3,961.6,1337L961.6,1337z"/>
			<path class="st4" d="M865.2,1498.5h-95.1v-72.3h-12.2v-38h12.2v-124.3h95.2v38h-49.5v86.3h40.1v38h-40.1v34.3h49.5V1498.5z"/>
			<path class="st4" d="M739.4,1498.5h-45.6v-72.3h-28.9v72.3h-45.6v-72.3h-12.2v-38h12.2v-124.3h45.6v124.3h28.9v-124.3h45.6
				L739.4,1498.5z"/>
		</g>
	</g>
	<g id="Trail_Poles">
		<path class="st4" d="M1781.2,578.3c-0.5-3.9-0.9-7.9-1.3-11.9c-1.8-17.3-2.8-35-3.8-52.1v-0.8c-0.1-1.4-0.1-3-0.2-4.8
			c-0.3-7.3-0.7-17.4-3.1-26.8l2.7-0.4c1.3-0.2,2.7-0.5,4-0.9c18.1-5.1,28.6-24,23.5-42.1c-5.1-18.1-24-28.6-42.1-23.5L1655.5,445
			c1.4-12.9,3.2-25.9,4.9-38.6l0.1-0.6c0.2-1.4,0.4-3,0.7-4.8c1.3-8.1,3.1-19.8,1.8-30.4l6.7-2.1c1.2-0.4,2.4-0.8,3.5-1.3
			c17-8,24.3-28.3,16.3-45.3c-7.8-16.5-27.1-24-44-16.9L1502,368.7c-4.9,2.1-8.9,5.8-11.6,10.4l-694.7,267l-436.9,98.6
			c-2.9-1.8-5-4.6-6.1-7.8l0,0c-2.7-7.8-11.2-12-19.1-9.3c-3.1,1.1-5.7,3.1-7.5,5.8l0,0c-2.7,4.1-7.3,6.6-12.2,6.6l0,0
			c-8.3,0.1-14.9,6.9-14.8,15.2c0,1,0.1,1.9,0.3,2.9l-47.2,10.7c-7,1.6-11.3,8.6-9.7,15.6c1.6,6.9,8.4,11.2,15.3,9.8l46.5-10
			c1,8.2,8.5,14.1,16.7,13c1.1-0.1,2.2-0.4,3.3-0.8l0,0c4.6-1.7,9.8-1,13.8,1.8l0,0c6.8,4.7,16.1,3.1,20.9-3.7
			c1.9-2.7,2.8-5.9,2.7-9.1l0,0c-0.2-4.9,2.1-9.6,6-12.6l0,0c1.1-0.9,2.1-1.9,3-3l232.8-50L300.7,836.3c-1.2-1.4-2.2-3.1-2.8-4.9
			l0,0c-2.7-7.8-11.2-12-19.1-9.3c-3.1,1.1-5.7,3.1-7.5,5.8l0,0c-2.8,4.1-7.3,6.6-12.3,6.6l0,0c-8.3,0.1-14.9,7-14.7,15.3
			c0,2.6,0.8,5.1,2.1,7.4l-42.2,16.2c-6.7,2.7-9.9,10.2-7.3,16.9c2.6,6.5,9.9,9.8,16.5,7.4l37.6-14c3.4,6.8,11.4,9.9,18.5,7.2l0,0
			c4.6-1.7,9.8-1,13.8,1.8l0,0c6.8,4.8,16.1,3.1,20.9-3.6c1.9-2.7,2.8-5.9,2.7-9.2l0,0c-0.2-4.9,2.1-9.6,6-12.6l0,0
			c3-2.2,5-5.3,5.7-8.9l488-182.2l738.5-158.5c2,12.7,7.7,23.9,20,30.7c9.7,5.3,23.7,10.1,37.7,10.5c6,0.2,12.1-0.6,17.8-2.5
			c10.2-3.3,18.6-10.8,22.9-20.7c5.2-11.3,7.1-23.1,8-34.8l53.5-8.4c-0.7,1.3-1.4,2.6-2.2,4c-15.4,30-20.8,65.2-22.7,89.5
			s-5.6,74.5,29.6,85.7c3.1,1,6.2,1.7,9.3,2.3c14.5,2.8,32.8,2.8,46.7-5.2c9.4-5.2,16.1-14.2,18.5-24.7c4.2-17.8,1.5-35.2-1.2-52
			C1782.6,587.7,1781.8,582.9,1781.2,578.3z M1633.6,403.8c-0.2,1.3-0.5,2.6-0.6,3.7l-0.1,0.5c-2,12.4-4,25.2-5.5,37.9
			c-0.3,2.5-0.6,4.9-0.8,7.4l-28.5,8.1c-3.8,1.1-7.3,3.1-10.2,5.9l-8.3,1.9c1.3-6.1,3-11.9,4.2-16.2c4.6-15.9,12.8-38.6,26.2-56.5
			c3.3-4.5,7-8.7,11.2-12.5l13-4.1C1636.1,382.5,1635.9,390.6,1633.6,403.8z M1504.3,415.9c5,1.7,10.5,1.7,15.6,0.1l57-18
			c-11.9,21.2-19.6,43.6-24.3,60.8c-1.3,4.9-3,10.9-4.5,17.5l-519.7,117.3L1504.3,415.9z M1596.5,506.8l1,0.3
			c-0.4-0.1-0.9-0.2-1.3-0.2L1596.5,506.8z M1753.5,611.5c-0.9,4.5-3.7,8.3-7.7,10.5c-7.4,4.2-18.4,3.5-26,1
			c-13.8-4.6-11.3-34.3-10.1-48.5c1.4-16.5,5.1-40.4,14.8-60.5c10.4-21.5,17.4-21.9,19.4-21.5c3.2,0.6,5,8.8,5.3,24.1
			c0,1.4,0,2.6,0.1,3.7v0.6c0.4,12.5,0.9,25.4,1.8,38.1c0.2,3,0.5,5.9,0.8,8.9c0.3,3.5,0.8,7.1,1.2,10.5
			C1754.6,590,1756,600.9,1753.5,611.5L1753.5,611.5z"/>
		<g>
			<defs>
				<path id="SVGID_1_" d="M1781.2,578.3c-0.5-3.9-0.9-7.9-1.3-11.9c-1.8-17.3-2.8-35-3.8-52.1v-0.8c-0.1-1.4-0.1-3-0.2-4.8
					c-0.3-7.3-0.7-17.4-3.1-26.8l2.7-0.4c1.3-0.2,2.7-0.5,4-0.9c18.1-5.1,28.6-24,23.5-42.1c-5.1-18.1-24-28.6-42.1-23.5L1655.5,445
					c1.4-12.9,3.2-25.9,4.9-38.6l0.1-0.6c0.2-1.4,0.4-3,0.7-4.8c1.3-8.1,3.1-19.8,1.8-30.4l6.7-2.1c1.2-0.4,2.4-0.8,3.5-1.3
					c17-8,24.3-28.3,16.3-45.3c-7.8-16.5-27.1-24-44-16.9L1502,368.7c-4.9,2.1-8.9,5.8-11.6,10.4l-694.7,267l-436.9,98.6
					c-2.9-1.8-5-4.6-6.1-7.8l0,0c-2.7-7.8-11.2-12-19.1-9.3c-3.1,1.1-5.7,3.1-7.5,5.8l0,0c-2.7,4.1-7.3,6.6-12.2,6.6l0,0
					c-8.3,0.1-14.9,6.9-14.8,15.2c0,1,0.1,1.9,0.3,2.9l-47.2,10.7c-7,1.6-11.3,8.6-9.7,15.6c1.6,6.9,8.4,11.2,15.3,9.8l46.5-10
					c1,8.2,8.5,14.1,16.7,13c1.1-0.1,2.2-0.4,3.3-0.8l0,0c4.6-1.7,9.8-1,13.8,1.8l0,0c6.8,4.7,16.1,3.1,20.9-3.7
					c1.9-2.7,2.8-5.9,2.7-9.1l0,0c-0.2-4.9,2.1-9.6,6-12.6l0,0c1.1-0.9,2.1-1.9,3-3l232.8-50L300.7,836.3c-1.2-1.4-2.2-3.1-2.8-4.9
					l0,0c-2.7-7.8-11.2-12-19.1-9.3c-3.1,1.1-5.7,3.1-7.5,5.8l0,0c-2.8,4.1-7.3,6.6-12.3,6.6l0,0c-8.3,0.1-14.9,7-14.7,15.3
					c0,2.6,0.8,5.1,2.1,7.4l-42.2,16.2c-6.7,2.7-9.9,10.2-7.3,16.9c2.6,6.5,9.9,9.8,16.5,7.4l37.6-14c3.4,6.8,11.4,9.9,18.5,7.2l0,0
					c4.6-1.7,9.8-1,13.8,1.8l0,0c6.8,4.8,16.1,3.1,20.9-3.6c1.9-2.7,2.8-5.9,2.7-9.2l0,0c-0.2-4.9,2.1-9.6,6-12.6l0,0
					c3-2.2,5-5.3,5.7-8.9l488-182.2l738.5-158.5c2,12.7,7.7,23.9,20,30.7c9.7,5.3,23.7,10.1,37.7,10.5c6,0.2,12.1-0.6,17.8-2.5
					c10.2-3.3,18.6-10.8,22.9-20.7c5.2-11.3,7.1-23.1,8-34.8l53.5-8.4c-0.7,1.3-1.4,2.6-2.2,4c-15.4,30-20.8,65.2-22.7,89.5
					s-5.6,74.5,29.6,85.7c3.1,1,6.2,1.7,9.3,2.3c14.5,2.8,32.8,2.8,46.7-5.2c9.4-5.2,16.1-14.2,18.5-24.7c4.2-17.8,1.5-35.2-1.2-52
					C1782.6,587.7,1781.8,582.9,1781.2,578.3z M1633.6,403.8c-0.2,1.3-0.5,2.6-0.6,3.7l-0.1,0.5c-2,12.4-4,25.2-5.5,37.9
					c-0.3,2.5-0.6,4.9-0.8,7.4l-28.5,8.1c-3.8,1.1-7.3,3.1-10.2,5.9l-8.3,1.9c1.3-6.1,3-11.9,4.2-16.2c4.6-15.9,12.8-38.6,26.2-56.5
					c3.3-4.5,7-8.7,11.2-12.5l13-4.1C1636.1,382.5,1635.9,390.6,1633.6,403.8z M1504.3,415.9c5,1.7,10.5,1.7,15.6,0.1l57-18
					c-11.9,21.2-19.6,43.6-24.3,60.8c-1.3,4.9-3,10.9-4.5,17.5l-519.7,117.3L1504.3,415.9z M1596.5,506.8l1,0.3
					c-0.4-0.1-0.9-0.2-1.3-0.2L1596.5,506.8z M1753.5,611.5c-0.9,4.5-3.7,8.3-7.7,10.5c-7.4,4.2-18.4,3.5-26,1
					c-13.8-4.6-11.3-34.3-10.1-48.5c1.4-16.5,5.1-40.4,14.8-60.5c10.4-21.5,17.4-21.9,19.4-21.5c3.2,0.6,5,8.8,5.3,24.1
					c0,1.4,0,2.6,0.1,3.7v0.6c0.4,12.5,0.9,25.4,1.8,38.1c0.2,3,0.5,5.9,0.8,8.9c0.3,3.5,0.8,7.1,1.2,10.5
					C1754.6,590,1756,600.9,1753.5,611.5L1753.5,611.5z"/>
			</defs>
			<clipPath id="SVGID_2_">
				<use xlink:href="#SVGID_1_"  style="overflow:visible;"/>
			</clipPath>
			<g class="st5">
				<g id="lines-7">
					<path id="d-5" class="st6" d="M-289.6,2658.6c-6.3-0.1-12.5-1.1-18.5-3.1l4.4-14.3c17.6,5.4,29.6,1.9,45.5-13.6
						c22.2-21.4,47.3-39.5,74.5-54c23.6-12.5,33.1-26.3,35.4-50.9c1.6-17.4,6.5-34.5,11.2-51c3.3-11.6,6.8-23.7,8.9-35.5
						c3.9-21.5,6.8-40.6,2.6-57c-8.4-33.3-1.1-58.6,22.5-77.5c18.3-14.6,37-26.1,55.6-34.1c81.2-34.8,145.2-81,195.8-141.4
						c14.3-17,31.8-34.4,53.6-53.1c23.4-20.1,30.6-42.2,22-67.5c-8-23.6-16.8-47.5-25.3-70.6c-13.5-36.8-27.5-74.8-38.9-113
						c-9.4-31.5-19.6-72.4-14.4-109c10.3-72.7,1.9-129.3-27.3-183.3c-25-46.3-43.9-96.7-62.1-145.4c-3-8-6-16-9-24
						c-10-26.4-13-48.2-9.6-68.5c3.8-22.7,15.9-44.1,37.1-65.6c48.1-48.8,90.1-105.7,130.8-160.8c13.1-17.8,26.7-36.1,40.3-54
						c8.2-10.8,14-26.5,15-41.1c4.8-64.1,21.5-120.2,51.2-171.5c12.5-21.6,24.1-44.4,24.4-65.4c1-62.3,35.5-106.6,68.8-149.4
						c20.4-26.2,23.2-48,10.3-80.5c-12.2-30.8-16.3-65.4-11-92.6c3.2-16.5,8-33,12.5-49c15.5-54.3,30.2-105.6-10.4-157.8
						c-6.1-7.9-7.6-19.6-8.5-27.3c-9.5-78.4-39.2-145.8-91-206c-37.6-43.8-40.7-84.8-9.3-122c4.7-5.5,5.9-10.5,5.4-11.4
						c-1.9-3.4-3.2-6.3-4.3-8.6c-3.8-8-4.5-9.6-17-13.1l4-14.5c18.3,5,21.7,10.7,26.6,21.2c1.1,2.3,2.3,4.8,3.9,7.8
						c6.2,11.2-3.9,24.5-7.1,28.4c-26.3,31.1-23.3,64.6,9.2,102.5c53.7,62.6,84.6,132.6,94.5,214c0.7,6.1,1.9,15.2,5.5,19.9
						c45.2,58.3,28.7,115.7,12.8,171.2c-4.5,15.7-9.1,31.9-12.2,47.8c-4.8,24.5-1,56,10.2,84.2c14.8,37.4,11.2,65-12.4,95.3
						c-31.8,40.8-64.8,83.1-65.6,140.4c-0.4,24.4-12.9,49.3-26.4,72.7c-28.5,49.3-44.6,103.3-49.2,165.1
						c-1.3,17.3-8.2,36.1-18.1,49.1c-13.5,17.8-27,36.1-40.1,53.8c-41,55.4-83.3,112.8-132.1,162.4c-41.3,41.9-39.5,77.6-24.1,118.2
						c3,8,6,16,9,24.1c18.1,48.3,36.7,98.2,61.2,143.6c30.8,57,39.7,116.4,29,192.5c-4.8,33.7,4.9,72.6,13.9,102.6
						c11.3,37.8,25.2,75.6,38.6,112.1c8.5,23.2,17.3,47.1,25.4,70.9c10.7,31.4,1.8,59.5-26.4,83.8c-21.1,18.1-38.1,35-51.8,51.4
						c-52.1,62.2-118,109.8-201.4,145.5c-17.4,7.4-34.9,18.2-52.2,32c-19,15.2-24.4,34.4-17.3,62.1c5.3,20.9,0.8,45.5-2.4,63.4
						c-2.3,12.6-5.8,25-9.3,36.9c-4.7,16.6-9.2,32.2-10.7,48.2c-2.7,29.7-15.3,47.9-43.3,62.7c-26,13.8-49.9,31.1-71.1,51.5
						C-262,2652.2-275,2658.6-289.6,2658.6z"/>
					<path id="b-6" class="st1" d="M900.9,1656.5l-8.5-12.4c15.2-10.4,19.9-21.9,17.8-44c-2.8-30.7-1.3-61.6,4.4-91.9
						c5-26.2,0.2-42.3-17.6-59.4c-12.6-12.2-22.9-26.6-32.8-40.6c-7-9.9-14.3-20.1-22.2-29.2c-14.3-16.5-27.4-30.7-42.8-37.7
						c-31.2-14.2-46.4-35.8-46.4-66c0-23.4,2.8-45.2,8.2-64.7c23.6-85.1,27.5-164,12-241.2c-4.4-21.8-7-46.3-8-75
						c-1.1-30.8-13.8-50.2-39-59.3c-23.5-8.5-47.6-16.6-70.9-24.4c-37.1-12.4-75.5-25.3-112.5-40.2c-30.5-12.3-68.8-30-94.1-56.9
						c-50.4-53.5-99.7-82.2-160.1-93.2C236.6,611,185.5,594.2,136,578c-8.2-2.7-16.3-5.3-24.4-8c-26.8-8.7-45.7-19.9-59.5-35.3
						c-15.3-17.1-24.5-40-28-69.9c-8-68.1-26.2-136.5-43.7-202.6c-5.7-21.4-11.5-43.4-17-65.2c-3.3-13.1-12-27.4-22.7-37.4
						c-47.1-43.8-80.4-92-101.9-147.2c-9-23.2-19.6-46.6-35.8-59.9c-48-39.7-61-94.3-73.6-147.1c-7.7-32.3-23-48.1-56.4-58.4
						c-31.7-9.7-61.3-28.2-79.2-49.3c-10.8-12.8-20.8-26.8-30.4-40.4c-32.7-46.1-63.5-89.6-129.7-90.6c-10-0.1-20-6.3-26.6-10.4
						c-67.1-41.6-138.3-60.5-217.7-57.7c-57.7,2-91.7-21.2-101-69c-1.4-7.1-4.5-11.2-5.5-11.4c-3.8-0.7-6.9-1.4-9.4-2
						c-8.6-2.1-10.4-2.5-20.9,5.1l-8.8-12.1c15.4-11.2,21.9-10.3,33.2-7.6c2.4,0.6,5.2,1.2,8.5,1.8c12.6,2.2,16.7,18.4,17.7,23.3
						c7.8,40,35.9,58.6,85.8,56.9c82.4-2.8,156.4,16.8,226.1,60c5.2,3.2,13,8.1,18.9,8.2c73.8,1.1,108.3,49.8,141.7,96.9
						c9.4,13.3,19.2,27,29.6,39.4c16.1,19,43.1,35.7,72.1,44.6c38.4,11.8,57.7,31.9,66.6,69.3c12,50.4,24.4,102.4,68.6,139
						c18.8,15.5,30.4,40.9,40.2,66c20.6,53,52.7,99.4,98.1,141.6c12.7,11.8,23.1,29,27,44.8c5.4,21.6,11.2,43.7,16.9,65
						C12.5,325,30.8,393.9,39,463c6.9,58.4,35.9,79.3,77.2,92.7c8.2,2.7,16.3,5.3,24.5,8c49,16.1,99.6,32.7,150.3,41.9
						c63.8,11.6,115.7,41.7,168.4,97.7c23.4,24.8,59.7,41.5,88.8,53.3c36.6,14.8,74.8,27.5,111.8,39.9c23.4,7.8,47.6,15.9,71.2,24.5
						c31.2,11.3,47.6,35.8,48.9,72.9c1,27.8,3.5,51.6,7.7,72.6c16,79.6,12,160.8-12.3,248.1c-5,18.2-7.6,38.6-7.6,60.7
						c0,24.4,11.6,40.5,37.6,52.3c19.7,8.9,36,27.8,48,41.5c8.4,9.6,15.8,20.2,23.1,30.3c10,14,19.4,27.3,31,38.5
						c21.5,20.7,27.8,41.8,21.9,73c-5.5,28.9-6.9,58.4-4.2,87.7C927.8,1626.2,920.8,1643,900.9,1656.5z"/>
					<path id="y-5" class="st2" d="M1004.2,854.8l-14.7-2.8c3.4-18.2-1.5-29.6-18.7-43.7c-23.7-19.7-44.6-42.5-62-67.9
						c-15.1-22-29.9-30-54.5-29.4c-17.5,0.4-35-2.5-51.9-5.4c-12-2-24.3-4-36.3-4.8c-21.8-1.5-41.5-1.4-57.3,4.6
						c-32.1,12.2-57.7,6.9-79.1-14.4c-16.6-16.5-30.1-33.8-40.2-51.4c-43.7-76.7-96.9-135.1-162.6-178.5
						c-18.5-12.3-37.8-27.7-58.8-47.2c-22.6-21-45.4-25.6-69.6-14.2c-22.6,10.6-45.3,22.1-67.2,33.1c-35,17.6-71.2,35.8-107.9,51.5
						C93,497.2,53.6,511.9,16.6,510.9c-73.4-2-128.6,12.8-179,47.8c-43.2,30.1-91.1,54.5-137.5,78.1c-7.6,3.9-15.3,7.8-22.9,11.7
						c-25.1,12.9-46.4,18.4-67,17.3c-22.9-1.2-45.6-10.8-69.3-29.4c-53.9-42.3-115.2-77.6-174.5-111.8c-19.1-11-38.9-22.4-58.2-33.9
						c-11.6-6.9-27.9-10.9-42.5-10.3c-64.3,2.5-121.9-7.8-176.2-31.5c-22.9-9.9-46.9-18.9-67.7-16.9c-5.6,0.5-11.1,0.8-16.5,0.8
						c-54.2,0-97.6-26.5-139.7-52.3c-28.3-17.3-50.3-17.6-81.2-1.1c-29.2,15.6-63.2,23.6-90.8,21.4c-16.8-1.3-33.7-4.2-50.1-6.9
						c-55.7-9.3-108.3-18.1-155.6,28.1c-7.2,7-18.6,9.7-26.1,11.5c-76.8,18.3-140.4,55.5-194.4,113.7c-39.3,42.3-79.7,50.1-120.1,23
						c-6-4-11.1-4.7-11.9-4.1c-3.1,2.2-5.9,3.9-8.1,5.3c-7.5,4.6-9.1,5.6-11.1,18.4l-14.8-2.3c2.9-18.8,8.2-22.8,18-28.9
						c2.1-1.3,4.5-2.8,7.2-4.7c10.4-7.4,24.8,1.1,29,3.9c33.8,22.6,66.8,15.8,100.8-20.8c56.1-60.4,122.2-99,201.9-118
						c6-1.4,14.9-3.6,19.1-7.7c52.8-51.6,111.7-41.7,168.6-32.2c16.1,2.7,32.7,5.5,48.8,6.8c24.8,2,55.7-5.4,82.5-19.7
						c35.4-18.9,63.3-18.5,96.1,1.6c44.2,27,89.8,54.9,146.9,49.3c24.2-2.4,50.5,7.3,75.2,18.1c52.2,22.8,107.7,32.7,169.6,30.3
						c17.4-0.7,36.8,4.1,50.8,12.4c19.2,11.4,38.9,22.8,58,33.8c59.7,34.4,121.5,70,176.3,113c46.3,36.3,81.5,30.5,120.2,10.6
						c7.6-3.9,15.3-7.8,22.9-11.7c45.9-23.4,93.4-47.6,135.7-77.1c53.2-37,111.2-52.6,188-50.5c34.1,0.9,71.6-13.1,100.4-25.4
						c36.3-15.5,72.3-33.6,107-51.1c22.1-11.1,44.9-22.5,67.6-33.3c30-14.1,59-8.5,86.2,16.7c20.4,18.9,39,33.9,56.9,45.7
						c67.7,44.8,122.4,104.8,167.3,183.6c9.3,16.4,22,32.6,37.7,48.2c17.3,17.2,36.9,20.3,63.6,10.2c20.2-7.7,45.1-6,63.2-4.8
						c12.7,0.9,25.5,3,37.8,5c17,2.8,33,5.5,49.1,5.2c29.8-0.6,49.3,9.8,67.2,36c16.6,24.2,36.6,46,59.2,64.8
						C1001.7,814.3,1008.6,831.1,1004.2,854.8z"/>
					<path id="o-3" class="st3" d="M2395.9,1578.7l-10.1-11.1c13.6-12.5,16.6-24.5,11.4-46.1c-7.1-30-10.1-60.8-8.7-91.6
						c1.2-26.6-5.9-41.9-25.9-56.3c-14.2-10.2-26.4-23.1-38.2-35.5c-8.4-8.8-17-17.8-26.1-25.7c-16.5-14.3-31.5-26.4-47.8-31.2
						c-32.9-9.6-51.1-28.8-55.4-58.7c-3.3-23.2-3.7-45.2-1.1-65.2c11.2-87.6,3.9-166.2-22.5-240.4c-7.4-21-13.5-44.9-18.6-73.1
						c-5.4-30.3-20.9-47.7-47.1-53.2c-24.4-5.1-49.4-9.6-73.6-14c-38.5-7-78.4-14.2-117.1-23.8c-32-7.9-72.3-19.8-101.3-42.9
						c-57.5-45.8-110.4-67.2-171.8-69.4c-52.6-1.9-105.6-11.3-156.8-20.3c-8.4-1.5-16.9-3-25.3-4.4c-27.8-4.8-48.1-13.2-63.9-26.5
						c-17.6-14.8-29.9-36.1-37.7-65.2c-17.7-66.2-45.4-131.3-72.2-194.2c-8.7-20.3-17.6-41.3-26.1-62.1
						c-5.1-12.5-15.8-25.5-27.8-33.8c-52.8-36.7-92.7-79.6-121.8-131.2c-12.3-21.7-26.1-43.3-44-54.2C1013,16.1,992.4-36,972.4-86.5
						c-12.2-30.9-29.6-44.4-64.2-49.8c-32.8-5.1-64.7-19.1-85.4-37.5c-12.6-11.2-24.4-23.6-35.9-35.7c-38.9-41-75.7-79.6-141.3-71.1
						c-10,1.3-20.7-3.4-27.8-6.5c-72.4-31.6-145.5-40.1-223.7-26.1c-9.5,1.8-19.1,2.7-28.8,2.8c-40.7,0-67.9-19-81.1-56.6
						c-2.4-6.8-6-10.4-7.1-10.5c-3.8-0.1-7-0.4-9.6-0.6c-8.8-0.8-10.6-1-19.9,8l-10.5-10.8c13.6-13.2,20.3-13.3,31.7-12.2
						c2.5,0.2,5.3,0.5,8.6,0.6c12.8,0.3,19.2,15.8,20.8,20.5c13.4,38.5,43.9,52.9,93,44c81.2-14.5,157.2-5.7,232.3,27.1
						c5.6,2.4,14.1,6.1,19.9,5.4c73.2-9.5,114.3,33.8,154.1,75.7c11.2,11.8,22.8,24,35,34.8c18.7,16.5,47.7,29.2,77.8,33.9
						c39.7,6.2,61.7,23.3,75.8,59.1c19,48.2,38.7,97.9,87.7,127.8c20.8,12.7,35.9,36.2,49.2,59.6c28,49.6,66.4,90.9,117.3,126.2
						c14.3,9.9,27,25.4,33.1,40.5c8.4,20.6,17.4,41.6,26,61.9c27,63.4,54.9,129,72.9,196.3c15.2,56.8,46.8,73.4,89.7,80.8
						c8.4,1.5,16.9,2.9,25.4,4.4c50.8,8.9,103.2,18.2,154.8,20.1c64.8,2.4,120.5,24.8,180.6,72.7c26.7,21.2,65,32.5,95.5,40
						c38.3,9.4,77.9,16.6,116.2,23.6c24.3,4.4,49.4,9,74,14.1c32.4,6.7,52.2,28.7,58.8,65.2c4.9,27.4,10.8,50.5,18,70.7
						c27.2,76.5,34.8,157.4,23.2,247.4c-2.4,18.8-2,39.3,1.1,61.2c3.5,24.1,17.2,38.4,44.7,46.4c20.7,6,39.6,22.3,53.4,34.2
						c9.7,8.3,18.6,17.7,27.1,26.7c11.9,12.5,23.1,24.2,36.1,33.7c24.2,17.4,33.5,37.4,32.1,69.2c-1.3,29.4,1.5,58.8,8.3,87.4
						C2418.2,1544.8,2413.6,1562.4,2395.9,1578.7z"/>
					<path id="r-4" class="st0" d="M2730.7,1141.7c-11.3,0-19.4-12.3-21.8-16.3c-20.6-35.1-53.3-43.3-99.8-25.2
						c-76.8,30-153.1,36-233.2,18.4c-6-1.3-15-3.3-20.6-1.4c-69.9,23.5-118.7-11-165.8-44.4c-13.3-9.4-27.1-19.2-41-27.3
						c-21.5-12.6-52.5-19.4-82.9-18.2c-40.1,1.6-65-10.9-85.8-43.2c-28-43.5-57-88.5-110.8-108.3c-22.9-8.4-42.3-28.5-59.8-49
						c-37.1-43.2-82.7-76.3-139.6-101.1c-15.9-6.9-31.4-19.7-40.3-33.3c-12.3-18.6-25.1-37.5-37.5-55.7
						c-38.8-57-78.9-115.9-109.6-178.4c-25.9-52.8-60.2-62.9-103.6-61.9c-8.6,0.2-17.2,0.4-25.7,0.6c-51.5,1.1-104.8,2.2-155.8,10.4
						c-64,10.2-123-1-191.3-36.3c-30.3-15.7-70.1-19.3-101.5-20.8c-39.4-1.8-79.7-1.2-118.6-0.6c-24.7,0.4-50.2,0.8-75.3,0.5
						c-33.1-0.3-56.8-18-70.3-52.6c-10.2-25.9-20.4-47.5-31.3-65.9C567.3,162.1,544.1,84.2,538-6.2c-1.3-18.9-5.6-39-13-59.8
						c-8.1-23-24.4-34.4-52.9-36.9c-21.5-1.9-43.2-14.2-59-23.2c-11.1-6.3-21.6-13.8-31.8-20.9c-14.1-9.9-27.3-19.3-42-26
						c-27.1-12.4-40.1-30.2-44.9-61.6c-4.4-29.1-12.9-57.4-25.1-84.1c-11.6-25.1-10.5-43.2,3.7-62.6l12.1,8.9
						c-10.9,14.9-11.5,27.3-2.2,47.4c12.8,28,21.7,57.7,26.3,88.1c4,26.4,13.9,40,36.3,50.2c15.9,7.3,30.4,17.5,44.4,27.4
						c9.9,7,20.1,14.2,30.6,20.2c19,10.8,36,19.8,52.9,21.3c34.2,3,55.7,18.3,65.7,46.8C547-48.9,551.6-27.5,553-7.3
						c6,88.1,28.5,163.8,68.7,231.5c11.4,19.1,22,41.4,32.4,68.1c11.2,28.7,29.7,42.8,56.5,43c25,0.2,50.4-0.2,75-0.5
						c39.2-0.6,79.7-1.2,119.5,0.6c32.9,1.5,74.8,5.4,107.7,22.4c65.3,33.8,121.4,44.5,182,34.8c52-8.3,105.8-9.4,157.8-10.5
						c8.6-0.2,17.1-0.4,25.7-0.6c28.2-0.7,49.8,3.6,67.8,13.6c20.1,11.1,36.3,29.6,49.6,56.6c30.2,61.5,70,120,108.5,176.6
						c12.4,18.3,25.3,37.1,37.6,55.8c7.4,11.3,20.4,21.9,33.8,27.8c59,25.7,106.4,60.1,145,105c16.2,18.9,34,37.4,53.6,44.7
						c58.5,21.5,88.9,68.7,118.2,114.3c18,27.9,37.6,37.8,72.6,36.4c33.1-1.3,67.2,6.2,91.1,20.2c14.5,8.5,28.6,18.4,42.1,28
						c46.1,32.6,89.7,63.4,152.4,42.4c9.5-3.2,21-0.7,28.6,1c77.1,16.9,150.6,11.1,224.5-17.8c53.8-21,93.5-10.4,118.2,31.6
						c3.7,6.2,8,9.1,9,8.9c3.8-0.7,7-1,9.6-1.2c8.8-0.9,10.6-1.1,18-11.8l12.3,8.5c-10.8,15.6-17.3,17-28.8,18.2
						c-2.5,0.3-5.3,0.6-8.6,1.1C2732.5,1141.6,2731.6,1141.7,2730.7,1141.7z"/>
					<path id="b-7" class="st1" d="M2988.4,1394.4c-11.9,0-19.6-13.7-21.7-18c-17.8-36.6-49.7-47.4-97.5-32.9
						c-78.9,23.9-155.4,23.9-233.9,0.1c-5.8-1.8-14.7-4.4-20.4-3c-11.6,3-23.5,4.5-35.4,4.6c-52.2,0-89.8-31.3-126.4-61.8
						c-12.5-10.4-25.5-21.2-38.8-30.5c-20.5-14.2-50.8-23.5-81.2-24.6c-40.1-1.5-63.9-16-82.1-49.8
						c-24.5-45.6-49.9-92.8-101.9-116.7c-22.1-10.2-39.9-31.7-55.8-53.5c-33.6-46-76.5-82.5-131.2-111.7
						c-15.3-8.2-29.8-22.1-37.6-36.3c-10.8-19.5-22.1-39.3-33-58.4c-34.2-59.9-69.6-121.8-95.2-186.4
						c-21.7-54.7-55.1-67.4-98.4-69.8c-8.6-0.5-17.1-1-25.7-1.5c-51.4-3-104.7-6-156.1-1.9c-64.6,5.2-122.5-10.6-187.8-51.2
						c-28.9-18-68.4-24.8-99.5-28.7c-39.1-4.9-79.3-7.5-118.2-9.9c-24.6-1.5-50.1-3.2-75.1-5.4c-33-2.9-55.2-22.4-66-57.9
						c-8.1-26.7-16.6-49-26.1-68.2c-35.9-72.8-52.8-152.3-51.9-243c0.2-18.9-2.6-39.3-8.2-60.7c-6.2-23.5-21.6-36.2-49.8-40.9
						c-21.3-3.6-41.9-17.6-57-27.8c-10.6-7.2-20.5-15.4-30.1-23.4c-13.2-11-25.7-21.4-39.8-29.2c-26-14.5-37.6-33.3-39.9-65
						c-2.1-29.3-8.3-58.2-18.4-85.8c-9.6-25.9-7.1-43.9,8.6-62.1l11.3,9.8c-12.1,14-13.6,26.3-5.9,47.1
						c10.6,28.9,17.1,59.2,19.3,89.9c1.9,26.6,10.7,41,32.2,52.9c15.3,8.5,28.9,19.8,42.1,30.8c9.3,7.8,19,15.8,28.9,22.5
						c18,12.2,34.4,22.6,51.1,25.4c33.8,5.7,54.1,22.7,61.8,51.9c6,22.7,9,44.4,8.7,64.7c-1,88.3,15.5,165.5,50.3,236.2
						c9.8,19.9,18.7,43,27,70.4c9,29.5,26.3,45,52.9,47.3c24.8,2.2,50.2,3.8,74.8,5.3c39.1,2.5,79.5,5,119.1,10
						c32.7,4.1,74.2,11.3,105.6,30.8c62.4,38.8,117.5,53.9,178.7,49c52.4-4.2,106.2-1.1,158.1,1.9c8.6,0.5,17.1,1,25.7,1.5
						c28.2,1.5,49.3,7.5,66.6,18.9c19.2,12.6,33.9,32.4,45,60.4c25.3,63.7,60.4,125.1,94.3,184.5c11,19.2,22.3,39,33.1,58.6
						c6.5,11.8,18.6,23.5,31.5,30.3c56.8,30.3,101.3,68.2,136.3,116.1c14.7,20.1,30.9,40,50,48.7c56.6,26,83.2,75.4,108.9,123.2
						c15.7,29.2,34.6,40.6,69.5,42c33.1,1.3,66.5,11.5,89.2,27.3c13.8,9.6,27,20.6,39.8,31.2c43.4,36.1,84.4,70.3,148.6,54.2
						c9.7-2.4,20.9,1,28.4,3.2c75.6,22.9,149.2,22.9,225.2-0.1c55.3-16.7,94.1-3,115.4,40.7c3.2,6.5,7.2,9.7,8.2,9.6
						c3.8-0.3,7-0.4,9.6-0.5c8.8-0.2,10.6-0.3,18.8-10.3l11.6,9.5c-12,14.7-18.6,15.6-30.1,15.8c-2.5,0.1-5.3,0.1-8.6,0.4
						C2989.3,1394.4,2988.9,1394.4,2988.4,1394.4z"/>
					<path id="y-6" class="st2" d="M3469.9,1013.3c-39.4,0-74.6-18.1-109.1-35.8c-14.5-7.5-29.5-15.2-44.5-21.3
						c-23.1-9.4-54.7-11.8-84.6-6.3c-8,1.5-16.1,2.3-24.2,2.4c-26.8,0-47.2-10.4-66.9-33.1c-33.9-39.2-68.9-79.6-125-91.6
						c-23.8-5.1-45.9-22.3-66.1-40c-42.8-37.5-92.7-63.8-152.4-80.4c-16.8-4.6-33.8-15.1-44.6-27.2c-14.8-16.7-30.1-33.5-45-49.8
						c-46.4-51-94.5-103.6-133.6-161.2c-33.1-48.6-68.4-53.8-111.3-46.6c-8.5,1.4-16.9,2.8-25.4,4.2c-50.9,8.3-103.4,17-152.7,32.2
						c-61.9,19.1-121.9,16.4-194.5-9c-32.2-11.2-72.2-9.2-103.4-6.2c-39.3,3.8-79,10-117.5,16.1c-24.4,3.9-49.6,7.8-74.5,11.2
						c-32.8,4.4-58.8-9.8-77-42.1c-13.7-24.2-26.9-44.1-40.3-60.8c-50.9-63.2-84.8-137.1-103.7-225.8c-3.9-18.5-11.1-37.8-21.3-57.4
						c-11.2-21.6-29-30.6-57.5-29.1c-21.6,1.2-44.8-8-61.7-14.7c-11.9-4.7-23.3-10.6-34.4-16.2c-15.3-7.9-29.8-15.3-45.2-19.8
						c-28.6-8.4-44-24.3-53.1-54.7c-8.5-28.1-20.8-55-36.7-79.7c-15-23.2-16.5-41.3-5.1-62.5l13.2,7.1c-8.7,16.3-7.6,28.6,4.5,47.3
						c16.6,25.9,29.6,54,38.5,83.5c7.7,25.5,19.4,37.6,43,44.6c16.8,5,32.6,13.1,47.8,20.9c10.8,5.5,21.9,11.2,33.1,15.6
						c20.3,8,38.5,14.6,55.4,13.7c34.3-1.8,57.7,10.3,71.6,37.1c10.8,20.8,18.4,41.4,22.6,61.2c18.3,86.3,51.3,158.1,100.7,219.5
						c14,17.3,27.6,37.9,41.7,62.9c15.2,26.9,35.4,38.2,62,34.6c24.7-3.3,49.8-7.3,74.1-11.1c38.7-6.1,78.7-12.4,118.4-16.2
						c32.8-3.1,74.8-5.2,109.8,7c69.4,24.2,126.4,26.9,185.1,8.8c50.3-15.5,103.4-24.2,154.7-32.7c8.4-1.4,16.9-2.8,25.3-4.2
						c27.8-4.7,49.8-3.4,69.1,3.9c21.5,8.1,40.2,24.2,57.1,49.1c38.6,56.6,86.2,108.9,132.3,159.5c14.9,16.3,30.3,33.2,45.1,50
						c9,10.1,23.3,18.8,37.4,22.7c62,17.2,113.8,44.5,158.3,83.5c18.7,16.5,38.9,32.3,59.4,36.7c61,13,97.7,55.5,133.2,96.5
						c21.7,25.1,42.6,32.1,77,25.8c32.6-6,67.4-3.3,93,7.2c15.6,6.4,30.9,14.2,45.6,21.8c50.2,25.8,97.7,50.2,156.8,20.5
						c9-4.5,20.7-3.6,28.4-3c78.7,5.9,150.6-10.2,219.8-49.2c50.3-28.4,91.1-23.5,121.5,14.6c4.5,5.7,9.1,7.8,10.1,7.5
						c3.6-1.2,6.8-2,9.3-2.6c8.6-2.1,10.3-2.6,16.1-14.2l13.4,6.7c-8.5,17-14.7,19.2-25.9,22c-2.4,0.6-5.2,1.3-8.3,2.3
						c-12.2,3.9-23.3-8.6-26.4-12.5c-25.4-31.8-58.9-35.4-102.4-10.8c-62.2,35.1-126.6,52.4-195.8,52.4c-10.7,0-21.5-0.4-32.4-1.2
						c-6.1-0.5-15.3-1.2-20.6,1.5C3509.6,1008.9,3489.2,1013.3,3469.9,1013.3z"/>
				</g>
			</g>
		</g>
	</g>
	<g id="Hercules_Figure">
		<path class="st4" d="M1427.4,1211h156c2.8,0,5.1-2.3,5.1-5.1c0,0,0-0.1,0-0.1c-0.2-11.6-0.6-20.8-1.1-26.4
			c-3.2-35.7-35-74.4-42.2-100.7c-8-29-8.4-59.3-8.2-89.1c0.2-29-2.3-57.7-2.5-86.7c-0.1-16.5,6.4-31.9,8.8-48.1
			c2.9-19.7,2.7-39.7,0.5-59.4c-3.8-35.2-15.7-73.6-46.7-94.2c-21.2-14.1-44.5-13.7-67.4-21.9c-24.6-8.8-46.8-24.8-69.6-37.3
			c-10.8-5.9-108.4-48.5-119.8-48.2c38-35.9,42.5-74.5,20.8-126.1c-7.1-16.8,1.4-32.6,7.4-42.4c7.2-11.9,10.1-25.5,12.9-39.1
			c11-54.6,4.4-103.8-41.5-133.5c-62.9-40.7-157.2-22.4-194.6,44.4c-1.3,2.3-2.5,4.6-3.6,6.9c-6.4,14-10.1,29-10.9,44.3
			c-0.5,7.7-0.7,15.6,0.8,23.2s4.1,14.8,6.3,22.1c1.3,4.2,2.1,6.8,2.9,10.3c0.2,2.3,0.3,4.6,0.3,6.9c-0.6,88.8-7.7,99.9-10.5,110.6
			c-5.8,22.2-15.4,45.2-38.2,47.8c-26.7,3.1-53.8,2.7-80.7,3c-32.5,0.3-64.7,1.5-97.2,3.1l-26.3,1.3c-14,0.7-26.8,2.3-39.2,9.2
			c-12.7,7-24.1,16.1-33.8,27c-15.9,17.9-20.5,43.3-18.9,66.5c0.8,10.3,2.4,20.5,4.8,30.5c2.1,9,5.5,17.5,7.1,26.7
			c8.8,51.1-21.8,98.5-51.7,136.9c-16.2,20.9-39.1,42.6-47.1,68.5c-0.5,1.5-0.9,3.1-1.2,4.7c-1.5,7.7-2.1,15.5-2,23.3
			c0.1,9.6,0.6,19.3,1.8,28.8c1.2,10.5,2.8,20.9,4.8,31.2c2,10.3,4.3,20.5,7.1,30.6c2.4,9.1,5.3,18,8.7,26.8
			c2.5,6.9,5.7,13.6,9.5,19.9c1.4,2.3,3,4.4,4.8,6.4c22.8,23.8,64.5-1.3,84.3-17.1c25.6-20.3,51.6-41.7,72.2-67.3
			c10.9-13.5,19.9-28.5,23.7-45.5c3-13.6,2.8-27.7,3.8-41.5c0.3-3.3,0.6-6.6,1-9.9c2.2-17.9,25.3-93.8,33.6-63
			c7.8,28.9,40.6,95.3,40.6,125.1s-32.5,90.4-39,132.7c-4.1,26.5-11.4,51.8-18.2,77.2c-0.7,2.7,0.9,5.5,3.6,6.2
			c0.4,0.1,0.9,0.2,1.3,0.2h524.7c2.3,0,4.3-1.6,4.9-3.8c7.3-28-5.5-75.1-2.9-99.2c1.5-13.8,20.1-51.6,20.1-51.6
			c0.5-1.3,2-2,3.3-1.4c0.7,0.3,1.3,0.9,1.5,1.7c30,101.7,26.1,100.3,22.4,134c-0.6,5.1-0.9,10.2-1.1,15.2c-0.1,2.8,2,5.2,4.8,5.3
			C1427.3,1211,1427.4,1211,1427.4,1211z"/>
		<g>
			<defs>
				<path id="SVGID_3_" d="M1427.4,1211h156c2.8,0,5.1-2.3,5.1-5.1c0,0,0-0.1,0-0.1c-0.2-11.6-0.6-20.8-1.1-26.4
					c-3.2-35.7-35-74.4-42.2-100.7c-8-29-8.4-59.3-8.2-89.1c0.2-29-2.3-57.7-2.5-86.7c-0.1-16.5,6.4-31.9,8.8-48.1
					c2.9-19.7,2.7-39.7,0.5-59.4c-3.8-35.2-15.7-73.6-46.7-94.2c-21.2-14.1-44.5-13.7-67.4-21.9c-24.6-8.8-46.8-24.8-69.6-37.3
					c-10.8-5.9-108.4-48.5-119.8-48.2c38-35.9,42.5-74.5,20.8-126.1c-7.1-16.8,1.4-32.6,7.4-42.4c7.2-11.9,10.1-25.5,12.9-39.1
					c11-54.6,4.4-103.8-41.5-133.5c-62.9-40.7-157.2-22.4-194.6,44.4c-1.3,2.3-2.5,4.6-3.6,6.9c-6.4,14-10.1,29-10.9,44.3
					c-0.5,7.7-0.7,15.6,0.8,23.2s4.1,14.8,6.3,22.1c1.3,4.2,2.1,6.8,2.9,10.3c0.2,2.3,0.3,4.6,0.3,6.9
					c-0.6,88.8-7.7,99.9-10.5,110.6c-5.8,22.2-15.4,45.2-38.2,47.8c-26.7,3.1-53.8,2.7-80.7,3c-32.5,0.3-64.7,1.5-97.2,3.1
					l-26.3,1.3c-14,0.7-26.8,2.3-39.2,9.2c-12.7,7-24.1,16.1-33.8,27c-15.9,17.9-20.5,43.3-18.9,66.5c0.8,10.3,2.4,20.5,4.8,30.5
					c2.1,9,5.5,17.5,7.1,26.7c8.8,51.1-21.8,98.5-51.7,136.9c-16.2,20.9-39.1,42.6-47.1,68.5c-0.5,1.5-0.9,3.1-1.2,4.7
					c-1.5,7.7-2.1,15.5-2,23.3c0.1,9.6,0.6,19.3,1.8,28.8c1.2,10.5,2.8,20.9,4.8,31.2c2,10.3,4.3,20.5,7.1,30.6
					c2.4,9.1,5.3,18,8.7,26.8c2.5,6.9,5.7,13.6,9.5,19.9c1.4,2.3,3,4.4,4.8,6.4c22.8,23.8,64.5-1.3,84.3-17.1
					c25.6-20.3,51.6-41.7,72.2-67.3c10.9-13.5,19.9-28.5,23.7-45.5c3-13.6,2.8-27.7,3.8-41.5c0.3-3.3,0.6-6.6,1-9.9
					c2.2-17.9,25.3-93.8,33.6-63c7.8,28.9,40.6,95.3,40.6,125.1s-32.5,90.4-39,132.7c-4.1,26.5-11.4,51.8-18.2,77.2
					c-0.7,2.7,0.9,5.5,3.6,6.2c0.4,0.1,0.9,0.2,1.3,0.2h524.7c2.3,0,4.3-1.6,4.9-3.8c7.3-28-5.5-75.1-2.9-99.2
					c1.5-13.8,20.1-51.6,20.1-51.6c0.5-1.3,2-2,3.3-1.4c0.7,0.3,1.3,0.9,1.5,1.7c30,101.7,26.1,100.3,22.4,134
					c-0.6,5.1-0.9,10.2-1.1,15.2c-0.1,2.8,2,5.2,4.8,5.3C1427.3,1211,1427.4,1211,1427.4,1211z"/>
			</defs>
			<clipPath id="SVGID_4_">
				<use xlink:href="#SVGID_3_"  style="overflow:visible;"/>
			</clipPath>
			<g class="st7">
				<g id="lines-8">
					<path id="y-7" class="st2" d="M3894.9,2604.7l-12.2-8.8c10.8-15,11.2-27.4,1.6-47.5c-13.1-27.9-22.3-57.4-27.3-87.8
						c-4.3-26.3-14.3-39.8-36.9-49.8c-16-7.1-30.6-17.1-44.7-26.9c-10-6.9-20.3-14-30.8-19.8c-19.1-10.6-36.2-19.4-53.1-20.7
						c-34.2-2.6-55.9-17.7-66.2-46.1c-8-22-12.9-43.4-14.5-63.6c-7-88-30.4-163.5-71.4-230.7c-11.6-19-22.4-41.1-33.2-67.7
						c-11.5-28.5-30.1-42.4-56.8-42.4h-0.2c-24.9,0.1-50.4,0.8-74.9,1.4c-39.2,1.1-79.6,2.2-119.5,0.8
						c-32.9-1.1-74.9-4.6-107.9-21.2c-65.6-33-121.9-43.1-182.4-32.7c-51.9,8.9-105.6,10.7-157.7,12.3c-8.6,0.3-17.1,0.6-25.7,0.9
						c-28.2,1-49.8-3-68-12.8c-20.2-10.8-36.7-29.2-50.3-56.1c-30.9-61.2-71.4-119.2-110.5-175.3c-12.6-18.1-25.7-36.8-38.3-55.4
						c-7.6-11.2-20.6-21.7-34.1-27.4c-59.2-25-107.1-58.8-146.2-103.3c-16.5-18.7-34.4-37-54.1-44c-58.8-20.8-89.7-67.7-119.6-112.9
						c-18.3-27.7-38.1-37.3-73-35.5c-33.1,1.7-67.2-5.4-91.3-19.2c-14.6-8.3-28.8-18.1-42.4-27.5c-46.5-32.1-90.4-62.4-152.9-40.6
						c-9.5,3.3-21,0.9-28.6-0.7c-77.3-16-150.7-9.4-224.3,20.4c-18.2,7.4-34.9,11.1-49.9,11.1c-29.1,0-52-13.8-68.6-41.2
						c-3.7-6.2-8.1-9-9.1-8.8c-3.8,0.7-7,1.1-9.6,1.3c-8.8,1-10.6,1.2-17.8,12l-12.4-8.4c10.6-15.7,17.1-17.2,28.6-18.5
						c2.5-0.3,5.3-0.6,8.6-1.2c12.6-2.3,22,11.5,24.6,15.8c21,34.9,53.8,42.7,100.1,24c76.4-30.9,152.7-37.8,233-21.1
						c6,1.2,15,3.1,20.6,1.2c69.7-24.3,118.8,9.6,166.3,42.4c13.4,9.3,27.3,18.8,41.3,26.9c21.7,12.3,52.7,18.8,83.1,17.2
						c40.1-2.1,65.1,10.2,86.3,42.2c28.5,43.2,58,87.9,112.1,107c23,8.2,42.6,28,60.4,48.3c37.6,42.8,83.6,75.3,140.7,99.4
						c16,6.8,31.6,19.3,40.7,32.8c12.5,18.5,25.5,37.2,38.1,55.2c39.4,56.5,80.2,115,111.6,177.1c26.5,52.5,60.9,62.2,104.3,60.6
						c8.6-0.3,17.1-0.6,25.7-0.9c51.5-1.7,104.8-3.4,155.6-12.2c63.9-11,123-0.5,191.7,34.1c30.4,15.3,70.3,18.5,101.7,19.6
						c39.4,1.4,79.7,0.3,118.6-0.8c24.7-0.7,50.2-1.3,75.3-1.4h0.2c33,0,56.8,17.4,70.7,51.8c10.4,25.8,20.9,47.3,32.1,65.5
						c42.3,69.3,66.3,146.9,73.5,237.3c1.5,18.8,6.1,38.9,13.7,59.7c8.3,22.9,24.8,34.1,53.3,36.3c21.5,1.6,43.3,13.7,59.3,22.6
						c11.2,6.2,21.8,13.5,32.1,20.6c14.2,9.8,27.6,19,42.3,25.5c27.2,12.1,40.5,29.8,45.6,61.1c4.8,29,13.5,57.2,26.1,83.8
						C3909.8,2567,3909,2585.1,3894.9,2604.7z"/>
					<path id="b-8" class="st1" d="M2528.8,828.5l-14.9-2.1c2.6-18.3-2.7-29.5-20.4-42.9c-24.5-18.7-46.3-40.7-64.8-65.3
						c-16-21.4-31.1-28.7-55.7-27.2c-17.5,1.1-35.1-1.1-52.1-3.2c-12-1.5-24.4-3-36.5-3.4c-21.8-0.6-41.1-0.5-56.7,6.1
						c-31.6,13.4-57.7,10-80-10.4c-17.3-15.8-31.5-32.6-42.2-49.8c-46.8-74.9-102.3-131-169.7-171.8c-19-11.5-38.9-26.1-60.7-44.8
						c-23.4-20-46.4-23.7-70.1-11.3c-22.1,11.6-44.3,23.9-65.8,35.8c-34.3,19-69.7,38.6-105.7,55.8c-29.7,14.2-68.6,30.5-105.5,31
						c-73.5,1-128,18-176.9,55.1c-41.9,31.8-88.8,58.2-134.2,83.7c-7.5,4.2-14.9,8.4-22.4,12.6c-24.5,13.9-45.6,20.3-66.2,20
						c-23-0.3-46-9-70.5-26.6c-55.6-40-118.3-72.8-178.9-104.6c-19.6-10.2-39.8-20.8-59.5-31.5c-11.9-6.4-28.3-9.7-42.9-8.6
						c-64.1,5.1-122.1-2.8-177.4-24.3c-23.2-9-47.6-17-68.3-14.1c-7.7,1.1-15.4,1.6-23.2,1.6c-51.1,0-93.7-23.7-135-46.7
						c-29-16.2-51-15.6-81.2,2.1c-28.6,16.8-62.2,26.2-89.8,25.1c-16.8-0.7-33.9-2.8-50.4-4.9c-56-7-109-13.7-154.4,34.5
						c-6.8,7.3-18.2,10.5-25.6,12.6c-76,21.4-138,61.2-189.6,121.5c-23.8,27.8-48.6,41.8-74.2,41.8c-14.7,0-29.7-4.6-44.9-13.9
						c-6.2-3.8-11.3-4.2-12.1-3.6c-3,2.3-5.7,4.2-7.9,5.6c-7.3,4.9-8.8,6-10.3,18.8l-14.9-1.7c2.2-18.9,7.2-23.1,16.8-29.6
						c2.1-1.4,4.4-3,7-5c10.1-7.8,24.9,0.1,29.1,2.7c34.8,21.2,67.4,13.1,99.9-24.8c53.6-62.7,118-103.9,197-126.2
						c5.9-1.6,14.8-4.2,18.8-8.4c50.6-53.7,109.8-46.2,167.1-39c16.2,2,32.9,4.1,49.1,4.8c24.9,1,55.4-7.6,81.7-23
						c34.6-20.4,62.5-21,96.1-2.3c45.2,25.2,92,51.2,148.8,43.3c24.1-3.4,50.7,5.2,75.8,15c53.1,20.6,108.9,28.3,170.7,23.3
						c17.3-1.4,37,2.6,51.2,10.3c19.6,10.6,39.8,21.2,59.3,31.4c61.1,32,124.2,65,180.7,105.7c47.8,34.3,82.7,27.1,120.5,5.7
						c7.5-4.2,14.9-8.4,22.4-12.6c44.9-25.2,91.4-51.3,132.5-82.5c51.6-39.2,108.9-57.1,185.8-58.1c34.1-0.5,71-16,99.3-29.5
						c35.6-17,70.8-36.5,104.9-55.4c21.6-12,43.9-24.3,66.2-36c29.4-15.4,58.6-10.9,86.8,13.2c21.2,18.1,40.4,32.3,58.7,43.3
						c69.5,42,126.6,99.8,174.7,176.7c10,16,23.4,31.7,39.6,46.6c18,16.5,37.7,18.8,64,7.6c19.9-8.5,44.8-7.8,63-7.3
						c12.8,0.3,25.6,1.9,37.9,3.5c17.1,2.1,33.2,4.2,49.3,3.2c29.7-1.8,49.6,7.8,68.6,33.2c17.6,23.5,38.4,44.5,61.8,62.3
						C2524.6,788.2,2532.2,804.7,2528.8,828.5z"/>
					<path id="r-5" class="st0" d="M1614,1197.8l-14.8-2.4c2.9-18.2-2.2-29.5-19.7-43.2c-24.2-19.1-45.6-41.4-63.7-66.4
						c-15.6-21.6-30.6-29.2-55.2-28.1c-17.5,0.8-35-1.7-52-4.1c-12-1.7-24.4-3.4-36.4-4c-21.8-0.9-41.1-1.2-56.8,5.2
						c-31.8,12.9-57.9,9.1-79.8-11.7c-17-16.1-30.9-33.1-41.4-50.4c-45.6-75.6-100.2-132.7-166.9-174.5
						c-18.8-11.8-38.5-26.8-60-45.8c-23.1-20.4-46-24.5-69.9-12.5c-22.3,11.2-44.7,23.2-66.4,34.7c-34.6,18.4-70.3,37.5-106.6,54.1
						c-29.8,13.6-68.8,29.2-105.7,29.2h-1.8c-72.8,0-127.2,16.1-176.4,52.2c-42.4,31.1-89.8,56.7-135.5,81.5
						c-7.5,4.1-15.1,8.2-22.6,12.2c-24.8,13.5-45.9,19.5-66.5,18.9c-23-0.7-45.9-9.7-70-27.7c-55-40.9-117.1-74.8-177.2-107.5
						c-19.4-10.6-39.5-21.5-59-32.5c-11.8-6.6-28.2-10.2-42.8-9.2c-64.2,4.1-122.1-4.8-177-27.2c-23.1-9.4-47.3-17.8-68.1-15.2
						c-61.9,7.6-110.4-20.5-157.4-47.6c-28.7-16.6-50.8-16.4-81.2,0.8c-28.8,16.3-62.5,25.2-90.1,23.7c-16.8-0.9-33.8-3.3-50.3-5.7
						c-55.9-8-108.8-15.5-154.9,31.9c-7,7.2-18.3,10.2-25.8,12.2c-76.3,20.2-139,58.9-191.6,118.4c-38.2,43.3-78.5,52-119.6,26
						c-6.1-3.9-11.2-4.4-12-3.8c-3.1,2.3-5.8,4.1-8,5.5c-7.4,4.8-8.9,5.8-10.6,18.7l-14.9-1.9c2.5-18.8,7.6-23,17.3-29.3
						c2.1-1.4,4.5-2.9,7.1-4.9c10.2-7.7,24.8,0.5,29.1,3.2c34.4,21.8,67.2,14.2,100.3-23.2c54.6-61.8,119.7-102,199-123
						c5.9-1.6,14.8-3.9,18.9-8.1c51.5-52.8,110.6-44.4,167.8-36.3c16.1,2.3,32.8,4.7,49,5.6c24.9,1.4,55.6-6.7,82-21.7
						c35-19.8,62.8-20,96.1-0.8c44.8,25.9,91.1,52.7,148,45.7c24.2-3,50.6,6,75.6,16.2c52.7,21.5,108.4,30,170.3,26.1
						c17.3-1.1,36.9,3.2,51.1,11.2c19.4,11,39.5,21.8,58.8,32.4c60.5,33,123.2,67,179,108.6c47.2,35.1,82.3,28.5,120.4,7.7
						c7.5-4.1,15.1-8.2,22.6-12.3c45.3-24.5,92.2-49.9,133.8-80.4c52.2-38.3,109.8-55.4,186.7-55.1h0.3c34,0,71-14.9,99.4-27.9
						c35.9-16.4,71.4-35.3,105.8-53.7c21.8-11.6,44.3-23.6,66.7-34.9c29.6-14.9,58.7-10,86.6,14.6c20.9,18.4,39.9,32.9,58,44.3
						c68.8,43.1,125,101.8,171.8,179.5c9.8,16.2,22.8,32.1,38.9,47.3c17.7,16.8,37.4,19.4,63.9,8.7c20-8.1,44.9-7.1,63.1-6.3
						c12.8,0.5,25.5,2.3,37.9,4.1c17,2.4,33.1,4.7,49.2,4c29.8-1.4,49.5,8.6,68.1,34.3c17.2,23.8,37.7,45.1,60.8,63.3
						C1610.5,1157.4,1617.8,1174,1614,1197.8z"/>
					<path id="o-4" class="st3" d="M743.3,1309.1c-2.6-18.8,1.2-24.2,8.9-32.8c1.7-1.9,3.5-4,5.6-6.6c7.8-10.1,24.1-6.2,28.9-4.7
						c39,11.9,68.6-4.2,90.5-49c36.2-74.1,88.3-130.2,159.1-171.4c5.3-3.1,13.3-7.7,16.1-12.9c35.6-64.6,94.8-72.2,152.1-79.6
						c16.2-2.1,32.9-4.2,48.7-7.7c24.4-5.3,51.8-21.3,73.3-42.7c28.4-28.4,55.2-36,92.4-26.3c50.1,13.1,101.9,26.6,154.9,4.7
						c22.5-9.3,50.4-7.6,77.2-4.5c56.5,6.7,112.5,0.1,171.1-20.1c16.4-5.7,36.4-6.8,52.2-2.8c21.7,5.4,43.8,10.6,65.3,15.6
						c67.1,15.6,136.6,31.9,201.4,57.1c54.8,21.3,86.9,5.6,118.1-24.6c6.2-6,12.3-11.9,18.6-17.8c37.2-35.7,75.6-72.6,107.6-113.1
						c40.2-50.9,91.2-82.6,165.3-102.8c32.9-9,64.7-33.3,88.7-53.4c30.2-25.3,59.4-53.1,87.7-79.9c17.9-17,36.4-34.5,55.1-51.4
						c24.6-22.2,54-25.2,87.4-8.9c25,12.2,47.2,21.1,67.7,27.3c77.8,23.3,147.6,64.9,213.3,127.4c13.7,13,30.5,24.9,50,35.2
						c21.5,11.5,41.2,8.8,63.9-8.6c17.1-13.2,41.4-18.8,59.1-22.8c12.4-2.9,25.2-4.5,37.6-6.1c17.1-2.2,33.2-4.3,48.5-9.3
						c28.3-9.2,50-4.9,74.8,15c22.9,18.4,48.3,33.5,75.4,44.9c25.5,10.6,37,24.7,39.6,48.6l-14.9,1.6c-2-18.3-10-27.9-30.5-36.4
						c-28.4-11.9-55-27.7-79-47c-20.8-16.7-37.3-20-60.7-12.4c-16.6,5.4-34.2,7.7-51.2,9.9c-12,1.6-24.4,3.2-36.2,5.9
						c-21.2,4.9-39.9,9.8-53.4,20.1c-27.2,20.9-53.4,24.2-80.1,10c-20.7-11-38.6-23.7-53.3-37.6c-64-60.8-131.8-101.3-207.3-123.9
						c-21.3-6.4-44.2-15.6-70-28.2c-27.7-13.5-50.9-11.4-70.7,6.6c-18.5,16.7-37,34.2-54.8,51.1c-28.4,27-57.8,54.8-88.4,80.5
						c-25.2,21.1-58.7,46.7-94.4,56.4c-70.9,19.2-119.4,49.3-157.5,97.5c-32.6,41.3-71.4,78.5-109,114.6
						c-6.2,5.9-12.3,11.9-18.5,17.8c-20.3,19.6-39.1,31-59.1,35.9c-22.3,5.5-46.8,2.8-74.9-8.1c-63.9-24.8-132.8-40.9-199.4-56.5
						c-21.5-5-43.8-10.2-65.5-15.6c-13.1-3.3-29.9-2.3-43.7,2.5c-60.8,21-119,27.8-177.8,20.8c-24.8-2.9-50.3-4.5-69.7,3.5
						c-21,8.6-43.4,13-66.1,12.8c-33.7,0-66.3-8.5-98.3-16.9s-53.3-2.3-78,22.4c-23.5,23.4-53.6,40.9-80.7,46.8
						c-16.4,3.6-33.5,5.8-50,7.9c-56,7.2-108.9,14-140.8,72c-4.8,8.8-15,14.7-21.7,18.6c-68.2,39.8-118.3,93.8-153.2,165.1
						c-20,40.8-46.8,61.3-79.9,61.3c-9.6-0.1-19.2-1.6-28.4-4.5c-6.9-2.1-12-1.3-12.6-0.5c-2.3,3-4.5,5.4-6.2,7.4
						c-5.8,6.6-7.1,8-5.3,20.8L743.3,1309.1z"/>
					<path id="y-8" class="st2" d="M2849.3,1425.5l-14.9-1.9c2.3-18.3-3.2-29.4-21.2-42.5c-24.8-18.2-47-39.8-65.9-64.2
						c-16.4-21.1-31.6-28.2-56.2-26.2c-17.4,1.4-35.1-0.5-52.1-2.3c-12.1-1.3-24.5-2.6-36.5-2.7c-21.8-0.2-41.1,0.2-56.6,7.2
						c-31.3,14-57.6,11.1-80.2-8.9c-17.6-15.5-32.1-32-43.1-49c-48.1-74-104.6-129.2-172.8-168.7c-19.2-11.2-39.4-25.4-61.5-43.7
						c-23.8-19.6-46.8-22.9-70.3-10.1c-21.9,12-43.9,24.7-65.2,37c-33.9,19.6-69,39.9-104.7,57.7c-29.4,14.7-68,31.7-105,32.9
						c-73.4,2.3-127.7,20.3-175.9,58.3c-41.3,32.6-87.8,59.8-132.7,86.1c-7.4,4.3-14.8,8.7-22.2,13c-24.3,14.3-45.2,21.1-65.8,21.2
						c-23,0.1-46.2-8.2-70.9-25.3c-56.3-39-119.6-70.7-180.8-101.3c-19.7-9.9-40.2-20.1-60.1-30.4c-12-6.2-28.5-9.2-43.1-7.8
						c-64,6.3-122.2-0.6-177.8-21.1c-23.4-8.6-47.9-16.1-68.6-12.9c-8.6,1.4-17.4,2.1-26.1,2.1c-49.8,0-91.9-22.5-132.8-44.3
						c-29.3-15.6-51.3-14.6-81.1,3.6c-28.3,17.3-61.7,27.3-89.4,26.7c-16.8-0.3-33.9-2.2-50.4-3.9c-56.2-6-109.2-11.7-153.7,37.2
						c-6.8,7.4-18,10.8-25.4,13c-75.6,22.8-136.9,63.6-187.4,124.9c-23.7,28.7-48.7,43.1-74.7,43.1c-14.3,0-28.9-4.4-43.9-13.1
						c-6.2-3.7-11.4-4.1-12.2-3.4c-3,2.4-5.6,4.2-7.7,5.7c-7.2,5.1-8.7,6.1-10,19l-14.9-1.4c1.8-18.9,6.8-23.2,16.3-29.9
						c2-1.4,4.4-3.1,7-5.2c10-8,24.9-0.4,29.2,2.2c35.1,20.6,67.7,11.9,99.4-26.6c52.4-63.6,116.1-106.1,194.6-129.7
						c5.9-1.8,14.7-4.4,18.6-8.8c49.6-54.6,109-48.2,166.4-42c16.2,1.7,33,3.5,49.2,3.9c24.9,0.5,55.3-8.6,81.2-24.5
						c34.3-21,62.1-22.2,96-4c45.7,24.4,92.9,49.6,149.5,40.6c24.1-3.8,50.8,4.3,76.1,13.6c53.4,19.7,109.4,26.3,171.1,20.2
						c17.3-1.7,37,1.9,51.4,9.4c19.8,10.3,40.2,20.5,59.9,30.3c61.7,30.9,125.4,62.8,182.6,102.4c48.4,33.5,83.2,25.6,120.6,3.5
						c7.4-4.4,14.8-8.7,22.2-13c44.5-26.1,90.4-53,131-84.9c50.9-40.1,107.9-59.1,184.7-61.5c34.1-1.1,70.7-17.3,98.7-31.3
						c35.3-17.6,70.2-37.8,103.9-57.3c21.4-12.3,43.5-25.1,65.5-37.2c29.1-15.9,58.4-12,87,11.6c21.5,17.7,41,31.5,59.5,42.3
						c70.2,40.7,128.4,97.5,177.9,173.5c10.3,15.8,23.9,31.3,40.5,45.9c18.2,16.1,38,18.1,64.1,6.4c19.7-8.8,44.6-8.6,62.9-8.5
						c12.8,0.1,25.6,1.5,38,2.8c17.1,1.8,33.3,3.6,49.3,2.3c29.7-2.4,49.8,6.9,69.2,31.9c18,23.2,39.2,43.8,62.9,61.2
						C2844.4,1385.3,2852.3,1401.6,2849.3,1425.5z"/>
					<path id="d-6" class="st6" d="M2728.1,2303.1l-12.2-8.7c10.8-15,11.2-27.4,1.6-47.5c-13.1-27.9-22.3-57.4-27.3-87.8
						c-4.3-26.3-14.3-39.8-36.9-49.8c-16-7.1-30.6-17.2-44.7-26.9c-10-6.9-20.3-14-30.8-19.8c-19.1-10.6-36.2-19.4-53.1-20.7
						c-34.2-2.6-55.9-17.7-66.2-46.1c-8-22-12.9-43.4-14.5-63.6c-7-88-30.4-163.4-71.4-230.7c-11.6-19-22.4-41.1-33.2-67.7
						c-11.5-28.5-30.1-42.4-56.8-42.4h-0.2c-24.9,0.1-50.4,0.8-74.9,1.4c-39.2,1.1-79.6,2.2-119.5,0.8
						c-32.9-1.1-74.9-4.6-107.9-21.2c-65.6-33-121.9-43.1-182.4-32.7c-51.8,8.9-105.6,10.7-157.7,12.4c-8.6,0.3-17.1,0.6-25.7,0.9
						c-28.2,1-49.8-3-68-12.8c-20.2-10.8-36.7-29.2-50.3-56.1c-30.9-61.2-71.4-119.2-110.5-175.3c-12.6-18.1-25.7-36.8-38.3-55.4
						c-7.6-11.2-20.7-21.7-34.1-27.4c-59.2-25-107.1-58.8-146.2-103.3c-16.5-18.7-34.4-37-54.2-44c-58.8-20.8-89.7-67.7-119.5-112.9
						c-18.3-27.7-38.1-37.3-73-35.5c-33.1,1.7-67.2-5.4-91.3-19.2c-14.6-8.3-28.8-18.1-42.4-27.5c-46.5-32.1-90.4-62.4-152.9-40.6
						c-9.5,3.3-21,0.9-28.6-0.7c-77.3-16-150.7-9.4-224.3,20.4c-53.5,21.6-93.4,11.5-118.5-30.2c-3.7-6.2-8.1-9-9.1-8.8
						c-3.8,0.7-7,1-9.6,1.3c-8.8,1-10.6,1.2-17.8,12l-12.4-8.4c10.6-15.8,17.1-17.2,28.6-18.5c2.5-0.3,5.3-0.6,8.6-1.2
						c12.6-2.3,22,11.5,24.6,15.8c21,34.9,53.8,42.7,100.1,24c76.5-30.9,152.6-37.8,233-21.1c6,1.2,15,3.1,20.6,1.2
						c69.7-24.3,118.8,9.6,166.3,42.4c13.4,9.3,27.3,18.8,41.3,26.8c21.7,12.3,52.7,18.8,83.1,17.2c40.1-2.1,65.1,10.2,86.3,42.2
						c28.5,43.2,58,87.9,112.1,107.1c23,8.1,42.6,28,60.4,48.3c37.6,42.8,83.6,75.3,140.7,99.4c16,6.8,31.6,19.3,40.7,32.8
						c12.5,18.5,25.5,37.2,38.2,55.2c39.4,56.5,80.2,115,111.6,177.1c26.5,52.5,60.9,62.2,104.3,60.6c8.6-0.3,17.1-0.6,25.7-0.9
						c51.5-1.7,104.8-3.4,155.6-12.2c63.9-11,123-0.5,191.7,34.1c30.4,15.3,70.3,18.5,101.7,19.6c39.4,1.3,79.7,0.3,118.6-0.8
						c24.7-0.7,50.2-1.4,75.3-1.4h0.2c33,0,56.8,17.4,70.7,51.8c10.4,25.8,21,47.3,32.1,65.5c42.3,69.3,66.3,146.9,73.5,237.3
						c1.5,18.8,6.1,38.9,13.7,59.7c8.3,22.9,24.8,34.1,53.3,36.3c21.5,1.7,43.3,13.7,59.3,22.5c11.2,6.2,21.8,13.5,32.1,20.6
						c14.2,9.8,27.6,19,42.3,25.5c27.2,12.1,40.4,29.8,45.6,61.1c4.8,29,13.5,57.2,26.1,83.8
						C2743,2265.4,2742.1,2283.6,2728.1,2303.1z"/>
					<path id="b-9" class="st1" d="M309.7,1255.7c-2.6-18.8,1.2-24.2,8.9-32.8c1.6-1.9,3.5-4,5.6-6.6c7.8-10.1,24.1-6.2,28.9-4.7
						c39,11.9,68.6-4.2,90.5-49c36.2-74.1,88.3-130.2,159.1-171.5c5.3-3.1,13.3-7.7,16.1-12.9c35.6-64.6,94.8-72.2,152.1-79.6
						c16.2-2.1,32.9-4.2,48.7-7.7c24.4-5.3,51.8-21.3,73.3-42.7c28.5-28.4,55.2-36,92.4-26.3c50.1,13.1,101.9,26.6,154.9,4.7
						c22.5-9.3,50.4-7.7,77.2-4.5c56.5,6.7,112.5,0.1,171.1-20.1c16.4-5.7,36.4-6.8,52.2-2.8c21.7,5.4,43.8,10.6,65.3,15.6
						c67.1,15.7,136.6,31.9,201.4,57.1c54.8,21.3,86.9,5.6,118.1-24.6c6.2-5.9,12.3-11.9,18.6-17.8c37.2-35.7,75.6-72.6,107.6-113
						c40.2-50.9,91.2-82.6,165.3-102.8c32.9-9,64.7-33.2,88.7-53.4c30.2-25.3,59.4-53.1,87.7-79.9c17.9-17,36.4-34.5,55.1-51.4
						c24.6-22.2,54-25.2,87.4-8.9c25,12.2,47.2,21.1,67.7,27.3c77.8,23.3,147.6,64.9,213.3,127.3c13.7,13,30.5,24.9,50,35.2
						c21.5,11.4,41.2,8.8,63.9-8.7c17.1-13.2,41.4-18.8,59.1-22.8c12.4-2.9,25.2-4.5,37.6-6.1c17.1-2.2,33.2-4.3,48.5-9.3
						c28.3-9.2,50-4.9,74.8,15c22.9,18.4,48.3,33.5,75.4,44.9c25.5,10.6,37,24.7,39.6,48.6l-14.9,1.6c-2-18.3-10-27.9-30.5-36.4
						c-28.4-11.9-55-27.7-79-47c-20.8-16.7-37.3-20-60.7-12.4c-16.6,5.4-34.2,7.7-51.2,9.9c-12,1.5-24.4,3.2-36.2,5.9
						c-21.2,4.9-39.9,9.8-53.4,20.1c-27.2,20.9-53.4,24.2-80.1,10c-20.7-11-38.6-23.7-53.3-37.6c-64-60.8-131.8-101.3-207.3-123.9
						c-21.3-6.4-44.2-15.6-70-28.2c-27.7-13.5-50.8-11.4-70.7,6.6c-18.5,16.7-37,34.2-54.8,51.1c-28.4,27-57.8,54.8-88.4,80.5
						c-25.2,21.1-58.7,46.7-94.4,56.4c-70.9,19.3-119.4,49.4-157.5,97.6c-32.6,41.3-71.4,78.5-109,114.6
						c-6.2,5.9-12.3,11.9-18.5,17.8c-20.3,19.6-39.1,31-59.1,35.9c-22.3,5.5-46.8,2.8-74.9-8.1c-63.9-24.8-132.8-40.9-199.4-56.5
						c-21.5-5-43.7-10.2-65.5-15.6c-13.1-3.3-29.9-2.3-43.7,2.5c-60.8,21-119,27.8-177.8,20.8c-24.8-2.9-50.3-4.5-69.7,3.4
						c-21,8.6-43.4,13-66.1,12.8c-33.7,0-66.3-8.5-98.3-16.9s-53.3-2.3-78,22.4c-23.5,23.4-53.7,40.9-80.7,46.8
						c-16.5,3.6-33.5,5.8-50,7.9c-56,7.2-109,14-140.8,72c-4.8,8.8-15,14.7-21.7,18.6c-68.2,39.6-118.3,93.6-153.2,164.9
						c-19.9,40.8-46.8,61.3-79.9,61.3c-9.6-0.1-19.2-1.6-28.4-4.5c-6.9-2.1-12-1.3-12.6-0.5c-2.3,3-4.5,5.4-6.2,7.4
						c-5.8,6.6-7.1,8-5.3,20.8L309.7,1255.7z"/>
					<path id="y-9" class="st2" d="M1562.1,1059.4l-14.8-2.1c2.6-18.3-2.7-29.5-20.4-42.9c-24.5-18.7-46.3-40.7-64.8-65.4
						c-16-21.3-31.1-28.7-55.7-27.2c-17.5,1.1-35.1-1.1-52.1-3.2c-12-1.5-24.4-3.1-36.5-3.4c-21.8-0.6-41.1-0.5-56.7,6.1
						c-31.6,13.5-57.8,10.1-80-10.4c-17.3-15.8-31.5-32.6-42.2-49.8c-46.8-74.8-102.3-131-169.7-171.8c-19-11.5-38.9-26.2-60.7-44.8
						c-23.4-20-46.4-23.7-70.1-11.3c-22.1,11.6-44.4,23.9-65.9,35.8c-34.3,19-69.7,38.6-105.7,55.8c-29.7,14.2-68.5,30.5-105.5,31
						c-73.5,1-128,18-176.9,55.1c-41.9,31.8-88.8,58.2-134.2,83.7c-7.5,4.2-14.9,8.4-22.4,12.6c-24.5,13.9-45.6,20.3-66.2,20
						c-23-0.3-46-9-70.5-26.6C35.5,860.8-27.2,828-87.8,796.2c-19.6-10.2-39.8-20.8-59.5-31.5c-11.9-6.4-28.3-9.7-42.9-8.6
						c-64.1,5.1-122.1-2.8-177.4-24.3c-23.2-9-47.6-17-68.4-14.1c-7.7,1.1-15.4,1.6-23.2,1.6c-51.1,0-93.7-23.7-135-46.7
						c-29-16.2-51-15.6-81.2,2.2c-28.6,16.8-62.2,26.2-89.8,25.1c-16.8-0.7-33.9-2.8-50.3-4.9c-56-7-109-13.7-154.4,34.5
						c-6.9,7.3-18.2,10.5-25.6,12.6c-76,21.4-138,61.2-189.6,121.5c-23.8,27.8-48.7,41.8-74.2,41.8c-14.7,0-29.7-4.6-44.9-13.9
						c-6.2-3.8-11.3-4.2-12.1-3.6c-3,2.3-5.7,4.2-7.9,5.6c-7.3,4.9-8.8,6-10.3,18.8l-14.9-1.7c2.2-18.9,7.2-23.1,16.8-29.6
						c2.1-1.4,4.4-3,7-5c10.1-7.8,24.8,0.1,29.1,2.7c34.8,21.2,67.4,13.1,99.9-24.8c53.6-62.7,118-103.9,197-126.2
						c5.9-1.7,14.8-4.2,18.8-8.4c50.6-53.7,109.8-46.2,167.1-39c16.2,2,32.9,4.1,49.1,4.8c24.9,1,55.4-7.6,81.7-23
						c34.7-20.4,62.5-21,96.1-2.3c45.2,25.2,92,51.2,148.8,43.3c24.1-3.4,50.7,5.2,75.9,15c53.1,20.6,108.9,28.3,170.7,23.3
						c17.3-1.4,37,2.6,51.2,10.3c19.6,10.6,39.8,21.2,59.3,31.4c61.1,32,124.2,65,180.7,105.7c47.8,34.4,82.7,27.1,120.5,5.7
						c7.5-4.2,14.9-8.4,22.4-12.6c44.9-25.2,91.4-51.3,132.5-82.5c51.7-39.3,109-57.2,185.8-58.2c34.1-0.5,71-16,99.3-29.5
						c35.6-17,70.8-36.5,104.9-55.4c21.6-12,43.9-24.3,66.2-36c29.4-15.4,58.6-10.9,86.8,13.2c21.2,18.1,40.4,32.3,58.7,43.3
						c69.5,42,126.6,99.8,174.7,176.7c10,16,23.3,31.7,39.6,46.7c18,16.5,37.7,18.8,64,7.6c19.9-8.5,44.8-7.8,63-7.3
						c12.8,0.3,25.6,1.9,37.9,3.5c17.1,2.1,33.2,4.2,49.3,3.2c29.7-1.8,49.6,7.8,68.6,33.2c17.6,23.5,38.4,44.5,61.8,62.3
						C1557.9,1019.1,1565.5,1035.6,1562.1,1059.4z"/>
					<path id="r-6" class="st0" d="M2468.9,1002.5l-14.3-4.5c5.6-17.6,2.1-29.5-13.2-45.6c-21.1-22.4-39-47.7-53.2-75
						c-12.3-23.7-26-33.4-50.5-35.9c-17.4-1.8-34.4-6.8-50.9-11.7c-11.6-3.4-23.6-7-35.4-9.3c-21.4-4.1-40.5-7.2-57-3.2
						c-33.4,8.1-58.6,0.5-77.2-23.3c-14.5-18.4-25.7-37.3-33.5-56c-34-81.5-79.6-146-139.4-197.2c-16.9-14.4-34.1-32.1-52.6-54.1
						c-19.9-23.6-41.9-31-67.3-22.6c-23.7,7.8-47.7,16.3-70.8,24.6c-36.9,13.1-75,26.8-113.4,37.8c-31.6,9.1-72.6,18.9-109.2,13.3
						c-72.6-11-129.2-3.2-183.5,25.5c-46.5,24.5-97.1,42.9-146.1,60.7c-8.1,2.9-16.1,5.9-24.1,8.8c-26.5,9.7-48.3,12.5-68.6,8.9
						c-22.6-4-43.9-16.4-65.2-37.7c-48.3-48.5-104.8-91.1-159.4-132.3c-17.6-13.3-35.9-27-53.6-40.8c-10.7-8.3-26.4-14.2-40.9-15.4
						c-64.1-5.4-120-22.7-171-52.9c-21.5-12.7-44.2-24.6-65.2-25.1c-62.3-1.6-106.2-36.5-148.7-70.3c-26-20.7-47.8-23.7-80.4-11.1
						c-31,11.9-65.6,15.7-92.7,10.1c-16.5-3.4-32.9-8.3-48.9-13c-54.2-16.1-105.3-31.3-157.9,8.8c-8,6.1-19.6,7.4-27.4,8.2
						c-78.5,8.8-146.2,37.8-206.9,88.9c-23.8,20-46.7,30.1-68.6,30.1c-18.7,0-36.5-7.3-53.5-22c-5.5-4.8-10.5-6-11.4-5.5
						c-3.4,1.8-6.3,3.2-8.7,4.2c-8,3.7-9.7,4.4-13.2,16.9l-14.4-4.1c5.2-18.3,10.9-21.6,21.4-26.4c2.3-1,4.8-2.2,7.8-3.8
						c11.3-6.1,24.5,4.1,28.3,7.4c30.8,26.6,64.4,23.9,102.6-8.2c63.1-53.1,133.4-83.3,214.9-92.4c6.1-0.7,15.2-1.7,19.9-5.3
						c58.7-44.7,115.9-27.7,171.3-11.2c15.6,4.6,31.8,9.4,47.6,12.7c24.4,5,55.9,1.5,84.3-9.4c37.5-14.4,65.1-10.6,95.1,13.4
						c40.5,32.2,82.4,65.6,139.7,67c24.4,0.6,49.2,13.4,72.4,27.1c49,29,102.8,45.6,164.6,50.9c17.3,1.5,36,8.6,48.9,18.5
						c17.6,13.7,35.8,27.4,53.4,40.7c55,41.5,112,84.4,161.1,133.7c41.5,41.7,77.2,40.3,118,25.3c8-2.9,16.1-5.9,24.2-8.8
						c48.4-17.6,98.5-35.8,144.2-59.8c57.3-30.2,116.8-38.6,192.8-27.1c33.7,5.1,72.6-4.2,102.8-12.9
						c37.9-10.9,75.8-24.5,112.5-37.5c23.2-8.3,47.3-16.9,71.2-24.7c31.5-10.4,59.6-1.2,83.5,27.2c18,21.3,34.6,38.4,50.8,52.3
						c61.7,52.8,108.7,119.1,143.5,202.8c7.3,17.5,17.9,35.1,31.5,52.5c15,19.2,34.1,24.7,61.9,18c21-5.1,45.5-0.4,63.3,3
						c12.5,2.4,24.9,6.1,36.9,9.6c16.5,4.9,32.1,9.5,48.1,11.2c29.6,3,47.7,15.8,62.3,43.9c13.5,26.1,30.6,50.2,50.8,71.6
						C2471.3,962.1,2476.1,979.6,2468.9,1002.5z"/>
					<path id="o-5" class="st3" d="M1807.3,999l-14-5.3c6.6-17.2,3.8-29.4-10.5-46.3c-19.8-23.6-36.2-49.8-48.8-77.9
						c-10.9-24.3-24-34.8-48.4-38.8c-17.3-2.8-34-8.8-50.1-14.6c-11.4-4.1-23.2-8.3-34.8-11.3c-21.1-5.3-40-9.5-56.7-6.5
						c-33.8,6.2-58.6-2.8-75.8-27.7c-13.4-19.2-23.6-38.7-30.3-57.8c-29.2-83.3-71.1-150.3-127.9-204.8c-16-15.4-32.2-34-49.4-57
						c-18.5-24.7-40-33.3-65.9-26.4c-24.1,6.4-48.5,13.6-72.1,20.5c-37.6,11-76.5,22.4-115.4,31.3c-32.1,7.3-73.5,14.7-109.8,7.1
						c-71.9-15.1-128.8-10.5-184.7,15c-47.9,21.9-99.4,37.3-149.3,52.2c-8.2,2.5-16.4,4.9-24.6,7.4c-27,8.2-48.9,9.8-69,5
						c-22.3-5.3-42.9-18.8-62.9-41.4c-45.5-51.2-99.5-97-151.6-141.2c-16.9-14.3-34.3-29-51.2-43.8c-10.2-8.9-25.5-15.7-40-17.8
						c-63.7-9.1-118.5-29.5-167.7-62.6c-20.7-13.9-42.7-27-63.6-28.8c-62.1-5.1-104-42.5-144.4-78.7c-24.8-22.1-46.4-26.4-79.7-15.7
						c-31.6,10.1-66.4,11.9-93.2,4.8c-16.3-4.3-32.4-10.2-48-15.8c-53.2-19.2-103.4-37.3-158.2-0.3c-8.3,5.6-20,6.2-27.8,6.6
						c-78.8,4.2-148.1,29.4-211.7,77c-23.4,17.5-45.4,26.2-66.1,26.2c-20.2,0-39-8.4-56.3-25.1c-5.2-5-10.1-6.6-11-6.2
						c-3.5,1.6-6.5,2.8-8.9,3.8c-8.2,3.2-9.9,3.9-14.2,16.1l-14.2-4.9c6.2-17.9,12.1-21,22.9-25.2c2.3-0.9,5-1.9,8-3.4
						c11.6-5.4,24.2,5.5,27.8,9c29.2,28.3,62.9,27.6,102.9-2.3c66-49.4,137.9-75.5,219.8-79.9c6.1-0.3,15.3-0.8,20.2-4.1
						c61.1-41.3,117.3-21,171.6-1.4c15.3,5.5,31.2,11.2,46.8,15.4c24.1,6.4,55.8,4.7,84.7-4.6c38.3-12.3,65.6-6.8,94.2,18.8
						c38.6,34.5,78.5,70.2,135.7,74.9c24.3,2,48.3,16.2,70.7,31.2c47.3,31.8,100.1,51.5,161.5,60.2c17.2,2.5,35.5,10.6,47.7,21.3
						c16.8,14.7,34.2,29.4,51,43.7c52.6,44.6,107,90.7,153.2,142.7c39,44,74.8,44.6,116.4,32c8.2-2.5,16.4-5,24.6-7.4
						c49.4-14.8,100.4-30.1,147.4-51.5c59-26.9,118.8-31.9,194-16c33.3,7,72.7-0.1,103.3-7c38.5-8.8,77.1-20.1,114.5-31
						c23.7-6.9,48.2-14.1,72.4-20.6c32-8.5,59.5,2.2,81.8,31.9c16.7,22.3,32.3,40.3,47.8,55.2c58.6,56.1,101.6,125,131.6,210.6
						c6.3,17.8,15.8,36.1,28.4,54.2c13.9,20,32.7,26.6,60.8,21.5c21.2-3.9,45.4,2.2,63.1,6.7c12.4,3.1,24.5,7.5,36.2,11.7
						c16.2,5.8,31.5,11.3,47.4,13.9c29.4,4.7,46.7,18.5,59.7,47.4c12,26.8,27.7,51.9,46.6,74.4
						C1812.1,958.8,1815.9,976.5,1807.3,999z"/>
					<path id="y-10" class="st2" d="M3396.9,806.7l-14.7-2.8c3.5-18.1-1.4-29.6-18.4-43.8c-23.6-19.8-44.4-42.7-61.7-68.2
						c-15-22.1-29.7-30.1-54.4-29.7c-17.5,0.3-35-2.7-51.9-5.6c-11.9-2-24.3-4.2-36.3-5c-21.8-1.6-41.1-2.4-56.9,3.5
						c-32.2,12-58.1,7.4-79.5-14c-16.5-16.6-30-34-39.9-51.6c-43.3-76.9-96.2-135.6-161.7-179.3c-18.5-12.4-37.6-27.9-58.6-47.5
						c-22.5-21.1-45.2-25.8-69.5-14.5c-22.6,10.5-45.4,21.8-67.4,32.8c-35.1,17.4-71.4,35.4-108.1,50.9
						c-30.3,12.8-69.9,27.3-106.8,26.1c-73.4-2.4-128.7,12.1-179.2,47c-43.3,29.9-91.4,54.1-137.9,77.5c-7.7,3.9-15.3,7.7-22.9,11.6
						c-25.2,12.8-46.5,18.2-67.1,17c-22.9-1.3-45.6-11.1-69.2-29.8c-53.8-42.5-114.9-78.1-174-112.6c-19.1-11.1-38.8-22.6-58-34.2
						c-11.6-7-27.8-11-42.5-10.5c-5.5,0.2-10.9,0.3-16.3,0.3c-57.8,0-110.2-10.7-159.8-32.6c-22.8-10.1-46.8-19.2-67.6-17.2
						c-62.1,5.8-109.8-23.7-155.9-52.2c-28.2-17.5-50.2-17.9-81.2-1.6c-29.3,15.5-63.3,23.3-90.9,21c-16.8-1.4-33.7-4.3-50.1-7.1
						c-55.7-9.6-108.2-18.6-155.8,27.4c-7.2,7-18.6,9.6-26.2,11.4c-76.9,17.9-140.7,54.8-195,112.7c-39.5,42.1-80,49.7-120.3,22.4
						c-6-4.1-11.1-4.8-11.9-4.2c-3.1,2.2-5.9,3.9-8.1,5.2c-7.5,4.6-9.1,5.6-11.1,18.4l-14.8-2.4c3-18.8,8.3-22.8,18.1-28.8
						c2.1-1.3,4.5-2.8,7.3-4.7c10.5-7.4,24.8,1.2,29,4c33.7,22.8,66.8,16.2,100.9-20.3C706.9,415.3,773.2,377,853,358.4
						c6-1.4,15-3.5,19.2-7.6c53-51.3,111.8-41.2,168.8-31.4c16.1,2.8,32.7,5.6,48.8,7c24.8,2.1,55.7-5.1,82.6-19.3
						c35.5-18.8,63.4-18.2,96.1,2.1c44,27.2,89.6,55.4,146.7,50.1c24.3-2.3,50.4,7.5,75.1,18.4c52.1,23,107.5,33.2,169.5,31.1
						c17.4-0.6,36.8,4.3,50.7,12.6c19.1,11.5,38.8,23,57.8,34.1c59.6,34.7,121.1,70.6,175.7,113.8c46.1,36.5,81.4,30.9,120.2,11.2
						c7.6-3.9,15.3-7.7,23-11.6c46-23.2,93.6-47.1,136.1-76.4c53.4-36.8,111.4-52.1,188.3-49.6c34.1,1.1,71.6-12.8,100.5-25
						c36.3-15.3,72.4-33.2,107.3-50.5c22.1-11,45-22.3,67.7-32.9c30-14,59-8.2,86.1,17.1c20.3,19,38.9,34.1,56.7,46
						c67.5,45.1,121.9,105.4,166.4,184.4c9.3,16.5,21.9,32.8,37.5,48.4c17.2,17.3,36.8,20.5,63.6,10.5c20.2-7.5,45.1-5.8,63.2-4.5
						c12.7,0.9,25.4,3.1,37.7,5.2c17,2.9,33,5.7,49.1,5.4c29.8-0.5,49.2,10,67.1,36.3c16.5,24.3,36.3,46.2,58.9,65.1
						C3394.6,766.2,3401.4,783.1,3396.9,806.7z"/>
				</g>
			</g>
		</g>
	</g>
</g>
</svg>
