<?xml version="1.0" encoding="UTF-8"?><svg id="Hero" xmlns="http://www.w3.org/2000/svg" xmlns:xlink="http://www.w3.org/1999/xlink" viewBox="0 0 960 702.61"><defs><style>.cls-1{fill:#ebb158;}.cls-2{fill:none;}.cls-3{fill:#ea6112;}.cls-4{fill:#eca340;}.cls-5{font-family:Poppins-Bold, Poppins;font-size:123.08px;font-weight:700;}.cls-5,.cls-6{fill:#0c1934;}.cls-7{fill:#081a36;}.cls-8{fill:#1f8770;}.cls-9{fill:#d90259;}.cls-10{fill:#ebe627;}.cls-11{fill:#da065a;}.cls-12{fill:#e03;}.cls-13{fill:#f5da7d;}.cls-14{clip-path:url(#clippath-1);}.cls-15{clip-path:url(#clippath-3);}.cls-16{clip-path:url(#clippath-4);}.cls-17{clip-path:url(#clippath-2);}.cls-18{clip-path:url(#clippath-7);}.cls-19{clip-path:url(#clippath-6);}.cls-20{clip-path:url(#clippath-9);}.cls-21{clip-path:url(#clippath-8);}.cls-22{clip-path:url(#clippath-5);}.cls-23{fill:#f7c804;}.cls-24{fill:#f8ab00;}.cls-25{fill:#dc494f;}.cls-26{fill:#d3cb1a;}.cls-27{fill:#ecb357;}.cls-28{fill:#e0001b;}.cls-29{fill:#e21a27;}.cls-30{fill:#19766c;}.cls-31{clip-path:url(#clippath);}.cls-32{fill:#1a525b;}</style><clipPath id="clippath"><rect id="_mask_" class="cls-2" x="-.72" width="961.44" height="702.72"/></clipPath><clipPath id="clippath-1"><path class="cls-6" d="M258.21,259.02h.05s.09.02.14.03c-.06-.01-.12-.02-.19-.03M275.29,275.06c-1.91-.63-1.56-4.73-1.39-6.7.2-2.28.71-5.58,2.05-8.35,1.43-2.96,2.41-3.03,2.67-2.97.45.09.69,1.21.73,3.33,0,.19,0,.36.01.51v.09c.06,1.73.13,3.51.26,5.27.03.41.07.82.1,1.23.05.49.11.98.17,1.45.2,1.59.39,3.09.05,4.55-.16.67-.5,1.14-1.06,1.45-.52.29-1.18.41-1.83.41s-1.25-.11-1.76-.28M247.68,246.47l7.87-2.49c-1.65,2.92-2.71,6.03-3.36,8.39-.19.68-.41,1.51-.62,2.42l-71.79,16.2,65.74-24.54c.35.12.72.18,1.09.18.35,0,.7-.05,1.05-.16M256.49,251.57c.63-2.2,1.77-5.34,3.62-7.8.6-.81,1.12-1.35,1.54-1.72l1.8-.57c.28.37.26,1.47-.06,3.3-.03.19-.06.36-.09.51v.07c-.28,1.71-.57,3.48-.77,5.23-.04.34-.08.68-.11,1.02l-3.93,1.12c-.54.15-1.02.44-1.41.82l-1.15.26c.18-.85.41-1.65.58-2.24M265.04,231.14l-19.84,8.8c-.69.3-1.24.81-1.6,1.43l-95.96,36.88-60.34,13.62c-.39-.25-.69-.62-.84-1.07-.55-1.62-2.72-1.91-3.67-.49-.38.57-1.01.91-1.69.92-1.38.02-2.25,1.3-2,2.5l-6.52,1.47c-.96.22-1.57,1.17-1.36,2.13.21.97,1.16,1.59,2.13,1.38l6.42-1.38c.15,1.25,1.45,2.18,2.77,1.69.64-.23,1.35-.14,1.91.25,1.4.99,3.32-.05,3.26-1.77-.03-.68.28-1.33.83-1.74.16-.12.3-.26.42-.41l32.16-6.9-41.84,16.08c-.17-.2-.3-.42-.39-.68-.55-1.62-2.72-1.91-3.67-.49-.38.56-1.01.91-1.69.92-1.62.02-2.55,1.8-1.75,3.13l-5.84,2.24c-.92.35-1.38,1.38-1.04,2.3.35.93,1.38,1.4,2.31,1.05l5.19-1.94c.45.87,1.5,1.39,2.56,1,.64-.23,1.35-.14,1.91.25,1.4.99,3.32-.05,3.26-1.77-.03-.68.28-1.33.83-1.74.44-.33.69-.77.79-1.23l67.41-25.16,102.01-21.9c.27,1.75,1.06,3.31,2.77,4.24,1.34.73,3.28,1.4,5.21,1.45.84.02,1.68-.08,2.46-.34,1.44-.48,2.54-1.47,3.17-2.85.71-1.56.98-3.19,1.11-4.81l7.38-1.17c-.1.18-.2.37-.3.56-2.13,4.14-2.88,9.01-3.13,12.36-.25,3.34-.77,10.29,4.09,11.83.39.12.83.24,1.29.33,2,.39,4.53.38,6.45-.71,1.32-.75,2.21-1.93,2.56-3.41.58-2.45.2-4.86-.16-7.19-.1-.64-.2-1.3-.28-1.93-.07-.53-.13-1.09-.19-1.65-.24-2.39-.39-4.83-.52-7.2v-.11c-.02-.2-.03-.42-.04-.66-.04-1.01-.09-2.41-.43-3.7l.37-.06c.18-.03.38-.07.55-.12,2.06-.59,3.41-2.46,3.42-4.5v-.04c0-.42-.06-.85-.18-1.27-.71-2.5-3.31-3.95-5.81-3.24l-14.55,4.13c.2-1.79.44-3.58.68-5.33v-.08c.04-.2.07-.42.11-.66.17-1.12.42-2.73.25-4.2l.92-.29c.16-.05.33-.11.49-.18,2.37-1.05,3.45-3.83,2.39-6.21-.78-1.75-2.5-2.8-4.3-2.8-.64,0-1.28.13-1.9.41"/></clipPath><clipPath id="clippath-2"><path class="cls-6" d="M182.13,230.05c-.18.31-.34.63-.49.96-.9,1.92-1.38,4.01-1.51,6.12-.06,1.07-.1,2.15.1,3.21.2,1.04.56,2.04.87,3.05.18.58.29.94.4,1.42.04.18.04.95.04.95-.08,12.26-1.07,13.8-1.46,15.28-.8,3.06-2.13,6.24-5.27,6.61-3.68.43-7.44.37-11.14.41-4.49.04-8.94.21-13.42.43-1.21.06-2.42.12-3.63.18-1.94.1-3.7.32-5.42,1.27-1.76.97-3.33,2.23-4.67,3.73-2.2,2.47-2.83,5.98-2.62,9.19.09,1.42.34,2.83.66,4.22.29,1.24.76,2.42.98,3.68,1.22,7.06-3.01,13.6-7.14,18.92-2.24,2.88-5.4,5.89-6.51,9.47-.07.21-.12.43-.17.65-.22,1.06-.28,2.15-.28,3.22,0,1.33.1,2.66.24,3.98.16,1.45.39,2.89.66,4.31.27,1.42.6,2.83.98,4.22.34,1.25.73,2.49,1.19,3.7.36.94.77,1.89,1.31,2.75.2.31.41.62.67.88,3.15,3.29,8.9-.18,11.64-2.36,3.54-2.81,7.12-5.76,9.97-9.3,1.5-1.86,2.75-3.93,3.27-6.29.42-1.88.38-3.82.52-5.73.03-.46.08-.91.13-1.36.3-2.47,3.5-12.96,4.64-8.7,1.07,3.99,5.61,13.16,5.61,17.28s-4.49,12.49-5.39,18.33c-.56,3.66-1.57,7.16-2.51,10.66-.12.44.22.88.68.88h72.47c.32,0,.6-.22.68-.53,1-3.86-.76-10.37-.4-13.7.2-1.9,2.77-7.13,2.77-7.13.12-.31.57-.29.66.03,4.15,14.04,3.6,13.85,3.09,18.51-.08.71-.13,1.41-.16,2.09-.02.4.3.73.7.73h21.56c.39,0,.71-.32.7-.71-.03-1.6-.08-2.87-.15-3.65-.45-4.94-4.83-10.28-5.84-13.91-1.11-4.01-1.16-8.19-1.13-12.31.02-4-.32-7.97-.34-11.97-.01-2.28.88-4.41,1.22-6.65.41-2.72.37-5.48.07-8.2-.53-4.86-2.17-10.17-6.45-13.01-2.93-1.95-6.15-1.9-9.31-3.02-3.4-1.21-6.47-3.42-9.62-5.15-1.49-.82-14.97-6.7-16.54-6.65,5.25-4.96,5.87-10.3,2.87-17.42-.98-2.32.19-4.5,1.02-5.86,1-1.64,1.4-3.52,1.78-5.41,1.52-7.54.61-14.34-5.73-18.44-3.09-2-6.74-2.97-10.38-2.97-6.59,0-13.17,3.16-16.5,9.1"/></clipPath><clipPath id="clippath-3"><path class="cls-2" d="M767.05,52.9v12.88h21.73v-12.88h-21.73ZM784.12,61.42c-1.06-.67-2.26-1.19-3.41-1.65-1.98-.78-4.33-1.66-6.72-2.22-.31-.07-.79-.18-1.31-.26.1-.22.22-.44.4-.62l2.32-2.35c3.3.72,6.37,2.09,8.93,4.02l.15.12c.19.15.43.33.68.54l-1.04,2.41Z"/></clipPath><clipPath id="clippath-4"><path class="cls-2" d="M768.52,77.7v12.55h21.88v-12.55h-21.88ZM781.72,82.23c-1.76.64-4.08,1.52-6.24,2.65l-.69-.21,1.77-4.19c1.65-.69,3.34-1.19,5.06-1.47l1.3,2.82c-.4.13-.81.26-1.2.4Z"/></clipPath><clipPath id="clippath-5"><path class="cls-2" d="M767.77,99.47v12.88h21.73v-12.88h-21.73ZM784.84,107.99c-1.06-.67-2.26-1.19-3.41-1.65-1.97-.78-4.32-1.65-6.72-2.22-.31-.07-.79-.18-1.31-.26.1-.22.22-.44.4-.62l2.32-2.35c3.3.72,6.37,2.09,8.93,4.02l.17.13c.19.15.42.33.67.53l-1.04,2.41Z"/></clipPath><clipPath id="clippath-6"><path class="cls-2" d="M769.24,124.27v12.55h21.88v-12.55h-21.88ZM782.43,128.81c-1.77.64-4.08,1.52-6.24,2.65l-.69-.21,1.77-4.19c1.65-.69,3.34-1.19,5.07-1.47l1.3,2.82c-.4.13-.81.26-1.2.4Z"/></clipPath><clipPath id="clippath-7"><path class="cls-2" d="M768.48,146.05v12.88h21.73v-12.88h-21.73ZM785.56,154.57c-1.06-.67-2.26-1.19-3.41-1.65-1.97-.78-4.32-1.66-6.72-2.22-.31-.07-.79-.18-1.31-.25.1-.22.22-.44.4-.62l2.32-2.35c3.3.72,6.37,2.09,8.93,4.02l.14.11c.19.15.43.34.69.55l-1.04,2.41Z"/></clipPath><clipPath id="clippath-8"><path class="cls-2" d="M769.96,170.85v12.55h21.88v-12.55h-21.88ZM783.15,175.38c-1.77.64-4.08,1.52-6.24,2.65l-.69-.21,1.77-4.19c1.65-.69,3.34-1.19,5.07-1.47l1.3,2.82c-.4.13-.81.26-1.2.4Z"/></clipPath><clipPath id="clippath-9"><path class="cls-2" d="M771.63,192.66v9.53h18.58v-9.53h-18.58ZM785.29,198.21c-.74-.25-1.5-.43-2.22-.58-1.62-.34-3.55-.71-5.47-.83-.2-.01-.52-.02-.86-.02l-.05-.02.61-1.44c.29-.68.72-1.21,1.23-1.61,2.14.13,4.22.6,6.11,1.4.02.03.04.06.05.1l.77,1.68c.17.38.28.77.33,1.15l-.5.19Z"/></clipPath></defs><g class="cls-31"><g id="Mountains"><path id="m" class="cls-30" d="M948.12,351.4c-2.39-5.07,4.44-16.86-.7-17.6-3.31-.47-11.09,1.78-30.99,18.04-4.97,4.06-12.47,3.04-15.92-2.37-8.72-13.66,33.55-19.11,31.46-19.62-3.92-.92-10.48-2.52-14.51-2.35-9.49.35-15.52.9-22.04,6.17-3.85,3.12-14.21,2.88-17.42-4.01-4.08-8.76,1.28-51.18-10.89-62.46-3.86-3.65-7.41-7.6-10.62-11.83-3.98-5.14-8.6-5.54-14.05-4-5.05,1.44-10.12,1.7-15.07,3.24-7.88,2.46-17.37,13.25-25.54,15.26-6.74,1.67-14.1-4.89-21.75-6.36-15.2-2.93-27.19-1.75-38.86,3.82-10,4.78-20.81,8.22-31.26,11.54l-5.15,1.63c-5.66,1.82-4.04,19.86-15.23,20.38-15.99.74-8.4-22.89-12.7-27.56-9.77-10.62-19.81-3.36-31-12.51-3.6-2.95-8.78-22.7-12.4-25.75-8.05-6.7-15.63-1.76-16.66-1.29-9.37,4.34-16.66-9.82-27.69-12.8-5.72-1.54-22.32,15.35-26.72,15.07-13.11-.86-8.55-31.56-17.2-39.04-5.29-4.57-9.85-5.39-16.84-3.02-6.62,2.25-13.95,2.75-19.61,1.34-3.44-.85-13.33,17.75-23.64,14.18-11.26-3.84-8.44-24.81-19.86-16.81-1.73,1.21-8.57,4.45-11.71,4.94-16.47,2.54-26.33,8.53-39.55,18.78-6.44,4.99-35.57,28.34-34.15,22.8,9.69-37.69-93.96-48.93-140.74-57.84-1.52-.29.33-2.28.88-2.44,9.29-2.69,134.2,29.14,155.5,29.95,17.36.66,46.48-16.61,63.74-17.84,1.28-.1,3.23-.23,4.24-.94,12.73-8.91,24.64-4.85,36.16-.92,3.25,1.11,6.61,2.25,9.91,3.1,5.12,1.23,11.78.77,17.85-1.27,8.02-2.72,13.79-1.67,19.94,3.62,8.26,7.13,16.8,14.5,28.85,15.29,5.12.33,10.24,3.24,15.02,6.32,10.07,6.52,21.26,10.48,34.23,12.1,3.71.49,7.21,1.98,10.13,4.32,3.6,3.03,7.29,6.06,10.9,9.02,11.24,9.2,22.86,18.72,32.78,29.52,8.39,9.11,15.91,9.13,24.63,6.32l5.16-1.65c10.35-3.29,21.05-6.69,30.86-11.38,12.32-5.87,24.93-7.13,40.82-4.07,7.05,1.36,15.32-.27,21.74-1.84,8.07-1.98,16.17-4.51,24.01-6.95,4.96-1.55,9.81-1.89,14.9-3.35,6.71-1.91,12.84-1,17.64,5.18,3.11,4.09,6.54,7.92,10.27,11.45,12.57,11.63,21.87,25.99,28.5,43.91,1.55,4.03,3.63,7.84,6.19,11.32,3.01,4.19,6.98,5.49,12.88,4.3,4.46-.9,9.58.3,13.31,1.18,2.62.62,5.19,1.49,7.68,2.34,3.42,1.16,6.68,2.27,10.03,2.75,6.21.86,3,26.58.24,20.7Z"/><path id="m-2" class="cls-30" d="M904.65,434.73c-3.78-2.21-7.37-4.72-10.74-7.51-4.16-3.38-7.94-2.84-12.02-.58-3.79,2.1-7.81,3.26-11.49,5.42-5.87,3.45-11.46,13.88-17.64,17.03-5.1,2.61-12.24-1.29-18.65-1.04-12.75.49-22.15,3.68-30.48,10.34-7.13,5.71-15.17,10.49-22.93,15.12l-3.83,2.27c-4.2,2.52-4.62,3.49-6.5,5.79-8.36,10.21-12.94-3.39-17.26-6.34-9.83-6.7-20.84-12.13-31.53-17.37-3.45-1.7-6.99-3.44-10.47-5.22-2.33-1.11-4.92-1.55-7.49-1.3-.95.1-1.89.18-2.82.25-10.01.71-18.52-1.63-27.93-1.96-4.88-.17-15.04,16.5-18.63,17.1-10.69,1.76-12.77-23.73-21.12-28.12-5.1-2.68-8.92-2.48-14.08.73-4.89,3.05-10.68,4.82-15.49,4.75-2.92-.04-7.38,16.74-16.32,15.81-9.76-.98-11.42-18.33-19.09-9.78-1.17,1.29-6.05,5.17-8.48,6.16-12.74,5.12-19.62,7.36-28.31,18.06-4.24,5.21-11.55,7.48-16.21,8.16-1.77.26-3.33-1.14-3.3-2.93.02-1.27-.15-2.36.25-2.12,1.58,4.89,11.77,1.98,17.24-4.75,9.03-11.12,20.04-18.55,33.66-22.77,1.01-.32,2.55-.79,3.23-1.55,8.55-9.54,18.87-8.5,28.85-7.51,2.82.28,5.73.57,8.54.63,4.34.03,9.6-1.59,14.09-4.36,5.93-3.69,10.76-3.92,16.69-.82,7.96,4.18,16.2,8.5,26.02,6.87,4.17-.69,8.83.68,13.24,2.26,9.3,3.35,19.03,4.43,29.75,3.31,3.07-.3,6.16.24,8.94,1.57,3.45,1.76,6.99,3.5,10.44,5.2,10.74,5.28,21.85,10.75,31.84,17.56,8.44,5.74,14.48,4.35,20.95.47l3.84-2.29c7.69-4.58,15.65-9.31,22.64-14.91,8.79-7.02,18.67-10.39,32.01-10.91,5.92-.23,12.25-3.09,17.1-5.55,6.11-3.1,12.14-6.65,17.97-10.08,3.7-2.17,7.52-3.36,11.33-5.48,5.03-2.79,10.12-3.21,15.13.86,3.26,2.7,6.73,5.13,10.38,7.27,12.27,6.99,10.57,9.02-1.31,2.25Z"/><path id="m-3" class="cls-30" d="M-164.54,636.87c1.42-2.3,2.7-1.86,3.77-1.65,8.43,1.62,94.46-49.02,104.84-62.59,10.56-13.8,43.25-27.88,57.2-38.13,1.04-.76,2.6-1.91,3.09-3.06,6.02-14.33,18.27-17.23,30.1-20.04,3.34-.79,6.8-1.62,10.04-2.68,4.98-1.65,10.38-5.6,14.41-10.58,5.33-6.58,10.78-8.76,18.8-7.56,10.79,1.63,20.71-.21,31.33-5.96,4.52-2.45,7.72-5.6,13.41-5.53,11.93.18,27.41,3.97,39.28-1.57,3.4-1.56,7.16-2.17,10.88-1.75,4.65.65,9.4,1.25,14.03,1.82,14.41,1.8,29.32,3.66,43.47,7.51,11.95,3.24,18.33-.75,24.21-7.77,1.16-1.37,2.33-2.76,3.49-4.15,7-8.3,14.25-16.88,20.05-26.07,7.3-11.53,17.29-19.32,32.37-25.19,6.69-2.61,12.82-8.4,17.42-13.14,5.77-5.98,11.28-12.43,16.61-18.68,3.38-3.96,6.87-8.04,10.4-11.99,4.66-5.2,10.75-6.48,18.11-3.8,4.81,1.8,9.75,3.22,14.78,4.22,16.84,3.15,32.35,10.34,47.52,21.97,3.46,2.59,7.24,4.7,11.26,6.28,4.78,1.94,8.82.93,13.19-3.22,3.3-3.14,8.26-4.85,11.89-6.1,2.54-.88,5.19-1.51,7.74-2.11,3.51-.84,6.86-1.63,9.96-3.02,5.73-2.56,10.37-2.13,16,1.48,5.21,3.34,10.86,5.95,16.79,7.74,5.57,1.65,116.74,32.69,117.82,37.64,0,0-112.98-31.95-117.69-32.65-3.84-.58-7.73,8.23-12.02,0-2.92-5.59-1.16-6.56-6.63-10.07-4.72-3.02-8.25-3.37-13-1.25-3.36,1.5-4.55,6.18-8.48,8.98-3.06,2.18-5.85,5.4-10.54,1.92-3.24-2.39-6.37-2.58-9.69-.3-7.84,5.36-7.86,17.73-8.26,26.11-.33,6.77-.27,24.39-14.67,13.16-14.67-11.43-35.49-60.42-51.8-63.47-5.2-1.03-10.32-2.49-15.28-4.35-6.11-2.22-10.91-1.26-14.69,2.94-3.51,3.92-6.99,7.99-10.35,11.93-5.36,6.28-1.5,31.06-7.34,37.11-4.81,5.01-22.91-2.11-30.16.72-14.42,5.62-21.72,7.89-28.63,18.83-5.92,9.38-15.75,16.45-20.3,26.42-3.78,8.28-9.76,14.97-13.86,16.43-4.55,1.64-16.39.85-26.18.21-13.93-3.78-19.62-9.37-33.96-11.15-4.62-.58-9.38-1.18-14.07-1.83-3.11-.34-6.26.17-9.1,1.48-1.04.49-2.09.96-3.13,1.41-7.46,3.19-13.19,6.4-19.41,9.19-7.23,3.24-7.09,11.92-11.66,18.39-3.58,5.07-13.23-14.63-22.09-4.07-8.44,10.07-18.21-9.82-29.52-11.55-6.92-1.05-11.22.69-15.86,6.42-4.4,5.43-11.95,7.28-15.88,11.58-6.82,7.47-13.35,6.23-16.76,7.04-11.58,2.75-16.06,1.07-21.46,13.92-.82,1.95-4.88,8.33-7.28,10.42-12.55,10.92-41.95,14.49-47.67,30.21-4.17,11.43-101.59,78.27-111.66,76.34,0,0-7.11-2.41-5.16-12.78Z"/><path id="m-4" class="cls-30" d="M548.09,199.63c2.77-7.86,31.43,10.39,32.42,10.84,7.81,3.57,14.43,1.06,20.28-7.69,9.65-14.45,22.1-24.67,38.08-31.32,1.19-.5,2.98-1.24,3.72-2.24,9.25-12.49,21.83-12.41,33.99-12.34,3.44.02,6.99.04,10.39-.23,5.23-.42,11.41-2.99,16.51-6.86,6.74-5.12,12.55-5.96,20.06-2.89,10.1,4.14,20.53,8.43,32.21,5.35,4.97-1.31,10.74-.18,16.25,1.23,11.55,3,23.41,3.2,36.26.63,3.67-.71,7.47-.41,10.98.88,4.37,1.74,8.84,3.44,13.2,5.09,13.58,5.16,27.61,10.51,40.45,17.6,10.84,5.98,17.98,3.61,25.36-1.81,1.45-1.06,2.91-2.13,4.38-3.21,8.77-6.4,17.84-13.02,25.66-20.58,9.82-9.48,6.52,1.99,22.56-.14,7.12-.95,4.71,6.53-3,7.55-15.34,2.04-8.11-14.14-17.41-5.15-7.97,7.71-17.13,14.39-25.99,20.86l-4.37,3.18c-4.79,3.52-9.12,13.99-13.45,14.44-4.81.51-9.76-9.34-15.31-12.41-12.64-6.98-27,4.11-40.51-1.01-4.35-1.66-8.38-19.77-12.78-21.51-2.94-1.07-6.08-1.05-9.2-.72-4.5.47-5.58,1.02-8.7,4.36-5.55,5.92-9-.64-15.71.59-7.79,1.43-10.88-.18-15.81,6.03-3.56,4.49-9.27-8.27-20.37-.11-10.59,7.78-15.37-13.86-25.94-18.22-6.47-2.66-11.06-1.99-16.93,2.47-5.57,4.23-13.33,4.24-18.17,7.49-8.39,5.64-14.45,2.88-17.95,2.86-11.9-.07-15.85-2.76-24.15,8.44-1.26,1.7-6.71,6.93-9.54,8.4-14.78,7.63-22.86,11.12-32.15,25.03-6.76,10.12-12.2,18.2-22.23,16.11-2.58-.54-36.57-11.06-33.06-21.01Z"/><path id="m-5" class="cls-30" d="M386.73,214.72c.4,1.84-90.24-10.6-109.07-11.25-4.03-.14-15.25,12.9-17.96,3.68-1.85-6.26-9.01-16.46-13.86-21.13-4.19-4.01-7.71-5.08-12.95-3.88-3.69.85-4.55,2.86-8.29,3.02-2.64.11-8.4-1.66-11-1.3-4.13.56-8.16,1.68-11.99,3.33-9.04,3.87-11.88,10.88-16.22,18.4-6.82,12.77-18.09,8.18-21.01,4.86-12.73-14.45-17.87-56.43-33.82-62.8-5.08-2.09-9.98-4.6-14.65-7.48-5.76-3.48-10.82-3.46-15.51.05-4.35,3.27-8.69,6.72-12.9,10.05-6.7,5.3-8.76,10.38-15.9,15.36-5.89,4.12-18.54,9.4-26.48,10.81-15.77,2.82-26.91,8.41-36.12,18.14-7.89,8.33-17.05,15.67-25.92,22.77-1.46,1.16-2.92,2.33-4.37,3.49-4.79,3.86-9.79,12.27-14.24,12.94-4.95.75-9.53-6.58-15.41-9.5-13.39-6.63-28.02-11.48-42.23-16.15-4.57-1.51-9.29-3.07-13.92-4.67-3.09-.97-6.39-1.08-9.54-.32-1.16.28-2.31.55-3.46.79-12.33,2.62-23.32,1.18-35.08,2.41-6.1.63-12.57,40.84-16.93,42.2-12.99,4.04-23.13-47.87-34.27-51.88-6.82-2.45-11.67,1.31-17.53,6.19-5.59,4.64-12.45,7.85-18.45,8.59-3.64.45-14.32,50.87-17.94,51-12.31.48-17-49.34-25.06-37.37-1.22,1.81-6.62,7.48-9.48,9.13-14.96,8.58-23.13,12.55-32.09,27.37-6.52,10.78-12.41,21.66-22.25,17.69-1.47-.6-3.11,57.94-2.5,68.69.22,3.49-5.52-78.19-5.03-78.73,1.9-2.05,5.35-.88,6.39-.46,8.24,3.34,14.97.43,20.61-8.89,9.31-15.39,21.71-26.54,37.93-34.15,1.21-.56,3.03-1.42,3.75-2.48,8.99-13.35,22-13.85,34.58-14.34,3.55-.14,7.23-.28,10.73-.72,5.39-.67,11.66-3.61,16.75-7.86,6.73-5.61,13.06-8.18,20.97-5.34,10.63,3.82,21.26,9.19,33.2,5.47,5.08-1.58,11.1-.68,16.86.52,12.15,2.55,24.44,2.21,37.57-1.04,3.76-.91,7.71-.78,11.4.4,4.6,1.59,9.3,3.15,13.88,4.66,14.28,4.72,29.04,9.59,42.65,16.33,11.49,5.68,18.76,2.9,26.14-3.05,1.46-1.16,2.92-2.34,4.38-3.52,8.77-7.03,17.85-14.3,25.58-22.46,9.72-10.25,21.43-16.16,37.92-19.11,7.32-1.31,14.7-5.97,20.32-9.86,7.06-4.92,13.94-10.37,20.61-15.64,4.22-3.34,8.58-6.8,12.96-10.09,5.77-4.35,12.22-4.43,19.15-.24,4.52,2.8,9.26,5.22,14.17,7.24,16.44,6.57,30.79,16.97,43.87,31.82,2.99,3.32,6.42,6.23,10.18,8.63,4.47,2.92,8.78,2.71,14.04-.63,3.98-2.52,9.36-3.28,13.3-3.81,2.76-.38,5.57-.49,8.29-.6,3.74-.14,7.29-.29,10.72-1.07,6.33-1.45,10.96-.09,15.95,4.71,4.62,4.44,9.84,8.22,15.51,11.22,5.33,2.81,121.97,14.72,123.08,19.85Z"/></g><g id="Leaves"><path class="cls-26" d="M523.24,367.9c1.61.41,2.68,1.21,2.63,2.89-.02.55.15,1.11.25,1.78-2.36-.97-3.35-2.63-2.88-4.67Z"/><path class="cls-27" d="M557.67,602.39c1.34.99,2.03,2.14,1.35,3.68-.22.51-.28,1.09-.43,1.75-1.83-1.8-2.13-3.72-.92-5.43Z"/><path class="cls-4" d="M501.63,421.13c1.17.51,1.87,1.25,1.63,2.51-.08.42-.02.86-.03,1.37-1.66-1.03-2.21-2.4-1.6-3.88Z"/><path class="cls-4" d="M364.89,289.97c1.17.51,1.87,1.25,1.63,2.51-.08.42-.02.86-.03,1.37-1.66-1.03-2.21-2.4-1.6-3.88Z"/><path class="cls-10" d="M721.45,338.75c2.8,1.11,4.61,2.85,4.36,6.02-.08,1.04.16,2.14.27,3.42-4.07-2.33-5.66-5.68-4.62-9.44Z"/><path class="cls-32" d="M545.96,602.93c.9-2.09,2.27-3.41,4.67-3.15.79.09,1.63-.07,2.61-.12-1.86,3.02-4.44,4.14-7.28,3.27Z"/><path class="cls-25" d="M514.84,460.49c-.41,1.03-1.05,1.69-2.21,1.6-.38-.03-.79.06-1.26.1.85-1.5,2.08-2.08,3.46-1.7Z"/><path class="cls-26" d="M561.32,301.45c-2.88-1.08-4.69-2.76-4.26-5.84.14-1.01-.06-2.08-.12-3.32,4.15,2.26,5.65,5.51,4.38,9.16Z"/><path class="cls-4" d="M487.4,519.4c-1.48,1.83-3.13,2.74-5.27,1.7-.7-.34-1.52-.45-2.44-.71,2.64-2.47,5.36-2.78,7.71-.98Z"/><path class="cls-10" d="M420.98,408.79c1.08.47,1.74,1.16,1.52,2.33-.07.39-.02.8-.02,1.28-1.55-.95-2.06-2.24-1.49-3.61Z"/><path class="cls-4" d="M385.33,406.02c-1.03.18-1.84,0-2.25-.98-.13-.32-.37-.6-.6-.95,1.6-.05,2.6.64,2.85,1.93Z"/><path class="cls-13" d="M382.39,408.06c-.92,1.24-1.98,1.88-3.4,1.25-.47-.21-1.01-.26-1.62-.4,1.66-1.69,3.43-1.96,5.02-.85Z"/><path class="cls-25" d="M368.9,297.36c-.85-1.55-1.01-2.97.34-4.15.44-.39.75-.93,1.2-1.49.96,2.55.39,4.53-1.53,5.64Z"/><path class="cls-27" d="M542.66,244.44c1.67.73,2.68,1.78,2.33,3.59-.11.59-.03,1.23-.04,1.96-2.38-1.47-3.16-3.43-2.29-5.55Z"/><path class="cls-24" d="M548.39,255c-1.22-2.22-1.44-4.24.48-5.93.63-.56,1.08-1.33,1.71-2.13,1.37,3.64.56,6.47-2.19,8.06Z"/><path class="cls-13" d="M367.12,296.87c-1.37.7-2.61.79-3.6-.41-.33-.39-.79-.68-1.26-1.08,2.24-.77,3.95-.22,4.87,1.49Z"/><path class="cls-4" d="M559.9,354.27c.81.35,1.31.87,1.14,1.75-.06.29-.01.6-.02.96-1.16-.71-1.54-1.67-1.12-2.7Z"/><path class="cls-25" d="M562.69,359.41c-.59-1.08-.7-2.07.23-2.89.31-.27.52-.65.83-1.04.67,1.77.27,3.15-1.07,3.93Z"/><path class="cls-13" d="M561.45,359.07c-.96.49-1.82.55-2.51-.28-.23-.27-.55-.47-.88-.75,1.56-.53,2.75-.15,3.39,1.04Z"/><path class="cls-23" d="M635.05,333.88c.23,1.84-.2,3.35-2.08,4.2-.62.28-1.17.76-1.86,1.22.07-2.9,1.48-4.79,3.93-5.42Z"/><path class="cls-29" d="M628.95,331.19c1.54,1.03,2.4,2.34,1.82,4.32-.19.65-.19,1.38-.3,2.2-2.14-1.95-2.65-4.26-1.52-6.52Z"/><path class="cls-25" d="M487.57,345.43c-2.04-.17-3.56-.95-4.01-3.06-.15-.7-.52-1.36-.85-2.17,3.11.72,4.8,2.58,4.86,5.23Z"/><path class="cls-24" d="M614.79,640.05c-1.57-.46-2.63-1.31-2.65-3.04,0-.57-.19-1.15-.31-1.84,2.32,1.06,3.34,2.79,2.97,4.88Z"/></g><path class="cls-32" d="M94.41,154.9c4.94,3.19,7.63,7.08,5.59,12.65-.67,1.84-.73,3.91-1.14,6.25-6.83-5.91-8.31-12.6-4.45-18.91Z"/><path class="cls-26" d="M110.68,177.46c4.71,3.1,7.25,6.85,5.25,12.17-.66,1.76-.73,3.74-1.14,5.98-6.5-5.72-7.86-12.15-4.11-18.16Z"/><path class="cls-27" d="M34.55,116.34c12.11.62,20.92,4.81,23,16.88.69,3.98,2.71,7.73,4.39,12.35-18.29-3.55-27.81-13.99-27.39-29.23Z"/><path class="cls-4" d="M89.1,188.2c2.68-3.38,5.72-5.06,9.64-3.17,1.29.62,2.8.82,4.48,1.28-4.81,4.56-9.8,5.16-14.13,1.89Z"/><path class="cls-13" d="M80.69,152.76c-8.84-5.15-14.02-11.9-11.56-22.4.81-3.46.56-7.25.83-11.61,12.48,9.88,16.11,21.92,10.72,34Z"/><path class="cls-25" d="M51.79,159.28c9.54-3.68,18.05-3.51,24.71,4.97,2.19,2.79,5.32,4.96,8.54,7.9-15.51,3.57-27.18-1.11-33.25-12.87Z"/><path class="cls-32" d="M106.58,203.2c4.9-2.95,9.69-3.61,14.46.61,1.57,1.39,3.59,2.34,5.75,3.72-8.26,3.42-15.37,1.8-20.21-4.33Z"/><path class="cls-25" d="M128.37,196.58c3.24,1.9,5.14,4.38,4.23,8.23-.3,1.27-.21,2.66-.31,4.26-4.57-3.64-5.9-8.06-3.91-12.49Z"/><path class="cls-13" d="M130.62,217.23c2.43-1.76,4.86-2.35,7.39-.45.83.63,1.88,1.01,3.02,1.6-4.13,2.18-7.8,1.73-10.4-1.15Z"/><path class="cls-4" d="M353.95,499.85c1.64-2.72,3.7-4.24,6.75-3.23,1,.33,2.12.33,3.4.51-3.08,3.79-6.67,4.7-10.15,2.72Z"/><path class="cls-30" d="M345.25,511.26c1.04-2.55,2.59-4.13,5.34-3.67.9.15,1.86,0,2.98-.02-2.13,3.66-5.08,4.92-8.31,3.69Z"/><path class="cls-27" d="M394.66,467.29c-2.95,6.1-7.15,9.86-14.2,8.76-2.32-.36-4.82,0-7.7.04,5.89-8.74,13.66-11.75,21.9-8.8Z"/><path class="cls-25" d="M370.07,510.02c-2.14-3.88-2.44-7.6,1.24-11.11,1.21-1.16,2.09-2.67,3.32-4.29,2.35,6.49.67,11.91-4.56,15.4Z"/><path class="cls-27" d="M358.46,514.25c-.73-2.62-.47-4.86,1.94-6.4.79-.51,1.45-1.28,2.3-2.06.55,4.19-.98,7.15-4.24,8.46Z"/><path class="cls-3" d="M362.78,486.13c3.38-3.15,6.89-4.46,10.85-1.88,1.3.85,2.9,1.28,4.65,2.03-5.84,4.07-11.31,3.95-15.5-.15Z"/><path class="cls-26" d="M385.67,500.93c-3.06-4.92-3.87-9.68.14-14.28,1.32-1.52,2.2-3.49,3.49-5.59,3.64,8.26,2.26,15.25-3.64,19.88Z"/><path class="cls-32" d="M403.78,487.72c-5.68-5.12-8.36-10.72-4.67-17.62,1.21-2.27,1.69-4.97,2.66-7.96,7.56,9.04,8.15,18.07,2.01,25.57Z"/><g id="Circles"><path class="cls-28" d="M613.44,287.11c-.5.74-2.13.33-2.87.18-2.91-.7-5.61-2.08-7.99-3.89-.95-.74-3.54-2.94-1.81-4.06,1.06-.54,2.81-.03,3.88.28,2.56.84,4.92,2.23,6.84,4.12.63.65,2.44,2.43,1.95,3.36h0ZM613.34,287.05c.24-.58-.36-1.22-.73-1.62-.92-.91-2.05-1.57-3.17-2.2-1.67-.93-3.39-1.83-5.17-2.51-.72-.27-2.51-.91-3.14-.48-.15.7,1.39,2.11,1.94,2.57,2.07,1.75,5.84,4.04,8.5,4.56.55.07,1.42.22,1.78-.31h0Z"/><path class="cls-12" d="M720.43,289.52c-.75,1.13-3.22.5-4.34.27-4.4-1.06-8.49-3.15-12.09-5.88-1.44-1.12-5.35-4.45-2.74-6.13,1.6-.82,4.25-.05,5.87.43,3.88,1.27,7.44,3.37,10.35,6.23.96.98,3.69,3.67,2.95,5.08h0ZM720.28,289.44c.36-.88-.55-1.84-1.11-2.45-1.39-1.37-3.1-2.37-4.79-3.33-2.53-1.41-5.13-2.77-7.82-3.8-1.09-.41-3.8-1.37-4.75-.73-.23,1.07,2.11,3.19,2.93,3.88,3.13,2.64,8.83,6.12,12.85,6.9.84.11,2.15.33,2.69-.47h0Z"/><path class="cls-3" d="M391.45,325.47c-.21.87-1.88,1.04-2.63,1.15-2.97.33-5.98-.04-8.84-.92-1.15-.37-4.33-1.56-3.09-3.19.81-.87,2.63-.99,3.75-1.06,2.7-.08,5.39.41,7.84,1.53.82.39,3.12,1.45,2.98,2.49h0ZM391.34,325.45c.02-.63-.76-1.02-1.24-1.27-1.17-.54-2.46-.77-3.73-.99-1.89-.31-3.81-.56-5.72-.6-.77,0-2.67,0-3.11.62.1.71,2.03,1.5,2.7,1.75,2.54.94,6.87,1.81,9.54,1.39.54-.12,1.41-.28,1.56-.9h0Z"/><path class="cls-3" d="M464.41,426.73c-.38.48-1.46.12-1.96-.03-1.94-.63-3.7-1.7-5.22-3.05-.61-.55-2.25-2.18-1.02-2.85.75-.31,1.91.12,2.62.39,1.7.7,3.23,1.76,4.43,3.15.4.47,1.53,1.77,1.15,2.38h0ZM464.34,426.68c.19-.38-.18-.85-.41-1.14-.58-.66-1.31-1.17-2.04-1.66-1.09-.72-2.21-1.42-3.38-1.97-.47-.22-1.66-.75-2.11-.49-.14.47.84,1.5,1.18,1.84,1.31,1.29,3.75,3.04,5.53,3.53.37.08.95.22,1.22-.12h0Z"/><path class="cls-26" d="M653.48,409.61c-.45.58-1.76.14-2.36-.03-2.34-.75-4.46-2.05-6.3-3.68-.73-.67-2.71-2.63-1.23-3.43.9-.38,2.3.15,3.16.47,2.04.85,3.89,2.13,5.34,3.79.48.57,1.85,2.14,1.39,2.87h0ZM653.4,409.56c.23-.46-.22-1.02-.5-1.37-.69-.8-1.58-1.41-2.45-2-1.31-.87-2.66-1.71-4.07-2.38-.57-.27-2-.9-2.54-.59-.17.57,1.01,1.81,1.42,2.22,1.58,1.56,4.53,3.67,6.67,4.26.45.09,1.15.27,1.47-.14h0Z"/><path class="cls-11" d="M536.62,307.88c-.11.41-.9.49-1.26.54-1.42.15-2.86-.04-4.22-.47-.55-.18-2.06-.76-1.46-1.53.39-.41,1.26-.46,1.79-.49,1.29-.03,2.57.22,3.73.76.39.19,1.49.7,1.41,1.2h0ZM536.56,307.87c.01-.3-.36-.49-.59-.61-.56-.26-1.17-.38-1.78-.49-.9-.15-1.82-.28-2.73-.31-.37,0-1.27,0-1.49.28.04.34.96.73,1.28.85,1.21.46,3.27.89,4.55.7.26-.05.67-.13.75-.42h0Z"/><path class="cls-27" d="M425.65,158.05c-.26,1.08-2.33,1.29-3.26,1.42-3.68.41-7.41-.05-10.95-1.14-1.42-.46-5.36-1.93-3.83-3.95,1.01-1.08,3.26-1.23,4.64-1.31,3.34-.1,6.67.51,9.71,1.9,1.01.49,3.87,1.79,3.7,3.09h0ZM425.51,158.03c.03-.78-.94-1.26-1.54-1.57-1.45-.67-3.05-.96-4.62-1.22-2.34-.38-4.72-.7-7.08-.74-.95,0-3.31,0-3.86.77.12.88,2.51,1.86,3.34,2.17,3.15,1.16,8.51,2.24,11.82,1.72.68-.15,1.74-.35,1.94-1.11h0Z"/><path class="cls-24" d="M432.94,264.22c-.15.61-1.32.73-1.85.8-2.08.23-4.19-.03-6.2-.65-.81-.26-3.03-1.09-2.17-2.24.57-.61,1.84-.69,2.62-.74,1.89-.06,3.78.29,5.49,1.08.57.28,2.19,1.01,2.09,1.75h0ZM432.86,264.21c.02-.44-.53-.72-.87-.89-.82-.38-1.73-.54-2.61-.69-1.32-.21-2.67-.39-4.01-.42-.54,0-1.87,0-2.18.43.07.5,1.42,1.05,1.89,1.23,1.78.66,4.81,1.27,6.69.97.38-.08.99-.2,1.1-.63h0Z"/><text class="cls-5" transform="translate(465.63 451.25)"><tspan x="0" y="0">‘25</tspan></text><text class="cls-5" transform="translate(295.61 397.69)"><tspan x="0" y="0">11.</tspan></text><text class="cls-5" transform="translate(417.35 345.56)"><tspan x="0" y="0">10.</tspan></text><rect class="cls-26" x="298.28" y="413.41" width="119.07" height="18.14"/><g id="EDITIA"><path class="cls-28" d="M472.41,408.67h-2.5v-2.5h-.33v-.84h.33v-4.26h2.5v.84h-1.46v3.43h1.15v.84h-1.15v1.66h1.46v.84Z"/><path class="cls-28" d="M476.07,404.87c0,3.31-1.22,3.8-2.31,3.8h-.74v-7.6h.74c1.09,0,2.31.49,2.31,3.8ZM475.02,404.87c0-2.5-.57-2.96-.96-2.96v5.93c.38,0,.96-.46.96-2.96Z"/><path class="cls-28" d="M477.26,408.67h-.99v-1.41h.99v1.41Z"/><path class="cls-28" d="M483.85,412.28h-1.5l-.99-3.91-.99,3.91h-1.47l1.49-5.61-1.43-5.44h1.5l.93,3.72.94-3.72h1.47l-1.45,5.44,1.49,5.61Z"/><path class="cls-28" d="M486.26,412.28h-1.52v-11.05h1.52v11.05Z"/><path class="cls-28" d="M491.77,401.23l-1.69,11.05h-1.45l-1.68-11.05h1.43l1,7.49.99-7.49h1.39Z"/></g><g id="LogoHM"><path class="cls-6" d="M258.21,259.02h.05s.09.02.14.03c-.06-.01-.12-.02-.19-.03M275.29,275.06c-1.91-.63-1.56-4.73-1.39-6.7.2-2.28.71-5.58,2.05-8.35,1.43-2.96,2.41-3.03,2.67-2.97.45.09.69,1.21.73,3.33,0,.19,0,.36.01.51v.09c.06,1.73.13,3.51.26,5.27.03.41.07.82.1,1.23.05.49.11.98.17,1.45.2,1.59.39,3.09.05,4.55-.16.67-.5,1.14-1.06,1.45-.52.29-1.18.41-1.83.41s-1.25-.11-1.76-.28M247.68,246.47l7.87-2.49c-1.65,2.92-2.71,6.03-3.36,8.39-.19.68-.41,1.51-.62,2.42l-71.79,16.2,65.74-24.54c.35.12.72.18,1.09.18.35,0,.7-.05,1.05-.16M256.49,251.57c.63-2.2,1.77-5.34,3.62-7.8.6-.81,1.12-1.35,1.54-1.72l1.8-.57c.28.37.26,1.47-.06,3.3-.03.19-.06.36-.09.51v.07c-.28,1.71-.57,3.48-.77,5.23-.04.34-.08.68-.11,1.02l-3.93,1.12c-.54.15-1.02.44-1.41.82l-1.15.26c.18-.85.41-1.65.58-2.24M265.04,231.14l-19.84,8.8c-.69.3-1.24.81-1.6,1.43l-95.96,36.88-60.34,13.62c-.39-.25-.69-.62-.84-1.07-.55-1.62-2.72-1.91-3.67-.49-.38.57-1.01.91-1.69.92-1.38.02-2.25,1.3-2,2.5l-6.52,1.47c-.96.22-1.57,1.17-1.36,2.13.21.97,1.16,1.59,2.13,1.38l6.42-1.38c.15,1.25,1.45,2.18,2.77,1.69.64-.23,1.35-.14,1.91.25,1.4.99,3.32-.05,3.26-1.77-.03-.68.28-1.33.83-1.74.16-.12.3-.26.42-.41l32.16-6.9-41.84,16.08c-.17-.2-.3-.42-.39-.68-.55-1.62-2.72-1.91-3.67-.49-.38.56-1.01.91-1.69.92-1.62.02-2.55,1.8-1.75,3.13l-5.84,2.24c-.92.35-1.38,1.38-1.04,2.3.35.93,1.38,1.4,2.31,1.05l5.19-1.94c.45.87,1.5,1.39,2.56,1,.64-.23,1.35-.14,1.91.25,1.4.99,3.32-.05,3.26-1.77-.03-.68.28-1.33.83-1.74.44-.33.69-.77.79-1.23l67.41-25.16,102.01-21.9c.27,1.75,1.06,3.31,2.77,4.24,1.34.73,3.28,1.4,5.21,1.45.84.02,1.68-.08,2.46-.34,1.44-.48,2.54-1.47,3.17-2.85.71-1.56.98-3.19,1.11-4.81l7.38-1.17c-.1.18-.2.37-.3.56-2.13,4.14-2.88,9.01-3.13,12.36-.25,3.34-.77,10.29,4.09,11.83.39.12.83.24,1.29.33,2,.39,4.53.38,6.45-.71,1.32-.75,2.21-1.93,2.56-3.41.58-2.45.2-4.86-.16-7.19-.1-.64-.2-1.3-.28-1.93-.07-.53-.13-1.09-.19-1.65-.24-2.39-.39-4.83-.52-7.2v-.11c-.02-.2-.03-.42-.04-.66-.04-1.01-.09-2.41-.43-3.7l.37-.06c.18-.03.38-.07.55-.12,2.06-.59,3.41-2.46,3.42-4.5v-.04c0-.42-.06-.85-.18-1.27-.71-2.5-3.31-3.95-5.81-3.24l-14.55,4.13c.2-1.79.44-3.58.68-5.33v-.08c.04-.2.07-.42.11-.66.17-1.12.42-2.73.25-4.2l.92-.29c.16-.05.33-.11.49-.18,2.37-1.05,3.45-3.83,2.39-6.21-.78-1.75-2.5-2.8-4.3-2.8-.64,0-1.28.13-1.9.41"/><g class="cls-14"><path class="cls-8" d="M-2.27,556.24c-.81,0-1.65-.14-2.56-.42l.61-1.98c2.44.75,4.08.26,6.28-1.88,2.97-2.88,6.53-5.46,10.29-7.45,3.25-1.73,4.58-3.63,4.89-7.03.22-2.41.89-4.76,1.55-7.04.46-1.61.93-3.27,1.23-4.91.54-2.96.94-5.6.37-7.87-1.17-4.59-.15-8.1,3.11-10.7,2.53-2.02,5.11-3.61,7.69-4.71,11.21-4.8,20.06-11.19,27.04-19.53,1.97-2.35,4.39-4.75,7.4-7.34,3.23-2.78,4.22-5.83,3.03-9.33-1.11-3.26-2.32-6.56-3.49-9.75-1.87-5.08-3.8-10.33-5.38-15.61-1.3-4.35-2.71-10-1.99-15.06,1.42-10.05.26-17.86-3.77-25.32-3.45-6.39-6.06-13.36-8.58-20.09-.41-1.11-.83-2.22-1.25-3.32-1.38-3.64-1.8-6.65-1.33-9.46.53-3.13,2.2-6.09,5.12-9.05,6.64-6.74,12.45-14.6,18.06-22.21,1.81-2.45,3.69-4.99,5.56-7.46,1.13-1.49,1.93-3.66,2.08-5.68.66-8.86,2.98-16.61,7.08-23.69,1.73-2.98,3.33-6.14,3.37-9.03.13-8.61,4.9-14.72,9.5-20.63,2.82-3.62,3.21-6.63,1.43-11.12-1.69-4.26-2.26-9.04-1.52-12.79.45-2.28,1.1-4.56,1.73-6.77,2.15-7.5,4.18-14.59-1.43-21.8-.85-1.09-1.05-2.7-1.17-3.77-1.31-10.83-5.42-20.14-12.56-28.46-5.19-6.05-5.63-11.72-1.28-16.85.65-.76.82-1.45.75-1.58-.26-.46-.45-.87-.6-1.19-.52-1.1-.63-1.33-2.35-1.81l.55-2c2.53.69,3,1.48,3.68,2.92.15.31.31.67.54,1.07.86,1.55-.54,3.39-.98,3.92-3.64,4.29-3.22,8.92,1.27,14.16,7.42,8.64,11.69,18.31,13.05,29.56.1.84.25,2.1.75,2.74,6.25,8.05,3.98,15.97,1.79,23.64-.62,2.16-1.26,4.4-1.69,6.6-.66,3.38-.13,7.73,1.41,11.63,2.04,5.16,1.55,8.97-1.72,13.16-4.4,5.64-8.94,11.47-9.07,19.39-.05,3.37-1.79,6.81-3.65,10.04-3.94,6.81-6.17,14.27-6.8,22.81-.18,2.39-1.13,4.99-2.49,6.78-1.87,2.45-3.74,4.98-5.55,7.43-5.66,7.66-11.51,15.58-18.25,22.43-5.7,5.79-5.46,10.72-3.33,16.33.42,1.11.83,2.22,1.25,3.33,2.49,6.67,5.07,13.56,8.46,19.83,4.25,7.88,5.49,16.08,4,26.59-.66,4.66.68,10.02,1.92,14.18,1.56,5.22,3.48,10.44,5.34,15.49,1.18,3.2,2.39,6.51,3.51,9.79,1.47,4.33.25,8.22-3.64,11.57-2.92,2.51-5.26,4.83-7.16,7.1-7.2,8.59-16.3,15.17-27.82,20.1-2.4,1.03-4.82,2.51-7.21,4.42-2.63,2.1-3.37,4.75-2.4,8.57.73,2.89.12,6.28-.34,8.75-.32,1.73-.81,3.45-1.28,5.1-.65,2.29-1.27,4.45-1.47,6.66-.38,4.1-2.11,6.61-5.98,8.67-3.59,1.91-6.99,4.37-9.82,7.11-1.96,1.9-3.75,2.79-5.77,2.79"/><path class="cls-27" d="M162.17,417.82l-1.17-1.71c2.11-1.44,2.75-3.03,2.46-6.08-.39-4.12-.18-8.5.61-12.69.68-3.62.03-5.84-2.43-8.21-1.74-1.68-3.16-3.67-4.53-5.61-.97-1.36-1.97-2.78-3.06-4.03-1.98-2.27-3.78-4.24-5.92-5.2-4.32-1.96-6.41-4.94-6.41-9.12,0-3.24.38-6.25,1.13-8.94,3.26-11.75,3.8-22.65,1.66-33.31-.6-3.01-.97-6.4-1.1-10.36-.15-4.26-1.91-6.94-5.39-8.2-3.24-1.17-6.57-2.29-9.79-3.36-5.13-1.72-10.44-3.49-15.55-5.56-4.21-1.7-9.5-4.14-13-7.86-6.95-7.39-13.78-11.36-22.12-12.88-7.15-1.3-14.21-3.62-21.04-5.86-1.13-.37-2.25-.74-3.37-1.1-3.71-1.2-6.32-2.75-8.22-4.88-2.11-2.37-3.38-5.52-3.87-9.66-1.11-9.4-3.62-18.84-6.05-27.98-.78-2.95-1.59-6-2.34-9-.45-1.81-1.65-3.79-3.13-5.17-6.5-6.05-11.11-12.7-14.07-20.33-1.25-3.21-2.71-6.43-4.94-8.28-6.64-5.49-8.43-13.02-10.17-20.31-1.06-4.46-3.17-6.65-7.79-8.07-4.38-1.34-8.47-3.89-10.94-6.81-1.5-1.77-2.87-3.71-4.2-5.58-4.51-6.37-8.78-12.38-17.91-12.51-1.39-.02-2.76-.87-3.67-1.44-9.27-5.74-19.11-8.35-30.07-7.98-7.97.27-12.67-2.93-13.95-9.53-.19-.98-.62-1.55-.76-1.57-.52-.09-.95-.19-1.3-.28-1.18-.28-1.43-.34-2.88.71l-1.22-1.68c2.12-1.54,3.03-1.42,4.58-1.05.34.08.72.17,1.17.25,1.74.3,2.31,2.54,2.44,3.22,1.08,5.52,4.95,8.09,11.85,7.85,11.38-.39,21.6,2.32,31.23,8.29.72.44,1.8,1.12,2.61,1.13,10.19.15,14.96,6.87,19.57,13.38,1.3,1.84,2.65,3.74,4.09,5.44,2.23,2.63,5.95,4.93,9.97,6.17,5.31,1.63,7.97,4.4,9.2,9.57,1.66,6.96,3.37,14.15,9.47,19.2,2.59,2.14,4.2,5.65,5.55,9.12,2.85,7.33,7.29,13.73,13.56,19.57,1.76,1.64,3.19,4,3.73,6.18.75,2.99,1.55,6.03,2.34,8.97,2.44,9.2,4.97,18.72,6.1,28.27.96,8.07,4.96,10.96,10.67,12.81,1.13.37,2.25.73,3.38,1.11,6.76,2.22,13.76,4.52,20.77,5.79,8.81,1.6,15.98,5.76,23.26,13.5,3.23,3.43,8.25,5.73,12.27,7.36,5.05,2.04,10.33,3.81,15.43,5.51,3.23,1.08,6.57,2.2,9.84,3.38,4.3,1.56,6.58,4.95,6.75,10.07.13,3.85.48,7.12,1.06,10.02,2.21,10.99,1.65,22.21-1.69,34.28-.7,2.52-1.05,5.34-1.05,8.39,0,3.37,1.6,5.59,5.2,7.23,2.72,1.23,4.97,3.83,6.62,5.73,1.16,1.33,2.19,2.78,3.19,4.19,1.38,1.94,2.68,3.77,4.28,5.31,2.96,2.86,3.84,5.78,3.03,10.09-.76,4-.96,8.18-.58,12.11.36,3.8-.61,6.12-3.36,7.99"/><path class="cls-26" d="M176.45,307.08l-2.04-.38c.47-2.51-.21-4.09-2.58-6.03-3.19-2.62-6.16-5.87-8.57-9.38-2.08-3.04-4.13-4.14-7.54-4.07-2.42.05-4.83-.35-7.17-.74-1.65-.27-3.36-.56-5.01-.67-3.01-.2-5.73-.19-7.92.64-4.43,1.68-7.97.95-10.93-1.99-2.3-2.28-4.16-4.67-5.55-7.1-6.04-10.59-13.38-18.66-22.46-24.66-2.56-1.69-5.22-3.83-8.12-6.52-3.12-2.9-6.27-3.54-9.61-1.96-3.12,1.47-6.25,3.05-9.29,4.57-4.83,2.43-9.83,4.94-14.9,7.11-4.18,1.79-9.63,3.82-14.74,3.68-10.14-.28-17.77,1.76-24.73,6.61-5.96,4.15-12.59,7.53-18.99,10.79-1.05.54-2.11,1.07-3.16,1.61-3.47,1.78-6.41,2.54-9.25,2.39-3.17-.17-6.3-1.5-9.58-4.06-7.45-5.84-15.92-10.72-24.11-15.44-2.64-1.52-5.38-3.1-8.04-4.68-1.6-.96-3.85-1.5-5.87-1.42-8.88.34-16.84-1.08-24.34-4.35-3.16-1.38-6.48-2.61-9.35-2.33-.77.08-1.53.11-2.27.11-7.49,0-13.48-3.67-19.3-7.22-3.91-2.39-6.95-2.44-11.21-.16-4.04,2.16-8.73,3.26-12.54,2.96-2.32-.19-4.66-.58-6.92-.96-7.7-1.29-14.97-2.5-21.5,3.89-.99.97-2.57,1.34-3.61,1.59-10.61,2.53-19.39,7.66-26.86,15.7-5.43,5.85-11.01,6.91-16.6,3.18-.83-.56-1.53-.65-1.65-.57-.43.31-.81.54-1.12.73-1.04.64-1.25.77-1.53,2.54l-2.05-.32c.4-2.59,1.13-3.15,2.49-3.99.29-.18.63-.39,1-.65,1.44-1.03,3.43.15,4,.53,4.68,3.13,9.23,2.19,13.92-2.87,7.75-8.35,16.87-13.68,27.89-16.31.82-.2,2.06-.49,2.64-1.06,7.29-7.12,15.42-5.76,23.29-4.45,2.22.37,4.52.76,6.75.93,3.43.27,7.69-.74,11.4-2.72,4.9-2.61,8.74-2.55,13.27.22,6.1,3.73,12.41,7.59,20.29,6.82,3.35-.33,6.97,1,10.39,2.49,7.21,3.15,14.87,4.51,23.43,4.18,2.4-.09,5.09.56,7.02,1.71,2.65,1.58,5.37,3.15,8.01,4.67,8.25,4.76,16.78,9.67,24.35,15.6,6.4,5.01,11.26,4.21,16.6,1.47,1.05-.54,2.11-1.08,3.17-1.62,6.34-3.23,12.9-6.57,18.75-10.65,7.35-5.12,15.35-7.27,25.97-6.98,4.7.13,9.88-1.81,13.87-3.51,5.01-2.14,9.98-4.64,14.79-7.05,3.05-1.53,6.2-3.11,9.33-4.59,4.14-1.95,8.14-1.18,11.91,2.31,2.82,2.62,5.39,4.68,7.86,6.31,9.35,6.18,16.91,14.48,23.12,25.37,1.29,2.27,3.04,4.51,5.21,6.66,2.39,2.37,5.1,2.81,8.79,1.41,2.79-1.06,6.23-.83,8.73-.66,1.76.12,3.52.41,5.22.69,2.35.39,4.56.76,6.78.71,4.11-.09,6.81,1.35,9.29,4.97,2.3,3.35,5.13,6.45,8.18,8.95,2.95,2.42,3.91,4.75,3.3,8.01"/><path class="cls-3" d="M368.67,407.07l-1.4-1.53c1.88-1.72,2.29-3.39,1.57-6.37-.97-4.02-1.39-8.39-1.2-12.65.16-3.68-.81-5.79-3.57-7.78-1.96-1.41-3.65-3.19-5.28-4.9-1.15-1.21-2.35-2.47-3.6-3.55-2.28-1.97-4.35-3.65-6.6-4.31-4.55-1.33-7.05-3.98-7.65-8.11-.46-3.2-.51-6.24-.16-9.01,1.55-12.1.53-22.96-3.11-33.21-1.03-2.89-1.87-6.2-2.57-10.1-.75-4.19-2.88-6.59-6.5-7.34-3.37-.7-6.83-1.33-10.17-1.93-5.32-.97-10.83-1.97-16.18-3.29-4.41-1.09-9.99-2.74-13.99-5.92-7.94-6.32-15.26-9.28-23.73-9.59-7.26-.27-14.58-1.55-21.66-2.8-1.17-.21-2.33-.41-3.49-.61-3.84-.66-6.64-1.82-8.83-3.66-2.43-2.04-4.13-4.99-5.21-9.01-2.44-9.15-6.27-18.14-9.97-26.83-1.19-2.81-2.43-5.71-3.6-8.58-.71-1.73-2.18-3.52-3.84-4.67-7.3-5.06-12.81-10.99-16.83-18.12-1.69-3-3.6-5.98-6.07-7.49-7.35-4.48-10.2-11.69-12.96-18.66-1.69-4.26-4.09-6.13-8.86-6.87-4.53-.71-8.94-2.64-11.8-5.18-1.74-1.54-3.37-3.26-4.96-4.93-5.37-5.66-10.45-11-19.51-9.83-1.37.18-2.86-.47-3.84-.9-10-4.36-20.1-5.54-30.9-3.61-1.41.25-2.74.38-3.97.38-5.62,0-9.38-2.62-11.2-7.82-.33-.95-.83-1.44-.98-1.45-.53-.01-.97-.06-1.33-.09-1.21-.11-1.47-.14-2.75,1.11l-1.44-1.49c1.88-1.83,2.8-1.84,4.39-1.69.34.03.73.07,1.19.08,1.77.05,2.65,2.18,2.88,2.83,1.86,5.31,6.06,7.3,12.85,6.08,11.21-2.01,21.71-.78,32.09,3.75.77.34,1.94.85,2.75.74,10.11-1.31,15.79,4.67,21.28,10.45,1.55,1.63,3.15,3.32,4.83,4.8,2.58,2.28,6.59,4.03,10.74,4.68,5.48.86,8.52,3.22,10.47,8.16,2.63,6.65,5.35,13.53,12.11,17.65,2.87,1.75,4.97,5,6.8,8.24,3.87,6.85,9.17,12.55,16.21,17.43,1.97,1.37,3.73,3.51,4.58,5.59,1.17,2.85,2.4,5.75,3.59,8.55,3.73,8.76,7.59,17.82,10.07,27.11,2.1,7.85,6.47,10.14,12.38,11.16,1.17.2,2.33.41,3.5.61,7.01,1.23,14.26,2.51,21.38,2.77,8.95.33,16.64,3.43,24.95,10.04,3.68,2.93,8.98,4.5,13.19,5.53,5.29,1.3,10.76,2.3,16.06,3.26,3.35.61,6.82,1.24,10.22,1.94,4.48.93,7.21,3.96,8.12,9.01.68,3.79,1.49,6.98,2.48,9.77,3.75,10.57,4.8,21.74,3.21,34.17-.33,2.59-.28,5.43.15,8.45.48,3.33,2.38,5.31,6.17,6.41,2.86.83,5.47,3.09,7.37,4.73,1.33,1.15,2.56,2.44,3.75,3.69,1.64,1.72,3.19,3.35,4.99,4.65,3.34,2.41,4.62,5.17,4.43,9.55-.18,4.06.22,8.24,1.15,12.07.9,3.71.27,6.14-2.18,8.39"/><path class="cls-29" d="M414.93,346.71c-1.56,0-2.68-1.7-3.01-2.25-2.85-4.85-7.36-5.99-13.79-3.48-10.61,4.14-21.14,4.98-32.21,2.55-.82-.18-2.07-.45-2.84-.2-9.66,3.24-16.39-1.52-22.9-6.13-1.84-1.3-3.74-2.64-5.67-3.77-2.97-1.74-7.25-2.68-11.45-2.51-5.55.22-8.98-1.51-11.85-5.97-3.87-6.01-7.87-12.23-15.3-14.97-3.16-1.16-5.84-3.94-8.27-6.76-5.12-5.97-11.43-10.53-19.28-13.96-2.2-.96-4.34-2.72-5.57-4.59-1.7-2.57-3.47-5.17-5.18-7.69-5.36-7.87-10.9-16.01-15.13-24.64-3.58-7.29-8.31-8.69-14.31-8.54-1.18.03-2.37.05-3.55.08-7.12.15-14.48.3-21.51,1.43-8.84,1.41-16.99-.13-26.42-5.01-4.18-2.16-9.69-2.67-14.02-2.87-5.44-.25-11-.17-16.38-.08-3.41.05-6.93.11-10.4.08-4.58-.04-7.84-2.48-9.71-7.26-1.4-3.58-2.82-6.56-4.33-9.1-5.73-9.64-8.93-20.4-9.78-32.9-.18-2.6-.78-5.38-1.79-8.26-1.12-3.18-3.37-4.75-7.3-5.09-2.97-.26-5.96-1.97-8.15-3.21-1.53-.87-2.99-1.9-4.39-2.89-1.94-1.37-3.78-2.67-5.8-3.59-3.74-1.71-5.54-4.18-6.2-8.51-.61-4.02-1.81-8.04-3.47-11.62-1.6-3.47-1.45-5.97.52-8.65l1.67,1.23c-1.51,2.05-1.59,3.77-.3,6.55,1.74,3.75,2.99,7.96,3.63,12.17.56,3.64,1.91,5.52,5.01,6.94,2.2,1.01,4.2,2.42,6.13,3.79,1.37.97,2.78,1.96,4.22,2.79,2.62,1.49,4.98,2.74,7.31,2.95,4.72.42,7.69,2.53,9.07,6.47,1.07,3.05,1.71,6.02,1.9,8.81.83,12.17,3.93,22.63,9.49,31.98,1.57,2.64,3.03,5.72,4.48,9.41,1.55,3.97,4.1,5.91,7.8,5.94,3.45.03,6.96-.02,10.35-.08,5.41-.08,11-.17,16.51.08,4.54.21,10.33.75,14.87,3.1,9.01,4.66,16.77,6.15,25.14,4.81,7.18-1.15,14.61-1.3,21.8-1.45,1.18-.02,2.37-.05,3.55-.08,3.89-.1,6.87.5,9.37,1.88,2.78,1.53,5.02,4.09,6.85,7.83,4.17,8.5,9.67,16.58,14.99,24.39,1.72,2.52,3.49,5.13,5.2,7.71,1.03,1.56,2.82,3.03,4.67,3.84,8.14,3.55,14.69,8.3,20.02,14.51,2.24,2.61,4.69,5.17,7.41,6.17,8.08,2.97,12.28,9.49,16.33,15.79,2.48,3.86,5.2,5.22,10.03,5.02,4.58-.18,9.28.86,12.58,2.79,2.01,1.18,3.94,2.55,5.82,3.87,6.37,4.51,12.39,8.76,21.05,5.86,1.31-.44,2.9-.09,3.94.14,10.65,2.34,20.8,1.54,31.01-2.45,7.43-2.9,12.92-1.44,16.33,4.36.51.86,1.1,1.25,1.24,1.23.52-.09.97-.13,1.32-.17,1.21-.12,1.46-.15,2.48-1.62l1.7,1.18c-1.49,2.16-2.39,2.34-3.97,2.51-.34.04-.73.08-1.19.15-.12.02-.24.03-.36.03"/><path class="cls-27" d="M450.52,381.61c-1.65,0-2.7-1.89-2.99-2.49-2.46-5.06-6.87-6.55-13.47-4.55-10.9,3.3-21.47,3.3-32.31.01-.81-.25-2.03-.62-2.82-.42-1.73.43-3.36.63-4.89.63-7.21,0-12.41-4.33-17.46-8.54-1.73-1.44-3.52-2.93-5.35-4.21-2.83-1.97-7.02-3.24-11.22-3.4-5.55-.21-8.83-2.21-11.35-6.88-3.39-6.3-6.89-12.81-14.08-16.12-3.06-1.41-5.51-4.38-7.71-7.39-4.64-6.35-10.57-11.4-18.13-15.43-2.12-1.13-4.11-3.05-5.19-5.02-1.49-2.7-3.05-5.43-4.56-8.07-4.72-8.27-9.61-16.82-13.15-25.75-3-7.55-7.6-9.32-13.6-9.64-1.18-.06-2.37-.13-3.55-.2-7.11-.41-14.46-.83-21.56-.26-8.92.71-16.93-1.47-25.95-7.07-4-2.48-9.45-3.42-13.75-3.96-5.41-.68-10.96-1.03-16.33-1.37-3.4-.22-6.92-.44-10.38-.74-4.56-.4-7.63-3.09-9.11-8-1.12-3.68-2.3-6.76-3.6-9.41-4.96-10.06-7.3-21.04-7.17-33.56.03-2.61-.35-5.43-1.14-8.38-.86-3.25-2.98-5-6.88-5.65-2.94-.5-5.79-2.43-7.87-3.84-1.46-.99-2.83-2.13-4.15-3.23-1.83-1.52-3.56-2.96-5.5-4.04-3.6-2-5.2-4.6-5.51-8.97-.3-4.06-1.18-8.16-2.54-11.85-1.33-3.58-.98-6.07,1.19-8.58l1.57,1.35c-1.67,1.93-1.88,3.63-.82,6.51,1.44,3.88,2.36,8.17,2.67,12.42.27,3.67,1.48,5.66,4.45,7.31,2.11,1.17,4,2.74,5.82,4.25,1.29,1.07,2.62,2.18,3.99,3.11,2.49,1.69,4.75,3.12,7.05,3.51,4.67.79,7.47,3.13,8.54,7.16.83,3.13,1.24,6.13,1.21,8.93-.13,12.19,2.14,22.86,6.95,32.62,1.36,2.75,2.58,5.94,3.73,9.73,1.24,4.08,3.63,6.21,7.31,6.54,3.43.3,6.94.52,10.33.74,5.4.34,10.98.69,16.45,1.38,4.51.56,10.24,1.56,14.58,4.26,8.62,5.36,16.23,7.44,24.69,6.77,7.24-.58,14.67-.15,21.84.26,1.18.07,2.36.14,3.54.2,3.89.21,6.81,1.04,9.19,2.61,2.65,1.74,4.68,4.47,6.22,8.34,3.49,8.8,8.34,17.28,13.03,25.49,1.51,2.65,3.08,5.39,4.58,8.1.9,1.63,2.57,3.24,4.36,4.19,7.84,4.18,14,9.43,18.82,16.04,2.03,2.78,4.27,5.52,6.9,6.73,7.83,3.6,11.49,10.42,15.04,17.02,2.17,4.04,4.77,5.61,9.6,5.79,4.58.18,9.18,1.58,12.32,3.77,1.91,1.33,3.73,2.85,5.49,4.32,6,4.99,11.66,9.71,20.52,7.49,1.34-.34,2.89.13,3.92.45,10.44,3.17,20.61,3.16,31.11-.01,7.63-2.31,12.99-.42,15.93,5.62.44.9.99,1.33,1.14,1.32.53-.05.97-.06,1.33-.07,1.22-.03,1.47-.04,2.6-1.42l1.61,1.31c-1.66,2.03-2.57,2.15-4.16,2.19-.34,0-.74.02-1.19.06-.07,0-.13,0-.2,0"/><path class="cls-26" d="M517.04,328.97c-5.44,0-10.31-2.5-15.07-4.94-2-1.03-4.07-2.09-6.14-2.94-3.19-1.3-7.56-1.63-11.69-.87-1.19.22-2.3.33-3.34.33-3.71,0-6.52-1.44-9.24-4.57-4.68-5.41-9.52-11-17.26-12.66-3.29-.7-6.34-3.07-9.14-5.53-5.91-5.19-12.8-8.82-21.06-11.1-2.31-.64-4.68-2.08-6.16-3.76-2.04-2.31-4.16-4.63-6.21-6.88-6.41-7.04-13.05-14.31-18.46-22.26-4.57-6.72-9.45-7.43-15.37-6.44-1.17.2-2.34.39-3.51.58-7.03,1.15-14.29,2.34-21.1,4.45-8.55,2.65-16.84,2.26-26.86-1.24-4.44-1.55-9.97-1.28-14.28-.86-5.42.52-10.92,1.39-16.23,2.23-3.37.53-6.85,1.08-10.29,1.54-4.54.6-8.12-1.35-10.64-5.82-1.89-3.35-3.72-6.1-5.57-8.4-7.03-8.73-11.72-18.94-14.32-31.19-.54-2.55-1.53-5.22-2.94-7.93-1.55-2.99-4-4.22-7.95-4.01-2.98.16-6.18-1.11-8.52-2.03-1.64-.65-3.23-1.46-4.76-2.25-2.12-1.08-4.11-2.11-6.25-2.74-3.95-1.17-6.07-3.36-7.34-7.55-1.17-3.89-2.93-7.7-5.07-11.01-2.08-3.21-2.28-5.71-.71-8.64l1.83.98c-1.21,2.25-1.04,3.96.62,6.53,2.25,3.47,4.08,7.46,5.31,11.54,1.06,3.53,2.67,5.2,5.94,6.16,2.32.69,4.5,1.8,6.61,2.88,1.49.76,3.03,1.55,4.57,2.16,2.8,1.11,5.31,2.01,7.65,1.89,4.73-.25,7.97,1.43,9.89,5.13,1.49,2.87,2.54,5.72,3.13,8.45,2.53,11.93,7.08,21.85,13.9,30.32,1.93,2.39,3.81,5.23,5.76,8.68,2.1,3.71,4.9,5.27,8.56,4.78,3.42-.46,6.88-1,10.24-1.53,5.34-.85,10.87-1.72,16.36-2.24,4.52-.43,10.34-.71,15.16.97,9.58,3.35,17.47,3.72,25.57,1.21,6.94-2.15,14.28-3.35,21.37-4.51,1.17-.19,2.34-.38,3.5-.58,3.84-.64,6.87-.47,9.54.54,2.97,1.12,5.55,3.34,7.89,6.78,5.33,7.82,11.91,15.05,18.28,22.03,2.06,2.25,4.18,4.59,6.23,6.9,1.24,1.4,3.22,2.6,5.17,3.14,8.56,2.37,15.72,6.14,21.87,11.54,2.59,2.27,5.38,4.46,8.2,5.06,8.42,1.8,13.49,7.66,18.39,13.33,3,3.47,5.88,4.43,10.64,3.56,4.5-.83,9.31-.46,12.85.99,2.15.88,4.26,1.96,6.3,3.01,6.94,3.56,13.5,6.93,21.66,2.83,1.24-.62,2.85-.5,3.92-.42,10.88.81,20.81-1.41,30.36-6.8,6.95-3.92,12.59-3.24,16.78,2.01.62.78,1.26,1.09,1.4,1.04.5-.16.94-.27,1.28-.36,1.18-.29,1.43-.36,2.23-1.96l1.85.93c-1.17,2.35-2.03,2.66-3.58,3.04-.33.08-.71.18-1.15.32-1.68.54-3.22-1.18-3.65-1.72-3.51-4.4-8.13-4.89-14.14-1.5-8.59,4.85-17.48,7.23-27.05,7.23-1.48,0-2.97-.06-4.48-.17-.84-.06-2.11-.16-2.84.21-3,1.5-5.8,2.11-8.47,2.11"/></g><path class="cls-6" d="M182.13,230.05c-.18.31-.34.63-.49.96-.9,1.92-1.38,4.01-1.51,6.12-.06,1.07-.1,2.15.1,3.21.2,1.04.56,2.04.87,3.05.18.58.29.94.4,1.42.04.18.04.95.04.95-.08,12.26-1.07,13.8-1.46,15.28-.8,3.06-2.13,6.24-5.27,6.61-3.68.43-7.44.37-11.14.41-4.49.04-8.94.21-13.42.43-1.21.06-2.42.12-3.63.18-1.94.1-3.7.32-5.42,1.27-1.76.97-3.33,2.23-4.67,3.73-2.2,2.47-2.83,5.98-2.62,9.19.09,1.42.34,2.83.66,4.22.29,1.24.76,2.42.98,3.68,1.22,7.06-3.01,13.6-7.14,18.92-2.24,2.88-5.4,5.89-6.51,9.47-.07.21-.12.43-.17.65-.22,1.06-.28,2.15-.28,3.22,0,1.33.1,2.66.24,3.98.16,1.45.39,2.89.66,4.31.27,1.42.6,2.83.98,4.22.34,1.25.73,2.49,1.19,3.7.36.94.77,1.89,1.31,2.75.2.31.41.62.67.88,3.15,3.29,8.9-.18,11.64-2.36,3.54-2.81,7.12-5.76,9.97-9.3,1.5-1.86,2.75-3.93,3.27-6.29.42-1.88.38-3.82.52-5.73.03-.46.08-.91.13-1.36.3-2.47,3.5-12.96,4.64-8.7,1.07,3.99,5.61,13.16,5.61,17.28s-4.49,12.49-5.39,18.33c-.56,3.66-1.57,7.16-2.51,10.66-.12.44.22.88.68.88h72.47c.32,0,.6-.22.68-.53,1-3.86-.76-10.37-.4-13.7.2-1.9,2.77-7.13,2.77-7.13.12-.31.57-.29.66.03,4.15,14.04,3.6,13.85,3.09,18.51-.08.71-.13,1.41-.16,2.09-.02.4.3.73.7.73h21.56c.39,0,.71-.32.7-.71-.03-1.6-.08-2.87-.15-3.65-.45-4.94-4.83-10.28-5.84-13.91-1.11-4.01-1.16-8.19-1.13-12.31.02-4-.32-7.97-.34-11.97-.01-2.28.88-4.41,1.22-6.65.41-2.72.37-5.48.07-8.2-.53-4.86-2.17-10.17-6.45-13.01-2.93-1.95-6.15-1.9-9.31-3.02-3.4-1.21-6.47-3.42-9.62-5.15-1.49-.82-14.97-6.7-16.54-6.65,5.25-4.96,5.87-10.3,2.87-17.42-.98-2.32.19-4.5,1.02-5.86,1-1.64,1.4-3.52,1.78-5.41,1.52-7.54.61-14.34-5.73-18.44-3.09-2-6.74-2.97-10.38-2.97-6.59,0-13.17,3.16-16.5,9.1"/><g class="cls-17"><path class="cls-26" d="M575.74,548.79l-1.68-1.21c1.49-2.07,1.55-3.79.23-6.56-1.78-3.73-3.08-7.93-3.78-12.13-.6-3.63-1.98-5.5-5.1-6.88-2.21-.98-4.23-2.37-6.18-3.71-1.38-.95-2.8-1.93-4.26-2.74-2.64-1.46-5.01-2.68-7.34-2.86-4.73-.36-7.72-2.45-9.15-6.37-1.11-3.04-1.78-6-2-8.79-.97-12.16-4.19-22.58-9.86-31.87-1.6-2.62-3.1-5.68-4.59-9.35-1.59-3.94-4.16-5.85-7.84-5.85h-.03c-3.45,0-6.96.1-10.35.2-5.41.15-11,.3-16.51.11-4.54-.16-10.34-.63-14.91-2.93-9.07-4.56-16.84-5.95-25.2-4.52-7.16,1.23-14.59,1.47-21.78,1.71-1.18.04-2.37.08-3.55.12-3.89.14-6.88-.42-9.39-1.77-2.8-1.5-5.07-4.03-6.94-7.75-4.27-8.45-9.86-16.46-15.27-24.21-1.75-2.5-3.55-5.09-5.29-7.65-1.05-1.55-2.85-3-4.71-3.78-8.18-3.46-14.79-8.13-20.19-14.28-2.27-2.59-4.75-5.12-7.48-6.08-8.12-2.88-12.39-9.34-16.51-15.6-2.53-3.83-5.26-5.16-10.09-4.91-4.57.24-9.29-.75-12.61-2.65-2.02-1.15-3.97-2.5-5.86-3.8-6.42-4.43-12.49-8.62-21.11-5.61-1.31.46-2.9.13-3.95-.09-10.68-2.22-20.81-1.3-30.98,2.81-2.52,1.02-4.82,1.53-6.9,1.53-4.02,0-7.19-1.9-9.48-5.69-.52-.86-1.11-1.24-1.25-1.21-.52.09-.96.15-1.32.19-1.21.14-1.46.17-2.46,1.65l-1.72-1.16c1.47-2.18,2.36-2.37,3.95-2.55.34-.04.73-.08,1.18-.17,1.74-.32,3.04,1.59,3.4,2.18,2.91,4.82,7.43,5.9,13.82,3.32,10.56-4.27,21.09-5.22,32.18-2.92.83.17,2.07.43,2.84.16,9.62-3.35,16.41,1.33,22.97,5.86,1.85,1.28,3.77,2.6,5.71,3.71,2.99,1.71,7.28,2.59,11.48,2.38,5.54-.29,9,1.4,11.92,5.83,3.94,5.97,8.01,12.14,15.48,14.79,3.17,1.13,5.88,3.87,8.34,6.67,5.19,5.91,11.55,10.4,19.44,13.73,2.21.93,4.37,2.67,5.62,4.53,1.73,2.55,3.53,5.13,5.27,7.63,5.45,7.81,11.08,15.88,15.42,24.46,3.66,7.25,8.41,8.59,14.41,8.38,1.18-.04,2.37-.08,3.55-.12,7.12-.23,14.47-.47,21.49-1.68,8.82-1.51,16.99-.06,26.48,4.71,4.21,2.11,9.72,2.56,14.05,2.71,5.45.19,11.01.04,16.38-.11,3.41-.09,6.93-.19,10.4-.2h.03c4.56,0,7.84,2.4,9.76,7.15,1.44,3.57,2.89,6.53,4.44,9.05,5.84,9.57,9.16,20.29,10.16,32.78.21,2.6.84,5.37,1.89,8.24,1.15,3.16,3.42,4.71,7.36,5.01,2.97.23,5.99,1.9,8.19,3.11,1.54.85,3.01,1.87,4.43,2.84,1.96,1.35,3.81,2.62,5.84,3.53,3.76,1.67,5.59,4.11,6.3,8.44.66,4.01,1.91,8.02,3.6,11.58,1.64,3.45,1.52,5.96-.41,8.65"/><path class="cls-27" d="M387.04,303.45l-2.05-.3c.36-2.52-.37-4.07-2.82-5.92-3.3-2.49-6.39-5.61-8.94-9.02-2.21-2.95-4.29-3.97-7.69-3.76-2.41.15-4.84-.15-7.19-.45-1.66-.21-3.38-.42-5.04-.47-3.01-.08-5.68-.07-7.83.85-4.36,1.86-7.98,1.39-11.05-1.43-2.39-2.19-4.35-4.5-5.83-6.87-6.46-10.34-14.13-18.1-23.44-23.73-2.63-1.59-5.37-3.61-8.38-6.18-3.24-2.77-6.41-3.28-9.68-1.56-3.05,1.6-6.12,3.3-9.09,4.95-4.73,2.62-9.63,5.34-14.6,7.71-4.1,1.96-9.47,4.21-14.58,4.28-10.15.14-17.68,2.48-24.44,7.61-5.79,4.39-12.27,8.04-18.54,11.56-1.03.58-2.06,1.16-3.09,1.74-3.39,1.92-6.3,2.8-9.15,2.76-3.17-.04-6.36-1.24-9.73-3.67-7.68-5.53-16.34-10.06-24.71-14.44-2.7-1.41-5.5-2.88-8.22-4.35-1.64-.89-3.91-1.34-5.93-1.18-8.86.71-16.87-.39-24.5-3.36-3.21-1.25-6.58-2.35-9.44-1.95-1.09.15-2.16.22-3.2.22-7.06,0-12.94-3.27-18.64-6.45-4.01-2.23-7.05-2.15-11.21.3-3.95,2.32-8.59,3.62-12.41,3.47-2.32-.09-4.68-.39-6.95-.67-7.74-.97-15.05-1.89-21.32,4.76-.95,1.01-2.51,1.45-3.54,1.74-10.5,2.96-19.07,8.45-26.19,16.78-3.29,3.85-6.72,5.77-10.25,5.77-2.04,0-4.1-.64-6.2-1.92-.85-.52-1.56-.59-1.67-.5-.42.32-.79.57-1.08.77-1.01.68-1.22.82-1.42,2.6l-2.06-.24c.3-2.61,1-3.19,2.32-4.08.29-.19.61-.41.97-.69,1.4-1.08,3.43,0,4.02.37,4.8,2.93,9.31,1.81,13.8-3.43,7.4-8.66,16.3-14.36,27.21-17.43.81-.23,2.04-.57,2.6-1.17,6.99-7.41,15.17-6.39,23.09-5.39,2.23.28,4.54.57,6.78.66,3.44.14,7.66-1.06,11.28-3.18,4.79-2.81,8.63-2.9,13.27-.32,6.25,3.48,12.71,7.08,20.55,5.98,3.33-.46,7.01.72,10.48,2.07,7.33,2.85,15.04,3.9,23.58,3.22,2.39-.19,5.11.36,7.08,1.43,2.71,1.47,5.5,2.93,8.19,4.34,8.44,4.42,17.16,8.98,24.96,14.6,6.6,4.75,11.43,3.75,16.65.79,1.03-.58,2.06-1.16,3.1-1.75,6.21-3.49,12.62-7.09,18.3-11.4,7.13-5.41,15.05-7.89,25.66-8.03,4.71-.06,9.8-2.21,13.71-4.08,4.92-2.34,9.78-5.04,14.49-7.65,2.98-1.65,6.06-3.36,9.14-4.97,4.06-2.12,8.09-1.51,11.99,1.82,2.93,2.5,5.58,4.46,8.11,5.99,9.6,5.8,17.49,13.78,24.13,24.4,1.38,2.21,3.23,4.38,5.47,6.44,2.48,2.27,5.21,2.6,8.84,1.05,2.75-1.17,6.19-1.08,8.7-1.01,1.76.05,3.53.27,5.24.48,2.36.29,4.59.57,6.81.44,4.11-.25,6.86,1.07,9.48,4.58,2.44,3.26,5.39,6.23,8.53,8.61,3.05,2.3,4.1,4.58,3.62,7.87"/><path class="cls-29" d="M260.68,354.45l-2.05-.33c.41-2.52-.31-4.08-2.72-5.97-3.26-2.55-6.3-5.72-8.8-9.17-2.16-2.99-4.23-4.04-7.63-3.88-2.41.11-4.84-.23-7.18-.56-1.66-.23-3.37-.48-5.03-.55-3.01-.13-5.68-.16-7.85.72-4.39,1.79-8,1.26-11.03-1.61-2.35-2.23-4.27-4.57-5.72-6.97-6.29-10.44-13.83-18.33-23.05-24.11-2.6-1.63-5.31-3.7-8.28-6.32-3.19-2.82-6.35-3.38-9.66-1.72-3.08,1.55-6.18,3.2-9.17,4.8-4.77,2.55-9.71,5.18-14.72,7.47-4.12,1.88-9.5,4.04-14.59,4.04-.02,0-.03,0-.05,0-.07,0-.13,0-.2,0-10.05,0-17.57,2.23-24.36,7.21-5.86,4.3-12.4,7.83-18.72,11.25-1.04.56-2.08,1.13-3.12,1.69-3.42,1.87-6.34,2.7-9.19,2.61-3.17-.09-6.34-1.34-9.67-3.83-7.59-5.65-16.18-10.33-24.48-14.84-2.68-1.46-5.45-2.97-8.15-4.49-1.63-.92-3.89-1.41-5.91-1.28-8.87.56-16.86-.67-24.44-3.76-3.19-1.3-6.54-2.45-9.41-2.1-8.55,1.05-15.26-2.83-21.74-6.58-3.97-2.3-7.01-2.27-11.21.11-3.99,2.26-8.65,3.48-12.46,3.26-2.32-.13-4.67-.46-6.94-.79-7.73-1.1-15.02-2.13-21.4,4.41-.97.99-2.53,1.41-3.57,1.68-10.54,2.79-19.2,8.14-26.46,16.35-5.28,5.98-10.84,7.18-16.51,3.58-.85-.54-1.55-.61-1.66-.53-.42.32-.8.56-1.1.76-1.02.66-1.23.8-1.47,2.58l-2.05-.27c.34-2.6,1.05-3.18,2.39-4.05.29-.19.62-.4.99-.68,1.42-1.06,3.43.07,4.02.44,4.75,3.01,9.28,1.96,13.85-3.21,7.54-8.53,16.53-14.09,27.49-16.98.82-.22,2.05-.54,2.62-1.12,7.11-7.3,15.28-6.14,23.17-5.02,2.23.32,4.53.64,6.77.77,3.44.19,7.67-.93,11.33-3,4.83-2.73,8.68-2.76,13.27-.1,6.19,3.58,12.59,7.28,20.45,6.32,3.34-.41,6.99.83,10.44,2.24,7.28,2.97,14.98,4.15,23.53,3.61,2.4-.15,5.1.44,7.06,1.54,2.69,1.51,5.45,3.02,8.12,4.47,8.36,4.55,17.01,9.26,24.72,15,6.52,4.85,11.36,3.93,16.63,1.06,1.04-.57,2.08-1.13,3.13-1.69,6.26-3.39,12.74-6.89,18.48-11.1,7.22-5.3,15.17-7.65,25.79-7.61.02,0,.03,0,.05,0,4.69,0,9.8-2.06,13.73-3.85,4.96-2.26,9.86-4.88,14.61-7.41,3.01-1.6,6.12-3.26,9.22-4.82,4.09-2.05,8.11-1.38,11.96,2.02,2.88,2.55,5.51,4.55,8.01,6.12,9.5,5.95,17.26,14.06,23.73,24.79,1.35,2.24,3.15,4.43,5.37,6.53,2.44,2.31,5.16,2.68,8.82,1.2,2.76-1.12,6.2-.98,8.72-.87,1.76.08,3.53.32,5.23.57,2.35.33,4.58.65,6.8.55,4.11-.19,6.84,1.18,9.41,4.74,2.38,3.3,5.29,6.32,8.39,8.75,3.01,2.35,4.02,4.65,3.49,7.93"/><path class="cls-3" d="M140.41,369.83c-.36-2.6.17-3.34,1.23-4.54.23-.26.49-.55.77-.92,1.08-1.4,3.33-.85,3.99-.65,5.38,1.64,9.47-.58,12.5-6.77,5-10.23,12.19-17.98,21.98-23.68.73-.42,1.83-1.07,2.22-1.78,4.91-8.93,13.09-9.98,21.01-11,2.23-.29,4.54-.58,6.73-1.06,3.37-.73,7.15-2.94,10.12-5.9,3.93-3.92,7.63-4.97,12.77-3.63,6.92,1.81,14.07,3.67,21.39.65,3.11-1.28,6.96-1.06,10.66-.62,7.81.92,15.54.02,23.64-2.78,2.27-.78,5.03-.93,7.21-.39,2.99.74,6.06,1.46,9.02,2.15,9.27,2.16,18.86,4.4,27.82,7.89,7.57,2.94,12,.77,16.32-3.4.85-.82,1.71-1.64,2.56-2.46,5.14-4.93,10.45-10.03,14.87-15.62,5.55-7.02,12.59-11.4,22.84-14.2,4.54-1.24,8.94-4.59,12.26-7.38,4.18-3.5,8.21-7.33,12.11-11.03,2.47-2.35,5.03-4.77,7.61-7.1,3.4-3.07,7.46-3.48,12.06-1.23,3.46,1.69,6.52,2.92,9.35,3.77,10.74,3.21,20.38,8.97,29.47,17.59,1.89,1.8,4.22,3.43,6.91,4.87,2.97,1.58,5.69,1.21,8.82-1.19,2.37-1.82,5.72-2.59,8.17-3.16,1.72-.4,3.49-.62,5.19-.85,2.36-.3,4.59-.59,6.7-1.28,3.91-1.27,6.91-.68,10.33,2.07,3.17,2.54,6.78,4.69,10.42,6.2,3.53,1.47,5.11,3.41,5.48,6.71l-2.06.23c-.28-2.53-1.38-3.85-4.21-5.03-3.82-1.59-7.59-3.83-10.92-6.5-2.87-2.3-5.15-2.77-8.39-1.71-2.3.75-4.73,1.06-7.08,1.37-1.66.21-3.38.44-4.99.81-2.94.68-5.52,1.35-7.37,2.78-3.76,2.89-7.38,3.34-11.06,1.38-2.86-1.52-5.34-3.27-7.36-5.19-8.84-8.39-18.21-13.99-28.63-17.11-2.94-.88-6.1-2.15-9.66-3.89-3.83-1.87-7.02-1.57-9.77.91-2.56,2.31-5.1,4.73-7.57,7.06-3.93,3.72-7.98,7.57-12.21,11.12-3.48,2.92-8.11,6.44-13.04,7.79-9.79,2.67-16.5,6.83-21.76,13.48-4.5,5.7-9.87,10.85-15.06,15.83-.85.82-1.71,1.64-2.56,2.46-2.8,2.71-5.4,4.29-8.17,4.96-3.08.75-6.46.39-10.34-1.12-8.82-3.43-18.34-5.65-27.54-7.8-2.97-.69-6.04-1.41-9.05-2.16-1.81-.45-4.12-.32-6.03.34-8.4,2.9-16.43,3.84-24.56,2.88-3.42-.4-6.95-.63-9.63.48-3.11,1.28-6.15,1.77-9.13,1.77-4.65,0-9.16-1.18-13.58-2.33-4.44-1.16-7.36-.32-10.78,3.09-3.24,3.23-7.41,5.65-11.15,6.46-2.27.49-4.63.8-6.9,1.09-7.74,1-15.05,1.94-19.45,9.94-.67,1.21-2.07,2.03-2.99,2.57-9.42,5.49-16.35,12.95-21.16,22.8-2.75,5.64-6.46,8.47-11.04,8.47-1.24,0-2.55-.21-3.92-.63-.96-.29-1.66-.18-1.74-.07-.32.42-.62.75-.86,1.02-.81.91-.98,1.1-.73,2.88l-2.05.29Z"/><path class="cls-26" d="M431.3,385.91l-2.06-.26c.32-2.53-.45-4.07-2.93-5.87-3.34-2.43-6.49-5.5-9.11-8.86-2.26-2.91-4.36-3.89-7.76-3.62-2.41.19-4.84-.07-7.2-.32-1.66-.18-3.38-.36-5.05-.37-3.01-.02-5.68.03-7.82.99-4.33,1.94-7.95,1.53-11.08-1.23-2.43-2.14-4.43-4.42-5.95-6.77-6.65-10.22-14.46-17.84-23.87-23.3-2.66-1.54-5.44-3.51-8.49-6.03-3.29-2.71-6.46-3.16-9.71-1.39-3.02,1.65-6.06,3.41-9,5.11-4.68,2.71-9.53,5.51-14.46,7.97-4.07,2.03-9.39,4.38-14.5,4.54-10.14.32-17.64,2.8-24.3,8.05-5.71,4.5-12.12,8.26-18.32,11.89-1.02.6-2.04,1.2-3.06,1.8-3.35,1.98-6.25,2.91-9.1,2.93-3.17.02-6.38-1.13-9.8-3.49-7.78-5.39-16.52-9.76-24.97-13.99-2.73-1.37-5.55-2.78-8.3-4.2-1.66-.86-3.94-1.27-5.95-1.07-8.84.87-16.88-.09-24.56-2.91-3.23-1.19-6.62-2.23-9.47-1.78-1.24.2-2.44.28-3.61.28-6.88,0-12.7-3.1-18.35-6.12-4.05-2.16-7.08-2.02-11.2.5-3.91,2.39-8.52,3.77-12.35,3.69-2.32-.05-4.68-.3-6.97-.55-7.76-.83-15.09-1.62-21.23,5.14-.93,1.02-2.48,1.49-3.51,1.8-10.44,3.15-18.91,8.79-25.89,17.25-3.27,3.97-6.73,5.96-10.32,5.96-1.98,0-4-.6-6.06-1.81-.86-.51-1.57-.56-1.68-.47-.41.33-.78.59-1.07.79-1,.7-1.21.85-1.38,2.63l-2.06-.2c.25-2.61.94-3.21,2.25-4.13.28-.2.6-.42.96-.71,1.38-1.11,3.43-.05,4.03.3,4.85,2.85,9.34,1.64,13.73-3.68,7.24-8.79,16.04-14.65,26.89-17.92.81-.24,2.03-.61,2.58-1.21,6.86-7.54,15.06-6.66,22.99-5.81,2.24.24,4.55.49,6.79.54,3.44.07,7.64-1.19,11.22-3.39,4.73-2.9,8.58-3.06,13.26-.56,6.31,3.37,12.83,6.85,20.66,5.61,3.33-.52,7.02.59,10.51,1.88,7.38,2.72,15.11,3.63,23.64,2.8,2.39-.23,5.11.26,7.1,1.3,2.74,1.42,5.55,2.83,8.27,4.19,8.52,4.26,17.32,8.67,25.22,14.14,6.68,4.63,11.49,3.54,16.66.49,1.02-.6,2.04-1.2,3.07-1.8,6.14-3.6,12.49-7.32,18.09-11.73,7.03-5.54,14.9-8.16,25.51-8.49,4.71-.15,9.76-2.39,13.64-4.32,4.88-2.43,9.69-5.22,14.35-7.91,2.95-1.71,6-3.47,9.05-5.13,4.02-2.19,8.06-1.65,12.02,1.61,2.97,2.45,5.66,4.36,8.22,5.84,9.7,5.62,17.74,13.46,24.57,23.96,1.42,2.19,3.3,4.32,5.59,6.34,2.52,2.23,5.25,2.5,8.86.89,2.72-1.22,6.17-1.19,8.68-1.17,1.76.01,3.53.2,5.25.39,2.36.25,4.6.49,6.81.31,4.1-.33,6.87.95,9.56,4.41,2.5,3.21,5.5,6.14,8.69,8.46,3.09,2.25,4.18,4.51,3.76,7.8"/><path class="cls-8" d="M414.57,507.14l-1.68-1.21c1.49-2.07,1.55-3.79.23-6.56-1.78-3.73-3.08-7.93-3.78-12.13-.6-3.63-1.98-5.5-5.1-6.88-2.21-.98-4.23-2.37-6.18-3.71-1.38-.95-2.8-1.93-4.26-2.74-2.64-1.46-5.01-2.68-7.34-2.86-4.73-.36-7.72-2.45-9.15-6.37-1.11-3.04-1.78-6-2.01-8.79-.97-12.16-4.19-22.58-9.86-31.87-1.6-2.62-3.1-5.68-4.59-9.35-1.59-3.94-4.16-5.85-7.84-5.85h-.03c-3.45,0-6.96.1-10.35.2-5.41.15-11,.3-16.51.11-4.54-.16-10.34-.63-14.91-2.93-9.07-4.56-16.84-5.95-25.2-4.52-7.16,1.23-14.59,1.47-21.78,1.71-1.18.04-2.37.08-3.55.12-3.89.14-6.88-.42-9.39-1.77-2.8-1.5-5.07-4.03-6.94-7.75-4.27-8.45-9.86-16.46-15.27-24.21-1.75-2.5-3.55-5.09-5.29-7.65-1.05-1.55-2.85-3-4.72-3.78-8.18-3.46-14.79-8.13-20.19-14.28-2.27-2.59-4.75-5.12-7.48-6.08-8.12-2.88-12.39-9.34-16.51-15.6-2.53-3.83-5.26-5.16-10.09-4.91-4.57.24-9.29-.75-12.61-2.65-2.02-1.15-3.97-2.5-5.86-3.8-6.42-4.43-12.49-8.62-21.11-5.61-1.31.46-2.89.13-3.94-.09-10.68-2.22-20.81-1.3-30.98,2.81-7.39,2.99-12.9,1.59-16.37-4.17-.52-.86-1.11-1.24-1.25-1.21-.52.09-.96.15-1.32.19-1.21.14-1.46.17-2.46,1.65l-1.72-1.16c1.47-2.18,2.36-2.37,3.95-2.55.34-.04.73-.08,1.18-.17,1.74-.32,3.04,1.59,3.4,2.18,2.91,4.82,7.43,5.9,13.82,3.32,10.56-4.27,21.09-5.22,32.18-2.92.83.17,2.07.43,2.84.16,9.62-3.35,16.41,1.33,22.97,5.86,1.85,1.28,3.77,2.6,5.71,3.71,2.99,1.71,7.28,2.59,11.48,2.38,5.54-.29,9,1.4,11.92,5.83,3.94,5.97,8.01,12.14,15.48,14.79,3.17,1.13,5.88,3.87,8.34,6.67,5.19,5.91,11.55,10.4,19.44,13.73,2.21.93,4.37,2.67,5.62,4.53,1.73,2.55,3.53,5.13,5.27,7.63,5.45,7.81,11.08,15.88,15.42,24.46,3.66,7.25,8.41,8.59,14.41,8.38,1.18-.04,2.37-.08,3.55-.12,7.12-.23,14.47-.47,21.49-1.68,8.82-1.51,16.99-.06,26.48,4.71,4.21,2.11,9.72,2.56,14.05,2.71,5.44.19,11.01.04,16.38-.11,3.41-.09,6.93-.19,10.4-.2h.03c4.56,0,7.84,2.4,9.76,7.15,1.44,3.57,2.89,6.53,4.44,9.05,5.84,9.57,9.16,20.29,10.16,32.78.21,2.6.84,5.37,1.89,8.24,1.15,3.16,3.42,4.71,7.36,5.01,2.97.23,5.99,1.9,8.19,3.11,1.54.85,3.01,1.87,4.43,2.84,1.96,1.35,3.81,2.62,5.84,3.53,3.76,1.67,5.59,4.11,6.3,8.44.66,4.01,1.91,8.02,3.6,11.58,1.64,3.45,1.52,5.96-.41,8.65"/><path class="cls-27" d="M80.51,362.45c-.36-2.6.17-3.34,1.23-4.54.23-.26.49-.55.77-.92,1.08-1.4,3.33-.85,3.99-.65,5.38,1.64,9.47-.58,12.5-6.77,5-10.23,12.19-17.98,21.98-23.68.73-.42,1.83-1.07,2.22-1.78,4.91-8.93,13.09-9.98,21.01-11,2.23-.29,4.54-.58,6.73-1.06,3.37-.73,7.15-2.94,10.12-5.9,3.93-3.92,7.63-4.97,12.77-3.63,6.92,1.81,14.08,3.67,21.39.65,3.11-1.28,6.96-1.06,10.66-.62,7.81.92,15.54.02,23.64-2.78,2.27-.78,5.03-.93,7.21-.39,2.99.74,6.06,1.46,9.02,2.15,9.27,2.16,18.86,4.4,27.82,7.89,7.57,2.94,12,.77,16.32-3.4.85-.82,1.71-1.64,2.56-2.47,5.14-4.93,10.45-10.03,14.86-15.62,5.55-7.02,12.59-11.4,22.84-14.2,4.54-1.24,8.94-4.59,12.26-7.38,4.18-3.5,8.21-7.33,12.11-11.03,2.47-2.35,5.03-4.77,7.61-7.1,3.4-3.07,7.46-3.48,12.06-1.23,3.46,1.69,6.52,2.92,9.35,3.77,10.74,3.21,20.38,8.97,29.47,17.59,1.89,1.8,4.22,3.43,6.91,4.87,2.97,1.58,5.69,1.21,8.82-1.19,2.37-1.82,5.72-2.59,8.17-3.16,1.72-.4,3.48-.62,5.19-.85,2.36-.3,4.59-.59,6.7-1.28,3.91-1.27,6.91-.68,10.33,2.07,3.17,2.54,6.78,4.69,10.42,6.2,3.53,1.47,5.11,3.41,5.48,6.71l-2.06.23c-.28-2.53-1.38-3.85-4.21-5.03-3.82-1.59-7.59-3.83-10.92-6.5-2.87-2.3-5.15-2.77-8.39-1.71-2.3.75-4.73,1.06-7.08,1.37-1.66.21-3.38.44-4.99.81-2.94.68-5.52,1.35-7.37,2.78-3.76,2.89-7.38,3.34-11.06,1.38-2.86-1.52-5.34-3.27-7.36-5.19-8.84-8.39-18.21-13.99-28.63-17.11-2.94-.88-6.1-2.15-9.66-3.89-3.83-1.87-7.02-1.57-9.77.91-2.56,2.31-5.1,4.73-7.57,7.06-3.93,3.72-7.98,7.57-12.21,11.12-3.48,2.92-8.11,6.44-13.04,7.79-9.79,2.67-16.5,6.83-21.76,13.48-4.5,5.7-9.87,10.85-15.06,15.83-.85.82-1.71,1.64-2.56,2.46-2.8,2.71-5.4,4.28-8.17,4.96-3.08.75-6.46.39-10.34-1.12-8.82-3.43-18.34-5.65-27.54-7.8-2.97-.69-6.04-1.41-9.05-2.16-1.81-.45-4.12-.32-6.03.34-8.4,2.9-16.43,3.84-24.56,2.88-3.42-.4-6.95-.63-9.63.48-3.11,1.28-6.15,1.77-9.13,1.77-4.65,0-9.16-1.18-13.58-2.33-4.44-1.16-7.36-.32-10.78,3.09-3.24,3.23-7.41,5.65-11.15,6.46-2.27.49-4.63.8-6.9,1.09-7.74,1-15.05,1.94-19.45,9.94-.67,1.21-2.07,2.03-2.99,2.57-9.42,5.49-16.35,12.95-21.16,22.8-2.75,5.64-6.46,8.47-11.04,8.47-1.24,0-2.55-.21-3.92-.63-.96-.29-1.66-.18-1.74-.07-.32.42-.62.75-.86,1.02-.81.91-.98,1.1-.73,2.88l-2.05.29Z"/><path class="cls-26" d="M253.51,335.34l-2.05-.3c.36-2.52-.37-4.07-2.82-5.92-3.3-2.49-6.39-5.61-8.94-9.02-2.21-2.95-4.29-3.97-7.69-3.76-2.41.15-4.84-.15-7.19-.45-1.66-.21-3.38-.42-5.04-.47-3.01-.08-5.68-.07-7.83.85-4.36,1.86-7.98,1.39-11.05-1.43-2.39-2.19-4.35-4.5-5.83-6.87-6.46-10.34-14.13-18.1-23.44-23.73-2.63-1.59-5.37-3.61-8.38-6.18-3.24-2.77-6.41-3.28-9.68-1.56-3.05,1.6-6.12,3.3-9.09,4.95-4.73,2.62-9.63,5.34-14.6,7.71-4.1,1.96-9.47,4.21-14.58,4.28-10.15.14-17.68,2.48-24.44,7.61-5.79,4.39-12.27,8.04-18.54,11.56-1.03.58-2.06,1.16-3.09,1.74-3.39,1.92-6.3,2.8-9.15,2.76-3.17-.04-6.36-1.24-9.73-3.67-7.68-5.53-16.34-10.06-24.71-14.44-2.7-1.41-5.5-2.88-8.22-4.35-1.64-.89-3.91-1.34-5.93-1.18-8.86.71-16.87-.39-24.5-3.36-3.21-1.25-6.58-2.35-9.44-1.95-1.09.15-2.16.22-3.2.22-7.06,0-12.94-3.27-18.65-6.45-4.01-2.23-7.05-2.15-11.21.3-3.95,2.32-8.59,3.62-12.41,3.47-2.32-.09-4.68-.39-6.95-.67-7.74-.97-15.05-1.89-21.32,4.76-.95,1.01-2.51,1.45-3.54,1.74-10.5,2.96-19.07,8.45-26.19,16.78-3.29,3.85-6.72,5.77-10.25,5.77-2.04,0-4.1-.64-6.2-1.92-.85-.52-1.56-.59-1.67-.5-.42.32-.79.57-1.08.77-1.01.68-1.22.82-1.42,2.6l-2.06-.24c.3-2.61,1-3.19,2.32-4.08.29-.19.61-.41.97-.69,1.4-1.08,3.43,0,4.02.37,4.8,2.93,9.31,1.81,13.8-3.43,7.4-8.66,16.3-14.36,27.21-17.43.81-.23,2.04-.57,2.6-1.17,6.99-7.41,15.17-6.39,23.09-5.39,2.23.28,4.54.57,6.78.66,3.44.13,7.66-1.06,11.28-3.18,4.79-2.81,8.63-2.9,13.27-.32,6.25,3.48,12.71,7.08,20.55,5.98,3.33-.46,7.01.72,10.48,2.07,7.33,2.85,15.04,3.9,23.58,3.22,2.39-.19,5.11.36,7.08,1.43,2.71,1.47,5.5,2.93,8.19,4.34,8.44,4.42,17.16,8.98,24.96,14.6,6.6,4.75,11.43,3.75,16.65.79,1.03-.58,2.06-1.16,3.1-1.75,6.21-3.49,12.62-7.09,18.3-11.4,7.13-5.41,15.05-7.89,25.66-8.03,4.71-.06,9.8-2.21,13.71-4.08,4.92-2.34,9.78-5.04,14.49-7.65,2.98-1.65,6.06-3.36,9.14-4.97,4.06-2.12,8.09-1.51,11.99,1.82,2.93,2.5,5.58,4.46,8.11,5.99,9.6,5.8,17.49,13.78,24.13,24.4,1.38,2.21,3.23,4.38,5.47,6.44,2.48,2.27,5.21,2.6,8.84,1.05,2.75-1.17,6.19-1.08,8.7-1.01,1.76.05,3.53.27,5.24.48,2.36.29,4.59.57,6.81.44,4.11-.26,6.86,1.07,9.48,4.58,2.44,3.26,5.39,6.23,8.53,8.61,3.05,2.3,4.1,4.58,3.62,7.87"/><path class="cls-29" d="M378.76,327.49l-1.97-.63c.77-2.43.3-4.08-1.82-6.3-2.85-3-5.39-6.58-7.35-10.36-1.7-3.27-3.59-4.62-6.98-4.96-2.41-.25-4.75-.94-7.02-1.61-1.6-.48-3.26-.97-4.89-1.28-2.96-.57-5.59-1-7.87-.44-4.61,1.12-8.1.07-10.67-3.21-2-2.55-3.56-5.15-4.63-7.73-4.69-11.26-10.99-20.16-19.26-27.24-2.33-2-4.71-4.44-7.26-7.47-2.74-3.26-5.79-4.28-9.3-3.12-3.27,1.08-6.58,2.26-9.78,3.4-5.1,1.82-10.37,3.69-15.66,5.22-4.37,1.26-10.03,2.61-15.08,1.84-10.03-1.52-17.85-.43-25.35,3.52-6.43,3.39-13.42,5.93-20.17,8.38-1.11.4-2.23.81-3.33,1.21-3.66,1.34-6.67,1.73-9.48,1.23-3.12-.56-6.07-2.26-9-5.21-6.68-6.71-14.48-12.59-22.03-18.28-2.44-1.84-4.95-3.74-7.4-5.64-1.47-1.15-3.64-1.96-5.66-2.13-8.85-.75-16.58-3.14-23.62-7.31-2.96-1.75-6.11-3.39-9-3.46-8.61-.22-14.67-5.04-20.54-9.71-3.59-2.86-6.6-3.27-11.11-1.54-4.27,1.64-9.06,2.17-12.81,1.4-2.28-.47-4.55-1.14-6.75-1.8-7.48-2.22-14.54-4.32-21.81,1.22-1.1.84-2.71,1.02-3.78,1.14-10.84,1.21-20.19,5.22-28.58,12.28-3.29,2.77-6.46,4.15-9.47,4.15-2.58,0-5.05-1.01-7.39-3.04-.76-.66-1.44-.83-1.57-.77-.47.25-.87.44-1.2.59-1.11.51-1.34.61-1.83,2.34l-1.99-.57c.72-2.52,1.51-2.99,2.96-3.65.31-.14.67-.31,1.07-.53,1.56-.84,3.38.57,3.91,1.02,4.26,3.68,8.89,3.31,14.17-1.13,8.72-7.33,18.43-11.51,29.69-12.76.84-.09,2.11-.23,2.75-.73,8.11-6.17,16.01-3.82,23.66-1.55,2.16.64,4.39,1.3,6.58,1.75,3.37.69,7.73.21,11.65-1.3,5.18-1.99,8.99-1.46,13.14,1.85,5.6,4.45,11.38,9.06,19.3,9.26,3.37.09,6.79,1.85,10,3.75,6.77,4.01,14.21,6.31,22.74,7.03,2.39.2,4.98,1.18,6.75,2.56,2.43,1.89,4.95,3.79,7.38,5.62,7.6,5.73,15.47,11.66,22.25,18.47,5.73,5.76,10.66,5.56,16.3,3.49,1.11-.41,2.23-.81,3.34-1.22,6.69-2.43,13.61-4.94,19.91-8.26,7.92-4.18,16.13-5.33,26.63-3.74,4.65.71,10.03-.58,14.19-1.78,5.23-1.51,10.47-3.38,15.54-5.18,3.21-1.14,6.53-2.33,9.83-3.41,4.35-1.43,8.23-.17,11.53,3.76,2.48,2.94,4.78,5.31,7.02,7.23,8.52,7.29,15.01,16.45,19.82,28.01,1,2.41,2.47,4.85,4.35,7.25,2.08,2.65,4.71,3.41,8.55,2.48,2.9-.71,6.28-.05,8.75.42,1.73.33,3.44.84,5.09,1.33,2.28.68,4.43,1.31,6.65,1.54,4.1.42,6.59,2.18,8.61,6.07,1.87,3.61,4.3,7.03,7.01,9.89,2.63,2.77,3.29,5.19,2.29,8.36"/><path class="cls-3" d="M287.38,327l-1.94-.74c.91-2.38.53-4.06-1.45-6.4-2.67-3.15-5.01-6.88-6.75-10.76-1.51-3.36-3.32-4.81-6.68-5.35-2.39-.38-4.69-1.21-6.92-2.01-1.57-.57-3.2-1.15-4.81-1.56-2.92-.74-5.53-1.31-7.83-.89-4.66.86-8.09-.39-10.47-3.82-1.85-2.66-3.26-5.34-4.18-7.98-4.04-11.51-9.82-20.76-17.67-28.29-2.22-2.13-4.45-4.7-6.82-7.87-2.55-3.41-5.53-4.6-9.11-3.65-3.33.89-6.7,1.88-9.96,2.83-5.19,1.52-10.56,3.1-15.94,4.32-4.43,1.01-10.16,2.03-15.16.98-9.93-2.09-17.8-1.45-25.51,2.07-6.61,3.02-13.73,5.15-20.62,7.21-1.13.34-2.27.68-3.4,1.02-3.73,1.13-6.76,1.35-9.53.69-3.09-.73-5.93-2.6-8.69-5.72-6.28-7.08-13.74-13.4-20.95-19.51-2.33-1.97-4.73-4.01-7.07-6.05-1.41-1.23-3.52-2.17-5.52-2.45-8.8-1.25-16.37-4.08-23.17-8.65-2.86-1.92-5.9-3.73-8.78-3.97-8.58-.71-14.36-5.87-19.95-10.86-3.42-3.06-6.4-3.64-11-2.17-4.36,1.4-9.17,1.64-12.87.66-2.25-.6-4.48-1.4-6.64-2.18-7.34-2.65-14.27-5.14-21.85-.03-1.15.78-2.77.86-3.84.92-10.89.58-20.45,4.06-29.24,10.63-3.23,2.41-6.28,3.62-9.12,3.62-2.79,0-5.39-1.16-7.77-3.47-.72-.7-1.39-.91-1.52-.85-.48.22-.89.39-1.23.52-1.14.44-1.37.54-1.96,2.23l-1.96-.68c.86-2.48,1.68-2.9,3.16-3.48.32-.13.69-.27,1.1-.46,1.6-.75,3.35.76,3.84,1.24,4.04,3.92,8.69,3.81,14.21-.32,9.12-6.82,19.05-10.43,30.37-11.04.84-.05,2.12-.11,2.79-.57,8.45-5.7,16.21-2.9,23.71-.2,2.12.76,4.31,1.55,6.47,2.13,3.33.89,7.7.65,11.7-.63,5.29-1.69,9.06-.94,13.02,2.6,5.33,4.76,10.85,9.69,18.74,10.34,3.35.28,6.68,2.24,9.77,4.32,6.53,4.39,13.82,7.11,22.3,8.32,2.38.34,4.9,1.47,6.59,2.94,2.32,2.03,4.72,4.06,7.04,6.03,7.26,6.16,14.77,12.53,21.16,19.72,5.39,6.08,10.33,6.16,16.07,4.42,1.13-.34,2.27-.68,3.4-1.02,6.82-2.04,13.87-4.15,20.35-7.11,8.14-3.72,16.41-4.4,26.8-2.21,4.61.97,10.05,0,14.27-.97,5.31-1.21,10.65-2.77,15.81-4.29,3.27-.96,6.65-1.95,10.01-2.85,4.42-1.18,8.22.3,11.3,4.41,2.31,3.08,4.47,5.57,6.6,7.62,8.09,7.76,14.04,17.28,18.19,29.1.86,2.46,2.19,4.98,3.93,7.49,1.92,2.76,4.51,3.68,8.39,2.96,2.93-.54,6.27.3,8.71.92,1.71.43,3.39,1.03,5.01,1.62,2.24.8,4.35,1.56,6.55,1.92,4.06.65,6.45,2.55,8.25,6.55,1.66,3.71,3.89,7.26,6.44,10.27,2.47,2.91,2.99,5.37,1.81,8.47"/><path class="cls-26" d="M506.95,300.43l-2.04-.39c.48-2.5-.19-4.09-2.55-6.04-3.18-2.64-6.13-5.9-8.52-9.42-2.07-3.05-4.11-4.16-7.52-4.1-2.42.04-4.83-.37-7.16-.77-1.65-.28-3.35-.58-5.01-.69-3-.22-5.67-.33-7.86.49-4.44,1.66-8.03,1.02-10.98-1.93-2.28-2.29-4.14-4.69-5.51-7.13-5.98-10.62-13.29-18.73-22.34-24.77-2.55-1.71-5.2-3.85-8.09-6.56-3.11-2.91-6.25-3.57-9.6-2-3.12,1.46-6.27,3.02-9.31,4.53-4.85,2.4-9.86,4.89-14.94,7.03-4.19,1.77-9.65,3.77-14.76,3.61-10.14-.33-17.78,1.67-24.76,6.49-5.98,4.13-12.62,7.47-19.05,10.7-1.06.53-2.11,1.06-3.17,1.6-3.47,1.76-6.42,2.51-9.26,2.34-3.17-.18-6.29-1.53-9.56-4.11-7.42-5.87-15.87-10.8-24.03-15.56-2.64-1.54-5.36-3.13-8.01-4.72-1.6-.96-3.85-1.52-5.87-1.45-.76.03-1.51.04-2.25.04-7.98,0-15.22-1.48-22.07-4.51-3.15-1.39-6.46-2.65-9.34-2.38-8.58.8-15.17-3.28-21.54-7.22-3.9-2.41-6.94-2.47-11.21-.21-4.05,2.14-8.74,3.22-12.56,2.9-2.32-.2-4.65-.6-6.92-.99-7.69-1.32-14.95-2.57-21.52,3.78-1,.96-2.57,1.33-3.62,1.57-10.62,2.48-19.43,7.57-26.93,15.57-5.45,5.82-11.04,6.86-16.61,3.1-.83-.56-1.53-.66-1.65-.58-.43.3-.81.54-1.12.72-1.04.63-1.26.77-1.54,2.53l-2.05-.33c.42-2.59,1.15-3.14,2.51-3.97.29-.18.63-.38,1.01-.65,1.45-1.02,3.43.17,4,.55,4.66,3.15,9.22,2.23,13.94-2.8,7.79-8.31,16.94-13.6,27.97-16.17.82-.19,2.06-.48,2.65-1.05,7.32-7.09,15.45-5.69,23.31-4.33,2.22.38,4.51.78,6.74.97,3.43.29,7.7-.7,11.41-2.66,4.91-2.59,8.75-2.51,13.27.28,6.08,3.76,12.37,7.65,20.26,6.92,3.35-.31,6.97,1.04,10.37,2.55,7.19,3.18,14.85,4.59,23.41,4.3,2.4-.08,5.08.59,7.01,1.75,2.64,1.59,5.36,3.18,7.99,4.71,8.23,4.8,16.73,9.76,24.27,15.72,6.37,5.04,11.24,4.26,16.6,1.55,1.06-.54,2.11-1.07,3.17-1.6,6.36-3.2,12.94-6.51,18.8-10.55,7.37-5.08,15.39-7.2,26-6.85,4.71.15,9.89-1.76,13.88-3.45,5.02-2.12,10-4.59,14.82-6.98,3.05-1.52,6.21-3.08,9.36-4.55,4.15-1.93,8.15-1.14,11.89,2.37,2.81,2.63,5.37,4.71,7.83,6.35,9.32,6.23,16.84,14.56,22.99,25.48,1.28,2.27,3.02,4.52,5.17,6.69,2.37,2.38,5.08,2.83,8.78,1.45,2.8-1.04,6.23-.79,8.74-.61,1.76.13,3.51.43,5.21.72,2.34.4,4.56.78,6.78.75,4.11-.07,6.8,1.38,9.26,5.01,2.29,3.36,5.1,6.47,8.13,8.99,2.94,2.44,3.88,4.76,3.26,8.03"/></g><g id="Hercules"><rect class="cls-28" x="217.97" y="400.69" width="21.54" height="5.25"/><rect class="cls-3" x="160.88" y="422.61" width="27.47" height="5.25"/><rect class="cls-26" x="221.12" y="380.75" width="32.33" height="5.25"/><rect class="cls-1" x="139.87" y="380.75" width="21.04" height="5.24"/><polygon class="cls-6" points="256.6 433.11 253.66 433.11 245.52 417.32 245.52 433.11 239.51 433.11 239.51 400.69 242.45 400.69 250.6 416.48 250.6 400.69 256.6 400.69 256.6 433.11"/><path class="cls-6" d="M236.66,416.9c0,13.27-4.03,16.42-8.82,16.42s-8.82-3.15-8.82-16.42,4.03-16.21,8.82-16.21,8.82,2.94,8.82,16.21M230.36,416.9c0-8.94-1.18-10.96-2.52-10.96s-2.52,2.02-2.52,10.96,1.18,11.17,2.52,11.17,2.52-2.23,2.52-11.17"/><polygon class="cls-6" points="217.97 405.94 213.1 405.94 213.1 433.11 206.8 433.11 206.8 405.94 201.97 405.94 201.97 400.69 217.97 400.69 217.97 405.94"/><path class="cls-6" d="M202.39,433.11h-5.71l-.67-5.25h-4.2l-.67,5.25h-5.67l4.87-32.42h7.18l4.87,32.42ZM195.29,422.61l-1.39-12.39-1.47,12.39h2.86Z"/><path class="cls-6" d="M183.03,410.77c0,6.26-2.98,9.15-4.41,10.12.97,1.13,2.31,3.02,3.15,5.17.97,2.44,1.13,4.83,1.13,7.05h-6.3c0-1.6-.17-3.23-.84-4.91-.71-1.76-1.68-3.11-2.39-3.78v8.69h-6.3v-32.42h4.96c6,0,11,3.19,11,10.08M176.73,410.81c0-3.07-1.22-4.79-3.36-4.79v11.55c.97,0,3.36-2.44,3.36-6.76"/><path class="cls-6" d="M164.14,433.11h-5.71l-.67-5.25h-4.2l-.67,5.25h-5.67l4.87-32.42h7.18l4.87,32.42ZM157.04,422.61l-1.39-12.39-1.47,12.39h2.86Z"/><polygon class="cls-6" points="144.57 433.11 138.56 433.11 138.56 419.76 136 426.06 133.48 426.06 130.92 419.76 130.92 433.11 124.92 433.11 124.92 400.69 127.86 400.69 134.74 417.36 141.63 400.69 144.57 400.69 144.57 433.11"/><path class="cls-6" d="M259.83,387.21c0,5.84-3.86,8.99-8.99,8.99-2.1,0-3.74-.42-5.21-1.3l2.31-4.75c.71.42,1.76.71,2.9.71,1.6,0,2.81-1.09,2.81-2.81,0-2.6-1.39-4.62-3.7-7.52-2.81-3.57-3.91-5.96-3.91-8.94,0-5.04,3.19-8.23,8.23-8.23,1.6,0,3.15.42,4.12.97l-2.23,4.54c-.59-.21-1.09-.34-1.89-.34-1.34,0-2.18.97-2.18,2.18,0,2.1,1.3,3.82,3.65,6.8,2.9,3.65,4.07,6.13,4.07,9.7"/><polygon class="cls-6" points="243.33 395.99 230.19 395.99 230.19 385.99 228.51 385.99 228.51 380.75 230.19 380.75 230.19 363.57 243.33 363.57 243.33 368.82 236.49 368.82 236.49 380.75 242.03 380.75 242.03 385.99 236.49 385.99 236.49 390.74 243.33 390.74 243.33 395.99"/><polygon class="cls-6" points="227.54 395.99 214.82 395.99 214.82 363.57 221.12 363.57 221.12 390.74 227.54 390.74 227.54 395.99"/><path class="cls-6" d="M211.63,386.71c0,6.34-4.16,9.49-8.31,9.49s-8.27-3.15-8.27-9.49v-23.14h6.3v24.1c0,1.93.88,3.28,1.97,3.28s2.02-1.34,2.02-3.28v-24.1h6.3v23.14Z"/><path class="cls-6" d="M192.1,395.9s-1.09.29-2.44.29c-4.12,0-10.37-1.34-10.37-16.42s6.26-16.42,10.37-16.42c1.34,0,2.44.29,2.44.29v5.12c-.59-.08-1.05-.17-1.76-.17-1.64,0-4.75.8-4.75,11.17s3.11,11.17,4.75,11.17c.71,0,1.18-.08,1.76-.17v5.12Z"/><path class="cls-6" d="M176.86,373.65c0,6.26-2.98,9.15-4.41,10.12.97,1.13,2.31,3.02,3.15,5.16.97,2.44,1.13,4.83,1.13,7.05h-6.3c0-1.6-.17-3.23-.84-4.91-.71-1.76-1.68-3.11-2.39-3.78v8.69h-6.3v-32.42h4.96c6,0,11,3.19,11,10.08M170.56,373.69c0-3.07-1.22-4.79-3.36-4.79v11.55c.97,0,3.36-2.44,3.36-6.76"/><polygon class="cls-6" points="157.25 395.99 144.11 395.99 144.11 385.99 142.43 385.99 142.43 380.75 144.11 380.75 144.11 363.57 157.25 363.57 157.25 368.82 150.41 368.82 150.41 380.75 155.95 380.75 155.95 385.99 150.41 385.99 150.41 390.74 157.25 390.74 157.25 395.99"/><polygon class="cls-6" points="139.87 395.99 133.57 395.99 133.57 385.99 129.58 385.99 129.58 395.99 123.28 395.99 123.28 385.99 121.6 385.99 121.6 380.75 123.28 380.75 123.28 363.57 129.58 363.57 129.58 380.75 133.57 380.75 133.57 363.57 139.87 363.57 139.87 395.99"/></g></g><g id="TAGLINE"><path class="cls-7" d="M516.95,490.62h-7.67v-7.67h-1v-2.57h1v-13.08h7.67v2.57h-4.47v10.51h3.53v2.57h-3.53v5.1h4.47v2.57Z"/><path class="cls-7" d="M528.61,490.62h-1.54l-5.22-13.29v13.29h-3.08v-23.32h1.54l5.2,13.38v-13.38h3.11v23.32Z"/><path class="cls-7" d="M536.52,480.89c0,8.03-2.42,9.88-5.47,9.88-.57,0-1.09-.15-1.09-.15v-2.51c.27.06.48.09.82.09,1.33,0,2.54-1.21,2.54-7.31v-13.59h3.2v13.59Z"/><path class="cls-7" d="M549.45,478.96c0,10.09-2.72,11.81-5.29,11.81s-5.32-1.72-5.32-11.81,2.75-11.81,5.32-11.81,5.29,1.72,5.29,11.81ZM546.25,478.96c0-7.76-1.06-9.24-2.08-9.24s-2.08,1.48-2.08,9.24,1.06,9.24,2.08,9.24,2.08-1.48,2.08-9.24Z"/><path class="cls-7" d="M560.62,467.3l-3.62,13.89v9.42h-3.2v-9.42l-3.59-13.89h3.14l2.14,9.45,2.14-9.45h2.99Z"/><path class="cls-7" d="M576.82,469.87h-3.11v20.75h-3.2v-20.75h-3.11v-2.57h9.42v2.57Z"/><path class="cls-7" d="M588.15,490.62h-3.2v-7.67h-3.2v7.67h-3.2v-7.67h-1.12v-2.57h1.12v-13.08h3.2v13.08h3.2v-13.08h3.2v23.32Z"/><path class="cls-7" d="M598.63,490.62h-7.67v-7.67h-1v-2.57h1v-13.08h7.67v2.57h-4.47v10.51h3.53v2.57h-3.53v5.1h4.47v2.57Z"/><path class="cls-7" d="M615.95,474.34c0,4.53-2.27,6.71-3.32,7.43.69.85,1.57,2.11,2.17,3.62.76,1.81.97,3.62.97,5.22h-3.14c0-1.33-.21-2.81-.73-4.11-.54-1.36-1.3-2.51-1.87-3.14v7.25h-3.2v-23.32h2.51c3.38,0,6.61,1.75,6.61,7.04ZM612.74,474.37c0-3.47-1.3-4.47-2.72-4.47v10.27c.66-.09,2.72-1.84,2.72-5.8Z"/><path class="cls-7" d="M627.45,484.88c0,4.14-2.36,5.89-4.77,5.89s-4.71-1.75-4.71-5.89v-17.58h3.2v18.21c0,1.84.79,2.69,1.51,2.69s1.57-.85,1.57-2.69v-18.21h3.2v17.58Z"/><path class="cls-7" d="M640.05,490.62h-1.54l-5.22-13.29v13.29h-3.08v-23.32h1.54l5.2,13.38v-13.38h3.11v23.32Z"/><path class="cls-7" d="M646.48,467.3l-.54,16.22h-2.69l-.57-16.22h3.81ZM646.06,490.62h-2.93v-4.32h2.93v4.32Z"/></g></g><path class="cls-29" d="M878.51,503.51c-12.05-23.86-28.57-51.57-56.52-57.79-5.09-1.09-10.3-1.15-15.51-1.08-2.22-.05-4.98.17-7.21-1.13-1.47-.88-2.03-2.66-2.54-4.21-2.05-5.93,2.38-11.6,6.24-15.59,7.3-7.51,16.09-14.45,24.08-21.11,2.09-1.78,5.96-4.67,7.69-6.55,1.69-1.83,3.01-3.8,2.72-6.13-.89-5.01-6.55-10.07-10.44-13.97-13.17-12.29-26.68-24.65-36.73-39.96-17.22-25.12-23.53-56.84-21.06-86.85,0,0,23.74,2.78,23.74,2.78-2.18,12.94-2.76,26.04-1.05,38.87,2.43,19.47,10.89,38.03,22.89,53.73,6.14,8.25,13.36,15.97,20.22,23.85,4.98,6.07,11.17,12.63,11.46,21.21.11,9.36-8.56,14.2-15.17,18.7-8.27,5.76-17.8,12.07-25.29,18.57-4.22,3.77-8.28,7.92-5.79,13.64.21.51.61.75,1.38,1,1.37.38,3.15.4,4.87.43,5.34,0,10.76.19,16.01,1.4,28.67,6.9,44.97,35.06,56.91,59.74,0,0-.9.43-.9.43h0Z"/><path class="cls-29" d="M771.97,54.74c17.52-.69,41.37,4.15,45.92,23.97,1.27,5.65,1.38,11.87-1.45,17.1-6.14,10.97-20.28,17.86-30.86,23.82-19.46,10.22-39.51,19.22-59.44,28.38-12.84,5.62-23.44,12.11-19.78,27.95,3.11,13.49,10.3,26.63,16.07,39.47,69.7,137.98,43.39,291.92-7.17,431.51,0,0-22.35-8.48-22.35-8.48,41.66-106.06,71.64-223.23,47.42-336.94-6.03-28.24-15.78-55.34-27.33-81.87-5.67-13.75-12.59-27.23-15.46-42.05-3.8-20.15,8.84-30.25,25.59-36.56,20.2-8.33,40.49-16.48,60.2-25.85,9.54-4.79,19.53-9.4,27.05-16.99,5.1-5.01,6.17-12.09,4.77-18.92-3.83-18.86-26.65-23.5-43.16-23.54,0,0-.03-1-.03-1h0Z"/><path class="cls-9" d="M784.88,84.78c-13.4,7.97-29.21,9.37-43.83,12.15-3.63.86-7.21,1.96-10.44,3.61-13.27,6.57-7.36,17.08,2.04,23.82,5.92,4.35,12.87,7.22,19.96,9.06,7.51,2.34,14.47,5.6,21.33,9.08,26.64,13.99,67.41,41.06,72.38,72.97,3.32,22.58-15.89,38.56-34.06,47.45-6.52,3.13-13.13,6.79-18.99,10.99-62.99,45.05-62.84,133.25-46.44,201.85,13.8,58.27,39.05,113.19,68.68,165.08,0,0-18.59,10.36-18.59,10.36-14.6-27.01-27.88-54.8-39.28-83.42-37.08-92.04-65.82-236.36,29.46-302.87,4.93-3.31,10.1-6.25,15.44-8.84,8.29-3.79,16.66-7.82,23.39-13.64,11.45-9.43,15.11-22.16,9.35-35.79-11.62-28.52-57.93-60.21-86.78-69.67-10.2-3.53-20.28-9.04-26.35-18.32-5.45-8.62-1.68-16.6,7.26-20.54,10.58-4.88,22.5-4.37,33.65-6.91,7.27-1.57,14.78-3.42,21.21-7.24,0,0,.59.8.59.8h0Z"/><path class="cls-10" d="M785.41,107.38c-5.18-5.04-13.41-4.89-20.17-4-10.98,1.59-21.01,6.69-31.86,9-7.54,1.77-15.43,2.9-23.26,1.56-7.48-1.39-13.21-3.98-20.54-2.78-5.68.74-11.31,1.85-13.38,8.05-4.56,14.3,4.57,35.39,10.64,48.86,18.86,39.5,45.74,74.86,72.32,109.51,70.67,100.54,33.48,263.44,1.24,373.09,0,0-3.1,10.58-3.1,10.58,0,0-1.48,5.19-1.48,5.19-.47,1.7-.93,3.4-1.27,4.86,0,0-23.3-5.62-23.3-5.62,1.55-6.22,4.66-15.62,6.55-21.86,31.92-102.71,72.05-260.64,7.43-356.35-26.07-36.26-51.7-73.22-69.62-114.4-6.68-16.48-15.69-39.99-8.93-57.67,2.5-6.65,9.14-11.93,16.17-12.8,6-.94,12.42-.99,18.33.75,3.95,1.12,7.19,2.54,10.44,3.32,6.69,1.72,13.81,1.2,20.69.17,16.18-2.2,33.37-10.92,49.41-3.63,1.71.9,3.31,1.97,4.53,3.62l-.83.56h0Z"/><path class="cls-23" d="M783.46,127.33c-13.61,4.24-28.07,4.78-42.2,5-6.13.41-25.58-.93-27.8,5.27-2.45,9.16,20.66,34.04,27.47,40.95,19.84,20.11,43.73,34.52,67.23,50.25,9.02,6.28,18.57,13.02,25.27,22.36,5.03,6.78,7.58,16.5,5.76,24.94-.64,3.71-2.16,7.07-3.12,10.65-1.7,6.38-2.74,13.26-3.64,19.92-7.82,69.66-6.68,140.36-4.79,210.39,2.07,55.96,5.63,112.29,13.93,167.55,0,0-25.36,3.52-25.36,3.52-6.83-56.81-8.76-113.64-9.2-170.66.16-71.11,1.1-142.35,11.14-212.92,1.37-8.23,2.84-16.41,5.55-24.44.71-2.1,1.92-4.62,2.37-6.73,2.12-8.81-2.19-15.74-8.79-22.6-14.81-14.51-33.21-25.26-49.56-38.51-16.89-13.17-32.65-28.35-45.27-45.76-5.49-7.99-22.08-28.51-8.31-35.19,5.28-2.28,11.03-2.05,16.5-2.14,3.57.02,7.11.14,10.64.24,14.04.41,28.24.53,41.91-3.06,0,0,.28.96.28.96h0Z"/><path class="cls-4" d="M781.63,155.83c17.88-4.23,35.83-7.76,53.04-13.78,3.46-1.46,8.1-2.88,10.31-5.55-.04.09-.06.33-.02.46.09.28-.03-.03-.47-.36-.39-.27-.88-.65-1.36-.85-.99-.4-2.7-.34-3.96-.32-5.19.3-10.36,1.53-15.47,2.88-10.51,2.8-20.75,6.49-30.88,10.52-26.62,11.06-53.49,24.5-73.63,45.55-7.08,7.76-13.23,16.82-14.29,27.3-.17,1.65.16,3.35,1,4.88,1.68,3.18,5.19,5.22,6.75,8.32.27.51.86,1.49,1.12,2,8.49,14.02,26.46,25.49,39.15,35.97,37.68,29.02,63.44,65.87,80.07,110.26,18.55,49.45,26.3,102.25,29.73,154.67,1.92,29.8,2.23,59.59,1.49,89.29,0,0-23.59-.38-23.59-.38-.35-85.82-2.96-175.58-36.8-255.47-13.93-32.66-35.76-61-63.08-83.64-10.39-9.13-24.78-19.78-33.79-30.58-2.99-3.48-5.79-7.44-8.13-11.58,0,0-.74-1.43-.74-1.43-1.75-3.02-2.57-6.47-2.13-10.02.21-2.07.97-4.86,1.52-6.87.6-2.15,1.05-4.14,1.31-6.14.55-4.01,1.79-7.83,3.44-11.38,16.61-34.09,73.85-63.24,108.79-75.18,8.34-2.64,29.15-9.58,36.63-4.38,2.71,1.63,5.18,4.97,4.1,8.36-2.96,10.56-37.71,14.83-47.9,16.36-7.35.94-14.7,1.7-22.1,2.07,0,0-.13-.99-.13-.99h0Z"/><path class="cls-3" d="M774.4,176.15c23.57-8.12,94.73-31.21,113.69-12.16,7.75,7.48,4.79,19.6.5,27.69-24.49,46.84-114.22,61.71-149.18,98.2-20.29,21.17-.43,46.37,14.36,64.46,19.42,23.09,39.28,47.89,53.98,74.83,37.7,67.96,49.95,146.97,51.04,223.56,0,0-23.56.74-23.56.74-3.08-58.57-11.02-117.7-32.12-172.39-10.49-27.08-24.29-52.51-41.44-76-8.55-11.81-17.83-23.2-27.31-35.23-15.49-19.4-32.83-44.7-25.54-71.29,10.49-37.66,65.17-54.29,97.33-68.11,13.65-5.6,27.31-11.3,40.18-18.28,12.05-6.66,24.24-14.74,31.36-26.44,4.79-8.42,6.98-15.03-4.61-18.26-10.26-2.72-21.28-2.24-32.04-1.54-14.84,1.18-29.67,3.55-44.32,6.43-7.37,1.42-14.72,2.98-22.02,4.75l-.29-.96h0Z"/><path class="cls-1" d="M819.7,203.38c13.23,6.09,25.66,13.21,38.39,20.43,5.95,3.73,12.86,7.11,16.98,13.39,4.56,7.47.3,15.09-6.93,18.64-5.31,2.93-12.19,3.56-17.28,3.33-15.36-.88-29.51-7.15-42.89-13.94-18.88-9.41-46.53-27.11-67.71-18.02-1.75,1.02-1.93,1.96-2.48,3.56-.77,2.12-1.09,4.4-1.2,6.13-.12.26,0,.4.33.7,5.66,2.98,16.53-.46,22.12-3.55,4.47-2.53,8.62-5.67,9.97-10.77,2.73-8.5,1-19.23,8.01-25.98,10.23-8.8,32.04,1.28,42.7,6.07h0ZM817.08,208.6c-6.06-3.13-12.73-6.5-19.17-8.71-10.29-3.61-20.89-5.06-23.66,8.16-3.03,13.87-.26,19.5-12.95,29.37-7.46,5.74-17.93,13.05-28.15,10.66-4.76-1.22-8.37-5.54-9.09-10.37-.8-4.21.03-8.41,1.16-12.23,1.49-5.08,5.82-9.06,10.61-10.33,5.05-1.41,9.29-.71,13.17.12,7.48,1.81,14.17,4.59,21.49,6.37,13.97,3.75,28.22,6.75,42.39,9.46,13.28,2.46,27.2,6.07,39.93,8.52,4.09.73,6.74,1.16,10.11.85.37.02.33.15.16.79-.17.52-.17,1.37.03,1.65.18.31.36.13.35-.22-.27-1.85-1.45-3.55-2.72-5.26-1.99-2.55-4.47-5-7.14-7.22-10.82-9.03-23.96-15.28-36.52-21.6h0Z"/><g id="Leaves-2"><path class="cls-32" d="M846.41,274.91c.03-1.64.61-2.9,2.36-3.41.58-.17,1.12-.51,1.78-.83-.43,2.52-1.91,4-4.14,4.24Z"/><path class="cls-24" d="M894.74,214.81c-.97,3.73-2.83,6.2-6.72,6.08-1.28-.04-2.58.35-4.12.58,2.27-5.47,6.13-7.76,10.84-6.66Z"/><path class="cls-27" d="M822.55,390.58c1.59,4.41,1.41,8.18-2.58,10.73-1.32.84-2.35,2.12-3.75,3.41-1.47-7.06.83-12.01,6.33-14.14Z"/><path class="cls-32" d="M750.51,228.73c-.28,1.65-.99,2.78-2.68,2.87-.55.03-1.1.25-1.76.4.78-2.44,2.36-3.58,4.43-3.28Z"/><path class="cls-25" d="M814.45,266.77c3.2,2.32,4.94,5.12,3.59,9.06-.45,1.3-.49,2.77-.77,4.44-4.42-4.28-5.36-9.06-2.82-13.5Z"/><path class="cls-32" d="M749.76,399.85c4.02-.52,7.28.35,9.07,4.27.59,1.29,1.59,2.43,2.57,3.87-6.31-.08-10.38-3.01-11.64-8.14Z"/><path class="cls-32" d="M733.96,301.31c2.69-1.38,5.02-1.75,6.71.06.55.6,1.38.99,2.21,1.57-4.32,1.64-7.45,1.03-8.92-1.63Z"/><path class="cls-32" d="M683.2,140.49c2.54-1.65,5.02-2.11,7.48-.05.81.68,1.86,1.12,2.98,1.78-4.28,1.98-7.96,1.32-10.46-1.73Z"/><path class="cls-25" d="M863.09,179.96c.4-2.97,1.65-5.12,4.77-5.63,1.03-.17,2.02-.66,3.23-1.07-1.28,4.48-4.13,6.81-8,6.71Z"/><path class="cls-26" d="M756.41,331.26c3.78,1.4,6.16,3.61,5.62,7.65-.18,1.33.09,2.72.16,4.35-5.45-2.95-7.43-7.21-5.78-12Z"/><path class="cls-4" d="M840.19,328.56c-.11-3.09.76-5.41,3.78-6.2.99-.26,1.9-.86,3.04-1.38-.5,4.72-2.94,7.36-6.81,7.59Z"/><path class="cls-25" d="M841.71,368.58c-.43-2.65.08-4.83,2.62-6.08.84-.41,1.57-1.1,2.49-1.76.07,4.18-1.77,6.92-5.12,7.84Z"/><path class="cls-13" d="M805.22,306.42c.13-2.95,1.15-5.18,4.16-5.96.99-.26,1.92-.83,3.07-1.35-.84,4.51-3.42,7.06-7.23,7.31Z"/><path class="cls-26" d="M803.82,88.98c-.64,2.19-1.79,3.62-4.09,3.47-.76-.05-1.53.16-2.45.27,1.45-3.19,3.77-4.48,6.54-3.74Z"/><path class="cls-27" d="M687.13,210.47c2.43.38,4.11,1.4,4.28,3.87.06.81.38,1.61.63,2.58-3.61-1.09-5.31-3.39-4.91-6.45Z"/><path class="cls-27" d="M866.5,140.61c.27,3.11-.49,5.51-3.49,6.46-.99.32-1.88.96-2.99,1.56.26-4.79,2.58-7.59,6.49-8.02Z"/><path class="cls-4" d="M812.97,218.44c-.75,1.58-1.8,2.51-3.52,2.12-.57-.13-1.18-.07-1.88-.1,1.49-2.24,3.4-2.92,5.4-2.02Z"/><path class="cls-10" d="M754.13,64.95c2.29-.25,4.13.28,5.09,2.51.32.73.87,1.39,1.4,2.21-3.58-.12-5.85-1.81-6.49-4.72Z"/><path class="cls-3" d="M738.19,198.94c1.41.21,2.43.82,2.65,2.32.07.49.3.97.49,1.56-2.12-.64-3.22-2.02-3.15-3.87Z"/><path class="cls-25" d="M714.51,126.75c-1.52-.07-2.67-.6-3.07-2.15-.13-.51-.43-.99-.69-1.58,2.32.44,3.63,1.77,3.76,3.73Z"/><path class="cls-27" d="M751.24,114.82c1.44.48,2.4,1.31,2.35,2.91-.01.53.14,1.07.23,1.71-2.11-1.06-3-2.71-2.58-4.63Z"/><path class="cls-26" d="M861.42,189.89c-5.58-.09-9.69-1.88-10.84-7.39-.38-1.82-1.37-3.51-2.22-5.61,8.47,1.34,13.01,5.99,13.06,13Z"/><path class="cls-27" d="M726.83,365.79c-5.56.47-9.83-.89-11.53-6.26-.56-1.77-1.71-3.36-2.77-5.35,8.56.48,13.55,4.64,14.3,11.62Z"/><path class="cls-4" d="M744.3,91.54c-3.15.73-5.71.31-7.13-2.63-.47-.97-1.26-1.78-2.03-2.84,4.94-.44,8.15,1.53,9.16,5.46Z"/><path class="cls-32" d="M784.04,48.15c-.19-3.12.7-5.6,3.96-6.84,1.07-.41,2.04-1.14,3.26-1.84-.44,4.86-3.02,7.9-7.21,8.68Z"/><path class="cls-3" d="M763.91,44.73c1.68-.16,3.04.27,3.77,2,.24.57.66,1.08,1.06,1.72-2.63-.14-4.32-1.47-4.83-3.72Z"/><path class="cls-25" d="M809.62,116.25c.33-2.79,1.47-4.84,4.38-5.36.96-.17,1.89-.65,3.02-1.06-1.13,4.23-3.77,6.46-7.4,6.42Z"/><path class="cls-13" d="M818.62,49.23c-.56,4.68-2.46,8.1-7.35,8.99-1.61.29-3.17,1.09-5.06,1.77,1.89-7.08,6.31-10.82,12.4-10.76Z"/></g><g id="Back_categ"><path class="cls-29" d="M786.73,63.01c-.5,1.01-2.59.77-3.54.7-3.74-.39-7.34-1.65-10.62-3.51-1.31-.76-4.9-3.08-2.94-4.75,1.23-.85,3.5-.51,4.89-.3,3.34.62,6.51,1.95,9.22,3.99.9.7,3.45,2.62,3,3.86h0ZM786.59,62.95c.2-.76-.66-1.46-1.18-1.9-1.3-.98-2.82-1.61-4.32-2.22-2.24-.88-4.53-1.72-6.87-2.27-.94-.22-3.28-.71-3.99-.07-.07.9,2.09,2.39,2.84,2.88,2.87,1.83,7.96,4.06,11.36,4.27.7,0,1.8.03,2.16-.68h0Z"/><path class="cls-6" d="M777.17,68.95l-4.5-10.03c-.34-.76-.18-1.65.41-2.25l4.41-4.46c.78-.79,2.06-.8,2.86-.02l4.46,4.41c.59.59.77,1.48.43,2.24l-4.37,10.09c-.7,1.61-2.98,1.63-3.7.02Z"/><g class="cls-15"><path class="cls-29" d="M786.73,63.01c-.5,1.01-2.59.77-3.54.7-3.74-.39-7.34-1.65-10.62-3.51-1.31-.76-4.9-3.08-2.94-4.75,1.23-.85,3.5-.51,4.89-.3,3.34.62,6.51,1.95,9.22,3.99.9.7,3.45,2.62,3,3.86h0ZM786.59,62.95c.2-.76-.66-1.46-1.18-1.9-1.3-.98-2.82-1.61-4.32-2.22-2.24-.88-4.53-1.72-6.87-2.27-.94-.22-3.28-.71-3.99-.07-.07.9,2.09,2.39,2.84,2.88,2.87,1.83,7.96,4.06,11.36,4.27.7,0,1.8.03,2.16-.68h0Z"/></g><path class="cls-28" d="M788.36,80.68c.3,1.09-1.43,2.3-2.19,2.87-3.06,2.19-6.6,3.62-10.28,4.4-1.49.3-5.71.94-5.35-1.61.36-1.45,2.28-2.7,3.47-3.46,2.91-1.74,6.17-2.85,9.55-3.12,1.14-.07,4.32-.33,4.8.91h0ZM788.23,80.73c-.36-.7-1.46-.66-2.14-.64-1.62.12-3.18.66-4.7,1.2-2.26.82-4.53,1.72-6.65,2.85-.85.46-2.93,1.64-3.04,2.59.54.72,3.15.41,4.03.27,3.36-.53,8.65-2.22,11.33-4.32.53-.47,1.38-1.17,1.17-1.95h0Z"/><path class="cls-6" d="M781.41,78.56l4.26,9.28c.67,1.46-.38,3.13-1.99,3.15l-8.24.13c-1.61.02-2.71-1.61-2.08-3.09l3.98-9.41c.75-1.78,3.26-1.82,4.07-.06Z"/><g class="cls-16"><path class="cls-28" d="M788.36,80.68c.3,1.09-1.43,2.3-2.19,2.87-3.06,2.19-6.6,3.62-10.28,4.4-1.49.3-5.71.94-5.35-1.61.36-1.45,2.28-2.7,3.47-3.46,2.91-1.74,6.17-2.85,9.55-3.12,1.14-.07,4.32-.33,4.8.91h0ZM788.23,80.73c-.36-.7-1.46-.66-2.14-.64-1.62.12-3.18.66-4.7,1.2-2.26.82-4.53,1.72-6.65,2.85-.85.46-2.93,1.64-3.04,2.59.54.72,3.15.41,4.03.27,3.36-.53,8.65-2.22,11.33-4.32.53-.47,1.38-1.17,1.17-1.95h0Z"/></g><path class="cls-10" d="M787.44,109.58c-.5,1.01-2.59.77-3.54.7-3.74-.39-7.34-1.65-10.62-3.51-1.31-.76-4.9-3.08-2.94-4.75,1.23-.85,3.5-.51,4.89-.3,3.34.62,6.51,1.95,9.22,3.99.9.7,3.45,2.62,3,3.86h0ZM787.31,109.53c.2-.76-.66-1.46-1.18-1.9-1.3-.98-2.82-1.61-4.32-2.22-2.24-.88-4.53-1.72-6.87-2.27-.94-.22-3.28-.71-3.99-.07-.07.9,2.09,2.39,2.84,2.88,2.87,1.83,7.96,4.06,11.36,4.27.7,0,1.8.03,2.16-.68h0Z"/><path class="cls-6" d="M777.89,115.52l-4.5-10.03c-.34-.76-.18-1.65.41-2.25l4.41-4.46c.78-.79,2.06-.8,2.86-.02l4.46,4.41c.59.59.77,1.48.43,2.24l-4.37,10.09c-.7,1.61-2.98,1.63-3.7.02Z"/><g class="cls-22"><path class="cls-10" d="M787.44,109.58c-.5,1.01-2.59.77-3.54.7-3.74-.39-7.34-1.65-10.62-3.51-1.31-.76-4.9-3.08-2.94-4.75,1.23-.85,3.5-.51,4.89-.3,3.34.62,6.51,1.95,9.22,3.99.9.7,3.45,2.62,3,3.86h0ZM787.31,109.53c.2-.76-.66-1.46-1.18-1.9-1.3-.98-2.82-1.61-4.32-2.22-2.24-.88-4.53-1.72-6.87-2.27-.94-.22-3.28-.71-3.99-.07-.07.9,2.09,2.39,2.84,2.88,2.87,1.83,7.96,4.06,11.36,4.27.7,0,1.8.03,2.16-.68h0Z"/></g><path class="cls-23" d="M789.08,127.25c.3,1.09-1.43,2.3-2.19,2.87-3.06,2.19-6.6,3.62-10.28,4.4-1.49.3-5.71.94-5.35-1.61.36-1.45,2.28-2.7,3.47-3.46,2.91-1.74,6.17-2.85,9.55-3.12,1.14-.07,4.32-.33,4.8.91h0ZM788.94,127.3c-.36-.7-1.46-.66-2.14-.64-1.62.12-3.18.66-4.7,1.2-2.26.82-4.53,1.72-6.65,2.85-.85.46-2.93,1.64-3.04,2.59.54.72,3.15.41,4.03.27,3.36-.53,8.65-2.22,11.33-4.32.53-.47,1.38-1.17,1.17-1.95h0Z"/><path class="cls-6" d="M782.13,125.14l4.26,9.28c.67,1.46-.38,3.13-1.99,3.15l-8.24.13c-1.61.02-2.71-1.61-2.08-3.09l3.98-9.41c.75-1.78,3.26-1.82,4.07-.06Z"/><g class="cls-19"><path class="cls-23" d="M789.08,127.25c.3,1.09-1.43,2.3-2.19,2.87-3.06,2.19-6.6,3.62-10.28,4.4-1.49.3-5.71.94-5.35-1.61.36-1.45,2.28-2.7,3.47-3.46,2.91-1.74,6.17-2.85,9.55-3.12,1.14-.07,4.32-.33,4.8.91h0ZM788.94,127.3c-.36-.7-1.46-.66-2.14-.64-1.62.12-3.18.66-4.7,1.2-2.26.82-4.53,1.72-6.65,2.85-.85.46-2.93,1.64-3.04,2.59.54.72,3.15.41,4.03.27,3.36-.53,8.65-2.22,11.33-4.32.53-.47,1.38-1.17,1.17-1.95h0Z"/></g><path class="cls-4" d="M788.16,156.16c-.5,1.01-2.59.77-3.54.7-3.74-.39-7.34-1.65-10.62-3.51-1.31-.76-4.9-3.08-2.94-4.75,1.23-.85,3.5-.51,4.89-.3,3.34.62,6.51,1.95,9.22,3.99.9.7,3.45,2.62,3,3.86h0ZM788.02,156.1c.2-.76-.66-1.46-1.18-1.9-1.3-.98-2.82-1.61-4.32-2.22-2.24-.88-4.53-1.72-6.87-2.27-.94-.22-3.28-.71-3.99-.07-.07.9,2.09,2.39,2.84,2.88,2.87,1.83,7.96,4.06,11.36,4.27.7,0,1.8.03,2.16-.68h0Z"/><path class="cls-6" d="M778.61,162.1l-4.5-10.03c-.34-.76-.18-1.65.41-2.25l4.41-4.46c.78-.79,2.06-.8,2.86-.02l4.46,4.41c.59.59.77,1.48.43,2.24l-4.37,10.09c-.7,1.61-2.98,1.63-3.7.02Z"/><g class="cls-18"><path class="cls-4" d="M788.16,156.16c-.5,1.01-2.59.77-3.54.7-3.74-.39-7.34-1.65-10.62-3.51-1.31-.76-4.9-3.08-2.94-4.75,1.23-.85,3.5-.51,4.89-.3,3.34.62,6.51,1.95,9.22,3.99.9.7,3.45,2.62,3,3.86h0ZM788.02,156.1c.2-.76-.66-1.46-1.18-1.9-1.3-.98-2.82-1.61-4.32-2.22-2.24-.88-4.53-1.72-6.87-2.27-.94-.22-3.28-.71-3.99-.07-.07.9,2.09,2.39,2.84,2.88,2.87,1.83,7.96,4.06,11.36,4.27.7,0,1.8.03,2.16-.68h0Z"/></g><path class="cls-3" d="M789.8,173.83c.3,1.09-1.43,2.3-2.19,2.87-3.06,2.19-6.6,3.62-10.28,4.4-1.49.3-5.71.94-5.35-1.61.36-1.45,2.28-2.7,3.47-3.46,2.91-1.74,6.17-2.85,9.55-3.12,1.14-.07,4.32-.33,4.8.91h0ZM789.66,173.88c-.36-.7-1.46-.66-2.14-.64-1.62.12-3.18.66-4.7,1.2-2.26.82-4.53,1.72-6.65,2.85-.85.46-2.93,1.64-3.04,2.59.54.72,3.15.41,4.03.27,3.36-.53,8.65-2.22,11.33-4.32.53-.47,1.38-1.17,1.17-1.95h0Z"/><path class="cls-6" d="M782.85,171.71l4.26,9.28c.67,1.46-.38,3.13-1.99,3.15l-8.24.13c-1.61.02-2.71-1.61-2.08-3.09l3.98-9.41c.75-1.78,3.26-1.82,4.07-.06Z"/><g class="cls-21"><path class="cls-3" d="M789.8,173.83c.3,1.09-1.43,2.3-2.19,2.87-3.06,2.19-6.6,3.62-10.28,4.4-1.49.3-5.71.94-5.35-1.61.36-1.45,2.28-2.7,3.47-3.46,2.91-1.74,6.17-2.85,9.55-3.12,1.14-.07,4.32-.33,4.8.91h0ZM789.66,173.88c-.36-.7-1.46-.66-2.14-.64-1.62.12-3.18.66-4.7,1.2-2.26.82-4.53,1.72-6.65,2.85-.85.46-2.93,1.64-3.04,2.59.54.72,3.15.41,4.03.27,3.36-.53,8.65-2.22,11.33-4.32.53-.47,1.38-1.17,1.17-1.95h0Z"/></g><path class="cls-1" d="M788.2,199.14c-.25.85-1.91.94-2.66,1.01-2.95.19-5.91-.31-8.69-1.32-1.12-.42-4.21-1.74-2.91-3.3.84-.82,2.65-.86,3.75-.87,2.67.04,5.3.65,7.67,1.88.79.43,3.02,1.57,2.83,2.6h0ZM788.09,199.12c.05-.62-.7-1.04-1.17-1.31-1.13-.59-2.4-.88-3.64-1.15-1.85-.39-3.74-.73-5.62-.85-.76-.04-2.64-.12-3.11.47.06.71,1.94,1.58,2.58,1.85,2.47,1.04,6.7,2.1,9.37,1.81.54-.09,1.4-.21,1.59-.82h0Z"/><path class="cls-6" d="M784.69,195.2l.77,1.68c1.22,2.65-.69,5.68-3.61,5.73l-1.49.02c-2.92.04-4.92-2.93-3.79-5.62l.72-1.7c1.37-3.24,5.93-3.31,7.4-.11Z"/><g class="cls-20"><path class="cls-1" d="M788.2,199.14c-.25.85-1.91.94-2.66,1.01-2.95.19-5.91-.31-8.69-1.32-1.12-.42-4.21-1.74-2.91-3.3.84-.82,2.65-.86,3.75-.87,2.67.04,5.3.65,7.67,1.88.79.43,3.02,1.57,2.83,2.6h0ZM788.09,199.12c.05-.62-.7-1.04-1.17-1.31-1.13-.59-2.4-.88-3.64-1.15-1.85-.39-3.74-.73-5.62-.85-.76-.04-2.64-.12-3.11.47.06.71,1.94,1.58,2.58,1.85,2.47,1.04,6.7,2.1,9.37,1.81.54-.09,1.4-.21,1.59-.82h0Z"/></g></g></g></svg>