<?xml version="1.0" encoding="UTF-8"?><svg id="Layer_2" xmlns="http://www.w3.org/2000/svg" xmlns:xlink="http://www.w3.org/1999/xlink" viewBox="0 0 961.44 702.72"><defs><style>.cls-1{fill:#2b2331;}.cls-1,.cls-2,.cls-3,.cls-4,.cls-5,.cls-6,.cls-7,.cls-8,.cls-9,.cls-10,.cls-11,.cls-12,.cls-13,.cls-14,.cls-15,.cls-16,.cls-17,.cls-18,.cls-19,.cls-20,.cls-21,.cls-22,.cls-23,.cls-24,.cls-25,.cls-26,.cls-27{stroke-width:0px;}.cls-2{fill:#eba240;}.cls-3{fill:#db484f;}.cls-28{clip-path:url(#clippath);}.cls-4{fill:none;}.cls-29{letter-spacing:.02em;}.cls-5{fill:#dc494f;}.cls-6{fill:#7ca08f;}.cls-7{fill:#506358;}.cls-8{fill:#72907c;}.cls-9{fill:#f4ca7b;}.cls-30{fill:#170f1d;font-family:Poppins-Bold, Poppins;font-size:73.78px;font-weight:700;}.cls-10{fill:#a2b189;}.cls-11{fill:#ad3b3a;}.cls-12{fill:#3f3b44;}.cls-13{fill:#eca849;}.cls-14{fill:#cb3e40;}.cls-15{fill:#f4d97d;}.cls-16{fill:#f7ebb6;}.cls-17{fill:#f7f2da;}.cls-31{letter-spacing:-.01em;}.cls-18{fill:#44404a;}.cls-32{opacity:.5;}.cls-33{opacity:.7;}.cls-19{fill:#170f1d;}.cls-20{fill:#f4ce80;}.cls-21{fill:#aea87b;}.cls-22{fill:#f5da7d;}.cls-23,.cls-34{fill:#f8f2db;}.cls-24{fill:#265b57;}.cls-25{fill:#39333e;}.cls-35{letter-spacing:0em;}.cls-26{fill:#bb3530;}.cls-27{fill:#251c2d;}.cls-34{font-family:BodegaSans-Medium, 'Bodega Sans';font-size:19.42px;font-weight:500;}</style><clipPath id="clippath"><rect id="_mask_" class="cls-4" width="961.44" height="702.72"/></clipPath></defs><g id="Hero"><g class="cls-28"><path class="cls-23" d="M709.13,212.89c36.09,100.01,36.64,254.56-49.73,330.05-14.77,12.61-31.77,22.17-49.32,30.19-35.69,16.78-77.26,16.64-115.66,13.89-76.03-7-151.23-29.41-216.65-69.02-30.9-18.94-59.41-42.29-83.17-69.8-37.76-42.97-56.48-97.63-34.62-153.26,37.43-96.1,160.33-198.14,253.22-232.77,29.73-10.71,77.69,4.45,109.24,3.55,95.43-2.63,156.3,62.19,186.69,147.16h0Z"/><path class="cls-22" d="M513.89,56.73c77.37,62.19,152.68,184.82,119.99,286.34-5.73,17.12-14.73,32.89-24.91,47.7-20.49,30.49-53.88,50.35-86,66.61-64.35,30.95-135.5,49.26-207.13,49.2-33.95-.22-68.11-5.09-100.49-15.55-51.08-16.03-92.57-50.5-101.99-105.24-16.54-94.4,32.58-234.59,90.28-306.75,18.65-22.8,64.45-33.78,89.31-49.65,75.24-47.94,155.43-25.63,220.96,27.34h0ZM390.24,5.62c-38.21-2.28-74.6,12.23-104.49,35.33-19.76,14.9-36.32,33.48-51.82,52.66-15.53,19.39-23,51.2-36.85,71.85-33.89,51.71-72.78,95.78-81.29,157.87-5.02,36.2-.13,75.87,22.75,105.23,41.6,52.58,118.8,21.4,181.61,22.31,49.13.35,94.69,34.95,142.68,23.4,51.05-13.04,90.51-42.8,123.1-86.25,16.69-23.44,40.08-43.17,45.09-71.2,16.89-101.79-93.28-183.02-132.81-226-23.28-25.31-62.5-82.81-107.97-85.2Z"/><text class="cls-30" transform="translate(379.79 235.6)"><tspan x="0" y="0">‘24</tspan></text><text class="cls-30" transform="translate(277.87 203.49)"><tspan x="0" y="0">12.</tspan></text><text class="cls-30" transform="translate(350.85 172.25)"><tspan x="0" y="0">10.</tspan></text><rect class="cls-5" x="285.7" y="212.92" width="63.7" height="10.88"/><path class="cls-27" d="M473.41,547.14c-1.76,5.06-7.18,11.59-.85,15.62,7.93,5.05,28.28,4.71,37.94,4.27,13.97-.64,28.09-2.53,42.08-1.9,2.35.06,4.7.1,7.04.04,2.38-.1,4.8-.04,7.14.43,12.11,2.36,21.24,12.52,25.99,23.49,2.91,6.83,3.8,14.33,3.63,21.7-.25,9.19-2.37,18.41-6.75,26.52-8.45,15-29.77,29.27-45.21,36.46-7.16,3.17-18.4,6.8-24.72.25-1.87-2-2.8-4.71-3.08-7.34-.39-2.39.32-8.33.45-10.82,2.22-27.87,3.02-56.27-2.7-83.78-2.71-12.13-8-29.45-19.41-35.91-9.66-5.22-18.37,1.67-21.57,10.97h0ZM473.24,547.08c4.7-13.33,17.22-17.69,27.55-6.98,8.11,8.56,11.94,20.49,14.75,31.71,4.29,18.35,5.51,37.27,5.71,56.06.04,9.41,0,18.82-.51,28.22-.12,2.16-.3,4.87-.45,7.02-.14,2.17-.04,4.33.56,6.23,1.31,4.38,5.44,5.79,9.68,5.76,4.52-.01,9.08-1.17,13.38-2.66,4.38-1.54,8.62-3.55,12.63-5.95,11.75-7.1,25.27-19.39,29.91-32.52,3.53-10.64,3.9-22.16,2.41-33.2-1.74-11.79-3.97-26.15-15.64-32.22-4.15-2.15-8.92-2.4-13.48-1.77-4.67.5-9.32,1.37-13.99,1.89-16.4,1.47-32.93.34-49.32-.69-6.57-.61-23.15-1.53-26.4-7.61-2.14-4.19,1.93-9.31,3.22-13.29h0Z"/><path class="cls-27" d="M634.75,670.9c-2.66,4.36-6.27,8.07-11.03,3.6-2.94-2.84-5.07-6.29-7.45-9.51-7.52-10.78-16.59-20.6-27.66-27.78-15.38-10.17-33.45-15.08-51.34-18.67-8.15-1.65-16.92-3.68-25.2-4.46-10.39-.76-19.03-7.79-24.1-16.61-5.05-8.32-7.12-18.32-6.27-28,.81-11.02,4.45-21.92,11.01-30.86,2.47-3.3,5.48-6.19,8.61-8.78,6.14-5.16,13.2-9.1,20.26-12.79,9.43-4.86,19.42-9.28,30.09-10.38,7.51-.72,15.79,1.29,17.08,9.92.39,2.55.08,5.02-.47,7.49-3.64,16.93-6.21,34.3-4.78,51.64,6.17,79.14,85.1,71.32,71.25,95.2h0ZM632.6,669.58c2.23-3.55,1.38-6.25-1.63-8.94-4.51-3.9-11.4-7.17-16.62-10.19-13.89-7.66-27.24-17.11-36.66-30.08-19.38-26.3-19.46-61.26-14.01-92.19.43-2.52,1.1-5.11,1.46-7.64.69-5.1-.78-9.16-5.92-10.75-6.9-2.09-15.92-.11-22.71,1.94-11.3,3.47-21.81,9.44-30.56,17.38-3.79,3.43-7.31,7.28-9.84,11.73-5.31,9.9-7.34,21.72-7.61,32.85.02,12.19.05,27.06,10.84,35.06,3.43,2.49,7.66,3.62,11.85,3.74.56.03,2.37.09,2.97.13,9.27.38,18.69.69,27.78,2.84,29.94,6.59,57.09,24.2,75.77,48.44,2.47,3.01,4.72,6.28,7.56,8.87.8.7,1.71,1.33,2.69,1.33.93-.07,1.8-.76,2.47-1.51.8-.87,1.5-1.92,2.17-3.01h0Z"/><path class="cls-27" d="M596.26,512.77c-2.11,7.8.27,15.74,4.49,22.45,6.29,10.49,16.13,18.35,21.63,29.42,1.83,3.83,2.76,8.26,2.19,12.53-.48,3.3-1.48,6.66-3.57,9.28-4.94,6.03-12.97,7.69-20.32,8.34-6.09.64-12.22.77-18.32.5-8.23-.26-16.3-.41-24.61-.12-14.19.56-25.32-.44-37.53-8.58-10.96-7.13-19.02-19.47-13.05-32.53,1.43-3.05,3.19-5.56,5.41-7.88,3.78-3.82,7.53-7.7,11.12-11.69,12.01-13.75,21.68-29.28,33.56-43.24,5.09-6.4,10.69-12.37,17.14-17.43,3.21-2.55,6.47-5.08,10.12-7.11,4.57-2.58,11.42-4.94,14.74.77.56.95.94,1.97,1.22,2.98,1.08,4.04.86,8.18.65,12.28-.63,10.14-2.4,20.21-4.87,30.05h0ZM594.29,512.28c2.36-9.78,5.03-19.56,5.82-29.61.25-4.47.21-10.56-2.16-14.39-4.01-6.2-13.04.71-17.08,3.86-4.51,3.57-8.84,8.4-12.92,12.5-5.6,5.68-11.42,11.51-16.64,17.51-8.02,9.08-15.92,18.34-22.72,28.39-3.82,6.01-7.09,12.37-10.1,18.83-.27.63-.94,1.96-1.2,2.62-1.3,3.06-1.98,6.16-1.34,9.34,1.63,7.26,10.4,12.1,16.77,15.41,5.04,2.4,10.14,5.06,15.17,7.76,6.98,3.82,14.49,7.52,22.42,9,7.93,1.6,16.12,1.37,24.09.3,2.98-.38,5.92-1.01,8.79-1.9,2.78-.87,5.58-1.97,8.16-3.22,3.24-1.6,6.42-3.53,8.1-6.77,9.05-18.15-10.64-32.4-19.65-46.06-4.85-6.97-7.72-15.05-5.52-23.55h0Z"/><path class="cls-27" d="M585.41,605.05c-2.14,20.19-15.66,49.12-35.02,57.74-5.47,2.64-11.59,2.95-17.54,2.61-5.87-.09-11.55-2.08-16.78-4.54-3.5-1.62-6.91-3.46-10.21-5.48-13.31-8.19-25.61-18.59-34.09-31.87-5.29-8.44-9.1-17.99-10.45-27.92-1.43-10.36,1.78-20.72,9.77-27.61,8.91-7.77,20.55-10.89,31.84-13.31,11.36-2.36,23.03-3.01,34.62-2.59,3.89.2,7.79.57,11.6,1.44,3.82.89,7.59,2.06,11.22,3.56,20.17,8.17,27.29,27.4,25.05,47.96h0ZM583.73,604.87c1.7-15.45-.4-31.17-14.2-40.53-4.66-3.15-9.98-5.23-15.45-6.48-3.67-.8-7.4-1.21-11.13-1.62-9.43-1.05-18.93-1.8-28.43-1.39-34.87.7-61.62,18.54-42.24,55.24,10.94,19.61,31.14,50.02,54.95,53.42,7.47,1.18,14.76-1.63,21.59-4.34,22.86-9.79,32.55-30.65,34.92-54.31h0Z"/><path class="cls-27" d="M463.46,384.1c-6.1-6.32-11.03-13.89-1.41-19.98,5.94-3.69,13.31-6.09,19.76-8.73,13.22-5.14,26.16-11.04,38.13-18.69,36.5-22.61,60.69-59.66,78.8-97.71,6.13-12.75,12.43-25.44,17.41-38.73.87-2.23,1.57-4.46,2.5-6.69,6.49-16,21.83-26.45,38.22-30.5,16.66-4.47,34.65-3.17,50.89,2.49,18.57,6.28,35.83,17.11,48.5,32.16,7.7,9.44,12.88,20.55,17.13,31.85,8.76,25.46,18.19,65.36,10.33,91.43-3.25,10.58-10.7,18.83-22.61,17.43-4.49-.49-8.59-2.13-12.54-4.14-36.14-18.15-75.11-33.14-115.99-34.09-115.12-2.61-137.42,115.57-169.13,83.9h0ZM465.92,381.73c5.37,5.67,10.73,5.43,16.97,1.24,5.76-3.91,10.6-9.12,15.44-14.12,22.33-24.38,46.96-48.48,78.33-60.6,54.37-21.75,115.01-5.87,166.12,17.64,2.16,1.01,4.31,2.05,6.45,3.09l3.17,1.56c1.01.5,2.03.94,3.06,1.35,5.83,2.38,12.82,3.21,17.95-1.04,9.62-7.98,11-26.69,11.04-38.49-.15-23.59-5.83-47.16-16.5-68.19-3.15-6.23-6.81-12.24-11.18-17.68-5.75-7.18-13.12-12.81-20.86-17.68-19.47-12.06-41.85-18.99-64.54-21.47-13.65-1.41-28.62.46-39.46,9.59-5.87,4.88-9.85,11.69-12.03,18.94-.31.95-1.26,4.07-1.59,5.1-4.98,15.88-10.12,31.91-17.87,46.73-22.58,44.66-59.51,82.2-104.71,103.95-8.48,4.21-17.38,7.74-25.91,11.73-2.1,1.01-4.17,2.07-6.01,3.33-1.66,1.13-3.29,2.51-3.76,4.38-.38,1.82.51,3.78,1.58,5.39,1.19,1.83,2.71,3.56,4.31,5.21h0Z"/><g id="Mountains"><path id="y-5" class="cls-3" d="M583.97,391.28s-1.71,3.46-1.46-1.74c.17-3.53-6.32-9.87-7.98-13.11-1.43-2.8-3.04-3.97-5.94-4.28-2.04-.22-10.82,19.8-12.77,19.22-1.37-.41,3.99-21.48,2.59-21.76-2.21-.45-4.47-.59-6.72-.42-5.31.37-8.67.79-12.23,3.87-2.1,1.82-7.91,17.26-11.83,8.82-4.39-9.46,1.76-39.45-5.27-45.54-2.23-1.97-4.29-4.12-6.17-6.43-2.33-2.8-4.92-3.69-7.94-2.73-2.8.9-5.64,1.89-8.38,2.85-4.37,1.52-18.11,45.8-19.55,20.69-.22-3.89-2.47-14.14-6.78-14.83-8.57-1.36-15.26-.48-21.7,2.86-5.52,2.86-11.51,4.99-17.3,7.04-.95.34-1.9.67-2.85,1.01-3.13,1.12-9.83,16.5-12.23,16.05-2.67-.5-1.06-17.02-3.55-19.56-5.67-5.77-12.29-10.85-18.73-15.76-2.07-1.58-4.21-3.22-6.29-4.86-1.41-1.05-3.08-1.69-4.82-1.86-.64-.06-1.28-.13-1.91-.21-6.77-.85-12.14-3.54-18.37-5-3.23-.76-13.68,18.66-16.16,18.58-7.36-.24-3.33-28.6-8.31-32.63-3.05-2.46-6.2-1.4-10.07.05-3.68,1.38-7.76,1.8-10.96,1.12-1.94-.41-16.36,23.48-18.24,22.9-6.38-1.94.07-28.26-6.18-23.57-.95.71-4.71,2.65-6.47,2.98-9.18,1.73-14.06,2.31-21.28,8.3-5.25,4.36-10.2,8.88-14.52,5.1-.64-.57-2.42-6.28-2.07-6.47,1.34-.71,2.89.5,3.35.9,3.62,3.17,7.58,2.88,12.12-.89,7.5-6.22,15.82-9.72,25.47-10.73.72-.07,1.8-.19,2.36-.6,6.97-5.23,13.71-3.18,20.24-1.19,1.84.56,3.75,1.14,5.62,1.54,2.88.61,6.61.22,9.97-1.04,4.44-1.67,8.13-1.86,11.68.99,4.76,3.84,9.24,8.48,16.01,8.7,2.88.09,5.8,1.63,8.53,3.26,5.76,3.46,12.11,5.47,19.4,6.14,2.09.2,4.08.97,5.76,2.23,2.07,1.63,4.2,3.26,6.27,4.85,6.47,4.95,13.15,10.06,18.91,15.93,4.87,4.95,9.08,4.82,13.91,3.08.95-.34,1.91-.68,2.87-1.02,5.73-2.04,11.67-4.14,17.08-6.95,6.79-3.52,13.83-4.46,22.79-3.04,3.98.63,8.58-.44,12.15-1.44,4.49-1.26,8.97-2.83,13.32-4.34,2.75-.96,5.6-1.95,8.42-2.86,3.72-1.2,7.04-.09,9.84,3.28,1.81,2.23,3.81,4.31,5.96,6.22,7.25,6.28,12.74,14.15,16.79,24.07.94,2.23,2.18,4.32,3.68,6.22,1.77,2.29,4.01,2.95,7.29,2.17,2.48-.58,5.37-.01,7.48.41,1.48.3,2.94.74,4.34,1.17,1.94.59,3.78,1.15,5.68,1.36,3.49.38,5.62,1.9,7.32,5.24,1.58,3.09,3.58,5.95,5.94,8.5,2.23,2.39,2.78,4.46,1.9,7.16Z"/><path id="y-5-2" class="cls-10" d="M780.98,394.96s-.46,12.87-1.76,3.21c-1.68-12.54-12.54-9.47-16.12-12.78-3.1-2.85-5.67-3.58-9.46-2.63-2.67.67-4.42,5.02-7.13,5.19-1.91.11-5.78-2.38-7.67-2.08-2.99.46-5.08-.25-7.83,1-6.5,2.94-9.08,6.56-12.13,12.08-1.79,3.26-14.14,14.3-22.99,5.51-9.92-9.85-5.36-40.87-17.03-45.26-3.72-1.45-7.31-3.19-10.74-5.22-4.23-2.44-7.91-2.36-11.26.26-3.11,2.44-6.21,5-9.22,7.48-4.79,3.95-1.48,66.01-14.97,35.1-2.09-4.78-9.68-16.64-15.41-15.49-11.41,2.27-19.41,6.49-25.96,13.68-5.61,6.16-12.15,11.62-18.48,16.9-1.04.87-2.08,1.73-3.12,2.6-3.42,2.87-4.7,25.31-7.92,25.86-3.58.62-9.24-20.91-13.55-22.94-9.82-4.62-20.5-7.93-30.88-11.11-3.34-1.03-6.79-2.1-10.17-3.19-2.26-.66-4.65-.7-6.93-.09-.84.22-1.67.43-2.5.63-8.91,2.08-16.91,1.19-25.42,2.25-4.41.55-8.53,29.82-11.68,30.87-9.37,3.12-17.48-34.41-25.62-37.16-4.98-1.68-8.45,1.12-12.63,4.75-3.99,3.45-8.93,5.87-13.27,6.5-2.64.38-9.66,37.12-12.29,37.28-8.93.52-13.05-35.57-18.73-26.76-.86,1.33-4.7,5.52-6.75,6.76-10.74,6.44-16.6,9.44-22.9,20.33-4.58,7.92-8.7,15.9-15.89,13.16-9.02-1.75-5.96-6.78-5.61-7.17,1.35-1.51,3.87-.71,4.63-.42,6.03,2.3,10.87.1,14.83-6.75,6.54-11.3,15.38-19.57,27.04-25.33.87-.43,2.18-1.07,2.69-1.86,6.33-9.82,15.77-10.37,24.89-10.9,2.58-.15,5.24-.31,7.78-.67,3.9-.57,8.41-2.79,12.05-5.94,4.81-4.17,9.36-6.12,15.14-4.18,7.77,2.62,15.57,6.37,24.18,3.5,3.66-1.22,8.05-.65,12.24.14,8.86,1.68,17.77,1.25,27.25-1.29,2.72-.72,5.58-.67,8.28.12,3.36,1.09,6.79,2.15,10.14,3.18,10.43,3.22,21.22,6.54,31.19,11.24,8.42,3.96,13.66,1.83,18.93-2.59,1.04-.87,2.08-1.74,3.13-2.62,6.27-5.23,12.75-10.63,18.24-16.67,6.91-7.58,15.32-12.04,27.25-14.41,5.29-1.06,10.58-4.54,14.61-7.45,5.05-3.67,9.97-7.73,14.73-11.65,3.01-2.49,6.13-5.06,9.26-7.51,4.13-3.24,8.8-3.39,13.9-.45,3.32,1.96,6.79,3.65,10.39,5.05,12.03,4.53,22.59,11.88,32.29,22.46,2.22,2.37,4.75,4.43,7.52,6.12,3.28,2.06,6.41,1.84,10.18-.66,2.85-1.89,6.75-2.51,9.6-2.96,2-.32,4.04-.44,6-.55,2.71-.16,5.29-.31,7.77-.93,4.57-1.14,7.95-.22,11.64,3.19,3.42,3.16,11.76.71,15.91,2.81,3.91,1.97.18,4.71.34,8.52Z"/><path id="y-5-3" class="cls-16" d="M757.43,281.47s-.41,5.15-2.68-1.44c-1.54-4.48-12.77-9.14-16.44-12.37-3.17-2.77-5.76-3.43-9.52-2.38-2.65.74-3.64,30.03-6.35,30.27-1.91.16-5.71-28.73-7.58-28.38-2.98.54-5.86,1.49-8.58,2.81-6.43,3.1-10.4,5.3-13.31,10.89-1.71,3.31-1.27,25.42-10.35,16.86-10.17-9.59-17.4-49.99-29.18-54.09-3.75-1.35-7.39-3.01-10.87-4.95-4.29-2.33-7.96-2.15-11.25.55-3.05,2.51-6.08,5.16-9.02,7.71-4.68,4.07.2,66.03-14.07,35.47-2.21-4.73-10.1-16.38-15.8-15.1-11.34,2.56-19.24,6.98-25.6,14.34-5.45,6.3-11.85,11.93-18.05,17.36-1.02.89-2.04,1.78-3.05,2.67-3.34,2.96-4.05,25.43-7.26,26.05-3.57.71-9.77-20.67-14.13-22.59-9.93-4.37-20.7-7.4-31.15-10.32-3.37-.94-6.84-1.92-10.25-2.93-2.27-.61-4.67-.58-6.93.08-.83.24-1.66.47-2.49.69-8.85,2.3-16.87,1.62-25.36,2.9-4.4.66-11.31,6.37-14.43,7.5-9.28,3.36-14.81-10.3-23.02-12.84-5.02-1.55-8.42,1.34-12.51,5.07-3.9,3.55-8.77,6.1-13.1,6.84-2.63.45-10.11,6.61-12.74,6.83-8.91.75-12.55-4.47-18,4.47-.83,1.35-4.55,5.64-6.58,6.93-10.57,6.71-16.36,9.86-22.37,20.9-4.37,8.03-8.29,16.12-15.55,13.56-1.08-.38-6.13-6.62-5.79-7.03,1.31-1.55,3.85-.81,4.62-.54,6.08,2.15,10.87-.18,14.66-7.13,6.25-11.47,14.87-19.96,26.38-26.01.86-.45,2.15-1.13,2.64-1.92,6.08-9.97,15.5-10.77,24.61-11.53,2.57-.22,5.23-.44,7.76-.87,3.89-.66,8.34-3,11.89-6.25,4.7-4.29,9.2-6.36,15.03-4.56,7.84,2.42,15.72,5.97,24.26,2.88,3.63-1.31,8.03-.85,12.24-.18,8.9,1.45,17.8.8,27.21-1.99,2.7-.79,5.56-.82,8.28-.09,3.39,1,6.84,1.98,10.22,2.92,10.51,2.95,21.38,6,31.46,10.44,8.52,3.74,13.7,1.48,18.86-3.07,1.02-.89,2.04-1.79,3.06-2.69,6.13-5.38,12.47-10.95,17.81-17.13,6.71-7.75,15.01-12.42,26.87-15.1,5.26-1.19,10.47-4.81,14.41-7.82,4.96-3.8,9.77-7.98,14.43-12.02,2.95-2.56,6-5.21,9.07-7.74,4.04-3.34,8.71-3.61,13.88-.8,3.37,1.88,6.88,3.48,10.51,4.79,12.14,4.22,22.89,11.3,32.86,21.63,2.28,2.31,4.86,4.3,7.67,5.93,3.34,1.97,6.45,1.68,10.16-.92,2.8-1.96,6.68-2.68,9.52-3.2,1.99-.37,4.02-.54,5.99-.7,2.7-.23,5.28-.45,7.74-1.13,4.54-1.26,7.94-.42,11.72,2.89,3.5,3.07,7.41,5.64,11.61,7.63,3.96,1.87,5.67,4.17,5.92,7.97Z"/></g><g id="Splashes"><path class="cls-2" d="M658.91,403.34c20.49-2.62,24.25-27.1,35.63-40.54,1.24.03.02,1.38-.13,1.59-2.78,2.74-14.41,27.55-4.95,15.66l-.03.03c12.14-7.38,16.34.02,21.78-17.96,3.68-10.33,9.45-6.05,14.52-11.26,1.69-2.01,1.11-4.41,1.69-6.71.73-2.5,4.55-.77,2.99,1.23-1.83,2.07-1.66,5.01-3.61,7.34,10.52-1.71,16.13-11.02,20.09-19.87,1.27-2.27,8.52-22.08,10.78-16.99.39.86.32,1.87-.12,2.71-4.67,8.92-5.41,19.46-10,28.47-6.1,16.09-25.12,4.88-31.42,19.23-7.73,20.65-13.41,10.56-25.04,22.28-7.97,10.83-18.11,19.76-31.18,23.61,43.97,25.32,63.22-14.73,97.16-22.31,0,0-.02.03-.02.03,6.23-.65,13.13-.31,17.89,2.95.52.35.12,1.15-.47.95-11.75-4.07-25.32-.8-35.02,6.44-1.93,1.68-17.06,8.31-11.26,10.3,3.55,1.39,6.92.82,10.01-1.26,20.39-16.25,29.16,9.98,61.8,2.6,1.42-.32,1.98,1.79.57,2.18-7.77,2.17-27.85.82-35.07-3.27-24.28-14.01-25.08,19.84-47.4,3.05-9.34,5.6-20.56,10.77-31.66,11.14-11.61.38-30.26,12.83-34.32,15.43-6.13-2.1-.7-5.81,6.83-9.42,6.94-3.33,7.14-13.13.34-16.73-.54-.29-1.09-.58-1.63-.89-6.64-.95-13.65.35-20.1-2.75-6.4-3.45-26.21-9.79-25.14-16.37-.8-2.36.6-4.6.4-6.87-1.43-2.66-.82-5.4-.25-8.13,9.05,8.35,16.41,20.21,29.07,23.4-13.03-11.2-19.92-27.38-30.97-40.23-12.72-12.58-29.24-3.02-39.46,7.23-7.98,4.18-20.24,7.01-23.18-3.81,17.3-.51,25.36-13.53,38.55-21.69,27.03-12,38.27,21.86,47.21,40.31,5.47,10.87,10.28,23.95,25.11,18.89Z"/><path class="cls-24" d="M739.4,426.42c2.29-2.44,6.05.74,4,3.39-9.27,11.98-10.79,27.93-17.61,41.37-3.5,7.48-9.32,13.33-17.74,15.22,8.05,3.52,15.97,5.46,24.46,3.68-14.92,8.11-29.29-3.79-42.4-10.02-36.68-21.29-50.27,37.45-80.81,4.05-12.71-14.17-37.88-16.14-52.28-3.28,17.79-31.13,46.06-12.66,66.68,2.98,23.71,14.16,30.43-31.42,60.95-11.55,37.54,22.43,43.15-33.51,54.74-45.85Z"/><path class="cls-26" d="M631.4,469.57c5.53-2.31,10.38-5.61,14.43-10.03,1.84-2.01,3.38-4.27,5.22-6.28,2.35-2.56,4.97-4.5,8.57-5.04,2.96-.44,5.23-2.17,6.69-4.83.84-1.54,1.6-3.13,2.39-4.7.34-.67.68-1.35,1.01-2.02,2-4.03,5.14-6.27,9.74-6.34,2.05-.03,4.1-.25,6.07-.9,3.62-1.2,5.94-3.8,7.6-7.09,2.02-3.99,3.02-8.33,4.27-12.59.38-1.28.76-2.57,1.18-3.84,1.2-3.66,2.18-5.23,5.95-6.54,3.21-1.12,3.55-1.89,6.95-1.93.39,0,2.23.77,3.21,1.56.36.29.09.9-.37.8,0,0,0,0,0,0-2.49-.57-4.71-.02-6.78,1.45-2.27,1.62-3.94,3.75-5.34,6.1-2.13,3.57-3.63,7.44-5.3,11.23-1.66,3.76-3.63,7.31-6.47,10.35-1.63,1.74-3.52,3.17-5.33,4.7-3.89,2.46-7.78,4.94-11.68,7.39-5.3,3.31-9.35,7.82-12.71,13.02-1.63,2.12-3.2,4.29-4.9,6.36-3.3,4.03-7.27,7.14-12.39,8.56-3.96,1.1-7.95,1.54-12.01.63Z"/><path class="cls-24" d="M388.1,434.7c-2.58-1.41-5.4-2-8.26-2.41-3.21-.47-6.43-.43-9.65-.08-.21.02-.42.05-.62.07-5.66.6-7.33-.35-10.07-5.38-1.54-2.83-3.3-5.55-5.68-7.79-3.22-3.28-7.21-5.23-11.52-6.6-5.88-1.87-12-2.4-18.08-3.16-1.4-.25-2.8-.48-4.2-.74-4.27-.77-8.48-1.71-12.16-4.18-.35-.23-.9-.33-.87-.94,1.68.47,3.3,1.12,5.03,1.39,5.63.88,11.29.89,16.96.46.2.02.41.08.61.07,7.73-.39,14.31,2.29,20,7.44,2.29,2.07,4.49,4.24,6.98,6.09,4.24,3.56,9.04,6.02,14.43,7.31,2.86.68,5.77,1.05,8.68,1.44,3.29.44,6.54.97,9.58,2.43,1.31.63,2.31,1.55,3.2,2.65l-4.37,1.94Z"/><path class="cls-6" d="M524.52,528.8c-9.53-6.13-19.36-11.63-30.31-14.87-5.45-1.61-10.98-3.15-16.61-3.25-16.42-.31-29.98-5.95-39.87-19.52-7.04-9.66-16.99-11.94-28.25-10.55-2.65.33-5.32.51-7.99.76,7.22-5.01,14.44-10.02,21.65-15.03,9.4,1.68,16.05,7.36,22.32,14.21,7.64,8.34,18.13,11.74,28.8,14.44,11.52,2.91,23.29,4.84,34.61,8.56,11.06,3.64,21.71,8.1,30.75,15.71-1.5.74-2.91,1.59-4.51,2.2-4.1,1.56-7.6,4.13-10.6,7.35Z"/><path class="cls-3" d="M622.36,500.24c-18.53-9.82-38.26-3.76-56.53,3.34,11.25-9.88,51.39-21.12,56.53-3.34Z"/><path class="cls-3" d="M260.32,478.45c35.01-9.1,57.63-4.98,72.8,4.33,11.49,7.9,19.47,21.22,33.69,24.63,23.4,8,44.97-18.33,68.16-4.54,6.36,3.21,12.01,7.56,16.74,12.98-1.03,1.38,109.04,27.93,92.97,29.5-14.93,0-31.24-9.94-48.56-4.46-28.54,7.64,12.85-3.52-57.78-8.03-23.38-1.49-45.42,15.27-68.41,3.99-36.41-16.1-43.21-57.17-109.47-56.22-2.09.03-2.5-1.58-.15-2.19Z"/><path class="cls-15" d="M275.62,343.23c.82-5.96,28.71-9.47,43.21-5.36.93.26,1.87.47,2.81.7,1.03.51,2.07.96,3.24,1.01,1.86.73,3.73,1.47,5.59,2.2,3.56,1.79,7.21,3.39,10.54,5.6,7.7,5.34,13.84,12.45,20.93,18.49,5.26,4.48,10.91,8.29,17.8,9.85l.14.07.15-.06c.35.38.8.46,1.28.42.68.49,1.45.53,2.25.48,10.78,2.02,21.08.89,30.73-4.63,1.64-.02,3.02-.84,4.47-1.46,13.26-5.66,26.63-6.62,39.78.02,7.33,3.7,13.86,8.72,19.31,14.98-1.19,1.59.03,1.57,1.1,1.64l.14-.13c-.89,4.28-1.85,8.57.39,12.73.66,1.24-.09,2.22-.4,3.27-.73,2.49-.67,5.02-.23,7.49.32,1.81-.09,3.18-1.23,4.48-.64-.09-1.28-.18-1.91-.27-1-2.29-3.45-2.23-5.26-3.08-8.58-4.03-17.51-7.04-27.12-6.86-6.94.12-13.31,2.87-19.8,5.05-13.33,4.48-26.71,5.16-40.04-.07-10.22-4.01-18.31-10.95-25.57-18.96-7.8-8.61-14.4-18.25-22.44-26.65-7.44-7.78-15.62-14.56-26.79-16.22-3.54-.53-7.13-.6-10.72-.44-7.38-.37-22.74-1.59-22.37-4.29Z"/><path class="cls-6" d="M639.81,414.74c6.08-2.87,8.16-10.42,10.15-16.84,2.78-8.98,7.87-16.31,15.16-22.2,1.81-1.47,3.5-3.06,1.14-5.56-.77-.81-.4-1.99.35-2.84.76-.86,1.73-1.03,2.82-.68,1.16.37,1.61,1.2,1.67,2.34.07,1.41-.46,2.65-1.26,3.75-1.7,2.34-3.39,4.69-5.21,6.95-2.98,3.71-4.02,7.77-2.95,12.47,2.6,11.4-3.01,19.79-10.45,27.33-3.51,3.56-7.32,6.86-11.98,8.95-2.5-2.14-10.74-8.33.56-13.67Z"/><path class="cls-2" d="M461.62,544.54c-6.38-13-15.94-22.4-30.1-26.61-.63-.19-1.37-.37-1.81-.8-12.82-12.62-32.2-15.06-44.38-28.86-4.5-5.1-10.99-7.28-18.01-7.44-3.98-.09-8.03-.37-11.71-2.18-2.34-1.15-4.46-2.73-3.53-5.78.94-3.05,3.49-3.89,6.38-3.5,1.45.2,2.89.8,4.21,1.47,8.48,4.28,16.74,8.95,24.12,15.01,13.97,11.48,29.97,18.75,47.74,21.34,15.54,2.27,25.52,10.35,30.53,24.99-1.14,4.12-2.29,8.24-3.43,12.35Z"/><path class="cls-6" d="M603.29,324.47c1.72-1.52,2.09-3.76,3.02-5.69.94-1.95,2.28-3.14,4.5-3.21,2.92-.1,4.73-1.67,5.78-4.32.74-1.86,1.78-3.54,3.75-4.32,1.57-.62,3.07-.52,4.21.9,1.09,1.36.64,2.62-.25,3.95-2.51,3.76-5.07,6.73-10.36,7.11-3.78.27-6.68,3.76-9.35,6.65-1.26,1.37-2.56,2.71-3.68,4.19-3.78,4.97-9.29,6.55-14.98,7.82.37-.91.53-1.81.02-2.73,7.67-.29,13.01-4.47,17.33-10.36Z"/><path class="cls-13" d="M684.57,464.98c6.79-.88,12.87-3.39,18.48-7.22,1.25-.86,2.87-1,3.62.84.69,1.69-.28,2.82-1.72,3.47-2.01.92-13.61,2.98-20.38,2.91Z"/><path class="cls-13" d="M770.68,176.31c-.22.74-.94.32-.67-.21,2.69-5.3,1.83-11.53.99-17.45-.21-1.5.37-3.02,2.36-2.88,1.82.13,2.4,1.5,2.35,3.08-.06,1.96-3.08,10.93-5.04,17.46Z"/><path class="cls-6" d="M648.65,206.55c.13.2.37.02.18-.22-3.1-3.88-5.23-8.14-6.49-12.96-.31-1.19-1.22-2.14-2.67-1.41-1.32.67-1.32,1.87-.79,3.04.68,1.48,6.71,6.92,9.76,11.55Z"/><path class="cls-6" d="M401.62,423.35c2.39,1.87-2.07,4.7-4.28,3.22-23.54-15.84-36.15-40.02-67.26-35.46-2.24.33-4.7-.8-7.04-1.31-3.48-.76-6.71-2.29-7.21-6.11-.46-3.44,1.03-6.33,4.35-8.27,3.57-2.09,6.91-1.47,9.06,1.35,7.05,9.27,15.5,9.78,26.45,7.71,13.92-2.63,16.85,3.64,24.77,15.42,5.37,7.99,2.35,8.69,21.17,23.45Z"/><path class="cls-16" d="M582.36,368.97c3.54-1.93,7.07-3.87,10.62-5.78,10.78-5.8,19.36-13.62,24.64-24.98,3.95-8.49,9.82-15.79,16.51-22.33,2.07-2.02,5-4.63,7.25-1.1,2.08,3.25-1.9,4.23-3.94,5.41-9.51,5.5-15.87,13.71-19.54,23.77-6.05,16.56-20.24,21.71-35.54,24.99Z"/><path class="cls-10" d="M714.07,434.27c-6.39,1.59-11.6,4.87-15.99,9.6-.85.92-2.22,1.77-3.43,1.88-6.16.6-11.53,2.64-15.41,7.85,2.2-6.45,5.65-10.75,13.24-10.28,3.84.24,6.36-3.16,9.04-5.64,3.49-3.25,7.27-5.75,12.54-3.42Z"/><path class="cls-10" d="M530.05,511.15c-1.95-6.55-8.23-6.24-4.74-9.72,1.84.61,64.61,2.09,66.49,2.48,5.12,1.07,10.16,2.55,15.36,3.26,4.38.6,8.76.83,13.1-.37,4.16-.99,6.43.97,9.53-2.05.69-.22,2.76-4.03,3.16-3.21.35.71.86.84,1.44.18.31-.35.57-.23.79.12,0,.08-.02.16-.04.23-1.67,1.9-3.29,3.83-5.25,5.44-5.05,4.08-10.93,5.83-17.3,6.31-5.61.42-11.36,1.46-16.83.2-69.75-16.13-65.36-1.72-65.7-2.88Z"/><path class="cls-2" d="M645.36,472.78c-22.89-19.66-41.51-42.98-58.1-68-12.07-18.21-23.98-36.52-35.96-54.79-5.73-9.36-12.8-17.6-20.43-25.46-24.63-25.4-66.18-28.42-94.81-12.79h0c-2.25,1.1-4.57,2.09-6.75,3.33-14.78,8.46-26.51,20.78-39.58,31.41-1.45,1.18-.03,3.47,1.68,2.69.8-.37,1.61-.74,2.42-1.09,31.68-13.52,63.63-15.81,95.03.05,17.52,8.85,33.1,20.84,46.14,35.78,1.14,1.13,3.06,1.74,2.63,3.93,0,0,.35-.32.35-.32,5.01,3.25,8.45,8.11,12.47,12.36,11.82,12.48,23.15,25.47,35.44,37.45,12.94,12.62,27.43,23.31,43.53,31.89,5.66,3.02,11.46,4.17,17.36,5.87-.31-1.12-.8-1.79-1.42-2.32Z"/><path class="cls-10" d="M364,352.17c-.2-.28.12-.63.42-.46,7.53,4.38,13.27,10.9,19.6,16.71,1.79,1.65,21.04,17.2,29.75,24.07.24.19.1.57-.21.56-17.15-.58-30.09-7.94-37.84-23.86-3.04-6.25-7.75-11.4-11.72-17.03Z"/><path class="cls-26" d="M587.84,278.99c1.87-2.89,6.42.86,4.89,3.93-9.87,19.78-32.13,48.88-44.71,59.41-10.13,8.48-21.46,11-34.08,9.33-8.72-1.16-17.44-2.48-25.5-6.34-.64-.31-1.19-.8-1.78-1.21,1.42-2.8,2.95-5.55,4.22-8.42,1.31-2.96,3.34-4.12,6.62-4.38,20.15-1.62,34.77.14,50.16-13.07,5.02-4.31,2.09-15.06,15.02-19.23,8.91-2.88,11.86.59,25.17-20.01Z"/><path class="cls-15" d="M526.9,318.63c-9.94-4.66-19.1-10.67-28.33-16.55-2.04-1.3-3.93-2.88-6.32-3.55,0,0-.08.06-.08.06-.28-.59-.75-.91-1.4-.97-5.93-3.68-12.34-6.3-19.03-8.17-17.2-4.81-32.69-1.78-46.15,10.29-2.34,2.1-4.38,4.57-7.27,5.99,4.07-5.71,9.11-10.56,13.85-15.68,3.41-3.67,7.34-6.37,12.04-8.32,13.56-5.65,26.35-4.28,38.42,3.71,8.49,5.62,16.6,11.81,25.1,17.42,4.93,3.26,10.25,5.95,15.47,8.75,2.9,1.56,4.49,3.6,3.71,7.01Z"/><path class="cls-24" d="M495.35,524.79c.75-.95.76-2.3.06-3.29-15.57-21.72-49.54,4.13-71.2-8.75-37.27-23.23-60.28-7.14-84.95-25.28-5.1-3.33-7.32-8.9-10.5-13.57-1.64-2.41-5.41-.95-5.02,1.94,4.57,33.39,16.6,37.52,52.35,28.96,27.65-7.5,45.2,22.15,71.7,22.68,10.09.9,20.34-1.33,30.24,1.49,1.57.46,2.94,1.19,4.19,2.1.94.68,2.2.72,3.16.08,3.09-2.09,8.09-3.95,9.96-6.34ZM423.97,513.58s.08.09.13.14c-.05-.05-.09-.09-.13-.14Z"/><path class="cls-26" d="M596.15,378.71c1.99-1.76,3.99-3.53,5.98-5.29,9.01-3.33,16.56-8.76,22.85-15.98,4.15-4.76,8.44-9.35,13.98-12.54,2.04.25.52,1.28.26,1.72-3.04,5.07-6.67,9.68-10.87,13.84-8.45,8.34-18.36,14.28-29.62,18-.8.26-1.63,1.04-2.57.26Z"/><path class="cls-6" d="M472.31,262.52c.36,3-12.31-8.35-19.44-10.79-.58-.2-1.1-.57-1.62-.91-1.43-.94-2.9-2.09-2.31-3.97.59-1.9,2.2-2.93,4.27-3.09,2.23-.18,4.06.65,5.58,2.21,5.01,5.11,9.51,10.63,13.47,16.6,0,0,.05-.04.05-.04Z"/><path class="cls-10" d="M592,334.59c-10.7,16.5-22.77,8.46-30.56,18.71-4.55,5.99-6.27,19.91-13.63,17.97-1.54-.41-.65-2.97.41-4.42,2.53-3.48,5-7.01,4.17-11.7-.16-.89.07-1.69.76-2.25,20.54-16.5,18.87-24.59,24.13-37.41,4.4-10.72,10.94-19.89,20.41-26.82,2.5-1.83,4.86-3.86,7.23-5.88,2.22-1.89,4.01-3.82,1.42-6.9-1.49-1.78-1.23-3.93.48-5.61,1.55-1.53,3.37-1.55,5.23-.52,2.23,1.24,2.34,3.19,1.79,5.38-.6,2.41-1.95,4.43-3.52,6.26-2.8,3.27-5.66,6.49-8.59,9.65-5.28,5.69-7.51,12.26-6.05,19.96,1.58,8.31.83,16.61-3.7,23.59Z"/></g><g id="Drops"><path class="cls-16" d="M737.18,313.51c-1.86-.17-3.07-1.37-3.1-3.56-.02-1.97,2.6-4.35,4.62-4.2,2.24.17,2.85,1.77,2.85,3.69,0,2.51-1.66,4.15-4.38,4.07Z"/><path class="cls-15" d="M410.08,248.26c1.66,1.72,2.05,3.61.49,5.54-1.41,1.73-3.19,1.81-4.92.48-1.61-1.24-2.01-4.94-.65-6.21,1.69-1.58,3.41-.87,5.08.2Z"/><path class="cls-24" d="M651.39,337.02c-.45.21-.9-.28-.67-.71,1.29-2.36,1.92-4.99,3.27-7.27.74-1.25,1.65-3.09,3.52-1.85,1.91,1.26,1.77,3.3.44,4.88-1.79,2.11-3.98,3.76-6.56,4.96Z"/><path class="cls-24" d="M764.18,359.42c-.77-.17-.87-1.23-.14-1.55,3.83-1.72,7.1-4.4,10.93-5.95,2.11-.86,4.99-2.3,6.16,1.03,1.19,3.39-.92,5.81-4.09,6.51-4.23.93-8.52.92-12.86-.03Z"/><path class="cls-3" d="M288.79,422.1c.03,2.32-1.75,4.24-3.99,4.22-2.3-.02-2.93-1.66-3.07-3.51-.16-2.12,2.01-4.31,4.02-4.26,1.83.05,3.01,1.43,3.04,3.55Z"/><path class="cls-11" d="M364.57,416.16c-3.43.42-6.57-1.9-6.91-5.22-.35-3.41,1.99-4.62,4.7-5.13,3.11-.59,6.72,2.27,6.97,5.26.23,2.72-1.63,4.7-4.76,5.09Z"/><path class="cls-2" d="M409.86,273.05c.83.93,1.43,2.06.56,3.26-.65.9-1.71.74-2.46.04-.98-.92-1.33-2.21-.6-3.36.62-.97,1.62-.6,2.5.06Z"/><path class="cls-15" d="M337.41,447.81c-.14,1.01-.32,2.11-1.62,2.18-1.24.06-1.88-.79-1.82-1.95.06-1.09.64-2.04,1.83-2.09,1.1-.04,1.54.8,1.61,1.86Z"/><path class="cls-15" d="M695.39,330.72c-1.33-.22-1.83-.86-1.71-1.96.16-1.42,1.09-2.23,2.39-2.35,1.18-.11,1.54.85,1.42,1.87-.15,1.37-1.04,2.11-2.1,2.44Z"/><path class="cls-26" d="M386.66,265.99c-.94,1.04-1.88,1.08-2.83.39-.8-.58-1.44-1.5-.73-2.33.76-.9,2.04-1.02,3.09-.39.95.58.76,1.55.47,2.34Z"/><path class="cls-24" d="M422.05,285.79c-.84.57-1.37.1-1.87-.46-.54-.61-.73-1.28-.08-1.89.54-.51,1.18-.33,1.62.17.57.64.87,1.38.33,2.18Z"/><path class="cls-24" d="M374.61,419.74c-.84.57-1.37.1-1.87-.46-.54-.61-.73-1.28-.08-1.89.54-.51,1.18-.33,1.62.17.57.64.87,1.38.33,2.18Z"/><path class="cls-24" d="M338.05,352.32c-.84.57-1.37.1-1.87-.46-.54-.61-.73-1.28-.08-1.89.54-.51,1.18-.33,1.62.17.57.64.87,1.38.33,2.18Z"/><path class="cls-6" d="M451.47,349.9c-.84.57-1.37.1-1.87-.46-.54-.61-.73-1.28-.08-1.89.54-.51,1.18-.33,1.62.17.57.64.87,1.38.33,2.18Z"/><path class="cls-2" d="M676.95,513.99c.83.93,1.43,2.06.56,3.26-.65.9-1.71.74-2.46.04-.98-.92-1.33-2.21-.6-3.36.62-.97,1.62-.6,2.5.06Z"/><path class="cls-24" d="M686.93,534.64c-.84.57-1.37.1-1.87-.46-.54-.61-.73-1.28-.08-1.89.54-.51,1.18-.33,1.62.17.57.64.87,1.38.33,2.18Z"/><path class="cls-26" d="M637.54,555.5c-.48,1.6-1.64,1.56-2.87,1.37-1.33-.21-2.27-.87-2.08-2.33.16-1.21,1.16-1.65,2.25-1.48,1.39.22,2.55.86,2.7,2.44Z"/><path class="cls-2" d="M368.61,369.03c-.48,1.6-1.64,1.56-2.87,1.37-1.33-.21-2.27-.87-2.08-2.33.16-1.21,1.16-1.65,2.25-1.48,1.39.22,2.55.86,2.7,2.44Z"/><path class="cls-6" d="M657.3,595.94c-.84.57-1.37.1-1.87-.46-.54-.61-.73-1.28-.08-1.89.54-.51,1.18-.33,1.62.17.57.64.87,1.38.33,2.18Z"/><path class="cls-26" d="M703.2,349.25c.19,1.03-.85,1.87-1.75,2.02-.79.14-1.07-.5-1.04-1.15.04-.86.38-1.63,1.35-1.76.77-.1,1.36.44,1.44.89Z"/><path class="cls-26" d="M727.73,392.53c.19,1.03-.57,1.77-1.48,1.92-.79.14-1.07-.5-1.04-1.15.04-.86.38-1.63,1.35-1.76.77-.1,1.08.54,1.17.99Z"/><path class="cls-24" d="M327.37,614.75c-4.22,6.05-6.44,3.65-7.6,1.37-1.16-2.28,1.14-6.65,3.69-6.77,4.19-.19,8.71-1.47,9.86.8,1.16,2.28-3.12.52-5.96,4.59Z"/></g><g id="Hercules"><path class="cls-19" d="M674.15,456.36c-.65-2.97-2-5.74-3.89-8.12-9.05-11.39-17.59-29.52-27.95-35.99-7.26-4.57-7.04-16.21-12.29-21.78-9.87-10.8-27.96-24.67-44.06-22.71-4.61.56-9.28-.27-13.48-2.24-18.63-8.75-29.91-9.84-29.4-37.63,1.17.33,6.47-5.23,6.37-7.28.3-3.02-1.13-2.62-.91-3.41,3.01-.37.54-6.23.91-6.83.02-1.41,2.33,3.02-.46-5.69q.23-2.73.46-5.46c.8,1.61,1.74,3.54.91,5.23,2.45-.19,4.96-14.88,1.82-8.88-1.58-.93-2.14-6.61-1.37-8.19,3.33,7.15,4.51,2.46,1.37-1.82,2.89-.63,1.34-2.12,1.37-3.19.12-6.02-.89-4.73-.91-5.01-.28-4.28.44-2.76-.91-8.19-.06-.24,1.13-3.97-1.37-4.1,2.29-1.75-.12-2.96-.46-3.64-1.83-10.12-15.25-3.02-16.16-1.36-1.87-2.06-10.28-8.88-12.75-5.46-8.22-3.6-29.98-1.3-34.37,11.83-23.7,34.44-3.25,45.41-19.12,60.54-2.71.06-5.83-.51-4.1,1.36,7.12,12.63,10.88,11.87,5.99,22.34-.94,2.01-.76,4.36.49,6.2.3.44.58.92.81,1.5-2.44,2.61-12.65,7.97-16.11,8.86-3.57.92-7.3,1.16-10.95.61-16.27-2.44-34.74,11.66-44.74,22.62-5.25,5.57-5.03,17.21-12.29,21.78-10.36,6.47-18.91,24.59-27.95,35.99-1.89,2.38-3.24,5.15-3.89,8.12-8.26,37.88,24.62,63.19,54.38,88.19,4.23,7.43,21.47,17.38,27.08,14.8,1.02,1.16-1.03,1.94-1.03,1.94-8.81,54.72,64.17,92.3,59.37,83.73-31.29-55.83,28.94-73.27,74-73.27,10.31,1.39,23.5-5.82,24.12-12.4,5.62,2.58,22.85-7.37,27.08-14.8,29.75-25,62.63-50.31,54.38-88.19ZM427.12,531.81c-4.63-5.6-11.92-22-14.71-27.87-7.52-15.78-2.91-28.16-14.42-34.94,5.76-9.05,11.49-8.38,17.98-12.29,5.12-2.55,10.08-10.83,12.06-9.56.54,11.48,7.21,20.39,14.5,28.31,9.41,18.51,13.4,5.71,12.89,38.3-.02,1.29.09,2.72.28,4.2-.57,8.36-.17,6.18-28.58,13.86ZM616.51,503.94c-2.8,5.87-10.09,22.27-14.71,27.87-37.83-10.22-24.58-2.97-30.56-26.4-1.7-6.65.01-13.73,4.6-18.83,9.83-10.93,24.23-22.32,25.04-39.43,1.98-1.27,6.94,7.01,12.06,9.56,6.49,3.91,12.22,3.24,17.98,12.29-11.5,6.78-6.9,19.17-14.42,34.94Z"/><g id="Body" class="cls-32"><path class="cls-1" d="M429.19,452.49s5.31,2.59,8.71-8.15,7.04-16.03,9.74-11.06c2.7,4.97,2.64,15.51,23.48,16.44s20.72-5.19,32.62-8.37c11.9-3.17,24.8,1.23,31.93,3.07,7.13,1.84,21.01,3.74,33.92-4.09,12.92-7.83,15.96-7.71,16.85,3.3.89,11.01-.85,26.05-12.05,30.11-11.19,4.06-9.76,9.36-7.65,14.77,2.11,5.41,1.42,7.12,1.42,7.12,0,0,3.42-14.36,13.54-19.1,10.12-4.74,15.09-23.77,16.05-27.61s3.06-5.45,5.06-3.61c2,1.84,6.66,8.27,13.67,9.95s10.87,5.45,11.97,8.35c1.09,2.9,1.89,1.27,1.89,1.27,0,0,10.66-16.13,24.6-13.21.1.02.59-.17.08-.31-2.9-.8-11.12-5.25-16.39-11.74-6.38-7.85-5.72-6.33-3.5,1.7,2.22,8.02.73,12.81.23,10.85-1.91-7.35,1.85-6.38-11.09-15.35-12.74-8.83-22.86-8.93-20.06-12.16,2.81-3.23,5.45-2.17,14.45,4.53s11.06-9.86,13.07-12.44-6.72-7.54-9.63-10.55c-2.92-3.01-2.44-8.58-8.83-9.17s-13.51-3.71-15.02-8.95-14.96-5.2-19.61-8.49c-4.65-3.29-3.36-.51-2.52-4.82s-7.7-9.2-19.27-3.67c-11.57,5.53-8.4,12.07-6.15,13.88,2.26,1.81,8.66,5.95,12.34,7.68s11.23.46,22.68,8.33c11.44,7.87,9.95,9.25,4.14,7.68-5.81-1.57-10.14-6.53-10.64-1.51-.5,5.03-7.97,23.19-15.64,25.65-7.67,2.46-42.01,1.9-47.59-8.94-5.58-10.84-3.13-16.18-6.17-16.35s4.18,20.72-7,24.67c-11.19,3.96-23.07,7.57-35.02,5.01-11.95-2.55-15.78-21.23-24.44-28.79-8.66-7.56-7.66-7.23-4.83-11.64s13.76-11.24,3.82-9.14c-3.66.78-13.6,6.4-11.61,8.6,3.81,4.22-.94,2.12-1.65,3.21s-1.93,2.52,1.78,3.64c3.71,1.13,8.51,1.55,9.58,7.9,1.07,6.34-5.09-1.13-13.6-5.74-9.82-5.32-9.64-.44-17.63,5.22-7.99,5.66-11.27,2.43-9.6,7.25,1.66,4.82,22.01-.4,27.23,3.88,3.91,3.21-5.97,16.92-13.13,18.73-7.16,1.81-6.33,9.48-11.99,12.64s-3.41,8.73-12.77,8.02c0,0-5.37-6.35,2.62-8.02,7.99-1.67-9.32-7.67-9.32-7.67,0,0,4.99,10.38,3.5,12.19s-3.33,7.13,3.5,5.8,4.18,3.35,8.69,1.87,4.05-6.62,8.12-6.16c4.07.46,15.65-7.62,16.81-10.99s7.59-4.69,6.31,4.47Z"/><path class="cls-1" d="M436.75,456.12c2.18,3.97,6.66,12.47,8.27,19.2,1.74,7.31,3.6.99,12.63,11.47,9.04,10.48,8.33,13.48,2.74,24.82-5.59,11.34,1.66,15.86-.48,18.5-2.14,2.65-3.16,2.02,0,5.07,3.16,3.05,7.32,1.87,4.71,0s-3.72-5.28-2.9-7.68-2.27-9.56-1.14-11.59,3.8-6.2,7.36-18.41c3.55-12.22,3.62-10.37-.09-16.57-3.71-6.2.65-7.86-.26-10.63s.73-3.89,0-5.17-2.08-.8-3.3,3.04c-1.23,3.84-1.4,8.28-3.98,4.86-2.57-3.42,1.35-4.7,1.15-6.54s-3.57.58-2.72-1.76,3.95-5.23,1.66-5.01-2.87.8-2.94-.74,1.22-3.16-.7-4.9c-1.92-1.74-3.54-2.44-1.04-4.41,2.5-1.97.25-4.04-2.82-.67-3.07,3.37-3.8,8.47-7,8.46s-5.4-10.83-5.4-10.83l-1.33-.93s-1.71,5.32-5.62,7.71c0,0,2.7,1.8,3.21,2.72Z"/><path class="cls-25" d="M546.67,357.28c-.25-1.02,2-2.46,2.8-1.78,3.3,2.8,8.88,7.42,16.59,9.25,12.19,2.89,7.43,6.63,15.28,5.24,7.86-1.39,19.62-2.19,31.67,9.29,12.06,11.49,19.9,10.48,19.1,25.29,0,0-1.41,2.58,5.65,6.39,7.07,3.81,10.83,11.97,16.4,17.57,5.57,5.6,5.97,12.03,10.2,16.26,4.23,4.23,7.56,9.19,7.71,10.4s.56,27.02-1.77,30.02-17.47,27.54-27.13,34.06-30.41,27.23-30.41,27.23c0,0-13.17,11.86-20.09,9.78-6.92-2.07-33.26-12.48-32.95-16.49.31-4.01,8.09-17.63,13.13-15.11,5.04,2.52,24.69,9.73,28.84,8.53,4.15-1.2,9.87-21.08,13.99-24.03,4.13-2.94,10.31-8.13,8.73-13.9-1.58-5.77-2.39-18.88,2.45-22.1s4.39-11.2,10.56-13.86,5.83-7.52,14.43-6.4c1.55.2,6.27.21,6.27.21.66,0,.7-.27.15-.63-4.33-2.84-15.95-10.9-20-16.87-5.16-7.59-7.49-6.32-6.79-3.92s.75,10.05,2.4,13.27,1.23,6.2-.24,4.09-.69-8.25-6.25-9.2c-5.57-.95-18.06-4.42-23.7-10.24-5.64-5.82-3.12-10.13,4.08-8.48s13.05,6.25,17.28,3.15,6.45-10.4,3.83-12.19c-2.62-1.8-14.49-5.77-15.51-10.73-1.02-4.97-4.2.94-11.68-4.63-7.48-5.57-7.67-9.7-22.11-13.77-14.44-4.06-4.29-8.5-5.52-10.32-1.22-1.82-16.63-2.1-20.21,2.26-3.58,4.36-4.62,6.94,3.16,8.98,7.78,2.03,17.32,6.22,18.8,11.49s7.58,5.18,8.79,5.63,2.25,4.88-3.73,2.8c-9.82-3.42.26,24.76-29.19,18.3-27.65-6.07-35.44-4.58-35.71-17.69s10.42-16.86,19.61-20.47c14.88-5.85,12.76-19.8,11.07-26.67Z"/><path class="cls-25" d="M482.2,351.9s-8.29,9.96-20.47,12.85c-12.19,2.89-7.43,6.63-15.28,5.24-7.86-1.39-19.62-2.19-31.67,9.29-12.06,11.49-19.9,10.48-19.1,25.29,0,0,1.41,2.58-5.65,6.39-7.07,3.81-10.83,11.97-16.4,17.57s-5.97,12.03-10.2,16.26-7.56,9.19-7.71,10.4-.56,27.02,1.77,30.02,17.47,27.54,27.13,34.06,30.41,27.23,30.41,27.23c0,0,13.17,11.86,20.09,9.78,6.92-2.07,33.26-12.48,32.95-16.49s-8.09-17.63-13.13-15.11c-5.04,2.52-24.69,9.73-28.84,8.53-4.15-1.2-9.87-21.08-13.99-24.03-4.13-2.94-10.31-8.13-8.73-13.9,1.58-5.77,2.39-18.88-2.45-22.1-4.84-3.22-9.24-6.5-15.41-9.16s-1.12-13.02-9.58-11.1h-3.94c-.97,0-1.35-1.26-.54-1.8,4.74-3.16,14.26-9.9,18.07-15.49,5.16-7.59,7.49-6.32,6.79-3.92s-.75,10.05-2.4,13.27c-1.65,3.22-.2,6.3,1.27,4.2s-.35-8.36,5.22-9.3c5.57-.95,15.64-2.34,21.29-8.16,5.64-5.82,3.64-12.21-3.56-10.56-7.21,1.65-11.15,6.25-15.38,3.15-4.23-3.11-6.45-10.4-3.83-12.19s14.49-5.77,15.51-10.73c1.02-4.97,4.2.94,11.68-4.63,7.48-5.57,7.67-9.7,22.11-13.77,14.44-4.06,4.29-8.5,5.52-10.32s16.63-2.1,20.21,2.26c3.58,4.36,4.62,6.94-3.16,8.98-7.78,2.03-17.32,6.22-18.8,11.49-1.48,5.26-6.93,5.52-8.14,5.96s11.5,26.4,34.02,24.12c28.17-2.85,30.67-8.67,28.56-21.62-2.07-12.74-.67-15.55-9.71-19.51-9.04-3.96-14.49-32.44-14.49-32.44Z"/><path class="cls-25" d="M480.76,448.66s-7.13,3.38-8.6,8.81.29,5.25.77,9.01-1.62,5.73-2.36,9.4-1.95,10.4,3.8,9.34c5.75-1.07,4.95,6.02,3.36,8.56-1.6,2.53-2.52,1.25-2.14,5.73s-1.58,4.51-5.69,5.37c-4.12.86-8.4,6.28-7.73,10.79.68,4.51,2.45,7.73,7.42,12.64s8.95,7.07,3.73,6.71c-5.22-.36-10.35-7.65-10.25-4.42s7.02,5.01,9.8,7.03c2.78,2.02,30.79,12.39,53.41,3.69,22.62-8.7,40.2-20.76,44.21-21.13s.56-14.85-4.51-30.24c-5.08-15.39,1.82-15.34,7.61-17.36,5.79-2.02,10.24-2.43,11.96-11.04,1.72-8.61,2.92-15.1,1.11-22.25-1.81-7.16-8.04-4.97-14.56-1.21-6.52,3.76-22.58,7.8-33.3,6.31s-26.98-7.29-38.67-1.86c-11.68,5.43-11.37,5.32-19.37,6.12Z"/><path class="cls-12" d="M572.68,442.98c2.35-.87,3.25-.23,3.66-.03,2.76,1.37,11.22,7.02,7.22,6.39-4.57-.73-1.93-.78-9.38-2.06-7.44-1.29-11.9-1.84-3.59,1.91,8.31,3.75,13.3,9.15,9.93,7.84-3.38-1.31-10.97-7.51-14.56-7.7-3.6-.19-13.92-3.95-2.13,5.15,11.79,9.1,15.25,11.98,12.51,10.65-2.74-1.34-12.86-10.21-15.16-9.37s.96,4.62,5.23,9.68c4.27,5.06,6.66,8.5,3.54,7.46s-5.64-7.78-7.17-7.2.68,7.24.82,10.19c.14,2.95.51,9.21-5.76,3.63-6.27-5.57-23.5-26.65-37.91-28.88-14.41-2.23,25.31-2.33,30.15-2.66,4.66-.31,16.65-2.8,22.61-5Z"/><path class="cls-12" d="M540.24,529.33c-2.36-1.92-1.88.25,1.81-12.04,3.69-12.29,3.54-11.79,3.37-17.87-.17-6.08-3.79-6.83,4.72-9.62,8.51-2.79,14.02-6.27,14.93-1.55.91,4.72,5.66,23.92,5.54,27.93s-5.46,3.34-15.97,9.43c-10.51,6.09-11.52,6.07-14.39,3.73Z"/><path class="cls-12" d="M471.5,505.74s10.47-3.53,14.94,17.7c4.47,21.23,10.67,12.47,11.84,16.31s-16.52.13-19.54-3.54c-3.02-3.66-8.32-10.21-10.91-11.52-2.58-1.31-9.49-16.72,3.67-18.96Z"/><path class="cls-12" d="M516.99,464.04s10.15-1.7,13.73,1c3.58,2.7,6.85,1.44,10.17,2.77s4.09,2.09,5.9,3.18,1.09,1.34-3.03.23-1.29-1.69-9.01-1.56-6.56-3.85-11.09-3.85c-4.52,0-3.76,1.56-9.66.43s2.98-2.2,2.98-2.2Z"/><path class="cls-12" d="M511.42,496.29c.14-2.51-.24-6.22,2.19-6.87,5.35-1.44,16.52-2.07,24.43.94,10.42,3.97,3.11,14.92,1.7,17.58-1.42,2.65-17.93-.83-25.28,0-4.39.5-3.31-6.66-3.04-11.65Z"/><path class="cls-12" d="M511.35,512.98s3.3-3.84,14.62-2.06c11.32,1.78,12.39-1.12,11.24,5.99-1.15,7.11,1.02,9.39.36,11.41s-3.8-3.2-14.95-4.32-12.51.18-11.27-11.02Z"/><path class="cls-12" d="M483.17,492.66c2.91-.63,21.14-4.65,24.36-1.9s1.87,16.01-1.84,15.94c-5.09-.11-13.85.38-21.72,1.14s-4.02-14.48-.8-15.18Z"/><path class="cls-12" d="M483.82,511.88s1.36.46,5.56,0c5.89-.65,11.92-.92,15.41-.47s3.45,4.04,2.96,7.88c-.49,3.84-.11,7.31-11.84,6.32-11.74-.99-8.06-4.54-10.02-8.6s-3.39-4.58-2.05-5.12Z"/><path class="cls-12" d="M481.12,475.05c.59-.37,16.25-4.09,23.24-3.89,6.99.2,7.44,17.63,2.37,17.08s-21.68,1.24-23.42,1.55-4.86-13.03-2.19-14.74Z"/><path class="cls-12" d="M541.22,474.09c-.68-.17-16.25-4.09-23.24-3.89-6.99.2-7.44,17.63-2.37,17.08,5.07-.55,24.91,1.25,26.65,1.56s9.7-12-1.04-14.75Z"/><path class="cls-12" d="M476.85,473.2s11.48.88,21.41-9.69c9.93-10.57,17.06-13.79,10.8-14.32-6.27-.53-21.29.07-24.09,1.04-2.79.97-9.51,2.54-8.58,13.28.93,10.74-3.42,9.93.46,9.69Z"/><path class="cls-18" d="M593.04,372.66c3.24-.43,5.07-1.94,9.83,1.85s24.42,15.45,25.77,18.66c1.35,3.21,3.81,9.54-1.84,7.42s-4.42-7.16-9.59-10.24-18.09-14.1-24.16-13.68c-6.07.41-1.93-3.74,0-4Z"/><path class="cls-18" d="M572.34,528.31s-11.01,6.34-1.15,8.12c9.87,1.78,14.78,4.77,23.71,2.52,8.93-2.24-9.14-5.7-15.85-8.17l-6.72-2.47Z"/><path class="cls-18" d="M434.63,535.19s21.64-10.03,22.81,0c1.17,10.03-8.11,7.91-15.02,9.56s-18.36-3.24-18.96-7.01c-.59-3.77,4.17-2.32,11.17-2.55Z"/><path class="cls-18" d="M379.23,466.48c2.89-.43,7.7,6.14,13.63,8.58s7.9,4.96,5.92,9.03c-1.97,4.07-1.28,9.07.74,13.09,2.02,4.01,5.78,9.48,6.76,10.7.99,1.22-1.18,2.81,1.18,5.27,2.37,2.46,4.54,4.08,3.95,5.25s1.38,10.48-5.92,0c-7.31-10.48-1.58-4.97-4.15-11.28s-2.57-10.78-9.48-13.09c-6.91-2.3-15.6-4.57-13.82-14.49,1.78-9.93-3.16-12.4,1.18-13.04Z"/><path class="cls-18" d="M651.23,459.71s-7.4,8.73-11.71,9.25-4.8-.15-7.22,4.74c-2.42,4.89-6.66,2.49-5.41,7.22,1.26,4.73,5.79,7.48,3.44,12.85s-1.78,9.04-4.84,9.27-.33,3.35,7.12-1.45c7.45-4.8,7.32-15.24,11.55-16.54s13.8-1.77,15.68-10.01c1.88-8.24.86-17.74-3.81-15.34s-2.47,1.37-4.82,0Z"/><path class="cls-18" d="M430.93,374.57c-1.32-.18-4.69.01-5.64.95-3.33,3.26-9.43,11.04-13.77,10.99-5.54-.06-9.83,5.28-9.6,6.66s-5.06,6.74,2.99,2.68,11.72-8.5,16.32-10.07c4.6-1.57,17.05-10.22,12.32-10.85l-2.61-.35Z"/><path class="cls-12" d="M526.04,397.34c.6,3.13-1.84,9.1,19.94,11.27,21.78,2.16,29.63,7.88,23.16,9.13-6.47,1.25-35.99.08-41.09-6.77-5.1-6.85-7.42-8.44-5.19-12.64,2.24-4.2,2.74-3.26,3.17-.99Z"/><path class="cls-12" d="M501.88,395.41s4.2,14.77-1.26,17.51-9.13,9.81-29.11,6.47-15.29-8.02-1.2-6.27c14.09,1.75,17.91-3.67,19.82-6.14s3.25-10.68,6.1-11.57,5.05-2.47,5.65,0Z"/><path class="cls-12" d="M554.68,431.49c-.14,1.91-.29,4.28,4.06,4.3s5.66-1.9,4.88-3.01-1.9-.04-3.09-2.41c-1.19-2.36-5.72-.7-5.86,1.12Z"/><path class="cls-12" d="M474.25,436.6c-.42,1.87-.97,4.18-5.14,2.93-4.16-1.25-4.86-3.47-3.8-4.3s1.83.51,3.65-1.41,5.68.99,5.28,2.78Z"/></g><g id="Head" class="cls-33"><g id="Face"><path class="cls-1" d="M502.55,383.9c.22-.33.74-.23.81.17.12.65.35,1.49.8,2.36,1.59,3.08-1.19,6.7,5.44,6.74,6.63.04,17.14-8.09,22.75-10.27,5.61-2.18,12.35-4.71,13.06-12.42.71-7.72,1.4-5.96,1.04-9.78-.36-3.82-1.54-6.47-3.04-8.93-1.5-2.47-17.12-12.16-17.12-12.16l-29.35-3.18-9.51-3.21s-2.43-7.39-2.78,1.74,1.83,20.32,3.01,23.57c1.18,3.25,5.59,13.75,7.45,17.07,1.87,3.32,5.42,11.32,6.77,9.32l.67-.99Z"/><path class="cls-25" d="M500.44,283.46s8.94-11.38,21.29-8.01c0,0,5.37,2.08,5.9.46.54-1.61,5.18-1.55,7.88,1.24,2.7,2.79,7.48,7.14,6.58,14.95-.9,7.81-.95,10.54-.95,10.54,0,0-2.11-5.19-5.57-6.17s-15.06-.24-17.89-2.78-3.88-3.89-4.65-3.33,2.65,2.19,2.76,2.98.32,1.13-4.5-.77c-4.82-1.9-6.64.25-7.57-.1s-.75-.93-.23-2.81.79-5.16-3.05-6.2Z"/><path class="cls-18" d="M505.73,279.48s7.21-1.12,7.89.19-.02,1.18,2.42,1.32c2.45.13,2.98,1.57,5.55,3.41s-2.32,1.63,3.51,2.28c5.83.66,7.05.84,7.47,1.07s-6.08-.06-9.47-.04-12.83-.87-11.45.89,1.56,2.24.28,2.22-3.62-1.03-5.21.39c-1.59,1.43-4.7,2.81-5.05,1.55s-1.21-9.3-1.21-9.3l3.56-4.43s.41.25,1.72.45Z"/><path class="cls-25" d="M498.42,302.65c.78.41,7.19,4.05,9.98,4.42s3.8.79,7.02-.2c3.22-.99,2.32.23,1.64,2.1s-.99,5.98-1.87,6.76-1.17,2.81.95,5.09,3.17,2.11,1.83,3.14-7.92,5.01-9.47,7.53c-1.56,2.52-1.55,2.76.62,2.07s-1.71.95-4.59,5.1c0,0-.39,1.18-1.05.23s-1.29-.41-1.35.24.41.98-.69.86-6.57-3.9-6.77-2.15,2.69,8.38.54,10.51c-2.15,2.12-7.77-2.62-7.26-6.23.51-3.61-2.49-6.48-1.55-10.64s.39-3.33-.31-2.66-2.04,2.19-1.46-.53.03-5.8,1.92-7.36,2.94-5.89,3.59-4.52.41,4.97,3.06,7.98c2.65,3.02,3.44,5.08,3.71,2.21.27-2.87-1.42-4.4.01-6.35,1.43-1.95,2.23,1.03,3.91,1.88,1.67.85,3.16,2.64,6.59.5,3.43-2.13-1.46-2.48-3.5-5.54-2.04-3.06-3.31-2.24-6.35-7.9-3.04-5.66-2.74-8.46.86-6.54Z"/><path class="cls-12" d="M522.87,298.28s-.88,12.8-1.13,16.55,3.09,2.21,5.87,3.61,6.93,2.59,9.95,1.35,5.32-6.82,4.27-10.5-.71-4.57-2.23-3.42-5.2,6.93-10.18,3.54c-4.98-3.39-1.82-6.28-2.56-8.58-.74-2.29-.62-3.48-3.98-2.56Z"/><path class="cls-25" d="M516.31,306.62s3.99-1.38,5.51-3.79c1.52-2.41,1.64-2.07,1.27.86s-.08,12.76-1.19,12.64-5.96.97-6.59-1.19c-.63-2.16,1-8.53,1-8.53Z"/><path class="cls-25" d="M527.6,317.09s.8,4.06-3.36,3.83c-4.15-.23-2.22,3.15-1.45,3.57s9.05,4.89,9.1,9.07-2.19,5.27-.4,6.81,6.99,7.47,8.6,9.44,5.65,2.94,5.55,1.13-4.23-34.3-4.37-35.65-9.66,3.71-13.68,1.81Z"/><path class="cls-25" d="M496.93,339.14s8.09,4.74,4.07,5.49c-4.02.75-5.37,1.42-3.63,2.03s2.12,2.59-.45,3.84c-2.57,1.25-4.7,2.15-2.76,5.7,1.95,3.55,6.85,6.85,7.36,11.56s2.92,6.18,2.32,10.48c-.6,4.3.56,2.38,1.11,1.22s.98-5.62.25-8.66c-.73-3.04-1.24-5.25-4.61-11.12s-2.46-7.3-.33-9.87,5.25-4.29,5.25-4.29c0,0-2.67,3.21-3.87,5.36-1.19,2.15-1.89,5.37,1.14,8.13,3.04,2.76,7.03,5.93,6.77,9.53s1.36,9.17-.24,12.19,6.19-5.24,5.33-9.86-.14-3.78-2.68-7.47-6.05-6.67-4.94-12.43c1.12-5.76,1.26-4.83,1.59-3.95s-1.22,5.91.81,8.71c2.03,2.8,6.99,6.5,7.13,9.92.14,3.42,2.2,10.71.66,12.83-1.54,2.12,2.71-.69,3.76-3.5,1.05-2.82,2.65-5.82,1.2-8.23-1.45-2.42-6.88-6.78-7.35-9.33s-2.08-6.72,1.2-2.35c3.28,4.37,6.09,5.87,6.8,8.71.7,2.84,1.83,1.83,2.48,5.41.65,3.58-.89,8.65.67,6.9s2.97-7.09,2.52-9.34-4.96-8.03-8.58-11.24c-3.61-3.2-2.71-6.36-2.71-6.36,0,0,.59,2.67,4.78,5.65,4.19,2.98,7.57,6.21,7.41,8.34s2.42,7.06.9,9.93.6.46,1.17,0,1.85-2.13,1.99-5.87,1.4-5.83-3.61-11.69c-5.02-5.86-2.93-8.17-2.93-8.17,0,0,1.6,4.88,6.35,8.84,4.75,3.97,2.34,13.22.46,17.04-1.88,3.82-3.12,5.66-.72,3.94s6.9-6.21,6.66-11.77c-.23-5.56.83-6.14-.57-8.58s.88-1.63,1.69,1.83,2.75,8.92-.56,13.42c-3.32,4.5-7.22,8.67-7.22,8.67,0,0,5.98-2.9,8.14-6.22s5.73-11.48,4.25-14.77-8.09-10.86-8.09-10.86l-11.97-12.32-18.56,3.1s-3.09,2.99-9.87-.52Z"/><path class="cls-25" d="M484.64,334.58s-3.22,19.02,3.41,29.28c6.63,10.25,10.27,21.29,12.16,18.73s-9.94-16.51-10.77-23.07c-.84-6.56-2.88-9.05-3.36-15.34s-1.3-3.95-1.44-9.59Z"/><path class="cls-18" d="M493.79,336.25s4.62,7.48,10.31,8.39c5.69.91,6.38.45,7.71,2.47s3.57,3.62,4.51,1.12c.94-2.5,1.41-2.78,3.65-.57s1.56,1.04,4.02,5.08c2.47,4.04,3.21,4.54,1.36.44-1.85-4.1-2.1-8.52-1.36-9.47s1.73-2.44,4.72,4.05c2.99,6.49,7.63,7.28,7.69,8.7s1.41-.42-1.13-3.67c-2.54-3.25-3.21-6.27-3.14-7.63s3.88,5.04,5.4,6.72c1.52,1.68,3.12,2.73,3.14,4.27s2.15,3.55,1.78,1.19c-.37-2.36-4.88-7.05-5.13-8.47s2.3-3.66,2.79-5.16-9.36-18.94-9.36-18.94c0,0,2.88,10.16-.03,14.35,0,0-6.9-5.69-9.31-11.83s-2.45-.1-3.09,2.78c-.64,2.88,2.35,1.62,4.35,2.58s.67,1.27-.76,1.12c-1.43-.15-7.54-2.91-12.2-.45-4.66,2.46-16.97-.26-15.92,2.91Z"/><path class="cls-12" d="M540.71,328.56c-1.44.72-3.97.98-2.99,5.69.98,4.7,4.91,12.6,4.62,14.81-.29,2.22,2.77-1.69,1.93-7.32s-3.08-11.77-2.45-13.18-.86-.12-1.11,0Z"/><path class="cls-1" d="M499.19,290.47s-7.22,6.15-6.62,24.52c0,0,.22,7.48,1.59,9.33,1.38,1.85.23-.95-.07-4.57s-.85-9.73.5-9.51,3.74-.26,1.87-1.26-2.51-3.48-1.39-6.38c1.12-2.91,3.96-7.51,5.45-8.15.63-.27.07-4.86-1.34-3.97Z"/><path class="cls-18" d="M499.77,306.21c.55,1.09.45,1.72,2.6,4.13s4.47,3.76,6.74,6.75c2.27,2.99,2.87,5.42-.24,6.58s-4.07,6.02-10.16,5.38c-6.09-.65-9.77-4.32-6.61.06s7.53,4.8,9.41,3.73,2.39-3.4,4.95-5.62c2.56-2.23-1.68,2.5-1.27,3.65s.6,1.73,2.07.62,1.03-5.7,5.01-6.84c3.99-1.13,5.45-1.73,4.49-3.18s-2.93-1.67-2.22-5.06c.71-3.39-.74-6.45.62-7.6,1.36-1.15-5.71.69-8.38-.29s-7.38-5.23-8.06-4.82.73,1.91,1.04,2.51Z"/><path class="cls-25" d="M547.21,320.25c.51,0,1.35.79,1.06-1.75s-1.16-4.79-.98-6.37-5.15.66-5.35,1.68.59,5.08,2.53,5.99c1.94.91,2.05.45,2.74.45Z"/><path class="cls-25" d="M484.62,309.88c-1.33,1.18-2.52,4.45,1.01,7.04,3.53,2.59,3.83-1.98,4.16-3.43s-1.08-3.86-1-4.61-3.37.3-4.17,1Z"/><path class="cls-1" d="M505.51,299.74c.08-.12,1.57-3.32,7.34-.17s.77,4.48-.56,4.21-8.66-1.15-6.78-4.04Z"/><path class="cls-1" d="M537.69,303.85c-.04-.12-.49-3.28-6.3-2.06-5.81,1.22-1.83,3.68-.61,3.79s7.79,1.27,6.92-1.72Z"/><path class="cls-18" d="M522.66,301.24s-1.8,14.46-.76,15.1,2.43,2.54,2.39-2.7-.04-7.19,0-9.28.59-3.63-1.63-3.11Z"/></g><g id="Hair"><path class="cls-1" d="M474.23,307.39s.24,13.3-3.76,17.22-6.18,1.44-6.44,3.31,2.45,3.98,3.76,6.66,2.84,1.52,3.1,3.93c.27,2.41,3.19,2.61.16,8.08-3.03,5.47-2.12,9.3-.22,7.96,1.89-1.34,3.63-6.08,2.97-15.66-.56-8.19,1.44-28.64,3.75-33.86.85-1.92-.47-.71-.77-.38l-2.55,2.73Z"/><path class="cls-25" d="M474.88,302.41s-1.49-6.3,6.18-12.44c7.67-6.14-1.19,2.9,7.5,3.7,8.69.8,1.54-5.62.26-5.78s-4.09-.89-6.15-1.81c-2.06-.92,7.17.33,7.17.33,0,0,2.55.47,3.33,1.16s-.79-2.81-3.27-3.66-6.69-3.64-11.49,2.5c-4.8,6.14-4.16,15.56-3.52,16Z"/><path class="cls-18" d="M496.91,285.5s-1.27,4.6-1.92,5.59,1.52.55,2.37-1.13,1.27-3.39.71-4.47-1.16,0-1.16,0Z"/><path class="cls-25" d="M482.72,294.43s4.5.45,6.18,4.17-.56,1.78-2.82-.13-4.41-2.59-4.41-2.59l1.06-1.45Z"/><path class="cls-1" d="M488.79,264.12s14.31-9.73,21.59-2.54c7.28,7.19,5.14,9.63,7.73,9.47s2.18-11.14-7.66-14.14-16.05,3.97-16.83,2.29,8.31-6.41,14.16-5.61,9.91-2.36,13.19,1.23c0,0,1.69-2.05,3.95-.91s6.79,3.05,8.55,6.22c0,0,5.04-6.26,13.01-3.26,0,0,3.14.71-.23.95-3.37.24-9.33,3.62-8.47,5.12s.38.27,2.47-.66,7.48-1.78,8.58-1.31,1.81,1.33,1.35,2.33-.52,4.64.52,6.29-.09,3.69.39,5.54c.48,1.85,1.62,1.57,1.71,3.06s.08,3.33.41,5.48c.32,2.15-2.5.54-2.51.74s2.48,2.34,2.49,4.15-.25,1.29-2.17-1.32-1.04,3.49-1.04,3.49l1.1,7.88-5.49,4.95-3.73-17.26c-.76-3.54-4.89-10.23-8.39-11.17l-3.71-1.25c-1.06-.07-19.91-.71-20.67-1.46-2.31-2.31-7.38-7.25-8.57-7.4-1.55-.2-8.53.5-11.08,1.34s-2.29-1.22-.65-2.23Z"/><path class="cls-18" d="M505.2,279.06c.33-.32.79-1.52-2.83-5.47-4.53-4.95-11.75-2.78-15.44-1.72-3.69,1.06-5,4.62-4.58,5.99.42,1.37,1.93-.5,6.44,1.12,4.51,1.62,3.84,5.7,5.37,3.94,1.53-1.75,4.26-.22,4.26-.22l2.02.75s1.59-2.21,4.03-3.89c1.98-1.36,1.12-.78.73-.51ZM495.74,280.54s-1.49-.99-4.82-2.84c-3.32-1.85-5.3-1.67-5.3-1.67,7.6-1.93,9.48,3.5,9.48,3.5,1.3,1.95.64,1.01.64,1.01ZM501.88,280.99s-1.55.04-3.58-3.45c-2.03-3.48-4.67-5.13-4.67-5.13,0,0,4.53.22,6.21,1.64,1.68,1.42,3.06,6.25,3.06,6.25l-1.02.69Z"/><path class="cls-18" d="M507.79,277.4c-.08-.21-2.72-11.27-12.04-12.26-9.32-.99,3.73-1.07,3.73-1.07,0,0,5.32-.91,8.78,5.1,0,0,1.86,1.93,6.23-.26s9.31-.02,11.04,1.09c1.73,1.11-.65-2.49,1.18-.42,1.83,2.07,1.03,4.79,1.74,3.87s-.31-4.27-1.25-7.46c-1.01-3.43,2.99,6.7,4.29,7.09s1.5-3.31,1.1-5.25-1.59-7.21,2.24-3.99c3.84,3.22,2.14,5.68,3.52,5.64,1.38-.04,3.95-5.25,8.2-5.01s4.41-1.24,4.24.25,1.07.18.71,2.05-.3,1.8-.43,2.09c-.2.45-.49-2.53-5.06-.94-4.57,1.59-5.71,3.02-6.15,3.64s-1.69,2.33,2.36.44c4.05-1.89,3.78-.89,2.03,1.47s-4.28,4.7-2.65,4.53,2.53-.48,4.95-2.96c2.42-2.48,3.54-4.2,4.14-3.68s.46,1.45.18,1.81c-1.29,1.71-6.59,4.42-6.69,5.33s-.6,1.35.81,1.6c1.17.2,4.81-1.8,6.03-2.56.19-.12.76-.91.76.21,0,.92.89,3.57.89,3.57.18,1.01-.55.29-1.13-.06-1.36-.84-6.72-.78-7.79.2-1.23,1.13.91,2.08,2.71,3.16s3.99,1.55-.15,1.53c-4.14-.02,1.17,2.08,1.17,2.08,0,0,3.73,2.27,1.35,1.43s-6.38-3.38-4.96-.3,5.25,7.06,7,7.45c1.75.39,1.63,2.59,1.13,4.06s-.27,2.09-1.81-1.35c-1.54-3.44-4.44-6.17-4.05-3.61s2.19,10.87,2.69,14.73c.5,3.86-.31,4.83-.74,4.24s-.46-3.42-.61-4.24-3.67,1.97-4.29,1.76-1.08-10.52-.68-15.09c.4-4.57.67-8.81-1.88-13.7s-5.29-5.5-6.48-6.88-4.74-1.71-5.82-.83.24,1.27-3.56.83-5.49-3.02-11.13-1.3c-5.52,1.68-5.83,2-5.83,2Z"/></g></g></g><path id="y-5-4" class="cls-6" d="M793.1,545.82s-.41,5.15-2.68-1.44c-1.54-4.48-12.77-9.14-16.44-12.37-3.17-2.77-5.76-3.43-9.52-2.38-2.65.74-3.64,30.03-6.35,30.27-1.91.16-5.71-28.73-7.58-28.38-2.98.54-5.86,1.49-8.58,2.81-6.43,3.1-10.4,5.3-13.31,10.89-1.71,3.31-1.27,25.42-10.35,16.86-10.17-9.59-17.4-49.99-29.18-54.09-3.75-1.35-7.39-3.01-10.87-4.95-4.29-2.33-7.96-2.15-11.25.55-3.05,2.51-6.08,5.16-9.02,7.71-4.68,4.07.2,66.03-14.07,35.47-2.21-4.73-10.1-16.38-15.8-15.1-11.34,2.56-19.24,6.98-25.6,14.34-5.45,6.3-11.85,11.93-18.05,17.36-1.02.89-2.04,1.78-3.05,2.67-3.34,2.96-4.05,25.43-7.26,26.05-3.57.71-9.77-20.67-14.13-22.59-9.93-4.37-20.7-7.4-31.15-10.32-3.37-.94-6.84-1.92-10.25-2.93-2.27-.61-4.67-.58-6.93.08-.83.24-1.66.47-2.49.69-8.85,2.3-16.87,1.62-25.36,2.9-4.4.66-7.77,30.03-10.89,31.16-9.28,3.36-18.35-33.95-26.56-36.5-5.02-1.55-8.42,1.34-12.51,5.07-3.9,3.55-8.77,6.1-13.1,6.84-2.63.45-8.71,37.36-11.34,37.58-8.91.75-13.95-35.22-19.4-26.28-.83,1.35-4.55,5.64-6.58,6.93-10.57,6.71-16.36,9.86-22.37,20.9-4.37,8.03-8.29,16.12-15.55,13.56-1.08-.38-6.13-6.62-5.79-7.03,1.31-1.55,3.85-.81,4.62-.54,6.08,2.15,10.87-.18,14.66-7.13,6.25-11.47,14.87-19.96,26.38-26.01.86-.45,2.15-1.13,2.64-1.92,6.08-9.97,15.5-10.77,24.61-11.53,2.57-.22,5.23-.44,7.76-.87,3.89-.66,8.34-3,11.89-6.25,4.7-4.29,9.2-6.36,15.03-4.56,7.84,2.42,15.72,5.97,24.26,2.88,3.63-1.31,8.03-.85,12.24-.18,8.9,1.45,17.8.8,27.21-1.99,2.7-.79,5.56-.82,8.28-.09,3.39,1,6.84,1.98,10.22,2.92,10.51,2.95,21.38,6,31.46,10.44,8.52,3.74,13.7,1.48,18.86-3.07,1.02-.89,2.04-1.79,3.06-2.69,6.13-5.38,12.47-10.95,17.81-17.13,6.71-7.75,15.01-12.42,26.87-15.1,5.26-1.19,10.47-4.81,14.41-7.82,4.96-3.8,9.77-7.98,14.43-12.02,2.95-2.56,6-5.21,9.07-7.74,4.04-3.34,8.71-3.61,13.88-.8,3.37,1.88,6.88,3.48,10.51,4.79,12.14,4.22,22.89,11.3,32.86,21.63,2.28,2.31,4.86,4.3,7.67,5.93,3.34,1.97,6.45,1.68,10.16-.92,2.8-1.96,6.68-2.68,9.52-3.2,1.99-.37,4.02-.54,5.99-.7,2.7-.23,5.28-.45,7.74-1.13,4.54-1.26,7.94-.42,11.72,2.89,3.5,3.07,7.41,5.64,11.61,7.63,3.96,1.87,5.67,4.17,5.92,7.97Z"/><g id="Leaves_Stripe"><path class="cls-24" d="M506.78,450.58c-1.85,3.29-4.24,5.16-7.89,4.06-1.2-.36-2.53-.32-4.05-.49,3.53-4.6,7.76-5.81,11.94-3.57Z"/><path class="cls-21" d="M492.94,461.87c-1.8,3.14-4.11,4.91-7.6,3.83-1.15-.36-2.42-.33-3.88-.5,3.42-4.38,7.48-5.5,11.48-3.32Z"/><path class="cls-2" d="M485.24,448.45c2.27,1.59,3.46,3.47,2.4,6.06-.35.85-.42,1.82-.65,2.92-3.11-2.91-3.68-6.08-1.75-8.98Z"/><path class="cls-2" d="M567.97,381.41c-.72,2.68-2.07,4.44-4.87,4.33-.92-.04-1.86.23-2.97.39,1.67-3.92,4.45-5.54,7.84-4.72Z"/><path class="cls-16" d="M532.93,420.34c3.58-4.63,7.8-7.06,13.57-4.88,1.9.72,4.07.86,6.52,1.34-6.54,6.34-13.64,7.5-20.08,3.54Z"/><path class="cls-20" d="M507.63,441.71c2.96-5.86,7.09-9.44,13.91-8.26,2.25.39,4.67.08,7.47.09-5.85,8.37-13.43,11.16-21.38,8.17Z"/><path class="cls-3" d="M551.12,381.56c3.17,3.14,4.51,6.64,1.95,11.07-.84,1.46-1.26,3.17-1.99,5.08-4.11-5.59-4.03-11.3.04-16.15Z"/><path class="cls-3" d="M502.35,423.44c2.72,5.97,2.94,11.43-2.24,16.02-1.71,1.51-2.98,3.6-4.74,5.77-2.88-9.8-.32-17.46,6.98-21.79Z"/><path class="cls-6" d="M475.85,462.57c2.11,4.62,2.27,8.84-1.73,12.38-1.32,1.17-2.3,2.78-3.66,4.46-2.23-7.58-.25-13.5,5.39-16.85Z"/><path class="cls-16" d="M461.25,479.75c3.19.86,5.38,2.54,5.5,6.02.04,1.15.44,2.31.72,3.7-4.73-2.03-6.88-5.49-6.21-9.72Z"/><path class="cls-16" d="M565.4,368.57c.72,2.05.63,3.85-1.21,5.21-.61.45-1.09,1.1-1.73,1.76-.66-3.31.4-5.76,2.94-6.98Z"/><path class="cls-10" d="M561.05,399.93c-1.41,4.43-3.84,7.31-8.58,7-1.56-.1-3.17.31-5.07.52,3.11-6.45,7.96-9.04,13.65-7.52Z"/><path class="cls-24" d="M538.53,398.08c1.69,3.2,1.98,6.2-.73,8.89-.89.89-1.53,2.07-2.43,3.33-1.89-5.31-.72-9.6,3.16-12.22Z"/><path class="cls-6" d="M529.58,415.29c-1.61,7.52-5.16,12.66-13.02,12.9-2.59.08-5.18,1.01-8.27,1.66,4.1-11.13,11.68-16.16,21.3-14.57Z"/></g><g id="Romburi"><polygon class="cls-2" points="408.18 552.73 411.21 553.02 411.45 556.08 408.42 555.79 408.18 552.73"/><polygon class="cls-8" points="394.84 502.92 395.78 509.34 389.57 511.38 388.64 504.97 394.84 502.92"/><polygon class="cls-2" points="364.32 528.57 368.48 529.85 367.93 534.21 363.76 532.92 364.32 528.57"/><polygon class="cls-9" points="337.97 593.27 337.32 588.96 341.49 587.57 342.13 591.88 337.97 593.27"/><polygon class="cls-9" points="359.26 552.63 360.71 554.42 359.2 556.18 357.74 554.39 359.26 552.63"/><polygon class="cls-9" points="426.68 510.07 428.96 512.87 426.58 515.62 424.3 512.82 426.68 510.07"/><polygon class="cls-11" points="406.25 531.02 408.7 531.52 408.63 534.14 406.18 533.64 406.25 531.02"/><polygon class="cls-10" points="390.34 550.4 390.41 556.96 383.9 558.17 383.83 551.61 390.34 550.4"/><polygon class="cls-11" points="375.25 578.91 370.11 583.01 365.15 578.62 370.29 574.53 375.25 578.91"/><polygon class="cls-8" points="342.59 525.16 343.64 526.8 342.19 528.13 341.14 526.49 342.59 525.16"/><polygon class="cls-8" points="411.55 514.51 410.57 516.19 408.73 515.51 409.71 513.82 411.55 514.51"/><polygon class="cls-24" points="379.98 536 381.37 533.67 383.92 534.65 382.53 536.97 379.98 536"/><polygon class="cls-24" points="298.32 523.84 302.48 525.12 301.93 529.48 297.76 528.19 298.32 523.84"/><polygon class="cls-3" points="330.98 547.59 329.72 554.04 323.1 553.9 324.37 547.46 330.98 547.59"/><polygon class="cls-9" points="323.22 528.36 324.27 530.01 322.82 531.33 321.77 529.69 323.22 528.36"/><polygon class="cls-11" points="313.11 520.73 314.95 518.73 317.25 520.21 315.41 522.2 313.11 520.73"/><polygon class="cls-16" points="431.29 473.66 433.2 473.26 433.93 475.08 432.02 475.48 431.29 473.66"/><polygon class="cls-9" points="429.02 490.24 430.93 489.83 431.66 491.66 429.75 492.06 429.02 490.24"/><polygon class="cls-11" points="418.33 497.02 417.1 494.6 419.29 492.97 420.51 495.38 418.33 497.02"/><polygon class="cls-8" points="344.25 574.51 345.64 572.18 348.19 573.16 346.8 575.48 344.25 574.51"/></g><g id="Leaves"><path class="cls-20" d="M252.94,299.66c-2.92,1.4-5.59,1.48-7.85-1.31-.75-.92-1.77-1.61-2.84-2.56,4.79-1.46,8.55-.04,10.7,3.87Z"/><path class="cls-7" d="M244.27,304.29c-2.06,4.72-5.21,7.57-10.84,6.56-1.85-.33-3.81-.11-6.09-.14,4.27-6.72,10.27-8.91,16.92-6.42Z"/><path class="cls-20" d="M555.21,255.1c-.28-7.04,1.88-12.43,9.41-14.55,2.48-.7,4.75-2.15,7.58-3.47-1.23,10.83-7.31,17.11-16.99,18.02Z"/><path class="cls-14" d="M557.94,261.2c1.88-4.08,4.68-6.53,9.58-5.55,1.61.32,3.32.16,5.32.23-3.84,5.8-9.12,7.61-14.89,5.32Z"/><path class="cls-21" d="M554.43,227.91c4.23,3.98,6.15,8.23,3.17,13.29-.98,1.66-1.41,3.66-2.22,5.87-5.58-6.96-5.83-13.72-.95-19.16Z"/><path class="cls-20" d="M216.27,239.29c2.15-3.95,5.11-6.19,9.93-4.88,1.59.43,3.31.38,5.29.59-4.23,5.53-9.62,6.97-15.22,4.3Z"/><path class="cls-20" d="M255.67,230.37c2.31-2.2,4.79-3.08,7.76-1.15.98.63,2.15.97,3.44,1.54-4.05,2.82-8,2.63-11.21-.39Z"/><path class="cls-14" d="M260.62,242.02c4.24,1.54,6.91,4.14,6.34,9.12-.19,1.64.12,3.34.21,5.33-6.12-3.36-8.36-8.49-6.55-14.45Z"/><path class="cls-7" d="M244,227.22c3.58,5.06,4.71,9.86.64,14.36-1.34,1.48-2.18,3.43-3.46,5.51-4.38-8.43-3.29-15.42,2.82-19.87Z"/><path class="cls-21" d="M232.68,224.26c-1.94,2.71-4.32,4.09-7.75,2.69-1.13-.46-2.4-.58-3.84-.91,3.61-3.68,7.71-4.26,11.59-1.78Z"/><path class="cls-21" d="M255.86,255.09c-1.79-.25-3.05-.99-3.2-2.81-.05-.6-.3-1.19-.49-1.89,2.67.77,3.95,2.45,3.69,4.71Z"/><path class="cls-20" d="M243.69,371.57c-2.92,1.28-5.55,1.25-7.69-1.57-.7-.93-1.69-1.65-2.71-2.62,4.77-1.26,8.42.26,10.4,4.19Z"/><path class="cls-20" d="M284.44,355.77c1.29,2.97,1.26,5.64-1.61,7.8-.95.71-1.68,1.71-2.67,2.75-1.27-4.84.28-8.54,4.27-10.54Z"/><path class="cls-14" d="M300.44,377.81c-1.76-4.14-1.68-7.85,2.34-10.82,1.32-.98,2.35-2.35,3.74-3.78,1.71,6.74-.51,11.87-6.08,14.6Z"/><path class="cls-14" d="M228.5,377.01c2.28-3.35,5.13-5.11,9.34-3.5,1.39.53,2.93.63,4.69.99-4.28,4.59-9.25,5.41-14.04,2.51Z"/><path class="cls-7" d="M288.81,366.66c3.96.6,6.71,2.22,6.98,6.13.09,1.29.62,2.55,1.02,4.08-5.89-1.73-8.66-5.37-8-10.21Z"/><path class="cls-7" d="M273.79,380.01c-2.5,5-5.84,7.94-11.15,6.62-1.75-.44-3.66-.27-5.85-.41,4.84-7.07,10.86-9.17,17-6.21Z"/><path class="cls-21" d="M258.35,380.09c-.5,1.91-1.46,3.18-3.46,3.12-.66-.02-1.32.18-2.12.29,1.17-2.8,3.15-3.98,5.57-3.41Z"/><path class="cls-21" d="M274.02,366.81c-2.98-.39-5.09-1.7-5.44-5.02-.11-1.09-.56-2.15-.91-3.44,4.47,1.3,6.67,4.32,6.35,8.46Z"/><path class="cls-20" d="M757.32,483.84c-2.97,6.38-7.36,10.18-15.01,8.62-2.52-.52-5.2-.27-8.31-.38,6.04-9.05,14.32-11.85,23.33-8.23Z"/><path class="cls-14" d="M735.13,494.87c4.04.31,6.99,1.9,7.7,6.35.23,1.46.91,2.86,1.48,4.56-6.11-1.42-9.3-5.32-9.18-10.91Z"/><path class="cls-7" d="M763.77,504.38c-3.15,2.47-6.22,3.35-9.25.86-1-.82-2.28-1.3-3.66-2.06,5.3-3.09,9.85-2.6,12.91,1.2Z"/><path class="cls-16" d="M732.65,517.87c-4-3.9-5.79-7.98-2.91-12.63.95-1.53,1.37-3.4,2.17-5.45,5.26,6.76,5.43,13.14.74,18.08Z"/><path class="cls-21" d="M763.56,473.82c-1.15-2.78-1.07-5.26,1.63-7.22.89-.64,1.59-1.56,2.53-2.5,1.1,4.52-.42,7.93-4.16,9.72Z"/><path class="cls-2" d="M783.72,487.76c-2.88,3.03-5.95,4.39-9.57,2.23-1.19-.71-2.63-1.03-4.21-1.62,5.03-3.98,9.89-4.13,13.78-.6Z"/><path class="cls-21" d="M699.13,495.93c-3.9,1.49-7.26,1.39-9.59-2.12-.77-1.16-1.93-2.06-3.1-3.28,6.26-1.42,10.7.54,12.69,5.4Z"/><path class="cls-20" d="M655.37,286.25c-3.59-1.83-5.77-4.36-5.04-8.54.24-1.38.06-2.86.07-4.58,5.12,3.6,6.82,8.25,4.97,13.12Z"/><path class="cls-3" d="M677.28,263.01c.2,2.73-.6,4.88-3.57,5.9-.98.33-1.86.96-2.97,1.54.36-4.24,2.7-6.84,6.54-7.44Z"/><path class="cls-3" d="M627.59,280.17c.27,4.02-.8,7.19-4.76,8.7-1.31.5-2.49,1.42-3.97,2.28.48-6.25,3.61-10.08,8.73-10.98Z"/><path class="cls-10" d="M667.11,284.78c-2.09.89-3.93.92-5.33-.94-.46-.61-1.13-1.08-1.81-1.71,3.38-.91,5.89.06,7.15,2.65Z"/><path class="cls-24" d="M664.05,270.85c-.46,2.17-1.51,3.7-3.84,3.9-.77.07-1.53.38-2.45.61,1.19-3.24,3.43-4.81,6.29-4.51Z"/><path class="cls-10" d="M644.98,281.41c-2.56,3.96-5.71,6.14-10.27,4.57-1.5-.52-3.19-.54-5.11-.84,4.77-5.49,10.2-6.74,15.38-3.73Z"/><path class="cls-16" d="M791.06,314.46c7.11-4.15,13.66-4.77,19.31,2.18,1.86,2.29,4.4,3.94,7.06,6.27-11.71,4.6-20.97,1.48-26.37-8.45Z"/><path class="cls-3" d="M807.35,294.88c-7.65-7.43-11.2-15.55-6.07-25.56,1.69-3.29,2.38-7.2,3.75-11.53,10.15,13.13,10.8,26.22,2.31,37.09Z"/><path class="cls-3" d="M807.13,219.41c.47-9.64,4.17-16.84,14.99-19.13,3.56-.75,6.92-2.56,11.05-4.14-3.06,14.7-12.36,22.8-26.05,23.27Z"/><path class="cls-10" d="M841.67,310.81c7.9-4.21,15.13-4.67,21.21,2.94,2,2.51,4.77,4.35,7.65,6.92-12.97,4.54-23.11.92-28.87-9.86Z"/><path class="cls-10" d="M857.64,196.91c6.45,17.48,5.91,32.95-9.71,44.84-5.15,3.92-9.18,9.54-14.61,15.34-6.08-28.33,2.77-49.45,24.33-60.18Z"/><path class="cls-24" d="M812.18,300.9c4.92-12.72,12.55-20.73,26.39-18.97,4.56.58,9.35-.34,14.95-.61-10.26,18.34-24.93,25.05-41.33,19.58Z"/><path class="cls-2" d="M803.66,197c-3.41-9.03-2.89-17.11,6.12-23.53,2.97-2.11,5.33-5.11,8.48-8.2,3.06,14.7-2.24,25.84-14.6,31.73Z"/></g><rect class="cls-3" x="732.56" y="154.83" width="26.2" height="6.38" transform="translate(106.66 573.54) rotate(-45)"/><rect class="cls-6" x="717.15" y="136.55" width="39.32" height="6.38" transform="translate(116.99 561.93) rotate(-45)"/><rect class="cls-2" x="660.38" y="194.94" width="25.58" height="6.38" transform="translate(57.07 534.03) rotate(-45)"/><rect class="cls-24" x="700.98" y="212.25" width="33.4" height="6.38" transform="translate(57.86 570.58) rotate(-45)"/><rect class="cls-3" x="406.7" y="660.75" width="13.42" height="3.27" transform="translate(-347.3 486.33) rotate(-45)"/><rect class="cls-6" x="407.87" y="670.12" width="20.15" height="3.27" transform="translate(-352.59 492.28) rotate(-45)"/><rect class="cls-2" x="444" y="640.2" width="13.11" height="3.27" transform="translate(-321.88 506.58) rotate(-45)"/><rect class="cls-24" x="419.19" y="631.33" width="17.12" height="3.27" transform="translate(-322.29 487.85) rotate(-45)"/><path class="cls-16" d="M287.3,93.33c6.52-2.3,12.02-1.78,15.58,4.85,1.17,2.18,3,3.95,4.83,6.28-10.38,1.94-17.53-2.09-20.41-11.13Z"/><path class="cls-3" d="M448.54,118.81c-8.43-3.01-13.98-7.98-13.55-17.4.14-3.11-.69-6.33-1.15-10.12,12.33,6.49,17.39,16.26,14.7,27.52Z"/><path class="cls-10" d="M480.31,119.01c4.57-5.98,9.93-8.84,17.23-5.15,2.41,1.22,5.16,1.66,8.26,2.61-8.32,7.99-17.33,8.76-25.49,2.54Z"/><path class="cls-24" d="M454.33,121.73c-.68-11.43,2.36-20.21,13.54-23.69,3.68-1.15,7.02-3.52,11.2-5.68-1.44,17.59-10.31,27.83-24.74,29.37Z"/><path class="cls-3" d="M130.3,123.04c1.85-7.89,6-13.28,15.29-13.53,3.06-.08,6.11-1.06,9.76-1.74-4.76,11.67-13.67,16.95-25.04,15.26Z"/><path class="cls-10" d="M160.52,46.62c11.02,11.1,16.01,23.11,8.22,37.64-2.56,4.79-3.68,10.49-5.81,16.81-14.53-19.52-15.14-38.74-2.41-54.45Z"/><path class="cls-2" d="M146.96,93.41c-7.76,2.35-14.5,1.45-19.36-6.46-1.6-2.61-3.98-4.75-6.39-7.57,12.49-1.73,21.52,3.35,25.75,14.03Z"/><g id="Editia"><path class="cls-6" d="M169.08,603.74c-8.76-4.82-18.39-15.7-16.98-26.4.26-1.81.87-3.54,1.61-5.19,1.48-3.4,4.42-5.97,7.31-8.16,5.8-4.22,12.51-7.31,19.59-8.57,3.36-.58,6.82-.7,10.21-.23,5.33.69,10.05,3.39,11.96,8.67,3.32,9.11.98,23.95-3.43,32.16-1.43,2.6-5.76,4.51-7.94,6.53-6.58,6.11-14.9,5.31-22.32,1.2h0Z"/><path class="cls-17" d="M170.7,592.83l-3.64-1.96,13.07-24.23-1.29-.97,2.42-3.02,4.43,2.39-14.99,27.79Z"/><path class="cls-17" d="M187.78,590.79c-3.67,6.8-8.9,6.68-12.5,4.74-.65-.35-1.35-.87-1.74-1.26l1.63-3.02c.43.42.96.8,1.58,1.13,1.87,1.01,4.83.61,7.14-3.68,2.5-4.64.58-7.36-1.15-8.29l2.27-2.49c1.3.7,3.51.13,4.83-2.32s.56-4.39-1.06-5.27c-.65-.35-1.26-.59-1.94-.72l1.61-2.99c.67.13,1.29.37,2.08.8,3.56,1.92,5.63,5.41,2.99,10.3-1.57,2.92-3.83,3.65-5.55,3.65,1.09,1.52,2.17,5.03-.2,9.42Z"/><path class="cls-17" d="M192.7,604.92c-9.24,3.9-23.77,4.72-31.23-3.06-1.25-1.33-2.22-2.89-3.05-4.51-1.73-3.29-1.89-7.21-1.8-10.85.33-7.21,2.12-14.42,5.56-20.79,1.65-3.01,3.72-5.82,6.2-8.19,3.88-3.78,8.93-5.81,14.26-4.02,9.19,3.06,19.31,14.15,22.96,22.75,1.13,2.75-.09,7.35.13,10.33.66,8.99-5.18,15.06-13.03,18.35h0ZM203.18,596.37c2.04-3.29,2.49-7.22,1.87-10.99-.38-2.47-1.24-4.84-2.2-7.14-.98-2.31-3.45-4.5-4.62-6.73-2.97-5.5-5.03-11.07-10.14-14.81-2.98-2.18-6.74-3.65-10.45-3.03-6.67,1.18-7.6,9.54-10.7,15.09-2.39,4.35-7.65,6.75-8.93,11.57-1.29,5.17-.53,10.11,1.77,15.09,1.28,2.61,1.92,5.64,4.17,7.43,8.25,6.39,20.93,1.03,26.48-.97,0,0,10.37-1.59,12.76-5.52Z"/><path class="cls-15" d="M204.11,550.31c6.5-6.42,13.52-9.31,21.99-4.74,2.79,1.5,6.12,2.17,9.81,3.42-11.42,8.45-22.64,8.78-31.8,1.32Z"/><path class="cls-5" d="M196.65,534.26c3.34,6.46,2.45,11.9-2.32,15.46-2.74-3.86-3.59-7.57-.4-11.13,0,0,3.13-2.71,2.72-4.33Z"/><path class="cls-21" d="M230.31,516.41c-.49,10.69-4.18,18.55-14.91,20.69-3.54.7-6.87,2.58-10.97,4.18,3.07-16.21,12.31-24.85,25.88-24.86Z"/></g><text class="cls-34" transform="translate(62.99 585.93)"><tspan class="cls-31" x="0" y="0">L</tspan><tspan x="5.63" y="0">UC</tspan><tspan class="cls-29" x="19.42" y="0">K</tspan><tspan x="26.74" y="0">Y NUMBER</tspan></text><text class="cls-34" transform="translate(216.11 585.93)"><tspan class="cls-35" x="0" y="0">E</tspan><tspan x="6.14" y="0">DITION</tspan></text></g></g></svg>