<svg xmlns="http://www.w3.org/2000/svg" viewBox="0 0 1920 420.05"><defs><style>.cls-1{fill:#da0000;}</style></defs><g id="Layer_2" data-name="Layer 2"><g id="Section_4_-_Trasee" data-name="Section 4 - Trasee"><g id="Maraton"><g id="Maraton_Graphic" data-name="Maraton Graphic"><path class="cls-1" d="M1100.18,420.05c-18.43,0-37.55-5.44-58.7-16.19C978.64,372,910,348.55,843.58,325.91c-21.36-7.28-43.44-14.81-65-22.5-14-5-32.35-5.81-47.92-2.11-63.14,15-122.18,16.05-180.5,3.2-25.64-5.66-52.38-10-74.12-3.45a164.86,164.86,0,0,1-47.94,7c-40.52,0-78.37-14-115.33-27.68-33.62-12.44-58.08-8-87.23,15.81-25.46,20.79-56.83,35.06-83.92,38.18-20.4,2.35-36.43,3.56-49.31,4.53-34.47,2.59-52.85,4.22-92.31,22v-4c40.1-18,57.08-19.33,92-22,12.84-1,28.83-2.17,49.15-4.51,26.36-3,57-17,81.85-37.31,30.43-24.86,56-29.47,91.15-16.46,50.52,18.69,102.77,38,160.72,20.59,22.62-6.8,50-2.4,76.15,3.37,57.7,12.72,116.16,11.68,178.7-3.18,16.29-3.86,35.52-3,50.2,2.23,21.52,7.69,43.6,15.21,64.94,22.49,66.54,22.67,135.33,46.13,198.42,78.17,48.19,24.48,85.5,20.5,128.77-13.72q10.31-8.15,20.67-16.27c41.6-32.66,84.62-66.44,121.52-104.66,45.13-46.76,99.25-73.34,175.5-86.2,35.44-6,71-27.87,98-46.28,33.46-22.82,66.06-48.12,97.59-72.58,19.91-15.45,40.49-31.43,61.12-46.64,25.21-18.6,53.29-18.6,83.43,0,21.52,13.28,67.57,57.4,90.16,96.26v7.16c-22.31-38.36-71.08-86.94-92.26-100-29-17.92-54.85-18-79-.2-20.58,15.18-41.15,31.14-61,46.58-31.57,24.5-64.22,49.84-97.79,72.73-27.32,18.63-63.33,40.8-99.54,46.91-75.34,12.71-128.79,38.94-173.29,85-37.09,38.43-80.21,72.29-121.92,105q-10.35,8.13-20.66,16.27C1148.83,410.06,1125.14,420.05,1100.18,420.05Z"/><circle class="cls-1" cx="194.07" cy="340.48" r="64.33"/></g></g></g></g></svg>