<svg xmlns="http://www.w3.org/2000/svg" viewBox="0 0 100 74.82"><defs><style>.cls-1{fill:#101111;}</style></defs><g id="Layer_2" data-name="Layer 2"><g id="Section_1_-_TOP" data-name="Section 1 - TOP"><path id="Hamburger_Menu_Icon" data-name="Hamburger Menu Icon" class="cls-1" d="M92.56,14.87H7.44A7.44,7.44,0,1,1,7.44,0H92.56a7.44,7.44,0,1,1,0,14.87ZM100,37.41A7.44,7.44,0,0,0,92.56,30H7.44a7.44,7.44,0,0,0,0,14.88H92.56A7.44,7.44,0,0,0,100,37.41Zm0,30A7.44,7.44,0,0,0,92.56,60H7.44a7.44,7.44,0,1,0,0,14.87H92.56A7.44,7.44,0,0,0,100,67.38Z"/></g></g></svg>