<svg xmlns="http://www.w3.org/2000/svg" viewBox="0 0 1920.26 312.7"><defs><style>.cls-1{fill:#830000;}.cls-2{fill:#ffad1d;}.cls-3{fill:#00e0dd;}.cls-4{fill:#ff6914;}.cls-5{fill:#da0000;}</style></defs><g id="Layer_2" data-name="Layer 2"><g id="Section_7_-_CTA" data-name="Section 7 - CTA"><g id="Mountains_-_Bottom_Group" data-name="Mountains - Bottom Group"><g id="Mountains-2"><path id="y" class="cls-1" d="M32.08,77.15V245c-.17-3.77,11.46-138.39,13.44-147.17,1.35-6,4.9-36.46,9.16-41.11,3.68-4,6.9-5.21,11.88-4.4,3.51.58,8.91,38,12.42,38,2.47-.06,3.27-37.68,5.73-37.52a42.81,42.81,0,0,1,11.41,2.39c8.69,3.08,14.11,5.34,18.62,12.1,2.66,4,10.69,87.53,13.22,84.26,11-14.28,17.72-130.69,32.26-137.6A94.62,94.62,0,0,0,173.47,6c5.18-3.6,9.92-3.89,14.51-.88,4.27,2.8,8.54,5.75,12.67,8.62,6.59,4.56,15.72,92.07,22.7,96.29,5.76,3.51,11-75.21,18.52-74.36,14.92,1.69,25.68,6.26,34.87,14.8,7.89,7.32,16.9,13.64,25.61,19.74l4.3,3c4.71,3.32,11.08,154.61,15.28,155,4.68.41,7.33-150.46,12.66-153.54,12.13-7,25.52-12.42,38.53-17.64,4.19-1.69,8.5-3.43,12.74-5.21a16.73,16.73,0,0,1,8.91-.87c1.1.2,2.19.38,3.29.54,11.68,1.71,21.88-.3,32.95.14,5.74.23,10.63,24.42,16.68,28.82,12.39,3,20.75-33.87,30.93-38.29,6.23-2.7,10.69-2.14,16.47,2.08,5.5,4,12.12,6.58,17.77,6.92,3.43.22,16.45,46.72,19.85,46.64,11.55-.3,12.94-47.18,21.2-36.46,1.25,1.62,6.64,6.6,9.41,8C577.84,76.44,585.71,79.67,595,93c6.75,9.68,12.91,19.51,21.87,15.2,1.26-.6,43.25,31.3,28.31,13.57a21.94,21.94,0,0,0-4.46-3.92c-3.72-2.56-17-19.08-17.41-19.48-1.9-1.8-5-.5-6,0-7.5,3.61-14,1.3-19.81-7.09A80.09,80.09,0,0,0,560,61.57c-1.16-.46-2.92-1.14-3.65-2.1-9.21-11.94-21.41-11.63-33.22-11.33-3.32.09-6.77.17-10.07,0-5.09-.31-11.13-2.68-16.15-6.35-6.63-4.84-12.28-5.54-19.51-2.42-9.71,4.21-19.75,8.56-31.14,5.8-4.85-1.18-10.43,0-15.74,1.5a77.42,77.42,0,0,1-35.21,1.29A19.78,19.78,0,0,0,384.65,49c-4.21,1.76-8.51,3.5-12.71,5.19C358.87,59.45,345.35,64.9,333,72c-10.41,6-17.38,3.84-24.63-1.28l-4.31-3c-8.63-6-17.55-12.3-25.28-19.48-9.71-9-21-13.83-36.62-15.59-6.92-.79-14.11-4.7-19.6-8-6.9-4.17-13.67-8.86-20.21-13.39-4.15-2.88-8.44-5.84-12.73-8.67C184-1.14,178-.83,171.72,3.5a91.61,91.61,0,0,1-12.82,7.63c-15,7.13-27.78,17.73-39.12,32.4a46.89,46.89,0,0,1-9,8.69c-4,3-8,3.06-13.18.25C93.73,50.34,88.65,50,84.94,49.7c-2.61-.19-5.24-.13-7.79-.06a55,55,0,0,1-10.09-.36c-6-1-10.25.57-14.64,5.36A64.88,64.88,0,0,1,38.59,66.07C33.74,69,31.86,72.24,32.08,77.15Z"/><path id="y-2" class="cls-2" d="M0,93.68l0,165.7c-.16-3.76,10.57-136.67,12.56-145.45,1.34-6,4.89-36.46,9.15-41.11,3.68-4,6.9-5.21,11.88-4.4,3.54.57,8.92,38,12.42,38,2.5-.06,3.28-37.68,5.73-37.53A43,43,0,0,1,63.2,71.27c8.68,3.07,14.1,5.33,18.61,12.09,2.66,4,10.7,87.53,13.23,84.26,11-14.28,17.71-130.69,32.25-137.6a93.77,93.77,0,0,0,13.26-7.88c5.17-3.6,9.91-3.88,14.51-.88,4.26,2.8,8.54,5.76,12.67,8.62,6.58,4.56,15.72,92.07,22.7,96.3,5.75,3.5,11-75.22,18.51-74.36,14.93,1.69,25.68,6.25,34.88,14.79,7.88,7.33,16.89,13.64,25.6,19.75l4.3,3c4.71,3.33,11.08,154.61,15.28,155,4.68.41,7.33-150.45,12.66-153.54,12.13-7,25.52-12.41,38.53-17.64,4.19-1.69,8.5-3.43,12.75-5.21a16.78,16.78,0,0,1,8.9-.87c1.1.2,2.2.38,3.29.54,11.69,1.71,21.88-.3,32.95.14,5.74.23,19.49,121.43,23.65,122.44,12.39,3,13.79-127.49,24-131.91,6.22-2.7,10.68-2.14,16.46,2.08,5.48,4,12.12,6.59,17.77,6.93,3.43.21,16.45,46.72,19.85,46.63,11.55-.29,12.94-47.17,21.2-36.46,1.25,1.62,6.64,6.6,9.41,8,14.52,7.12,22.39,10.35,31.66,23.67,6.75,9.69,12.92,19.51,21.87,15.2,1.34-.64,6.4,54.05,6.48,64.11,0,3.29.46-73.47,0-73.94-1.89-1.8-5.05-.5-6,0-7.51,3.61-14,1.3-19.82-7.08A80,80,0,0,0,527,77.68c-1.16-.46-2.92-1.14-3.65-2.1C514.18,63.64,502,64,490.17,64.25c-3.33.09-6.77.17-10.07,0-5.1-.34-11.14-2.7-16.16-6.34-6.63-4.85-12.28-5.55-19.51-2.43-9.72,4.21-19.76,8.56-31.15,5.8-4.84-1.17-10.43,0-15.74,1.5a77.15,77.15,0,0,1-35.21,1.29,19.88,19.88,0,0,0-10.63,1.06c-4.21,1.77-8.51,3.5-12.71,5.19C325.92,75.58,312.4,81,300.09,88.15c-10.42,6-17.38,3.85-24.64-1.28l-4.3-3c-8.64-6-17.56-12.29-25.28-19.48-9.71-9-21-13.83-36.63-15.59-6.92-.79-14.11-4.7-19.59-8-6.9-4.17-13.67-8.86-20.22-13.39-4.14-2.87-8.44-5.84-12.73-8.66C151,15,145,15.3,138.78,19.64A92,92,0,0,1,126,27.26c-15,7.13-27.78,17.73-39.12,32.4a46.89,46.89,0,0,1-9,8.69c-4,3-8,3.06-13.18.25-3.87-2.13-9-2.5-12.66-2.77-2.61-.19-5.24-.12-7.79-.06a54.13,54.13,0,0,1-10.09-.36c-6-1-10.26.58-14.64,5.36A65.28,65.28,0,0,1,5.65,82.18C.83,85.12-.18,88.76,0,93.68Z"/><path id="y-3" class="cls-3" d="M93,228.91l23.44-34.55c-.16-3.77,29.11-5.62,31.1-14.41,1.35-6,36-93.42,40.24-98.07,3.69-4,6.91-5.22,11.89-4.41,3.5.58,8.91,38,12.42,38,2.47-.06,3.27-37.68,5.73-37.51a42.93,42.93,0,0,1,11.41,2.41c8.69,3.07,14.1,5.33,18.61,12.1,2.67,4,10.7,87.52,13.23,84.25,11-14.28,17.71-130.69,32.25-137.6a95.7,95.7,0,0,0,13.26-7.88c5.18-3.6,9.91-3.89,14.51-.89,4.26,2.8,8.53,5.76,12.67,8.63,6.58,4.55,15.72,92.06,22.7,96.29,5.75,3.51,11-75.21,18.51-74.36,14.92,1.69,25.68,6.25,34.88,14.8C417.7,83,426.71,89.3,435.43,95.41l4.29,3c4.71,3.32,11.08,154.62,15.28,155,4.68.41,7.33-150.46,12.66-153.54,12.13-7,25.55-12.42,38.53-17.64,4.19-1.69,8.51-3.43,12.75-5.21a16.78,16.78,0,0,1,8.9-.87c1.1.2,2.2.38,3.29.54,11.69,1.71,21.88-.3,33,.14,5.74.23,14.78,127.67,18.94,128.68,12.39,3,18.5-133.73,28.68-138.15,6.23-2.7,10.69-2.13,16.46,2.08,5.51,4,12.12,6.59,17.78,6.93,3.43.2,16.45,46.72,19.85,46.63,11.54-.3,12.94-47.18,21.19-36.46,1.25,1.62,6.64,6.6,9.42,8,14.51,7.13,22.39,10.36,31.66,23.68,6.74,9.69,12.91,19.51,21.87,15.21,1.33-.65,6.39,54,6.47,64.1,0,3.28.46-73.47,0-73.94-1.9-1.8-5.06-.5-6,0-7.51,3.62-14,1.31-19.82-7.08a80.11,80.11,0,0,0-37.52-29.66c-1.17-.45-2.93-1.14-3.66-2.09C680.18,72.69,668,73,656.18,73.3c-3.33.09-6.78.18-10.08,0C641,73,635,70.6,630,66.93c-6.63-4.84-12.28-5.54-19.51-2.42-9.72,4.21-19.76,8.56-31.15,5.8-4.84-1.17-10.42,0-15.74,1.5a77.39,77.39,0,0,1-35.2,1.29,19.81,19.81,0,0,0-10.64,1.05c-4.2,1.77-8.51,3.5-12.7,5.19-13.08,5.27-26.59,10.71-38.91,17.83-10.41,6-17.38,3.85-24.64-1.28l-4.31-3c-8.62-6.05-17.55-12.3-25.27-19.48-9.71-9-21-13.83-36.62-15.6-6.93-.78-14.11-4.69-19.6-8-6.9-4.17-13.67-8.86-20.22-13.39-4.14-2.87-8.43-5.85-12.73-8.66-5.66-3.73-11.69-3.41-17.92.92A91.61,91.61,0,0,1,292,36.29c-15,7.13-27.78,17.73-39.12,32.4a46.31,46.31,0,0,1-9,8.68c-4,3-8.05,3.07-13.17.25-3.87-2.12-9-2.5-12.67-2.76a77.79,77.79,0,0,0-7.78-.06,54.24,54.24,0,0,1-10.1-.36c-6-1-10.25.57-14.63,5.36-4.07,4.44-18.16,22.14-23.14,25.18C157.53,107.94,92.75,224,93,228.91Z"/><path id="y-4" class="cls-4" d="M373,77.15V245c-.16-3.77,11.46-138.39,13.45-147.17,1.35-6,4.9-36.46,9.15-41.11,3.69-4,6.91-5.21,11.89-4.4,3.53.58,8.91,38,12.42,38,2.47-.06,3.27-37.68,5.73-37.52a42.9,42.9,0,0,1,11.41,2.39c8.69,3.08,14.1,5.34,18.61,12.1,2.67,4,10.7,87.53,13.23,84.26,11-14.28,17.71-130.69,32.25-137.6A94.73,94.73,0,0,0,514.42,6c5.18-3.6,9.92-3.89,14.51-.88,4.26,2.8,8.53,5.75,12.67,8.62,6.58,4.56,15.72,92.07,22.7,96.29,5.75,3.51,11-75.21,18.51-74.36,14.93,1.69,25.68,6.26,34.88,14.8,7.88,7.32,16.89,13.64,25.6,19.74l4.3,3c4.71,3.32,11.08,154.61,15.28,155,4.68.41,7.33-150.46,12.66-153.54,12.13-7,25.52-12.42,38.53-17.64,4.19-1.69,8.51-3.43,12.75-5.21a16.68,16.68,0,0,1,8.9-.87c1.1.2,2.2.38,3.29.54,7.79,1.14,14,2.73,20.49,3.8A19.05,19.05,0,0,1,775,69.66c7,29.28,11.64,94.83,19,106,12.39,3,15.38-129.06,25.56-133.48,6.23-2.7,10.69-2.14,16.47,2.08,5.48,4,12.12,6.58,17.77,6.93,4.58,8.67,16.45,46.71,19.85,46.63,11.55-.3,12.94-47.18,21.2-36.46,1.25,1.62,6.64,6.6,9.41,8C918.71,76.47,926.61,79.7,935.88,93c6.75,9.68,12.91,19.51,21.87,15.2,1.34-.64,6.39,54,6.47,64.11,0,3.28.47-73.47,0-73.94-1.9-1.8-5.05-.5-6,0-7.51,3.61-14,1.3-19.82-7.09A80.11,80.11,0,0,0,900.85,61.6c-1.16-.46-2.92-1.14-3.66-2.1C888,47.56,875.78,47.87,864,48.17c-3.33.09-6.78.17-10.08,0-5.08-.31-11.12-2.68-16.14-6.35-6.64-4.84-12.28-5.54-19.51-2.42-9.72,4.21-19.76,8.56-31.15,5.8-4.85-1.18-10.43,0-15.74,1.5A76.87,76.87,0,0,1,736.2,48,20,20,0,0,0,725.56,49c-4.2,1.77-8.51,3.51-12.7,5.19C699.78,59.49,686.27,64.94,674,72.06c-10.41,6-17.38,3.84-24.64-1.29l-4.3-3c-8.63-6-17.56-12.3-25.28-19.48-9.71-9-21-13.83-36.62-15.6-6.93-.78-14.11-4.69-19.6-8-6.9-4.18-13.67-8.87-20.22-13.4-4.14-2.87-8.43-5.84-12.73-8.66-5.65-3.72-11.69-3.41-17.92.93a92.58,92.58,0,0,1-12.82,7.63c-15,7.13-27.78,17.72-39.12,32.39a46.66,46.66,0,0,1-9,8.69c-4,3-8.05,3.06-13.17.25-3.87-2.13-9-2.5-12.67-2.77-2.6-.19-5.24-.12-7.78-.06a54.27,54.27,0,0,1-10.1-.36c-6-1-10.25.58-14.63,5.36A65.13,65.13,0,0,1,379.51,66.1C374.69,69,372.81,72.24,373,77.15Z"/><path id="y-5" class="cls-5" d="M17.5,144.83,23,163.89c-.17-3.78,6,10.41,8,1.63,1.35-6,4.9-36.46,9.16-41.11,3.68-4,6.9-5.21,11.88-4.4,3.5.57,8.91,38,12.42,38,2.47-.06,3.27-37.68,5.73-37.5a42.75,42.75,0,0,1,11.41,2.4c8.69,3.07,14.1,5.33,18.62,12.1,2.66,4,10.69,87.53,13.22,84.25,11-14.28,17.72-130.69,32.26-137.6a96.19,96.19,0,0,0,13.25-7.88c5.18-3.6,9.92-3.89,14.51-.88,4.27,2.79,8.54,5.76,12.67,8.62,6.59,4.56,15.72,92.07,22.7,96.29,5.76,3.51,11-75.21,18.52-74.36,14.92,1.69,25.68,6.25,34.87,14.8,7.88,7.32,16.9,13.64,25.61,19.74l4.3,3c4.7,3.32,9,65.2,13.16,65.56,4.68.4,9.45-61,14.78-64.13,12.13-7,25.52-12.42,38.53-17.64,4.18-1.69,8.5-3.43,12.74-5.2a16.61,16.61,0,0,1,8.91-.87c1.1.19,2.19.37,3.28.53,11.69,1.71,21.89-.3,33,.15,5.74.22,14.21,37.44,18.37,38.45,12.39,3,19.06-43.51,29.24-47.93,6.23-2.7,10.69-2.13,16.47,2.08,5.5,4,12.12,6.59,17.77,6.93,3.43.21,16.45,46.72,19.85,46.63,11.54-.29,12.94-47.17,21.2-36.46,1.25,1.62,6.64,6.6,9.41,8,14.51,7.13,22.39,10.36,31.66,23.68,6.75,9.69,12.91,19.51,21.87,15.21,1.34-.65,6.39,54,6.47,64.1,0,3.28.47-73.47,0-73.94-1.9-1.8-5.05-.5-6,0-7.51,3.61-14,1.3-19.82-7.08a80.07,80.07,0,0,0-37.52-29.67c-1.17-.45-2.93-1.14-3.66-2.09-9.21-12-21.41-11.64-33.21-11.34-3.33.09-6.78.18-10.08,0-5.09-.31-11.13-2.68-16.15-6.35-6.63-4.84-12.28-5.54-19.51-2.41-9.72,4.2-19.76,8.55-31.15,5.79-4.84-1.17-10.42,0-15.74,1.5a77.39,77.39,0,0,1-35.2,1.29A19.9,19.9,0,0,0,370,116.68c-4.2,1.77-8.51,3.51-12.7,5.19-13.08,5.27-26.59,10.72-38.91,17.84-10.41,6-17.38,3.84-24.64-1.28l-4.31-3c-8.62-6.05-17.55-12.3-25.27-19.48-9.71-9-21-13.83-36.62-15.59-6.93-.79-14.11-4.7-19.6-8-6.9-4.17-13.67-8.86-20.22-13.39-4.14-2.87-8.43-5.84-12.73-8.66-5.66-3.72-11.69-3.41-17.92.93a92.52,92.52,0,0,1-12.82,7.62c-15,7.13-27.78,17.73-39.12,32.4a46.66,46.66,0,0,1-9,8.69c-4,3-8,3.06-13.17.25-3.87-2.12-9-2.51-12.67-2.77-2.6-.19-5.24-.13-7.79-.06A54.16,54.16,0,0,1,52.44,117c-6-1-10.25.57-14.63,5.36A65.13,65.13,0,0,1,24,133.76C19.16,136.71,17.28,139.92,17.5,144.83Z"/></g><g id="Mountains-2-2" data-name="Mountains-2"><path id="y-2-2" data-name="y" class="cls-1" d="M548.93,144.85V312.7c-.16-3.76,11.46-138.39,13.45-147.17,1.35-6,4.9-36.45,9.15-41.1,3.69-4,6.91-5.22,11.89-4.41,3.5.58,8.91,38,12.42,38,2.47-.07,3.27-37.69,5.72-37.53a42.9,42.9,0,0,1,11.42,2.4c8.69,3.07,14.1,5.33,18.61,12.1,2.67,4,10.7,87.53,13.23,84.25,11-14.28,17.71-130.69,32.25-137.6a93.77,93.77,0,0,0,13.26-7.88c5.18-3.6,9.92-3.88,14.51-.88,4.26,2.8,8.54,5.76,12.67,8.62,6.58,4.56,15.72,92.07,22.7,96.3,5.75,3.5,11-75.21,18.51-74.36,14.93,1.69,25.68,6.25,34.88,14.79,7.88,7.33,16.89,13.64,25.6,19.75l4.3,3c4.71,3.33,11.08,154.62,15.28,155,4.68.4,7.33-150.46,12.66-153.54,12.13-7,25.52-12.42,38.53-17.65,4.19-1.69,8.51-3.43,12.75-5.21a16.78,16.78,0,0,1,8.9-.87c1.1.2,2.2.38,3.29.54,11.69,1.71,21.88-.3,33,.14,5.73.23,10.63,24.42,16.67,28.82,12.39,3,20.76-33.87,30.94-38.29,6.23-2.7,10.69-2.14,16.46,2.08,5.51,4,12.12,6.59,17.77,6.93,3.44.21,16.46,46.72,19.86,46.63,11.54-.29,12.94-47.17,21.19-36.46,1.25,1.62,6.64,6.6,9.42,8,14.51,7.12,22.39,10.35,31.66,23.67,6.74,9.69,12.91,19.51,21.87,15.21,1.25-.61,43.24,31.3,28.3,13.57a21.64,21.64,0,0,0-4.45-3.93c-3.72-2.55-17-19.07-17.41-19.48-1.9-1.8-5.05-.5-6,0-7.51,3.61-14,1.3-19.81-7.08a80.07,80.07,0,0,0-37.53-29.66c-1.16-.46-2.92-1.15-3.66-2.11-9.2-11.94-21.41-11.62-33.21-11.32-3.33.08-6.78.17-10.08,0-5.09-.31-11.12-2.68-16.14-6.34-6.64-4.85-12.28-5.55-19.51-2.43-9.72,4.21-19.76,8.57-31.15,5.8-4.84-1.17-10.43,0-15.73,1.5a77.16,77.16,0,0,1-35.21,1.29,19.91,19.91,0,0,0-10.64,1.06c-4.2,1.77-8.51,3.5-12.7,5.19-13.08,5.26-26.59,10.71-38.91,17.83-10.42,6-17.38,3.85-24.64-1.28l-4.3-3c-8.63-6-17.56-12.3-25.28-19.48-9.71-9-21-13.83-36.62-15.6-6.93-.79-14.11-4.69-19.6-8-6.9-4.17-13.67-8.86-20.22-13.39-4.14-2.87-8.43-5.84-12.72-8.66-5.67-3.72-11.7-3.41-17.93.93a92.52,92.52,0,0,1-12.82,7.62c-15,7.13-27.78,17.73-39.12,32.4a46.66,46.66,0,0,1-9,8.69c-4,3-8,3.06-13.17.25-3.87-2.13-9-2.5-12.67-2.77-2.6-.19-5.24-.12-7.78-.06a54.24,54.24,0,0,1-10.1-.36c-6-1-10.25.58-14.63,5.36a64.93,64.93,0,0,1-13.84,11.43C550.6,136.73,548.72,139.93,548.93,144.85Z"/><path id="y-3-2" data-name="y" class="cls-1" d="M1920,86.08c-2.45.14-2.24-.5-7.55,1a77.39,77.39,0,0,1-35.2,1.29,19.81,19.81,0,0,0-10.64,1.06c-4.21,1.77-8.51,3.5-12.71,5.19-13.07,5.26-26.59,10.71-38.91,17.83-10.41,6-17.37,3.84-24.63-1.28l-4.31-3c-8.62-6-17.55-12.3-25.28-19.48-9.7-9-21-13.83-36.61-15.59-6.93-.79-14.11-4.7-19.6-8-6.9-4.17-13.67-8.86-20.22-13.39-4.15-2.88-8.43-5.84-12.73-8.67-5.66-3.71-11.69-3.4-17.93.93a91,91,0,0,1-12.82,7.63c-15,7.13-27.78,17.73-39.12,32.4a46.32,46.32,0,0,1-9,8.69c-4,3-8,3.06-13.18.25-3.86-2.13-8.95-2.51-12.66-2.77-2.6-.19-5.24-.13-7.79-.06a55,55,0,0,1-10.09-.36c-6-1-10.25.57-14.64,5.36a64.88,64.88,0,0,1-13.83,11.43c-4.84,3-6.73,6.17-6.51,11.08V285.41c-.17-3.77,11.46-138.39,13.44-147.17,1.36-6,4.9-36.46,9.16-41.11,3.68-4,6.91-5.21,11.89-4.4,3.5.58,8.91,38,12.41,38,2.48-.06,3.28-37.68,5.73-37.52a42.89,42.89,0,0,1,11.42,2.39c8.68,3.08,14.1,5.34,18.61,12.1,2.66,4,10.69,87.53,13.23,84.26,11-14.28,17.71-130.69,32.25-137.6a94.73,94.73,0,0,0,13.26-7.88c5.17-3.6,9.91-3.89,14.51-.88,4.26,2.8,8.53,5.76,12.67,8.62,6.58,4.56,15.72,92.07,22.7,96.29,5.75,3.51,11-75.21,18.51-74.36,14.92,1.7,25.68,6.26,34.88,14.8,7.88,7.33,16.89,13.64,25.6,19.74l4.3,3c4.71,3.32,11.08,154.61,15.28,155,4.68.41,7.33-150.45,12.66-153.54,12.13-7,25.52-12.42,38.53-17.64,4.19-1.69,8.51-3.43,12.74-5.21a16.73,16.73,0,0,1,8.91-.87c1.1.2,2.2.38,3.29.54,11.69,1.71,21.88-.3,33,.14,5.74.23,1,25.52,7,29.91Z"/><path id="y-2-3" data-name="y-2" class="cls-2" d="M956.35,102.25V270.11c-.16-3.77,11.47-138.39,13.45-147.17,1.35-6,4.9-36.46,9.15-41.11,3.69-4,6.91-5.21,11.89-4.4,3.53.58,8.92,38,12.42,37.95,2.5-.06,3.28-37.68,5.73-37.52a42.55,42.55,0,0,1,11.41,2.42c8.69,3.07,14.11,5.33,18.62,12.1,2.66,4,10.69,87.53,13.22,84.25,11-14.28,17.72-130.69,32.25-137.6a94.09,94.09,0,0,0,13.26-7.87c5.18-3.61,9.92-3.89,14.51-.89,4.27,2.8,8.54,5.76,12.67,8.62,6.59,4.56,15.72,92.07,22.7,96.3,5.76,3.5,11-75.21,18.51-74.36,14.93,1.69,25.69,6.25,34.89,14.79,7.87,7.33,16.88,13.64,25.6,19.75l4.29,3c4.72,3.33,11.08,154.62,15.29,155,4.68.4,7.33-150.46,12.65-153.54,12.13-7,25.52-12.42,38.53-17.65,4.2-1.69,8.51-3.43,12.75-5.21a16.79,16.79,0,0,1,8.9-.87c1.1.2,2.21.38,3.29.54,11.7,1.71,21.88-.3,33,.14,5.74.23,19.49,121.43,23.65,122.44,12.39,3,13.78-127.48,24-131.91,6.23-2.7,10.69-2.13,16.47,2.08,5.47,4,12.12,6.59,17.77,6.93,3.43.21,16.45,46.72,19.85,46.63,11.54-.29,12.94-47.17,21.19-36.46,1.26,1.62,6.65,6.6,9.42,8,14.51,7.12,22.39,10.35,31.66,23.67,6.74,9.69,12.91,19.51,21.87,15.21,1.34-.64,6.39,54,6.48,64.1,0,3.29.46-73.47,0-73.94-1.9-1.8-5-.5-6,0-7.51,3.61-14,1.3-19.82-7.08a80,80,0,0,0-37.53-29.66c-1.16-.46-2.92-1.15-3.66-2.1-9.2-11.95-21.41-11.63-33.21-11.33-3.33.08-6.78.17-10.08,0-5.09-.35-11.13-2.71-16.15-6.35-6.64-4.85-12.29-5.55-19.52-2.42-9.71,4.2-19.75,8.56-31.15,5.79-4.84-1.17-10.42,0-15.73,1.51a77.29,77.29,0,0,1-35.21,1.28,20,20,0,0,0-10.63,1.06c-4.21,1.77-8.51,3.51-12.71,5.19-13.07,5.27-26.59,10.71-38.91,17.83-10.41,6-17.38,3.85-24.64-1.28l-4.3-3c-8.63-6-17.55-12.3-25.28-19.48-9.7-9-21-13.83-36.62-15.6-6.93-.79-14.11-4.69-19.59-8-6.9-4.17-13.67-8.86-20.22-13.39-4.15-2.87-8.44-5.84-12.73-8.66-5.66-3.72-11.7-3.41-17.93.93a92.52,92.52,0,0,1-12.82,7.62c-15,7.13-27.78,17.73-39.12,32.4a46.66,46.66,0,0,1-9,8.69c-4,3-8,3.06-13.17.25-3.88-2.13-9-2.5-12.67-2.77-2.6-.19-5.24-.12-7.79-.06a54.16,54.16,0,0,1-10.09-.36c-6-1-10.25.58-14.64,5.36a64.38,64.38,0,0,1-13.81,11.41C958,94.13,956.15,97.34,956.35,102.25Z"/><path id="y-3-3" data-name="y-3" class="cls-3" d="M1050.17,237.93l23.45-34.56c-.17-3.77,29.11-5.62,31.1-14.41,1.35-6,36-93.42,40.24-98.07,3.68-4,6.9-5.21,11.88-4.4,3.51.57,8.91,38,12.42,38,2.47-.06,3.27-37.68,5.73-37.5a42.75,42.75,0,0,1,11.41,2.4c8.69,3.07,14.11,5.33,18.62,12.1,2.66,4,10.69,87.52,13.22,84.25,11-14.28,17.72-130.69,32.26-137.6a95.6,95.6,0,0,0,13.25-7.88c5.18-3.6,9.92-3.89,14.51-.88,4.27,2.79,8.54,5.76,12.67,8.62,6.59,4.56,15.72,92.07,22.7,96.29,5.76,3.51,11-75.21,18.52-74.36,14.92,1.69,25.68,6.25,34.87,14.8,7.89,7.32,16.9,13.64,25.61,19.74l4.3,3c4.71,3.32,11.08,154.62,15.28,155,4.68.41,7.33-150.45,12.66-153.54,12.13-7,25.54-12.42,38.53-17.64,4.19-1.69,8.5-3.43,12.74-5.2a16.63,16.63,0,0,1,8.91-.87c1.1.19,2.19.37,3.29.53,11.68,1.71,21.88-.3,33,.15,5.74.22,14.77,127.66,18.94,128.67,12.38,3,18.49-133.73,28.67-138.15,6.23-2.7,10.69-2.13,16.47,2.08,5.5,4,12.12,6.59,17.77,6.93,3.43.21,16.45,46.72,19.85,46.63,11.54-.29,12.94-47.17,21.2-36.46,1.25,1.62,6.64,6.6,9.41,8,14.52,7.13,22.39,10.36,31.66,23.68,6.75,9.69,12.91,19.51,21.87,15.21,1.34-.65,6.39,54,6.47,64.1,0,3.28.47-73.47,0-73.94-1.9-1.8-5-.5-6,0-7.5,3.61-14,1.3-19.81-7.08a80,80,0,0,0-37.53-29.67c-1.16-.45-2.92-1.14-3.66-2.09-9.2-12-21.41-11.64-33.21-11.34-3.33.09-6.78.18-10.08,0-5.08-.31-11.12-2.68-16.14-6.35-6.64-4.84-12.28-5.54-19.52-2.41-9.71,4.2-19.75,8.55-31.14,5.79-4.85-1.17-10.43,0-15.74,1.5a77.42,77.42,0,0,1-35.21,1.29,19.88,19.88,0,0,0-10.63,1c-4.21,1.77-8.51,3.51-12.71,5.19-13.07,5.27-26.59,10.72-38.91,17.84-10.41,6-17.38,3.84-24.63-1.28l-4.31-3c-8.63-6-17.55-12.3-25.28-19.48-9.71-9-21-13.83-36.62-15.59-6.92-.79-14.11-4.7-19.6-8-6.9-4.17-13.66-8.86-20.21-13.39-4.15-2.87-8.44-5.84-12.73-8.66-5.66-3.72-11.69-3.41-17.93.93a91.94,91.94,0,0,1-12.82,7.62c-15,7.13-27.78,17.73-39.12,32.4a46.89,46.89,0,0,1-9,8.69c-4,3-8,3.06-13.17.25-3.88-2.12-9-2.51-12.67-2.77-2.61-.19-5.24-.13-7.79-.06a54.16,54.16,0,0,1-10.09-.36c-6-1-10.25.57-14.64,5.36-4.07,4.44-18.15,22.14-23.13,25.18C1114.74,117,1050,233,1050.17,237.93Z"/><path id="y-3-4" data-name="y-3" class="cls-3" d="M597.65,269.26l23.44-34.55c-.16-3.77,29.11-5.62,31.1-14.41,1.35-6,36-93.42,40.24-98.07,3.68-4,6.91-5.21,11.89-4.4,3.5.57,8.91,38,12.41,38,2.48-.06,3.28-37.68,5.73-37.5a42.9,42.9,0,0,1,11.42,2.4c8.68,3.07,14.1,5.33,18.61,12.1,2.66,4,10.69,87.52,13.23,84.25,11-14.28,17.71-130.69,32.25-137.6a95.7,95.7,0,0,0,13.26-7.88c5.17-3.6,9.91-3.89,14.51-.88,4.26,2.79,8.53,5.76,12.67,8.62,6.58,4.56,15.72,92.07,22.7,96.29,5.75,3.51,11-75.21,18.51-74.36,14.92,1.69,25.68,6.25,34.88,14.8,7.88,7.32,16.89,13.63,25.61,19.74l4.29,3c4.71,3.32,11.08,154.62,15.28,155,4.68.41,7.33-150.45,12.66-153.54,12.13-7,25.55-12.42,38.53-17.64,4.19-1.69,8.51-3.43,12.74-5.2a16.63,16.63,0,0,1,8.91-.87c1.1.19,2.2.37,3.29.53,11.69,1.71,21.88-.3,33,.15,5.74.22,14.78,127.66,18.94,128.67,12.39,3,18.5-133.73,28.67-138.15,6.23-2.7,10.7-2.13,16.47,2.08,5.51,4,12.12,6.59,17.77,6.93,3.44.21,16.46,46.72,19.85,46.63,11.55-.3,12.94-47.18,21.2-36.46,1.25,1.62,6.64,6.6,9.42,8,14.51,7.13,22.38,10.36,31.66,23.68,6.74,9.69,12.91,19.51,21.87,15.21,1.33-.65,6.39,54,6.47,64.1,0,3.28.46-73.47,0-73.94-1.9-1.8-5.06-.5-6,0-7.51,3.61-14,1.3-19.82-7.08a80,80,0,0,0-37.53-29.67c-1.16-.45-2.92-1.14-3.65-2.09-9.21-11.95-21.41-11.64-33.21-11.34-3.34.09-6.78.18-10.09,0-5.08-.31-11.12-2.68-16.14-6.35-6.63-4.84-12.28-5.54-19.51-2.41-9.72,4.2-19.76,8.55-31.15,5.79-4.84-1.17-10.42,0-15.74,1.5a77.39,77.39,0,0,1-35.2,1.29,19.9,19.9,0,0,0-10.64,1c-4.2,1.77-8.51,3.51-12.71,5.19-13.07,5.27-26.59,10.72-38.91,17.84-10.4,6-17.37,3.84-24.63-1.29-1.43-1-2.87-2-4.31-3-8.62-6-17.55-12.3-25.28-19.48-9.7-9-21-13.83-36.61-15.59-6.93-.79-14.11-4.7-19.6-8-6.9-4.17-13.67-8.86-20.22-13.39-4.15-2.87-8.43-5.84-12.73-8.66-5.66-3.72-11.69-3.41-17.93.92a90.47,90.47,0,0,1-12.82,7.63c-15,7.13-27.78,17.73-39.11,32.4a46.66,46.66,0,0,1-9,8.69c-4,3-8,3.06-13.17.25-3.87-2.13-9-2.51-12.67-2.77-2.6-.19-5.24-.13-7.79-.06a54.16,54.16,0,0,1-10.09-.36c-6-1-10.25.57-14.64,5.36C686.1,124.59,672,142.29,667,145.33,662.21,148.29,597.43,264.35,597.65,269.26Z"/><path id="y-4-2" data-name="y-4" class="cls-4" d="M1330.23,86.17V254c-.17-3.77,11.46-138.39,13.44-147.17,1.35-6,4.9-36.46,9.16-41.1,3.68-4,6.9-5.22,11.88-4.41,3.53.58,8.91,38,12.42,38,2.47-.07,3.27-37.69,5.73-37.53a42.9,42.9,0,0,1,11.42,2.4c8.68,3.07,14.1,5.33,18.61,12.09,2.66,4,10.69,87.53,13.22,84.26,11-14.28,17.72-130.69,32.26-137.6A93.66,93.66,0,0,0,1471.62,15c5.18-3.6,9.92-3.88,14.51-.88,4.27,2.8,8.54,5.76,12.67,8.62,6.59,4.56,15.73,92.07,22.71,96.3,5.75,3.5,11-75.22,18.51-74.36,14.92,1.69,25.68,6.25,34.88,14.79,7.88,7.33,16.89,13.64,25.6,19.75l4.3,3c4.71,3.33,11.08,154.61,15.28,155,4.68.41,7.33-150.45,12.66-153.54,12.13-7,25.52-12.41,38.53-17.64,4.19-1.69,8.5-3.43,12.74-5.21a16.82,16.82,0,0,1,8.91-.87c1.1.2,2.2.38,3.29.54,7.78,1.14,14,2.73,20.48,3.8a19.05,19.05,0,0,1,15.5,14.36c7,29.28,11.65,94.84,19,106,12.39,3,15.39-129.06,25.57-133.48,6.23-2.7,10.69-2.14,16.46,2.08,5.48,4,12.12,6.59,17.77,6.93,4.59,8.67,16.46,46.72,19.86,46.63,11.54-.29,12.94-47.17,21.19-36.46,1.25,1.62,6.64,6.6,9.42,8,14.49,7.12,22.39,10.35,31.66,23.67,6.74,9.69,12.91,19.51,21.87,15.2,1.34-.64,5,53.5,5.08,63.56,0,3.29.5-75,0-75.5-1.9-1.8-3.69,1.61-4.64,2.07-7.51,3.61-14,1.3-19.82-7.08a80,80,0,0,0-37.53-29.67c-1.16-.46-2.91-1.14-3.65-2.1-9.21-11.94-21.41-11.63-33.21-11.33-3.33.09-6.78.17-10.08,0-5.09-.31-11.13-2.68-16.14-6.34-6.64-4.85-12.29-5.55-19.52-2.43-9.72,4.21-19.76,8.56-31.15,5.8-4.84-1.17-10.42,0-15.73,1.5A76.92,76.92,0,0,1,1693.4,57a19.88,19.88,0,0,0-10.63,1.07c-4.21,1.76-8.51,3.5-12.71,5.18C1657,68.5,1643.47,74,1631.15,81.07c-10.41,6-17.38,3.84-24.63-1.28l-4.31-3c-8.63-6.05-17.55-12.3-25.28-19.48-9.71-9-21-13.83-36.62-15.6-6.92-.78-14.11-4.69-19.6-8-6.9-4.18-13.67-8.86-20.21-13.4-4.15-2.87-8.44-5.84-12.73-8.66-5.66-3.72-11.69-3.41-17.93.93A91,91,0,0,1,1457,20.18c-15,7.13-27.78,17.73-39.12,32.4a46.56,46.56,0,0,1-9,8.68c-4,3-8.05,3.07-13.17.25-3.88-2.12-9-2.5-12.67-2.76-2.6-.19-5.24-.13-7.79-.06a55,55,0,0,1-10.09-.36c-6-1-10.25.57-14.64,5.35a64.58,64.58,0,0,1-13.83,11.43C1331.89,78.05,1330,81.25,1330.23,86.17Z"/><path id="y-5-2" data-name="y-5" class="cls-5" d="M974.7,153.84l5.45,19.06c-.16-3.77,6,10.41,8,1.63,1.35-6,4.9-36.45,9.15-41.11,3.69-4,6.91-5.21,11.89-4.4,3.5.57,8.91,38,12.42,37.95,2.47-.06,3.27-37.68,5.73-37.5a43.31,43.31,0,0,1,11.41,2.4c8.69,3.07,14.1,5.33,18.61,12.1,2.67,4,10.7,87.53,13.23,84.25,11-14.28,17.71-130.68,32.25-137.6a94.73,94.73,0,0,0,13.26-7.88c5.18-3.6,9.91-3.89,14.51-.88,4.26,2.8,8.53,5.76,12.67,8.62,6.58,4.56,15.72,92.07,22.7,96.3,5.75,3.5,11-75.21,18.51-74.36,14.92,1.68,25.68,6.25,34.88,14.79,7.88,7.32,16.89,13.64,25.61,19.74l4.29,3c4.71,3.33,9,65.2,13.17,65.56,4.67.4,9.44-61,14.77-64.12,12.13-7,25.52-12.42,38.53-17.65,4.19-1.68,8.51-3.43,12.75-5.2a16.58,16.58,0,0,1,8.9-.87c1.1.19,2.2.37,3.29.53,11.69,1.71,21.88-.3,33,.15,5.74.22,14.21,37.44,18.38,38.45,12.38,3,19.06-43.51,29.24-47.93,6.23-2.7,10.69-2.13,16.46,2.08,5.51,4,12.12,6.59,17.78,6.93,3.43.21,16.45,46.72,19.85,46.63,11.54-.29,12.94-47.17,21.19-36.46,1.25,1.62,6.64,6.6,9.42,8,14.51,7.12,22.39,10.35,31.66,23.67,6.74,9.69,12.91,19.51,21.87,15.21,1.33-.65,6.39,54,6.47,64.1,0,3.29.46-73.47,0-73.94-1.9-1.8-5.06-.5-6,0-7.5,3.62-14,1.3-19.81-7.08a80,80,0,0,0-37.53-29.66c-1.16-.46-2.92-1.15-3.66-2.1-9.2-11.94-21.41-11.63-33.21-11.33-3.33.08-6.78.17-10.08,0-5.08-.3-11.12-2.68-16.14-6.34-6.64-4.85-12.29-5.55-19.52-2.42-9.71,4.21-19.76,8.56-31.14,5.79-4.85-1.17-10.43,0-15.74,1.5a77.42,77.42,0,0,1-35.21,1.29,19.78,19.78,0,0,0-10.63,1.06c-4.21,1.76-8.51,3.5-12.71,5.19-13.07,5.26-26.59,10.71-38.91,17.83-10.41,6-17.38,3.84-24.63-1.28l-4.31-3c-8.63-6-17.55-12.3-25.28-19.47-9.71-9-21-13.83-36.62-15.6-6.92-.79-14.11-4.7-19.6-8-6.9-4.17-13.66-8.86-20.21-13.39-4.15-2.87-8.44-5.84-12.73-8.66-5.66-3.72-11.69-3.41-17.93.93a91.94,91.94,0,0,1-12.82,7.62c-15,7.13-27.78,17.73-39.12,32.4a46.89,46.89,0,0,1-9,8.69c-4,3-8,3.06-13.17.25-3.88-2.12-9-2.5-12.67-2.77-2.61-.19-5.24-.12-7.79-.06a54.16,54.16,0,0,1-10.09-.36c-6-1-10.26.58-14.64,5.37a64.83,64.83,0,0,1-13.83,11.42C976.37,145.73,974.49,148.93,974.7,153.84Z"/></g></g></g></g></svg>