<svg xmlns="http://www.w3.org/2000/svg" viewBox="0 0 554.61 429.76"><defs><style>.cls-1{fill:#da0000;}</style></defs><g id="Layer_2" data-name="Layer 2"><g id="Section_4_-_Trasee" data-name="Section 4 - Trasee"><g id="Maraton"><path id="Red_Footprint" data-name="Red Footprint" class="cls-1" d="M110.89,252.13c3.29-8.53,6.58-17.06,10.32-26.73,7.62,4.63,14.22,8.46,20.59,12.65a5.55,5.55,0,0,1,2.12,4.49c-1.69,8.76-3.79,17.45-5.75,26.16Zm57.28,34.78c5.17-1.53,11.15-6.14,12.6,4.36.23,1.64,4.71,2.7,8.39,4.64.8-9.9,1.64-18.74,2.08-27.59a5.57,5.57,0,0,0-2.74-4.18c-6.82-3.36-13.82-6.35-21.44-9.78L160,282ZM79.2,1.82C9,5.81-14.8,58.32,8.87,122.2,17,115.9,22,108.79,20.81,98.1c-2-17.95.69-35,10.74-50.4A53.05,53.05,0,0,1,60.74,25.46C72.62,21.72,78,14.87,79.2,1.82ZM422.93,375.27c-2-18.44-3.49-35.08-5.64-51.64-.77-5.91.78-9.13,6.17-11.87,13.42-6.83,26.51-14.32,41.56-22.54-8.41-5.11-15.2-9.47-22.28-13.32-1.39-.76-4.18,0-5.79.89-14.22,8.32-28.41,16.7-42.35,25.47-1.88,1.18-3.5,4.69-3.32,7,1.34,16.42,3.06,32.81,5,49.18a8.19,8.19,0,0,0,3.6,5.49C406.79,367.69,414,371,422.93,375.27ZM554.27,328c-.43-.52-1.28-.53-2.59-.61-1.66-.09-3.34-.27-5-.29-3.09,0-6.17,0-9.26-.05l-15.93-.38c-5.67,24.32-16.38,45.18-36.07,61.61-.35.3,8.21,14.3,9,15.64,2.4,4.17,4.82,8.34,7.21,12.51.68,1.18,1,3.07,2.66,2.71,2.35-.52,4.63-3.17,6.36-4.69q3.52-3.07,6.76-6.44c5.88-6.09,10.85-12.94,15.71-19.85a150.14,150.14,0,0,0,13.59-22.82c5.17-11.11,6.87-23.24,7.91-35.33A2.78,2.78,0,0,0,554.27,328Zm-89.63,59.32c-1.32-12.85-2-24.51-3.9-36-1.15-6.9,1.27-9.86,7.2-12.5,11.35-5.05,22.35-10.91,34.64-17-5.27-6.17-9.88-11.87-14.92-17.17-1-1-4-1.2-5.44-.53-15.48,7-30.9,14.08-46.16,21.52-1.65.81-3.29,4.08-3,6,2.12,16,4.52,32.05,7.3,48,.36,2.07,3.08,4.82,5.14,5.28C451.36,386.17,457.49,386.47,464.64,387.29ZM226.1,148c-12.36-21.39-12.37-21.39-34.12-13.48-8.24,3-16.64,5.61-24.6,9.2-2.73,1.24-5.9,4.75-6.21,7.53-1.61,14.22-2.43,28.54-3.3,42.84-.11,1.85.5,4.73,1.76,5.5,6.7,4.09,13.72,7.66,22.05,12.18.8-14.32,1.82-26.93,2.07-39.55.12-5.91,2-8.93,7.8-10.88C203.06,157.48,214.25,152.68,226.1,148Zm-91.9,32.65c2.06-16.3,4.13-30.73,5.6-45.23.58-5.71,2.63-8.8,8.28-10.83,13.4-4.82,26.5-10.5,41.22-16.43-6.66-4.93-11.94-9.19-17.63-12.82-1.64-1-4.63-.84-6.7-.21-13.45,4.13-26.93,8.25-40.13,13.11-2.53.94-5.18,5-5.49,7.93q-2.23,20.58-2.95,41.3c-.11,3.39,1.74,7.47,4,10.18C124,172.1,128.7,175.64,134.2,180.69Zm94.71,50.62c-.31-8.51-.32-16.14-1-23.71-.39-4.59,1.16-6.69,5.57-7.89,7.34-2,14.51-4.6,22.69-7.26l-11.83-22.12c-12.66,4.14-25,8-37.15,12.37-1.64.59-3.14,4-3.2,6.13-.29,10.06-.4,20.16.25,30.2.16,2.45,3,5.83,5.39,6.8C215.44,228.18,221.7,229.35,228.91,231.31ZM98.45,133c1.17-10.5,2.62-21,3.41-31.53.39-5.28,2.63-7.87,7.56-9.6,11.21-3.93,22.21-8.45,35.3-13.51-13.79-5.85-24.08-16.31-39.26-8.48C98,73.69,87,73.79,82.69,79.46c-4,5.36-.4,16-1.77,24-2.55,14.94,9.66,20.63,15.57,30.25Zm394.15,292c-4.93-11.13-9.52-21.47-13.52-30.52-11.57.72-22,1.3-32.49,2.09a5.65,5.65,0,0,0-3.95,2c-5.2,8.2-10.17,16.55-15.9,26C449.78,431,470.65,431.89,492.6,424.94Zm-118.08-86.8c-1.41-13.12-2.47-25.46-4.19-37.71-.73-5.24.43-8.08,5.38-10.59,11.53-5.85,22.66-12.48,35.86-19.87-13.16-4.22-23.53-11.49-35.56-1.35-6,5.07-13.71,8.1-20.21,12.67a10.18,10.18,0,0,0-3.72,7.4c.15,7.15,2.22,14.32,1.83,21.39C353.1,324.56,360.46,332.7,374.52,338.14Zm57-70.36c.78-11.56,1.61-21.84,2.09-32.13.27-5.69-7.79-10.32-12.87-7.64-8,4.22-10.93,2.45-13.87-5.49-1.42-3.82-6.17-6.4-9.42-9.55l-2.25,1.35c-1.59,12.48-3.32,25-4.59,37.46-.16,1.57,1.79,4.43,3.32,4.92C406,260.53,418.24,263.92,431.56,267.78ZM36.4,103.14c6.41-2.16,11.5-3.61,16.33-5.65,1.54-.64,2.51-2.79,3.54-4.38a3.77,3.77,0,0,0,.24-2.35C53.73,71.58,61.61,59.27,80,53c12.33-4.23,4.75-14.11,6.3-23.76-9.2,4.83-16.43,10-24.48,12.58C44.56,47.41,38.25,59,38.89,76.27,39.19,84.36,37.46,92.53,36.4,103.14Zm347,255.78c-10.25-8.68-19.19-16.5-28.49-23.85-1.31-1-5.16-.65-6.59.55-8.51,7.11-16.65,14.66-25.25,22.36,3.19,4,5.37,7.5,11.62,4.5s10.33,1,10.24,9.12c-.06,5.85,4.14,8.78,9.07,5.83C363.52,371.76,372.78,365.66,383.42,358.92ZM506.28,270c-1.54,9.41-3.13,17.65-4.06,26-.21,1.87,1.62,4.18,3,5.95,3.65,4.83,7.41,9.6,11.42,14.13,1.33,1.49,4,3.48,5.3,3,7.92-2.68,15.62-6,24.35-9.5C536.14,292.69,522.81,280.78,506.28,270ZM373,394.93c4.3,4.27,7.26,6.74,13.05,4.05s9.9.77,10.24,7.06c.3,5.48,3.12,8.07,7.46,5.36,9.8-6.12,19-13.27,30.08-21.21-10.53-5.29-19.33-9.86-28.31-14.07-1.3-.61-3.71,0-5.08.84C391.51,382.63,382.72,388.52,373,394.93ZM289.14,246.69c-7.27-12.62-13.26-23.24-19.56-33.66a6.2,6.2,0,0,0-5-2.36c-6.76,1-13.43,2.51-20.78,4,1.17,7.65,2.05,14.73,3.47,21.71a6.16,6.16,0,0,0,3.94,3.89C263.08,242.49,275.05,244.36,289.14,246.69Zm168.67-2.61c.39,9.51.61,19,1.3,28.53a8.57,8.57,0,0,0,3.08,5.83c7.23,4.82,14.78,9.16,23.73,14.59.38-11.76,1.18-22.22.83-32.64-.15-4.62-3.69-6.32-8.67-4.43-7.3,2.78-10.15.83-12.32-6.08-.87-2.8-3.62-5-5.52-7.51ZM74.5,183.8c-3.71,8.24-6.84,14.94-9.76,21.74-2.53,5.9,2.39,14.1,8.84,13.93,5-.14,6.37,1.28,6.67,6.2.16,2.72,3.09,5.28,4.77,7.92l2.31-.36c2.81-8.72,5.74-17.39,8.28-26.19.38-1.32-.66-3.59-1.77-4.71C87.86,196.36,81.66,190.61,74.5,183.8Zm142.19,91.9c-1.88,9.06-3.88,17.5-5.26,26-.65,4,6,7.71,10.4,5.44,4.85-2.5,6.87-1.72,8.79,3.46.8,2.16,4.75,3.16,8.64,5.53.42-11.61.94-21.54,1-31.46,0-1.47-2-3.82-3.53-4.26C230.39,278.62,223.92,277.36,216.69,275.7ZM175.75,87.38c.91-9.95,1.8-18.5,2.35-27.06.08-1.21-1.23-3-2.39-3.71-6.82-4.35-13.8-8.48-22.05-13.49-1,9.69-1.93,18-2.57,26.31a5.14,5.14,0,0,0,1.86,4C160,77.93,167.17,82.17,175.75,87.38Zm-66.19,82.1c-6.09-7.37-11.33-13.9-16.84-20.19A6,6,0,0,0,88,147.63c-7.95,1.64-15.82,3.66-24.56,5.76C69,160.79,74,167.6,79.27,174.1c1.08,1.32,3.74,2.43,5.31,2.07C92.52,174.35,100.34,172,109.56,169.48Zm196.2,21.23,27.91-12.51.42-2.37c-3.67-1.92-7.46-3.63-10.93-5.84a10.69,10.69,0,0,1-4.16-4.74c-1.36-3.54-2-7.36-3.31-12.5l-23,14.25ZM225.65,47.46c-3.88-1.27-7.86-2.3-11.6-3.91-1.88-.81-4-2.35-4.82-4.11C205.53,31,201.7,30,195,36.1q-5.28,4.77-10.45,9.67a20.16,20.16,0,0,0-2,3.18c7.11,4.73,14.12,9.62,21.42,14,1.23.74,4.06-.09,5.55-1.09,5.46-3.66,10.67-7.7,16-11.59ZM124.93,30.8l-31.5-1.73c.68,6.47,1.07,12.17,2,17.77.24,1.39,2.13,3,3.62,3.59,7.86,3,15.83,5.75,24.77,8.94C124.22,49.61,124.55,40.73,124.93,30.8Zm-80,115.58c-3.88,5.37-7.28,10.05-10.64,14.76-5.29,7.43-3.59,12.38,4.84,16.07,1.79.78,3,3.52,3.87,5.61,1.39,3.22,2.3,6.65,3.41,10l2.37-.29c3.49-8.76,7.1-17.49,10.38-26.33a6,6,0,0,0-.61-5.05C54.32,156.17,49.72,151.53,44.91,146.38Zm239.84-37.76L264.46,123c5.38,8.49,10.29,16.27,15.88,25.1l22.51-15C291.78,128.24,289.68,118.05,284.75,108.62Zm-57.24-27a25.31,25.31,0,0,0,1.69,3C245,104.16,245,104.16,266,89.61c0-.52.27-1.32,0-1.52-6.66-5.44-13.83-10.35-17.42-18.76-.32-.76-4.09-1.1-5.27-.26C238,72.89,233,77.2,227.51,81.61Zm23.41,82.72c3.09-10.85,5.67-19.64,8.05-28.48a5,5,0,0,0-.68-3.72c-4.65-6.59-9.47-13.07-15.31-21.06-2.86,10.57-5.37,19.34-7.52,28.2-.36,1.51.41,3.66,1.35,5.06C240.91,150.44,245.27,156.38,250.92,164.33Zm-50.71,94.72c7.29,2.82,13.57,5.55,20.06,7.57,1.78.55,4.67-.49,6.3-1.76,6.88-5.35,13.47-11.06,20.21-16.68C233.63,237.25,220.33,240.19,200.21,259.05Zm74.83-102c-2.07,6-3.16,11.29-5.65,15.86-7.55,13.89-2.78,24.63,7.81,34.14C289.52,191.79,289,174.13,275,157.09ZM102.37,201c6.16,4.82,11.43,9.17,17,13.13a6.73,6.73,0,0,0,5.18.47c8.84-2.75,17.59-5.78,26.54-8.78C140,191.52,125.66,190,102.37,201ZM201.83,74.9c-2.06,8.6-3.91,15.75-5.41,23-.33,1.58,0,4.05,1,5,5.28,5,10.9,9.76,17.66,15.7,2.31-9.83,4.36-18,6-26.15.27-1.37-.92-3.61-2.13-4.6C213.85,83.72,208.48,79.88,201.83,74.9Zm-4.7,156.66c-16.53-11.89-24.52-11.27-44.47,3.45C165.84,249,177.93,248.08,197.13,231.56ZM131,22c8.12,3.48,14.81,6.61,21.72,9.14a7.74,7.74,0,0,0,6.31-1,63.07,63.07,0,0,0,13.88-14.23c-4.15-.43-8.33-.67-12.43-1.39-2.22-.39-5-1-6.32-2.55-4.78-5.81-9.92-6.3-14.59-.68C136.86,14.43,134.33,17.73,131,22ZM122.73,2.15c-2.06-.42-3.59-1.27-4.57-.85-6.26,2.72-12,3.05-18-1.19C99.28-.52,95.35,1.62,94,3.38c-3.16,4.19-5.61,8.91-8.42,13.54C104.74,24.34,113.9,20.67,122.73,2.15ZM74.12,124.73c-1.87-2.5-3.2-4.41-4.66-6.22-10.82-13.38-13.55-13.93-30-6.18C48.13,129.55,52.45,131.19,74.12,124.73Zm-49.81-5.58c-2.64,2.51-5.19,5.1-7.91,7.49-4.79,4.19-6.51,7.76.91,11.17,1.4.64,2,3.74,2.35,5.81.53,2.82.53,5.74.82,9.34C37,141.61,37.74,134.22,24.31,119.15Z"/></g></g></g></svg>