<svg xmlns="http://www.w3.org/2000/svg" viewBox="0 0 1920 268.59"><defs><style>.cls-1{fill:#ffad1d;}</style></defs><g id="Layer_2" data-name="Layer 2"><g id="Section_4_-_Trasee" data-name="Section 4 - Trasee"><g id="Semimaraton"><g id="Semimaraton_Graphic" data-name="Semimaraton Graphic"><path class="cls-1" d="M74.57,268.59c-40.28,0-57.77-18.45-74.57-36.16v-5.81c17.77,18.73,37.58,39.63,79.77,37.86,58.79-2.48,73.58-15.83,92.32-32.74,12.82-11.57,27.34-24.68,58.27-37,6.38-2.54,16-6.39,20.62-12.42,44-57.72,103.55-56.53,161.17-55.39,16.78.33,34.13.68,50.89-.43,26.48-1.75,57.72-14.19,83.56-33.28,31.61-23.34,57.36-26.71,91.85-12,49.55,21.13,100.8,43,159.53,28.39,22.93-5.7,50,0,75.89,7.07,57,15.51,115.46,17.32,178.65,5.52,16.45-3.07,35.62-1.28,50,4.67,21.13,8.73,42.8,17.31,63.77,25.62,65.35,25.89,132.93,52.66,194.38,87.74,47,26.8,84.41,24.64,129.29-7.44q10.68-7.64,21.43-15.23c43.14-30.61,87.76-62.25,126.47-98.64,47.36-44.5,102.72-68.41,179.5-77.55C1856.63,36.68,1898,13.48,1920,0V5.4c-27.2,16.67-64.14,35.4-102.15,39.92-75.88,9-130.54,32.62-177.23,76.5-38.91,36.57-83.64,68.3-126.9,99q-10.73,7.6-21.41,15.23c-46.36,33.14-85.07,35.35-133.6,7.65-61.21-34.94-128.65-61.65-193.88-87.49-21-8.31-42.66-16.91-63.81-25.64-13.73-5.67-32-7.37-47.77-4.43-63.79,11.91-122.82,10.08-180.43-5.6-25.35-6.9-51.84-12.52-73.88-7a164.12,164.12,0,0,1-39.83,4.88c-43.75,0-83.5-16.95-122.23-33.47-33-14.06-57.62-10.83-87.9,11.54-26.44,19.53-58.47,32.26-85.68,34.05-16.92,1.12-34.36.78-51.23.44-59.23-1.17-115.18-2.29-157.91,53.81-4.86,6.38-13.33,10.13-22.32,13.72-30.26,12.07-44.5,24.93-57.07,36.27-19.33,17.45-34.61,31.23-94.84,33.76C78.1,268.55,76.31,268.59,74.57,268.59Z"/><circle class="cls-1" cx="194.33" cy="178.55" r="64.33"/></g></g></g></g></svg>