<svg xmlns="http://www.w3.org/2000/svg" width="1044.785" height="836.587" viewBox="0 0 1044.785 836.587">
  <g id="Stanga_Sus" data-name="Stanga Sus" transform="translate(0)">
    <g id="Nuca" transform="translate(903.109 523.708)">
      <path id="Path_174" data-name="Path 174" d="M887.238,1724.837A14.542,14.542,0,1,1,872.7,1710.3a14.541,14.541,0,0,1,14.541,14.542" transform="translate(-801.859 -1653.998)" fill="#6c0000"/>
      <path id="Path_175" data-name="Path 175" d="M850.555,1647.437v55.258H795.3v-.364l54.894-54.894Z" transform="translate(-795.298 -1647.437)" fill="#6c0000"/>
      <path id="Path_176" data-name="Path 176" d="M795.3,1743.927h55.258v55.258h-.364L795.3,1744.291Z" transform="translate(-795.298 -1657.509)" fill="#6c0000"/>
      <path id="Path_177" data-name="Path 177" d="M891.788,1799.184v-55.258h55.257v.364l-54.894,54.894Z" transform="translate(-805.37 -1657.509)" fill="#6c0000"/>
      <path id="Path_178" data-name="Path 178" d="M947.045,1702.694H891.788v-55.258h.363l54.894,54.894Z" transform="translate(-805.37 -1647.437)" fill="#6c0000"/>
    </g>
    <g id="Celest" transform="translate(497.843 210.217)">
      <rect id="Rectangle_64" data-name="Rectangle 64" width="46.369" height="46.369" transform="translate(60.71 92.938) rotate(-45)" fill="#30dcd5"/>
      <path id="Path_179" data-name="Path 179" d="M452.086,1543.337l-20.752-20.752a3.469,3.469,0,0,1,4.905-4.906l15.847,15.847,15.315-15.315a3.469,3.469,0,0,1,4.905,4.905Z" transform="translate(-358.725 -1485.208)" fill="#30dcd5"/>
      <path id="Path_180" data-name="Path 180" d="M452.086,1528.275l-20.752-20.752a3.469,3.469,0,0,1,4.905-4.905l15.847,15.847,15.315-15.315a3.469,3.469,0,0,1,4.905,4.906Z" transform="translate(-358.725 -1485.577)" fill="#30dcd5"/>
      <path id="Path_181" data-name="Path 181" d="M452.086,1512.634l-20.752-20.752a3.469,3.469,0,0,1,4.905-4.906l15.847,15.847,15.315-15.315a3.469,3.469,0,0,1,4.905,4.905Z" transform="translate(-358.725 -1485.961)" fill="#30dcd5"/>
      <path id="Path_182" data-name="Path 182" d="M394.607,1599.984a3.469,3.469,0,0,1-2.453-5.922L408,1578.215,392.686,1562.9a3.468,3.468,0,1,1,4.905-4.905l20.221,20.22-20.752,20.752a3.458,3.458,0,0,1-2.453,1.016" transform="translate(-359.685 -1484.221)" fill="#30dcd5"/>
      <path id="Path_183" data-name="Path 183" d="M379.546,1599.984a3.469,3.469,0,0,1-2.453-5.922l15.847-15.847L377.625,1562.9a3.469,3.469,0,0,1,4.905-4.905l20.22,20.22L382,1598.968a3.459,3.459,0,0,1-2.453,1.016" transform="translate(-360.053 -1484.221)" fill="#30dcd5"/>
      <path id="Path_184" data-name="Path 184" d="M363.9,1599.984a3.469,3.469,0,0,1-2.453-5.922l15.847-15.847L361.984,1562.9a3.469,3.469,0,0,1,4.905-4.905l20.221,20.22-20.752,20.752a3.46,3.46,0,0,1-2.453,1.016" transform="translate(-360.437 -1484.221)" fill="#30dcd5"/>
      <path id="Path_185" data-name="Path 185" d="M470.99,1638.772a3.457,3.457,0,0,1-2.453-1.016l-15.847-15.847-15.315,15.315a3.469,3.469,0,1,1-4.905-4.905l20.221-20.221,20.752,20.752a3.469,3.469,0,0,1-2.453,5.922" transform="translate(-358.697 -1482.87)" fill="#30dcd5"/>
      <path id="Path_186" data-name="Path 186" d="M470.99,1653.833a3.458,3.458,0,0,1-2.453-1.016l-15.847-15.847-15.315,15.315a3.469,3.469,0,1,1-4.905-4.905l20.221-20.221,20.752,20.752a3.469,3.469,0,0,1-2.453,5.921" transform="translate(-358.697 -1482.502)" fill="#30dcd5"/>
      <path id="Path_187" data-name="Path 187" d="M470.99,1669.474a3.46,3.46,0,0,1-2.453-1.016l-15.847-15.848-15.315,15.316a3.469,3.469,0,0,1-4.905-4.905l20.221-20.22,20.752,20.752a3.469,3.469,0,0,1-2.453,5.922" transform="translate(-358.697 -1482.118)" fill="#30dcd5"/>
      <path id="Path_188" data-name="Path 188" d="M509.247,1598.846a3.456,3.456,0,0,1-2.452-1.016l-20.221-20.221,20.752-20.752a3.469,3.469,0,0,1,4.905,4.906l-15.847,15.846,15.315,15.315a3.469,3.469,0,0,1-2.453,5.921" transform="translate(-357.347 -1484.248)" fill="#30dcd5"/>
      <path id="Path_189" data-name="Path 189" d="M524.308,1598.846a3.458,3.458,0,0,1-2.453-1.016l-20.22-20.221,20.752-20.752a3.469,3.469,0,0,1,4.906,4.906l-15.848,15.846,15.315,15.315a3.469,3.469,0,0,1-2.453,5.921" transform="translate(-356.978 -1484.248)" fill="#30dcd5"/>
      <path id="Path_190" data-name="Path 190" d="M539.949,1598.846a3.459,3.459,0,0,1-2.453-1.016l-20.22-20.221,20.752-20.752a3.469,3.469,0,0,1,4.905,4.906l-15.847,15.846,15.315,15.315a3.469,3.469,0,0,1-2.453,5.921" transform="translate(-356.594 -1484.248)" fill="#30dcd5"/>
    </g>
    <path id="Spiral" d="M627.534,2153.291a96.133,96.133,0,0,1-68-164.181,3.072,3.072,0,0,1,4.344,4.344,90.018,90.018,0,1,0,127.3,127.3A74.5,74.5,0,1,0,585.823,2015.4a58.988,58.988,0,1,0,83.422,83.422,43.473,43.473,0,1,0-61.481-61.48,27.958,27.958,0,1,0,39.539,39.539,12.443,12.443,0,1,0-17.6-17.6,3.072,3.072,0,0,1-4.344-4.345,18.587,18.587,0,1,1,26.286,26.286,34.1,34.1,0,1,1-48.228-48.227,49.617,49.617,0,1,1,70.169,70.169,65.132,65.132,0,1,1-92.11-92.11A80.647,80.647,0,1,1,695.531,2125.1a95.875,95.875,0,0,1-68,28.188" transform="translate(-323.319 -1404.967)" fill="#30dcd5"/>
    <g id="Spic" transform="translate(228.9 278.033) rotate(45)">
      <path id="Path_199" data-name="Path 199" d="M436.042,1849.664a4.378,4.378,0,0,1-3.241-7.321l36.008-39.682a4.378,4.378,0,1,1,6.485,5.884l-36.008,39.683a4.371,4.371,0,0,1-3.244,1.436" transform="translate(-390.756 -1771.7)" fill="#fa9c00"/>
      <path id="Path_200" data-name="Path 200" d="M434.3,1923.38a4.378,4.378,0,0,1-3.241-7.321l36.008-39.682a4.379,4.379,0,1,1,6.485,5.885l-36.008,39.682a4.37,4.37,0,0,1-3.244,1.436" transform="translate(-390.026 -1802.682)" fill="#fa9c00"/>
      <path id="Path_201" data-name="Path 201" d="M434.3,1997.1a4.378,4.378,0,0,1-3.241-7.32l36.008-39.682a4.378,4.378,0,1,1,6.485,5.884l-36.008,39.683a4.369,4.369,0,0,1-3.244,1.436" transform="translate(-390.026 -1833.664)" fill="#fa9c00"/>
      <path id="Path_202" data-name="Path 202" d="M406.464,1849.665a4.37,4.37,0,0,1-3.244-1.436l-36.008-39.683a4.378,4.378,0,1,1,6.485-5.884l36.008,39.682a4.378,4.378,0,0,1-3.241,7.321" transform="translate(-363.19 -1771.7)" fill="#fa9c00"/>
      <path id="Path_203" data-name="Path 203" d="M408.2,1923.38a4.37,4.37,0,0,1-3.244-1.436l-36.008-39.682a4.379,4.379,0,1,1,6.485-5.885l36.008,39.682a4.378,4.378,0,0,1-3.241,7.321" transform="translate(-363.921 -1802.682)" fill="#fa9c00"/>
      <path id="Path_204" data-name="Path 204" d="M408.2,1997.1a4.369,4.369,0,0,1-3.244-1.436l-36.008-39.683a4.378,4.378,0,1,1,6.485-5.884l36.008,39.682a4.378,4.378,0,0,1-3.241,7.32" transform="translate(-363.921 -1833.664)" fill="#fa9c00"/>
      <path id="Path_205" data-name="Path 205" d="M434.306,1989.433a4.378,4.378,0,0,1-4.379-4.379V1759.172a4.379,4.379,0,1,1,8.757,0v225.883a4.378,4.378,0,0,1-4.379,4.379" transform="translate(-390.026 -1752.185)" fill="#fa9c00"/>
      <path id="Path_206" data-name="Path 206" d="M503.329,1803.511a7.264,7.264,0,1,1-7.264-7.265,7.264,7.264,0,0,1,7.264,7.265" transform="translate(-414.769 -1769.607)" fill="#fa9c00"/>
      <path id="Path_207" data-name="Path 207" d="M439.043,1757.558a7.265,7.265,0,1,1-7.264-7.264,7.264,7.264,0,0,1,7.264,7.264" transform="translate(-387.751 -1750.294)" fill="#fa9c00"/>
      <path id="Path_208" data-name="Path 208" d="M501.592,1877.229a7.264,7.264,0,1,1-7.264-7.264,7.264,7.264,0,0,1,7.264,7.264" transform="translate(-414.039 -1800.589)" fill="#fa9c00"/>
      <path id="Path_209" data-name="Path 209" d="M501.592,1950.944a7.264,7.264,0,1,1-7.264-7.264,7.264,7.264,0,0,1,7.264,7.264" transform="translate(-414.039 -1831.572)" fill="#fa9c00"/>
      <path id="Path_210" data-name="Path 210" d="M361.1,1803.511a7.264,7.264,0,1,0,7.264-7.265,7.264,7.264,0,0,0-7.264,7.265" transform="translate(-361.098 -1769.607)" fill="#fa9c00"/>
      <path id="Path_211" data-name="Path 211" d="M362.836,1877.229a7.264,7.264,0,1,0,7.264-7.264,7.264,7.264,0,0,0-7.264,7.264" transform="translate(-361.829 -1800.589)" fill="#fa9c00"/>
      <path id="Path_212" data-name="Path 212" d="M362.836,1950.944a7.264,7.264,0,1,0,7.264-7.264,7.264,7.264,0,0,0-7.264,7.264" transform="translate(-361.829 -1831.572)" fill="#fa9c00"/>
    </g>
    <g id="Drum_" data-name="Drum " transform="translate(0)">
      <path id="Path_213" data-name="Path 213" d="M922.414,1960.056a3.287,3.287,0,0,1,0-4.648l47.962-47.962-47.962-47.962a3.287,3.287,0,1,1,4.648-4.648l52.61,52.61-52.61,52.61a3.287,3.287,0,0,1-4.648,0" transform="translate(-387.273 -1390.373)" fill="#e2161e"/>
      <path id="Path_214" data-name="Path 214" d="M53.572,1112.563l-52.61-52.61a3.287,3.287,0,0,1,4.648-4.648l47.962,47.962,47.962-47.962a3.287,3.287,0,0,1,4.648,4.648Z" transform="translate(0.001 -1054.343)" fill="#e2161e"/>
      <path id="Path_215" data-name="Path 215" d="M347.531,1385.215a3.287,3.287,0,0,1,0-4.648l47.962-47.962-47.962-47.962a3.287,3.287,0,1,1,4.648-4.648l52.61,52.61-52.61,52.61a3.286,3.286,0,0,1-4.648,0" transform="translate(-145.658 -1148.776)" fill="#e2161e"/>
      <path id="Path_216" data-name="Path 216" d="M628.455,1687.4l-52.61-52.61a3.287,3.287,0,1,1,4.648-4.648l47.962,47.962,47.962-47.962a3.287,3.287,0,0,1,4.648,4.648Z" transform="translate(-241.615 -1295.94)" fill="#e2161e"/>
      <path id="Path_217" data-name="Path 217" d="M541.786,1538.188a3.276,3.276,0,0,1-.963-2.324v-88.487a74.888,74.888,0,0,0-74.889-74.889H377.479a3.287,3.287,0,0,1,0-6.574h88.455a81.465,81.465,0,0,1,81.463,81.463v88.487a3.287,3.287,0,0,1-5.611,2.324" transform="translate(-157.267 -1185.292)" fill="#e2161e"/>
      <path id="Path_218" data-name="Path 218" d="M1116.669,2113.029a3.277,3.277,0,0,1-.963-2.324v-88.487a74.889,74.889,0,0,0-74.889-74.889H952.362a3.287,3.287,0,1,1,0-6.573h88.455a81.463,81.463,0,0,1,81.463,81.463V2110.7a3.287,3.287,0,0,1-5.611,2.324" transform="translate(-398.882 -1426.889)" fill="#e2161e"/>
      <path id="Path_219" data-name="Path 219" d="M685.494,1802.687a81.466,81.466,0,0,1-23.86-57.6v-88.428a3.287,3.287,0,1,1,6.573,0v88.428a74.889,74.889,0,0,0,74.89,74.89h88.455a3.287,3.287,0,0,1,0,6.573H743.1a81.458,81.458,0,0,1-57.6-23.86" transform="translate(-278.075 -1306.105)" fill="#e2161e"/>
      <path id="Path_220" data-name="Path 220" d="M110.611,1227.847a81.459,81.459,0,0,1-23.86-57.6v-88.428a3.287,3.287,0,1,1,6.573,0v88.428a74.89,74.89,0,0,0,74.89,74.89h88.454a3.287,3.287,0,1,1,0,6.573H168.214a81.466,81.466,0,0,1-57.6-23.86" transform="translate(-36.46 -1064.508)" fill="#e2161e"/>
      <rect id="Rectangle_66" data-name="Rectangle 66" width="71.115" height="71.115" transform="translate(123.003 183.412) rotate(-45)" fill="#e2161e"/>
      <rect id="Rectangle_67" data-name="Rectangle 67" width="71.115" height="71.115" transform="translate(336.556 304.122) rotate(-45)" fill="#e2161e"/>
      <rect id="Rectangle_68" data-name="Rectangle 68" width="71.115" height="71.115" transform="translate(456.271 516.655) rotate(-45)" fill="#e2161e"/>
      <rect id="Rectangle_69" data-name="Rectangle 69" width="71.115" height="71.115" transform="translate(669.824 638.365) rotate(-45)" fill="#e2161e"/>
    </g>
    <g id="Stea_N" data-name="Stea N" transform="translate(653.333 703.801)">
      <path id="Path_221" data-name="Path 221" d="M1599.081,1970.191V2002.2h-31.893l-29.289-29.29h31.95v-31.949Z" transform="translate(-1537.899 -1940.958)" fill="#fa9c00"/>
      <path id="Path_222" data-name="Path 222" d="M1652.263,2002.205h-32.006v-31.893l29.29-29.289v31.95H1681.5Z" transform="translate(-1548.64 -1940.967)" fill="#fa9c00"/>
      <path id="Path_223" data-name="Path 223" d="M1620.322,2055.244v-32.006h31.893l29.289,29.29h-31.95v31.949Z" transform="translate(-1548.649 -1951.69)" fill="#fa9c00"/>
      <path id="Path_224" data-name="Path 224" d="M1567.132,2023.237h32.007v31.893l-29.29,29.289v-31.95H1537.9Z" transform="translate(-1537.899 -1951.69)" fill="#fa9c00"/>
    </g>
    <g id="Sun" transform="translate(725.761 319.895)">
      <path id="Path_193" data-name="Path 193" d="M1722.027,177.346a88.674,88.674,0,0,1-62.7-151.376,88.674,88.674,0,1,1,125.4,125.4,88.093,88.093,0,0,1-62.7,25.972m0-170.78a82.105,82.105,0,0,0-58.057,140.163A82.105,82.105,0,1,0,1780.085,30.614a81.567,81.567,0,0,0-58.057-24.048" transform="translate(-1633.353 0.002)" fill="#fa9c00"/>
      <path id="Path_194" data-name="Path 194" d="M1741.075,170.12a62.4,62.4,0,1,1,44.124-18.277,61.993,61.993,0,0,1-44.124,18.277m0-118.232a55.832,55.832,0,1,0,55.832,55.832,55.9,55.9,0,0,0-55.832-55.832" transform="translate(-1652.401 -19.046)" fill="#fa9c00"/>
      <path id="Path_195" data-name="Path 195" d="M1795.347,129.149A32.842,32.842,0,1,1,1762.5,96.307a32.843,32.843,0,0,1,32.842,32.842" transform="translate(-1673.831 -40.475)" fill="#fa9c00"/>
    </g>
  </g>
</svg>
