<svg xmlns="http://www.w3.org/2000/svg" viewBox="0 0 1920.2 506.38"><defs><style>.cls-1{fill:#830000;}.cls-2{fill:#ffad1d;}.cls-3{fill:#00e0dd;}.cls-4{fill:#ff6914;}.cls-5{fill:#da0000;}</style></defs><g id="Layer_2" data-name="Layer 2"><g id="Section_1_-_TOP" data-name="Section 1 - TOP"><g id="Mountains_Top"><path id="y" class="cls-1" d="M1858.73,154.19V489.65c.33-7.53-22.9-276.57-26.87-294.12-2.7-11.93-9.79-72.86-18.3-82.15-7.36-8-13.8-10.42-23.75-8.8-7,1.15-17.81,76-24.82,75.85-4.94-.13-6.54-75.31-11.44-75a86.43,86.43,0,0,0-22.82,4.79c-17.36,6.15-28.18,10.66-37.2,24.18-5.32,8-21.37,174.93-26.43,168.39-22.06-28.54-35.4-261.19-64.46-275a187.48,187.48,0,0,1-26.49-15.74c-10.35-7.2-19.82-7.77-29-1.77-8.52,5.6-17.06,11.51-25.32,17.23-13.16,9.11-31.42,184-45.37,192.45-11.5,7-22-150.31-37-148.61-29.82,3.38-51.32,12.5-69.7,29.57-15.75,14.64-33.76,27.26-51.17,39.46l-8.59,6c-9.41,6.65-22.14,309-30.54,309.72-9.35.81-14.65-300.69-25.3-306.85-24.24-14-51-24.82-77-35.26-8.37-3.38-17-6.86-25.47-10.41a33.47,33.47,0,0,0-17.8-1.74q-3.3.6-6.57,1.08c-23.36,3.41-43.73-.6-65.86.28-11.47.46-21.25,48.81-33.33,57.59-24.76,6-41.48-67.68-61.82-76.52-12.45-5.4-21.37-4.27-32.91,4.16-11,8-24.22,13.16-35.51,13.84-6.87.42-32.89,93.37-39.68,93.2-23.07-.59-25.86-94.28-42.36-72.87-2.5,3.24-13.27,13.19-18.82,15.92-29,14.24-44.74,20.69-63.27,47.31-13.48,19.36-25.8,39-43.71,30.39-2.5-1.2-86.42,62.56-56.57,27.12a44.45,44.45,0,0,1,8.91-7.85c7.44-5.09,33.94-38.11,34.79-38.92,3.8-3.6,10.1-1,12-.09,15,7.22,27.94,2.6,39.6-14.15,19.25-27.65,43.77-47,75-59.28,2.32-.92,5.83-2.29,7.3-4.2,18.4-23.87,42.79-23.24,66.38-22.64,6.65.17,13.54.34,20.14,0,10.17-.62,22.23-5.36,32.26-12.68,13.26-9.68,24.55-11.08,39-4.84,19.41,8.41,39.48,17.11,62.24,11.59,9.68-2.35,20.84.06,31.45,3,22.41,6.24,45.43,7.08,70.36,2.57a39.85,39.85,0,0,1,21.26,2.12c8.4,3.53,17,7,25.39,10.37,26.13,10.52,53.14,21.41,77.76,35.64,20.81,12,34.73,7.68,49.23-2.56q4.29-3,8.61-6.05c17.24-12.08,35.08-24.58,50.52-38.93,19.4-18,42-27.64,73.18-31.17,13.84-1.57,28.2-9.38,39.17-16,13.79-8.34,27.32-17.71,40.4-26.77,8.29-5.74,16.86-11.67,25.44-17.31,11.32-7.43,23.37-6.81,35.83,1.86a183.27,183.27,0,0,0,25.62,15.24c30,14.25,55.52,35.43,78.18,64.75a93.11,93.11,0,0,0,18,17.36c8,6,16.08,6.12,26.33.5,7.73-4.25,17.89-5,25.31-5.53,5.2-.38,10.47-.25,15.56-.12,7,.17,13.68.34,20.17-.72,12-2,20.49,1.15,29.25,10.71A129.31,129.31,0,0,0,1845.72,132C1855.4,138,1859.16,144.37,1858.73,154.19Z"/><path id="y-2" class="cls-2" d="M1920,179.05l-.17,327.33c.33-7.53-18.2-261.15-22.17-278.7-2.69-11.93-9.78-72.86-18.29-82.15-7.36-8-13.8-10.42-23.75-8.8-7.06,1.15-17.82,76-24.82,75.85-5-.13-6.55-75.31-11.45-75a86,86,0,0,0-22.81,4.84c-17.36,6.15-28.19,10.66-37.21,24.18C1754,174.6,1738,341.53,1732.9,335c-22-28.54-35.4-261.19-64.45-275A188.15,188.15,0,0,1,1642,44.25c-10.34-7.2-19.81-7.77-29-1.76-8.52,5.59-17.06,11.5-25.32,17.22-13.16,9.11-31.41,184-45.36,192.45-11.5,7-22-150.31-37-148.61-29.83,3.38-51.33,12.5-69.71,29.57-15.74,14.64-33.75,27.26-51.17,39.46l-8.58,6c-9.42,6.65-22.14,309-30.55,309.72-9.35.81-14.64-300.69-25.29-306.85-24.24-14-51-24.82-77-35.26-8.38-3.38-17-6.86-25.48-10.41A33.42,33.42,0,0,0,1199.7,134c-2.2.4-4.4.76-6.57,1.08-23.37,3.41-43.73-.6-65.86.28-11.47.46-39,242.68-47.27,244.7-24.76,6-27.55-254.79-47.89-263.63-12.44-5.4-21.36-4.27-32.91,4.16-10.94,8-24.22,13.16-35.51,13.84-6.86.42-32.88,93.37-39.67,93.2-23.07-.59-25.86-94.28-42.36-72.87-2.51,3.24-13.28,13.19-18.82,15.92-29,14.24-44.74,20.69-63.27,47.31-13.48,19.36-25.81,39-43.71,30.39-2.67-1.28-12.78,108-12.94,128.11,0,6.57-.92-146.82.07-147.76,3.79-3.6,10.1-1,11.94-.09,15,7.22,28,2.6,39.61-14.15,19.24-27.65,43.77-47,75-59.28,2.32-.92,5.84-2.29,7.3-4.2,18.4-23.87,42.79-23.24,66.38-22.64,6.66.17,13.54.34,20.14,0,10.18-.69,22.25-5.4,32.29-12.69,13.26-9.68,24.55-11.08,39-4.84,19.41,8.41,39.48,17.11,62.25,11.59,9.67-2.35,20.83.06,31.45,3,22.41,6.24,45.42,7.08,70.36,2.57a39.82,39.82,0,0,1,21.25,2.12c8.41,3.53,17,7,25.4,10.37,26.12,10.52,53.14,21.41,77.75,35.64,20.81,12,34.73,7.68,49.24-2.56l8.6-6.05c17.25-12.08,35.08-24.58,50.52-38.93,19.4-18,42-27.64,73.19-31.17,13.84-1.57,28.2-9.38,39.16-16,13.79-8.34,27.32-17.71,40.4-26.77,8.29-5.74,16.87-11.67,25.45-17.31C1621,30,1633,30.57,1645.49,39.24a184,184,0,0,0,25.63,15.24c30,14.25,55.52,35.43,78.18,64.75a93.11,93.11,0,0,0,18,17.36c8,6,16.09,6.12,26.33.5,7.74-4.25,17.9-5,25.31-5.53,5.21-.38,10.47-.25,15.57-.12,7,.17,13.67.34,20.16-.72,12-2,20.5,1.15,29.26,10.71a129.2,129.2,0,0,0,27.61,22.8C1921.18,170.11,1920.4,169.23,1920,179.05Z"/><path id="y-3" class="cls-3" d="M1737,457.48l-46.86-69.05c.33-7.54-58.17-11.24-62.14-28.8-2.7-11.93-71.92-186.7-80.43-196-7.36-8-13.8-10.42-23.75-8.8-7,1.15-17.81,76-24.82,75.85-4.94-.12-6.54-75.3-11.45-75a86.37,86.37,0,0,0-22.81,4.8c-17.36,6.14-28.18,10.65-37.2,24.18-5.32,8-21.37,174.92-26.43,168.38-22.06-28.54-35.4-261.18-64.46-275a189.65,189.65,0,0,1-26.49-15.75c-10.35-7.19-19.82-7.77-29-1.76-8.52,5.59-17.06,11.51-25.32,17.23-13.16,9.11-31.42,184-45.37,192.45-11.5,7-22-150.32-37-148.61-29.82,3.37-51.32,12.49-69.7,29.57-15.75,14.63-33.76,27.25-51.18,39.45l-8.58,6c-9.41,6.64-22.14,309-30.54,309.71-9.35.81-14.65-300.69-25.3-306.85-24.24-14-51.05-24.82-77-35.26-8.37-3.37-17-6.86-25.47-10.4a33.36,33.36,0,0,0-17.8-1.74c-2.2.4-4.39.75-6.57,1.07-23.36,3.41-43.73-.6-65.86.29C784,153.94,766,408.63,757.67,410.65c-24.76,6-37-267.26-57.31-276.1-12.45-5.39-21.37-4.26-32.91,4.16-11,8-24.22,13.17-35.52,13.85-6.86.41-32.88,93.37-39.67,93.19-23.07-.59-25.86-94.28-42.36-72.87-2.5,3.24-13.27,13.19-18.82,15.92-29,14.24-44.74,20.69-63.27,47.31-13.48,19.37-25.8,39-43.71,30.4-2.67-1.29-12.77,107.94-12.93,128.11-.05,6.56-.93-146.83.06-147.77,3.8-3.6,10.1-1,11.95-.09,15,7.23,27.94,2.6,39.6-14.15,19.25-27.65,43.77-47,75-59.28,2.33-.91,5.84-2.29,7.31-4.19,18.4-23.88,42.79-23.25,66.37-22.65,6.66.17,13.55.35,20.15-.05,10.16-.62,22.23-5.35,32.26-12.68,13.26-9.68,24.55-11.08,39-4.83,19.42,8.4,39.49,17.1,62.25,11.58,9.68-2.34,20.83.06,31.45,3,22.41,6.23,45.43,7.07,70.36,2.57a39.75,39.75,0,0,1,21.26,2.11c8.4,3.53,17,7,25.39,10.37,26.13,10.53,53.14,21.41,77.76,35.64,20.8,12,34.73,7.68,49.23-2.56q4.29-3,8.61-6c17.24-12.08,35.08-24.58,50.52-38.92,19.4-18,42-27.64,73.18-31.17,13.84-1.57,28.2-9.39,39.17-16,13.79-8.34,27.31-17.71,40.4-26.76,8.29-5.74,16.86-11.68,25.44-17.31,11.31-7.44,23.37-6.81,35.83,1.85a182.31,182.31,0,0,0,25.62,15.24c30,14.25,55.52,35.43,78.18,64.75a93.11,93.11,0,0,0,18,17.36c8,6,16.08,6.12,26.32.5,7.74-4.24,17.9-5,25.32-5.53,5.2-.38,10.47-.25,15.56-.12,7,.18,13.67.34,20.17-.72,12-1.95,20.49,1.15,29.25,10.71,8.13,8.88,36.28,44.25,46.23,50.32C1608,215.72,1737.47,447.66,1737,457.48Z"/><path id="y-4" class="cls-4" d="M1177.35,154.19V489.65c.33-7.53-22.9-276.57-26.87-294.12-2.7-11.93-9.79-72.86-18.3-82.15-7.36-8-13.8-10.42-23.75-8.8-7,1.15-17.81,76-24.82,75.85-4.94-.13-6.54-75.31-11.45-75a86.36,86.36,0,0,0-22.81,4.79c-17.36,6.15-28.18,10.66-37.2,24.18-5.32,8-21.37,174.93-26.43,168.39-22.06-28.54-35.4-261.19-64.46-275a187.48,187.48,0,0,1-26.49-15.74c-10.35-7.2-19.82-7.77-29-1.77-8.52,5.6-17.06,11.51-25.32,17.23C827.29,36.62,809,211.51,795.08,220c-11.5,7-22-150.31-37-148.61-29.82,3.38-51.32,12.5-69.7,29.57-15.75,14.64-33.76,27.26-51.17,39.46l-8.59,6c-9.41,6.65-22.14,309-30.54,309.72-9.35.81-14.65-300.69-25.3-306.85-24.24-14-51-24.82-77-35.26-8.37-3.38-17-6.86-25.47-10.41a33.47,33.47,0,0,0-17.8-1.74q-3.3.6-6.57,1.08c-15.56,2.27-27.9,5.46-40.94,7.6a38.09,38.09,0,0,0-31,28.69c-13.95,58.51-23.27,189.53-37.92,211.89-24.76,6-30.74-257.93-51.08-266.77-12.45-5.4-21.37-4.27-32.91,4.16-11,8-24.22,13.16-35.51,13.84-9.16,17.35-32.89,93.37-39.68,93.2-23.07-.59-25.86-94.28-42.36-72.87-2.5,3.24-13.27,13.19-18.82,15.92C86.79,152.82,71,159.27,52.47,185.89c-13.48,19.36-25.8,39-43.71,30.39C6.09,215,.79,249.55,0,329.55c.56-76.32,0-96.31,0-131.78,3.8-3.6,6-2.14,7.89-1.23,15,7.22,27.94,2.6,39.6-14.15,19.25-27.65,43.77-47,75-59.28,2.32-.92,5.83-2.29,7.3-4.2,18.4-23.87,42.79-23.24,66.37-22.64,6.66.17,13.55.34,20.15,0,10.16-.62,22.23-5.36,32.26-12.68,13.26-9.68,24.55-11.08,39-4.84,19.42,8.41,39.49,17.11,62.25,11.59,9.68-2.35,20.83.06,31.45,3,22.27,6.25,45.27,7.09,70.27,2.58A39.85,39.85,0,0,1,472.8,98c8.4,3.53,17,7,25.39,10.37C524.32,118.88,551.33,129.77,576,144c20.8,12,34.73,7.68,49.23-2.56q4.29-3,8.61-6.05c17.24-12.08,35.08-24.58,50.52-38.93,19.4-18,42-27.64,73.18-31.17,13.84-1.57,28.2-9.38,39.17-16C810.45,41,824,31.58,837.06,22.52c8.29-5.74,16.86-11.67,25.44-17.31,11.31-7.43,23.37-6.81,35.83,1.86A182.31,182.31,0,0,0,924,22.31c30,14.25,55.52,35.43,78.18,64.75a93.11,93.11,0,0,0,18,17.36c8,6,16.08,6.12,26.32.5,7.74-4.25,17.9-5,25.32-5.53,5.2-.38,10.47-.25,15.56-.12,7,.17,13.67.34,20.17-.72,12-2,20.49,1.15,29.25,10.71a129.26,129.26,0,0,0,27.64,22.84C1174,138,1177.78,144.37,1177.35,154.19Z"/><path id="y-5" class="cls-5" d="M1887.87,289.44,1877,327.53c.33-7.54-12,20.81-16,3.25-2.7-11.92-9.79-72.85-18.3-82.15-7.36-8-13.8-10.42-23.75-8.8-7,1.15-17.81,76-24.82,75.85-4.94-.12-6.54-75.3-11.45-74.94a85.57,85.57,0,0,0-22.81,4.79c-17.36,6.14-28.18,10.65-37.2,24.18-5.32,8-21.37,174.93-26.43,168.38-22.06-28.54-35.4-261.18-64.46-275a189.65,189.65,0,0,1-26.49-15.75c-10.35-7.19-19.82-7.77-29-1.76-8.52,5.59-17.06,11.51-25.32,17.23-13.16,9.11-31.42,184-45.37,192.45-11.5,7-22-150.31-37-148.61-29.82,3.37-51.32,12.49-69.7,29.57-15.75,14.63-33.76,27.25-51.18,39.45l-8.58,6c-9.41,6.64-17.91,130.3-26.31,131-9.35.81-18.88-122-29.53-128.15-24.24-14-51-24.82-77-35.26-8.37-3.37-17-6.86-25.47-10.4a33.36,33.36,0,0,0-17.8-1.74q-3.3.59-6.57,1.07c-23.36,3.41-43.73-.6-65.86.29-11.47.45-28.39,74.83-36.71,76.85-24.76,6-38.1-86.95-58.44-95.79-12.45-5.39-21.37-4.26-32.91,4.16-11,8-24.22,13.17-35.52,13.85-6.86.41-32.88,93.37-39.67,93.19-23.07-.59-25.86-94.28-42.36-72.87-2.5,3.24-13.27,13.19-18.82,15.92-29,14.24-44.74,20.69-63.27,47.31-13.48,19.37-25.8,39-43.71,30.4-2.67-1.29-12.77,107.94-12.93,128.11,0,6.56-.93-146.83.06-147.77,3.8-3.6,10.1-1,12-.09,15,7.23,27.94,2.6,39.6-14.15,19.25-27.65,43.77-47,75-59.28,2.33-.91,5.84-2.29,7.31-4.19,18.4-23.87,42.79-23.25,66.37-22.65,6.66.17,13.55.35,20.15-.05,10.16-.61,22.23-5.35,32.26-12.68,13.26-9.68,24.55-11.08,39-4.83,19.42,8.41,39.49,17.1,62.25,11.58,9.68-2.34,20.83.07,31.45,3,22.41,6.23,45.43,7.07,70.36,2.57a39.76,39.76,0,0,1,21.26,2.11c8.4,3.53,17,7,25.39,10.37,26.13,10.53,53.14,21.41,77.76,35.65,20.8,12,34.73,7.67,49.23-2.57q4.29-3,8.61-6.05c17.24-12.08,35.08-24.58,50.52-38.92,19.4-18,42-27.64,73.18-31.17,13.84-1.57,28.2-9.39,39.17-16,13.79-8.34,27.31-17.71,40.4-26.76,8.29-5.74,16.86-11.68,25.44-17.31,11.31-7.44,23.37-6.81,35.83,1.85a182.31,182.31,0,0,0,25.62,15.24c30,14.25,55.52,35.43,78.18,64.75a93.11,93.11,0,0,0,18,17.36c8,6,16.08,6.12,26.32.5,7.74-4.24,17.9-5,25.32-5.53,5.2-.38,10.47-.25,15.56-.12,7,.18,13.67.34,20.17-.72,12-1.95,20.49,1.15,29.25,10.72a129.26,129.26,0,0,0,27.64,22.84C1884.54,273.22,1888.3,279.62,1887.87,289.44Z"/></g></g></g></svg>