<?xml version="1.0" encoding="UTF-8"?><svg id="Layer_2" xmlns="http://www.w3.org/2000/svg" xmlns:xlink="http://www.w3.org/1999/xlink" viewBox="0 0 1783.16 437.93"><defs><style>.cls-1{clip-path:url(#clippath);}.cls-2{fill:#fa9c00;}.cls-3{fill:#fff;}.cls-4{fill:#6c0000;}.cls-5{fill:#30dbd5;}.cls-6{fill:#e2161e;}.cls-7{clip-path:url(#clippath-1);}.cls-8{clip-path:url(#clippath-4);}.cls-9{clip-path:url(#clippath-3);}.cls-10{clip-path:url(#clippath-2);}.cls-11{clip-path:url(#clippath-7);}.cls-12{clip-path:url(#clippath-8);}.cls-13{clip-path:url(#clippath-6);}.cls-14{clip-path:url(#clippath-5);}.cls-15{clip-path:url(#clippath-9);}.cls-16{clip-path:url(#clippath-10);}</style><clipPath id="clippath"><path class="cls-3" d="M330.47,40.71h-44.14V335.12h-45.42V40.71h-44.14V4.29h133.7V40.71Z"/></clipPath><clipPath id="clippath-1"><path class="cls-3" d="M481.31,104.13c0,64.28-32.14,95.14-47.14,105.42,9.86,12,22.28,30,30.85,51.42,10.71,25.71,13.71,51.42,13.71,74.14h-44.57c0-18.86-3-39.85-10.28-58.28-7.71-19.28-18.43-35.57-26.57-44.57v102.85h-45.43V4.29h35.57c48,0,93.85,24.85,93.85,99.85Zm-45.42,.43c0-49.28-18.43-63.42-38.57-63.42V186.84c9.43-1.29,38.57-26.14,38.57-82.28Z"/></clipPath><clipPath id="clippath-2"><path class="cls-3" d="M637.72,335.12h-42.43l-8.14-58.71h-45.42l-7.71,58.71h-40.28L543.87,4.29h43.71l50.14,330.83Zm-55.28-95.14l-18-138.42-18,138.42h36Z"/></clipPath><clipPath id="clippath-3"><path class="cls-3" d="M791.99,169.7c0,143.99-53.14,165.42-100.71,165.42h-32.14V4.29h32.14c47.57,0,100.71,21.43,100.71,165.42Zm-45.85,0c0-108.85-24.86-128.99-41.57-128.99V298.69c16.71,0,41.57-20.14,41.57-128.99Z"/></clipPath><clipPath id="clippath-4"><path class="cls-3" d="M870.4,335.12h-45.43V4.29h45.43V335.12Z"/></clipPath><clipPath id="clippath-5"><path class="cls-3" d="M1025.96,40.71h-44.14V335.12h-45.42V40.71h-44.14V4.29h133.7V40.71Z"/></clipPath><clipPath id="clippath-6"><path class="cls-3" d="M1093.66,335.12h-45.43V4.29h45.43V335.12Z"/></clipPath><clipPath id="clippath-7"><path class="cls-3" d="M1302.21,167.56c0,143.13-38.57,167.56-74.99,167.56s-75.42-24.43-75.42-167.56S1190.79,0,1227.21,0s74.99,24.43,74.99,167.56Zm-45.42,0c0-110.13-15-131.13-29.57-131.13s-29.57,21-29.57,131.13,15,131.13,29.57,131.13,29.57-21,29.57-131.13Z"/></clipPath><clipPath id="clippath-8"><path class="cls-3" d="M1489.62,335.12h-21.86l-74.14-188.56v188.56h-43.71V4.29h21.86l73.71,189.84V4.29h44.14V335.12Z"/></clipPath><clipPath id="clippath-9"><path class="cls-3" d="M1655.03,335.12h-42.43l-8.14-58.28h-45.42l-7.71,58.28h-40.28L1561.18,6.71h43.71l50.14,328.4Zm-55.28-94.44l-18-137.4-18,137.4h36Z"/></clipPath><clipPath id="clippath-10"><path class="cls-3" d="M1783.16,335.12h-106.71V6.71h45.43V298.96h61.28v36.16Z"/></clipPath></defs><g id="TRADITIONAL_SIMPLU"><g id="Traditional_White_Color"><path class="cls-3" d="M981.82,355.23c-25.1,0-45.45,19.53-45.45,43.61v39.08h0c25.11,0,45.47-19.54,45.47-43.63v-39.06h-.02Zm-25.59,57.39l-2.77-9.27-2.77,9.27h-6.49l4.98-16.29-4.81-15.79h6.5l2.6,8.77,2.6-8.77h6.5l-4.81,15.79,4.98,16.29h-6.5Zm15.72,0h-6.5v-32.08h6.5v32.08Z"/><g><path class="cls-3" d="M330.47,40.71h-44.14V335.12h-45.42V40.71h-44.14V4.29h133.7V40.71Z"/><g class="cls-1"><g id="Way_rounded"><g id="Frunze"><path class="cls-6" d="M103.17,424.15c.5-1.03,1.73-1.46,2.76-.96l38.4,18.51,18.51-38.4c.5-1.03,1.73-1.46,2.76-.96s1.46,1.73,.96,2.76l-20.31,42.12-42.12-20.31c-1.03-.5-1.46-1.73-.96-2.76Z"/><path class="cls-6" d="M306.8,32.39l20.31-42.12c.5-1.03,1.73-1.46,2.76-.96s1.46,1.73,.96,2.76l-18.51,38.4,38.4,18.51c1.03,.5,1.46,1.73,.96,2.76s-1.73,1.46-2.76,.96l-42.12-20.31Z"/><path class="cls-6" d="M231.8,157.33c.5-1.03,1.73-1.46,2.76-.96l38.4,18.51,18.51-38.4c.5-1.03,1.73-1.46,2.76-.96s1.46,1.73,.96,2.76l-20.31,42.12-42.12-20.31c-1.03-.5-1.46-1.73-.96-2.76Z"/><path class="cls-6" d="M178.17,299.22l20.31-42.12c.5-1.03,1.73-1.46,2.76-.96s1.46,1.73,.96,2.76l-18.51,38.4,38.4,18.51c1.03,.5,1.46,1.73,.96,2.76s-1.73,1.46-2.76,.96l-42.12-20.31Z"/></g><g id="Tulpina"><path class="cls-6" d="M200.57,289.84c.23-.48,.64-.86,1.18-1.05l52.5-18.34c5.86-2.05,11.19-5.19,15.82-9.32,4.63-4.14,8.35-9.07,11.05-14.67,2.7-5.6,4.24-11.58,4.6-17.78,.35-6.2-.51-12.32-2.56-18.19l-18.34-52.48c-.38-1.08,.19-2.26,1.27-2.63,1.08-.38,2.26,.19,2.63,1.27l18.34,52.48c2.23,6.38,3.17,13.04,2.78,19.78-.38,6.75-2.06,13.25-5,19.34s-6.98,11.46-12.02,15.96c-5.04,4.5-10.83,7.91-17.21,10.14l-52.5,18.34c-1.08,.38-2.26-.19-2.63-1.27-.19-.54-.14-1.1,.09-1.58Z"/><path class="cls-6" d="M71.93,556.66c.23-.48,.64-.86,1.18-1.05l52.5-18.34c5.86-2.05,11.19-5.19,15.82-9.32,4.63-4.14,8.35-9.07,11.05-14.67,2.7-5.6,4.24-11.58,4.6-17.78,.35-6.2-.51-12.32-2.56-18.19l-18.34-52.48c-.38-1.08,.19-2.26,1.27-2.63s2.26,.19,2.63,1.27l18.34,52.48c2.23,6.38,3.17,13.04,2.78,19.78-.38,6.75-2.06,13.25-5,19.34s-6.98,11.46-12.02,15.96c-5.04,4.5-10.83,7.91-17.21,10.14l-52.5,18.34c-1.08,.38-2.26-.19-2.63-1.27-.19-.54-.14-1.1,.09-1.58Z"/><path class="cls-6" d="M120.06,333.22c2.93-6.09,6.98-11.46,12.02-15.96,5.04-4.5,10.83-7.91,17.21-10.14l52.47-18.33c1.08-.38,2.26,.19,2.63,1.27,.38,1.08-.19,2.26-1.27,2.63l-52.47,18.33c-5.86,2.05-11.19,5.19-15.82,9.32-4.63,4.14-8.35,9.07-11.05,14.67-2.7,5.6-4.24,11.58-4.6,17.78-.35,6.2,.51,12.32,2.56,18.19l18.34,52.48c.38,1.08-.19,2.26-1.27,2.63-1.08,.38-2.26-.19-2.63-1.27l-18.34-52.48c-2.23-6.38-3.17-13.04-2.78-19.78,.38-6.75,2.06-13.25,5-19.34Z"/><path class="cls-6" d="M248.7,66.4c2.93-6.09,6.98-11.46,12.02-15.96,5.04-4.5,10.83-7.91,17.21-10.14l52.47-18.33c1.08-.38,2.26,.19,2.63,1.27,.38,1.08-.19,2.26-1.27,2.63l-52.47,18.33c-5.86,2.05-11.19,5.19-15.82,9.32-4.63,4.14-8.35,9.07-11.05,14.67-2.7,5.6-4.24,11.58-4.6,17.78-.35,6.2,.51,12.32,2.56,18.19l18.34,52.48c.38,1.08-.19,2.26-1.27,2.63-1.08,.38-2.26-.19-2.63-1.27l-18.34-52.48c-2.23-6.38-3.17-13.04-2.78-19.78,.38-6.75,2.06-13.25,5-19.34Z"/></g><g id="romb"><rect class="cls-6" x="234.99" y="107.03" width="44.7" height="44.7" transform="translate(432.96 357.68) rotate(-154.26)"/><rect class="cls-6" x="207.64" y="258.76" width="44.7" height="44.7" transform="translate(315.07 634.21) rotate(-154.26)"/><rect class="cls-6" x="106.36" y="373.85" width="44.7" height="44.7" transform="translate(72.57 808.98) rotate(-154.26)"/></g></g></g></g><g><path class="cls-3" d="M481.31,104.13c0,64.28-32.14,95.14-47.14,105.42,9.86,12,22.28,30,30.85,51.42,10.71,25.71,13.71,51.42,13.71,74.14h-44.57c0-18.86-3-39.85-10.28-58.28-7.71-19.28-18.43-35.57-26.57-44.57v102.85h-45.43V4.29h35.57c48,0,93.85,24.85,93.85,99.85Zm-45.42,.43c0-49.28-18.43-63.42-38.57-63.42V186.84c9.43-1.29,38.57-26.14,38.57-82.28Z"/><g class="cls-7"><g id="pasare"><g id="romb-2"><rect class="cls-5" x="373.37" y="134.43" width="75.69" height="75.69" transform="translate(242.27 -240.32) rotate(45)"/></g><g><path class="cls-5" d="M411,115.46l-33.88-33.88c-2.21-2.21-2.21-5.8,0-8.01,2.21-2.21,5.8-2.21,8.01,0l25.87,25.87,25-25c2.21-2.21,5.8-2.21,8.01,0,2.21,2.21,2.21,5.8,0,8.01l-33.01,33.01Z"/><path class="cls-5" d="M411,90.27l-33.88-33.88c-2.21-2.21-2.21-5.8,0-8.01,2.21-2.21,5.8-2.21,8.01,0l25.87,25.87,25-25c2.21-2.21,5.8-2.21,8.01,0,2.21,2.21,2.21,5.8,0,8.01l-33.01,33.01Z"/><path class="cls-5" d="M411,64.11l-33.88-33.88c-2.21-2.21-2.21-5.8,0-8.01,2.21-2.21,5.8-2.21,8.01,0l25.87,25.87,25-25c2.21-2.21,5.8-2.21,8.01,0,2.21,2.21,2.21,5.8,0,8.01l-33.01,33.01Z"/></g><g><path class="cls-5" d="M315.6,209.54c-1.45,0-2.9-.55-4-1.66-2.21-2.21-2.21-5.8,0-8.01l25.87-25.87-25-25c-2.21-2.21-2.21-5.8,0-8.01,2.21-2.21,5.8-2.21,8.01,0l33.01,33.01-33.88,33.88c-1.11,1.11-2.55,1.66-4,1.66Z"/><path class="cls-5" d="M290.41,209.54c-1.45,0-2.9-.55-4-1.66-2.21-2.21-2.21-5.8,0-8.01l25.87-25.87-25-25c-2.21-2.21-2.21-5.8,0-8.01,2.21-2.21,5.8-2.21,8.01,0l33.01,33.01-33.88,33.88c-1.11,1.11-2.55,1.66-4,1.66Z"/><path class="cls-5" d="M264.25,209.54c-1.45,0-2.9-.55-4-1.66-2.21-2.21-2.21-5.8,0-8.01l25.87-25.87-25-25c-2.21-2.21-2.21-5.8,0-8.01,2.21-2.21,5.8-2.21,8.01,0l33.01,33.01-33.88,33.88c-1.11,1.11-2.55,1.66-4,1.66Z"/></g><g><path class="cls-5" d="M441.9,275.06c-1.45,0-2.9-.55-4-1.66l-25.87-25.87-25,25c-2.21,2.21-5.8,2.21-8.01,0-2.21-2.21-2.21-5.8,0-8.01l33.01-33.01,33.88,33.88c2.21,2.21,2.21,5.8,0,8.01-1.11,1.11-2.55,1.66-4,1.66Z"/><path class="cls-5" d="M441.9,300.25c-1.45,0-2.9-.55-4-1.66l-25.87-25.87-25,25c-2.21,2.21-5.8,2.21-8.01,0-2.21-2.21-2.21-5.8,0-8.01l33.01-33.01,33.88,33.88c2.21,2.21,2.21,5.8,0,8.01-1.11,1.11-2.55,1.66-4,1.66Z"/><path class="cls-5" d="M441.9,326.41c-1.45,0-2.9-.55-4-1.66l-25.87-25.87-25,25c-2.21,2.21-5.8,2.21-8.01,0-2.21-2.21-2.21-5.8,0-8.01l33.01-33.01,33.88,33.88c2.21,2.21,2.21,5.8,0,8.01-1.11,1.11-2.55,1.66-4,1.66Z"/></g><g><path class="cls-5" d="M506.56,207.64c-1.45,0-2.9-.55-4-1.66l-33.01-33.01,33.88-33.88c2.21-2.21,5.8-2.21,8.01,0,2.21,2.21,2.21,5.8,0,8.01l-25.87,25.87,25,25c2.21,2.21,2.21,5.8,0,8.01-1.11,1.11-2.55,1.66-4,1.66Z"/><path class="cls-5" d="M531.75,207.64c-1.45,0-2.9-.55-4-1.66l-33.01-33.01,33.88-33.88c2.21-2.21,5.8-2.21,8.01,0,2.21,2.21,2.21,5.8,0,8.01l-25.87,25.87,25,25c2.21,2.21,2.21,5.8,0,8.01-1.11,1.11-2.55,1.66-4,1.66Z"/><path class="cls-5" d="M557.9,207.64c-1.45,0-2.9-.55-4-1.66l-33.01-33.01,33.88-33.88c2.21-2.21,5.8-2.21,8.01,0,2.21,2.21,2.21,5.8,0,8.01l-25.87,25.87,25,25c2.21,2.21,2.21,5.8,0,8.01-1.11,1.11-2.55,1.66-4,1.66Z"/></g></g></g></g><g><path class="cls-3" d="M637.72,335.12h-42.43l-8.14-58.71h-45.42l-7.71,58.71h-40.28L543.87,4.29h43.71l50.14,330.83Zm-55.28-95.14l-18-138.42-18,138.42h36Z"/><g class="cls-10"><g id="nuca"><circle class="cls-2" cx="604.5" cy="237.12" r="37.44"/><polygon class="cls-2" points="564.39 54.74 564.39 197.01 422.12 197.01 422.12 196.08 563.46 54.74 564.39 54.74"/><polygon class="cls-2" points="422.12 277.24 564.39 277.24 564.39 419.51 563.46 419.51 422.12 278.17 422.12 277.24"/><polygon class="cls-2" points="644.62 419.51 644.62 277.24 786.89 277.24 786.89 278.17 645.55 419.51 644.62 419.51"/><polygon class="cls-2" points="786.89 197.01 644.62 197.01 644.62 54.74 645.55 54.74 786.89 196.08 786.89 197.01"/></g></g></g><g><path class="cls-3" d="M791.99,169.7c0,143.99-53.14,165.42-100.71,165.42h-32.14V4.29h32.14c47.57,0,100.71,21.43,100.71,165.42Zm-45.85,0c0-108.85-24.86-128.99-41.57-128.99V298.69c16.71,0,41.57-20.14,41.57-128.99Z"/><g class="cls-9"><g id="Spiral"><path class="cls-4" d="M719.34,370.68c-27.67,0-54.65-5.26-80.19-15.62-26.44-10.73-50.17-26.5-70.53-46.86-20.36-20.36-36.13-44.09-46.86-70.53-10.37-25.54-15.62-52.52-15.62-80.19s5.26-54.65,15.62-80.19c10.73-26.44,26.5-50.17,46.86-70.53,2.66-2.66,6.97-2.66,9.63,0,2.66,2.66,2.66,6.97,0,9.63-37.72,37.72-58.49,87.82-58.49,141.09s20.77,103.37,58.49,141.09c37.72,37.72,87.82,58.49,141.09,58.49s103.37-20.77,141.09-58.49c31.22-31.22,48.41-72.69,48.41-116.77s-17.19-85.55-48.41-116.77c-31.22-31.22-72.69-48.41-116.77-48.41s-85.55,17.19-116.77,48.41c-24.72,24.72-38.33,57.55-38.33,92.45s13.61,67.74,38.33,92.45c24.72,24.72,57.55,38.33,92.45,38.33s67.74-13.61,92.45-38.33c18.22-18.22,28.25-42.41,28.25-68.14s-10.03-49.92-28.25-68.14c-18.22-18.22-42.41-28.25-68.14-28.25s-49.92,10.03-68.14,28.25c-24.16,24.16-24.16,63.48,0,87.64,24.16,24.16,63.48,24.16,87.64,0,10.75-10.75,10.75-28.25,0-39.01-5.21-5.21-12.14-8.09-19.5-8.09s-14.29,2.87-19.5,8.09c-2.66,2.66-6.97,2.66-9.63,0-2.66-2.66-2.66-6.97,0-9.63,7.79-7.79,18.13-12.08,29.13-12.08s21.34,4.29,29.13,12.07c16.06,16.06,16.06,42.2,0,58.26-29.47,29.47-77.43,29.47-106.9,0-29.47-29.47-29.47-77.43,0-106.9,20.79-20.79,48.41-32.24,77.77-32.24s56.98,11.45,77.77,32.24c20.79,20.79,32.24,48.41,32.24,77.77s-11.45,56.98-32.24,77.77c-27.29,27.29-63.54,42.32-102.08,42.32s-74.79-15.03-102.08-42.32c-27.29-27.29-42.32-63.54-42.32-102.08s15.03-74.79,42.32-102.08c33.79-33.79,78.68-52.4,126.4-52.4s92.61,18.61,126.4,52.4c33.79,33.79,52.4,78.68,52.4,126.4s-18.61,92.61-52.4,126.4c-20.36,20.36-44.09,36.13-70.53,46.86-25.54,10.37-52.52,15.62-80.19,15.62Z"/></g></g></g><g><path class="cls-3" d="M870.4,335.12h-45.43V4.29h45.43V335.12Z"/><g class="cls-8"><g id="spic"><g id="Spic"><path class="cls-2" d="M849.33,141.05c-1.71,0-3.42-.61-4.79-1.85-2.92-2.65-3.14-7.16-.49-10.07l58.66-64.64c2.65-2.92,7.16-3.14,10.07-.49,2.92,2.65,3.14,7.16,.49,10.07l-58.66,64.64c-1.41,1.55-3.34,2.34-5.28,2.34Z"/><path class="cls-2" d="M847.69,210.66c-1.71,0-3.42-.61-4.79-1.85-2.92-2.65-3.14-7.16-.49-10.07l58.66-64.64c2.65-2.92,7.16-3.14,10.07-.49,2.92,2.65,3.14,7.16,.49,10.07l-58.66,64.64c-1.41,1.55-3.34,2.34-5.28,2.34Z"/><path class="cls-2" d="M847.69,280.27c-1.71,0-3.42-.61-4.79-1.85-2.92-2.65-3.14-7.16-.49-10.07l58.66-64.64c2.65-2.92,7.16-3.14,10.07-.49,2.92,2.65,3.14,7.16,.49,10.07l-58.66,64.64c-1.41,1.55-3.34,2.34-5.28,2.34Z"/><path class="cls-2" d="M846.05,141.05c-1.94,0-3.88-.79-5.28-2.34l-58.66-64.64c-2.65-2.92-2.43-7.43,.49-10.07,2.92-2.65,7.43-2.43,10.07,.49l58.66,64.64c2.65,2.92,2.43,7.43-.49,10.07-1.37,1.24-3.08,1.85-4.79,1.85Z"/><path class="cls-2" d="M847.69,210.66c-1.94,0-3.88-.79-5.28-2.34l-58.66-64.64c-2.65-2.92-2.43-7.43,.49-10.07,2.92-2.65,7.43-2.43,10.07,.49l58.66,64.64c2.65,2.92,2.43,7.43-.49,10.07-1.37,1.24-3.08,1.85-4.79,1.85Z"/><path class="cls-2" d="M847.69,280.27c-1.94,0-3.88-.79-5.28-2.34l-58.66-64.64c-2.65-2.92-2.43-7.43,.49-10.07,2.92-2.65,7.43-2.43,10.07,.49l58.66,64.64c2.65,2.92,2.43,7.43-.49,10.07-1.37,1.24-3.08,1.85-4.79,1.85Z"/><path class="cls-2" d="M847.69,400.51c-3.94,0-7.13-3.19-7.13-7.13V25.43c0-3.94,3.19-7.13,7.13-7.13s7.13,3.19,7.13,7.13V393.38c0,3.94-3.19,7.13-7.13,7.13Z"/></g><g id="Boabe"><circle class="cls-2" cx="907.99" cy="69.28" r="11.83"/><circle class="cls-2" cx="847.28" cy="25.88" r="11.83"/><circle class="cls-2" cx="906.35" cy="138.89" r="11.83"/><circle class="cls-2" cx="906.35" cy="208.5" r="11.83"/><circle class="cls-2" cx="787.39" cy="69.28" r="11.83"/><circle class="cls-2" cx="789.04" cy="138.89" r="11.83"/><circle class="cls-2" cx="789.04" cy="208.5" r="11.83"/></g></g></g></g><g><path class="cls-3" d="M1025.96,40.71h-44.14V335.12h-45.42V40.71h-44.14V4.29h133.7V40.71Z"/><g class="cls-14"><g id="unghi"><path class="cls-6" d="M1035.26,210.59c-3.67,0-7.35-1.4-10.15-4.2l-65.57-65.57-63.37,63.37c-5.6,5.6-14.69,5.6-20.3,0-5.6-5.6-5.6-14.69,0-20.3l83.66-83.66,85.87,85.87c5.6,5.6,5.6,14.69,0,20.3-2.8,2.8-6.47,4.2-10.15,4.2Z"/><path class="cls-6" d="M1035.26,274.43c-3.67,0-7.35-1.4-10.15-4.2l-65.57-65.57-63.37,63.37c-5.6,5.6-14.69,5.6-20.3,0-5.6-5.6-5.6-14.69,0-20.3l83.66-83.66,85.87,85.87c5.6,5.6,5.6,14.69,0,20.3-2.8,2.8-6.47,4.2-10.15,4.2Z"/><path class="cls-6" d="M1035.26,340.73c-3.67,0-7.35-1.4-10.15-4.2l-65.57-65.57-63.37,63.37c-5.6,5.6-14.69,5.6-20.3,0-5.6-5.6-5.6-14.69,0-20.3l83.66-83.66,85.87,85.87c5.6,5.6,5.6,14.69,0,20.3-2.8,2.8-6.47,4.2-10.15,4.2Z"/></g></g></g><g><path class="cls-3" d="M1093.66,335.12h-45.43V4.29h45.43V335.12Z"/><g class="cls-13"><g id="coloana"><path class="cls-5" d="M1157.17,395.11c-2.1,0-4.2-.8-5.81-2.41l-116.68-116.68,106.96-106.96-106.34-106.34,114.9-114.9c3.21-3.21,8.41-3.21,11.62,0,3.21,3.21,3.21,8.41,0,11.62l-103.28,103.28,106.34,106.34-106.96,106.96,105.07,105.07c3.21,3.21,3.21,8.41,0,11.62-1.6,1.6-3.71,2.41-5.81,2.41Z"/><path class="cls-5" d="M900.82,395.11c-2.1,0-4.2-.8-5.81-2.41-3.21-3.21-3.21-8.41,0-11.62l105.07-105.07-106.96-106.96,106.34-106.34-103.28-103.28c-3.21-3.21-3.21-8.41,0-11.62,3.21-3.21,8.41-3.21,11.62,0l114.9,114.9-106.34,106.34,106.96,106.96-116.68,116.68c-1.6,1.6-3.71,2.41-5.81,2.41Z"/></g></g></g><g><path class="cls-3" d="M1302.21,167.56c0,143.13-38.57,167.56-74.99,167.56s-75.42-24.43-75.42-167.56S1190.79,0,1227.21,0s74.99,24.43,74.99,167.56Zm-45.42,0c0-110.13-15-131.13-29.57-131.13s-29.57,21-29.57,131.13,15,131.13,29.57,131.13,29.57-21,29.57-131.13Z"/><g class="cls-11"><g id="Solar"><path class="cls-4" d="M1227,369.22c-53.87,0-104.51-20.98-142.6-59.07-38.09-38.09-59.07-88.73-59.07-142.6s20.98-104.51,59.07-142.6c38.09-38.09,88.73-59.07,142.6-59.07s104.51,20.98,142.6,59.07c38.09,38.09,59.07,88.73,59.07,142.6s-20.98,104.51-59.07,142.6c-38.09,38.09-88.73,59.07-142.6,59.07Zm0-388.39c-49.88,0-96.77,19.42-132.03,54.69-35.27,35.27-54.69,82.16-54.69,132.03s19.42,96.77,54.69,132.03,82.16,54.69,132.03,54.69,96.77-19.42,132.03-54.69c35.27-35.27,54.69-82.16,54.69-132.03s-19.42-96.77-54.69-132.03c-35.27-35.27-82.16-54.69-132.03-54.69Z"/><path class="cls-4" d="M1227,309.47c-37.91,0-73.54-14.76-100.35-41.56-26.8-26.8-41.56-62.44-41.56-100.35s14.76-73.54,41.56-100.35c26.8-26.8,62.44-41.56,100.35-41.56s73.54,14.76,100.35,41.56c26.8,26.8,41.56,62.44,41.56,100.35s-14.76,73.54-41.56,100.35c-26.8,26.8-62.44,41.56-100.35,41.56Zm0-268.88c-70.01,0-126.97,56.96-126.97,126.97s56.96,126.97,126.97,126.97,126.97-56.96,126.97-126.97-56.96-126.97-126.97-126.97Z"/><circle class="cls-4" cx="1227" cy="167.56" r="74.69"/></g></g></g><g><path class="cls-3" d="M1489.62,335.12h-21.86l-74.14-188.56v188.56h-43.71V4.29h21.86l73.71,189.84V4.29h44.14V335.12Z"/><g class="cls-12"><g id="boboc"><path class="cls-6" d="M1512.43,262.18l-37.27,40.21v-31.01c0-3.06-2.48-5.54-5.54-5.54s-5.54,2.48-5.54,5.54v42.97l-42.02,45.34-.3,.32-46.19-49.85v-38.78c0-3.06-2.48-5.54-5.54-5.54s-5.54,2.48-5.54,5.54v26.82l-33.39-36.02c-.43-.47-.55-1.83-.55-1.92v-86.03l48.92,42.11,42.22-42.04,46.4,41.47,44.89-41.78v86.14c0,.11-.11,1.57-.55,2.06Z"/><path class="cls-6" d="M1421.39,462.73c-2.94,0-5.33-2.39-5.33-5.33v-104.59c0-2.94,2.39-5.33,5.33-5.33s5.33,2.39,5.33,5.33v104.59c0,2.94-2.39,5.33-5.33,5.33Z"/></g></g></g><g><path class="cls-3" d="M1655.03,335.12h-42.43l-8.14-58.28h-45.42l-7.71,58.28h-40.28L1561.18,6.71h43.71l50.14,328.4Zm-55.28-94.44l-18-137.4-18,137.4h36Z"/><g class="cls-15"><g id="romb-3"><rect class="cls-5" x="1527.1" y="66.52" width="145.29" height="145.29" transform="translate(2829.34 -893.63) rotate(135)"/></g></g></g><g><path class="cls-3" d="M1783.16,335.12h-106.71V6.71h45.43V298.96h61.28v36.16Z"/><g class="cls-16"><g id="N_star"><polygon class="cls-2" points="1734.31 223.77 1734.31 264.2 1694.03 264.2 1657.03 227.2 1697.39 227.2 1697.39 186.84 1734.31 223.77"/><polygon class="cls-2" points="1787.92 264.2 1747.49 264.2 1747.49 223.91 1784.49 186.91 1784.49 227.27 1824.85 227.27 1787.92 264.2"/><polygon class="cls-2" points="1747.56 317.65 1747.56 277.22 1787.85 277.22 1824.85 314.22 1784.49 314.22 1784.49 354.57 1747.56 317.65"/><polygon class="cls-2" points="1693.96 277.22 1734.38 277.22 1734.38 317.5 1697.39 354.5 1697.39 314.14 1657.03 314.14 1693.96 277.22"/></g></g></g><path id="_" class="cls-3" d="M167.13,150.35h-24.85l-4.71,54.85h19.28v39.43h-23.14l-8.14,94.28h-42.85l8.57-94.28h-29.57l-8.14,94.28H10.71l8.57-94.28H0v-39.43H22.71l4.71-54.85H10.28v-39.43H30.85L39.85,8.07h42.85l-9,102.85h29.14L111.85,8.07h42.85l-9,102.85h21.43v39.43Zm-67.71,0h-29.14l-4.71,54.85h29.14l4.71-54.85Z"/></g></g></svg>