<?xml version="1.0" encoding="UTF-8"?><svg id="Layer_2" xmlns="http://www.w3.org/2000/svg" viewBox="0 0 249.25 340.68"><defs><style>.cls-1{fill:#00402a;}.cls-2{fill:#eb0036;}.cls-3{fill:#f74b00;}.cls-4{fill:#ff8200;}.cls-5{fill:#099560;}</style></defs><g id="Layer_1-2"><g id="element"><polygon class="cls-1" points="237.86 202.9 243.1 197.63 249.25 201.9 244.01 207.17 237.86 202.9"/><polygon class="cls-1" points="109.6 118.27 123.15 126.41 117.43 141.29 103.88 133.15 109.6 118.27"/><polygon class="cls-3" points="110.88 215.54 119.74 209.67 127.12 217.45 118.26 223.32 110.88 215.54"/><polygon class="cls-4" points="223.19 323.93 230.68 316.39 239.48 322.51 231.99 330.05 223.19 323.93"/><polygon class="cls-4" points="148.52 262.27 154.15 262.28 155.12 267.87 149.5 267.86 148.52 262.27"/><polygon class="cls-4" points="172.26 69.18 181.07 69.19 182.6 77.94 173.79 77.93 172.26 69.18"/><polygon class="cls-2" points="180.29 140.13 185.02 136.27 189.85 140.44 185.12 144.3 180.29 140.13"/><polygon class="cls-4" points="192.32 200.1 204.82 210.12 197.05 224.29 184.55 214.26 192.32 200.1"/><polygon class="cls-2" points="222.86 272.67 222.66 288.69 206.72 291.29 206.92 275.26 222.86 272.67"/><polygon class="cls-5" points="70.89 251.32 75.61 251.88 75.88 256.67 71.15 256.1 70.89 251.32"/><polygon class="cls-5" points="157.29 104.6 158.95 109.05 154.82 111.48 153.15 107.03 157.29 104.6"/><polygon class="cls-5" points="149.1 197.44 146.86 191.22 152.64 187.91 154.89 194.13 149.1 197.44"/><polygon class="cls-4" points="0 332.9 8.86 327.03 16.24 334.8 7.38 340.68 0 332.9"/><polygon class="cls-2" points="95.33 307.89 105.55 320.24 95.07 332.53 84.85 320.19 95.33 307.89"/><polygon class="cls-4" points="47.02 292.86 51.74 293.42 52 298.21 47.28 297.65 47.02 292.86"/><polygon class="cls-2" points="16.98 300.16 16.05 293.61 22.38 291.54 23.32 298.09 16.98 300.16"/><polygon class="cls-5" points="110.62 4.23 112.8 0 117.38 1.43 115.19 5.66 110.62 4.23"/><polygon class="cls-4" points="138.42 34.12 140.61 29.89 145.19 31.32 143 35.55 138.42 34.12"/><polygon class="cls-2" points="134.72 64.8 128.26 63.38 128.55 56.72 135 58.14 134.72 64.8"/><polygon class="cls-1" points="166.67 324.41 164.43 318.19 170.21 314.88 172.45 321.1 166.67 324.41"/></g></g></svg>