<svg xmlns="http://www.w3.org/2000/svg" viewBox="0 0 425.79 520.14"><defs><style>.cls-1{fill:#ffad1d;}</style></defs><g id="Layer_2" data-name="Layer 2"><g id="Section_4_-_Trasee" data-name="Section 4 - Trasee"><g id="Semimaraton"><path id="Yellow_Footprint" data-name="Yellow Footprint" class="cls-1" d="M356.1,264.55c-4.59-7.22-9.29-14.37-13.65-21.72a5.27,5.27,0,0,1,.46-4.74c4.39-5.84,9.09-11.43,14.47-18.07,6.5,7.52,12.23,14.14,17.95,20.77Zm-15.39,19L325.4,261c-5.75,5.55-11.1,10.51-16.16,15.75a5.35,5.35,0,0,0-1.12,4.65c3.26,7.85,6.88,15.54,10.81,24.22,2.69-3,6.38-5.35,6.05-6.91-2.08-9.93,4.8-7.71,9.95-8Zm6.49-263.4a50.76,50.76,0,0,1,33.52,10.61c14,10.63,22,25.13,26,42,2.37,10,9.23,14.81,18.57,17.86C426,25.34,387.5-14.3,322.91,4.82,328.21,16.2,335.28,20.63,347.2,20.16ZM150.93,435.08A7.84,7.84,0,0,0,152.4,429c-3.57-15.38-7.32-30.72-11.43-45.95-.57-2.11-3.16-4.75-5.25-5.21-15.4-3.39-30.91-6.36-46.42-9.26-1.76-.33-4.51-.06-5.52,1.07-5.13,5.76-9.85,11.9-15.78,19.22,16.24,2.54,30.46,5.06,44.77,6.88,5.75.72,8.19,3.13,9.41,8.71,3.42,15.62,7.43,31.12,11.62,48.39C140.44,446,145.91,440.74,150.93,435.08ZM.44,454.57C5.28,465.14,10.75,475.52,19,483.86a144.35,144.35,0,0,0,19.63,16.19,156.81,156.81,0,0,0,20.59,12.81q4,2,8.18,3.62c2,.81,5,2.47,7.25,2.17,1.6-.21,1.3-2,1.53-3.3.81-4.54,1.64-9.08,2.44-13.62.26-1.46,3.45-16.85,3-17-23.06-8.44-39.47-23.79-52.46-43.88L15,446.34c-2.76,1.07-5.56,2-8.33,3.05-1.5.55-2.95,1.26-4.43,1.88-1.15.49-1.91.77-2.13,1.38A2.63,2.63,0,0,0,.44,454.57Zm116.15,14.17a7.81,7.81,0,0,0,2.93-6.42c-2.65-15.27-5.67-30.49-8.94-45.64-.39-1.77-2.93-4.19-4.68-4.39-16.16-1.77-32.37-3.19-48.58-4.47-1.57-.12-4.2,1-4.74,2.24-2.83,6.41-5.14,13.05-7.9,20.32,13.06,1.51,24.87,3.24,36.75,4.12,6.2.47,9.34,2.35,10.53,8.95,2,10.95,5.16,21.68,8.12,33.7C106.27,474.09,111.7,471.84,116.59,468.74ZM273.23,185.05c5.85-.1,8.54,2,10.56,7.29,4.31,11.3,9.3,22.34,14.66,35,6.05-6.78,11.22-12.27,15.94-18.12.89-1.11.51-3.9-.19-5.53-5.41-12.61-10.79-25.26-16.84-37.57-1.18-2.4-5.17-4.54-8-4.77-8.35-.67-16.77-.31-25.16-.34-22.18-.09-22.18-.09-26.41,23.2C249.94,184.55,261.6,185.27,273.23,185.05Zm66.23-17.34c1.14-3.16,1.48-7.44.28-10.46-4.87-12.29-10.24-24.4-16-36.29-1.22-2.5-4.93-5.35-7.52-5.37-13.47-.12-27,.53-40.43,1.16-2.07.1-4.83.89-6,2.36-3.95,5.11-7.34,10.66-11.75,17.26,15.2.59,28.84,1.47,42.49,1.48,5.75,0,8.6,2.13,11,7.09,6,12.59,12.55,24.94,19.69,39C334.52,177.57,337.61,172.86,339.46,167.71ZM277.76,249c1.85-1.66,3.31-5.62,2.66-7.88-2.66-9.26-6-18.34-9.55-27.32-.75-1.91-3.19-4.49-4.87-4.49-12.37,0-24.75.5-37.5.87-1.2,8.09-2.29,15.51-3.51,23.77,8.23-.25,15.55-.21,22.81-.79,4.36-.34,6.44,1,7.57,5.31,1.87,7,4.33,13.92,6.8,21.7C268.05,256.1,273.31,253,277.76,249ZM350,129.32c2.22-10.59,11.39-19.67,4.25-32.32-3.82-6.78-4-17.51-9.34-21-5.69-3.73-15.7-.24-23.64-1.29C305,72.52,299.13,85.29,288.59,95c13.44.32,24.82.84,36.2.76,5,0,7.86,1.57,9.93,6.21,4.12,9.25,8.82,18.24,13.28,27.33ZM146.3,498.41c-8.23-6.66-15.41-12.58-22.76-18.29a5.47,5.47,0,0,0-4.19-.51c-9.69,2.67-19.32,5.54-30,8.63-.69,9.46-1.48,20.26-2.33,31.9C109.1,519.3,127.62,511.71,146.3,498.41ZM175,371.68c-2.64-6.24-3.09-13.39-5.27-19.87a9.8,9.8,0,0,0-5.75-5.48c-7.34-2-15.26-2.26-22.32-4.88-14.13-5.25-21.13,4.66-31.64,12.73,14.3,2.39,26.49,4.77,38.77,6.31,5.28.66,7.24,2.84,8.27,7.8,2.42,11.61,5.46,23.08,8.44,35.37C176.36,394.2,180.36,384.48,175,371.68Zm-53.4-35.17c1.23-.93,2.06-4.15,1.4-5.51-5.19-10.87-10.78-21.55-16.26-32.29l-2.47-.49c-1.91,3.89-5.36,7.76-5.4,11.66-.09,8.11-2.13,10.64-10.73,9.44-5.45-.77-11.22,6-9.14,11.05,3.77,9.13,7.85,18.12,12.29,28.3C102,350.88,111.91,343.87,121.55,336.51Zm261.8-277.6c-5-15.83-14.45-24.19-31.79-23.68-8.11.24-16.29-2-26.14-3.43,4.52,8.21.88,19.57,13.36,19.39,18.58-.26,29.67,8.29,33.37,26.49a3.54,3.54,0,0,0,1,2c1.44,1.1,3,2.73,4.6,2.81,5,.28,10.08-.06,16.56-.19C389.9,73.1,385.7,66.3,383.35,58.91ZM196.65,432.45c5.4,1.06,8.23-2.94,6.28-8.19-2.69-7.28-.38-12.23,6.29-11.54s7.45-3.13,9-7.81c-10.24-4.17-20-8.34-30-12-1.69-.62-5.27.28-6.12,1.64-6,9.64-11.54,19.58-18,30.73C175.92,427.91,186.24,430.41,196.65,432.45Zm-195.31,1c9,.33,17,.83,25,.69,1.32,0,3.08-2.67,3.79-4.45,2.15-5.38,4-10.9,5.73-16.44.64-2,1.54-4.71.75-6.32-3.53-7.19-7.63-14.11-12.07-22.1C13.16,399.93,5,415,1.34,433.44Zm153.3,13.61c-1.52-.34-3.88-.09-4.86.89-6.73,6.7-13.19,13.67-21,21.85,12.58,3.56,23.16,7,34,9.39,4.78,1,6.49-2.21,5-7.25-1.73-5.78.86-10.24,7-9.68s8-2.63,10.45-7.88C174.35,451.74,164.52,449.27,154.64,447.05ZM245,275.47a5.85,5.85,0,0,0,2.29-4.79c-1-6.74-2.46-13.42-3.88-20.7-7.11,1.06-13.63,1.83-20,3.14a5.9,5.9,0,0,0-3.78,3.76c-2.32,11.44-4.28,22.95-6.75,36.68C224.79,286.9,235,281.35,245,275.47ZM57.15,345c-.9,2.85-2.66,5.74-2.55,8.56.29,6.93-1.65,9.61-9.14,9.47-5.1-.09-7.73,2.58-6.38,6.79,3.06,9.51,7.17,18.68,11.31,29.17,6.31-7.79,11.72-14.15,16.68-20.83a8.22,8.22,0,0,0,.89-6.26c-2.45-8.78-5.33-17.44-8.06-26.14ZM374.59,190.37c-.64,1.36-.84,3.75-.07,4.82,5.13,7.1,10.59,14,15.94,20.92l2.2-.42c.66-2.92,2.47-6.17,1.74-8.68-1.32-4.53-.55-6.26,4-7.75,5.87-1.93,7.65-10.92,3.46-15.42-4.83-5.19-9.82-10.22-15.83-16.44C381.78,175.85,378.05,183,374.59,190.37ZM271.05,307c-1.22.89-2.29,3.67-1.81,5,3.25,8.94,6.92,17.72,11.06,28.05,2.75-3.39,6-5.57,6-7.78.05-5.3,1.62-6.65,6.8-6,4.68.63,9.5-4.88,7.62-8.27-4-7.26-8.55-14.22-13.17-21.78C281.57,300.12,276.15,303.34,271.05,307Zm8.52-213.79a4.92,4.92,0,0,0,.39-4.19c-3.27-7.3-6.81-14.47-10.83-22.89-5.82,7.19-10.77,13.17-15.52,19.3-.81,1-1.42,3.05-1,4.11,3.27,7.55,6.84,15,10.89,23.64C269.58,105.74,274.7,99.58,279.57,93.24Zm94.91,70.54a6.26,6.26,0,0,0,4.11-3.59c2.68-7.58,4.93-15.31,7.59-23.8-8.56.94-16.31,1.66-24,2.75a5.69,5.69,0,0,0-3.73,3c-2.94,7.46-5.55,15-8.65,23.66C358.92,165.13,366.73,164.7,374.48,163.78ZM183.83,222.86l-25.33-5.42c.49,5.06,1.14,8.71,1.06,12.35a10.28,10.28,0,0,1-2.22,5.62c-2.42,3.11-5.28,5.89-8,8.8l1.14,2,29.22,2.25C181.14,239.67,182.44,231.54,183.83,222.86Zm22.86-127c6.05,1.79,12.05,3.75,18.15,5.28,1.67.42,4.5.26,5.36-.8,5.16-6.34,9.9-13,14.78-19.58a20.21,20.21,0,0,0-2.8-2.24q-6.26-2.73-12.56-5.34c-8.06-3.32-11.18-1.15-11.8,7.64-.13,1.84-1.58,3.93-3,5.27-2.85,2.66-6.11,4.87-9.19,7.28Zm94.58-24.7c7-5.77,13.33-10.8,19.44-16.07,1.16-1,2.34-3.08,2.11-4.41-.95-5.36-2.45-10.63-3.93-16.69L291.05,45.75ZM393.1,141.8a5.77,5.77,0,0,0,1.08,4.74c5.83,6.91,11.9,13.62,17.89,20.39l2.23-.51c-.08-3.37-.37-6.76-.16-10.11.13-2.17.31-5,1.67-6.31,6.42-6.06,6.34-11.07-.84-16.06-4.54-3.16-9.13-6.27-14.36-9.87C397.93,130.27,395.29,136,393.1,141.8ZM163.71,195.54l25.17,6.28c2.17-9.77,4.09-18.37,6.19-27.77l-22.95-6.41C170.72,177.74,172.13,187.61,163.71,195.54Zm32.92-76.95c-1.35-.38-4.63,1.15-4.68,1.94-.51,8.75-5.38,15.49-9.63,22.55-.16.26.33.9.52,1.36,23.64,6.33,23.65,6.33,31.6-16.41a25.05,25.05,0,0,0,.55-3.27C208.62,122.56,202.7,120.29,196.63,118.59Zm30.27,65.73c.4-1.55.4-3.75-.42-5-4.8-7.29-9.9-14.39-15.9-23-2.69,9.09-4.94,16.49-7,23.94a4.84,4.84,0,0,0,.59,3.57c5,7.2,10.18,14.3,16.48,23.07C223.17,197.94,225.18,191.17,226.9,184.32Zm24.62,96.88c7.89,2.88,15.69,5.9,23.62,8.5,1.88.62,4.82.62,6.25-.45,5.2-3.92,10-8.42,15.64-13.32C272.78,265.43,259.84,267.09,251.52,281.2ZM210.79,254c6.47-12,7.29-23.23-4-33.31-3.73-3.32-6.44-7.77-10.24-12.47C189.49,228.09,194.74,244.18,210.79,254ZM324.1,212c9-.19,17.92-.29,26.78-.67a6.44,6.44,0,0,0,4.52-2.1c3.72-5.37,7.06-11,11.05-17.33C341.91,189.52,329.49,195.54,324.1,212Zm-99.37-84.35c-.78,1.28-1.13,3.69-.44,4.84,4.12,6.87,8.6,13.53,13.86,21.65,4.18-7.55,7.72-13.61,10.85-19.88.61-1.23.1-3.56-.7-4.88-3.7-6-7.68-11.88-12.33-19C231.59,117,228,122.24,224.73,127.64Zm107.4,111.22c-22.75-6.82-30.16-4.79-41.22,11.28C313.57,258.83,324.78,255.76,332.13,238.86Zm-60.57-206c-6-3.55-10.5-1.45-12.94,5.33-.65,1.82-3,3.28-4.87,4.35-3.46,2-7.16,3.54-10.76,5.28a60.52,60.52,0,0,0,17.12,8.34,7.44,7.44,0,0,0,6-1.1c5.41-4.52,10.43-9.51,16.62-15.28C278.34,37,275,34.85,271.56,32.83ZM322,20.5c-4-3.26-7.76-6.73-12-9.48-1.77-1.15-6-1.81-6.61-.95-4,5.74-9.31,7.32-15.84,6.89-1-.07-2.12,1.19-3.84,2.24C297.72,33.05,307.16,33.39,322,20.5Zm72.5,71.1c-17.36-1.66-19.64-.27-25.07,15.29-.73,2.1-1.31,4.26-2.19,7.11C388.89,112.82,392.26,109.94,394.52,91.6Zm30.24,30.51c-.9-3.35-1.84-6-2.27-8.69-.32-2-.83-5,.23-6,5.59-5.47,2.88-8.14-2.79-10.36-3.23-1.27-6.37-2.78-9.56-4.19C403.14,110.79,406.16,117.23,424.76,122.11Z"/></g></g></g></svg>