<svg xmlns="http://www.w3.org/2000/svg" viewBox="0 0 50.35 50.35"><defs><style>.cls-1{fill:#ff6914;}</style></defs><g id="Layer_2" data-name="Layer 2"><g id="Section_7_-_CTA" data-name="Section 7 - CTA"><path id="_2" data-name="2" class="cls-1" d="M25.17,50.35A25.18,25.18,0,1,1,50.35,25.17,25.21,25.21,0,0,1,25.17,50.35ZM25.17,4A21.18,21.18,0,1,0,46.35,25.17,21.2,21.2,0,0,0,25.17,4Zm-7.5,28.4c4.65-3.84,9.6-7.65,9.6-11.34,0-1.59-.72-2.61-2.28-2.61s-2.43,1.2-2.43,3.27H17.61c.15-5.31,3.6-7.59,7.59-7.59,5,0,7.2,2.91,7.2,6.6,0,4.8-4.29,8.64-7.77,11.31h8.1v4.17H17.67Z"/></g></g></svg>