<svg xmlns="http://www.w3.org/2000/svg" viewBox="0 0 50.35 50.35"><defs><style>.cls-1{fill:#da0000;}</style></defs><g id="Layer_2" data-name="Layer 2"><g id="Section_7_-_CTA" data-name="Section 7 - CTA"><path id="_3" data-name="3" class="cls-1" d="M25.17,50.35A25.18,25.18,0,1,1,50.35,25.17,25.21,25.21,0,0,1,25.17,50.35ZM25.17,4A21.18,21.18,0,1,0,46.35,25.17,21.2,21.2,0,0,0,25.17,4Zm.12,9.88c4.62,0,7.11,2.64,7.11,5.94a5,5,0,0,1-3.3,4.92v.12a5.12,5.12,0,0,1,3.69,5.28c0,3.69-2.64,6.33-7.23,6.33s-7.86-2.16-8-7.11h5a2.62,2.62,0,0,0,2.85,2.85,2.28,2.28,0,0,0,2.46-2.46C27.84,27.8,26.67,27,24,27H23V22.85h1c1.74,0,3.42-.42,3.42-2.4a2.08,2.08,0,0,0-2.25-2.28,2.28,2.28,0,0,0-2.34,2.4h-5C18,16.25,20.82,13.88,25.29,13.88Z"/></g></g></svg>