<svg xmlns="http://www.w3.org/2000/svg" viewBox="0 0 36.28 36.28"><defs><style>.cls-1{fill:#fff;}</style></defs><g id="Layer_2" data-name="Layer 2"><g id="Footer"><path id="Instagram_Icon" data-name="Instagram Icon" class="cls-1" d="M21.54,18.18a3.32,3.32,0,1,1-3.31-3.32A3.32,3.32,0,0,1,21.54,18.18Zm14.74-9v18a9.13,9.13,0,0,1-9.13,9.13h-18A9.13,9.13,0,0,1,0,27.15v-18A9.13,9.13,0,0,1,9.13,0h18A9.13,9.13,0,0,1,36.28,9.13ZM28.65,14a6.32,6.32,0,0,0-6.32-6.31H14A6.32,6.32,0,0,0,7.64,14v8.39A6.32,6.32,0,0,0,14,28.68h8.38a6.32,6.32,0,0,0,6.32-6.31Zm-2,0v8.39a4.35,4.35,0,0,1-4.34,4.34H14a4.35,4.35,0,0,1-4.34-4.34V14A4.34,4.34,0,0,1,14,9.65h8.38A4.34,4.34,0,0,1,26.67,14Zm-3.27,4.2a5.18,5.18,0,1,0-5.17,5.17A5.18,5.18,0,0,0,23.4,18.18Zm1.53-5.52a1.23,1.23,0,1,0-1.23,1.23A1.23,1.23,0,0,0,24.93,12.66Z"/></g></g></svg>