<svg xmlns="http://www.w3.org/2000/svg" viewBox="0 0 36.28 36.28"><defs><style>.cls-1{fill:#fff;}</style></defs><g id="Layer_2" data-name="Layer 2"><g id="Footer"><path id="Facebook_Icon" data-name="Facebook Icon" class="cls-1" d="M27.1,0H9.18A9.18,9.18,0,0,0,0,9.18V27.1a9.18,9.18,0,0,0,9.18,9.18h6.16v-13H10.79V18.14h4.55v-4c0-4.49,2.68-7,6.77-7a27.54,27.54,0,0,1,4,.35V12H23.86a2.59,2.59,0,0,0-2.92,2.8v3.36h5l-.79,5.18H20.94v13H27.1a9.18,9.18,0,0,0,9.18-9.18V9.18A9.18,9.18,0,0,0,27.1,0Z"/></g></g></svg>